<svg width="710" height="1100" viewBox="0 0 710 1100" fill="none" xmlns="http://www.w3.org/2000/svg">
<g opacity="0.2">
<path d="M342.767 783.785C346.587 789.936 349.08 796.07 351.519 802.239C352.433 804.57 353.599 806.776 354.621 809.072C356.433 813.107 359.679 815.098 363.929 815.546C369.488 816.138 375.084 816.532 380.643 817.196C389.162 818.218 396.371 821.894 402.182 828.243C403.078 829.229 403.993 830.18 404.943 831.094C407.633 833.677 410.879 834.843 414.574 834.807C419.003 834.753 420.743 833.264 421.389 828.942C422.339 822.576 415.596 820.531 404.674 818.397C399.312 817.339 397.501 814.129 392.408 812.156C387.422 810.255 382.257 804.355 378.186 800.858C372.286 795.783 373.505 780.485 373.523 772.648C373.541 767.609 374.707 762.785 379.37 760.023C384.23 757.154 389.09 758.642 393.609 761.26C398.684 764.202 402.361 768.613 405.571 773.437C405.894 773.922 406.181 774.46 406.432 774.98C413.874 789.578 413.551 786.511 426.141 794.043C430.068 796.393 431.987 795.46 433.243 791.084C434.104 788.035 434.014 784.933 433.153 781.92C429.584 769.367 422.411 759.682 410.18 754.464C403.275 751.505 396.12 749.155 389.072 746.591C382.275 744.134 376.411 740.314 371.658 734.898C369.022 731.903 366.709 728.657 364.826 725.142C359.804 715.745 352.057 710.831 341.368 710.4C336.634 710.203 331.953 710.598 327.254 711.01C310.504 712.445 293.754 713.359 276.968 711.727C264.164 710.49 252.058 707.262 241.28 699.909C237.102 697.058 233.407 693.74 230.394 689.669C228.493 687.122 227.381 684.253 226.861 681.186C226.162 677.008 227.256 673.296 230.34 670.283C234.071 666.66 238.5 666.283 242.751 669.278C245.548 671.251 247.754 673.816 249.763 676.577C250.372 677.402 250.91 678.299 251.466 679.16C257.994 689.185 266.889 694.206 279.12 692.628C283.926 692 288.769 691.696 293.575 690.906C300.031 689.848 301.824 680.774 298.722 676.237C297.735 674.784 296.265 674.174 294.669 673.798C292.086 673.188 289.486 672.668 286.903 672.058C282.581 671.054 278.349 669.745 274.529 667.431C268.091 663.522 265.975 656.994 268.88 650.322C271.785 643.669 278.69 640.226 285.558 642.037C289.342 643.041 292.535 645.14 295.404 647.74C299.063 651.022 301.824 654.985 304.21 659.271C307.653 665.458 310.02 672.166 313.302 678.425C314.772 681.204 316.422 683.751 319.274 685.311C323.883 687.84 327.111 686.405 327.864 681.24C328.94 673.69 326.914 666.624 323.901 659.809C320.404 651.936 315.346 645.05 310.181 638.235C306.953 633.985 304.12 629.501 302.829 624.247C301.143 617.342 301.986 610.779 305.788 604.699C309.339 599.032 314.27 597.221 320.583 599.283C327.057 601.381 331.038 605.703 331.935 612.554C332.276 615.172 332.312 617.844 332.419 620.481C332.581 624.157 332.832 627.816 333.728 631.42C334.571 634.792 336.078 637.733 338.445 640.28C341.565 643.615 344.489 647.094 346.946 650.968C349.923 655.631 351.16 660.616 350.622 666.104C350.263 669.763 350.03 673.439 350.389 677.133C350.801 681.312 352.541 684.056 356.881 685.508C365.059 688.27 371.246 693.435 374.079 701.989C375.837 707.298 379.316 710.705 384.965 711.799C391.081 712.983 396.281 715.691 400.083 720.927C402.02 723.6 404.1 723.689 407.077 722.147C408.422 721.448 409.445 720.425 410.288 719.188C415.255 711.817 413.157 699.353 406.037 694.045C403.204 691.929 400.065 690.261 396.927 688.647C386.723 683.41 379.908 675.286 376.178 664.49C374.492 659.612 374.061 654.734 375.837 649.784C376.698 647.381 378.007 645.301 379.98 643.615C384.015 640.172 389.61 641.391 391.601 646.323C392.587 648.762 393.161 651.38 393.842 653.945C394.47 656.366 394.847 658.859 395.564 661.244C396.891 665.745 399.581 668.615 404.674 668.758C411.023 668.938 416.188 671.843 420.797 676.075C424.975 679.895 426.625 679.357 427.97 673.78C429.495 667.467 428.257 661.513 425.047 655.918C423.218 652.726 420.761 649.946 419.021 646.682C413.892 637.087 415.614 626.704 423.576 619.333C426.087 617.002 428.885 615.118 431.934 613.612C436.238 611.496 440.237 612.213 443.895 615.154C447.285 617.862 447.948 621.485 447.088 625.52C446.478 628.425 445.384 631.151 444.075 633.805C441.223 639.544 441.241 645.391 443.357 651.363C444.397 654.268 445.778 657.048 446.567 660.06C447.751 664.49 447.841 668.83 446.047 673.044C443.124 679.967 441.618 687.373 438.246 694.17C435.825 699.066 436.076 704.464 436.973 709.791C437.457 712.696 439.107 714.92 441.151 716.874C443.483 719.116 445.868 721.322 448.217 723.546C452.378 727.455 454.494 732.333 455.104 737.929C455.319 739.973 455.57 742.035 455.857 744.062C456.844 751.002 458.924 757.548 462.995 763.359C466.366 768.165 468.536 773.33 468.393 779.391C468.303 782.96 469.289 786.404 471.208 789.488C473.594 793.344 483.69 781.83 484.246 777.706C485.681 767.017 484.677 756.669 481.18 746.375C478.005 737.032 474.454 727.832 471.334 718.488C467.263 706.276 467.442 694.206 472.051 682.155C476.463 670.588 480.355 658.841 483.063 646.736C485.286 636.8 485.896 626.937 482.829 617.055C480.229 608.626 476.212 601.041 469.917 594.728C465.093 589.904 459.426 587.429 452.521 587.411C443.806 587.375 435.18 588.325 426.535 589.312C417.604 590.334 408.691 591.464 399.707 591.733C386.454 592.127 374.312 588.899 363.803 580.488C359.571 577.099 357.06 572.669 356.289 567.397C355.643 562.913 356.702 558.86 360.772 556.17C364.467 553.731 367.408 553.785 370.905 556.601C374.922 559.829 378.796 563.218 382.741 566.536C383.764 567.397 384.822 568.204 385.754 569.118C393.717 576.866 402.863 577.422 412.762 573.638C419.003 571.253 421.514 566.536 420.151 559.972C419.613 557.354 418.178 555.74 415.596 555.22C413.569 554.807 411.525 554.538 409.498 554.162C402.845 552.888 398.559 547.58 399.491 541.823C400.496 535.6 406.521 531.063 412.996 531.727C417.838 532.211 422.124 534.076 425.711 537.358C428.544 539.94 431.127 542.756 433.153 546.056C435.215 549.445 437.332 552.817 439.502 556.152C442.425 560.672 446.836 561.694 451.84 561.228C454.135 561.012 455.122 559.47 455.498 557.426C455.911 555.22 455.606 553.014 455.391 550.826C454.907 546.145 454.153 541.483 454.171 536.748C454.189 533.932 454.333 531.135 455.391 528.499C456.592 525.522 458.135 524.75 461.309 525.306C471.334 527.082 479.566 536.407 480.104 546.558C480.283 549.822 479.924 553.032 479.44 556.242C478.83 560.313 478.274 564.402 478.238 568.545C478.203 571.934 479.243 574.857 481.449 577.458C484.103 580.614 486.524 583.95 488.783 587.393C492.962 593.777 495.67 600.7 496.692 608.286C497.033 610.761 497.374 613.253 497.93 615.692C499.113 620.965 504.206 622.543 508.349 618.974C510.555 617.091 511.81 614.616 512.564 611.855C514.68 604.197 513.998 596.665 511.344 589.294C509.909 585.277 508.098 581.403 506.699 577.368C503.83 569.083 503.112 560.69 506.287 552.279C507.219 549.786 508.403 547.437 510.77 545.876C515.092 543.025 519.773 543.94 522.624 548.279C524.436 551.041 525.458 554.072 525.924 557.336C526.642 562.465 526.66 567.612 526.319 572.759C526.121 575.844 525.96 578.946 527.072 581.941C528.345 585.366 529.009 585.671 532.183 583.986C533.349 583.358 534.461 582.623 535.626 581.977C539.303 579.915 542.961 578.874 546.745 581.798C550.332 584.577 552.09 589.581 550.906 594.064C550.099 597.113 548.503 599.767 546.351 602.045C544.934 603.551 543.463 604.986 541.921 606.349C536.738 610.994 533.349 616.768 531.035 623.26C529.762 626.829 529.511 630.434 530.641 634.092C532.219 639.203 534.909 640.028 539.034 636.495C540.702 635.061 542.172 633.375 543.535 631.653C547.032 627.242 549.83 622.418 551.964 617.199C553.076 614.473 554.242 611.765 555.479 609.093C556.914 606.008 558.886 603.264 561.182 600.736C563.854 597.812 566.921 596.073 570.974 597.185C575.081 598.297 576.677 601.668 577.573 605.345C578.434 608.824 578.004 612.375 577.197 615.854C573.538 631.653 565.791 644.781 552.161 654.089C548.826 656.366 545.006 657.532 541.311 658.949C531.914 662.535 523.109 667.252 514.859 672.991C505.48 679.536 501.104 688.88 500.1 699.963C499.239 709.45 501.176 718.435 505.516 726.882C508.672 733.015 514.249 734.754 520.347 731.544C525.781 728.675 530.013 724.335 533.923 719.708C536.29 716.892 538.496 713.933 540.54 710.885C549.633 697.327 560.393 685.347 573.269 675.25C577.914 671.61 582.075 667.449 585.984 663.019C591.831 656.402 596.171 648.924 598.52 640.405C601.838 628.389 603.201 616.141 602.573 603.677C601.856 589.348 595.686 578.014 584.227 569.495C581.268 567.307 578.201 565.263 575.188 563.147C569.378 559.093 563.782 554.771 559.335 549.194C553.775 542.236 552.61 534.614 556.358 526.454C557.81 523.28 560.016 520.751 563.729 520.088C567.513 519.406 570.364 520.805 572.121 524.212C573.287 526.472 573.807 528.947 574.256 531.386C575.403 537.699 579.116 541.034 585.392 542.164C599.04 544.639 610.32 551.884 620.274 561.048C630.801 570.733 634.441 582.784 630.388 596.79C629.115 601.184 627.752 605.542 626.443 609.918C625.51 613.038 624.954 616.212 625.187 619.512C625.349 621.664 625.851 623.655 628.111 624.516C630.227 625.323 632.182 624.821 633.885 623.422C640.27 618.185 644.484 611.478 646.188 603.48C648.806 591.285 646.977 580.094 637.723 570.804C632.307 565.37 627.393 559.488 624.273 552.332C622.892 549.176 622.049 545.93 622.246 542.469C622.551 537.268 624.972 533.466 630.012 531.745C634.961 530.041 639.283 531.296 642.906 535.044C646.134 538.398 647.533 542.505 647.82 547.042C647.981 549.535 647.838 552.046 647.945 554.556C648.143 559.847 649.488 561.335 654.706 561.963C657.63 562.304 660.571 562.573 663.512 562.824C678.146 564.043 686.969 579.717 686.234 590.585C686.162 591.607 686.019 592.648 685.785 593.634C683.49 603.354 677.052 606.259 668.264 601.561C667.619 601.22 666.991 600.807 666.363 600.449C662.274 598.117 661.019 598.602 659.799 603.031C659.046 605.757 658.813 608.537 659.279 611.352C660.158 616.589 662.92 620.248 668.121 621.879C675.581 624.211 683.006 623.135 690.377 621.485C693.246 620.839 695.99 619.727 698.841 618.992C704.777 617.468 708.221 619.602 709.566 625.556C710.032 627.582 710.104 629.645 709.87 631.707C708.777 641.571 704.293 649.677 696.653 655.882C690.125 661.208 683.275 660.778 677.177 654.913C674.415 652.259 671.725 649.497 669.448 646.431C662.777 637.41 654.886 636.675 644.735 640.8C638.315 643.4 628.487 648.493 626.658 655.864C625.456 660.76 627.877 663.342 631.751 665.405C638.153 668.794 644.968 670.659 648.806 677.456C651.873 682.908 651.783 689.777 655.208 694.995C657.647 698.708 661.557 701.129 665.287 703.514C669.017 705.899 672.855 708.535 674.918 712.463C681.697 725.267 666.578 730.379 657.719 723.331C652.769 719.385 649.882 713.467 647.282 707.692C644.681 701.918 642.081 695.928 637.472 691.588C633.849 688.18 628.864 686.19 623.878 686.782C618.893 687.373 615.503 691.211 610.482 691.785C601.963 692.754 593.696 694.798 585.697 697.972C576.479 701.613 569.342 707.208 566.508 717.197C566.114 718.578 565.773 720.013 565.235 721.322C564.894 722.147 564.069 723.08 564.213 724.03C564.589 726.451 568.481 727.186 570.4 726.792C573.251 726.2 575.565 724.209 578.093 722.775C580.622 721.34 583.958 720.515 586.325 722.219C588.836 724.03 588.925 727.671 590.235 730.486C592.387 735.113 598.61 737.301 603.183 735.041C606.949 733.176 609.101 729.087 612.58 726.738C615.503 724.783 619.144 724.191 622.641 724.245C627.393 724.299 632.235 725.483 636.073 728.28C639.911 731.078 642.601 735.651 642.476 740.403C642.35 745.156 639.014 749.837 634.387 750.895C628.828 752.168 623.394 748.402 617.727 747.918C613.764 747.577 609.675 748.922 606.698 751.576C604.582 753.459 603.021 756.687 604.564 759.055C605.46 760.418 607.092 761.045 608.617 761.673C612.078 763.108 615.396 764.937 618.444 767.107C620.435 768.524 622.336 770.102 623.681 772.146C625.026 774.191 625.743 776.737 625.152 779.105C624.309 782.584 621.009 784.825 617.906 786.601C612.652 789.578 607.021 792.196 601.013 792.68C595.005 793.165 588.513 791.21 584.819 786.439C580.963 781.454 580.819 774.621 581.196 768.326C581.59 762.05 582.272 755.432 579.654 749.711C577.806 745.676 574.327 742.394 570.185 740.798C567.136 739.614 563.729 739.345 560.536 740.009C557.165 740.69 556.412 743.811 554.564 746.447C550.332 752.455 544.737 755.575 537.474 755.844C534.514 755.97 531.609 756.382 528.776 757.279C525.045 758.481 521.835 760.453 519.109 763.269C516.24 766.246 515.559 769.564 517.262 773.384C519.737 778.943 523.36 783.05 529.834 783.893C532.596 784.251 535.339 784.897 537.832 786.278C544.252 789.829 546.566 795.245 544.486 802.275C543.607 805.27 542.19 808.067 540.433 810.65C539.285 812.318 536.936 814.524 536.559 816.514C536.326 817.788 536.864 819.204 537.958 819.904C539.59 820.962 541.867 820.191 543.23 818.81C544.575 817.411 545.293 815.528 546.171 813.806C548.198 809.843 551.408 806.4 555.461 804.57C559.514 802.741 564.428 802.652 568.337 804.786C572.247 806.92 574.883 811.385 574.417 815.815C573.879 820.944 569.539 824.943 564.858 827.095C560.16 829.229 554.959 829.983 550.081 831.632C545.185 833.282 540.307 836.17 538.263 840.922C537.778 842.034 537.491 843.379 538.119 844.401C538.765 845.459 540.164 845.818 541.401 845.639C542.62 845.459 543.75 844.85 544.88 844.383C550.099 842.195 556.376 842.698 561.182 845.692C563.711 847.271 565.988 849.925 565.629 852.884C565.235 856.094 562.007 858.085 559.084 859.484C554.008 861.887 548.592 863.967 542.979 863.77C539.249 863.644 535.644 862.532 531.986 861.869C528.327 861.187 524.382 860.99 521.01 862.568C518.589 863.716 515.433 866.89 515.863 869.885C516.24 872.467 521.279 875.086 523.27 876.574C526.731 879.175 529.637 882.51 531.125 886.617C532.613 890.724 531.466 893.486 531.035 897.611C530.121 906.021 530.73 914.612 532.847 922.807C533.51 925.39 534.299 928.223 533.169 930.645C532.434 932.223 531.017 933.335 529.619 934.375C520.168 941.459 510.268 947.986 499.956 953.779C496.889 955.501 493.661 957.186 490.146 957.384C485.932 957.617 481.951 954.747 479.476 951.501C473.181 943.252 468.267 933.299 458.063 929.246C452.145 926.878 445.778 925.838 439.43 925.498C433.404 925.175 427.378 924.708 421.353 924.296C416.941 923.991 412.529 923.704 408.118 924.081C401.034 924.673 394.631 926.789 389.449 932.008C385.593 935.899 381.002 938.876 376.052 941.261C370.134 944.113 364.126 944.651 358.262 941.243C349.654 936.222 340.992 936.114 332.061 940.311C329.675 941.423 327.129 942.248 324.475 942.642C318.413 943.539 313.23 941.745 309.572 936.885C303.797 929.174 302.362 920.602 305.698 911.402C306.559 909.016 307.958 906.918 309.715 905.107C313.176 901.538 317.301 900.193 322.197 901.735C326.376 903.045 329.998 905.286 332.742 908.694C337.333 914.397 343.933 916.459 350.514 917.607C357.132 918.754 364.198 914.881 367.856 908.443C369.524 905.519 368.287 902.345 366.493 899.727C365.005 897.557 363.14 895.638 361.382 893.647C359.427 891.441 357.383 889.307 355.966 886.707C355.177 885.29 354.388 883.873 353.796 882.367C351.555 876.664 352.702 871.302 356.702 868.325C360.324 865.617 366.063 866.119 370.672 869.598C375.855 873.49 379.119 878.977 382.598 884.25C383.333 885.362 383.907 886.545 384.588 887.693C390.004 896.947 398.397 901 408.799 901.377C413.264 901.538 415.237 899.852 416.17 895.441C416.439 894.149 416.6 892.804 416.546 891.495C415.919 879.587 412.44 868.576 405.23 859.035C400.496 852.758 393.914 848.813 386.346 846.607C379.226 844.545 371.981 843.505 364.521 843.935C354.047 844.545 343.753 846.159 333.495 848.293C321.892 850.714 310.217 851.862 298.381 850.266C291.423 849.333 284.895 847.253 278.887 843.558C272.539 839.667 267.947 834.233 264.881 827.49C263.141 823.652 262.514 819.599 263.123 815.42C264.504 806.131 273.238 800.768 282.133 803.745C286.24 805.126 289.845 807.422 293.144 810.166C296.659 813.071 300.121 816.066 303.492 819.133C308.603 823.76 314.611 825.571 321.372 825.284C325.371 825.122 329.299 824.531 333.101 823.293C337.656 821.805 339.216 819.24 338.588 814.559C337.943 809.699 335.719 805.664 332.186 802.293C327.685 798.025 322.789 794.259 317.732 790.708C313.858 788 310.181 785.041 307.24 781.31C303.6 776.701 301.717 771.59 303.438 765.654C305.25 759.467 310.217 756.329 316.584 757.297C320.35 757.871 323.488 759.736 326.322 762.193C332.168 767.286 336.526 773.563 340.543 780.109C341.512 781.436 342.247 782.871 342.767 783.785Z" fill="white"/>
<path d="M-40.6731 941.404C-33.2844 944.399 -27.0614 948.236 -20.8742 952.128C-18.5428 953.599 -16.0501 954.818 -13.6649 956.181C-9.43253 958.602 -5.25395 958.243 -1.16507 955.876C4.16125 952.774 9.3979 949.492 14.778 946.479C23.0275 941.852 31.833 940.417 41.1406 942.3C42.5753 942.587 44.01 942.838 45.4626 943.036C49.5336 943.591 53.1921 942.516 56.456 940.059C60.3656 937.135 60.9395 934.678 58.6977 930.41C55.3979 924.133 44.6377 916.243 35.1328 917.462C29.1609 918.233 23.2428 919.22 17.4322 920.798C11.7652 922.34 5.99051 923.326 0.0903168 922.86C-8.46408 922.179 -15.4762 918.466 -20.5514 911.49C-23.8154 906.989 -25.9315 901.949 -23.5643 896.444C-21.1074 890.723 -15.799 888.894 -10.0961 888.284C-3.65785 887.602 2.47549 889.127 8.48329 891.333C9.09303 891.548 9.68486 891.835 10.2587 892.14C26.3812 900.282 24.1036 897.771 40.2081 896.264C45.2295 895.798 46.3414 893.718 44.6018 889.019C43.3823 885.737 41.2841 883.047 38.5582 880.913C27.2061 872.072 14.527 868.126 0.251709 871.426C-7.80054 873.291 -15.7093 875.856 -23.6539 878.169C-31.2937 880.393 -39.0052 880.824 -46.7705 879.102C-51.0567 878.151 -55.2352 876.788 -59.1986 874.869C-69.7795 869.776 -79.8762 870.44 -89.668 877.022C-94.008 879.927 -97.9175 883.334 -101.827 886.742C-115.78 898.919 -130.091 910.647 -146.088 920.116C-158.282 927.344 -171.159 932.365 -185.524 932.831C-191.083 933.011 -196.535 932.473 -201.861 930.805C-205.197 929.765 -208.067 927.953 -210.523 925.55C-213.877 922.286 -215.312 918.269 -214.523 913.588C-213.572 907.921 -209.86 904.711 -204.139 904.622C-200.373 904.568 -196.732 905.393 -193.164 906.54C-192.088 906.881 -191.029 907.312 -189.971 907.724C-177.633 912.387 -166.46 911.06 -156.597 901.698C-152.723 898.022 -148.616 894.597 -144.868 890.759C-139.811 885.612 -144.115 876.376 -149.836 874.349C-151.665 873.704 -153.369 874.116 -155.036 874.816C-157.727 875.946 -160.381 877.183 -163.071 878.331C-167.572 880.25 -172.181 881.846 -177.095 882.258C-185.362 882.976 -191.496 878.546 -193.253 870.727C-195.011 862.926 -191.101 855.358 -183.802 852.506C-179.785 850.928 -175.571 850.731 -171.32 851.161C-165.922 851.717 -160.901 853.439 -155.987 855.698C-148.885 858.962 -142.429 863.392 -135.435 866.817C-132.314 868.342 -129.194 869.525 -125.643 869.059C-119.904 868.306 -117.95 864.934 -120.658 859.859C-124.603 852.434 -131.005 847.467 -138.143 843.378C-146.374 838.661 -155.359 835.81 -164.398 833.12C-170.047 831.434 -175.463 829.3 -180.036 825.462C-186.044 820.423 -189.559 814.038 -190.133 806.165C-190.671 798.813 -187.443 793.988 -180.502 791.711C-173.365 789.379 -167.016 790.617 -161.762 796.122C-159.753 798.239 -157.996 800.588 -156.166 802.866C-153.62 806.04 -151.019 809.124 -147.881 811.743C-144.94 814.2 -141.676 815.832 -137.91 816.549C-132.96 817.5 -128.1 818.683 -123.383 820.53C-117.698 822.736 -113.358 826.377 -110.256 831.613C-108.194 835.11 -106.006 838.536 -103.28 841.567C-100.195 845.01 -96.8594 846.319 -92.0353 844.795C-82.9608 841.925 -74.0836 842.499 -66.0134 848.256C-60.992 851.825 -55.6836 852.596 -49.9448 849.888C-43.7218 846.965 -37.3553 845.996 -30.5584 848.166C-27.0793 849.278 -25.1963 848.005 -23.5464 844.687C-22.8111 843.199 -22.56 841.62 -22.6138 839.97C-22.9904 830.179 -32.9616 820.459 -42.7534 820.351C-46.6629 820.315 -50.5366 820.871 -54.3744 821.481C-66.8563 823.471 -78.2084 820.674 -88.5561 813.5C-93.2368 810.254 -96.8056 806.201 -98.4376 800.642C-99.2267 797.952 -99.424 795.244 -98.7604 792.464C-97.3975 786.779 -91.6228 784.214 -86.6552 787.317C-84.1982 788.859 -81.9744 790.796 -79.7148 792.643C-77.5807 794.383 -75.6259 796.356 -73.438 798.023C-69.3312 801.162 -65.0629 801.969 -60.454 798.777C-54.6793 794.795 -48.2052 794.024 -41.3366 794.777C-35.1315 795.459 -34.0197 793.899 -36.4407 788.07C-39.2025 781.453 -44.1701 776.969 -50.6621 774.082C-54.3744 772.432 -58.3557 771.553 -62.0501 769.778C-72.8462 764.577 -78.0828 754.229 -75.8052 742.483C-75.0879 738.77 -73.8325 735.291 -72.093 731.956C-69.636 727.275 -65.6189 725.32 -60.454 725.553C-55.6836 725.768 -52.7425 728.548 -50.8773 732.691C-49.5323 735.668 -48.7253 738.806 -48.1694 742.016C-46.9678 748.993 -43.1479 754.176 -37.3733 758.103C-34.5577 760.022 -31.5269 761.582 -28.8547 763.734C-24.9272 766.908 -22.022 770.692 -20.8563 775.624C-18.9553 783.676 -15.4762 791.262 -14.0415 799.494C-13.0193 805.43 -9.2711 810.057 -5.02081 814.218C-2.68942 816.495 0.215836 817.392 3.31836 817.804C6.8513 818.271 10.4022 818.683 13.9531 819.131C20.194 819.903 25.2513 822.862 29.4478 827.453C30.9722 829.138 32.5324 830.788 34.1106 832.42C39.5086 837.944 45.624 842.409 53.0307 844.938C59.164 847.018 64.4545 850.211 68.2564 855.698C70.5161 858.926 73.6186 861.347 77.3309 862.854C81.9578 864.737 83.4642 847.915 81.2584 843.88C75.5734 833.443 67.9336 824.87 58.1239 818.002C49.2108 811.761 40.0825 805.878 31.2053 799.602C19.6201 791.388 11.9445 780.52 8.19633 766.801C4.59166 753.637 0.413101 740.653 -5.05669 728.118C-9.54012 717.842 -15.4224 708.66 -24.5865 701.863C-32.3877 696.07 -40.9062 691.91 -50.6084 690.403C-58.0329 689.255 -64.7043 690.744 -70.8555 695.209C-78.6388 700.859 -85.7047 707.297 -92.7347 713.807C-100.016 720.532 -107.207 727.329 -115.044 733.408C-126.576 742.393 -139.47 747.414 -154.301 746.769C-160.273 746.5 -165.384 744.204 -169.509 740.008C-173.006 736.439 -174.692 732.153 -172.827 727.114C-171.123 722.54 -168.487 720.675 -163.537 720.908C-157.87 721.159 -152.203 721.662 -146.536 722.038C-145.083 722.146 -143.613 722.164 -142.16 722.379C-130.037 724.083 -121.536 718.613 -115.188 708.821C-111.188 702.652 -112.013 696.806 -117.519 691.856C-119.707 689.883 -122.038 689.381 -124.675 690.6C-126.737 691.551 -128.728 692.645 -130.79 693.631C-137.551 696.841 -144.814 694.905 -147.737 689.166C-150.894 682.961 -148.491 675.016 -142.286 671.393C-137.659 668.685 -132.637 667.538 -127.311 668.129C-123.114 668.596 -118.972 669.403 -115.026 671.035C-110.973 672.703 -106.902 674.335 -102.796 675.895C-97.254 678.011 -92.6629 676.056 -88.5202 672.38C-86.6193 670.694 -86.7448 668.685 -87.7312 666.623C-88.8072 664.399 -90.493 662.642 -92.1249 660.83C-95.6041 656.975 -99.3164 653.334 -102.365 649.102C-104.176 646.591 -105.88 643.991 -106.651 640.96C-107.53 637.535 -106.669 635.849 -103.459 634.271C-93.3803 629.321 -79.9838 632.262 -72.9 640.942C-70.6224 643.722 -68.847 646.824 -67.1791 649.981C-65.0629 653.998 -62.9109 657.997 -60.2567 661.709C-58.0688 664.758 -55.2532 666.659 -51.5947 667.556C-47.183 668.632 -42.861 670.013 -38.5928 671.627C-30.7198 674.586 -23.7974 678.997 -17.969 685.077C-16.068 687.068 -14.1311 689.04 -12.0508 690.869C-7.58533 694.779 -2.00793 692.878 -0.644974 687.014C0.0903015 683.911 -0.41185 680.88 -1.52374 677.939C-4.62627 669.743 -10.1319 663.503 -17.3054 658.66C-21.197 656.024 -25.3397 653.747 -29.2134 651.074C-37.1581 645.569 -43.2555 638.557 -45.9097 629.016C-46.6988 626.182 -47.183 623.331 -46.0891 620.408C-44.0984 615.064 -39.346 612.822 -33.9659 614.83C-30.5584 616.104 -27.6711 618.13 -25.1425 620.731C-21.1612 624.82 -17.8076 629.393 -14.7409 634.199C-12.9117 637.068 -11.0465 639.938 -8.10541 641.874C-4.73387 644.098 -3.94479 643.919 -2.22314 640.368C-1.59547 639.059 -1.07539 637.678 -0.465652 636.351C1.45326 632.136 4.05367 628.819 9.30826 628.962C14.3118 629.106 19.1359 632.405 20.9831 637.158C22.2385 640.386 22.5613 643.793 22.1309 647.219C21.8439 649.46 21.4673 651.72 20.9831 653.926C19.387 661.422 20.1402 668.775 22.2923 676.056C23.4759 680.073 25.61 683.427 28.9995 685.956C33.734 689.471 36.6751 688.466 38.0201 682.62C38.5761 680.271 38.7734 677.814 38.863 675.375C39.0962 669.188 38.4505 663.054 36.9441 657.028C36.155 653.872 35.4377 650.716 34.81 647.524C34.0747 643.829 34.0388 640.117 34.4334 636.369C34.8997 632.029 36.5137 628.478 40.8178 626.828C45.1936 625.16 48.8162 627.115 51.9905 629.787C55.0213 632.334 56.9582 635.759 58.5005 639.382C65.5305 655.827 67.1804 672.541 61.1188 689.686C59.6303 693.882 57.012 697.415 54.6268 701.074C48.601 710.399 43.8307 720.299 40.226 730.79C36.1371 742.716 38.3429 753.871 44.6556 764.398C50.0537 773.383 57.6217 780.126 66.9831 784.824C73.78 788.232 79.8775 786.151 83.1952 779.319C86.1722 773.221 87.1048 766.621 87.571 759.968C87.858 755.933 87.8759 751.844 87.7145 747.809C86.9792 729.839 88.7547 712.157 93.6326 694.815C95.3901 688.556 96.3944 682.136 96.9863 675.662C97.8829 665.977 96.8607 656.49 93.4174 647.38C88.5574 634.54 81.7784 622.757 73.0985 612.069C63.1273 599.784 50.2509 593.722 34.5231 593.615C30.47 593.579 26.3991 593.758 22.3461 593.848C14.5269 594.027 6.74373 593.812 -0.842239 591.75C-10.3292 589.167 -16.319 583.142 -18.2918 573.457C-19.0629 569.691 -18.7581 565.997 -15.8707 562.984C-12.9475 559.917 -9.50424 559.29 -5.72023 561.191C-3.22743 562.446 -1.1292 564.293 0.86145 566.194C5.99049 571.072 11.4603 571.61 17.7909 568.543C31.5461 561.854 46.2876 560.957 61.1188 562.643C76.7929 564.419 87.8759 572.758 93.3816 587.858C95.1032 592.593 96.7352 597.345 98.403 602.097C99.6046 605.487 101.183 608.679 103.514 611.441C105.056 613.252 106.796 614.687 109.378 613.988C111.782 613.324 113.198 611.602 113.808 609.235C116.086 600.43 115.458 591.714 111.782 583.5C106.168 570.947 97.2552 562.177 82.98 559.935C74.6229 558.626 66.4272 556.582 59.0026 552.26C55.7207 550.359 52.8513 548.009 50.7889 544.817C47.6864 539.993 47.3636 535.025 50.7172 530.219C54.017 525.485 58.6798 523.781 64.3289 524.767C69.3683 525.646 73.3137 528.39 76.506 532.246C78.2635 534.362 79.7878 536.693 81.4915 538.845C85.132 543.436 87.2841 543.867 92.3235 541.033C95.157 539.437 97.9367 537.769 100.699 536.065C114.508 527.619 132.585 535.832 138.987 545.983C139.597 546.933 140.135 547.956 140.583 548.996C144.869 559.146 141.031 565.925 130.146 567.449C129.339 567.557 128.532 567.593 127.725 567.683C122.578 568.274 121.771 569.512 123.564 574.246C124.676 577.17 126.272 579.806 128.514 581.994C132.71 586.083 137.552 587.535 143.237 585.598C151.397 582.819 157.297 577.044 162.767 570.767C164.901 568.328 166.623 565.549 168.685 563.038C172.971 557.819 177.437 557.478 182.512 561.89C184.234 563.397 185.651 565.19 186.798 567.163C192.25 576.65 193.523 586.764 190.78 597.273C188.43 606.258 182.064 610.347 172.828 609.11C168.649 608.554 164.435 607.836 160.436 606.581C148.635 602.904 141.139 607.388 134.773 617.664C130.755 624.156 125.322 635.078 128.496 642.843C130.612 647.972 134.45 648.707 139.238 648.008C147.147 646.86 154.428 644.08 162.247 647.631C168.524 650.483 172.918 656.652 179.356 659.073C183.929 660.795 188.986 660.382 193.864 660.095C198.742 659.79 203.871 659.647 208.265 661.781C222.63 668.757 212.497 683.158 200.033 682.638C193.057 682.351 186.637 678.961 180.575 675.518C174.514 672.075 168.291 668.434 161.368 667.574C155.934 666.892 150.196 668.363 146.161 672.147C142.125 675.931 141.587 681.544 137.499 685.328C130.54 691.748 124.532 698.94 119.475 706.956C113.647 716.192 110.921 725.822 114.92 736.547C115.476 738.017 116.104 739.506 116.462 741.048C116.695 742.016 116.57 743.361 117.323 744.115C119.242 746.016 123.169 744.133 124.622 742.536C126.756 740.151 127.527 736.869 128.837 733.946C130.146 731.023 132.585 728.1 135.795 728.082C139.202 728.064 141.659 731.238 144.654 732.888C149.568 735.614 156.544 733.498 159.145 728.512C161.279 724.406 160.525 719.366 162.104 715.008C163.413 711.368 166.282 708.48 169.439 706.239C173.707 703.19 178.782 701.092 184.037 701.092C189.273 701.092 194.653 703.405 197.63 707.709C200.607 712.031 200.697 718.344 197.272 722.307C193.165 727.06 185.884 727.239 180.504 730.503C176.755 732.781 173.994 736.636 173.079 740.94C172.415 743.989 173.133 747.881 176.056 748.993C177.742 749.638 179.607 749.118 181.364 748.688C185.382 747.701 189.506 747.181 193.649 747.11C196.339 747.074 199.065 747.235 201.594 748.186C204.104 749.118 206.4 750.929 207.422 753.404C208.929 757.045 207.476 761.188 205.844 764.792C203.118 770.854 199.8 776.844 194.761 781.184C189.722 785.542 182.674 788.016 176.289 786.169C169.618 784.25 165.027 778.26 161.279 772.414C157.531 766.568 153.836 760.237 147.793 756.848C143.524 754.462 138.306 753.799 133.571 755.09C130.092 756.023 126.882 757.995 124.461 760.668C121.896 763.483 123.277 766.729 123.331 770.28C123.474 778.368 120.533 784.788 114.238 789.774C111.692 791.8 109.378 794.06 107.442 796.714C104.913 800.193 103.335 804.067 102.761 808.335C102.133 812.855 103.711 816.262 107.711 818.54C113.539 821.875 119.421 823.167 125.734 819.705C128.424 818.235 131.276 817.015 134.414 816.621C142.43 815.616 148.008 818.916 150.752 826.52C151.917 829.748 152.491 833.174 152.599 836.599C152.67 838.823 152.007 842.32 152.975 844.346C153.585 845.638 155.002 846.534 156.437 846.462C158.571 846.337 160.113 844.185 160.4 842.051C160.687 839.935 160.095 837.8 159.754 835.684C158.983 830.842 159.593 825.695 162.014 821.427C164.435 817.159 168.739 813.877 173.599 813.249C178.459 812.604 183.714 814.863 186.189 819.096C189.058 824.009 187.803 830.394 185.005 835.361C182.207 840.329 178.083 844.382 174.801 849.027C171.537 853.69 169.062 859.429 170.335 864.97C170.64 866.261 171.25 867.642 172.469 868.162C173.725 868.682 175.213 868.091 176.2 867.14C177.168 866.19 177.778 864.916 178.477 863.751C181.705 858.406 187.605 854.766 193.828 854.299C197.092 854.048 200.858 854.945 202.455 857.797C204.194 860.917 202.616 864.791 200.93 867.929C197.989 873.363 194.51 878.743 189.399 882.24C186.009 884.554 182.064 885.917 178.37 887.71C174.675 889.503 171.035 891.871 169.062 895.475C167.645 898.076 166.91 902.954 169.241 905.339C171.25 907.383 177.437 906.433 180.199 906.469C184.969 906.523 189.722 907.616 193.721 910.289C197.72 912.961 198.509 916.171 200.787 920.134C205.449 928.222 211.583 935.45 218.792 941.386C221.07 943.251 223.616 945.259 224.19 948.147C224.567 950.012 224.011 951.949 223.455 953.778C219.653 966.242 215.098 978.491 209.7 990.345C208.086 993.878 206.328 997.482 203.333 999.939C199.729 1002.9 194.331 1002.93 190.009 1001.66C179.033 998.415 168.183 992.766 156.472 995.797C149.658 997.554 143.327 1000.76 137.463 1004.6C131.885 1008.24 126.218 1011.74 120.605 1015.29C116.48 1017.89 112.373 1020.51 108.679 1023.72C102.743 1028.85 98.4389 1034.89 97.2373 1042.93C96.3406 1048.9 94.1886 1054.55 91.3551 1059.87C87.9477 1066.28 82.9442 1070.65 75.5196 1071.42C64.5979 1072.57 56.8147 1078.09 51.5959 1087.64C50.2151 1090.18 48.4755 1092.57 46.3773 1094.65C41.571 1099.38 35.7963 1101.18 29.3761 1099.22C19.2076 1096.12 12.357 1089.41 9.3441 1079.08C8.55501 1076.39 8.44742 1073.61 8.82404 1070.87C9.59518 1065.43 12.3749 1061.56 17.7371 1059.75C22.3102 1058.19 26.9909 1057.83 31.6537 1059.08C39.4548 1061.18 46.6642 1058.71 53.2638 1055.44C59.8993 1052.16 63.6654 1044.11 62.7149 1036C62.2845 1032.31 59.1281 1030.3 55.8283 1029.14C53.0845 1028.17 50.1792 1027.66 47.3278 1027.06C44.1535 1026.36 40.9433 1025.78 37.9843 1024.4C36.3702 1023.65 34.7203 1022.91 33.2318 1021.96C27.5289 1018.34 25.054 1012.83 26.6681 1007.58C28.1207 1002.81 33.5726 999.527 39.939 999.617C47.0767 999.706 53.5508 1002.47 60.0786 1004.89C61.4416 1005.39 62.7508 1006.09 64.0779 1006.66C74.9278 1011.36 85.0244 1009.52 94.5293 1003.08C98.6182 1000.32 99.2638 997.536 97.2194 992.981C96.6276 991.654 95.8923 990.345 94.9777 989.233C86.6743 979.046 76.3983 971.514 63.7909 967.712C55.4876 965.22 47.0767 965.973 38.8989 968.95C31.2053 971.747 24.1036 975.549 17.755 980.768C8.84196 988.121 0.717987 996.263 -7.01146 1004.85C-15.7452 1014.56 -25.4115 1023.18 -36.9608 1029.48C-43.7577 1033.17 -50.9312 1035.57 -58.6606 1036.2C-66.8563 1036.86 -74.4602 1035.04 -81.5799 1031.02C-85.6329 1028.72 -88.8251 1025.55 -90.9951 1021.42C-95.8193 1012.26 -91.5331 1001.8 -81.6875 998.666C-77.1323 997.213 -72.4337 996.926 -67.7171 997.195C-62.6957 997.482 -57.6742 997.913 -52.6707 998.433C-45.1206 999.24 -38.5928 996.926 -32.7643 992.264C-29.321 989.52 -26.2005 986.435 -23.636 982.866C-20.5514 978.58 -20.8384 975.28 -24.443 971.514C-28.1733 967.623 -32.7822 965.453 -38.1444 964.771C-44.9234 963.892 -51.7382 963.731 -58.553 963.875C-63.7717 963.982 -68.9546 963.749 -74.0119 962.35C-80.2528 960.611 -85.2563 957.293 -87.5698 950.891C-89.9908 944.219 -87.6056 938.176 -81.3109 934.894C-77.5807 932.957 -73.5815 932.562 -69.4567 932.903C-60.9382 933.62 -52.9756 936.382 -45.1386 939.592C-43.3273 940.13 -41.7132 940.919 -40.6731 941.404Z" fill="white"/>
<path d="M454.727 413.65C462.008 411.821 468.859 411.301 475.728 410.835C478.31 410.655 480.875 410.207 483.457 409.92C488.012 409.418 491.007 406.835 492.783 402.764C495.114 397.456 497.284 392.058 499.705 386.768C503.417 378.679 509.317 372.708 517.441 368.977C518.697 368.403 519.916 367.794 521.136 367.148C524.543 365.319 526.713 362.467 527.843 358.791C529.188 354.397 528.255 352.209 524.202 350.201C518.213 347.26 505.659 347.224 499.113 353.411C494.988 357.302 491.043 361.338 487.492 365.749C484.031 370.071 480.193 374.017 475.441 376.922C468.554 381.154 461.165 382.212 453.436 379.72C448.45 378.106 444.057 375.433 442.801 369.946C441.492 364.243 444.505 359.903 448.522 356.262C453.041 352.173 458.565 349.932 464.34 348.282C464.931 348.12 465.523 348.013 466.133 347.905C482.919 345.161 479.781 344.516 491.204 334.437C494.773 331.299 494.468 329.111 490.523 326.492C487.779 324.663 484.694 323.784 481.43 323.677C467.891 323.246 456.054 327.281 447.034 337.701C441.94 343.583 437.349 349.914 432.579 356.083C428.006 362.019 422.375 366.61 415.524 369.605C411.74 371.255 407.795 372.528 403.724 373.281C392.838 375.272 385.539 381.387 381.737 391.789C380.051 396.398 378.957 401.168 377.881 405.921C374.007 422.922 369.632 439.78 362.709 455.866C357.437 468.133 350.425 479.073 339.754 487.412C335.611 490.64 331.182 493.24 326.196 494.944C323.076 496.002 319.901 496.217 316.691 495.751C312.333 495.123 309.016 492.864 307.025 488.864C304.622 484.022 305.644 479.521 309.948 476.293C312.782 474.159 316.01 472.778 319.363 471.666C320.386 471.325 321.426 471.074 322.448 470.787C334.428 467.505 342.193 460.296 344.489 447.706C345.403 442.757 346.623 437.879 347.358 432.875C348.344 426.15 339.951 421.505 334.482 423.137C332.724 423.657 331.666 424.913 330.787 426.365C329.37 428.715 328.025 431.136 326.627 433.485C324.259 437.43 321.641 441.196 318.144 444.245C312.244 449.374 305.124 449.41 299.457 444.424C293.808 439.457 292.57 431.53 296.534 425.325C298.722 421.9 301.806 419.425 305.285 417.38C309.697 414.816 314.485 413.327 319.471 412.323C326.68 410.871 334.051 410.655 341.278 409.382C344.488 408.808 347.537 407.983 349.976 405.652C353.922 401.904 353.545 398.245 348.667 395.896C341.547 392.435 333.926 392.202 326.232 393.044C317.355 394.013 308.944 396.846 300.569 399.787C295.35 401.635 290.024 403.016 284.428 402.639C277.076 402.137 270.853 399.214 266.046 393.547C261.563 388.256 261.33 382.804 265.365 377.209C269.49 371.47 275.031 368.906 282.079 370.179C284.769 370.663 287.423 371.488 290.078 372.205C293.772 373.21 297.466 374.124 301.304 374.375C304.891 374.608 308.28 374.053 311.544 372.51C315.83 370.484 320.188 368.69 324.797 367.471C330.339 366 335.665 366.359 340.92 368.619C344.435 370.125 347.986 371.524 351.752 372.331C356.02 373.246 359.266 372.385 362.099 368.547C367.408 361.338 374.474 356.854 383.817 356.764C389.61 356.711 394.075 354.343 396.945 349.107C400.047 343.422 404.369 339.154 410.736 337.055C414 335.979 414.735 333.953 414.143 330.527C413.874 328.985 413.193 327.64 412.224 326.421C406.521 319.193 393.537 317.31 386.023 322.672C383.028 324.807 380.392 327.389 377.809 329.971C369.416 338.418 359.23 342.579 347.376 342.848C342.014 342.973 337.046 341.862 332.724 338.544C330.626 336.93 328.976 334.975 327.936 332.518C325.819 327.443 328.779 322.296 334.284 321.883C337.01 321.686 339.772 321.937 342.516 322.081C345.116 322.224 347.699 322.637 350.281 322.69C355.159 322.798 358.835 321.04 360.575 316.055C362.763 309.832 367.264 305.653 372.896 302.425C377.989 299.502 377.971 297.691 372.896 294.606C367.121 291.109 360.844 290.445 354.316 291.844C350.586 292.651 347.053 294.194 343.269 294.893C332.168 296.92 322.448 291.952 317.678 281.748C316.171 278.52 315.185 275.184 314.665 271.687C313.929 266.773 315.902 263.043 319.973 260.353C323.721 257.86 327.505 258.362 331.218 260.478C333.89 262.003 336.257 263.939 338.445 266.074C343.215 270.718 349.008 272.548 355.572 272.332C358.782 272.225 361.956 271.741 365.184 271.902C369.936 272.135 374.241 273.408 377.863 276.529C383.781 281.604 390.632 285.442 396.281 290.912C400.352 294.857 405.768 296.31 411.31 297.117C414.34 297.547 417.048 296.633 419.649 295.216C422.608 293.602 425.531 291.97 428.472 290.338C433.655 287.469 439.143 286.913 444.882 288.078C446.98 288.509 449.078 288.921 451.194 289.262C458.368 290.463 465.487 290.481 472.517 288.293C478.346 286.482 484.121 285.98 490.075 288.024C493.572 289.244 497.284 289.352 500.942 288.437C505.498 287.289 497.32 273.677 493.41 271.83C483.296 267.042 472.751 264.764 461.47 264.962C451.248 265.159 441.026 265.751 430.786 265.876C417.425 266.038 405.553 262.038 395.098 253.681C385.055 245.665 374.671 238.115 363.57 231.605C354.46 226.279 344.883 222.548 334.159 222.459C324.995 222.369 316.225 223.929 308.011 228.18C301.717 231.426 297.484 236.25 295.278 243.065C292.499 251.673 290.687 260.496 288.948 269.338C287.136 278.484 285.433 287.648 282.85 296.615C279.048 309.85 272.036 320.825 260.397 328.537C255.717 331.639 250.552 332.733 245.082 331.819C240.455 331.047 236.779 328.716 235.416 323.838C234.178 319.408 235.165 316.539 239.038 313.957C243.486 310.998 248.077 308.236 252.596 305.402C253.762 304.667 254.892 303.878 256.111 303.232C266.28 297.798 269.723 288.939 269.113 277.964C268.736 271.041 264.863 267.078 257.94 266.343C255.179 266.056 253.134 266.952 251.789 269.355C250.749 271.221 249.834 273.175 248.812 275.04C245.44 281.228 238.859 283.792 233.443 281.03C227.614 278.053 225.032 270.683 227.722 264.495C229.731 259.868 232.923 256.228 237.299 253.699C240.742 251.727 244.347 250.041 248.256 249.09C252.273 248.122 256.272 247.082 260.254 246.006C265.652 244.535 268.055 240.5 269.167 235.407C269.687 233.058 268.467 231.623 266.566 230.583C264.522 229.471 262.244 229.076 260.003 228.61C255.214 227.606 250.372 226.888 245.71 225.364C242.93 224.449 240.204 223.427 237.944 221.544C235.38 219.428 235.093 217.652 236.653 214.693C241.567 205.35 253.403 200.149 263.607 202.821C266.889 203.682 269.938 205.045 272.969 206.534C276.807 208.417 280.662 210.264 284.751 211.609C288.105 212.703 291.315 212.595 294.579 211.25C298.542 209.618 302.595 208.273 306.72 207.125C314.36 205.009 322.053 204.525 329.873 205.924C332.437 206.372 335.002 206.821 337.584 207.054C343.161 207.556 346.336 203.019 344.13 197.782C342.964 195.002 340.902 192.994 338.427 191.362C331.522 186.842 323.865 185.157 315.741 185.426C311.311 185.587 306.899 186.143 302.488 186.251C293.395 186.466 284.877 184.511 277.56 178.736C275.39 177.015 273.435 175.114 272.646 172.28C271.193 167.097 273.579 162.775 278.761 161.323C282.061 160.39 285.379 160.336 288.75 160.928C294.059 161.843 299.134 163.439 304.12 165.412C307.097 166.595 310.11 167.725 313.427 167.582C317.229 167.42 317.731 166.828 317.068 163.17C316.817 161.825 316.458 160.498 316.171 159.135C315.292 154.849 315.418 150.903 319.507 148.088C323.381 145.433 328.886 145.254 332.939 147.854C335.701 149.612 337.817 152.033 339.395 154.867C340.435 156.732 341.386 158.651 342.247 160.605C345.188 167.205 349.833 172.37 355.518 176.71C358.638 179.095 362.117 180.494 366.117 180.53C371.658 180.583 373.344 178.18 371.138 172.98C370.259 170.881 369.04 168.891 367.767 167.008C364.503 162.166 360.611 157.861 356.145 154.113C353.796 152.141 351.501 150.15 349.241 148.07C346.641 145.667 344.542 142.869 342.785 139.784C340.74 136.215 339.987 132.629 342.354 128.988C344.758 125.294 348.595 124.774 352.505 125.043C356.217 125.294 359.589 126.836 362.781 128.737C377.253 137.345 387.781 149.146 392.658 165.555C393.86 169.572 393.806 173.715 394.039 177.822C394.613 188.259 396.478 198.445 399.563 208.417C403.06 219.751 410.915 227.032 421.568 231.515C430.66 235.353 440.147 236.304 449.885 234.672C456.933 233.488 460.43 228.538 459.157 221.49C458.045 215.196 455.086 209.654 451.75 204.346C449.724 201.118 447.482 197.997 445.115 195.02C434.588 181.749 426.141 167.33 420.241 151.405C418.106 145.667 415.309 140.233 412.17 134.96C407.472 127.087 401.464 120.452 393.788 115.43C382.956 108.346 371.282 103.146 358.746 99.8279C344.363 96.008 331.2 98.5367 319.166 107.181C316.064 109.404 313.069 111.79 310.038 114.103C304.191 118.569 298.148 122.729 291.225 125.366C282.581 128.665 274.69 127.392 267.804 121.115C265.132 118.676 263.32 115.699 263.841 111.808C264.361 107.862 266.638 105.459 270.566 104.813C273.166 104.383 275.766 104.634 278.331 104.975C284.931 105.836 289.396 103.217 292.517 97.371C299.278 84.656 309.984 75.7967 322.215 68.8563C335.127 61.5214 348.183 61.7187 360.736 70.1476C364.682 72.7838 368.556 75.5098 372.465 78.1998C375.263 80.1187 378.222 81.661 381.54 82.468C383.728 82.9881 385.844 83.1137 387.422 81.1589C388.892 79.3296 389 77.2135 388.157 75.0973C385.001 67.1347 379.692 60.8579 372.34 56.6435C361.113 50.2053 349.474 48.4836 337.369 54.6887C330.285 58.3292 322.914 61.3242 314.862 62.1491C311.311 62.5257 307.832 62.3285 304.478 61.0372C299.439 59.1004 296.444 55.4957 296.319 49.9721C296.211 44.5382 298.811 40.6645 303.653 38.2793C307.975 36.1452 312.495 36.0555 317.068 37.2212C319.579 37.8489 322.018 38.7815 324.528 39.4809C329.837 40.9514 331.72 40.0906 333.979 35.1409C335.253 32.3612 336.436 29.5456 337.602 26.7121C343.43 12.6341 361.723 8.85007 372.232 13.0286C373.218 13.4232 374.205 13.8894 375.101 14.4275C383.997 19.7717 384.821 27.0528 377.397 34.2442C376.841 34.7822 376.249 35.2485 375.693 35.7686C372.106 39.0684 372.178 40.4672 376.177 43.0676C378.634 44.6637 381.306 45.7936 384.23 46.206C389.682 46.9951 394.183 45.417 397.429 40.79C402.092 34.1546 403.383 26.4789 404.064 18.6598C404.333 15.629 404.1 12.5444 404.28 9.49568C404.638 3.14714 407.848 0.403282 414.161 0.959228C416.313 1.13856 418.375 1.71244 420.348 2.5912C429.745 6.78769 436.345 13.7818 440.075 23.2867C443.267 31.4286 440.685 38.0641 432.974 42.2427C429.494 44.1257 425.89 45.9191 422.142 47.1924C411.112 50.9226 407.902 58.5086 408.763 69.8427C409.301 77.0162 411.238 88.3324 417.945 92.4751C422.393 95.2189 425.71 93.6408 428.974 90.4485C434.354 85.194 438.336 79.0427 446.28 77.3928C452.629 76.0836 459.39 78.3433 465.649 76.6037C470.078 75.3663 473.701 72.2637 477.252 69.3226C480.803 66.3815 484.605 63.4403 489.142 62.6333C503.937 59.9791 504.206 76.5499 494.45 83.0598C488.981 86.7004 482.22 87.6868 475.692 88.422C469.164 89.1573 462.421 89.8388 456.682 93.031C452.163 95.5417 448.63 99.8279 447.643 104.939C446.657 110.05 449.365 114.623 448.361 119.77C446.621 128.504 446.029 137.309 446.639 146.222C447.338 156.481 450.602 165.322 459.587 171.258C460.825 172.083 462.134 172.872 463.264 173.822C463.981 174.432 464.627 175.526 465.613 175.688C468.124 176.082 470.078 172.459 470.294 170.451C470.599 167.456 469.361 164.533 468.751 161.574C468.142 158.615 468.357 155.046 470.796 153.27C473.378 151.369 477.001 152.428 480.193 152.033C485.448 151.369 489.59 145.9 488.783 140.663C488.138 136.359 484.766 132.934 483.547 128.755C482.542 125.258 483.116 121.474 484.264 118.013C485.824 113.332 488.532 108.92 492.514 105.997C496.495 103.092 501.857 101.872 506.52 103.504C511.183 105.136 514.751 109.907 514.339 114.82C513.837 120.721 508.403 124.899 506.125 130.351C504.529 134.171 504.583 138.636 506.251 142.403C507.452 145.093 510.142 147.657 512.976 146.886C514.608 146.438 515.756 145.003 516.85 143.712C519.36 140.735 522.212 138.045 525.314 135.713C527.341 134.189 529.511 132.808 531.95 132.127C534.389 131.445 537.133 131.553 539.285 132.862C542.459 134.799 543.643 138.762 544.396 142.385C545.687 148.518 546.476 154.902 545.059 161C543.643 167.097 539.643 172.89 533.761 175.042C527.628 177.284 520.813 175.275 514.716 172.908C508.618 170.541 502.305 167.761 495.813 168.55C491.24 169.106 486.9 171.509 484.013 175.096C481.879 177.732 480.534 181.014 480.175 184.385C479.781 187.936 482.632 189.658 484.659 192.33C489.25 198.41 490.577 204.92 488.55 212.201C487.725 215.16 487.223 218.155 487.223 221.239C487.223 225.292 488.174 229.112 490.092 232.681C492.119 236.465 495.204 238.187 499.508 237.702C505.785 237.003 510.985 234.725 513.855 228.61C515.092 225.992 516.581 223.481 518.751 221.454C524.292 216.236 530.372 215.662 536.666 219.93C539.339 221.741 541.67 224.019 543.661 226.566C544.952 228.215 546.368 231.246 548.234 232.251C549.417 232.896 550.995 232.806 552.036 231.946C553.596 230.672 553.56 228.18 552.609 226.386C551.659 224.611 550.027 223.32 548.592 221.903C545.31 218.657 542.925 214.389 542.405 209.815C541.867 205.224 543.338 200.346 546.691 197.154C550.027 193.962 555.282 192.76 559.514 194.626C564.41 196.778 567.01 202.319 567.638 207.645C568.266 212.972 567.369 218.334 567.459 223.696C567.548 229.058 568.857 234.797 572.892 238.312C573.843 239.137 575.063 239.837 576.3 239.55C577.555 239.245 578.362 237.971 578.56 236.698C578.775 235.425 578.524 234.134 578.416 232.86C577.896 226.996 580.371 220.97 584.854 217.15C587.204 215.16 590.557 213.743 593.355 215.034C596.404 216.433 597.354 220.253 597.802 223.589C598.574 229.363 598.914 235.371 596.96 240.859C595.668 244.499 593.427 247.727 591.597 251.135C589.768 254.542 588.316 258.362 588.818 262.2C589.176 264.962 591.328 269.086 594.431 269.607C597.103 270.055 601.282 265.894 603.38 264.406C607.038 261.805 611.253 259.994 615.79 259.815C620.309 259.635 622.694 261.644 626.64 263.384C634.674 266.934 643.354 269.051 652.124 269.553C654.886 269.714 657.934 269.822 659.979 271.705C661.306 272.924 661.951 274.682 662.543 276.385C666.56 287.971 669.878 299.807 672.353 311.84C673.088 315.409 673.734 319.139 672.819 322.672C671.707 326.923 667.618 329.954 663.637 331.37C653.487 334.975 642.099 336.697 634.872 345.502C630.675 350.613 627.626 356.567 625.295 362.736C623.071 368.601 620.704 374.393 618.39 380.222C616.705 384.49 615.019 388.758 613.997 393.242C612.329 400.433 612.401 407.427 615.933 414.188C618.57 419.246 620.058 424.715 620.847 430.347C621.798 437.09 620.435 443.205 615.216 447.922C607.54 454.844 604.689 463.363 606.016 473.513C606.375 476.221 606.375 479.001 605.926 481.745C604.904 488.021 601.497 492.577 595.543 494.657C586.092 497.939 577.161 496.63 569.126 490.443C567.046 488.846 565.414 486.784 564.177 484.489C561.756 479.933 561.72 475.432 564.786 471.092C567.405 467.362 570.776 464.51 575.009 462.878C582.11 460.152 586.217 454.27 589.427 448.119C592.655 441.95 591.059 433.736 585.841 428.087C583.473 425.522 579.94 425.738 576.802 426.67C574.184 427.459 571.691 428.697 569.18 429.791C566.383 431.028 563.621 432.373 560.59 432.965C558.94 433.288 557.29 433.628 555.604 433.736C549.256 434.148 544.324 431.333 542.638 426.419C541.114 421.971 543.427 416.466 548.305 413.005C553.793 409.113 560.231 407.625 566.562 405.849C567.889 405.472 569.252 405.275 570.597 404.97C581.447 402.531 588.118 395.519 591.777 385.369C593.355 381.011 592.297 378.536 588.226 376.205C587.042 375.523 585.751 374.931 584.442 374.591C572.48 371.434 560.482 371.398 548.79 375.523C541.096 378.231 535.106 383.468 530.533 390.265C526.247 396.667 522.929 403.482 520.992 410.996C518.284 421.523 516.616 432.23 515.505 443.044C514.249 455.274 511.667 467.182 506.358 478.373C503.238 484.955 499.113 490.747 493.572 495.518C487.707 500.557 480.892 503.391 473.253 504.287C468.895 504.79 464.698 504.144 460.771 502.207C452.019 497.921 449.473 487.591 455.229 479.736C457.883 476.113 461.309 473.28 465.039 470.877C469.02 468.312 473.073 465.855 477.162 463.488C483.349 459.901 487.026 454.539 488.891 447.742C489.985 443.743 490.648 439.672 490.63 435.529C490.595 430.562 488.568 428.212 483.726 427.352C478.723 426.455 474.024 427.37 469.576 429.809C463.927 432.911 458.655 436.552 453.544 440.443C449.634 443.42 445.563 446.128 440.936 447.85C435.233 449.984 429.584 450.235 424.258 446.648C418.716 442.9 417.174 437 420.151 431.01C421.908 427.459 424.742 424.948 428.06 422.94C434.946 418.779 442.532 416.448 450.262 414.547C452.001 414.152 453.669 413.865 454.727 413.65Z" fill="white"/>
<path d="M117.25 267.042C113.431 260.891 110.938 254.757 108.499 248.588C107.584 246.275 106.418 244.051 105.396 241.755C103.585 237.72 100.339 235.729 96.0887 235.281C90.5292 234.689 84.9339 234.295 79.3744 233.631C70.8559 232.609 63.6465 228.933 57.836 222.584C56.9393 221.598 56.0247 220.647 55.0742 219.733C52.3842 217.132 49.1382 215.984 45.4438 216.02C41.0142 216.074 39.2746 217.563 38.629 221.885C37.6785 228.251 41.337 239.783 48.9409 243.979C53.7292 246.615 58.5713 249.054 63.6824 251.009C68.6501 252.91 73.4025 255.295 77.4734 258.792C83.3737 263.868 86.53 270.342 86.4941 278.161C86.4762 283.2 85.3105 288.024 80.6477 290.786C75.7877 293.655 70.9276 292.167 66.4084 289.549C61.3331 286.607 57.6567 282.196 54.4465 277.372C54.1237 276.887 53.8368 276.349 53.5678 275.829C46.1253 261.231 46.4481 264.298 33.8586 256.766C29.9311 254.416 28.0122 255.349 26.7569 259.725C25.8961 262.774 25.9857 265.876 26.8465 268.889C30.4153 281.443 37.5888 291.127 49.8196 296.345C56.7241 299.305 63.8797 301.654 70.9276 304.218C77.7245 306.675 83.5888 310.495 88.3413 315.911C90.9775 318.906 93.291 322.152 95.174 325.667C100.195 335.064 107.943 339.978 118.631 340.409C123.366 340.606 128.047 340.211 132.745 339.799C149.495 338.364 166.245 337.432 183.031 339.082C195.836 340.319 207.941 343.547 218.719 350.9C222.898 353.751 226.574 357.069 229.605 361.14C231.506 363.687 232.618 366.556 233.138 369.623C233.838 373.801 232.744 377.514 229.659 380.526C225.929 384.167 221.499 384.526 217.249 381.531C214.451 379.558 212.245 376.993 210.237 374.232C209.627 373.389 209.089 372.51 208.533 371.649C202.005 361.624 193.11 356.603 180.879 358.181C176.073 358.809 171.231 359.114 166.425 359.903C159.969 360.961 158.175 370.035 161.278 374.572C162.264 376.025 163.735 376.635 165.331 377.011C167.913 377.621 170.514 378.141 173.096 378.751C177.418 379.755 181.65 381.064 185.47 383.378C191.909 387.287 194.025 393.815 191.119 400.487C188.214 407.14 181.31 410.583 174.441 408.772C170.657 407.768 167.465 405.67 164.596 403.069C160.937 399.787 158.175 395.824 155.79 391.538C152.347 385.351 149.98 378.643 146.698 372.385C145.227 369.605 143.577 367.058 140.726 365.498C136.117 362.969 132.889 364.404 132.153 369.569C131.077 377.119 133.104 384.185 136.117 391C139.614 398.873 144.671 405.759 149.836 412.574C153.064 416.824 155.898 421.308 157.189 426.562C158.893 433.467 158.032 440.031 154.248 446.11C150.697 451.777 145.765 453.588 139.452 451.526C132.978 449.41 128.979 445.088 128.1 438.255C127.76 435.637 127.724 432.965 127.616 430.328C127.455 426.652 127.204 422.993 126.307 419.389C125.464 416.017 123.958 413.076 121.59 410.53C118.47 407.194 115.565 403.697 113.09 399.841C110.113 395.178 108.875 390.193 109.413 384.705C109.772 381.047 110.005 377.37 109.647 373.676C109.234 369.497 107.495 366.753 103.155 365.301C94.9767 362.539 88.7896 357.374 85.9561 348.82C84.1986 343.511 80.7195 340.104 75.0703 339.01C68.9549 337.826 63.7721 335.118 59.9522 329.882C58.0154 327.209 55.935 327.12 52.958 328.662C51.613 329.362 50.5908 330.384 49.7479 331.621C44.7802 338.992 46.8785 351.456 53.9982 356.764C56.8317 358.88 59.9701 360.548 63.1086 362.162C73.3128 367.399 80.1276 375.523 83.8578 386.319C85.5436 391.197 85.974 396.093 84.1986 401.025C83.3378 403.428 82.0286 405.508 80.0559 407.176C76.0208 410.619 70.4255 409.4 68.4349 404.468C67.4485 402.029 66.8567 399.411 66.1931 396.846C65.5655 394.425 65.1888 391.932 64.4715 389.547C63.1444 385.046 60.4543 382.176 55.3611 382.033C49.0126 381.854 43.8477 378.948 39.2387 374.716C35.0602 370.896 33.4102 371.434 32.0652 377.011C30.5409 383.324 31.7783 389.278 34.9884 394.873C36.8177 398.066 39.2746 400.845 41.0142 404.109C46.1432 413.704 44.4216 424.087 36.459 431.458C33.9483 433.79 31.1506 435.673 28.1019 437.179C23.7978 439.295 19.7986 438.578 16.1401 435.637C12.7506 432.929 12.0871 429.306 12.9479 425.271C13.5576 422.366 14.6516 419.64 15.9608 416.986C18.8122 411.247 18.7943 405.401 16.6781 399.429C15.638 396.523 14.257 393.744 13.468 390.731C12.2843 386.301 12.1947 381.961 13.9881 377.729C16.9113 370.806 18.4177 363.4 21.7892 356.603C24.2103 351.707 23.9592 346.309 23.0625 340.983C22.5783 338.077 20.9284 335.854 18.8839 333.899C16.5526 331.657 14.1674 329.451 11.8181 327.227C7.65744 323.318 5.54126 318.44 4.93152 312.845C4.71631 310.8 4.46524 308.738 4.1783 306.711C3.19196 299.771 1.11162 293.225 -2.95934 287.415C-6.33089 282.608 -8.50085 277.443 -8.35738 271.382C-8.26772 267.813 -9.25409 264.37 -11.173 261.285C-13.5582 257.429 -23.6548 268.943 -24.2108 273.068C-25.6455 283.756 -24.6412 294.104 -21.1441 304.398C-17.9699 313.741 -14.419 322.941 -11.2985 332.285C-7.22755 344.498 -7.40689 356.567 -12.0159 368.618C-16.4276 380.186 -20.3192 391.932 -23.0272 404.038C-25.251 413.973 -25.8607 423.836 -22.794 433.718C-20.1936 442.147 -16.1765 449.751 -9.88176 456.045C-5.05759 460.87 0.609497 463.344 7.51398 463.362C16.2298 463.398 24.8559 462.448 33.4999 461.461C42.4309 460.439 51.344 459.309 60.3288 459.04C73.5818 458.646 85.723 461.874 96.2321 470.285C100.465 473.674 102.975 478.104 103.746 483.376C104.392 487.86 103.334 491.913 99.2629 494.603C95.5686 497.042 92.6274 496.988 89.1304 494.172C85.1132 490.944 81.2395 487.555 77.2941 484.237C76.2898 483.376 75.2317 482.569 74.2812 481.655C66.3187 473.907 57.1725 473.351 47.273 477.135C41.0321 479.521 38.5214 484.237 39.8843 490.801C40.4224 493.419 41.8571 495.033 44.4395 495.553C46.466 495.966 48.5105 496.217 50.537 496.611C57.1904 497.885 61.4766 503.193 60.544 508.95C59.5397 515.173 53.514 519.71 47.0399 519.047C42.1978 518.544 37.9117 516.697 34.3249 513.415C31.4914 510.833 28.9089 508.017 26.8824 504.717C24.82 501.328 22.7038 497.956 20.5338 494.621C17.6107 490.102 13.1989 489.079 8.19543 489.546C5.89992 489.761 4.91357 491.303 4.53697 493.348C4.1245 495.553 4.42937 497.759 4.64458 499.947C5.12878 504.628 5.88199 509.291 5.86404 514.025C5.84612 516.841 5.70267 519.638 4.62665 522.275C3.42508 525.252 1.90071 526.023 -1.29149 525.467C-11.3165 523.691 -19.548 514.366 -20.086 504.215C-20.2654 500.951 -19.9067 497.741 -19.4225 494.531C-18.8127 490.442 -18.2568 486.371 -18.2209 482.229C-18.1851 478.821 -19.2252 475.916 -21.4311 473.316C-24.0853 470.159 -26.5063 466.824 -28.766 463.38C-32.9445 456.996 -35.6525 450.073 -36.6747 442.487C-37.0155 440.013 -37.3562 437.52 -37.9122 435.081C-39.0958 429.808 -44.1711 428.23 -48.3317 431.799C-50.5375 433.682 -51.7929 436.157 -52.5461 438.919C-54.6623 446.576 -53.9808 454.108 -51.3266 461.479C-49.8919 465.496 -48.0806 469.37 -46.6818 473.405C-43.8124 481.691 -43.095 490.084 -46.2693 498.495C-47.2018 500.987 -48.3855 503.337 -50.7527 504.897C-55.0748 507.748 -59.7554 506.834 -62.6069 502.494C-64.4182 499.732 -65.4404 496.701 -65.9067 493.437C-66.6241 488.308 -66.642 483.161 -66.3013 478.014C-66.104 474.93 -65.9426 471.827 -67.0545 468.832C-68.3278 465.407 -68.9913 465.102 -72.1656 466.788C-73.3313 467.415 -74.4432 468.151 -75.6089 468.796C-79.2853 470.859 -82.9438 471.899 -86.7278 468.976C-90.3145 466.196 -92.072 461.192 -90.8884 456.709C-90.0814 453.66 -88.4853 451.006 -86.3333 448.728C-84.9165 447.222 -83.428 445.787 -81.9036 444.424C-76.7208 439.779 -73.3313 434.005 -71.0178 427.513C-69.7446 423.944 -69.4935 420.339 -70.6233 416.681C-72.2015 411.57 -74.8915 410.745 -79.0163 414.278C-80.6841 415.712 -82.1547 417.398 -83.5177 419.12C-86.9968 423.531 -89.8124 428.356 -91.9465 433.574C-93.0584 436.3 -94.2241 439.008 -95.4615 441.68C-96.8962 444.765 -98.851 447.509 -101.164 450.038C-103.837 452.961 -106.903 454.7 -110.956 453.588C-115.063 452.477 -116.659 449.105 -117.556 445.429C-118.417 441.949 -117.986 438.399 -117.179 434.919C-113.521 419.12 -105.773 405.992 -92.1438 396.685C-88.8081 394.407 -84.9882 393.241 -81.2939 391.825C-71.8966 388.238 -63.0911 383.521 -54.8416 377.783C-45.4623 371.237 -41.0864 361.893 -40.0822 350.81C-39.2213 341.323 -41.1402 332.339 -45.4981 323.892C-48.6545 317.758 -54.2319 316.019 -60.3293 319.247C-65.7812 322.116 -69.9956 326.456 -73.9052 331.083C-76.2724 333.899 -78.4783 336.858 -80.5227 339.907C-89.6151 353.464 -100.375 365.444 -113.252 375.523C-117.879 379.163 -122.057 383.324 -125.967 387.754C-131.813 394.371 -136.153 401.85 -138.502 410.368C-141.82 422.384 -143.183 434.632 -142.555 447.096C-141.838 461.425 -135.669 472.76 -124.209 481.26C-121.25 483.448 -118.201 485.493 -115.171 487.609C-109.36 491.662 -103.765 495.984 -99.3173 501.579C-93.7578 508.537 -92.5921 516.159 -96.3403 524.319C-97.7929 527.493 -99.9987 530.022 -103.711 530.686C-107.495 531.367 -110.346 529.968 -112.104 526.561C-113.27 524.301 -113.79 521.826 -114.238 519.387C-115.386 513.075 -119.098 509.739 -125.375 508.609C-139.023 506.134 -150.303 498.889 -160.274 489.725C-170.801 480.041 -174.442 467.989 -170.389 453.983C-169.115 449.589 -167.752 445.231 -166.443 440.855C-165.511 437.735 -164.955 434.543 -165.188 431.279C-165.349 429.127 -165.851 427.136 -168.111 426.275C-170.227 425.468 -172.182 425.988 -173.904 427.369C-180.288 432.606 -184.502 439.313 -186.206 447.312C-188.824 459.507 -186.995 470.697 -177.741 479.987C-172.325 485.421 -167.412 491.303 -164.291 498.459C-162.91 501.615 -162.067 504.861 -162.265 508.322C-162.57 513.523 -164.991 517.325 -170.03 519.047C-174.98 520.75 -179.302 519.495 -182.924 515.729C-186.152 512.375 -187.551 508.268 -187.838 503.731C-188 501.238 -187.856 498.728 -187.964 496.217C-188.161 490.909 -189.506 489.438 -194.725 488.81C-197.648 488.47 -200.589 488.201 -203.512 487.949C-218.146 486.73 -226.97 471.056 -226.234 460.188C-226.163 459.166 -226.019 458.126 -225.786 457.139C-223.49 447.419 -217.052 444.514 -208.265 449.213C-207.619 449.553 -206.991 449.966 -206.364 450.324C-202.275 452.656 -201.019 452.172 -199.8 447.742C-199.047 445.016 -198.814 442.236 -199.28 439.421C-200.159 434.184 -202.92 430.526 -208.121 428.894C-215.582 426.562 -223.006 427.62 -230.377 429.288C-233.246 429.934 -235.99 431.046 -238.842 431.781C-244.778 433.305 -248.221 431.171 -249.566 425.217C-250.032 423.191 -250.104 421.128 -249.871 419.066C-248.777 409.202 -244.294 401.096 -236.672 394.891C-230.144 389.565 -223.293 389.995 -217.196 395.842C-214.434 398.478 -211.726 401.258 -209.466 404.324C-202.813 413.345 -194.904 414.08 -184.754 409.956C-178.333 407.355 -168.506 402.262 -166.676 394.873C-165.475 389.978 -167.896 387.395 -171.77 385.333C-178.172 381.925 -184.987 380.078 -188.825 373.281C-191.891 367.829 -191.802 360.961 -195.227 355.742C-197.666 352.03 -201.575 349.609 -205.306 347.223C-209.036 344.838 -212.856 342.202 -214.936 338.275C-221.715 325.47 -206.597 320.359 -197.738 327.407C-192.788 331.352 -189.901 337.27 -187.318 343.045C-184.736 348.82 -182.117 354.809 -177.508 359.149C-173.886 362.557 -168.9 364.547 -163.915 363.956C-158.929 363.364 -155.539 359.526 -150.518 358.952C-142 357.984 -133.732 355.939 -125.734 352.765C-116.516 349.124 -109.378 343.529 -106.545 333.54C-106.15 332.159 -105.827 330.724 -105.271 329.415C-104.931 328.59 -104.106 327.658 -104.249 326.707C-104.626 324.286 -108.517 323.551 -110.436 323.946C-113.288 324.537 -115.601 326.528 -118.13 327.963C-120.658 329.397 -123.994 330.222 -126.361 328.519C-128.872 326.707 -128.962 323.067 -130.271 320.251C-132.423 315.624 -138.646 313.436 -143.219 315.696C-146.985 317.561 -149.137 321.65 -152.616 323.999C-155.539 325.954 -159.18 326.546 -162.677 326.492C-167.43 326.438 -172.272 325.255 -176.109 322.439C-179.947 319.641 -182.637 315.068 -182.512 310.316C-182.386 305.563 -179.051 300.883 -174.424 299.825C-168.864 298.551 -163.43 302.317 -157.763 302.802C-153.8 303.142 -149.711 301.779 -146.734 299.143C-144.618 297.26 -143.058 294.032 -144.6 291.665C-145.497 290.302 -147.129 289.674 -148.653 289.046C-152.114 287.612 -155.432 285.783 -158.481 283.613C-160.471 282.196 -162.39 280.618 -163.717 278.573C-165.062 276.547 -165.78 274 -165.188 271.633C-164.345 268.154 -161.045 265.912 -157.943 264.137C-152.688 261.16 -147.057 258.559 -141.049 258.057C-135.041 257.573 -128.549 259.528 -124.855 264.298C-120.999 269.284 -120.856 276.116 -121.232 282.411C-121.609 288.706 -122.308 295.305 -119.69 301.026C-117.843 305.061 -114.364 308.343 -110.221 309.939C-107.172 311.123 -103.765 311.392 -100.573 310.728C-97.2011 310.047 -96.4658 306.926 -94.6007 304.29C-90.3683 298.282 -84.773 295.162 -77.5098 294.875C-74.5508 294.767 -71.6455 294.337 -68.812 293.44C-65.0818 292.257 -61.8716 290.266 -59.1457 287.45C-56.2763 284.473 -55.5948 281.156 -57.2985 277.336C-59.7734 271.776 -63.396 267.687 -69.8701 266.827C-72.6319 266.468 -75.3757 265.822 -77.8685 264.441C-84.2888 260.891 -86.6022 255.475 -84.5219 248.444C-83.6432 245.45 -82.2264 242.634 -80.4868 240.069C-79.3391 238.402 -76.9898 236.196 -76.6132 234.205C-76.38 232.932 -76.918 231.515 -78.012 230.816C-79.644 229.758 -81.9215 230.529 -83.2845 231.91C-84.6475 233.308 -85.3469 235.191 -86.2256 236.913C-88.2522 240.876 -91.4623 244.32 -95.5153 246.149C-99.5683 247.978 -104.482 248.068 -108.392 245.934C-112.301 243.8 -114.938 239.334 -114.471 234.922C-113.933 229.793 -109.593 225.794 -104.895 223.642C-100.196 221.508 -94.9952 220.755 -90.1172 219.105C-85.2213 217.455 -80.3434 214.568 -78.2989 209.815C-77.8147 208.703 -77.5278 207.358 -78.1555 206.336C-78.8011 205.278 -80.1999 204.919 -81.4373 205.099C-82.6568 205.278 -83.7687 205.888 -84.9165 206.372C-90.1352 208.56 -96.412 208.058 -101.218 205.063C-103.747 203.485 -106.024 200.83 -105.666 197.871C-105.271 194.661 -102.043 192.653 -99.12 191.272C-94.0447 188.869 -88.6288 186.788 -83.0155 186.968C-79.2853 187.093 -75.6806 188.205 -72.0221 188.869C-68.3636 189.55 -64.4182 189.747 -61.0467 188.169C-58.6256 187.021 -55.4693 183.847 -55.8997 180.852C-56.2763 178.27 -61.3157 175.651 -63.3063 174.163C-66.7675 171.563 -69.6728 168.227 -71.1613 164.12C-72.6498 160.013 -71.502 157.251 -71.0537 153.127C-70.1391 144.716 -70.7488 136.126 -72.865 127.93C-73.5286 125.347 -74.3176 122.514 -73.1878 120.093C-72.4525 118.515 -71.0178 117.403 -69.6369 116.363C-60.1859 109.279 -50.2864 102.751 -39.9745 96.9583C-36.9079 95.2367 -33.6798 93.5509 -30.1648 93.3536C-25.9504 93.1205 -21.9691 95.9899 -19.4942 99.2359C-13.1995 107.485 -8.28566 117.439 1.91864 121.492C7.83676 123.841 14.2032 124.899 20.5518 125.24C26.5775 125.563 32.6032 126.029 38.629 126.441C43.0407 126.746 47.4524 127.033 51.8641 126.657C58.9479 126.065 65.3503 123.949 70.5331 118.73C74.3889 114.838 78.9799 111.861 83.9296 109.476C89.8477 106.625 95.8555 106.087 101.702 109.494C110.31 114.515 118.972 114.623 127.903 110.427C130.288 109.315 132.835 108.49 135.489 108.095C141.551 107.198 146.734 108.992 150.392 113.852C156.167 121.563 157.601 130.136 154.266 139.336C153.405 141.721 151.988 143.819 150.249 145.63C146.787 149.199 142.663 150.544 137.767 149.002C133.588 147.693 129.965 145.451 127.222 142.044C122.631 136.341 116.031 134.278 109.449 133.131C102.832 131.983 95.7659 135.857 92.1074 142.295C90.4395 145.218 91.677 148.392 93.4703 151.011C94.9588 153.181 96.8239 155.099 98.5635 157.09C100.518 159.296 102.563 161.43 103.997 164.03C104.769 165.447 105.576 166.864 106.167 168.37C108.409 174.073 107.261 179.436 103.262 182.413C99.6396 185.121 93.9007 184.6 89.2918 181.139C84.1089 177.248 80.845 171.778 77.3658 166.487C76.6306 165.375 76.0567 164.192 75.3752 163.044C69.9592 153.79 61.5662 149.737 51.1647 149.361C46.6992 149.199 44.7265 150.885 43.7939 155.297C43.5249 156.588 43.3635 157.933 43.4173 159.242C44.045 171.15 47.5241 182.161 54.7335 191.702C59.468 197.979 66.0497 201.942 73.6177 204.13C80.7374 206.193 87.9826 207.233 95.4431 206.802C105.916 206.193 116.21 204.579 126.468 202.444C138.054 200.023 149.746 198.876 161.583 200.472C168.541 201.404 175.069 203.485 181.077 207.179C187.425 211.071 192.016 216.505 195.083 223.248C196.822 227.103 197.45 231.138 196.84 235.317C195.459 244.607 186.726 249.969 177.831 246.992C173.724 245.611 170.119 243.315 166.801 240.572C163.286 237.666 159.825 234.671 156.454 231.605C151.36 226.978 145.335 225.167 138.574 225.453C134.574 225.615 130.647 226.207 126.845 227.444C122.29 228.933 120.73 231.497 121.357 236.178C122.003 241.038 124.209 245.073 127.76 248.444C132.261 252.713 137.157 256.479 142.214 260.03C146.088 262.738 149.764 265.697 152.705 269.427C156.346 274.036 158.229 279.147 156.507 285.083C154.696 291.27 149.728 294.409 143.362 293.44C139.596 292.866 136.457 291.001 133.624 288.544C127.778 283.451 123.42 277.174 119.403 270.629C118.506 269.391 117.753 267.956 117.25 267.042Z" fill="white"/>
<path d="M320.763 748.779C306.901 749.891 275.893 756.687 301.216 796.285C302.112 797.702 300.588 799.388 299.099 798.634C287.532 792.734 262.371 781.956 255.251 795.622C249.136 807.332 249.028 819.384 249.674 826.324C249.889 828.691 246.876 829.857 245.46 827.956C242.716 824.28 240.456 817.806 243.433 807.063C249.01 786.924 238.878 789.793 237.336 794.456C235.775 799.137 233.049 820.567 215.116 818.613C197.182 816.658 191.336 789.004 217.447 778.082C243.559 767.179 251.611 775.087 253.942 768.344C255.861 762.821 244.473 756.347 233.336 755.091C215.887 753.137 201.271 722.506 217.842 711.566C236.547 699.228 248.598 726.379 259.807 735.472C268.755 742.735 298.239 730.271 321.768 744.905C323.453 745.963 322.79 748.617 320.763 748.779Z" fill="white"/>
<path d="M375.565 616.552C375.565 623.008 370.329 628.245 363.872 628.245C357.416 628.245 352.18 623.008 352.18 616.552C352.18 610.096 357.416 604.859 363.872 604.859C370.329 604.859 375.565 610.096 375.565 616.552Z" fill="white"/>
<path d="M209.285 313.561C209.285 317.13 206.398 320.017 202.829 320.017C199.26 320.017 196.391 317.13 196.391 313.561C196.391 309.992 199.278 307.123 202.829 307.123C206.398 307.123 209.285 310.01 209.285 313.561Z" fill="white"/>
<path d="M120.012 304.72C120.012 308.289 117.124 311.177 113.555 311.177C109.987 311.177 107.117 308.289 107.117 304.72C107.117 301.152 110.005 298.282 113.555 298.282C117.106 298.282 120.012 301.152 120.012 304.72Z" fill="white"/>
<path d="M518.875 512.197C518.875 515.766 515.988 518.653 512.419 518.653C508.868 518.653 505.98 515.766 505.98 512.197C505.98 508.628 508.868 505.759 512.419 505.759C515.988 505.759 518.875 508.646 518.875 512.197Z" fill="white"/>
<path d="M296.567 505.758C296.567 508.197 294.594 510.152 292.156 510.152C289.734 510.152 287.762 508.179 287.762 505.758C287.762 503.337 289.734 501.364 292.156 501.364C294.612 501.346 296.567 503.319 296.567 505.758Z" fill="white"/>
<path d="M71.3942 722.362C73.4566 725.267 72.7751 729.284 69.8878 731.346C66.9825 733.409 62.9653 732.727 60.903 729.84C58.8406 726.935 59.5042 722.918 62.4094 720.837C65.2968 718.793 69.3318 719.474 71.3942 722.362Z" fill="white"/>
<path d="M351.341 237.899C353.404 240.804 352.722 244.821 349.835 246.884C346.93 248.946 342.913 248.264 340.85 245.377C338.788 242.472 339.451 238.455 342.357 236.374C345.262 234.312 349.279 234.994 351.341 237.899Z" fill="white"/>
<path d="M96.2873 426.49C96.2873 430.059 93.4 432.946 89.8312 432.946C86.2623 432.946 83.375 430.059 83.375 426.49C83.375 422.921 86.2623 420.034 89.8312 420.034C93.4 420.052 96.2873 422.939 96.2873 426.49Z" fill="white"/>
<path d="M0.466949 409.975C2.47553 411.338 2.99562 414.081 1.63266 416.09C0.269693 418.099 -2.47417 418.619 -4.48275 417.256C-6.49133 415.893 -7.01142 413.149 -5.64846 411.14C-4.2855 409.114 -1.54163 408.594 0.466949 409.975Z" fill="white"/>
<path d="M163.699 695.498C163.699 699.067 160.812 701.954 157.243 701.954C153.674 701.954 150.805 699.067 150.805 695.498C150.805 691.929 153.692 689.06 157.243 689.06C160.794 689.06 163.699 691.947 163.699 695.498Z" fill="white"/>
<path d="M189.414 634.235C189.414 636.674 187.442 638.628 185.021 638.628C182.6 638.628 180.627 636.656 180.627 634.235C180.627 631.814 182.6 629.841 185.021 629.841C187.442 629.841 189.414 631.796 189.414 634.235Z" fill="white"/>
<path d="M295.565 623.276C295.977 618.344 299.134 593.65 320.367 592.609C322.627 592.502 323.972 589.991 322.806 588.054C319.811 583.105 317.623 575.285 327.2 568.793C340.363 559.862 352.092 547.972 342.695 529.501C338.66 521.574 329.478 517.826 321.12 520.875C311.257 524.479 300.479 535.562 302.003 567.233C303.976 608.194 264.593 595.03 272.395 578.406C279.138 564.023 286.921 484.379 224.458 483.572C183.533 483.052 186.851 533.41 228.995 538.127C273.22 543.076 243.808 616.641 243.808 616.641L222.449 661.923C221.857 663.197 223.22 664.452 224.44 663.77C230.376 660.435 242.051 656.489 256.703 664.721C257.527 665.187 258.586 664.739 258.801 663.806L260.182 657.799C263.123 644.958 271.964 634.252 284.034 628.943L294.722 624.478C295.188 624.262 295.529 623.814 295.565 623.276Z" fill="white"/>
<path d="M184.394 549.105C193.881 552.566 217.105 575.7 207.565 589.922C203.243 596.36 195.908 608.932 209.717 618.167C220.674 625.502 252.471 616.966 237.765 579.951C226.861 552.476 199.225 543.043 184.753 545.428C182.834 545.751 182.565 548.423 184.394 549.105Z" fill="white"/>
<path d="M245.817 416.071C251.717 420.196 263.446 440.407 254.264 448.46C250.103 452.1 242.732 459.417 250.551 468.312C256.756 475.378 280.232 475.36 276.914 447.151C274.457 426.204 257.169 414.637 246.749 413.614C245.351 413.471 244.669 415.282 245.817 416.071Z" fill="white"/>
<path d="M328.275 340.015C322.393 344.158 299.402 348.355 294.954 336.985C292.946 331.838 288.57 322.422 277.541 326.744C268.789 330.188 260.844 352.264 288.516 358.72C309.05 363.509 325.8 351.17 330.302 341.719C330.876 340.464 329.423 339.208 328.275 340.015Z" fill="white"/>
<path d="M154.338 263.257C159.413 268.368 167.357 290.337 156.902 296.631C152.168 299.483 143.613 305.365 149.711 315.516C154.553 323.586 177.651 327.729 179.409 299.375C180.718 278.339 165.761 263.867 155.683 261.015C154.355 260.603 153.351 262.253 154.338 263.257Z" fill="white"/>
<path d="M101.181 522.812C101.181 522.812 131.83 514.24 150.284 541.517C150.284 541.517 174.189 525.664 190.814 533.196C190.814 533.196 157.045 491.894 216.011 464.868C274.995 437.842 228.224 404.073 206.918 408.754C186.94 413.147 170.782 433.735 175.516 468.832C176.377 475.162 175.552 481.618 173.221 487.572C169.509 497.059 162.765 508.358 152.364 504.502C135.219 498.135 154.175 486.263 155.735 474.929C157.296 463.577 129.301 455.292 125.661 473.476C122.02 491.661 134.699 499.696 119.115 507.748C103.53 515.8 98.8496 519.907 98.8496 519.907" fill="white"/>
<path d="M376.914 543.419C379.586 546.234 384.249 543.975 383.711 540.119C382.473 531.26 383.962 520.248 397.34 516.572C417.068 511.156 436.992 523.279 443.053 527.44C443.735 527.906 444.685 527.404 444.668 526.579C444.596 523.745 445.475 518.993 451.572 517.11C452.487 516.841 452.54 515.568 451.662 515.191C446.013 512.77 435.557 506.027 433.208 488.775C431.432 475.665 444.255 464.474 454.19 457.893C456.038 456.673 454.71 453.212 452.702 454.144C436.328 461.748 409.607 471.881 407.491 442.003C407.491 442.003 406.451 425.971 433.997 408.306C461.525 390.641 415.059 360.423 391.62 401.993C370.081 440.174 385.988 473.298 382.778 476.472C371.498 487.555 349.87 515.047 376.914 543.419Z" fill="white"/>
</g>
</svg>
