<svg width="969" height="100" viewBox="0 0 969 100" fill="none" xmlns="http://www.w3.org/2000/svg">
<mask id="mask0_8867_8108" style="mask-type:alpha" maskUnits="userSpaceOnUse" x="0" y="0" width="969" height="100">
<path fill-rule="evenodd" clip-rule="evenodd" d="M968.5 0H0.5V100H968.5C940.886 100 918.5 77.6142 918.5 50C918.5 22.3858 940.886 0 968.5 0Z" fill="#D9D9D9"/>
</mask>
<g mask="url(#mask0_8867_8108)">
<path d="M399.464 166.672C399.464 166.672 434.21 156.946 455.112 187.882C455.112 187.882 482.207 169.919 501.039 178.453C501.039 178.453 462.764 131.61 529.593 100.987C596.422 70.3493 543.438 32.0556 519.291 37.358C496.662 42.3328 478.336 65.6874 483.696 105.47C484.663 112.65 483.74 119.963 481.105 126.725C476.907 137.479 469.255 150.303 457.464 145.924C438.037 138.7 459.534 125.235 461.29 112.381C463.062 99.5276 431.322 90.1143 427.199 110.728C423.075 131.342 437.441 140.458 419.77 149.603C402.099 158.733 396.799 163.38 396.799 163.38M711.962 190.026C714.999 193.214 720.284 190.652 719.673 186.288C718.274 176.249 719.941 163.767 735.111 159.597C757.457 153.46 780.041 167.193 786.919 171.915C787.693 172.451 788.765 171.885 788.735 170.947C788.661 167.744 789.643 162.338 796.551 160.223C797.578 159.91 797.638 158.465 796.655 158.048C790.239 155.307 778.388 147.667 775.739 128.095C773.729 113.231 788.259 100.54 799.528 93.0783C801.627 91.6931 800.124 87.7609 797.831 88.8333C779.267 97.4572 748.986 108.941 746.589 75.0709C746.589 75.0709 745.413 56.8996 776.617 36.8666C807.821 16.8335 755.164 -17.4238 728.606 29.7023C704.191 73.0005 722.219 110.564 718.586 114.139C705.813 126.68 681.294 157.869 711.962 190.026ZM656.834 -40.5996C650.165 -35.893 624.112 -31.1416 619.065 -44.0403C616.773 -49.8789 611.83 -60.5582 599.325 -55.643C589.395 -51.7407 580.403 -26.7031 611.756 -19.3899C635.024 -13.9534 654.006 -27.9542 659.112 -38.6782C659.782 -40.0932 658.129 -41.5082 656.834 -40.5996ZM563.372 45.6543C570.057 50.346 583.366 73.2388 572.945 82.3691C568.225 86.4949 559.874 94.7911 568.732 104.89C575.758 112.903 602.362 112.873 598.61 80.8946C595.826 57.1528 576.22 44.0308 564.414 42.869C562.851 42.7052 562.077 44.7457 563.372 45.6543ZM493.774 196.476C504.523 200.408 530.844 226.622 520.035 242.753C515.138 250.051 506.816 264.305 522.477 274.791C534.908 283.102 570.935 273.435 554.276 231.463C541.905 200.304 510.612 189.609 494.191 192.32C492.003 192.663 491.705 195.716 493.774 196.476ZM189.077 259.807C191.593 257.93 204.59 249.038 213.999 258.645C214.996 259.673 216.753 259.241 217.184 257.886C218.271 254.385 221.04 250.066 228.141 251.868C237.907 254.341 248.448 254.892 253.226 242.678C255.281 237.436 253.197 231.507 248.239 228.841C242.388 225.684 232.622 225.252 218.286 239.297C199.751 257.454 189.42 233.28 200.555 229.988C210.187 227.129 251.127 197.325 225.253 167.432C208.297 147.845 185.877 170.604 201.359 192.529C217.616 215.541 170.453 232.55 170.453 232.55L140.069 241.472C139.22 241.725 139.19 242.902 140.039 243.2C144.103 244.6 150.877 248.472 153.154 258.854C153.288 259.45 153.943 259.747 154.464 259.464L157.889 257.588C165.198 253.581 173.982 253.268 181.559 256.739L188.154 259.911C188.452 260.045 188.809 260.016 189.077 259.807ZM619.765 280.585C620.241 274.984 623.814 246.998 647.872 245.821C650.433 245.702 651.951 242.842 650.626 240.653C647.232 235.038 644.761 226.19 655.613 218.817C670.545 208.689 683.825 195.21 673.165 174.268C668.595 165.287 658.174 161.027 648.721 164.482C637.54 168.563 625.333 181.134 627.06 217.045C629.293 263.486 584.661 248.562 593.489 229.705C601.126 213.396 609.954 123.091 539.166 122.182C492.792 121.586 496.558 178.692 544.317 184.039C594.442 189.654 561.094 273.048 561.094 273.048L536.873 324.389C536.203 325.819 537.751 327.264 539.136 326.49C545.865 322.706 559.085 318.238 575.699 327.562C576.637 328.098 577.828 327.577 578.081 326.519L579.644 319.713C582.979 305.146 592.998 293.022 606.664 286.989L618.768 281.925C619.333 281.702 619.72 281.181 619.765 280.585ZM261.325 183.175C261.325 187.211 258.05 190.488 254.015 190.488C249.981 190.488 246.706 187.211 246.706 183.175C246.706 179.139 249.981 175.862 254.015 175.862C258.05 175.862 261.325 179.139 261.325 183.175ZM499.476 292.992C499.476 295.747 497.243 297.982 494.489 297.982C491.735 297.982 489.502 295.747 489.502 292.992C489.502 290.236 491.735 288.002 494.489 288.002C497.243 288.002 499.476 290.236 499.476 292.992ZM470.312 362.475C470.312 366.511 467.037 369.788 463.002 369.788C458.968 369.788 455.693 366.511 455.693 362.475C455.693 358.438 458.968 355.161 463.002 355.161C467.052 355.161 470.312 358.438 470.312 362.475ZM285.323 38.7284C287.601 40.2774 288.182 43.3903 286.633 45.6543C285.085 47.9331 281.974 48.5289 279.696 46.965C277.418 45.416 276.838 42.303 278.386 40.0242C279.949 37.7602 283.046 37.1793 285.323 38.7284ZM393.911 57.4656C393.911 61.502 390.636 64.7788 386.601 64.7788C382.567 64.7788 379.291 61.502 379.291 57.4656C379.291 53.4292 382.567 50.1524 386.601 50.1524C390.65 50.1524 393.911 53.4292 393.911 57.4656ZM620.911 147.324C620.911 150.079 618.678 152.314 615.924 152.314C613.17 152.314 610.937 150.079 610.937 147.324C610.937 144.568 613.17 142.334 615.924 142.334C618.678 142.334 620.911 144.568 620.911 147.324ZM872.833 154.637C872.833 158.674 869.558 161.95 865.523 161.95C861.489 161.95 858.214 158.674 858.214 154.637C858.214 150.601 861.489 147.324 865.523 147.324C869.558 147.324 872.833 150.601 872.833 154.637ZM710.413 272.959C710.413 280.272 704.488 286.215 697.164 286.215C689.839 286.215 683.914 280.272 683.914 272.959C683.914 265.631 689.839 259.703 697.164 259.703C704.488 259.703 710.413 265.631 710.413 272.959ZM648.319 422.872C632.598 424.138 597.464 431.838 626.166 476.73C627.194 478.324 625.452 480.26 623.755 479.396C610.639 472.709 582.145 460.48 574.061 475.97C567.139 489.256 567.005 502.915 567.734 510.779C567.987 513.46 564.563 514.785 562.955 512.626C559.844 508.455 557.283 501.127 560.663 488.929C566.99 466.095 555.512 469.342 553.74 474.645C551.969 479.947 548.887 504.255 528.566 502.036C508.245 499.831 501.62 468.449 531.216 456.086C560.812 443.709 569.937 452.69 572.587 445.035C574.746 438.779 561.869 431.421 549.229 430.006C529.459 427.802 512.875 393.068 531.662 380.661C552.862 366.675 566.513 397.462 579.212 407.754C589.365 415.99 622.757 401.856 649.42 418.448C651.371 419.684 650.611 422.693 648.319 422.872ZM417.671 -123.338C413.353 -130.309 410.525 -137.265 407.756 -144.265C406.714 -146.901 405.389 -149.419 404.228 -152.01C402.188 -156.598 398.511 -158.832 393.673 -159.338C387.36 -160.009 381.033 -160.455 374.736 -161.215C365.089 -162.377 356.916 -166.532 350.321 -173.741C349.309 -174.844 348.266 -175.931 347.18 -176.973C344.143 -179.908 340.451 -181.233 336.267 -181.174C331.25 -181.114 329.285 -179.431 328.556 -174.531C327.484 -167.322 331.623 -154.23 340.242 -149.478C345.661 -146.484 351.17 -143.714 356.946 -141.495C362.588 -139.335 367.962 -136.639 372.577 -132.677C379.262 -126.913 382.835 -119.585 382.805 -110.708C382.79 -104.988 381.465 -99.5222 376.18 -96.3794C370.672 -93.1175 365.163 -94.8155 360.057 -97.7795C354.296 -101.116 350.142 -106.12 346.495 -111.587C346.123 -112.138 345.81 -112.734 345.512 -113.329C337.086 -129.877 337.443 -126.407 323.167 -134.956C318.715 -137.622 316.527 -136.565 315.127 -131.605C314.145 -128.134 314.249 -124.634 315.232 -121.209C319.281 -106.969 327.409 -95.9922 341.255 -90.0642C349.07 -86.7129 357.184 -84.0468 365.193 -81.1424C372.89 -78.3571 379.53 -74.0228 384.934 -67.8863C387.911 -64.5053 390.546 -60.8114 392.675 -56.8346C398.362 -46.1851 407.146 -40.5996 419.249 -40.1081C424.608 -39.8847 429.923 -40.3315 435.238 -40.7932C454.219 -42.4316 473.2 -43.4593 492.226 -41.6124C506.726 -40.1975 520.452 -36.5483 532.66 -28.2074C537.394 -24.9753 541.577 -21.2219 545.001 -16.6046C547.145 -13.7151 548.425 -10.4681 549.006 -6.98278C549.795 -2.24634 548.559 1.96878 545.061 5.37962C540.833 9.49049 535.801 9.92244 531.007 6.51161C527.851 4.26254 525.335 1.35814 523.072 -1.7548C522.388 -2.70805 521.777 -3.70601 521.137 -4.67415C513.738 -16.0386 503.645 -21.7283 489.785 -19.941C484.336 -19.2409 478.857 -18.8835 473.409 -17.9898C466.084 -16.7834 464.045 -6.50616 467.573 -1.35267C468.704 0.300617 470.372 0.98574 472.173 1.41768C475.091 2.11772 478.039 2.69862 480.971 3.38376C485.869 4.53064 490.663 6.00519 494.98 8.64151C502.275 13.0801 504.687 20.4677 501.382 28.0341C498.092 35.5707 490.261 39.488 482.49 37.4176C478.202 36.2708 474.585 33.8877 471.324 30.9534C467.186 27.2298 464.059 22.7317 461.35 17.8761C457.435 10.8608 454.77 3.2646 451.033 -3.84007C449.366 -6.99769 447.505 -9.88722 444.274 -11.6597C439.049 -14.5194 435.387 -12.9108 434.553 -7.05728C433.332 1.50704 435.625 9.52028 439.049 17.2505C443.009 26.1723 448.74 33.977 454.606 41.7073C458.268 46.5331 461.469 51.5972 462.928 57.555C464.848 65.3745 463.881 72.8218 459.593 79.7179C455.574 86.1523 449.976 88.1929 442.83 85.8694C435.491 83.4862 430.965 78.5859 429.968 70.811C429.581 67.8321 429.536 64.8235 429.417 61.8148C429.238 57.6443 428.955 53.4888 427.943 49.4077C426.99 45.5947 425.278 42.2434 422.598 39.3539C419.07 35.5707 415.765 31.6237 412.952 27.2298C409.572 21.9423 408.188 16.2824 408.783 10.0565C409.185 5.90094 409.453 1.74536 409.051 -2.43998C408.575 -7.17643 406.61 -10.2894 401.682 -11.9427C392.407 -15.0705 385.395 -20.9389 382.195 -30.6203C380.2 -36.6377 376.254 -40.4953 369.853 -41.7465C362.916 -43.1019 357.035 -46.1702 352.733 -52.0982C350.529 -55.1366 348.177 -55.226 344.813 -53.4685C343.294 -52.6791 342.133 -51.5173 341.18 -50.1023C335.553 -41.7465 337.92 -27.6117 345.989 -21.5794C349.204 -19.1665 352.762 -17.2898 356.32 -15.4577C367.888 -9.52974 375.614 -0.324976 379.827 11.9332C381.733 17.459 382.239 22.9998 380.214 28.615C379.232 31.3258 377.758 33.7089 375.525 35.6005C370.955 39.5029 364.598 38.1177 362.365 32.5323C361.248 29.7619 360.593 26.7979 359.834 23.8934C359.119 21.1529 358.688 18.3229 357.884 15.6121C356.38 10.5033 353.328 7.25631 347.567 7.09247C340.361 6.88395 334.526 3.5923 329.285 -1.20372C324.551 -5.53801 322.675 -4.91244 321.157 1.40282C319.43 8.56706 320.844 15.3142 324.462 21.6593C326.531 25.2786 329.315 28.4363 331.295 32.1301C337.101 43.0031 335.151 54.7846 326.129 63.1404C323.271 65.7767 320.115 67.9215 316.661 69.6195C311.778 72.0175 307.252 71.1983 303.114 67.8769C299.287 64.7937 298.528 60.7126 299.496 56.1251C300.196 52.8334 301.431 49.7354 302.92 46.7267C306.165 40.2178 306.136 33.5898 303.739 26.8128C302.563 23.5211 301 20.3784 300.091 16.9526C298.752 11.9332 298.647 7.01801 300.687 2.22199C304.007 -5.62739 305.719 -14.0279 309.515 -21.7283C312.254 -27.2839 311.971 -33.4056 310.959 -39.4378C310.408 -42.7444 308.547 -45.2467 306.225 -47.4809C303.575 -50.0129 300.88 -52.5152 298.216 -55.0473C293.511 -59.4858 291.1 -65.0117 290.415 -71.3716C290.162 -73.6952 289.894 -76.0187 289.551 -78.3273C288.42 -86.1916 286.068 -93.6091 281.453 -100.192C277.627 -105.644 275.185 -111.512 275.349 -118.364C275.438 -122.415 274.322 -126.317 272.163 -129.818C269.453 -134.182 258.005 -121.134 257.38 -116.457C255.757 -104.348 256.889 -92.5962 260.864 -80.9339C264.466 -70.3439 268.486 -59.9178 272.014 -49.3129C276.629 -35.461 276.421 -21.773 271.195 -8.11477C266.193 5.00726 261.787 18.308 258.705 32.0407C256.189 43.3009 255.489 54.5016 258.958 65.7022C261.921 75.2645 266.461 83.8735 273.592 91.0228C279.056 96.4891 285.487 99.3042 293.303 99.334C303.188 99.3638 312.954 98.3063 322.75 97.1892C332.858 96.0274 342.967 94.7614 353.15 94.4486C368.171 94.0018 381.927 97.6509 393.836 107.198C398.63 111.041 401.488 116.06 402.352 122.048C403.081 127.127 401.89 131.729 397.275 134.768C393.092 137.538 389.757 137.464 385.797 134.291C381.242 130.642 376.85 126.784 372.384 123.016C371.237 122.048 370.032 121.125 368.96 120.082C359.938 111.294 349.562 110.669 338.352 114.943C331.28 117.639 328.437 122.986 329.985 130.434C330.595 133.398 332.218 135.23 335.151 135.825C337.443 136.287 339.766 136.585 342.059 137.032C349.606 138.477 354.46 144.494 353.403 151.033C352.256 158.093 345.438 163.231 338.099 162.487C332.62 161.921 327.767 159.835 323.688 156.097C320.487 153.163 317.539 149.975 315.261 146.237C312.909 142.379 310.512 138.566 308.071 134.783C304.751 129.659 299.749 128.497 294.077 129.034C291.472 129.272 290.37 131.014 289.923 133.338C289.462 135.84 289.804 138.328 290.057 140.83C290.593 146.147 291.472 151.42 291.427 156.782C291.397 159.969 291.233 163.157 290.043 166.151C288.688 169.517 286.946 170.41 283.343 169.77C271.984 167.759 262.65 157.184 262.04 145.671C261.846 141.977 262.248 138.343 262.784 134.693C263.469 130.061 264.109 125.444 264.154 120.737C264.183 116.88 263.007 113.573 260.521 110.624C257.514 107.049 254.76 103.266 252.199 99.3488C247.465 92.1101 244.398 84.2607 243.237 75.6517C242.865 72.8367 242.463 70.0216 241.838 67.2513C240.498 61.2786 234.736 59.4912 230.017 63.5276C227.531 65.6725 226.102 68.4726 225.238 71.6005C222.842 80.2839 223.616 88.8185 226.623 97.1892C228.246 101.747 230.315 106.141 231.893 110.713C235.138 120.112 235.957 129.629 232.354 139.162C231.283 141.992 229.958 144.658 227.278 146.415C222.38 149.647 217.08 148.605 213.835 143.69C211.78 140.562 210.619 137.121 210.098 133.427C209.279 127.604 209.264 121.78 209.651 115.941C209.89 112.441 210.068 108.926 208.803 105.545C207.359 101.657 206.6 101.315 203.012 103.221C201.687 103.921 200.436 104.756 199.111 105.485C194.958 107.824 190.789 109 186.517 105.679C182.452 102.521 180.458 96.8615 181.812 91.7825C182.72 88.3269 184.522 85.3182 186.963 82.7266C188.556 81.0286 190.253 79.4051 191.98 77.8412C197.861 72.5835 201.702 66.0299 204.322 58.672C205.766 54.6207 206.064 50.5397 204.768 46.3841C202.967 40.5901 199.93 39.6518 195.256 43.6733C193.38 45.2968 191.712 47.2182 190.164 49.1694C186.204 54.1739 183.033 59.6551 180.606 65.5682C179.341 68.6513 178.031 71.7345 176.617 74.7581C174.979 78.2583 172.761 81.3712 170.156 84.231C167.134 87.5524 163.65 89.5185 159.065 88.2673C154.42 87.0013 152.604 83.1883 151.591 79.0179C150.624 75.0709 151.1 71.0345 152.008 67.1023C156.162 49.1843 164.93 34.3047 180.368 23.7594C184.15 21.1826 188.467 19.8422 192.665 18.2485C203.324 14.1823 213.299 8.85005 222.648 2.32627C233.277 -5.09118 238.22 -15.6811 239.366 -28.2521C240.334 -39.0059 238.161 -49.1937 233.233 -58.7709C229.66 -65.7266 223.348 -67.6927 216.425 -64.0435C210.262 -60.7816 205.468 -55.8814 201.047 -50.6385C198.367 -47.4511 195.866 -44.0849 193.543 -40.6294C183.241 -25.2583 171.049 -11.6745 156.459 -0.235585C151.204 3.89018 146.47 8.61173 142.049 13.6312C135.424 21.138 130.511 29.6129 127.846 39.2645C124.08 52.893 122.546 66.7746 123.261 80.9244C124.08 97.1594 131.077 110.028 144.058 119.665C147.408 122.152 150.877 124.476 154.301 126.859C160.896 131.461 167.223 136.362 172.27 142.692C178.567 150.586 179.877 159.225 175.634 168.474C173.982 172.064 171.495 174.938 167.267 175.698C162.98 176.472 159.735 174.894 157.755 171.021C156.444 168.459 155.834 165.659 155.328 162.889C154.033 155.724 149.82 151.956 142.704 150.66C127.236 147.86 114.462 139.638 103.163 129.242C91.2384 118.25 87.1146 104.592 91.6999 88.7142C93.144 83.7395 94.6922 78.7945 96.1661 73.8346C97.2231 70.2898 97.8632 66.6853 97.5952 62.9617C97.4166 60.519 96.836 58.2699 94.2754 57.2869C91.8786 56.3783 89.6604 56.9443 87.725 58.538C80.4898 64.466 75.7259 72.0771 73.7906 81.1329C70.828 94.955 72.8973 107.66 83.3928 118.175C89.5413 124.342 95.0942 131.015 98.6374 139.117C100.201 142.692 101.168 146.386 100.93 150.288C100.588 156.186 97.8334 160.491 92.1316 162.457C86.5191 164.378 81.6212 162.963 77.5273 158.703C73.8799 154.905 72.2869 150.243 71.9594 145.105C71.7808 142.275 71.9297 139.43 71.8254 136.585C71.5872 130.568 70.0687 128.9 64.1585 128.199C60.8387 127.797 57.5188 127.499 54.1841 127.231C37.5997 125.846 27.5955 108.062 28.444 95.7444C28.5185 94.5826 28.6822 93.4059 28.9502 92.274C31.5555 81.2372 38.8502 77.9455 48.8098 83.2926C49.5393 83.6947 50.239 84.1565 50.9684 84.5586C55.5984 87.195 57.0126 86.6588 58.3972 81.6244C59.2457 78.5264 59.5137 75.3688 58.9927 72.1962C57.9952 66.2682 54.854 62.1127 48.9735 60.2658C40.5176 57.6145 32.1063 58.8359 23.7546 60.7126C20.5091 61.4424 17.3828 62.7085 14.1523 63.5426C7.42327 65.2703 3.50793 62.8425 1.98943 56.0953C1.46837 53.8016 1.37905 51.4482 1.64702 49.1247C2.88266 37.9389 7.9741 28.7639 16.6087 21.7189C24.0076 15.6866 31.7788 16.1632 38.6865 22.8062C41.8128 25.8 44.8795 28.9576 47.4402 32.428C54.988 42.6456 63.9352 43.4797 75.443 38.8177C82.7229 35.8686 93.8585 30.1045 95.9279 21.7338C97.2975 16.193 94.5434 13.2588 90.1516 10.9204C82.9015 7.06269 75.1751 4.9626 70.828 -2.73784C67.3444 -8.91905 67.4635 -16.7089 63.563 -22.622C60.8089 -26.8222 56.3725 -29.5628 52.1445 -32.2736C47.9165 -34.9844 43.5695 -37.9782 41.2322 -42.4167C33.5504 -56.924 50.6856 -62.7328 60.7196 -54.7345C66.3321 -50.2661 69.5924 -43.5487 72.54 -36.9951C75.4877 -30.4565 78.4205 -23.6497 83.6459 -18.7345C87.7548 -14.862 93.397 -12.6129 99.0542 -13.2832C104.696 -13.9683 108.552 -18.3026 114.239 -18.9579C123.901 -20.0601 133.25 -22.3837 142.316 -25.9732C152.767 -30.1139 160.851 -36.4441 164.052 -47.7788C164.498 -49.3427 164.871 -50.9662 165.496 -52.4556C165.898 -53.4089 166.821 -54.4366 166.642 -55.5239C166.211 -58.2645 161.804 -59.0986 159.63 -58.6517C156.4 -57.9815 153.78 -55.7175 150.921 -54.094C148.048 -52.4705 144.267 -51.5173 141.602 -53.4536C138.758 -55.509 138.654 -59.6348 137.18 -62.8222C134.754 -68.065 127.682 -70.5673 122.502 -67.9906C118.244 -65.8756 115.802 -61.2434 111.857 -58.5773C108.552 -56.358 104.428 -55.7026 100.454 -55.7473C95.0644 -55.8218 89.571 -57.1623 85.224 -60.3348C80.8769 -63.5073 77.825 -68.6906 77.9739 -74.0824C78.1227 -79.4742 81.8892 -84.7766 87.1444 -85.9831C93.4417 -87.4279 99.5901 -83.1531 106.036 -82.602C110.532 -82.2148 115.162 -83.7489 118.527 -86.7576C120.924 -88.8875 122.71 -92.5516 120.953 -95.2475C119.941 -96.7965 118.08 -97.5114 116.368 -98.2264C112.438 -99.8499 108.686 -101.92 105.232 -104.378C102.984 -105.971 100.811 -107.774 99.2924 -110.082C97.7739 -112.391 96.97 -115.281 97.625 -117.962C98.5927 -121.909 102.314 -124.456 105.843 -126.451C111.783 -129.832 118.169 -132.782 124.988 -133.333C131.806 -133.884 139.16 -131.65 143.344 -126.243C147.721 -120.598 147.884 -112.838 147.453 -105.703C147.021 -98.5838 146.232 -91.077 149.194 -84.5979C151.293 -80.0104 155.224 -76.3017 159.928 -74.4994C163.382 -73.1589 167.238 -72.8611 170.87 -73.5909C174.696 -74.3654 175.53 -77.9103 177.644 -80.8892C182.438 -87.696 188.78 -91.2259 197.012 -91.5536C200.362 -91.6877 203.652 -92.1494 206.853 -93.1771C211.081 -94.5325 214.713 -96.7816 217.795 -99.969C221.04 -103.335 221.814 -107.118 219.894 -111.453C217.08 -117.753 212.986 -122.4 205.662 -123.368C202.535 -123.785 199.424 -124.5 196.595 -126.079C189.33 -130.115 186.71 -136.237 189.048 -144.22C190.045 -147.616 191.638 -150.789 193.633 -153.708C194.928 -155.6 197.593 -158.102 198.025 -160.366C198.292 -161.811 197.682 -163.419 196.446 -164.224C194.6 -165.415 192.01 -164.551 190.477 -162.973C188.943 -161.394 188.139 -159.264 187.142 -157.298C184.849 -152.8 181.217 -148.912 176.617 -146.827C172.017 -144.757 166.449 -144.652 162.027 -147.065C157.606 -149.478 154.613 -154.542 155.134 -159.562C155.745 -165.386 160.658 -169.913 165.972 -172.341C171.302 -174.769 177.182 -175.618 182.72 -177.495C188.258 -179.371 193.797 -182.648 196.119 -188.025C196.655 -189.291 196.982 -190.796 196.283 -191.972C195.553 -193.179 193.96 -193.581 192.561 -193.387C191.176 -193.179 189.911 -192.493 188.616 -191.957C182.691 -189.47 175.589 -190.036 170.141 -193.432C167.282 -195.219 164.692 -198.228 165.109 -201.579C165.555 -205.228 169.218 -207.477 172.523 -209.056C178.269 -211.782 184.418 -214.135 190.774 -213.927C195.002 -213.793 199.082 -212.527 203.235 -211.767C207.389 -211.007 211.855 -210.769 215.666 -212.556C218.42 -213.852 221.993 -217.457 221.502 -220.853C221.07 -223.772 215.368 -226.751 213.105 -228.434C209.175 -231.368 205.9 -235.166 204.203 -239.813C202.506 -244.46 203.801 -247.603 204.307 -252.28C205.334 -261.827 204.649 -271.553 202.252 -280.847C201.493 -283.782 200.6 -286.984 201.88 -289.739C202.714 -291.527 204.337 -292.793 205.9 -293.969C216.619 -302.013 227.829 -309.4 239.515 -315.969C242.984 -317.92 246.646 -319.841 250.621 -320.065C255.4 -320.318 259.911 -317.086 262.724 -313.407C269.855 -304.038 275.438 -292.763 286.976 -288.161C293.69 -285.495 300.895 -284.303 308.086 -283.916C314.919 -283.558 321.737 -283.007 328.571 -282.545C333.573 -282.203 338.575 -281.89 343.577 -282.292C351.616 -282.948 358.851 -285.36 364.717 -291.288C369.094 -295.712 374.289 -299.078 379.887 -301.789C386.586 -305.036 393.405 -305.632 400.044 -301.774C409.795 -296.085 419.606 -295.95 429.729 -300.717C432.424 -301.983 435.312 -302.921 438.319 -303.368C445.182 -304.381 451.063 -302.355 455.201 -296.844C461.752 -288.101 463.36 -278.375 459.593 -267.964C458.611 -265.268 457.018 -262.87 455.038 -260.829C451.108 -256.793 446.433 -255.259 440.895 -257.001C436.146 -258.491 432.052 -261.038 428.94 -264.895C423.745 -271.375 416.257 -273.698 408.798 -274.994C401.295 -276.305 393.285 -271.896 389.147 -264.598C387.256 -261.276 388.656 -257.687 390.68 -254.708C392.362 -252.235 394.476 -250.061 396.471 -247.812C398.69 -245.309 400.997 -242.881 402.62 -239.932C403.498 -238.324 404.421 -236.715 405.076 -235.017C407.607 -228.538 406.327 -222.476 401.786 -219.095C397.677 -216.027 391.172 -216.608 385.946 -220.54C380.066 -224.949 376.388 -231.16 372.443 -237.147C371.625 -238.398 370.955 -239.754 370.195 -241.049C364.062 -251.535 354.534 -256.138 342.758 -256.569C337.697 -256.763 335.463 -254.827 334.392 -249.837C334.079 -248.378 333.9 -246.843 333.975 -245.369C334.674 -231.86 338.634 -219.378 346.793 -208.565C352.167 -201.445 359.611 -196.962 368.2 -194.474C376.284 -192.136 384.487 -190.959 392.928 -191.451C404.793 -192.136 416.465 -193.968 428.077 -196.396C441.222 -199.151 454.457 -200.432 467.871 -198.63C475.746 -197.572 483.16 -195.204 489.963 -191.034C497.169 -186.61 502.364 -180.474 505.833 -172.818C507.813 -168.454 508.528 -163.866 507.813 -159.13C506.25 -148.599 496.35 -142.523 486.271 -145.889C481.611 -147.453 477.532 -150.074 473.781 -153.157C469.791 -156.449 465.876 -159.845 462.05 -163.315C456.273 -168.558 449.455 -170.613 441.773 -170.286C437.248 -170.092 432.781 -169.437 428.494 -168.022C423.343 -166.339 421.571 -163.434 422.271 -158.117C423 -152.606 425.516 -148.019 429.536 -144.206C434.627 -139.365 440.18 -135.09 445.927 -131.054C450.319 -127.971 454.487 -124.634 457.822 -120.404C461.945 -115.176 464.089 -109.382 462.124 -102.65C460.07 -95.6347 454.442 -92.0749 447.222 -93.1771C442.949 -93.8325 439.391 -95.9326 436.191 -98.7328C429.566 -104.512 424.623 -111.631 420.068 -119.049C419.1 -120.672 418.251 -122.296 417.671 -123.338ZM800.139 42.8988C808.401 40.8285 816.157 40.2327 823.943 39.6965C826.876 39.488 829.779 38.9815 832.712 38.6539C837.878 38.073 841.257 35.1537 843.297 30.5364C845.947 24.5041 848.388 18.3825 851.142 12.4098C855.341 3.23481 862.025 -3.54215 871.24 -7.77218C872.654 -8.42754 874.054 -9.11268 875.423 -9.8574C879.279 -11.9426 881.751 -15.1599 883.031 -19.3303C884.549 -24.3051 883.507 -26.7924 878.907 -29.0564C872.119 -32.4077 857.886 -32.4374 850.458 -25.4072C845.798 -20.9985 841.317 -16.4259 837.297 -11.4064C833.382 -6.50616 829.02 -2.0378 823.646 1.26877C815.845 6.06479 807.463 7.27121 798.724 4.44126C793.082 2.60924 788.095 -0.414346 786.666 -6.64023C785.192 -13.1193 788.601 -18.0345 793.142 -22.1453C798.263 -26.7775 804.516 -29.3245 811.066 -31.2012C811.736 -31.3948 812.421 -31.514 813.105 -31.6332C832.131 -34.7312 828.573 -35.4759 841.525 -46.9C845.56 -50.4598 845.217 -52.9472 840.751 -55.9112C837.64 -57.9815 834.141 -58.9794 830.449 -59.0986C815.115 -59.5901 801.687 -55.0175 791.459 -43.2061C785.683 -36.5334 780.488 -29.3543 775.084 -22.3539C769.903 -15.6216 763.516 -10.4234 755.745 -7.02746C751.457 -5.15076 746.991 -3.70601 742.376 -2.85703C730.05 -0.593066 721.772 6.33287 717.455 18.1442C715.549 23.3721 714.314 28.764 713.078 34.1707C708.701 53.459 703.729 72.5537 695.883 90.7845C689.914 104.681 681.964 117.103 669.861 126.546C665.171 130.21 660.139 133.144 654.497 135.081C650.969 136.287 647.351 136.525 643.733 136.004C638.806 135.289 635.039 132.727 632.776 128.199C630.052 122.718 631.213 117.609 636.096 113.931C639.312 111.518 642.974 109.939 646.77 108.688C647.917 108.3 649.093 108.017 650.269 107.69C663.831 103.966 672.644 95.7891 675.25 81.5053C676.277 75.8901 677.661 70.3642 678.495 64.6894C679.627 57.0783 670.099 51.8057 663.891 53.6526C661.911 54.2484 660.69 55.6782 659.693 57.3166C658.085 59.9827 656.566 62.7233 654.973 65.3895C652.294 69.8727 649.316 74.1474 645.356 77.588C638.672 83.3969 630.603 83.4415 624.172 77.7965C617.755 72.1664 616.371 63.1851 620.867 56.14C623.353 52.2525 626.851 49.4375 630.782 47.1437C635.769 44.2244 641.203 42.5562 646.845 41.4093C655.018 39.7561 663.355 39.5178 671.558 38.073C675.205 37.4325 678.644 36.4942 681.413 33.8578C685.894 29.598 685.447 25.4723 679.939 22.7913C671.87 18.874 663.221 18.6059 654.512 19.5592C644.448 20.6614 634.92 23.8637 625.437 27.2149C619.512 29.315 613.497 30.879 607.141 30.4321C598.804 29.8661 591.747 26.5595 586.298 20.1251C581.207 14.1227 580.954 7.9415 585.524 1.59645C590.199 -4.89754 596.466 -7.83176 604.461 -6.3721C607.513 -5.821 610.52 -4.89758 613.527 -4.07838C617.711 -2.9464 621.894 -1.91865 626.256 -1.62076C630.32 -1.35266 634.176 -1.99314 637.868 -3.73579C642.721 -6.02954 647.664 -8.05517 652.889 -9.44036C659.171 -11.1085 665.201 -10.7064 671.171 -8.12968C675.146 -6.41682 679.18 -4.83798 683.438 -3.91452C688.276 -2.8868 691.968 -3.85494 695.154 -8.18923C701.168 -16.3663 709.178 -21.4453 719.763 -21.5645C726.328 -21.6241 731.404 -24.3199 734.65 -30.2479C738.178 -36.6823 743.061 -41.5231 750.281 -43.9062C753.973 -45.1276 754.807 -47.4213 754.137 -51.3088C753.839 -53.0663 753.065 -54.5855 751.964 -55.9707C745.488 -64.1776 730.779 -66.2926 722.264 -60.2305C718.869 -57.8027 715.892 -54.8983 712.959 -51.9492C703.446 -42.387 691.909 -37.6654 678.48 -37.3526C672.406 -37.2186 666.779 -38.4697 661.881 -42.238C659.499 -44.07 657.623 -46.2744 656.462 -49.0746C654.065 -54.8239 657.43 -60.6774 663.653 -61.1242C666.749 -61.3476 669.875 -61.0646 672.987 -60.9008C675.92 -60.737 678.852 -60.2752 681.785 -60.2008C687.308 -60.0816 691.477 -62.0626 693.457 -67.7076C695.943 -74.7676 701.034 -79.504 707.421 -83.168C713.197 -86.4746 713.182 -88.53 707.421 -92.0302C700.886 -95.9922 693.769 -96.7369 686.37 -95.1581C682.142 -94.2495 678.153 -92.492 673.865 -91.7026C661.285 -89.3939 650.269 -95.0389 644.865 -106.612C643.153 -110.261 642.036 -114.059 641.456 -118.021C640.622 -123.607 642.87 -127.822 647.47 -130.86C651.728 -133.675 656.001 -133.124 660.214 -130.726C663.251 -128.998 665.915 -126.794 668.416 -124.381C673.835 -119.108 680.371 -117.053 687.829 -117.291C691.462 -117.41 695.05 -117.962 698.712 -117.783C704.086 -117.515 708.984 -116.07 713.078 -112.54C719.777 -106.791 727.549 -102.441 733.95 -96.2454C738.565 -91.777 744.699 -90.1238 750.981 -89.2152C754.42 -88.7237 757.487 -89.7663 760.42 -91.36C763.769 -93.1771 767.089 -95.0538 770.424 -96.9007C776.289 -100.148 782.512 -100.788 789.018 -99.4626C791.4 -98.9711 793.782 -98.5093 796.164 -98.1072C804.292 -96.7369 812.376 -96.722 820.326 -99.1945C826.921 -101.25 833.486 -101.816 840.215 -99.4924C844.19 -98.1221 848.388 -97.988 852.527 -99.0306C857.693 -100.326 848.433 -115.772 843.997 -117.872C832.533 -123.294 820.579 -125.885 807.791 -125.647C796.194 -125.424 784.626 -124.753 773.029 -124.604C757.889 -124.411 744.431 -128.954 732.58 -138.427C721.207 -147.527 709.446 -156.091 696.851 -163.464C686.519 -169.511 675.681 -173.726 663.519 -173.846C653.142 -173.935 643.198 -172.177 633.878 -167.366C626.747 -163.688 621.939 -158.221 619.437 -150.491C616.281 -140.735 614.242 -130.726 612.262 -120.702C610.207 -110.336 608.272 -99.9392 605.354 -89.7663C601.052 -74.7675 593.102 -62.3158 579.912 -53.5578C574.612 -50.0278 568.746 -48.7916 562.553 -49.8342C557.298 -50.713 553.145 -53.3493 551.596 -58.8752C550.182 -63.8946 551.299 -67.1565 555.705 -70.0758C560.752 -73.427 565.948 -76.5549 571.084 -79.787C572.409 -80.6211 573.689 -81.5147 575.059 -82.2446C586.596 -88.396 590.482 -98.4498 589.797 -110.902C589.365 -118.736 584.988 -123.249 577.128 -124.068C574.002 -124.396 571.679 -123.368 570.161 -120.657C568.97 -118.542 567.957 -116.338 566.796 -114.208C562.985 -107.193 555.512 -104.288 549.378 -107.416C542.768 -110.782 539.835 -119.153 542.902 -126.168C545.18 -131.411 548.798 -135.552 553.755 -138.397C557.67 -140.646 561.735 -142.537 566.171 -143.625C570.712 -144.727 575.252 -145.889 579.763 -147.125C585.882 -148.778 588.606 -153.366 589.871 -159.145C590.452 -161.811 589.082 -163.449 586.924 -164.611C584.601 -165.862 582.026 -166.309 579.495 -166.845C574.076 -167.992 568.583 -168.796 563.298 -170.524C560.157 -171.552 557.06 -172.728 554.484 -174.858C551.581 -177.256 551.254 -179.267 553.026 -182.633C558.608 -193.223 572.007 -199.121 583.559 -196.098C587.266 -195.13 590.735 -193.566 594.174 -191.883C598.521 -189.738 602.898 -187.638 607.528 -186.119C611.324 -184.867 614.956 -184.987 618.663 -186.521C623.144 -188.368 627.745 -189.887 632.419 -191.183C641.069 -193.581 649.793 -194.132 658.65 -192.553C661.553 -192.032 664.456 -191.54 667.389 -191.287C673.701 -190.721 677.304 -195.86 674.803 -201.788C673.478 -204.93 671.156 -207.224 668.342 -209.071C660.526 -214.18 651.847 -216.116 642.632 -215.788C637.615 -215.61 632.613 -214.969 627.611 -214.85C617.294 -214.612 607.647 -216.816 599.355 -223.385C596.898 -225.336 594.695 -227.495 593.787 -230.698C592.149 -236.566 594.844 -241.481 600.724 -243.12C604.461 -244.162 608.227 -244.237 612.039 -243.581C618.053 -242.554 623.814 -240.737 629.457 -238.502C632.836 -237.162 636.26 -235.881 639.997 -236.045C644.299 -236.239 644.865 -236.894 644.121 -241.035C643.838 -242.569 643.421 -244.073 643.108 -245.607C642.111 -250.463 642.26 -254.946 646.89 -258.119C651.281 -261.142 657.519 -261.321 662.119 -258.387C665.246 -256.391 667.642 -253.665 669.429 -250.433C670.605 -248.318 671.677 -246.143 672.659 -243.924C675.994 -236.447 681.264 -230.579 687.695 -225.663C691.239 -222.953 695.184 -221.374 699.695 -221.344C705.992 -221.284 707.883 -224.01 705.381 -229.893C704.384 -232.262 703.014 -234.526 701.555 -236.67C697.863 -242.167 693.457 -247.037 688.38 -251.297C685.73 -253.516 683.11 -255.795 680.564 -258.148C677.617 -260.874 675.25 -264.047 673.24 -267.532C670.918 -271.568 670.069 -275.634 672.764 -279.775C675.488 -283.975 679.835 -284.556 684.256 -284.243C688.47 -283.946 692.296 -282.203 695.898 -280.058C712.289 -270.287 724.229 -256.912 729.767 -238.309C731.122 -233.751 731.077 -229.059 731.33 -224.397C731.985 -212.571 734.099 -201.013 737.583 -189.708C741.557 -176.854 750.46 -168.618 762.519 -163.509C772.821 -159.145 783.584 -158.087 794.601 -159.934C802.595 -161.275 806.54 -166.89 805.126 -174.888C803.861 -182.008 800.511 -188.308 796.73 -194.325C794.437 -197.99 791.891 -201.52 789.211 -204.901C777.287 -219.944 767.714 -236.298 761.015 -254.35C758.603 -260.844 755.417 -267.025 751.874 -272.983C746.56 -281.905 739.726 -289.442 731.032 -295.131C718.765 -303.159 705.53 -309.058 691.328 -312.826C675.026 -317.145 660.109 -314.3 646.473 -304.5C642.959 -301.968 639.565 -299.272 636.126 -296.65C629.501 -291.586 622.653 -286.88 614.808 -283.871C605.012 -280.133 596.065 -281.562 588.264 -288.682C585.227 -291.452 583.187 -294.818 583.768 -299.227C584.363 -303.71 586.939 -306.421 591.39 -307.151C594.338 -307.643 597.285 -307.36 600.188 -306.972C607.662 -305.989 612.738 -308.968 616.252 -315.596C623.904 -330.014 636.052 -340.053 649.897 -347.932C664.516 -356.258 679.314 -356.02 693.561 -346.458C698.027 -343.464 702.419 -340.366 706.84 -337.342C710.011 -335.168 713.361 -333.41 717.127 -332.501C719.599 -331.906 722.011 -331.757 723.782 -333.991C725.435 -336.076 725.569 -338.459 724.616 -340.872C721.043 -349.898 715.028 -357.018 706.692 -361.799C693.963 -369.097 680.773 -371.063 667.062 -364.018C659.037 -359.892 650.686 -356.511 641.56 -355.558C637.54 -355.141 633.58 -355.365 629.799 -356.824C624.082 -359.029 620.688 -363.11 620.554 -369.365C620.435 -375.517 623.383 -379.925 628.876 -382.621C633.774 -385.034 638.895 -385.139 644.076 -383.828C646.934 -383.113 649.688 -382.055 652.532 -381.266C658.546 -379.598 660.675 -380.581 663.236 -386.196C664.68 -389.354 666.02 -392.541 667.345 -395.743C673.955 -411.71 694.678 -415.985 706.587 -411.263C707.704 -410.817 708.82 -410.295 709.848 -409.67C719.926 -403.608 720.879 -395.356 712.453 -387.194C711.828 -386.598 711.158 -386.047 710.518 -385.466C706.453 -381.728 706.528 -380.149 711.068 -377.185C713.852 -375.368 716.889 -374.102 720.194 -373.625C726.372 -372.731 731.464 -374.519 735.156 -379.777C740.441 -387.298 741.9 -395.997 742.674 -404.859C742.972 -408.299 742.719 -411.785 742.912 -415.24C743.329 -422.434 746.962 -425.547 754.107 -424.922C756.534 -424.713 758.886 -424.058 761.119 -423.06C771.779 -418.309 779.237 -410.37 783.465 -399.601C787.083 -390.367 784.165 -382.845 775.411 -378.108C771.466 -375.964 767.387 -373.938 763.144 -372.493C750.654 -368.263 747.006 -359.669 747.974 -346.815C748.584 -338.683 750.773 -325.844 758.38 -321.152C763.427 -318.039 767.193 -319.841 770.885 -323.446C776.989 -329.403 781.5 -336.389 790.492 -338.236C797.682 -339.725 805.349 -337.163 812.436 -339.13C817.453 -340.53 821.576 -344.045 825.581 -347.381C829.586 -350.717 833.918 -354.054 839.054 -354.977C855.817 -357.986 856.13 -339.204 845.068 -331.816C838.875 -327.676 831.208 -326.573 823.809 -325.725C816.41 -324.876 808.773 -324.116 802.253 -320.511C797.132 -317.681 793.112 -312.811 792.01 -307.002C790.894 -301.193 793.975 -296.025 792.814 -290.186C790.849 -280.281 790.179 -270.302 790.864 -260.204C791.653 -248.571 795.36 -238.562 805.528 -231.815C806.927 -230.891 808.416 -229.998 809.696 -228.91C810.5 -228.225 811.23 -226.974 812.361 -226.795C815.205 -226.349 817.423 -230.445 817.661 -232.738C818.018 -236.149 816.604 -239.441 815.904 -242.792C815.205 -246.143 815.473 -250.18 818.227 -252.205C821.159 -254.365 825.268 -253.159 828.886 -253.62C834.841 -254.365 839.53 -260.561 838.637 -266.504C837.893 -271.389 834.082 -275.262 832.712 -280.013C831.566 -283.975 832.221 -288.265 833.516 -292.182C835.288 -297.485 838.339 -302.504 842.865 -305.796C847.376 -309.087 853.465 -310.473 858.735 -308.626C864.005 -306.779 868.069 -301.372 867.593 -295.802C867.027 -289.114 860.864 -284.377 858.288 -278.196C856.487 -273.877 856.532 -268.813 858.437 -264.523C859.792 -261.485 862.844 -258.565 866.059 -259.444C867.905 -259.951 869.201 -261.574 870.451 -263.034C873.295 -266.415 876.525 -269.453 880.053 -272.104C882.346 -273.832 884.802 -275.396 887.571 -276.171C890.326 -276.945 893.437 -276.826 895.879 -275.337C899.466 -273.147 900.806 -268.649 901.67 -264.538C903.129 -257.597 904.037 -250.344 902.429 -243.433C900.821 -236.522 896.295 -229.953 889.626 -227.51C882.674 -224.963 874.947 -227.257 868.039 -229.938C861.132 -232.619 853.986 -235.762 846.632 -234.883C841.436 -234.258 836.538 -231.532 833.263 -227.466C830.851 -224.472 829.333 -220.748 828.916 -216.935C828.469 -212.914 831.7 -210.963 833.992 -207.939C839.203 -201.058 840.692 -193.67 838.414 -185.404C837.491 -182.052 836.91 -178.642 836.91 -175.156C836.91 -170.554 837.997 -166.235 840.17 -162.183C842.478 -157.909 845.962 -155.942 850.845 -156.479C857.961 -157.268 863.841 -159.845 867.116 -166.8C868.516 -169.764 870.198 -172.609 872.654 -174.918C878.937 -180.831 885.815 -181.486 892.961 -176.646C895.998 -174.59 898.633 -171.999 900.896 -169.109C902.355 -167.232 903.977 -163.807 906.076 -162.675C907.416 -161.945 909.203 -162.049 910.379 -163.017C912.15 -164.462 912.106 -167.292 911.034 -169.318C909.962 -171.328 908.101 -172.803 906.478 -174.412C902.771 -178.091 900.062 -182.916 899.466 -188.114C898.871 -193.313 900.523 -198.853 904.32 -202.458C908.101 -206.062 914.056 -207.433 918.85 -205.332C924.402 -202.89 927.335 -196.604 928.05 -190.572C928.764 -184.54 927.752 -178.448 927.856 -172.371C927.961 -166.294 929.449 -159.785 934.02 -155.808C935.092 -154.87 936.491 -154.066 937.875 -154.393C939.29 -154.736 940.198 -156.181 940.436 -157.625C940.674 -159.07 940.391 -160.53 940.272 -161.975C939.692 -168.618 942.49 -175.469 947.567 -179.788C950.232 -182.052 954.028 -183.661 957.199 -182.186C960.668 -180.593 961.74 -176.258 962.246 -172.49C963.124 -165.952 963.496 -159.13 961.293 -152.904C959.819 -148.778 957.288 -145.129 955.219 -141.256C953.15 -137.399 951.512 -133.05 952.078 -128.715C952.495 -125.588 954.921 -120.911 958.435 -120.33C961.457 -119.823 966.191 -124.53 968.588 -126.243C972.726 -129.192 977.52 -131.247 982.641 -131.456C987.763 -131.664 990.472 -129.386 994.923 -127.405C1004.02 -123.368 1013.86 -120.985 1023.79 -120.404C1026.93 -120.225 1030.38 -120.106 1032.69 -117.962C1034.2 -116.576 1034.93 -114.58 1035.6 -112.644C1040.15 -99.5073 1043.92 -86.0725 1046.72 -72.4589C1047.55 -68.4076 1048.29 -64.1776 1047.25 -60.1859C1046 -55.3749 1041.37 -51.9343 1036.85 -50.3257C1025.34 -46.2297 1012.43 -44.2785 1004.24 -34.3141C999.479 -28.5202 996.025 -21.773 993.39 -14.7875C990.874 -8.14453 988.179 -1.56118 985.559 5.03707C983.639 9.87777 981.748 14.7184 980.572 19.7975C978.681 27.9447 978.771 35.8686 982.775 43.5542C985.768 49.2736 987.45 55.4846 988.358 61.8743C989.445 69.5301 987.882 76.456 981.971 81.8031C973.277 89.6525 970.032 99.3191 971.535 110.833C971.937 113.901 971.937 117.058 971.431 120.156C970.27 127.261 966.414 132.444 959.655 134.783C948.952 138.506 938.828 137.017 929.732 130.002C927.38 128.185 925.519 125.846 924.12 123.24C921.365 118.071 921.336 112.977 924.804 108.047C927.782 103.832 931.593 100.57 936.387 98.7233C944.426 95.6252 949.085 88.9674 952.733 81.9968C956.395 74.9964 954.579 65.6873 948.669 59.2827C945.974 56.3634 941.984 56.6166 938.411 57.6741C935.449 58.5678 932.62 59.9679 929.777 61.219C926.606 62.6191 923.479 64.1383 920.055 64.8086C918.195 65.1809 916.304 65.5682 914.413 65.6874C907.208 66.1491 901.64 62.9616 899.719 57.406C897.992 52.3717 900.613 46.1309 906.151 42.1988C912.374 37.79 919.668 36.092 926.829 34.0962C928.333 33.6791 929.881 33.4557 931.399 33.1131C943.696 30.3576 951.244 22.3891 955.398 10.8906C957.184 5.94562 955.978 3.13055 951.378 0.49423C950.038 -0.280282 948.579 -0.93561 947.091 -1.33776C933.528 -4.91243 919.951 -4.94225 906.687 -0.295175C897.963 2.77309 891.174 8.71598 886.008 16.4164C881.14 23.67 877.389 31.4152 875.2 39.9199C872.119 51.8653 870.243 63.9894 868.977 76.2475C867.548 90.1143 864.63 103.624 858.616 116.314C855.088 123.776 850.398 130.344 844.131 135.751C837.491 141.47 829.764 144.688 821.115 145.686C816.187 146.266 811.423 145.522 806.957 143.317C797.042 138.447 794.169 126.74 800.675 117.833C803.682 113.722 807.567 110.52 811.795 107.779C816.306 104.875 820.892 102.075 825.536 99.3935C832.548 95.3273 836.717 89.2355 838.831 81.55C840.066 77.0072 840.826 72.3898 840.796 67.6981C840.751 62.068 838.444 59.4019 832.965 58.4189C827.293 57.406 821.963 58.4337 816.917 61.2041C810.515 64.7192 804.545 68.845 798.754 73.2537C794.318 76.6199 789.703 79.6882 784.477 81.6542C778.001 84.082 771.6 84.365 765.585 80.2988C759.303 76.0539 757.561 69.3663 760.941 62.5744C762.936 58.5529 766.136 55.708 769.903 53.4143C777.704 48.6927 786.294 46.0564 795.062 43.8967C797.042 43.4797 798.933 43.152 800.139 42.8988ZM238.711 641.269C247.093 644.665 254.135 649.014 261.146 653.423C263.781 655.091 266.61 656.462 269.319 658.011C274.113 660.751 278.847 660.349 283.477 657.668C289.521 654.153 295.447 650.429 301.55 647.004C310.885 641.761 320.874 640.122 331.414 642.252C333.037 642.58 334.674 642.863 336.312 643.086C340.927 643.727 345.066 642.491 348.758 639.72C353.179 636.399 353.834 633.614 351.303 628.788C347.567 621.668 335.374 612.732 324.596 614.117C317.837 614.981 311.138 616.098 304.543 617.9C298.111 619.643 291.576 620.76 284.892 620.238C275.185 619.464 267.25 615.264 261.504 607.355C257.797 602.261 255.415 596.526 258.08 590.3C260.864 583.821 266.863 581.736 273.339 581.036C280.634 580.262 287.586 581.989 294.39 584.492C295.074 584.745 295.744 585.072 296.399 585.4C314.666 594.635 312.09 591.79 330.342 590.092C336.044 589.556 337.295 587.202 335.315 581.87C333.93 578.147 331.563 575.108 328.466 572.695C315.604 562.671 301.223 558.203 285.055 561.941C275.915 564.056 266.967 566.961 257.961 569.597C249.311 572.129 240.572 572.606 231.774 570.655C226.921 569.582 222.172 568.018 217.691 565.859C205.691 560.08 194.258 560.839 183.167 568.286C178.254 571.593 173.818 575.436 169.381 579.308C153.556 593.116 137.344 606.401 119.212 617.155C105.381 625.347 90.8067 631.037 74.5051 631.573C68.193 631.782 62.0296 631.156 55.9854 629.279C52.1892 628.103 48.9587 626.047 46.1747 623.336C42.3785 619.643 40.7558 615.085 41.649 609.768C42.7358 603.348 46.934 599.699 53.4248 599.595C57.6975 599.535 61.8212 600.473 65.8706 601.784C67.0913 602.186 68.2972 602.663 69.503 603.125C83.4821 608.427 96.1512 606.908 107.317 596.288C111.708 592.118 116.353 588.23 120.611 583.881C126.342 578.042 121.459 567.572 114.984 565.278C112.914 564.548 110.979 565.01 109.088 565.799C106.036 567.08 103.029 568.48 99.9772 569.776C94.8709 571.95 89.6455 573.753 84.0925 574.229C74.7136 575.034 67.7612 570.029 65.7812 561.137C63.8012 552.29 68.2227 543.711 76.4852 540.478C81.0555 538.691 85.8046 538.468 90.628 538.959C96.7467 539.585 102.448 541.536 108.001 544.098C116.041 547.792 123.365 552.811 131.3 556.699C134.828 558.426 138.371 559.767 142.406 559.245C148.912 558.396 151.115 554.569 148.063 548.819C143.582 540.404 136.332 534.759 128.248 530.127C118.929 524.78 108.731 521.548 98.5034 518.494C92.1167 516.588 85.9683 514.16 80.7876 509.811C73.9841 504.106 70.0092 496.853 69.3393 487.916C68.7289 479.575 72.3763 474.109 80.2516 471.517C88.3354 468.866 95.5408 470.281 101.496 476.536C103.773 478.934 105.768 481.586 107.838 484.177C110.711 487.767 113.673 491.282 117.232 494.246C120.551 497.016 124.258 498.878 128.531 499.697C134.129 500.77 139.652 502.125 144.996 504.21C151.442 506.713 156.355 510.838 159.869 516.766C162.221 520.728 164.677 524.616 167.774 528.056C171.272 531.974 175.054 533.448 180.517 531.72C190.804 528.459 200.853 529.114 210.009 535.653C215.696 539.704 221.725 540.568 228.216 537.514C235.272 534.193 242.493 533.106 250.189 535.563C254.12 536.829 256.263 535.385 258.124 531.631C258.958 529.933 259.241 528.146 259.166 526.269C258.735 515.173 247.435 504.136 236.329 504.032C231.893 503.987 227.516 504.627 223.154 505.328C208.996 507.577 196.149 504.419 184.418 496.272C179.118 492.593 175.068 487.99 173.222 481.69C172.329 478.637 172.106 475.568 172.85 472.426C174.384 465.976 180.934 463.072 186.561 466.587C189.36 468.33 191.876 470.534 194.437 472.619C196.863 474.6 199.082 476.834 201.553 478.726C206.212 482.286 211.036 483.194 216.276 479.59C222.812 475.092 230.166 474.213 237.937 475.062C244.964 475.836 246.229 474.064 243.475 467.451C240.349 459.959 234.707 454.865 227.352 451.588C223.154 449.712 218.628 448.728 214.445 446.718C202.208 440.834 196.283 429.083 198.873 415.767C199.692 411.552 201.106 407.605 203.071 403.837C205.84 398.519 210.411 396.3 216.261 396.568C221.68 396.806 225 399.964 227.114 404.656C228.633 408.037 229.556 411.597 230.181 415.246C231.536 423.155 235.868 429.038 242.418 433.491C245.604 435.666 249.043 437.439 252.065 439.881C256.516 443.471 259.807 447.775 261.132 453.376C263.29 462.506 267.235 471.1 268.858 480.424C270.034 487.156 274.262 492.399 279.086 497.121C281.721 499.697 285.011 500.725 288.539 501.187C292.544 501.708 296.563 502.2 300.583 502.691C307.654 503.57 313.386 506.921 318.15 512.134C319.891 514.041 321.648 515.917 323.435 517.764C329.553 524.035 336.491 529.099 344.872 531.944C351.825 534.312 357.809 537.932 362.141 544.128C364.687 547.792 368.215 550.532 372.428 552.245C377.669 554.375 379.381 535.31 376.88 530.737C370.434 518.911 361.784 509.2 350.663 501.395C340.57 494.32 330.208 487.663 320.174 480.528C307.059 471.204 298.335 458.901 294.092 443.352C290.013 428.412 285.264 413.712 279.071 399.487C273.979 387.825 267.31 377.414 256.948 369.713C248.105 363.145 238.458 358.423 227.457 356.725C219.045 355.415 211.483 357.098 204.515 362.177C195.702 368.581 187.693 375.895 179.713 383.267C171.466 390.878 163.307 398.594 154.435 405.505C141.364 415.693 126.744 421.397 109.952 420.652C103.193 420.355 97.3868 417.748 92.7271 412.982C88.7671 408.931 86.8467 404.075 88.9755 398.355C90.9109 393.172 93.9032 391.057 99.5008 391.31C105.932 391.593 112.348 392.159 118.765 392.606C120.417 392.725 122.085 392.755 123.722 392.978C137.463 394.915 147.095 388.719 154.301 377.607C158.841 370.607 157.889 363.994 151.666 358.379C149.18 356.144 146.559 355.564 143.552 356.949C141.215 358.021 138.952 359.272 136.63 360.375C128.978 364.009 120.745 361.819 117.425 355.31C113.852 348.28 116.576 339.269 123.588 335.158C128.829 332.09 134.516 330.794 140.56 331.449C145.324 331.971 150.013 332.894 154.479 334.741C159.08 336.633 163.695 338.48 168.339 340.252C174.622 342.65 179.832 340.431 184.522 336.26C186.68 334.339 186.532 332.075 185.4 329.722C184.194 327.19 182.259 325.194 180.413 323.153C176.468 318.774 172.255 314.648 168.801 309.852C166.746 306.993 164.826 304.058 163.948 300.618C162.965 296.73 163.933 294.809 167.565 293.037C178.984 287.436 194.169 290.758 202.208 300.603C204.783 303.761 206.793 307.261 208.684 310.85C211.081 315.408 213.522 319.951 216.544 324.151C219.016 327.607 222.216 329.781 226.355 330.779C231.357 332.001 236.255 333.564 241.093 335.382C250.026 338.748 257.856 343.737 264.481 350.633C266.64 352.883 268.843 355.132 271.18 357.187C276.257 361.626 282.554 359.466 284.117 352.808C284.936 349.278 284.385 345.852 283.12 342.516C279.607 333.237 273.354 326.147 265.24 320.651C260.819 317.657 256.129 315.08 251.753 312.042C242.746 305.786 235.838 297.862 232.831 287.034C231.938 283.832 231.402 280.585 232.622 277.278C234.885 271.216 240.274 268.684 246.348 270.948C250.204 272.393 253.479 274.687 256.353 277.636C260.864 282.283 264.675 287.451 268.143 292.903C270.213 296.164 272.342 299.411 275.661 301.616C279.473 304.148 280.366 303.939 282.316 299.903C283.031 298.413 283.611 296.85 284.296 295.345C286.47 290.564 289.402 286.796 295.372 286.975C301.029 287.138 306.508 290.877 308.607 296.269C310.036 299.933 310.393 303.79 309.917 307.678C309.604 310.225 309.158 312.772 308.622 315.289C306.806 323.794 307.669 332.135 310.111 340.386C311.465 344.929 313.862 348.757 317.718 351.617C323.077 355.593 326.412 354.461 327.945 347.833C328.571 345.167 328.794 342.367 328.898 339.627C329.151 332.596 328.422 325.655 326.725 318.819C325.846 315.244 325.013 311.655 324.298 308.05C323.464 303.865 323.42 299.665 323.881 295.405C324.417 290.49 326.233 286.468 331.131 284.591C336.089 282.685 340.183 284.904 343.8 287.943C347.239 290.832 349.428 294.72 351.184 298.831C359.149 317.478 361.025 336.439 354.147 355.861C352.465 360.628 349.487 364.619 346.793 368.775C339.959 379.335 334.555 390.581 330.476 402.466C325.846 415.99 328.332 428.636 335.508 440.566C341.627 450.769 350.202 458.41 360.816 463.727C368.513 467.585 375.421 465.232 379.202 457.472C382.567 450.561 383.639 443.069 384.16 435.532C384.472 430.944 384.502 426.327 384.323 421.74C383.49 401.364 385.5 381.331 391.038 361.641C393.032 354.551 394.164 347.267 394.834 339.91C395.846 328.932 394.7 318.178 390.799 307.857C385.291 293.29 377.609 279.929 367.784 267.805C356.499 253.894 341.895 247.013 324.075 246.879C319.475 246.849 314.874 247.042 310.274 247.147C301.416 247.355 292.603 247.102 283.983 244.764C273.25 241.844 266.446 235.008 264.213 224.016C263.35 219.741 263.692 215.57 266.952 212.145C270.257 208.674 274.173 207.959 278.46 210.119C281.289 211.534 283.656 213.634 285.904 215.779C291.71 221.305 297.918 221.93 305.094 218.43C320.68 210.849 337.384 209.836 354.206 211.728C371.967 213.738 384.517 223.211 390.77 240.325C392.735 245.687 394.566 251.094 396.471 256.471C397.841 260.313 399.613 263.933 402.277 267.076C404.019 269.131 405.999 270.769 408.917 269.965C411.641 269.22 413.249 267.254 413.934 264.588C416.51 254.609 415.795 244.719 411.627 235.395C405.27 221.171 395.161 211.221 378.979 208.689C369.496 207.215 360.221 204.891 351.795 199.991C348.088 197.831 344.828 195.165 342.475 191.546C338.947 186.079 338.59 180.449 342.386 174.998C346.123 169.636 351.408 167.7 357.824 168.817C363.541 169.815 367.992 172.928 371.625 177.292C373.619 179.69 375.331 182.326 377.282 184.784C381.405 189.982 383.847 190.473 389.549 187.256C392.75 185.454 395.906 183.547 399.047 181.626C414.693 172.064 435.178 181.358 442.443 192.871C443.128 193.959 443.753 195.105 444.245 196.282C449.113 207.796 444.766 215.466 432.424 217.209C431.516 217.343 430.593 217.388 429.685 217.492C423.849 218.162 422.941 219.562 424.98 224.939C426.231 228.246 428.047 231.239 430.593 233.712C435.342 238.344 440.835 239.997 447.282 237.793C456.526 234.635 463.211 228.082 469.419 220.962C471.831 218.192 473.781 215.034 476.118 212.189C480.971 206.261 486.033 205.874 491.794 210.894C493.745 212.606 495.352 214.632 496.648 216.881C502.826 227.635 504.27 239.119 501.158 251.019C498.494 261.207 491.273 265.839 480.808 264.439C476.073 263.799 471.31 262.994 466.769 261.579C453.4 257.394 444.9 262.488 437.694 274.135C433.139 281.493 426.975 293.886 430.593 302.688C432.975 308.512 437.337 309.331 442.771 308.542C451.733 307.246 459.98 304.088 468.853 308.11C475.969 311.342 480.942 318.342 488.251 321.068C493.447 323.004 499.163 322.557 504.702 322.215C510.225 321.872 516.031 321.708 521.018 324.136C537.29 332.045 525.812 348.37 511.699 347.789C503.793 347.461 496.528 343.618 489.651 339.716C482.773 335.814 475.731 331.688 467.885 330.705C461.722 329.93 455.231 331.598 450.646 335.888C446.061 340.178 445.465 346.537 440.82 350.827C432.945 358.096 426.127 366.258 420.395 375.358C413.8 385.844 410.718 396.747 415.244 408.916C415.869 410.599 416.584 412.282 417.001 414.024C417.269 415.127 417.12 416.646 417.983 417.51C420.142 419.669 424.608 417.539 426.246 415.722C428.672 413.026 429.536 409.303 431.025 405.996C432.513 402.69 435.268 399.368 438.9 399.353C442.771 399.338 445.54 402.943 448.934 404.82C454.517 407.903 462.422 405.52 465.355 399.86C467.766 395.198 466.918 389.493 468.719 384.563C470.208 380.437 473.453 377.161 477.026 374.614C481.865 371.158 487.626 368.775 493.551 368.775C499.491 368.775 505.58 371.396 508.944 376.282C512.309 381.167 512.428 388.346 508.528 392.844C503.868 398.236 495.605 398.445 489.517 402.139C485.259 404.715 482.147 409.109 481.105 413.965C480.361 417.42 481.165 421.844 484.47 423.095C486.375 423.825 488.504 423.244 490.484 422.753C495.04 421.635 499.714 421.04 504.404 420.965C507.441 420.921 510.552 421.114 513.396 422.172C516.254 423.229 518.844 425.285 520.006 428.085C521.718 432.21 520.065 436.917 518.219 440.983C515.123 447.865 511.371 454.642 505.669 459.572C499.967 464.502 491.973 467.302 484.723 465.232C477.16 463.057 471.965 456.265 467.722 449.637C463.479 443.009 459.296 435.83 452.432 431.987C447.579 429.276 441.669 428.546 436.31 429.991C432.364 431.049 428.732 433.298 425.993 436.307C423.09 439.494 424.653 443.188 424.727 447.209C424.891 456.384 421.556 463.653 414.425 469.313C411.537 471.606 408.902 474.168 406.729 477.177C403.855 481.124 402.084 485.503 401.414 490.359C400.714 495.467 402.486 499.34 407.026 501.932C413.621 505.715 420.291 507.174 427.437 503.257C430.489 501.589 433.719 500.204 437.262 499.757C446.358 498.61 452.671 502.364 455.767 510.987C457.092 514.651 457.732 518.524 457.866 522.411C457.941 524.944 457.196 528.891 458.298 531.184C458.998 532.644 460.591 533.672 462.213 533.582C464.64 533.448 466.382 530.991 466.709 528.593C467.037 526.18 466.367 523.767 465.98 521.369C465.102 515.888 465.801 510.049 468.526 505.208C471.265 500.368 476.148 496.659 481.656 495.929C487.164 495.199 493.119 497.746 495.918 502.557C499.164 508.128 497.749 515.366 494.593 520.996C491.437 526.612 486.748 531.214 483.041 536.487C479.334 541.759 476.535 548.283 477.964 554.569C478.306 556.043 478.991 557.607 480.391 558.188C481.82 558.784 483.517 558.113 484.619 557.026C485.72 555.939 486.405 554.509 487.194 553.183C490.842 547.121 497.541 542.996 504.597 542.459C508.304 542.191 512.562 543.189 514.378 546.436C516.358 549.966 514.572 554.36 512.636 557.92C509.302 564.086 505.357 570.178 499.58 574.14C495.739 576.761 491.273 578.31 487.075 580.336C482.877 582.362 478.753 585.058 476.535 589.139C474.927 592.088 474.093 597.629 476.743 600.324C479.021 602.648 486.033 601.576 489.159 601.605C494.563 601.665 499.953 602.901 504.478 605.925C509.004 608.963 509.897 612.597 512.502 617.096C517.802 626.256 524.74 634.463 532.913 641.18C535.488 643.295 538.376 645.559 539.032 648.836C539.448 650.966 538.838 653.14 538.198 655.211C533.895 669.345 528.73 683.227 522.611 696.677C520.795 700.668 518.785 704.764 515.391 707.55C511.312 710.901 505.178 710.946 500.295 709.501C487.864 705.807 475.552 699.417 462.288 702.843C454.576 704.839 447.401 708.473 440.746 712.822C434.434 716.948 428.017 720.91 421.631 724.946C416.956 727.896 412.311 730.874 408.113 734.494C401.399 740.318 396.516 747.169 395.146 756.255C394.134 763.032 391.693 769.421 388.477 775.483C384.621 782.737 378.949 787.712 370.538 788.591C358.152 789.886 349.338 796.157 343.428 806.985C341.85 809.875 339.885 812.586 337.503 814.924C332.054 820.301 325.504 822.327 318.239 820.122C306.731 816.607 298.96 809.011 295.536 797.289C294.643 794.25 294.509 791.093 294.955 787.965C295.819 781.814 298.99 777.405 305.049 775.349C310.244 773.592 315.544 773.175 320.814 774.59C329.657 776.958 337.816 774.158 345.319 770.449C352.837 766.726 357.11 757.595 356.038 748.405C355.561 744.22 351.973 741.926 348.237 740.615C345.14 739.513 341.835 738.962 338.605 738.247C335.002 737.458 331.369 736.817 328.005 735.239C326.174 734.39 324.313 733.541 322.616 732.468C316.14 728.357 313.356 722.131 315.187 716.159C316.84 710.752 323.003 707.028 330.223 707.118C338.322 707.222 345.646 710.335 353.045 713.105C354.594 713.686 356.067 714.461 357.586 715.116C369.868 720.448 381.331 718.333 392.095 711.065C396.724 707.937 397.454 704.779 395.146 699.626C394.476 698.122 393.643 696.647 392.616 695.381C383.207 683.823 371.565 675.288 357.273 670.984C347.865 668.154 338.322 669.003 329.062 672.384C320.353 675.556 312.284 679.861 305.094 685.789C294.985 694.115 285.785 703.364 277.031 713.091C267.131 724.098 256.189 733.868 243.088 741.003C235.391 745.188 227.263 747.914 218.494 748.629C209.22 749.388 200.585 747.303 192.516 742.76C187.916 740.169 184.298 736.549 181.842 731.872C176.378 721.491 181.217 709.635 192.397 706.06C197.548 704.407 202.893 704.094 208.237 704.392C213.924 704.72 219.611 705.196 225.283 705.792C233.843 706.701 241.227 704.079 247.852 698.792C251.753 695.664 255.296 692.179 258.199 688.127C261.682 683.272 261.37 679.533 257.291 675.259C253.063 670.835 247.837 668.392 241.778 667.618C234.096 666.62 226.37 666.426 218.643 666.59C212.733 666.709 206.853 666.456 201.136 664.862C194.065 662.896 188.392 659.128 185.757 651.874C183.018 644.308 185.713 637.456 192.859 633.733C197.087 631.528 201.627 631.081 206.287 631.484C215.934 632.303 224.97 635.431 233.843 639.065C235.704 639.825 237.52 640.733 238.711 641.269ZM673.255 462.565C677.572 469.536 680.401 476.492 683.17 483.492C684.212 486.128 685.537 488.646 686.698 491.237C688.738 495.825 692.43 498.059 697.253 498.565C703.565 499.236 709.892 499.682 716.19 500.442C725.837 501.604 734.01 505.759 740.605 512.968C741.617 514.07 742.659 515.158 743.746 516.2C746.783 519.135 750.475 520.46 754.658 520.401C759.675 520.341 761.64 518.643 762.37 513.758C763.442 506.549 755.805 504.225 743.433 501.797C737.359 500.606 735.305 496.942 729.529 494.737C723.886 492.578 718.021 485.89 713.406 481.913C706.721 476.149 708.091 458.812 708.121 449.935C708.136 444.216 709.461 438.749 714.746 435.607C720.254 432.345 725.762 434.042 730.883 437.006C736.645 440.343 740.798 445.347 744.446 450.814C744.818 451.365 745.13 451.961 745.428 452.556C753.854 469.104 753.497 465.634 767.759 474.183C772.21 476.849 774.399 475.792 775.798 470.832C776.781 467.361 776.676 463.861 775.694 460.436C771.645 446.196 763.501 435.219 749.671 429.291C741.855 425.94 733.742 423.274 725.732 420.369C718.036 417.584 711.396 413.25 705.992 407.113C703.014 403.732 700.379 400.038 698.25 396.062C692.564 385.412 683.78 379.827 671.677 379.335C666.317 379.127 661.003 379.559 655.688 380.02C636.707 381.659 617.725 382.701 598.7 380.839C584.199 379.425 570.473 375.775 558.266 367.434C553.532 364.202 549.363 360.449 545.924 355.832C543.781 352.942 542.5 349.695 541.92 346.225C541.131 341.488 542.366 337.273 545.865 333.862C550.093 329.737 555.125 329.319 559.918 332.73C563.074 334.979 565.59 337.884 567.853 340.997C568.538 341.95 569.148 342.933 569.789 343.916C577.187 355.281 587.281 360.97 601.141 359.183C606.59 358.483 612.068 358.125 617.517 357.232C624.827 356.025 626.866 345.748 623.353 340.595C622.221 338.941 620.554 338.256 618.753 337.824C615.835 337.124 612.887 336.543 609.954 335.858C605.056 334.711 600.263 333.237 595.945 330.6C588.651 326.162 586.239 318.774 589.544 311.208C592.834 303.671 600.665 299.754 608.436 301.824C612.723 302.971 616.341 305.354 619.601 308.288C623.74 312.012 626.866 316.51 629.576 321.366C633.491 328.381 636.156 335.977 639.893 343.082C641.56 346.24 643.421 349.114 646.666 350.902C651.877 353.761 655.554 352.153 656.388 346.299C657.623 337.735 655.316 329.722 651.892 321.991C647.932 313.07 642.2 305.25 636.334 297.535C632.672 292.709 629.471 287.645 628.013 281.687C626.092 273.867 627.06 266.42 631.347 259.524C635.367 253.09 640.964 251.049 648.125 253.373C655.465 255.756 659.975 260.656 661.003 268.431C661.39 271.41 661.419 274.418 661.553 277.427C661.732 281.598 662.015 285.753 663.027 289.834C663.98 293.647 665.692 296.998 668.372 299.873C671.9 303.656 675.205 307.603 678.019 311.997C681.398 317.285 682.783 322.945 682.187 329.171C681.785 333.326 681.517 337.482 681.919 341.667C682.396 346.403 684.361 349.516 689.288 351.17C698.563 354.298 705.575 360.166 708.776 369.847C710.771 375.865 714.716 379.722 721.117 380.973C728.055 382.329 733.935 385.397 738.238 391.325C740.441 394.364 742.793 394.453 746.158 392.695C747.676 391.906 748.837 390.744 749.79 389.329C755.417 380.974 753.05 366.839 744.982 360.821C741.766 358.408 738.208 356.532 734.65 354.7C723.082 348.772 715.371 339.552 711.143 327.309C709.237 321.768 708.731 316.242 710.756 310.627C711.738 307.916 713.212 305.533 715.445 303.641C720.016 299.739 726.372 301.124 728.606 306.71C729.722 309.48 730.377 312.444 731.136 315.349C731.851 318.089 732.283 320.919 733.087 323.63C734.59 328.739 737.642 331.986 743.403 332.149C750.609 332.358 756.445 335.65 761.685 340.446C766.419 344.78 768.295 344.154 769.813 337.839C771.54 330.675 770.126 323.928 766.508 317.583C764.439 313.963 761.655 310.806 759.675 307.097C753.869 296.224 755.819 284.457 764.841 276.087C767.699 273.45 770.856 271.306 774.309 269.608C779.192 267.21 783.718 268.029 787.857 271.35C791.683 274.433 792.442 278.514 791.474 283.087C790.775 286.379 789.539 289.477 788.05 292.485C784.805 299.009 784.835 305.622 787.231 312.399C788.408 315.706 789.971 318.834 790.879 322.26C792.219 327.279 792.323 332.194 790.283 336.99C786.963 344.84 785.251 353.24 781.455 360.941C778.716 366.496 778.999 372.618 780.011 378.65C780.562 381.957 782.423 384.459 784.76 386.693C787.41 389.225 790.105 391.727 792.77 394.245C797.474 398.683 799.886 404.209 800.57 410.569C800.824 412.892 801.092 415.216 801.434 417.525C802.565 425.389 804.918 432.806 809.533 439.39C813.359 444.841 815.8 450.709 815.651 457.561C815.562 461.612 816.678 465.515 818.837 469C821.547 473.364 832.995 460.331 833.62 455.639C835.243 443.53 834.111 431.779 830.136 420.101C826.534 409.511 822.514 399.085 818.986 388.48C814.371 374.629 814.579 360.94 819.805 347.282C824.807 334.16 829.214 320.859 832.295 307.127C834.811 295.867 835.511 284.666 832.042 273.465C829.08 263.903 824.539 255.294 817.408 248.145C811.944 242.678 805.513 239.863 797.697 239.834C787.812 239.804 778.046 240.861 768.25 241.978C758.142 243.14 748.033 244.406 737.851 244.719C722.829 245.166 709.073 241.517 697.164 231.969C692.37 228.126 689.512 223.107 688.648 217.119C687.919 212.04 689.11 207.438 693.725 204.4C697.923 201.629 701.243 201.704 705.203 204.876C709.758 208.525 714.15 212.383 718.616 216.151C719.763 217.119 720.968 218.043 722.04 219.086C731.062 227.873 741.438 228.499 752.648 224.224C759.72 221.528 762.563 216.181 761.015 208.734C760.405 205.77 758.782 203.938 755.849 203.342C753.557 202.88 751.234 202.582 748.942 202.136C741.394 200.691 736.54 194.673 737.597 188.135C738.744 181.075 745.562 175.936 752.902 176.681C758.38 177.247 763.233 179.347 767.312 183.071C770.513 186.005 773.461 189.192 775.739 192.931C778.091 196.788 780.488 200.601 782.929 204.385C786.249 209.508 791.251 210.67 796.923 210.134C799.528 209.896 800.63 208.153 801.077 205.829C801.538 203.327 801.196 200.84 800.943 198.352C800.407 193.035 799.528 187.762 799.573 182.386C799.603 179.198 799.767 176.011 800.958 173.032C802.312 169.651 804.054 168.772 807.657 169.412C819.016 171.423 828.35 181.998 828.96 193.512C829.154 197.206 828.752 200.84 828.216 204.489C827.531 209.106 826.891 213.738 826.846 218.43C826.817 222.288 827.993 225.594 830.479 228.544C833.486 232.118 836.24 235.901 838.801 239.819C843.535 247.072 846.602 254.922 847.763 263.516C848.135 266.331 848.537 269.146 849.162 271.916C850.502 277.889 856.264 279.676 860.983 275.64C863.484 273.51 864.898 270.695 865.762 267.567C868.158 258.884 867.384 250.349 864.377 241.978C862.74 237.421 860.685 233.027 859.107 228.454C855.862 219.056 855.043 209.538 858.646 200.006C859.717 197.176 861.042 194.51 863.722 192.752C868.62 189.52 873.92 190.563 877.165 195.478C879.22 198.606 880.381 202.046 880.902 205.74C881.721 211.564 881.736 217.388 881.349 223.226C881.11 226.726 880.932 230.241 882.197 233.623C883.641 237.51 884.4 237.853 887.988 235.946C889.313 235.246 890.579 234.412 891.889 233.682C896.042 231.344 900.211 230.167 904.483 233.488C908.548 236.646 910.542 242.306 909.203 247.4C908.28 250.855 906.478 253.864 904.052 256.456C902.459 258.154 900.762 259.777 899.035 261.341C893.154 266.599 889.313 273.152 886.693 280.51C885.249 284.562 884.951 288.643 886.246 292.798C888.033 298.592 891.085 299.531 895.759 295.524C897.65 293.9 899.303 291.979 900.851 290.028C904.796 285.023 907.982 279.542 910.394 273.629C911.659 270.531 912.969 267.463 914.383 264.439C916.021 260.939 918.239 257.826 920.844 254.966C923.867 251.66 927.35 249.679 931.935 250.93C936.58 252.196 938.396 256.009 939.409 260.179C940.376 264.126 939.9 268.163 938.992 272.095C934.838 290.013 926.07 304.893 910.632 315.438C906.85 318.015 902.533 319.355 898.335 320.949C887.676 325.015 877.701 330.347 868.352 336.871C857.723 344.288 852.78 354.878 851.634 367.449C850.666 378.203 852.84 388.391 857.767 397.968C861.34 404.924 867.652 406.89 874.575 403.241C880.738 399.994 885.532 395.079 889.953 389.836C892.633 386.648 895.134 383.282 897.457 379.827C907.759 364.456 919.966 350.872 934.541 339.433C939.796 335.307 944.53 330.586 948.952 325.566C955.576 318.059 960.489 309.584 963.154 299.933C966.92 286.319 968.454 272.423 967.739 258.288C966.92 242.053 959.923 229.184 946.942 219.547C943.592 217.06 940.123 214.736 936.699 212.353C930.104 207.751 923.777 202.851 918.73 196.52C912.433 188.626 911.123 179.988 915.366 170.738C917.018 167.149 919.505 164.274 923.733 163.514C928.02 162.755 931.265 164.319 933.245 168.191C934.556 170.753 935.166 173.553 935.672 176.324C936.967 183.473 941.18 187.256 948.296 188.552C963.764 191.352 976.538 199.574 987.837 209.97C999.762 220.962 1003.89 234.62 999.3 250.498C997.856 255.473 996.308 260.418 994.834 265.378C993.777 268.922 993.137 272.527 993.405 276.251C993.583 278.693 994.164 280.942 996.725 281.925C999.122 282.834 1001.34 282.253 1003.28 280.674C1010.51 274.746 1015.27 267.135 1017.21 258.079C1020.17 244.257 1018.1 231.552 1007.61 221.037C1001.46 214.87 995.906 208.198 992.363 200.095C990.8 196.52 989.832 192.827 990.07 188.924C990.412 183.026 993.167 178.721 998.868 176.755C1004.48 174.834 1009.38 176.249 1013.47 180.509C1017.12 184.307 1018.71 188.969 1019.04 194.108C1019.22 196.937 1019.07 199.782 1019.17 202.612C1019.41 208.63 1020.93 210.298 1026.84 210.998C1030.16 211.4 1033.48 211.698 1036.82 211.966C1053.4 213.351 1063.4 231.135 1062.56 243.453C1062.48 244.615 1062.32 245.776 1062.05 246.908C1059.44 257.93 1052.15 261.237 1042.19 255.89C1041.46 255.502 1040.76 255.041 1040.03 254.624C1035.42 251.987 1033.99 252.524 1032.6 257.558C1031.75 260.641 1031.49 263.814 1032.01 266.986C1033 272.914 1036.15 277.07 1042.03 278.917C1050.48 281.568 1058.89 280.346 1067.25 278.47C1070.49 277.74 1073.62 276.474 1076.85 275.64C1083.58 273.912 1087.49 276.34 1089.01 283.087C1089.53 285.381 1089.62 287.734 1089.35 290.073C1088.12 301.258 1083.03 310.433 1074.38 317.478C1066.98 323.511 1059.21 323.034 1052.3 316.391C1049.17 313.397 1046.11 310.24 1043.54 306.769C1036 296.537 1027.05 295.718 1015.53 300.38C1008.25 303.329 997.112 309.093 995.042 317.463C993.673 323.004 996.412 325.938 1000.82 328.277C1008.07 332.135 1015.81 334.235 1020.14 341.935C1023.63 348.101 1023.51 355.906 1027.41 361.819C1030.16 366.019 1034.6 368.76 1038.84 371.471C1043.07 374.182 1047.42 377.175 1049.75 381.614C1057.42 396.121 1040.3 401.93 1030.27 393.932C1024.65 389.463 1021.39 382.746 1018.45 376.192C1015.5 369.639 1012.56 362.847 1007.34 357.932C1003.23 354.059 997.588 351.81 991.931 352.48C986.289 353.166 982.433 357.5 976.746 358.155C967.084 359.257 957.72 361.566 948.669 365.17C938.218 369.311 930.119 375.641 926.933 386.976C926.487 388.54 926.114 390.163 925.489 391.653C925.087 392.591 924.164 393.634 924.328 394.721C924.76 397.462 929.166 398.296 931.34 397.849C934.57 397.179 937.176 394.915 940.049 393.291C942.922 391.668 946.704 390.715 949.368 392.651C952.212 394.706 952.316 398.832 953.79 402.019C956.216 407.277 963.288 409.765 968.469 407.188C972.726 405.073 975.168 400.441 979.113 397.789C982.418 395.57 986.542 394.915 990.517 394.959C995.906 395.019 1001.4 396.36 1005.75 399.547C1010.09 402.719 1013.15 407.903 1013 413.295C1012.85 418.686 1009.08 423.989 1003.83 425.195C997.529 426.64 991.38 422.365 984.934 421.814C980.438 421.427 975.808 422.961 972.444 425.97C970.047 428.1 968.26 431.764 970.017 434.46C971.029 436.009 972.89 436.724 974.602 437.438C978.532 439.062 982.284 441.132 985.738 443.59C987.986 445.184 990.159 446.986 991.678 449.294C993.196 451.603 994 454.493 993.345 457.174C992.378 461.121 988.656 463.668 985.127 465.664C979.187 469.045 972.801 471.994 965.983 472.545C959.164 473.096 951.81 470.862 947.627 465.47C943.25 459.825 943.086 452.065 943.518 444.93C943.949 437.796 944.738 430.304 941.776 423.81C939.677 419.223 935.747 415.514 931.042 413.712C927.588 412.371 923.733 412.073 920.1 412.803C916.274 413.577 915.44 417.122 913.326 420.101C908.533 426.908 902.191 430.438 893.958 430.766C890.608 430.9 887.318 431.362 884.118 432.389C879.905 433.745 876.257 435.994 873.176 439.181C869.93 442.547 869.156 446.331 871.076 450.665C873.89 456.965 877.984 461.612 885.309 462.58C888.435 462.997 891.546 463.712 894.375 465.291C901.64 469.328 904.26 475.449 901.923 483.433C900.925 486.829 899.332 490.016 897.337 492.92C896.042 494.812 893.377 497.299 892.961 499.578C892.693 501.023 893.303 502.632 894.539 503.436C896.385 504.627 898.975 503.764 900.508 502.185C902.042 500.606 902.846 498.476 903.843 496.51C906.136 492.012 909.768 488.124 914.368 486.039C918.969 483.969 924.536 483.865 928.958 486.277C933.379 488.69 936.372 493.754 935.851 498.774C935.24 504.598 930.328 509.14 925.013 511.553C919.683 513.981 913.803 514.83 908.265 516.707C902.727 518.584 897.189 521.86 894.866 527.237C894.33 528.503 894.003 530.023 894.702 531.184C895.432 532.391 897.025 532.793 898.409 532.599C899.794 532.391 901.059 531.706 902.354 531.169C908.28 528.682 915.381 529.248 920.829 532.644C923.688 534.431 926.278 537.44 925.861 540.791C925.415 544.44 921.753 546.704 918.448 548.268C912.701 550.994 906.553 553.347 900.196 553.139C895.983 553.005 891.889 551.739 887.735 550.979C883.582 550.219 879.116 549.981 875.304 551.768C872.55 553.064 868.977 556.669 869.469 560.065C869.9 562.984 875.602 565.963 877.865 567.661C881.795 570.595 885.07 574.393 886.767 579.04C888.465 583.687 887.17 586.83 886.663 591.507C885.636 601.054 886.321 610.78 888.718 620.075C889.477 623.009 890.37 626.211 889.09 628.966C888.256 630.754 886.634 632.02 885.07 633.197C874.352 641.24 863.141 648.627 851.455 655.196C847.986 657.147 844.324 659.068 840.349 659.292C835.57 659.545 831.059 656.313 828.246 652.634C821.115 643.265 815.532 631.99 803.995 627.388C797.28 624.707 790.075 623.53 782.884 623.143C776.051 622.785 769.233 622.234 762.4 621.772C757.397 621.43 752.395 621.117 747.393 621.519C739.354 622.175 732.119 624.588 726.253 630.501C721.877 634.924 716.681 638.29 711.083 641.001C704.384 644.248 697.566 644.844 690.926 640.971C681.16 635.282 671.364 635.148 661.241 639.914C658.546 641.18 655.658 642.118 652.651 642.565C645.788 643.578 639.907 641.552 635.769 636.041C629.218 627.298 627.611 617.572 631.377 607.161C632.36 604.465 633.953 602.067 635.933 600.027C639.863 595.99 644.537 594.456 650.075 596.199C654.824 597.688 658.918 600.235 662.03 604.093C667.226 610.572 674.714 612.895 682.172 614.191C689.675 615.502 697.685 611.093 701.823 603.795C703.714 600.473 702.315 596.884 700.29 593.905C698.608 591.447 696.494 589.258 694.499 587.009C692.281 584.506 689.973 582.079 688.35 579.13C687.472 577.521 686.549 575.912 685.879 574.214C683.348 567.735 684.629 561.673 689.169 558.292C693.278 555.224 699.784 555.805 705.009 559.737C710.89 564.146 714.567 570.357 718.512 576.344C719.331 577.595 720.001 578.951 720.76 580.247C726.894 590.732 736.421 595.335 748.197 595.767C753.259 595.96 755.492 594.024 756.564 589.034C756.876 587.575 757.055 586.041 756.981 584.566C756.281 571.057 752.336 558.575 744.163 547.762C738.788 540.642 731.345 536.159 722.755 533.672C714.671 531.333 706.468 530.157 698.027 530.648C686.162 531.333 674.49 533.165 662.878 535.593C649.733 538.348 636.498 539.629 623.085 537.842C615.21 536.785 607.796 534.416 600.992 530.246C593.802 525.822 588.591 519.671 585.122 512.03C583.142 507.666 582.428 503.078 583.142 498.342C584.706 487.812 594.591 481.72 604.684 485.101C609.344 486.65 613.423 489.271 617.175 492.369C621.164 495.661 625.08 499.057 628.906 502.527C634.682 507.77 641.5 509.811 649.182 509.498C653.708 509.304 658.174 508.649 662.462 507.234C667.613 505.551 669.384 502.646 668.684 497.329C667.955 491.818 665.439 487.246 661.419 483.418C656.328 478.577 650.775 474.302 645.029 470.266C640.637 467.183 636.468 463.846 633.134 459.616C629.01 454.388 626.866 448.594 628.831 441.862C630.886 434.847 636.513 431.287 643.733 432.389C648.006 433.045 651.564 435.145 654.765 437.945C661.39 443.724 666.332 450.843 670.888 458.261C671.826 459.899 672.674 461.538 673.255 462.565Z" stroke="#FF1C4A" stroke-width="0.977" stroke-miterlimit="10"/>
</g>
</svg>
