<svg width="462" height="228" viewBox="0 0 462 228" fill="none" xmlns="http://www.w3.org/2000/svg">
<path d="M156.207 227.689C148.534 227.612 140.845 228.291 133.187 227.457C130.527 227.164 127.851 226.716 125.314 225.728C121.3 224.153 118.779 221.095 117.118 217.25C114.488 211.182 113.52 204.712 112.705 198.226C111.49 188.56 110.536 178.878 109.368 169.212C108.583 162.68 106.369 156.935 101.11 152.473C94.8978 147.192 91.4533 140.058 88.7777 132.476C87.2553 128.183 85.3486 124.06 82.5345 120.401C81.2428 118.717 79.7358 117.266 78.0443 116.108C70.2327 110.796 66.7113 103.044 65.0352 94.0727C63.6359 86.5681 62.9746 78.9399 61.0217 71.5279C59.2687 64.8881 55.978 59.4217 50.2115 55.4069C45.3369 52.0098 42.8304 46.8214 41.1389 41.247C39.0476 34.3446 36.8487 27.5039 32.5738 21.5589C30.8362 19.15 28.6372 17.2198 26.3306 15.3823C21.2869 11.352 16.9967 6.68863 14.4594 0.635525C11.3071 -6.88454 12.3989 -13.9877 17.0736 -20.5195C21.9943 -27.4064 28.8064 -31.5757 36.9718 -33.2588C41.8771 -34.2625 46.9054 -34.1853 51.4571 -31.5757C57.162 -28.2866 59.4994 -22.8975 60.2836 -16.6436C60.8372 -12.32 60.7142 -7.98089 59.8069 -3.76533C58.4845 2.3341 59.2072 8.26368 60.7142 14.1469C63.5898 25.2803 67.9876 35.8115 73.7541 45.7559C74.5537 47.1302 75.5378 48.3964 76.522 49.6472C76.768 49.956 77.1217 50.5891 77.706 50.2803C78.1366 50.0487 78.029 49.5082 77.9982 49.0913C77.8906 46.9758 77.2601 44.9684 76.5374 43.0073C75.2457 39.4866 74.077 35.9042 72.5546 32.4761C68.8948 24.2766 68.7873 15.7065 69.9406 7.07468C71.263 -2.85427 75.1995 -11.5942 82.8266 -18.3268C89.6233 -24.3181 97.4196 -27.0049 106.6 -26.2329C120.27 -25.0902 124.345 -10.4824 119.317 -0.87775C116.272 4.94373 111.321 8.37177 105.354 10.5799C104.032 11.0741 102.694 11.491 101.433 12.0932C99.2649 13.1432 97.6041 14.7337 96.9583 17.158C94.4672 26.3921 93.7906 35.7189 95.7127 45.1537C96.1279 47.2074 96.7892 49.1839 97.7733 51.0678C98.819 53.0598 100.511 53.8936 102.617 53.7701C108.076 53.4613 111.859 50.8671 112.397 44.8603C112.782 40.6293 112.797 36.352 113.704 32.1827C113.966 30.9783 114.196 29.743 114.673 28.6312C117.01 23.1648 120.239 22.2383 125.36 23.7516C133.31 26.0987 138.738 31.457 141.122 39.5329C142.552 44.397 141.675 49.1839 139.968 53.8473C137.631 60.2556 133.864 65.8763 130.035 71.4353C125.76 77.6428 120.931 83.4952 117.656 90.3512C116.257 93.2852 115.38 96.2963 116.272 99.6317C116.672 101.099 117.425 101.5 118.763 101.377C119.993 101.268 121.162 100.96 122.331 100.558C125.821 99.3537 128.143 100.419 129.589 103.801C130.788 106.596 131.895 106.766 133.91 104.511C136.078 102.087 137.554 99.2611 138.708 96.2654C140.553 91.4785 143.152 87.2166 147.011 83.8349C156.33 75.6972 167.125 78.7237 172.999 88.4519C180.026 100.095 178.104 111.599 170.8 122.454C165.695 130.036 158.652 135.209 150.225 138.637C146.458 140.166 142.829 142.081 139.769 144.906C134.417 149.848 132.603 155.932 134.033 162.989C134.786 166.679 137.262 167.729 140.63 166.061C143.351 164.703 145.074 162.278 147.18 160.24C149.256 158.233 151.594 156.627 154.331 155.607C158.867 153.909 162.865 156.843 164.757 160.255C167.801 165.753 168.34 171.713 167.771 177.828C166.971 186.46 163.649 193.964 157.468 200.11C156.684 200.882 155.992 201.747 155.284 202.596C154.9 203.06 154.346 203.6 154.715 204.233C155.115 204.913 155.807 204.449 156.391 204.388C159.19 204.063 161.835 202.828 164.71 203.044C168.585 203.337 171.707 204.835 173.337 208.572C174.736 211.799 175.475 215.119 174.383 218.64C173.891 220.231 174.167 221.651 175.321 222.917C176.197 223.859 176.997 224.879 177.781 225.882C178.15 226.361 178.673 226.932 178.335 227.534C178.027 228.075 177.32 227.782 176.797 227.782C170.523 227.751 164.264 227.704 157.991 227.658C157.437 227.689 156.822 227.689 156.207 227.689Z" fill="white"/>
<path d="M299.553 149.771C297.862 145.293 296.201 141.417 295.063 137.34C294.633 135.796 294.248 134.236 294.018 132.661C293.541 129.465 294.971 127.905 298.2 127.936C298.615 127.936 299.031 127.936 299.661 127.936C298.016 124.879 296.355 122.038 295.171 118.949C294.156 116.293 293.295 113.606 293.033 110.75C292.664 106.519 294.448 104.172 298.615 103.461C299.769 103.261 299.477 102.766 299.154 102.102C297.385 98.5663 295.94 94.9221 295.032 91.0771C294.51 88.8535 294.156 86.5991 294.294 84.2983C294.448 81.7967 295.309 79.743 297.954 78.9555C298.954 78.6621 298.646 78.0907 298.369 77.4113C296.647 73.2575 294.971 69.0883 294.31 64.6102C293.602 59.8851 295.34 56.2717 299.231 54.357C295.125 50.7591 292.403 46.4972 292.864 40.7684C292.895 40.4441 292.926 40.1044 292.618 39.95C292.065 39.6875 291.742 40.1044 291.357 40.4287C288.313 43.0846 285.56 46.034 283.008 49.1686C272.52 62.0469 264.955 76.5775 258.85 91.9419C257.927 94.2735 256.574 95.2464 254.637 94.9838C252.637 94.7059 251.546 93.486 251.3 90.9845C250.439 82.5225 251.592 74.2612 253.868 66.1235C257.404 53.4305 263.525 42.0037 270.844 31.1483C271.152 30.685 271.936 30.2063 271.444 29.6041C271.029 29.11 270.275 29.4342 269.706 29.6504C263.555 31.9667 257.343 34.1439 251.284 36.6918C244.272 39.6257 237.214 42.4978 230.448 45.9876C228.849 46.806 227.296 47.0531 225.835 45.8487C224.282 44.567 224.036 42.8067 224.559 40.9846C225.435 37.9734 226.512 35.0241 227.819 32.1674C232.309 22.3157 238.844 14.2706 248.455 9.0822C252.607 6.84317 257.082 5.37621 261.772 4.6659C262.202 4.60413 262.617 4.51149 263.032 4.4034C263.401 4.31075 263.74 4.12545 263.724 3.69308C263.724 3.30704 263.355 3.24528 263.079 3.13718C260.418 2.07172 257.789 0.944481 255.113 -0.059227C249.301 -2.23649 243.473 -4.39832 237.614 -6.48293C235.031 -7.40943 232.416 -8.24327 229.756 -8.93815C227.772 -9.46316 226.742 -10.7139 226.358 -12.5978C225.989 -14.4199 226.834 -16.1185 228.495 -17.1068C236.107 -21.662 244.518 -23.2371 253.206 -23.7467C259.111 -24.1018 264.985 -23.4841 270.859 -22.9591C271.321 -22.9128 271.89 -22.6503 272.182 -23.2371C272.413 -23.6849 271.982 -24.04 271.767 -24.3952C268.138 -30.2321 264.386 -35.9764 259.573 -40.9177C258.173 -42.3538 257.743 -44.0524 258.389 -46.0134C258.988 -47.8819 260.418 -48.5304 262.171 -48.6848C273.197 -49.704 282.515 -46.4149 289.666 -37.6595C290.219 -36.9801 290.619 -35.6676 291.542 -35.8529C292.511 -36.0536 292.28 -37.397 292.48 -38.2618C294.433 -46.1987 296.309 -54.1666 300.015 -61.5477C301.322 -64.1573 303.367 -65.7633 306.166 -65.8096C309.057 -65.8559 311.179 -64.2345 312.501 -61.5477C316.207 -54.1048 318.16 -46.0906 320.051 -38.061C320.236 -37.2581 320.021 -36.0073 320.928 -35.8065C321.82 -35.6058 322.173 -36.8257 322.696 -37.4588C329.57 -46.0443 338.642 -49.4106 349.376 -48.8084C351.344 -48.7003 353.343 -48.376 354.097 -46.0443C354.835 -43.7899 354.081 -42.0449 352.482 -40.3927C347.823 -35.5595 344.194 -29.9542 340.688 -24.2717C340.488 -23.9319 340.042 -23.5614 340.395 -23.1135C340.703 -22.7429 341.18 -22.9128 341.61 -22.9437C347.177 -23.4069 352.743 -23.9783 358.341 -23.7775C366.122 -23.4996 373.641 -22.0326 380.791 -18.9134C382.068 -18.3575 383.282 -17.6318 384.436 -16.8288C385.943 -15.7942 386.481 -14.2501 386.127 -12.4588C385.774 -10.7139 384.805 -9.46317 383.006 -8.98448C377.701 -7.57929 372.58 -5.58732 367.429 -3.73433C361.816 -1.71148 356.265 0.450348 350.683 2.55041C350.575 2.59673 350.421 2.59673 350.344 2.67393C349.883 3.12174 348.776 2.96732 348.853 3.78573C348.93 4.55782 349.883 4.54237 350.529 4.63502C354.927 5.25269 359.079 6.65787 363.031 8.60351C372.026 13.0198 378.408 20.0766 383.083 28.8166C385.005 32.4145 386.512 36.1668 387.711 40.0581C387.957 40.8765 388.219 41.7412 388.219 42.5751C388.265 45.8023 385.266 47.5627 382.314 46.0957C375.994 42.9611 369.505 40.197 362.969 37.5102C356.372 34.7925 349.729 32.26 343.056 29.7585C342.425 29.5269 341.626 29.0791 341.164 29.6041C340.595 30.2526 341.472 30.7931 341.81 31.3027C349.222 42.328 355.373 53.9555 358.879 66.8647C361.001 74.6627 361.954 82.5688 361.293 90.6448C361.001 94.1191 358.756 95.8023 355.911 94.675C354.865 94.2581 354.281 93.486 353.881 92.4669C349.545 81.4724 344.455 70.8486 338.027 60.9197C333.291 53.6003 328.001 46.7288 321.589 40.7838C321.158 40.3823 320.697 39.5485 319.898 39.9963C319.313 40.3206 319.682 41.0154 319.698 41.525C319.882 46.9605 317.176 50.9598 313.316 54.3879C316.914 56.1945 318.729 59.5917 318.329 63.5756C317.837 68.4243 316.053 72.8869 314.193 77.3032C313.777 78.2915 313.731 78.7238 314.915 79.1253C317.237 79.8974 318.083 81.843 318.206 84.1438C318.452 89.0079 317.037 93.5169 315.269 97.9486C314.7 99.3693 314.07 100.774 313.362 102.133C312.901 103.029 312.916 103.384 314.039 103.508C317.806 103.925 319.959 106.828 319.513 110.75C319.067 114.641 317.775 118.285 316.099 121.806C315.131 123.844 314.1 125.836 312.716 127.967C313.793 127.967 314.562 127.936 315.315 127.967C317.253 128.075 318.575 129.48 318.544 131.488C318.483 134.993 317.206 138.22 316.099 141.479C315.207 144.073 314.162 146.636 313.101 149.446C314.193 149.06 315.054 148.69 315.961 148.474C317.268 148.165 318.175 148.705 318.314 150.08C318.944 156.287 315.592 164.734 310.81 167.59C307.119 169.798 302.075 168.995 299.323 165.629C295.94 161.491 294.187 156.735 294.156 151.361C294.141 148.582 295.448 147.686 297.985 148.844C298.323 149.014 298.677 149.261 299.553 149.771Z" fill="white"/>
<path d="M61.6058 227.834C47.5972 227.834 33.5732 227.834 19.5645 227.834C17.2425 227.834 15.5664 226.706 15.5664 224.452C15.551 219.078 12.8446 215.002 9.78452 211.002C4.97144 204.718 -0.164532 198.695 -5.37742 192.735C-10.1136 187.346 -14.1424 181.478 -15.8031 174.328C-17.0948 168.785 -15.8031 163.998 -11.559 160.06C-7.85309 156.617 -2.88627 156.756 1.3886 160.354C7.83167 165.758 11.9528 172.861 16.0892 179.98C18.3036 183.779 19.9028 187.979 23.3166 191.021C25.4694 192.936 26.8533 192.781 27.8067 190.048C29.3752 185.554 29.6981 180.86 29.1907 176.166C28.2219 167.194 25.008 159.118 18.8263 152.401C14.5822 147.8 9.60006 144.804 3.03398 145.283C0.281456 145.484 -2.4096 145.283 -4.9776 143.893C-10.8517 140.712 -10.3443 134.072 -7.49949 130.243C-2.51726 123.541 5.40205 122.892 11.6606 128.467C16.8427 133.068 20.7639 138.72 25.1618 143.986C27.1608 146.379 29.0676 148.881 31.9278 150.363C35.2185 152.062 38.7553 149.823 38.6476 146.117C38.5707 143.553 37.3867 141.376 36.1257 139.261C33.5577 134.968 30.39 131.107 26.8994 127.587C22.4861 123.14 19.9028 117.92 18.9802 111.728C18.2882 107.065 17.0426 102.556 13.3982 99.1587C8.40062 94.5108 2.54192 92.9975 -4.0703 94.3718C-6.20773 94.8196 -8.37592 95.3601 -10.4057 96.163C-15.1573 98.0469 -18.8017 95.9932 -22.0463 92.9048C-31.2573 84.1649 -33.8561 72.3366 -29.3044 60.4311C-28.5355 58.4083 -27.5206 56.509 -26.1367 54.8413C-21.7542 49.5139 -17.0949 49.3595 -11.5129 52.6331C-7.46871 54.9957 -3.31685 55.7987 1.08104 53.8993C4.218 52.5559 4.9715 49.1124 2.92633 46.4102C0.0969162 42.6733 -3.93192 41.021 -8.22217 39.8629C-13.0968 38.5504 -18.1866 38.5813 -23.0919 37.5621C-37.5619 34.5819 -45.1275 24.2051 -40.7758 9.0106C-39.6378 5.04211 -36.1319 3.34353 -32.7181 1.7376C-27.2438 -0.841145 -21.5235 -1.1191 -15.8954 0.703013C-9.12941 2.89572 -3.47065 6.75612 -0.287556 13.4887C3.27996 21.0242 5.8326 28.9457 8.09306 36.929C9.99984 43.6307 13.1676 49.2514 18.9802 53.2199C22.5169 55.6288 23.7625 59.1341 23.701 63.257C23.6702 65.6658 23.6548 68.0593 23.6548 70.4682C23.6548 77.2007 25.5154 79.5324 32.0969 80.8449C34.3881 81.2928 35.972 82.5126 37.0945 84.4892C42.5381 94.0938 44.3833 104.517 44.1373 115.434C44.0297 120.298 43.5991 125.162 44.3372 130.011C44.9677 134.103 46.6592 137.67 49.627 140.527C52.3949 143.214 55.455 145.484 59.1455 146.889C61.4213 147.753 62.7592 149.761 63.6664 152C65.2657 155.907 65.5886 160.029 65.2964 164.168C64.6506 173.248 67.8183 179.1 75.9836 183.362C78.0288 184.427 80.1509 185.369 82.2422 186.373C88.2239 189.23 92.7601 193.878 97.0965 198.726C102.202 204.455 105.954 210.956 107.322 218.646C107.615 220.283 107.753 221.95 107.784 223.603C107.845 226.336 106.323 227.803 103.616 227.803C89.6385 227.834 75.6145 227.834 61.6058 227.834Z" fill="white"/>
<path d="M413.652 210.288C409.946 207.015 406.686 203.973 403.857 200.514C400.443 196.375 397.444 191.975 395.953 186.709C394.046 179.992 395.922 174.417 401.104 169.955C405.364 166.28 410.361 163.871 415.943 163.33C421.848 162.759 426.876 165.122 430.736 169.584C436.764 176.548 439.055 184.763 437.563 193.797C436.303 201.394 439.393 206.768 445.098 211.168C447.543 213.052 450.496 213.932 453.233 215.26C456.093 216.65 458.892 218.148 460.891 220.773C462.013 222.24 462.382 223.784 461.537 225.421C460.737 226.981 459.476 227.83 457.569 227.83C431.09 227.799 404.595 228 378.115 227.675C371.718 227.598 365.721 224.911 361.046 220.171C358.125 217.191 356.941 213.423 357.571 209.3C358.617 202.382 361.708 196.483 367.105 191.959C370.765 188.886 374.947 188.84 379.192 190.508C385.373 192.916 390.34 197.209 395.491 201.224C399.382 204.251 403.195 207.462 407.839 209.315C409.5 209.979 411.253 210.551 413.652 210.288Z" fill="white"/>
<path d="M379.93 103.356C379.976 100.514 380.284 97.704 380.776 94.9091C381.929 88.4236 380.96 82.1852 378.638 76.0703C376.824 71.2989 374.794 66.6201 372.21 62.2192C371.565 61.1228 371.242 60.0574 372.041 58.961C372.841 57.8647 374.056 57.6022 375.317 57.7411C384.159 58.714 392.801 60.6133 400.92 64.3347C412.714 69.7547 422.017 77.9387 427.845 89.7516C429.952 94.0289 430.321 98.7232 430.967 103.356C432.151 111.833 433.35 120.311 436.441 128.356C436.81 129.328 437.287 130.27 437.779 131.181C438.256 132.046 438.563 132.865 437.933 133.76C437.256 134.718 436.257 134.764 435.273 134.486C431.105 133.312 427.461 131.166 424.078 128.479C418.742 124.248 416.574 117.979 413.529 112.265C411.422 108.312 409.423 104.298 406.702 100.7C405.687 99.3563 404.549 98.1981 403.011 97.4878C402.304 97.1636 401.535 97.0246 400.935 97.565C400.336 98.1055 400.92 98.7077 401.089 99.2482C402.304 102.954 403.288 106.676 403.011 110.629C402.55 117.099 399.075 119.23 393.693 119.693C385.819 120.388 380.853 115.832 380.084 107.417C379.991 106.073 379.991 104.715 379.93 103.356Z" fill="white"/>
<path d="M328.262 208.416C330.938 210.392 332.967 212.693 335.766 214.037C338.119 215.164 339.564 214.716 340.733 212.415C341.056 211.767 341.379 211.087 341.625 210.392C342.655 207.505 345.392 207.366 347.606 208.925C352.804 212.554 353.158 217.681 348.667 222.128C346.238 224.537 343.424 226.297 340.256 227.471C337.442 228.505 334.828 227.563 332.275 226.421C328.785 224.861 325.909 222.39 323.003 219.982C322.588 219.642 322.188 219.287 321.65 218.839C321.065 221.881 319.866 224.336 316.944 225.247C312.623 226.606 308.702 223.796 308.133 219.225C307.733 216.029 309.24 213.604 311.162 211.411C312.239 210.192 311.839 209.667 310.855 208.725C298.615 197.066 286.374 185.408 273.734 174.197C265.523 166.924 257.158 159.837 247.962 153.814C239.52 148.286 230.524 143.932 221.067 140.411C214.732 138.048 208.366 135.779 201.953 133.648C200.984 133.323 199.893 132.906 200.031 131.547C200.169 130.204 201.261 130.034 202.276 129.787C209.673 128.011 216.977 128.783 224.296 130.451C232.339 132.289 239.735 135.701 246.824 139.762C253.652 143.669 259.787 148.595 265.876 153.567C279.424 164.639 292.633 176.127 305.78 187.662C310.132 191.476 314.269 195.553 318.451 199.583C319.374 200.479 319.728 200.263 320.358 199.321C321.342 197.854 322.403 196.402 323.618 195.105C325.34 193.283 327.678 192.974 329.923 193.561C332.491 194.225 333.967 196.263 334.613 198.765C335.766 203.212 333.121 207.366 328.262 208.416Z" fill="white"/>
<path d="M193.788 2.16992C202.292 2.44787 210.181 3.29716 217.838 5.73694C219.453 6.24651 220.191 7.23477 220.283 8.76349C220.391 10.3076 219.684 11.4503 218.238 12.1298C214.548 13.8592 210.919 15.6968 207.505 17.9667C201.139 22.1977 197.279 28.0192 195.695 35.4466C195.203 37.7319 194.696 40.0327 193.881 42.21C190.974 50.0543 184.7 53.9456 177.089 56.1383C171.553 57.7443 166.448 56.6479 162.173 52.8802C157.867 49.0661 155.699 43.9858 155.069 38.3033C154.069 29.2391 157.344 21.5028 162.88 14.6313C168.17 8.05317 175.29 4.65602 183.486 3.11186C187.115 2.43243 190.713 2.52508 193.788 2.16992Z" fill="white"/>
<path d="M209.98 105.995C209.98 102.752 210.764 99.6486 211.918 96.6375C212.364 95.4639 211.964 95.2786 210.934 95.2786C209.719 95.2786 208.873 95.9117 208.089 96.7301C204.921 100.066 202.999 104.219 200.8 108.188C198.647 112.095 197.156 116.387 194.311 119.923C190.743 124.371 186.084 127.119 180.748 128.849C179.949 129.111 179.318 128.941 178.764 128.308C178.272 127.752 178.026 127.088 178.365 126.44C182.916 117.453 183.931 107.601 185.131 97.8574C186.007 90.7233 188.929 84.7011 193.496 79.3429C198.77 73.1508 205.121 68.5029 212.594 65.2138C219.391 62.2181 226.557 60.8593 233.769 59.5313C234.307 59.4386 234.876 59.4541 235.43 59.4541C237.982 59.485 239.089 61.3225 237.828 63.5152C235.137 68.2249 232.985 73.1817 231.262 78.3237C229.602 83.2805 229.248 88.299 230.17 93.4411C230.939 97.7647 231.247 102.135 230.34 106.474C228.802 113.747 224.235 116.017 217.53 115.198C212.118 114.565 209.949 111.693 209.98 105.995Z" fill="white"/>
<path d="M229.524 209.037C230.831 212.696 233.599 215.414 235.706 218.549C236.06 219.074 236.952 219.506 236.567 220.216C236.198 220.896 235.322 220.51 234.707 220.448C224.788 219.614 215.839 216.325 207.996 210.056C205.105 207.74 202.307 205.408 200.538 202.073C199.154 199.478 198.57 196.761 199.4 193.889C199.646 193.008 199.493 192.468 198.801 191.804C197.694 190.738 196.94 189.395 196.694 187.789C196.54 186.863 196.571 185.797 195.51 185.226C195.279 185.102 195.187 184.593 195.141 184.238C194.803 181.057 195.571 178.123 197.278 175.451C198.17 174.046 199.523 174.386 200.754 174.772C207.32 176.887 210.641 181.705 210.426 188.669C210.41 189.086 210.426 189.488 210.426 190.183C211.256 189.04 211.226 187.974 211.21 186.971C211.195 185.952 211.041 184.948 210.918 183.682C212.394 184.608 213.132 185.766 213.163 187.233C213.24 190.306 214.793 192.468 217.269 194.012C218.407 194.722 218.607 195.34 217.945 196.514C216.977 198.228 216.7 200.096 217.223 202.443C217.73 200.884 218.038 199.617 218.56 198.428C220.775 193.472 224.804 190.553 229.663 188.623C238.951 184.932 248.638 184.685 258.434 185.179C260.156 185.272 261.878 185.257 263.585 185.288C264.062 185.303 264.631 185.21 264.784 185.843C264.938 186.492 264.385 186.616 263.969 186.878C258.372 190.368 252.237 192.483 245.917 194.197C241.196 195.479 236.29 195.201 231.523 195.989C229.986 196.236 228.679 196.853 227.725 198.259C228.786 197.903 229.832 197.502 230.908 197.208C234.307 196.251 235.276 196.761 236.875 199.88C238.705 203.462 240.012 207.23 241.073 211.09C241.795 213.716 242.749 216.233 244.733 218.225C245.24 218.734 245.532 219.352 245.178 220.062C244.794 220.834 244.041 220.711 243.395 220.649C240.135 220.278 237.951 218.07 235.737 215.97C233.461 213.808 231.8 211.137 229.832 208.712C229.694 208.682 229.555 208.666 229.417 208.635C229.417 208.759 229.478 208.898 229.524 209.037ZM227.064 198.228C226.941 198.382 226.741 198.536 226.695 198.737C226.664 198.892 226.864 199.046 227.064 198.922C227.202 198.845 227.356 198.722 227.433 198.567C227.556 198.305 227.31 198.32 227.064 198.228Z" fill="white"/>
<path d="M398.982 128.746C401.627 128.87 404.687 128.962 407.655 129.842C408.593 130.12 409.592 130.429 409.639 131.695C409.685 133.023 408.747 133.286 407.732 133.471C404.595 134.043 401.458 134.475 398.367 135.293C393.354 136.637 388.418 138.104 383.651 140.204C379.069 142.227 374.655 144.527 370.442 147.183C361.754 152.634 353.727 158.965 345.931 165.605C337.243 172.986 328.724 180.584 320.451 188.428C318.421 190.343 317.268 190.265 315.484 188.104C314.469 186.884 313.331 185.772 312.285 184.568C310.871 182.962 310.84 181.695 312.424 180.275C316.56 176.584 320.743 172.94 324.972 169.342C334.06 161.59 343.117 153.808 352.635 146.597C359.801 141.161 367.536 136.729 375.901 133.409C383.159 130.506 390.709 128.854 398.982 128.746Z" fill="white"/>
<path d="M288.866 218.811C285.806 221.343 283.069 223.876 279.762 225.62C277.763 226.67 275.764 227.751 273.427 227.844C269.26 227.998 266.138 225.682 263.109 223.304C261.633 222.146 260.341 220.741 259.48 218.981C257.45 214.873 260.295 209.052 264.785 208.094C266.646 207.693 267.891 208.341 268.691 209.978C269.152 210.92 269.475 211.924 269.982 212.819C271.013 214.672 272.566 215.12 274.488 214.178C277.41 212.758 279.778 210.58 282.484 208.449C279.378 207.878 277.148 206.411 276.18 203.585C275.226 200.821 275.457 198.165 277.41 195.756C279.747 192.869 283.914 192.282 286.39 195C291.941 201.099 297.523 207.183 302.675 213.638C304.612 216.062 304.012 219.969 300.583 223.52C298.261 225.929 294.648 226.3 292.034 224.462C290.127 223.181 289.296 221.235 288.866 218.811Z" fill="white"/>
<path d="M336.35 100.574C336.35 100.451 336.35 100.327 336.35 100.204C336.289 96.7295 336.473 96.6214 339.656 98.1501C347.207 101.763 349.313 108.527 345.484 116.927C344.962 118.085 343.777 119.243 343.885 120.309C343.947 121.004 345.807 121.498 346.822 122.146C349.19 123.66 350.297 125.868 350.236 128.678C350.082 135.148 346.115 139.41 340.502 141.294C338.334 142.02 336.073 142.205 333.844 142.545C332.829 142.699 332.214 142.39 332.675 141.217C335.566 133.913 333.521 127.458 329.215 121.451C328.369 120.278 328.569 119.66 329.369 118.641C333.552 113.36 336.243 107.461 336.35 100.574Z" fill="white"/>
<path d="M272.459 99.9656C272.443 106.914 274.965 112.952 279.209 118.279C280.347 119.715 280.27 120.472 279.24 121.939C275.196 127.776 273.35 134.092 276.103 141.087C276.534 142.167 276.241 142.662 275.103 142.538C271.321 142.121 267.599 141.581 264.324 139.357C260.264 136.593 258.481 132.671 258.588 127.884C258.681 124.471 260.864 122.356 263.755 121.121C265.277 120.472 264.985 120.009 264.355 118.912C262.433 115.562 261.11 111.995 261.51 108.026C262.017 102.93 265.247 99.981 269.614 97.9736C269.829 97.8655 270.075 97.8192 270.306 97.7265C272.397 96.8155 272.582 96.9545 272.428 99.2244C272.443 99.4714 272.459 99.7185 272.459 99.9656Z" fill="white"/>
<path d="M420.357 24.493C420.373 30.8395 416.652 35.6109 410.608 37.3558C407.502 38.2515 401.397 35.8889 398.922 31.766C395.2 25.543 396.892 16.7259 403.058 13.0353C409.839 8.97418 417.682 13.0199 419.866 20.648C420.235 21.9142 420.388 23.1959 420.357 24.493Z" fill="white"/>
</svg>
