<svg width="1348" height="711" viewBox="0 0 1348 711" fill="none" xmlns="http://www.w3.org/2000/svg">
<path d="M1143.08 707.454C1141.01 708.478 1139.07 709.66 1137.26 710.921H1166.68C1163.66 707.743 1159.41 704.643 1153.48 704.643C1150.27 704.643 1146.97 705.536 1143.08 707.454ZM794.888 700.966C792.185 703.96 790.059 707.323 788.485 710.921H856.827C854.754 706.141 851.631 701.728 847.51 698.05C840.66 691.904 831.842 688.542 822.656 688.542C812.079 688.542 801.948 693.086 794.888 700.966ZM0.0262452 710.921H52.5691C52.0705 710.553 51.5456 710.186 51.0207 709.818C42.491 703.934 33.069 701.281 26.7439 699.784C13.7 696.737 5.43276 688.226 0.0262452 672.23V710.921ZM327.015 688.174C323.918 695.082 321.582 702.857 320.165 710.947H429.923C428.505 683.025 420.081 655.865 384.728 650.638C382.288 650.27 379.821 650.086 377.432 650.086C356.2 650.06 337.828 663.955 327.015 688.174ZM1012.83 638.555C998 650.533 996.635 672.413 1009.6 689.435C1011.1 691.405 1012.64 693.322 1014.22 695.24C1016.03 697.472 1017.74 699.574 1019.34 701.728C1021.15 704.171 1021.75 706.351 1019.44 710.317C1019.34 710.527 1019.21 710.711 1019.08 710.921H1081.64C1083.35 701.649 1083.59 691.72 1082.38 679.742C1080.99 665.925 1075.45 653.606 1065.87 643.099C1058.44 634.93 1047.76 630.255 1036.63 630.255C1027.89 630.255 1019.44 633.197 1012.83 638.555ZM581.751 621.665C561.542 630.938 552.75 651.006 559.364 672.781C563.275 685.652 570.308 696.632 576.003 704.775C577.447 706.85 578.917 708.899 580.413 710.947H643.165C643.454 709.713 643.769 708.505 644.031 707.27C647.39 692.324 648.361 679.821 647.075 667.922C645.737 655.55 642.378 645.437 636.866 637.031C628.835 624.791 615.345 617.489 600.779 617.489C594.244 617.436 587.84 618.855 581.751 621.665ZM1343.33 611.474C1332.76 618.303 1322.31 621.639 1311.42 621.639C1307.67 621.639 1303.76 621.219 1299.87 620.404C1287.64 617.856 1275.54 615.624 1263.89 613.759C1257.2 612.708 1251.11 612.183 1245.26 612.183C1239.06 612.183 1233.05 612.787 1227.44 613.995C1213.68 616.911 1202.21 625.369 1195.94 637.163C1189.67 648.983 1189.09 663.246 1194.37 676.301C1199.04 687.832 1206.7 697.446 1217.17 704.827C1220.32 707.06 1223.55 709.082 1226.81 710.921H1335.3C1339.4 709.109 1343.44 707.165 1347.46 705.09V608.689C1346.12 609.635 1344.75 610.554 1343.33 611.474ZM885.749 615.335C877.089 628.363 873.992 642.863 876.59 658.387C879.792 677.562 886.563 694.977 897.087 710.895H973.093C960.286 701.596 953.619 689.041 952.465 672.361C952.281 669.655 951.887 667.055 951.494 664.56C951.362 663.64 951.205 662.695 951.074 661.775C950.523 657.94 949.998 654.105 949.499 650.244C948.265 641.155 947.006 631.778 945.457 622.532C943.069 608.164 935.195 600.468 920.656 598.314C918.818 598.051 917.007 597.893 915.223 597.893C907.034 597.972 895.276 600.993 885.749 615.335ZM730.378 597.342C711.297 602.884 696.731 614.941 687.047 633.144C679.515 647.328 677.415 662.327 676.391 675.145C675.42 687.281 674.318 699.259 672.428 710.921H744.655C745.259 709.424 745.967 707.9 746.755 706.403C751.006 698.339 756.885 690.932 762.056 684.628C762.948 683.524 763.867 682.448 764.759 681.344C768.223 677.168 771.793 672.86 774.995 668.184C786.254 651.741 786.7 633.564 776.281 615.624C766.517 598.813 753.237 595.293 743.789 595.293C739.564 595.293 735.049 595.976 730.378 597.342ZM477.295 593.428C464.12 593.98 453.333 600.31 446.142 611.71C441.103 619.695 438.111 628.258 437.298 637.163C436.117 650.113 437.245 663.351 440.762 677.614C443.596 689.067 447.586 700.099 452.835 710.947H525.429C511.493 696.632 506.427 678.166 510.023 654.867L510.312 653.002C510.627 650.979 510.968 648.878 511.204 646.672C512.333 635.587 511.991 626.63 510.128 618.461C506.559 602.779 494.958 593.402 479.054 593.402C478.503 593.375 477.899 593.402 477.295 593.428ZM277.989 508.427C269.197 518.278 270.037 533.434 279.879 542.233C284.262 546.173 289.931 548.327 295.81 548.327C302.607 548.327 309.116 545.412 313.63 540.342C322.422 530.518 321.582 515.336 311.767 506.536C307.384 502.596 301.715 500.442 295.836 500.442C289.038 500.442 282.53 503.358 277.989 508.427ZM1242.47 462.04C1223 469.815 1214.1 487.256 1219.19 507.534C1223.42 524.293 1234.6 536.008 1253.37 543.31C1266.96 548.616 1281.19 550.271 1292.03 551.138C1310.5 552.609 1325.57 554.789 1339.45 558.02C1342.26 558.677 1344.94 559.517 1347.43 560.515V489.935C1346.27 489.279 1345.09 488.648 1343.91 488.018C1343.28 487.65 1342.57 487.23 1341.81 486.757C1339.61 485.444 1336.85 483.789 1333.96 482.265C1317.33 473.413 1297.33 463.826 1275.36 459.702C1270.58 458.809 1266.2 458.362 1261.95 458.362C1254.97 458.415 1248.56 459.597 1242.47 462.04ZM438.846 442.654C431.97 450.351 432.626 462.197 440.316 469.079C443.754 472.152 448.163 473.834 452.782 473.834C458.084 473.834 463.175 471.575 466.718 467.608C473.595 459.912 472.939 448.065 465.249 441.183C461.811 438.11 457.401 436.429 452.782 436.429C447.481 436.403 442.389 438.688 438.846 442.654ZM46.8739 424.924C45.4042 438.031 54.8787 449.904 68.0013 451.349C68.8937 451.454 69.786 451.506 70.6783 451.506C82.8561 451.506 93.0655 442.365 94.4302 430.23C95.9 417.123 86.4255 405.25 73.3291 403.779C72.4368 403.674 71.5444 403.621 70.6521 403.621C58.4481 403.621 48.2387 412.789 46.8739 424.924ZM848.429 365.271C837.143 377.906 838.219 397.37 850.843 408.665C856.486 413.708 863.756 416.492 871.315 416.492C880.054 416.492 888.4 412.762 894.2 406.248C905.486 393.614 904.41 374.15 891.786 362.855C886.143 357.811 878.873 355.027 871.315 355.027C862.601 355.027 854.255 358.757 848.429 365.271ZM1237.78 357.943C1157.75 385.129 1121.48 442.917 1104.06 470.681C1100.67 476.093 1096.87 482.134 1094.9 484.209C1072.54 485.391 1040.88 490.408 1014.06 507.14C979.628 528.653 962.91 562.984 964.38 609.188C964.695 618.776 972.437 626.288 982.043 626.288C987.948 626.288 993.25 623.425 996.583 618.434C1007.37 602.333 1019.68 594.19 1033.19 594.19C1039.42 594.19 1046.08 595.95 1052.98 599.364C1097.02 621.297 1113.45 676.511 1117.44 692.902C1118.54 697.446 1122.59 700.624 1127.26 700.624C1130.2 700.624 1132.98 699.337 1134.9 697.105C1137.36 694.215 1141.51 690.774 1147.13 690.774C1149.64 690.774 1152.4 691.457 1155.29 692.771C1156.63 693.401 1158.04 693.69 1159.49 693.69C1162.92 693.69 1166.13 691.93 1167.99 688.988C1169.85 686.072 1170.09 682.448 1168.62 679.295C1162.37 665.899 1155.26 638.45 1177.88 604.986C1187.75 590.407 1206.96 583.026 1235.05 583.026C1243.73 583.026 1253.13 583.762 1263 585.206C1263.6 585.285 1264.21 585.338 1264.81 585.338C1271.19 585.338 1276.72 580.373 1277.7 573.754C1278.56 567.923 1275.31 562.669 1269.8 560.988C1241.48 552.372 1202.95 538.162 1195.39 514.39C1191.64 502.596 1195.97 488.569 1208.17 472.783C1208.33 472.599 1224.73 453.398 1272.66 453.398C1283.84 453.398 1295.99 454.448 1308.8 456.497C1312.94 457.154 1316.96 457.495 1320.74 457.495C1331.37 457.495 1340.5 454.816 1347.48 449.668V380.795C1345.3 378.063 1342.91 375.463 1340.32 373.02C1329.42 362.723 1310.11 350.457 1279.98 350.457C1266.57 350.483 1252.39 353.005 1237.78 357.943ZM595.819 294.56C593.876 297.817 593.771 301.757 595.582 305.146C602.012 317.176 606.448 356.367 595.819 380.533C591.541 390.278 585.373 396.24 577.526 398.263C567.762 400.758 555.322 404.698 545.848 412.92C537.371 420.275 528.473 433.829 534.3 456.523C538.788 473.991 560.965 492.693 586.843 492.693C602.721 492.693 632.089 485.234 650.435 435.3C664.004 398.342 658.203 366.296 650.96 345.912C642.483 322.036 627.523 301.495 610.962 290.962C609.204 289.832 607.183 289.254 605.162 289.254C601.356 289.228 597.787 291.277 595.819 294.56ZM683.058 268.319C667.363 303.438 683.268 340.002 703.371 362.513C715.575 376.172 720.063 390.304 717.098 405.697C707.151 457.39 617.208 503.542 612.773 505.801L509.446 549.509C505.509 551.164 503.121 555.157 503.514 559.412C503.908 563.694 506.979 567.161 511.178 568.106C524.169 570.996 547.659 580.741 558.918 613.706C560.283 617.673 564.009 620.352 568.209 620.352C570.23 620.352 572.198 619.721 573.851 618.566L585.137 610.581C599.939 600.126 617.313 594.584 635.449 594.584C644.608 594.584 653.689 596.029 662.298 598.813L686.863 607.35C687.887 607.717 688.989 607.875 690.065 607.875C692.585 607.875 694.947 606.929 696.784 605.222C701.036 601.203 723.502 581.161 747.883 581.161C757.883 581.161 767.2 584.602 775.546 591.379C777.934 593.323 780.821 594.347 783.892 594.347C790.322 594.347 795.86 589.777 797.067 583.499C800.977 562.748 815.36 562.748 820.084 562.748C821.921 562.748 823.889 562.879 825.91 563.168C834.886 564.377 842.734 564.981 849.898 564.981C886.852 564.981 909.108 548.879 917.874 515.756C923.857 493.192 912.205 469.736 890.788 461.173C883.65 458.336 876.144 456.891 868.506 456.891C840.739 456.891 811.607 475.488 781.871 512.131C764.024 534.143 749.379 538.74 740.246 538.74C725.969 538.74 716.232 527.55 713.975 516.518C713.082 512.131 712.19 501.414 723.292 496.66C748.907 485.733 814.809 426.185 826.094 360.281C832.892 320.643 819.716 285.262 786.91 255.133C770.769 240.292 753.106 232.465 735.837 232.465C713.135 232.438 692.952 246.202 683.058 268.319ZM946.953 134.304C944.88 136.905 944.145 140.267 944.906 143.55C947.321 153.926 942.754 184.553 929.815 200.865C924.855 207.143 919.343 210.321 913.281 210.321H911.575C890.447 210.321 865.226 217.046 864.911 249.17C864.832 258.6 869.74 269.265 878.06 277.67C887.377 287.074 899.344 292.275 911.758 292.275C924.907 292.275 944.749 286.365 964.564 258.154C998.105 210.426 983.854 155.659 963.645 133.674C961.546 131.388 958.685 130.128 955.614 130.128C952.281 130.101 949.027 131.677 946.953 134.304ZM1230.22 122.221C1227.65 129.602 1227.17 137.272 1228.75 145.678C1231.42 159.915 1238.96 172.155 1251.77 183.082C1274.49 202.52 1300.55 212.396 1329.21 212.396C1331.71 212.396 1334.23 212.318 1336.75 212.186C1340.03 212.002 1343.7 211.792 1347.43 211.687V134.856C1338.93 135.801 1331.08 138.297 1323.65 142.368C1320.47 144.128 1317.56 144.969 1314.75 144.969C1310.48 144.969 1306.15 142.867 1301.5 138.533C1298.98 136.169 1296.62 133.569 1294.1 130.837C1292.13 128.683 1290.11 126.476 1287.96 124.323L1285.39 121.722C1281.21 117.493 1276.88 113.133 1271.95 109.298C1266.96 105.436 1261.19 103.414 1255.28 103.414C1244.02 103.44 1234.18 110.821 1230.22 122.221ZM1040.7 95.8489C1020.1 100.393 1008.92 114 1008.37 135.197C1007.82 155.738 1015.09 173.889 1029.97 189.176C1041.54 201.075 1055.69 207.878 1067.97 212.922C1088.86 221.537 1109.07 230.284 1126.71 242.919C1145 256.026 1155.86 268.477 1161.93 283.265C1163.4 286.838 1163.74 289.779 1162.85 291.172C1162.11 292.327 1159.51 293.615 1154.5 293.746H1153.84C1147.73 293.746 1142.19 291.093 1135.79 287.127C1128.62 282.687 1121.59 277.618 1114.77 272.732C1106.6 266.875 1098.18 260.807 1089.2 255.553C1075.55 247.516 1063.53 242.63 1051.38 240.161C1045.24 238.9 1039.68 238.296 1034.32 238.296C1028.55 238.296 1022.99 239.031 1017.76 240.476C996.294 246.465 982.699 267.216 985.429 289.858C988.184 312.632 1005.11 327.552 1028.58 327.919H1029.76C1043.19 327.919 1055.82 324.531 1065.32 321.563C1068.44 320.591 1071.57 319.566 1074.69 318.542C1078.23 317.386 1081.77 316.204 1085.34 315.127C1087.18 314.576 1088.6 314.287 1089.81 314.287C1090.8 314.287 1091.64 314.471 1092.51 314.865C1097.52 317.229 1101.96 324.084 1102.82 330.809C1103.27 334.381 1102.95 339.346 1098.86 342.76C1093.03 347.62 1086.76 352.243 1080.7 356.708C1076.66 359.676 1072.48 362.75 1068.42 365.928C1055.79 375.726 1042.98 380.48 1029.23 380.506C1018.55 380.506 1007.08 377.486 995.166 371.549L993.407 370.656C991.518 369.711 989.549 368.712 987.476 367.793C976.925 363.17 968.002 360.701 959.367 359.939C958.134 359.834 956.926 359.781 955.745 359.781C940.208 359.781 928.844 368.739 924.566 384.341C920.97 397.475 923.805 410.031 932.728 420.669C939.001 428.155 946.481 433.776 954.958 437.375C967.346 442.628 980.757 445.675 995.927 446.7C999.706 446.962 1003.56 447.094 1007.37 447.094C1035.74 447.094 1065 439.896 1096.84 425.108C1139.02 405.513 1176.99 379.955 1211.74 355.264C1221.45 348.355 1231.5 341.237 1242.32 335.432C1252.95 329.732 1263.52 326.869 1273.78 326.869C1285.31 326.869 1296.54 330.31 1308.17 337.428C1317.22 342.97 1327.38 347.62 1338.4 351.245C1341.42 352.243 1344.46 353.11 1347.53 353.845V263.67C1344.33 264.405 1341.08 265.377 1337.74 266.533C1334.02 267.846 1330.42 268.503 1327.01 268.503C1320.05 268.503 1313.57 265.771 1307.17 260.176C1293.31 248.015 1276.99 241.868 1258.61 241.868C1252.47 241.868 1245.99 242.577 1239.4 243.943C1237.59 244.337 1235.89 244.521 1234.36 244.521C1229.01 244.521 1225.1 242.183 1220.9 236.431C1215.42 228.892 1211.16 220.329 1207.38 212.213C1200.61 197.608 1189.8 186.444 1175.31 179.063C1165.37 173.994 1154.24 169.712 1140.3 165.562C1132.95 163.382 1126.6 159.468 1120.85 153.61C1114.21 146.834 1108.96 139.006 1104.14 131.546C1103.32 130.311 1102.53 129.051 1101.72 127.816C1098.7 123.088 1095.58 118.202 1092.01 113.579C1082.06 100.787 1069.26 94.2992 1053.93 94.2992C1049.65 94.3517 1045.24 94.8508 1040.7 95.8489ZM608.836 42.369C592.8 54.3993 584.848 67.7693 578.47 78.4863C570.649 91.6462 567.054 96.9784 556.608 96.9784C553.223 96.9784 549.155 96.3743 544.457 95.166C500.758 83.8448 484.172 83.5822 483.489 83.5559L476.324 83.4771L475.169 105.095L479.605 107.275C480.287 107.617 547.475 141.659 537.003 218.674L536.006 226.029L543.328 227.106C544.011 227.211 611.802 237.482 628.704 275.884L643.007 273.205C643.191 269.501 648.362 182.636 737.385 182.636C755.153 182.636 775.336 186.103 797.382 192.932C819.69 199.841 839.558 203.36 856.433 203.36C903.806 203.36 918.005 176.253 922.256 160.098C931.495 124.953 911.26 73.9421 881.419 57.0786C866.039 48.3841 848.481 43.7874 830.661 43.7874C804.835 43.7874 754.812 53.7164 709.749 120.199C701.403 132.492 689.855 142.631 676.339 149.46C661.563 156.946 648.466 160.913 638.493 160.913C628.599 160.913 622.064 157.235 617.891 149.329C615.319 144.469 612.642 137.798 614.426 133.726C616.841 128.184 628.336 125.111 639.438 122.142C651.458 118.938 663.899 115.602 672.822 108.011C682.297 99.9466 684.554 85.8411 678.858 70.291C672.376 52.6394 655.369 33.6745 633.297 33.6745C624.767 33.6745 616.526 36.6164 608.836 42.369ZM33.8301 28.9202C24.723 33.7271 19.8676 41.7123 16.3245 48.9095C5.27529 71.2628 3.22816 95.9277 9.99942 124.323C11.5216 130.705 13.3851 136.983 15.196 143.077C16.7707 148.331 18.3716 153.768 19.7101 159.1C25.0642 180.455 24.2243 199.762 17.1644 218.096C14.4349 225.162 10.918 230.048 6.08889 233.436C4.06801 234.829 1.99464 235.722 0.0262452 236.037V411.528C5.14406 406.773 10.8918 402.623 17.3218 399.025C41.5986 385.418 67.2402 374.859 93.5379 367.688C95.4276 367.163 97.3435 366.69 99.2331 366.191C108.393 363.8 117.867 361.358 126.869 356.419C167.182 334.355 194.661 300.234 210.906 252.139C213.82 243.47 216.943 231.913 215.158 219.357C213.688 209.087 209.935 194.771 194.215 188.756C190.409 187.311 186.551 186.576 182.798 186.576C174.373 186.576 166.342 190.122 158.18 197.45C149.913 204.91 143.483 212.607 138.496 221.038C134.612 227.605 130.596 234.802 126.239 243.076C119.153 256.499 110.282 268.766 99.9155 279.562C95.0076 284.657 91.0446 288.177 87.1078 290.962C82.4362 294.245 80.1528 294.481 79.5492 294.481C78.5256 294.481 76.9509 291.75 75.8749 286.549C74.1427 278.064 75.2975 269.711 79.3917 261.017C87.8952 243.024 98.6032 229.47 112.172 219.541C117.211 215.864 121.935 212.081 126.266 208.299C134.139 201.417 139.861 193.3 143.273 184.185C148.863 169.187 144.821 151.693 133.168 140.661C127.158 134.961 120.203 132.071 112.487 132.071C106.949 132.071 101.018 133.542 93.8791 136.668C92.3306 137.351 90.8084 138.06 89.2862 138.796C87.4228 139.689 85.6381 140.529 83.8797 141.239C82.6986 141.738 81.8063 142.053 81.1239 142.289C80.8877 141.554 80.5728 140.556 80.2053 139.137C78.3944 132.203 79.3655 125.032 80.809 116.364C83.5385 99.8153 84.6145 85.1582 84.0371 71.5255C83.591 60.5721 81.0977 50.9583 76.4523 42.1063C70.6783 31.1003 60.9414 24.7962 49.7347 24.7962C44.4331 24.7699 39.0791 26.1621 33.8301 28.9202ZM1048.99 8.69444C1046.37 10.0078 1043.88 11.899 1041.57 14.3419C1033.75 22.6686 1027.76 38.6653 1033.17 54.0578C1037.13 65.3527 1048.31 79.7734 1079.18 84.2126C1107.73 88.3102 1136.42 78.3813 1155.92 57.6039C1161.93 51.1947 1166.42 44.3127 1168.88 37.6934C1170.33 33.8321 1169.01 29.6819 1165.65 27.2916C1162.3 24.9276 1157.96 25.1114 1154.84 27.7644C1148.18 33.3856 1124.21 41.3445 1107.65 37.9035C1101.33 36.5902 1097.02 33.7271 1094.9 29.4455C1091.85 23.299 1087.47 15.5764 1080.57 10.3493C1076.71 7.43361 1071.28 4.75436 1064.3 4.75436C1059.83 4.75436 1054.72 5.85758 1048.99 8.69444ZM158.705 0.0262672C150.359 20.6723 152.773 41.9749 165.922 62.2532C177.706 80.4301 193.033 94.6669 207.836 107.328C210.067 109.245 212.324 111.136 214.581 113.054C220.092 117.729 225.814 122.536 231.194 127.448C259.591 153.243 272.504 184.264 270.667 222.299C269.04 256.42 261.98 289.858 249.697 321.694C241.587 342.76 228.307 361.962 210.277 378.746C197.049 391.066 184.635 400.837 172.405 408.638C134.507 432.778 99.7843 463.826 69.2611 500.915C62.5423 509.084 55.6923 516.57 48.8686 523.216C38.3967 533.408 25.5891 544.676 10.0257 551.033C6.50881 552.477 3.12318 553.266 0 553.423V659.07C1.12854 656.627 2.96571 654.342 5.59023 652.135C13.0439 645.779 21.3636 641.707 30.9956 639.632C36.1921 638.529 41.5986 637.977 47.5301 637.977C49.5247 637.977 51.5981 638.03 53.6977 638.161C55.3249 638.266 56.8996 638.292 58.5006 638.292C78.8931 638.292 96.2936 630.097 110.23 613.943C111.988 611.894 113.484 609.766 114.797 607.901C118.602 602.516 120.36 600.468 123.799 600.1C125.163 599.969 126.581 599.89 127.972 599.89C134.428 599.89 140.832 601.387 146.474 604.25C155.949 609.031 163.35 617.515 166.814 627.575C171.486 641.182 168.888 656.968 166.368 672.23L165.66 676.537C163.901 687.543 162.615 699.495 164.111 711H301.584C301.269 706.246 299.878 701.36 297.437 696.737C293.421 689.119 287.332 683.262 282.451 679.033C274.079 671.757 264.867 665.4 255.051 660.173L254.5 659.884C251.56 658.308 248.516 656.706 247.571 654.867C246.101 652.03 249.461 646.855 253.371 643.992C259.093 639.842 266.205 637.531 273.423 637.531C275.47 637.531 277.491 637.714 279.433 638.082C284.865 639.107 290.298 641.471 296.072 643.966C304.497 647.617 313.184 651.4 322.947 651.4C324.496 651.4 326.044 651.295 327.566 651.111C343.628 649.036 357.381 634.589 359.533 617.462C361.423 602.49 354.914 586.31 342.526 575.225C332.186 565.979 318.144 560.148 301.899 558.335C298.88 557.994 295.915 557.836 293.106 557.836C283.789 557.836 275.575 559.701 268.698 563.405C263.292 566.32 258.909 570.208 254.683 573.964C250.143 578.009 245.839 581.818 241.01 583.63C239.146 584.34 237.099 584.707 234.973 584.707C226.575 584.707 218.308 579.165 215.762 571.836C215.001 569.656 214.528 567.082 214.003 564.35C212.744 557.652 211.3 550.035 205.028 544.466C200.96 540.867 195.579 538.95 189.49 538.95C183.244 538.95 177.549 540.894 173.874 542.522C171.539 543.573 169.282 544.702 167.129 545.832C162.379 548.275 157.891 550.586 153.482 551.059C153.298 551.085 153.088 551.085 152.905 551.085C150.07 551.085 146.894 549.877 145.635 548.853C145.818 548.59 146.002 548.327 146.133 548.117C146.711 547.303 147.367 546.383 147.944 545.307C149.676 542.076 150.936 538.792 152.143 535.614L153.036 533.276C161.644 511.291 178.809 497.29 207.101 489.2C229.436 482.791 252.689 479.376 276.178 479.008C284.708 478.877 292.004 475.909 298.46 473.308C304.129 470.997 309.457 468.843 315.1 468.711H315.835C326.884 468.711 337.881 474.044 345.991 483.369C356.279 495.189 361.685 511.264 366.908 526.788L367.538 528.627C373.758 547.145 380.503 564.876 394.282 578.272C403.258 586.993 415.488 591.983 427.876 591.983C440.237 591.983 450.683 587.019 456.483 578.351C460.708 572.047 464.33 561.041 457.506 544.387C452.152 531.28 441.339 522.008 430.736 513.628L429.634 512.762C420.422 505.486 411.708 498.63 406.879 489.41C403.153 482.292 401.84 473.912 400.476 465.034C399.137 456.418 397.772 447.514 394.019 439.003C386.119 421.063 371.658 412.395 357.67 404.015C354.1 401.888 350.426 399.681 346.935 397.344C337.513 391.066 335.309 386.18 338.196 377.958C344.337 360.622 372.026 350.141 388.009 345.413C396.617 342.865 404.019 341.631 410.606 341.631C426.327 341.631 437.56 348.749 447.061 364.667C453.15 374.859 460.577 384 467.06 391.565C477.505 403.805 489.998 410.267 503.173 410.267C512.411 410.267 521.807 407.141 531.098 400.995C556.005 384.473 571.752 361.358 577.893 332.28C579.31 325.555 579.625 318.884 578.838 312.501C575.925 288.991 561.437 284.053 549.784 284.053C547.37 284.053 544.772 284.263 542.068 284.684C538.184 285.288 534.352 286.128 530.678 286.916C526.269 287.862 522.096 288.781 517.923 289.307C508.002 290.541 500.444 291.093 493.436 291.093C480.471 291.093 469.343 289.044 459.422 284.815C448.478 280.166 442.993 272.049 442.1 259.283C441.654 252.848 442.757 246.123 445.355 239.347C446.51 236.378 447.297 234.855 447.796 234.093C448.662 234.461 450.289 235.328 453.123 237.324C453.78 237.77 454.409 238.27 455.039 238.742C456.115 239.557 457.191 240.345 458.294 241.106C467.847 247.516 477.059 250.773 485.641 250.773C494.801 250.773 511.545 246.78 520.731 219.961C521.728 217.019 522.542 213.789 523.119 210.348C528.526 178.223 507.11 126.161 461.207 117.756C453.543 116.337 445.329 114.788 437.088 112.975C426.327 110.611 425.408 109.35 426.065 98.1342C426.248 95.166 426.537 92.1978 426.852 89.072C427.246 85.1319 427.666 81.0605 427.823 76.9103C428.374 61.3076 424.332 47.9113 415.803 37.063C407.168 26.1096 396.014 20.3308 383.574 20.3308C380.188 20.3308 376.645 20.7511 373.076 21.5916C356.121 25.6105 345.623 37.3519 342.736 55.6076C341.188 65.4315 342.237 75.7808 345.964 87.2333C353.812 111.399 368.168 130.837 379.821 145.074C399.688 169.371 404.045 197.766 393.179 231.887C386.776 251.955 374.335 268.24 356.226 280.35C354.31 281.637 352.473 282.267 350.793 282.267C349.612 282.267 348.458 281.978 347.224 281.348C345.885 280.691 344.363 279.929 344.547 273.415C344.731 266.008 346.515 258.443 350.163 249.564C352.001 245.073 353.864 240.607 355.727 236.116C358.746 228.84 361.869 221.327 364.835 213.867C380.765 173.915 373.915 135.644 345.046 103.256C314.969 69.5292 283.579 48.3579 249.093 38.5077C234.291 34.2787 227.493 26.3197 226.312 11.8202C226.024 8.14282 225.63 4.12395 224.895 0H158.705V0.0262672ZM375.543 0.0262672C377.091 2.20644 378.797 4.30782 380.66 6.35666C388.088 14.5257 398.743 19.2013 409.898 19.2013C418.637 19.2013 427.114 16.2594 433.728 10.9009C437.508 7.85389 440.421 4.12395 442.442 0.0262672H375.543ZM497.163 0.0262672C498.344 8.82577 499.604 17.9142 501.073 26.8451C503.462 41.2132 511.335 48.9095 525.875 51.0634C527.712 51.3261 529.549 51.4837 531.308 51.4837C539.47 51.4837 551.228 48.4629 560.781 34.1211C567.762 23.6405 571.122 12.188 570.807 0.0525343H497.163V0.0262672ZM663.531 0.0262672C661.458 11.0585 663.689 22.4847 670.276 33.8059C680.039 50.6168 693.32 54.1367 702.768 54.1367C706.993 54.1367 711.507 53.4537 716.179 52.0878C735.259 46.5454 749.826 34.4888 759.536 16.2594C762.397 10.9009 764.444 5.4373 765.993 0H663.531V0.0262672ZM803.549 0.0262672C805.177 4.54422 807.198 8.66817 809.691 12.4506C817.722 24.6911 831.212 31.9934 845.778 31.9934C852.313 31.9934 858.717 30.575 864.832 27.7644C877.43 21.9856 885.592 12.0041 888.348 0H803.549V0.0262672ZM935.641 0.0262672C935.51 0.945618 935.405 1.86497 935.3 2.78432C934.172 13.8691 934.513 22.8262 936.35 30.9953C939.919 46.6768 951.52 56.0542 967.424 56.0542C968.028 56.0542 968.606 56.0279 969.235 56.0016C982.41 55.45 993.197 49.1196 1000.39 37.7197C1005.43 29.7344 1008.42 21.1713 1009.21 12.2668C1009.57 8.22163 1009.73 4.12395 1009.63 0H935.641V0.0262672ZM1089.23 0.0262672C1096.68 4.99076 1105.16 8.19536 1114.63 9.56125C1121.48 10.5594 1128.39 11.0585 1135.16 11.0585C1153.45 11.0585 1171.64 7.35481 1189.54 0.0262672H1089.23ZM1299.98 0.0262672C1298.85 2.83686 1297.83 5.69998 1296.96 8.58937C1287.69 39.322 1299.01 68.8725 1326.49 85.6572C1331.37 88.6254 1336.41 90.9107 1341.26 93.1171C1343.39 94.0628 1345.43 95.0084 1347.43 95.954V0.0262672H1299.98Z" fill="white"/>
</svg>
