<svg width="93" height="92" viewBox="0 0 93 92" fill="none" xmlns="http://www.w3.org/2000/svg">
<g id="Envolpe">
<path id="Union" fill-rule="evenodd" clip-rule="evenodd" d="M14.4727 22.4443H74.6208C75.7254 22.4443 76.6208 23.3398 76.6208 24.4443V67.5555C76.6208 68.66 75.7254 69.5555 74.6208 69.5555H14.4727C13.3681 69.5555 12.4727 68.66 12.4727 67.5555V24.4443C12.4727 23.3398 13.3681 22.4443 14.4727 22.4443ZM10.4727 24.4443C10.4727 22.2352 12.2635 20.4443 14.4727 20.4443H74.6208C76.8299 20.4443 78.6208 22.2352 78.6208 24.4443V67.5555C78.6208 69.7646 76.8299 71.5555 74.6208 71.5555H14.4727C12.2635 71.5555 10.4727 69.7646 10.4727 67.5555V24.4443ZM22.9227 33.2223C22.4523 32.9329 21.8364 33.0795 21.5469 33.5499C21.2575 34.0202 21.4041 34.6362 21.8745 34.9256L42.9313 47.8836C43.929 48.4976 45.1929 48.4747 46.1677 47.8248L65.5459 34.906C66.0054 34.5997 66.1296 33.9788 65.8232 33.5193C65.5169 33.0597 64.896 32.9356 64.4365 33.2419L45.0583 46.1607C44.7333 46.3773 44.312 46.385 43.9795 46.1803L22.9227 33.2223Z" fill="#08266E"/>
</g>
</svg>
