<svg width="93" height="92" viewBox="0 0 93 92" fill="none" xmlns="http://www.w3.org/2000/svg">
<g id="mappin">
<path id="Ellipse 44" d="M33.8701 68.08C30.1901 68.6934 22.8301 70.656 22.8301 73.6C22.8301 77.28 37.5501 79.12 44.9101 79.12C52.2701 79.12 66.9901 77.28 66.9901 73.6C66.9901 70.656 59.6301 68.6934 55.9501 68.08M55.9501 31.28C55.9501 37.3773 51.0073 42.32 44.9101 42.32C38.8129 42.32 33.8701 37.3773 33.8701 31.28C33.8701 25.1828 38.8129 20.24 44.9101 20.24C51.0073 20.24 55.9501 25.1828 55.9501 31.28ZM44.9101 73.6C54.1101 60.72 66.9901 46 66.9901 31.28C66.9901 14.72 52.2701 11.04 44.9101 11.04C37.5501 11.04 24.6701 16.56 24.6701 31.28C24.6701 44.528 37.5501 62.56 44.9101 73.6Z" stroke="#08266E" stroke-width="2" stroke-linecap="round"/>
</g>
</svg>
