<svg width="257" height="60" viewBox="0 0 257 60" fill="none" xmlns="http://www.w3.org/2000/svg">
<g clip-path="url(#clip0_8134_8725)">
<path d="M139.885 25.2827C139.461 26.0258 138.88 26.5855 138.092 26.9165C137.409 27.2023 136.693 27.3257 135.962 27.3798C134.328 27.4942 132.688 27.5784 131.069 27.2956C129.8 27.0729 128.753 26.429 128.082 25.2255C127.669 25.9235 127.155 26.4712 126.439 26.8202C125.452 27.3016 124.39 27.4099 123.328 27.434C121.682 27.4701 120.033 27.431 118.387 27.428C116.127 27.425 113.865 27.443 111.605 27.422C110.212 27.4069 108.873 27.1241 107.66 26.3959C107.23 26.1372 106.836 25.8273 106.535 25.4181C106.415 25.2556 106.33 25.2074 106.162 25.3789C105.136 26.423 103.866 27.0007 102.458 27.3317C100.55 27.78 98.6247 27.8252 96.696 27.5844C95.3871 27.422 94.1144 27.088 92.971 26.3839C92.5347 26.1161 92.1075 25.8303 91.7614 25.4481C91.6411 25.3158 91.5689 25.3127 91.4545 25.4602C90.7204 26.414 89.6943 26.8894 88.563 27.1782C87.6242 27.4159 86.6644 27.4551 85.7016 27.4551C74.5025 27.4551 63.3065 27.4551 52.1075 27.4551C51.1446 27.4551 50.1848 27.3678 49.249 27.1482C48.2651 26.9195 47.4527 26.3899 46.9021 25.5143C46.8209 25.385 46.7848 25.2676 46.6524 25.4873C45.9633 26.6216 44.8621 27.1151 43.6224 27.2956C42.1571 27.5092 40.6767 27.5152 39.1964 27.3889C38.2396 27.3076 37.3008 27.1542 36.4372 26.6848C35.8986 26.3899 35.4774 25.9777 35.1464 25.4752C35.0321 25.3007 34.99 25.2736 34.8666 25.4722C34.2889 26.411 33.4043 26.9405 32.3632 27.1722C30.3202 27.6266 28.2531 27.5513 26.198 27.2956C25.3826 27.1933 24.6244 26.8262 24.0166 26.2274C23.9685 26.1793 23.9113 26.1402 23.812 26.0589C23.7909 26.8021 23.7879 27.4912 23.6886 28.1742C23.2734 31.0808 21.8322 33.2652 19.1904 34.6282C17.8003 35.3443 16.3289 35.7265 14.7854 35.916C13.3441 36.0905 11.9089 36.0935 10.4676 35.9702C8.93009 35.8378 7.44371 35.4888 6.04759 34.8238C3.30048 33.5179 1.58542 31.3967 1.09197 28.3698C0.68577 25.8694 1.11002 23.4713 2.06384 21.1485C2.4941 20.1044 3.01163 19.1114 3.65854 18.1817C3.85111 17.9079 4.06173 17.9019 4.33855 18.0012C5.43679 18.3953 6.53803 18.7835 7.63627 19.1746C7.8499 19.2499 8.06955 19.313 8.27115 19.4184C8.5269 19.5507 8.48177 19.7644 8.3554 19.969C7.91309 20.6821 7.52795 21.4253 7.1699 22.1835C6.42971 23.7421 6.14387 25.3729 6.34547 27.088C6.59219 29.2032 8.0846 30.8822 10.1547 31.4569C11.6952 31.8841 13.2418 31.9563 14.7763 31.5471C17.1594 30.9123 18.3599 29.5613 18.5374 26.9767C18.5495 26.7961 18.5495 26.6156 18.5495 26.4351C18.5495 22.3009 18.5495 18.1667 18.5495 14.0325C18.5495 13.4518 18.6367 13.3645 19.2174 13.3645C20.5293 13.3645 21.8382 13.3615 23.15 13.3645C23.7067 13.3645 23.7969 13.4578 23.7969 14.0174C23.8 16.2891 23.7849 18.5608 23.815 20.8295C23.83 22.0692 24.3656 22.6409 25.5391 23.02C26.5019 23.3299 27.4768 23.3239 28.4246 23.1704C29.4506 23.0049 30.1186 22.701 30.2961 21.2929C30.3473 20.8897 30.3653 20.4775 30.3683 20.0713C30.3744 18.0403 30.3713 16.0093 30.3713 13.9783C30.3713 13.4668 30.4706 13.3645 30.9791 13.3645C32.3151 13.3615 33.648 13.3615 34.9839 13.3645C35.5045 13.3645 35.6008 13.4638 35.6008 13.9663C35.6008 16.1898 35.5978 18.4134 35.6008 20.6369C35.6038 21.8194 36.1033 22.5837 37.1052 22.9658C37.7912 23.2246 38.5104 23.2637 39.2295 23.2517C39.7921 23.2426 40.3578 23.2186 40.8813 22.9628C41.7088 22.5566 42.0157 21.8345 42.0759 20.9739C42.115 20.3992 42.133 19.8215 42.136 19.2468C42.1421 16.4095 42.1391 13.5751 42.1391 10.7377C42.1391 10.1992 42.1842 10.154 42.7077 10.154C44.0677 10.154 45.4247 10.154 46.7848 10.154C47.3294 10.154 47.3685 10.1931 47.3685 10.7588C47.3685 13.9903 47.3685 17.2249 47.3685 20.4564C47.3685 21.8345 48.0635 22.6439 49.4055 23.02C50.1517 23.2276 50.8979 23.2607 51.6471 23.2637C63.147 23.2727 74.6439 23.2667 86.1439 23.2727C87.1428 23.2727 88.0094 22.9899 88.6472 22.1955C89.1618 21.5607 89.2912 20.7814 89.3303 19.9961C89.3694 19.1927 89.3122 18.3863 89.3483 17.5829C89.4326 15.8408 89.8388 14.1889 90.8588 12.7386C91.7193 11.514 92.8687 10.6655 94.2769 10.145C96.35 9.37774 98.4773 9.24534 100.653 9.48004C101.492 9.5703 102.323 9.69968 103.114 9.96447C105.476 10.7498 107.14 12.2753 107.97 14.6583C108.569 16.3734 108.599 18.1426 108.542 19.9269C108.512 20.8325 108.638 21.7021 109.309 22.3941C109.911 23.014 110.666 23.2637 111.509 23.2637C114.731 23.2667 117.957 23.2727 121.179 23.2577C121.664 23.2547 122.166 23.2637 122.611 22.9929C122.843 22.8515 123.03 22.686 123.132 22.4272C123.397 21.7532 123.43 21.0462 123.433 20.3361C123.439 18.2449 123.433 16.1537 123.436 14.0626C123.436 13.4427 123.517 13.3615 124.149 13.3615C125.449 13.3615 126.746 13.3615 128.045 13.3615C128.587 13.3615 128.68 13.4548 128.68 13.9843C128.68 16.1597 128.68 18.3352 128.68 20.5106C128.68 21.1605 128.771 21.7803 129.213 22.2979C129.709 22.8816 130.395 23.0952 131.112 23.1945C131.888 23.3058 132.676 23.2818 133.449 23.1885C134.572 23.0531 135.029 22.6318 135.174 21.6028C135.234 21.1605 135.255 20.7182 135.255 20.2729C135.252 18.1937 135.255 16.1146 135.255 14.0355C135.255 13.4487 135.342 13.3585 135.914 13.3585C137.226 13.3585 138.534 13.3585 139.846 13.3585C140.409 13.3585 140.502 13.4518 140.502 14.0024C140.502 16.1898 140.499 18.3773 140.502 20.5647C140.505 21.9007 141.029 22.5837 142.271 23.026C142.976 23.2757 143.686 23.2577 144.405 23.2246C144.832 23.2065 145.259 23.2065 145.687 23.0771C146.403 22.8605 146.734 22.364 146.869 21.687C147.007 20.989 147.022 20.2789 147.022 19.5688C147.025 16.6472 147.022 13.7286 147.022 10.807C147.022 10.1841 147.062 10.145 147.663 10.145C149.035 10.145 150.404 10.145 151.776 10.145C152.177 10.145 152.267 10.2323 152.267 10.6294C152.27 14.5711 152.276 18.5127 152.261 22.4543C152.258 23.4683 152.104 24.4642 151.611 25.3759C151.184 26.1612 150.519 26.6427 149.697 26.9526C148.611 27.3588 147.474 27.44 146.333 27.443C145.265 27.446 144.197 27.5122 143.132 27.3227C141.814 27.091 140.719 26.5313 139.979 25.3789C139.958 25.3549 139.928 25.3308 139.885 25.2827ZM99.0008 23.5345C99.4581 23.4864 99.9817 23.5044 100.505 23.366C101.495 23.1072 102.308 22.5957 102.72 21.66C103.556 19.7614 103.547 17.8056 102.861 15.8679C102.479 14.7877 101.661 14.1017 100.571 13.7707C99.7951 13.533 98.9948 13.53 98.1824 13.6022C96.4432 13.7556 95.3239 14.7606 94.8726 16.2741C94.4454 17.7123 94.4574 19.1686 94.7703 20.6219C95.002 21.6961 95.5316 22.5626 96.5606 23.0802C97.3158 23.4563 98.1162 23.5195 99.0008 23.5345Z" fill="#25336C"/>
<path d="M197.168 57.2094C195.667 57.1943 194.163 57.3267 192.664 57.1642C192.144 57.1071 191.62 57.0198 191.124 56.8272C190.338 56.5203 189.845 55.9246 189.52 55.1754C189.005 53.9929 188.816 52.7321 188.656 51.4684C188.419 49.5849 188.232 47.6983 188.003 45.8147C187.85 44.542 187.417 43.4227 186.388 42.5531C185.172 41.5241 184.498 40.134 183.974 38.6566C183.677 37.8202 183.303 37.0168 182.753 36.3037C182.5 35.9757 182.205 35.6929 181.874 35.4672C180.346 34.4322 179.657 32.9217 179.329 31.1736C179.055 29.7112 178.926 28.2249 178.543 26.7806C178.2 25.4868 177.557 24.4216 176.428 23.6393C175.474 22.9774 174.984 21.9664 174.653 20.8802C174.244 19.5352 173.813 18.2023 172.977 17.0439C172.637 16.5745 172.207 16.1984 171.755 15.8403C170.769 15.055 169.929 14.1463 169.433 12.9668C168.816 11.5015 169.029 10.1174 169.944 8.84468C170.907 7.50272 172.24 6.69033 173.838 6.36236C174.797 6.16678 175.781 6.18183 176.672 6.69033C177.788 7.33122 178.246 8.38131 178.399 9.59991C178.507 10.4424 178.483 11.2879 178.306 12.1093C178.047 13.2978 178.188 14.4532 178.483 15.5996C179.046 17.769 179.906 19.8211 181.035 21.7588C181.191 22.0266 181.384 22.2733 181.576 22.517C181.625 22.5772 181.694 22.7006 181.808 22.6404C181.892 22.5952 181.871 22.4899 181.865 22.4087C181.844 21.9965 181.721 21.6053 181.579 21.2232C181.327 20.5372 181.098 19.8391 180.8 19.1711C180.084 17.5734 180.063 15.9035 180.289 14.2215C180.547 12.2868 181.318 10.5838 182.81 9.27194C184.14 8.1045 185.665 7.58095 187.462 7.7314C190.137 7.95405 190.934 10.8005 189.95 12.672C189.354 13.8063 188.385 14.4743 187.218 14.9046C186.959 15.0008 186.698 15.0821 186.451 15.1994C186.027 15.404 185.702 15.7139 185.575 16.1863C185.088 17.9856 184.955 19.803 185.331 21.6414C185.413 22.0416 185.542 22.4267 185.735 22.7938C185.939 23.182 186.27 23.3445 186.682 23.3204C187.751 23.2602 188.491 22.7547 188.596 21.5843C188.671 20.7598 188.674 19.9264 188.852 19.114C188.903 18.8793 188.948 18.6386 189.041 18.4219C189.499 17.3568 190.131 17.1763 191.133 17.4711C192.688 17.9285 193.75 18.9726 194.217 20.5462C194.497 21.494 194.325 22.4267 193.991 23.3354C193.534 24.5841 192.796 25.6793 192.047 26.7625C191.211 27.9721 190.266 29.1125 189.625 30.4484C189.351 31.0201 189.18 31.6068 189.354 32.2567C189.433 32.5426 189.58 32.6208 189.842 32.5967C190.082 32.5757 190.311 32.5155 190.54 32.4373C191.223 32.2026 191.677 32.4102 191.96 33.0691C192.195 33.6138 192.411 33.6468 192.806 33.2076C193.23 32.7352 193.519 32.1845 193.744 31.6008C194.105 30.6681 194.614 29.8376 195.369 29.1787C197.192 27.593 199.305 28.1827 200.454 30.0783C201.829 32.347 201.453 34.5886 200.024 36.7039C199.025 38.1812 197.647 39.1892 195.998 39.8572C195.261 40.155 194.551 40.5281 193.952 41.0788C192.905 42.0416 192.55 43.2271 192.83 44.6022C192.977 45.3213 193.461 45.5259 194.12 45.2009C194.653 44.9361 194.99 44.4638 195.402 44.0666C195.808 43.6754 196.266 43.3625 196.801 43.1639C197.689 42.8329 198.471 43.4046 198.841 44.0696C199.437 45.1408 199.542 46.3022 199.431 47.4937C199.275 49.1757 198.625 50.638 197.415 51.8355C197.262 51.9859 197.126 52.1544 196.988 52.3199C196.913 52.4102 196.804 52.5155 196.877 52.6389C196.955 52.7713 197.09 52.681 197.204 52.669C197.752 52.6058 198.27 52.3651 198.832 52.4072C199.591 52.4644 200.201 52.7562 200.52 53.4844C200.794 54.1132 200.939 54.7601 200.725 55.4462C200.629 55.7561 200.683 56.0329 200.908 56.2796C201.08 56.4632 201.236 56.6617 201.39 56.8573C201.462 56.9506 201.564 57.0619 201.498 57.1793C201.438 57.2846 201.3 57.2274 201.197 57.2274C199.97 57.2214 198.745 57.2124 197.517 57.2033C197.409 57.2094 197.289 57.2094 197.168 57.2094Z" fill="#EE3E52"/>
<path d="M225.217 42.0266C224.886 41.1541 224.561 40.3988 224.338 39.6045C224.254 39.3036 224.179 38.9997 224.134 38.6928C224.041 38.07 224.32 37.7661 224.952 37.7721C225.034 37.7721 225.115 37.7721 225.238 37.7721C224.916 37.1763 224.591 36.6227 224.36 36.0209C224.161 35.5034 223.992 34.9799 223.941 34.4232C223.869 33.5988 224.218 33.1414 225.034 33.003C225.259 32.9639 225.202 32.8676 225.139 32.7382C224.793 32.0492 224.51 31.3391 224.332 30.5899C224.23 30.1566 224.161 29.7173 224.188 29.269C224.218 28.7816 224.387 28.3814 224.904 28.2279C225.1 28.1708 225.04 28.0594 224.985 27.927C224.648 27.1177 224.32 26.3053 224.191 25.4327C224.053 24.512 224.393 23.8079 225.154 23.4348C224.351 22.7337 223.818 21.9033 223.908 20.787C223.914 20.7238 223.92 20.6576 223.86 20.6275C223.752 20.5764 223.689 20.6576 223.613 20.7208C223.018 21.2383 222.479 21.813 221.98 22.4238C219.927 24.9332 218.447 27.7646 217.253 30.7584C217.072 31.2127 216.807 31.4023 216.428 31.3511C216.037 31.297 215.823 31.0593 215.775 30.5718C215.607 28.923 215.832 27.3132 216.278 25.7276C216.97 23.2543 218.167 21.0277 219.599 18.9125C219.66 18.8222 219.813 18.7289 219.717 18.6116C219.636 18.5153 219.488 18.5785 219.377 18.6206C218.173 19.0719 216.958 19.4962 215.772 19.9926C214.4 20.5643 213.019 21.124 211.695 21.804C211.382 21.9635 211.078 22.0116 210.793 21.7769C210.489 21.5272 210.44 21.1842 210.543 20.8291C210.714 20.2424 210.925 19.6677 211.181 19.111C212.059 17.1914 213.338 15.6238 215.219 14.6128C216.031 14.1765 216.907 13.8906 217.824 13.7522C217.909 13.7402 217.99 13.7221 218.071 13.7011C218.143 13.683 218.209 13.6469 218.206 13.5627C218.206 13.4874 218.134 13.4754 218.08 13.4544C217.559 13.2467 217.045 13.0271 216.521 12.8315C215.384 12.4073 214.244 11.986 213.097 11.5798C212.592 11.3993 212.08 11.2368 211.56 11.1014C211.172 10.9991 210.97 10.7554 210.895 10.3883C210.823 10.0333 210.988 9.70228 211.313 9.50972C212.802 8.6221 214.448 8.31519 216.148 8.2159C217.304 8.14669 218.453 8.26705 219.602 8.36935C219.693 8.37838 219.804 8.42953 219.861 8.31519C219.906 8.22793 219.822 8.15873 219.78 8.08953C219.07 6.95217 218.336 5.83287 217.394 4.87003C217.12 4.5902 217.036 4.25923 217.162 3.8771C217.28 3.51302 217.559 3.38665 217.902 3.35656C220.06 3.15798 221.883 3.79887 223.282 5.5049C223.391 5.63729 223.469 5.89305 223.649 5.85694C223.839 5.81782 223.794 5.55605 223.833 5.38755C224.215 3.84099 224.582 2.28841 225.307 0.850169C225.563 0.341669 225.963 0.0287462 226.511 0.0197196C227.077 0.010693 227.492 0.326625 227.751 0.850169C228.476 2.30045 228.858 3.86205 229.228 5.42667C229.264 5.58313 229.222 5.82685 229.399 5.86597C229.574 5.90508 229.643 5.66738 229.745 5.54402C231.09 3.87108 232.866 3.21515 234.966 3.33249C235.351 3.35355 235.742 3.41674 235.89 3.87108C236.034 4.31038 235.887 4.65038 235.574 4.97233C234.662 5.91411 233.952 7.00633 233.266 8.1136C233.227 8.17979 233.139 8.252 233.209 8.33926C233.269 8.41147 233.362 8.37838 233.446 8.37236C234.536 8.28209 235.625 8.17077 236.72 8.20988C238.242 8.26404 239.714 8.54988 241.113 9.15768C241.363 9.266 241.6 9.40741 241.826 9.56387C242.121 9.76547 242.226 10.0664 242.157 10.4154C242.088 10.7554 241.898 10.9991 241.546 11.0924C240.508 11.3662 239.506 11.7543 238.498 12.1154C237.4 12.5096 236.314 12.9308 235.222 13.34C235.201 13.349 235.17 13.349 235.155 13.3641C235.065 13.4513 234.848 13.4213 234.864 13.5807C234.879 13.7312 235.065 13.7282 235.191 13.7462C236.052 13.8666 236.864 14.1404 237.638 14.5195C239.398 15.38 240.647 16.7551 241.561 18.4581C241.937 19.1592 242.232 19.8903 242.467 20.6486C242.515 20.808 242.566 20.9765 242.566 21.139C242.575 21.7679 241.989 22.1109 241.411 21.825C240.174 21.2142 238.904 20.6757 237.626 20.1521C236.335 19.6225 235.035 19.1291 233.729 18.6417C233.606 18.5965 233.449 18.5093 233.359 18.6116C233.248 18.7379 233.419 18.8432 233.485 18.9425C234.936 21.0909 236.139 23.3566 236.825 25.872C237.241 27.3915 237.427 28.932 237.298 30.5057C237.241 31.1826 236.801 31.5106 236.245 31.291C236.04 31.2097 235.926 31.0593 235.847 30.8607C234.999 28.7184 234.003 26.6483 232.745 24.7136C231.819 23.2874 230.783 21.9484 229.529 20.79C229.445 20.7118 229.354 20.5493 229.198 20.6365C229.083 20.6997 229.156 20.8351 229.159 20.9344C229.195 21.9935 228.665 22.7728 227.91 23.4408C228.614 23.7929 228.969 24.4548 228.891 25.2311C228.795 26.1759 228.446 27.0454 228.082 27.906C228 28.0986 227.991 28.1828 228.223 28.261C228.677 28.4115 228.843 28.7906 228.867 29.2389C228.915 30.1867 228.638 31.0653 228.292 31.9289C228.181 32.2057 228.057 32.4795 227.919 32.7443C227.829 32.9188 227.832 32.988 228.051 33.012C228.789 33.0933 229.21 33.659 229.123 34.4232C229.035 35.1814 228.783 35.8915 228.455 36.5776C228.265 36.9747 228.063 37.3629 227.793 37.7781C228.003 37.7781 228.154 37.7721 228.301 37.7781C228.68 37.7992 228.939 38.073 228.933 38.4641C228.921 39.1471 228.671 39.776 228.455 40.4109C228.28 40.9164 228.075 41.4158 227.868 41.9635C228.082 41.8882 228.25 41.816 228.428 41.7739C228.683 41.7137 228.861 41.819 228.888 42.0868C229.011 43.2964 228.355 44.9422 227.42 45.4989C226.697 45.9292 225.711 45.7727 225.172 45.1168C224.51 44.3104 224.167 43.3836 224.161 42.3366C224.158 41.795 224.414 41.6204 224.91 41.8461C224.976 41.8792 225.046 41.9273 225.217 42.0266Z" fill="#25336C"/>
<path d="M178.658 57.2375C175.917 57.2375 173.173 57.2375 170.432 57.2375C169.977 57.2375 169.649 57.0178 169.649 56.5785C169.646 55.5314 169.117 54.7371 168.518 53.9578C167.576 52.7332 166.571 51.5597 165.551 50.3983C164.624 49.3482 163.836 48.2048 163.511 46.8117C163.258 45.7315 163.511 44.7988 164.342 44.0315C165.067 43.3605 166.039 43.3876 166.875 44.0887C168.136 45.1418 168.942 46.5259 169.752 47.9129C170.185 48.6531 170.498 49.4715 171.166 50.0643C171.587 50.4374 171.858 50.4073 172.044 49.8747C172.351 48.9992 172.414 48.0845 172.315 47.1698C172.126 45.4216 171.497 43.848 170.287 42.5391C169.457 41.6425 168.482 41.0587 167.197 41.152C166.658 41.1911 166.132 41.152 165.629 40.8812C164.48 40.2614 164.579 38.9676 165.136 38.2214C166.111 36.9155 167.66 36.7891 168.885 37.8753C169.899 38.772 170.666 39.8732 171.527 40.8993C171.918 41.3656 172.291 41.8531 172.851 42.1419C173.495 42.4729 174.187 42.0366 174.166 41.3145C174.151 40.815 173.919 40.3908 173.672 39.9785C173.17 39.1421 172.55 38.3899 171.867 37.7038C171.003 36.8373 170.498 35.8203 170.317 34.6137C170.182 33.705 169.938 32.8264 169.225 32.1645C168.247 31.2588 167.101 30.9639 165.807 31.2317C165.389 31.319 164.965 31.4243 164.567 31.5808C163.638 31.9479 162.924 31.5477 162.29 30.9459C160.487 29.2429 159.979 26.9381 160.869 24.6182C161.02 24.2241 161.218 23.854 161.489 23.529C162.347 22.491 163.258 22.4609 164.351 23.0987C165.142 23.5591 165.954 23.7156 166.815 23.3455C167.429 23.0837 167.576 22.4127 167.176 21.8862C166.622 21.158 165.834 20.8361 164.995 20.6104C164.041 20.3547 163.045 20.3607 162.085 20.1621C159.254 19.5814 157.773 17.5594 158.625 14.5987C158.847 13.8254 159.533 13.4944 160.201 13.1815C161.273 12.679 162.392 12.6248 163.493 12.9799C164.817 13.4072 165.924 14.1594 166.547 15.4712C167.245 16.9396 167.745 18.4831 168.187 20.0387C168.56 21.3446 169.18 22.4398 170.317 23.2131C171.009 23.6825 171.253 24.3655 171.241 25.1689C171.235 25.6382 171.232 26.1046 171.232 26.574C171.232 27.8859 171.596 28.3402 172.884 28.596C173.332 28.6832 173.642 28.9209 173.862 29.3061C174.927 31.1776 175.288 33.2086 175.24 35.3358C175.219 36.2836 175.134 37.2314 175.279 38.1762C175.402 38.9736 175.733 39.6686 176.314 40.2253C176.856 40.7488 177.454 41.1911 178.176 41.4649C178.622 41.6334 178.884 42.0246 179.061 42.4609C179.374 43.2221 179.437 44.0255 179.38 44.8319C179.254 46.6011 179.873 47.7414 181.471 48.5719C181.871 48.7795 182.287 48.963 182.696 49.1586C183.866 49.7153 184.754 50.6209 185.602 51.5657C186.601 52.682 187.335 53.9488 187.603 55.4472C187.66 55.7661 187.688 56.0911 187.694 56.413C187.706 56.9456 187.408 57.2314 186.878 57.2314C184.143 57.2375 181.399 57.2375 178.658 57.2375Z" fill="#FAAC38"/>
<path d="M247.543 53.8187C246.818 53.1809 246.18 52.5881 245.626 51.9141C244.958 51.1077 244.372 50.2502 244.08 49.2242C243.707 47.9153 244.074 46.8291 245.088 45.9596C245.921 45.2435 246.899 44.7741 247.991 44.6688C249.147 44.5574 250.131 45.0178 250.886 45.8873C252.065 47.2444 252.514 48.8451 252.222 50.6053C251.975 52.0856 252.58 53.1327 253.696 53.9903C254.175 54.3573 254.752 54.5288 255.288 54.7876C255.847 55.0584 256.395 55.3503 256.786 55.8618C257.006 56.1476 257.078 56.4485 256.913 56.7674C256.756 57.0713 256.509 57.2368 256.136 57.2368C250.955 57.2308 245.771 57.2699 240.589 57.2067C239.338 57.1917 238.164 56.6682 237.25 55.7444C236.678 55.1637 236.446 54.4295 236.57 53.6262C236.774 52.2782 237.379 51.1288 238.435 50.2472C239.151 49.6484 239.97 49.6394 240.8 49.9644C242.01 50.4338 242.981 51.2702 243.989 52.0525C244.751 52.6423 245.497 53.2681 246.406 53.6292C246.731 53.7586 247.074 53.8699 247.543 53.8187Z" fill="#1FC1E3"/>
<path d="M240.945 32.9828C240.954 32.4291 241.014 31.8815 241.11 31.3369C241.336 30.0732 241.146 28.8576 240.692 27.6661C240.337 26.7363 239.94 25.8246 239.434 24.9671C239.308 24.7535 239.245 24.5459 239.401 24.3322C239.558 24.1186 239.795 24.0675 240.042 24.0945C241.772 24.2841 243.463 24.6542 245.052 25.3793C247.36 26.4354 249.18 28.0301 250.32 30.3319C250.733 31.1654 250.805 32.0801 250.931 32.9828C251.163 34.6346 251.397 36.2865 252.002 37.8541C252.074 38.0437 252.168 38.2272 252.264 38.4048C252.357 38.5732 252.417 38.7327 252.294 38.9072C252.162 39.0938 251.966 39.1028 251.774 39.0487C250.958 38.82 250.245 38.4017 249.583 37.8782C248.539 37.0538 248.115 35.8322 247.519 34.7189C247.107 33.9486 246.716 33.1663 246.183 32.4652C245.985 32.2035 245.762 31.9778 245.461 31.8394C245.323 31.7762 245.172 31.7491 245.055 31.8544C244.937 31.9597 245.052 32.0771 245.085 32.1824C245.323 32.9045 245.515 33.6297 245.461 34.3999C245.371 35.6607 244.691 36.0759 243.638 36.1661C242.097 36.3015 241.125 35.4139 240.975 33.7741C240.957 33.5123 240.957 33.2475 240.945 32.9828Z" fill="#20C1E3"/>
<path d="M230.835 53.4543C231.358 53.8394 231.756 54.2877 232.303 54.5495C232.764 54.7691 233.046 54.6819 233.275 54.2336C233.338 54.1072 233.401 53.9748 233.45 53.8394C233.651 53.2767 234.187 53.2497 234.62 53.5536C235.637 54.2607 235.706 55.2596 234.828 56.1261C234.352 56.5955 233.802 56.9385 233.182 57.1672C232.631 57.3688 232.12 57.1853 231.62 56.9626C230.937 56.6587 230.374 56.1773 229.806 55.7079C229.725 55.6417 229.646 55.5725 229.541 55.4853C229.427 56.078 229.192 56.5564 228.62 56.7339C227.775 56.9987 227.008 56.4511 226.896 55.5605C226.818 54.9376 227.113 54.4653 227.489 54.038C227.7 53.8003 227.621 53.698 227.429 53.5144C225.034 51.2427 222.639 48.971 220.165 46.7866C218.559 45.3694 216.922 43.9883 215.122 42.8149C213.471 41.7377 211.71 40.8892 209.86 40.2032C208.62 39.7428 207.375 39.3005 206.12 38.8853C205.93 38.8221 205.717 38.7409 205.744 38.4761C205.771 38.2143 205.985 38.1812 206.183 38.1331C207.63 37.7871 209.06 37.9375 210.492 38.2625C212.065 38.6205 213.513 39.2855 214.9 40.0768C216.236 40.8381 217.436 41.7979 218.628 42.7667C221.279 44.9241 223.863 47.1627 226.436 49.4103C227.287 50.1535 228.097 50.9479 228.915 51.7332C229.096 51.9077 229.165 51.8656 229.288 51.682C229.481 51.3962 229.688 51.1134 229.926 50.8606C230.263 50.5056 230.72 50.4454 231.16 50.5597C231.662 50.6891 231.951 51.0863 232.077 51.5737C232.303 52.4403 231.786 53.2497 230.835 53.4543Z" fill="#26346D"/>
<path d="M204.522 13.2656C206.186 13.3198 207.73 13.4853 209.228 13.9607C209.544 14.06 209.688 14.2525 209.706 14.5504C209.728 14.8513 209.589 15.074 209.306 15.2064C208.584 15.5433 207.874 15.9014 207.206 16.3437C205.96 17.1681 205.205 18.3025 204.895 19.7498C204.799 20.1951 204.7 20.6434 204.54 21.0676C203.972 22.5961 202.744 23.3544 201.255 23.7816C200.171 24.0946 199.172 23.8809 198.336 23.1468C197.493 22.4036 197.069 21.4137 196.946 20.3064C196.75 18.5402 197.391 17.0327 198.474 15.6938C199.509 14.412 200.903 13.7501 202.506 13.4492C203.216 13.3168 203.92 13.3348 204.522 13.2656Z" fill="#EE3F53"/>
<path d="M207.69 33.4967C207.69 32.8648 207.844 32.26 208.07 31.6733C208.157 31.4446 208.079 31.4085 207.877 31.4085C207.639 31.4085 207.474 31.5319 207.32 31.6913C206.701 32.3413 206.324 33.1507 205.894 33.9239C205.473 34.6852 205.181 35.5216 204.624 36.2107C203.926 37.0772 203.015 37.6128 201.971 37.9498C201.814 38.001 201.691 37.9679 201.582 37.8445C201.486 37.7362 201.438 37.6068 201.504 37.4804C202.395 35.7293 202.593 33.8096 202.828 31.911C203 30.5209 203.571 29.3474 204.465 28.3034C205.497 27.0968 206.74 26.1911 208.202 25.5502C209.532 24.9665 210.934 24.7017 212.345 24.443C212.451 24.4249 212.562 24.4279 212.67 24.4279C213.17 24.4339 213.386 24.792 213.14 25.2193C212.613 26.137 212.192 27.1028 211.855 28.1048C211.53 29.0706 211.461 30.0485 211.641 31.0505C211.792 31.8929 211.852 32.7445 211.674 33.5899C211.373 35.0071 210.48 35.4494 209.168 35.29C208.109 35.1666 207.684 34.6069 207.69 33.4967Z" fill="#EE3F53"/>
<path d="M211.515 53.5746C211.77 54.2877 212.312 54.8173 212.724 55.4281C212.793 55.5304 212.968 55.6147 212.893 55.7531C212.82 55.8855 212.649 55.8102 212.529 55.7982C210.588 55.6357 208.837 54.9948 207.302 53.7732C206.737 53.3219 206.189 52.8675 205.843 52.2176C205.572 51.7121 205.458 51.1826 205.62 50.6229C205.668 50.4514 205.638 50.3461 205.503 50.2167C205.286 50.0091 205.139 49.7473 205.091 49.4344C205.061 49.2539 205.067 49.0463 204.859 48.9349C204.814 48.9109 204.796 48.8116 204.787 48.7424C204.721 48.1226 204.871 47.5509 205.205 47.0303C205.38 46.7565 205.644 46.8227 205.885 46.8979C207.17 47.3102 207.82 48.2489 207.778 49.6059C207.775 49.6872 207.778 49.7654 207.778 49.9008C207.94 49.6781 207.934 49.4705 207.931 49.275C207.928 49.0764 207.898 48.8808 207.874 48.6341C208.163 48.8146 208.307 49.0403 208.313 49.3261C208.328 49.9249 208.632 50.3461 209.117 50.647C209.339 50.7854 209.378 50.9058 209.249 51.1344C209.059 51.4684 209.005 51.8325 209.108 52.2898C209.207 51.9859 209.267 51.7392 209.369 51.5075C209.803 50.5417 210.591 49.973 211.542 49.5969C213.359 48.8778 215.255 48.8296 217.171 48.9259C217.508 48.944 217.845 48.941 218.179 48.947C218.273 48.95 218.384 48.9319 218.414 49.0553C218.444 49.1817 218.336 49.2057 218.255 49.2569C217.159 49.9369 215.959 50.3491 214.722 50.6831C213.798 50.9328 212.839 50.8787 211.906 51.0321C211.605 51.0803 211.349 51.2006 211.163 51.4744C211.37 51.4052 211.575 51.327 211.785 51.2698C212.45 51.0833 212.64 51.1826 212.953 51.7904C213.311 52.4884 213.567 53.2226 213.774 53.9748C213.916 54.4863 214.102 54.9768 214.49 55.3649C214.59 55.4642 214.647 55.5846 214.578 55.723C214.502 55.8734 214.355 55.8493 214.229 55.8373C213.591 55.7651 213.163 55.3348 212.73 54.9256C212.285 54.5044 211.96 53.9838 211.575 53.5115C211.548 53.5054 211.521 53.5024 211.494 53.4964C211.494 53.5205 211.506 53.5476 211.515 53.5746ZM211.033 51.4684C211.009 51.4985 210.97 51.5286 210.961 51.5677C210.955 51.5978 210.994 51.6279 211.033 51.6038C211.06 51.5888 211.09 51.5647 211.105 51.5346C211.129 51.4835 211.081 51.4865 211.033 51.4684Z" fill="#EE4054"/>
<path d="M25.2382 47.7808C24.8079 48.3254 23.7067 48.3284 23.2884 47.8109C22.7769 48.3224 21.7419 48.3194 21.2875 47.7868C21.107 48.1208 20.8091 48.172 20.4661 48.1659C19.7079 48.1539 18.9496 48.1629 18.1944 48.1629C17.9537 48.1629 17.716 48.1629 17.4963 48.0305C17.391 47.9674 17.2677 47.9523 17.1533 48.0155C16.8073 48.2051 16.4282 48.169 16.0611 48.169C13.2478 48.172 10.4315 48.1629 7.61819 48.1629C7.35642 48.1629 7.10969 48.1359 6.95624 47.8921C6.88703 47.7808 6.85093 47.7928 6.78473 47.8921C6.63429 48.1118 6.41163 48.1629 6.15889 48.1629C4.78684 48.1599 3.4178 48.1629 2.04575 48.1599C1.62752 48.1599 1.38079 47.9884 1.30557 47.5762C1.17619 46.8511 1.27247 46.1139 1.2484 45.3827C1.24539 45.2744 1.31159 45.2353 1.40787 45.2323C1.45601 45.2293 1.50416 45.2293 1.5523 45.2293C2.27142 45.2353 2.12699 45.1781 2.13602 45.7889C2.14204 46.162 2.14204 46.5351 2.13602 46.9052C2.13301 47.2031 2.27744 47.3505 2.57231 47.3505C3.59532 47.3505 4.61834 47.3505 5.63835 47.3505C5.93924 47.3505 6.07464 47.1971 6.07765 46.9052C6.08366 46.3034 6.11676 45.7017 6.08968 45.1029C6.07163 44.7388 6.198 44.6756 6.53199 44.6726C6.89305 44.6696 7.01942 44.7539 6.99234 45.13C6.95624 45.6084 6.98332 46.0898 6.98332 46.5712C6.98332 47.182 7.13376 47.3445 7.74757 47.3445C9.43254 47.3505 11.1145 47.3475 12.7995 47.3475C13.9067 47.3475 15.011 47.3505 16.1183 47.3355C16.723 47.3265 16.7802 47.2061 16.4643 46.6976C16.2988 46.4298 16.0882 46.2132 15.8294 46.0266C15.3931 45.7137 15.4894 45.0518 15.9708 44.8201C16.6659 44.4861 17.4031 44.447 18.1131 44.6365C18.8774 44.8411 19.2595 45.5211 18.9195 46.4449C18.7962 46.7789 18.5434 47.0196 18.2485 47.3475C18.6999 47.3475 19.088 47.3475 19.4732 47.3475C20.5052 47.3445 20.5172 47.4679 20.5082 46.3034C20.5082 46.147 20.5082 45.9905 20.5082 45.8341C20.5082 45.3316 20.5082 45.3496 21.0107 45.3256C21.3206 45.3105 21.444 45.3888 21.4199 45.7197C21.3898 46.0898 21.4049 46.4659 21.4169 46.836C21.4289 47.1851 21.5914 47.3265 21.9435 47.3355C22.3075 47.3445 22.4429 47.2332 22.464 46.8571C22.485 46.4509 22.4911 46.0417 22.482 45.6325C22.476 45.4008 22.5422 45.3195 22.7859 45.3256C23.499 45.3466 23.3636 45.2594 23.3757 45.9213C23.3817 46.2102 23.3697 46.499 23.3787 46.7879C23.3877 47.164 23.5682 47.3325 23.9413 47.3355C24.2753 47.3355 24.4258 47.2031 24.4378 46.818C24.4559 46.2192 24.4589 45.6174 24.4408 45.0157C24.4318 44.7388 24.5251 44.6456 24.7898 44.6817C24.8831 44.6937 24.9824 44.6937 25.0787 44.6817C25.2923 44.6576 25.3405 44.7539 25.3375 44.9525C25.3254 45.5302 25.3284 46.1049 25.3345 46.6826C25.3375 47.1158 25.4999 47.2904 25.9332 47.3355C26.0415 47.3475 26.1499 47.3475 26.2582 47.3445C26.7125 47.3385 26.8118 47.2512 26.8148 46.7969C26.8208 45.7167 26.8178 44.6335 26.8178 43.5533C26.8178 43.3487 26.8419 43.1411 26.8118 42.9425C26.7607 42.5845 26.9021 42.4912 27.2481 42.5153C27.7085 42.5454 27.7115 42.5243 27.7115 42.9877C27.7115 44.3086 27.7115 45.6325 27.7115 46.9534C27.7115 47.17 27.7145 47.3866 27.6513 47.5973C27.5339 47.9914 27.3323 48.1509 26.9261 48.1539C26.6012 48.1569 26.2762 48.1449 25.9513 48.1569C25.6504 48.175 25.4127 48.0817 25.2382 47.7808ZM16.5094 45.5873C16.8464 45.8822 17.1112 46.1981 17.2857 46.5893C17.3489 46.7277 17.3128 46.9865 17.5054 46.9835C17.6648 46.9804 17.7852 46.7849 17.8935 46.6404C18.0349 46.4539 18.1162 46.2463 18.1222 46.0116C18.1312 45.7137 17.9597 45.5001 17.71 45.4519C17.3308 45.3767 16.9246 45.3346 16.5094 45.5873Z" fill="#27356E"/>
<path d="M244.673 37.9297C245.19 37.9538 245.789 37.9718 246.37 38.1433C246.553 38.1975 246.749 38.2577 246.758 38.5044C246.767 38.7631 246.583 38.8143 246.385 38.8504C245.771 38.9617 245.157 39.046 244.552 39.2055C243.571 39.4672 242.605 39.7531 241.673 40.1623C240.776 40.5564 239.913 41.0048 239.088 41.5223C237.388 42.5844 235.817 43.8181 234.292 45.1119C232.592 46.5501 230.925 48.0305 229.306 49.559C228.909 49.9321 228.683 49.9171 228.334 49.4958C228.136 49.2581 227.913 49.0415 227.709 48.8068C227.432 48.4939 227.426 48.2471 227.736 47.9703C228.545 47.2512 229.363 46.5411 230.191 45.84C231.969 44.3296 233.741 42.8131 235.604 41.4079C237.006 40.3488 238.519 39.4853 240.156 38.8384C241.576 38.2727 243.054 37.9507 244.673 37.9297Z" fill="#26346D"/>
<path d="M135.429 47.7981C134.987 48.3247 133.263 48.3367 132.781 47.8162C132.351 48.3247 131.262 48.3217 130.829 47.7861C130.606 48.1983 130.221 48.1712 129.836 48.1622C129.469 48.1532 129.065 48.2374 128.873 47.741C128.674 48.096 128.397 48.1652 128.06 48.1652C124.657 48.1592 121.254 48.1592 117.851 48.1652C117.49 48.1652 117.207 48.0749 117.087 47.7139C117.012 47.4912 116.889 47.6357 116.816 47.6748C116.452 47.8854 116.055 47.8372 115.691 47.765C115.297 47.6868 114.996 47.422 114.833 47.0218C114.496 46.1794 114.737 45.1864 115.417 44.7411C115.766 44.5124 116.175 44.5576 116.57 44.5516C116.783 44.5485 117.06 44.6328 117.003 44.2416C116.991 44.1574 117.072 44.1363 117.15 44.1183C117.737 43.9919 117.878 44.1062 117.878 44.708C117.878 45.394 117.875 46.0771 117.878 46.7631C117.881 47.2686 117.969 47.3558 118.462 47.3558C121.48 47.3558 124.498 47.3588 127.519 47.3558C127.961 47.3558 128.051 47.2776 128.069 46.8383C128.088 46.4411 128.088 46.044 128.072 45.6498C128.063 45.4151 128.133 45.3309 128.373 45.3399C129.089 45.3609 128.951 45.2737 128.966 45.9326C128.972 46.2335 128.957 46.5344 128.969 46.8323C128.984 47.1873 129.159 47.3438 129.523 47.3438C129.887 47.3438 130.013 47.2325 130.031 46.8473C130.049 46.4381 130.052 46.0289 130.04 45.6227C130.034 45.3971 130.113 45.3339 130.332 45.3399C131.06 45.3579 130.919 45.2707 130.931 45.9236C130.937 46.2245 130.922 46.5254 130.934 46.8233C130.949 47.1723 131.136 47.3408 131.488 47.3468C131.834 47.3528 131.981 47.2204 131.99 46.8413C132.005 46.2395 132.008 45.6408 131.993 45.039C131.984 44.7742 132.053 44.6508 132.33 44.696C132.378 44.705 132.426 44.702 132.474 44.696C132.79 44.6448 132.92 44.7471 132.899 45.0962C132.866 45.6227 132.887 46.1523 132.893 46.6818C132.899 47.1392 133.058 47.3348 133.513 47.3468C134.659 47.3799 134.659 47.4702 134.653 46.3087C134.653 46.0921 134.668 45.8755 134.65 45.6618C134.626 45.397 134.737 45.3158 134.981 45.3489C135.053 45.3579 135.125 45.3609 135.198 45.3489C135.498 45.2978 135.565 45.4452 135.55 45.716C135.528 46.062 135.541 46.414 135.547 46.7601C135.556 47.1843 135.733 47.3588 136.139 47.3528C136.503 47.3468 136.609 47.2325 136.618 46.7932C136.627 46.408 136.63 46.0229 136.618 45.6408C136.609 45.4271 136.669 45.3399 136.901 45.3489C137.65 45.37 137.496 45.2647 137.511 45.9537C137.517 46.2425 137.502 46.5314 137.514 46.8172C137.532 47.1873 137.725 47.3588 138.095 47.3528C138.441 47.3498 138.561 47.2264 138.567 46.8202C138.579 46.2185 138.582 45.6197 138.567 45.0179C138.558 44.7592 138.649 44.6689 138.895 44.699C138.98 44.711 139.064 44.711 139.148 44.699C139.401 44.6629 139.479 44.7652 139.473 45.0179C139.458 45.725 139.473 46.4351 139.467 47.1452C139.458 47.9486 139.229 48.1742 138.438 48.1682C138.089 48.1652 137.704 48.2615 137.472 47.8673C137.415 47.7741 137.376 47.8372 137.316 47.8944C136.864 48.3337 135.853 48.2826 135.429 47.7981ZM116.488 45.4091C115.793 45.4121 115.538 45.6769 115.586 46.3298C115.619 46.745 115.847 46.9737 116.248 46.9857C116.627 46.9978 116.922 46.7661 116.97 46.384C117.003 46.1342 116.979 45.8815 116.997 45.6317C117.009 45.4572 116.946 45.391 116.774 45.4091C116.681 45.4181 116.585 45.4091 116.488 45.4091Z" fill="#27356E"/>
<path d="M81.4258 47.7705C81.2483 48.0594 81.0317 48.1737 80.7428 48.1647C80.4058 48.1526 80.0688 48.1556 79.7349 48.1647C79.443 48.1707 79.1902 48.1075 79.0037 47.8668C78.9104 47.7464 78.8412 47.7855 78.7419 47.8728C78.1823 48.3452 77.1231 48.3633 76.5846 47.8999C76.4672 47.7976 76.4311 47.7856 76.3077 47.9059C75.8895 48.3181 74.8394 48.282 74.4152 47.8517C74.3159 47.7494 74.2647 47.7675 74.1955 47.8608C74.033 48.0834 73.8044 48.1617 73.5396 48.1617C72.4203 48.1617 71.304 48.1707 70.1847 48.1617C69.625 48.1556 69.3843 47.924 69.3482 47.3553C69.3241 46.9732 69.3362 46.588 69.3362 46.2029C69.3362 45.0986 69.3452 43.9914 69.3302 42.8871C69.3272 42.6013 69.4054 42.4869 69.6912 42.5321C69.7604 42.5441 69.8357 42.5411 69.9079 42.5321C70.1606 42.4959 70.2328 42.5952 70.2328 42.848C70.2208 44.0967 70.2268 45.3484 70.2268 46.597C70.2268 47.3312 70.2539 47.3583 71.0061 47.3583C71.6079 47.3583 72.2097 47.3643 72.8114 47.3553C73.4674 47.3463 73.5817 47.2199 73.5667 46.5579C73.5636 46.4135 73.5576 46.2691 73.5275 46.1277C73.3861 45.4868 72.7362 45.1648 72.1104 45.5831C71.9238 45.7064 71.7613 45.9291 71.5146 45.6282C71.2318 45.2792 71.2348 45.2641 71.5718 44.9512C72.4052 44.1749 74.2346 44.4758 74.4392 45.9562C74.4723 46.2059 74.4934 46.4556 74.4994 46.7084C74.5084 47.1086 74.6679 47.2951 75.0741 47.3463C75.6578 47.4215 75.9076 47.2981 76.0219 46.8919C76.0971 46.6181 76.0339 46.3413 76.064 46.0675C76.1242 45.5199 76.2867 45.0264 76.8072 44.7496C77.5594 44.3464 78.8382 44.4938 79.1481 45.562C79.2504 45.914 79.2625 46.2691 79.2534 46.6332C79.2474 46.8919 79.2715 47.1567 79.5423 47.2801C79.8492 47.4185 80.1802 47.4124 80.4841 47.2801C80.6977 47.1868 80.6465 46.9491 80.6465 46.7655C80.6526 45.4928 80.6465 44.217 80.6526 42.9443C80.6526 42.8119 80.5743 42.6013 80.7368 42.5591C80.9745 42.4959 81.2423 42.4929 81.483 42.5682C81.5943 42.6013 81.5462 42.7607 81.5462 42.863C81.5492 44.1238 81.5462 45.3875 81.5492 46.6482C81.5492 47.1687 81.7057 47.3282 82.2352 47.3583C82.3195 47.3613 82.4037 47.3613 82.488 47.3613C82.9724 47.3553 83.0597 47.274 83.0627 46.7926C83.0657 45.4958 83.0807 44.196 83.0536 42.8991C83.0446 42.5321 83.2071 42.514 83.4779 42.5321C83.7156 42.5501 83.9714 42.4448 83.9623 42.8781C83.9353 44.2591 83.9533 45.6402 83.9503 47.0243C83.9503 47.2289 83.9503 47.4335 83.8871 47.6321C83.7788 47.9751 83.5682 48.1797 83.18 48.1677C82.831 48.1556 82.482 48.1556 82.1329 48.1677C81.829 48.1737 81.5943 48.0684 81.4258 47.7705ZM78.3899 46.4045C78.3748 46.2751 78.3748 46.1397 78.3478 46.0133C78.2605 45.6131 78.0318 45.4146 77.6708 45.4085C77.2766 45.4055 77.0509 45.5891 76.9637 46.0103C76.8975 46.3293 76.8975 46.6542 77.0148 46.9641C77.1232 47.259 77.3398 47.3703 77.6557 47.3673C77.9686 47.3673 78.1823 47.259 78.2966 46.9641C78.3628 46.7866 78.3869 46.6001 78.3899 46.4045Z" fill="#27356E"/>
<path d="M65.3767 47.3463C65.1841 46.7566 65.16 46.1969 65.3165 45.6403C65.5181 44.9181 66.0778 44.536 66.8871 44.5481C67.6604 44.5631 68.196 44.9422 68.3434 45.6764C68.4999 46.4497 68.5691 47.232 67.9102 47.8578C67.7206 48.0384 67.4919 48.1467 67.2362 48.1497C66.2854 48.1587 65.3376 48.1557 64.3868 48.1557C64.2784 48.1557 64.1491 48.1587 64.0829 48.0715C63.8241 47.7435 63.5804 47.7706 63.3066 48.0534C63.1832 48.1828 62.9937 48.1557 62.8252 48.1557C62.0549 48.1587 61.2846 48.1587 60.5174 48.1587C58.7 48.1587 56.8826 48.1527 55.0653 48.1647C54.6862 48.1677 54.3672 48.1106 54.2288 47.7104C54.1656 47.5268 54.0633 47.6352 53.9761 47.6653C52.6612 48.1467 51.8277 47.4095 51.8367 46.2661C51.8428 45.6373 51.9842 45.0746 52.5769 44.7286C52.9139 44.53 53.29 44.5571 53.6601 44.5481C53.8858 44.542 54.1957 44.6594 54.1566 44.2231C54.1476 44.1148 54.2679 44.1178 54.3492 44.1178C54.4815 44.1148 54.6139 44.1298 54.7463 44.1148C54.975 44.0877 55.0322 44.184 55.0292 44.4006C55.0171 45.1679 55.0231 45.9382 55.0262 46.7084C55.0262 47.2831 55.1014 47.3583 55.661 47.3583C56.684 47.3583 57.7041 47.3583 58.7271 47.3583C59.2837 47.3583 59.383 47.2831 59.389 46.7175C59.4041 45.4567 59.395 44.196 59.4011 42.9323C59.4011 42.8029 59.3138 42.5953 59.4943 42.5562C59.735 42.502 59.9998 42.493 60.2405 42.5682C60.3218 42.5953 60.2857 42.7427 60.2857 42.836C60.2887 43.4498 60.2887 44.0606 60.2857 44.6744C60.2827 44.9001 60.2586 45.0505 60.5835 44.8881C61.1823 44.5902 61.8262 44.4668 62.5002 44.5962C63.2976 44.7497 63.7669 45.2281 63.8722 46.0314C63.8993 46.2451 63.9114 46.4617 63.9114 46.6783C63.9084 47.1116 64.0588 47.3102 64.4861 47.3433C64.7659 47.3644 65.0547 47.3463 65.3767 47.3463ZM61.408 47.3553C61.408 47.3523 61.408 47.3493 61.408 47.3433C61.6848 47.3433 61.9616 47.3463 62.2384 47.3433C62.8131 47.3373 62.9576 47.1989 62.9816 46.6212C62.9876 46.5129 62.9816 46.4045 62.9696 46.2992C62.9034 45.6884 62.5935 45.4357 61.9767 45.4026C61.4381 45.3725 60.9717 45.5681 60.4933 45.7576C60.3218 45.8268 60.2766 45.9111 60.2797 46.0736C60.2827 46.4226 60.2947 46.7716 60.2706 47.1176C60.2556 47.3222 60.3278 47.3644 60.5083 47.3583C60.8062 47.3493 61.1071 47.3553 61.408 47.3553ZM67.5521 46.3113C67.5491 46.2812 67.5521 46.1578 67.531 46.0435C67.4588 45.6493 67.2181 45.4206 66.8811 45.4116C66.4749 45.4026 66.2222 45.6012 66.1379 46.0194C66.0838 46.2902 66.0838 46.567 66.162 46.8348C66.2132 47.0063 66.2824 47.1567 66.4659 47.25C67.0677 47.5569 67.5491 47.1838 67.5521 46.3113ZM54.1385 45.9261C54.1385 45.4026 54.1385 45.4026 53.606 45.4056C53.5217 45.4056 53.4375 45.4116 53.3532 45.4086C53.0583 45.3996 52.8658 45.5711 52.7875 45.8208C52.6822 46.1428 52.6371 46.4978 52.9019 46.7716C53.1035 46.9792 53.3713 47.0454 53.6601 46.9401C54.1536 46.7596 54.1355 46.3383 54.1385 45.9261Z" fill="#27356E"/>
<path d="M223.126 55.4794C222.527 55.9729 221.992 56.4664 221.345 56.8064C220.954 57.011 220.562 57.2216 220.105 57.2396C219.29 57.2697 218.679 56.8184 218.086 56.355C217.797 56.1294 217.545 55.8555 217.376 55.5125C216.979 54.7122 217.536 53.5778 218.414 53.3913C218.778 53.313 219.022 53.4394 219.178 53.7584C219.269 53.9419 219.332 54.1375 219.431 54.312C219.633 54.6731 219.937 54.7603 220.313 54.5768C220.884 54.3 221.348 53.8757 221.877 53.4605C221.27 53.3492 220.833 53.0633 220.644 52.5127C220.457 51.9741 220.502 51.4566 220.884 50.9872C221.342 50.4245 222.157 50.3102 222.642 50.8398C223.728 52.0283 224.82 53.2138 225.828 54.4715C226.207 54.9439 226.09 55.7051 225.419 56.3971C224.964 56.8665 224.257 56.9387 223.746 56.5807C223.373 56.331 223.21 55.9518 223.126 55.4794Z" fill="#26346D"/>
<path d="M32.8415 56.6932C32.7994 57.1085 32.7994 57.5147 32.6309 57.8968C32.4293 58.3541 31.6079 58.7182 31.1656 58.5347C30.9971 58.4624 31.0693 58.309 31.0573 58.1886C31.0332 57.8908 31.0031 57.6109 31.4755 57.6621C31.7463 57.6922 31.8516 57.4334 31.8847 57.1987C31.9178 56.937 31.9268 56.6722 31.9268 56.4074C31.9329 55.5168 31.9419 54.6291 31.9208 53.7385C31.9148 53.4587 32.0021 53.3985 32.2668 53.4045C32.8265 53.4226 32.8265 53.4075 32.8265 53.9822C32.8265 54.4757 32.8295 54.9691 32.8265 55.4596C32.8235 55.7605 32.9619 55.935 33.2628 55.9711C33.4162 55.9892 33.5727 56.0102 33.7292 56.0102C36.7471 56.0132 39.768 56.0132 42.7859 56.0102C43.6795 56.0102 43.8179 55.8477 43.6885 54.9631C43.5652 54.1237 42.828 53.7957 42.1691 54.3313C41.8291 54.6081 41.7237 54.3523 41.5522 54.1838C41.3296 53.9642 41.477 53.8198 41.6606 53.6663C42.1901 53.224 42.7738 53.0766 43.4358 53.2962C44.1549 53.5339 44.516 54.0514 44.6062 54.7796C44.6333 55.0053 44.6363 55.2339 44.6424 55.4626C44.6514 55.7334 44.7597 55.923 45.0516 55.9621C45.0636 55.9651 45.0756 55.9681 45.0877 55.9711C46.0114 56.1727 46.207 56.0192 46.207 55.0955C46.207 54.6261 46.216 54.1567 46.2009 53.6904C46.1949 53.4737 46.2551 53.4015 46.4808 53.4015C47.1096 53.4015 47.1096 53.3895 47.1096 54.0213C47.1096 54.4907 47.1187 54.9601 47.1066 55.4265C47.1006 55.7665 47.2601 55.938 47.585 55.9801C47.6332 55.9861 47.6813 55.9922 47.7295 55.9982C48.4666 56.0734 48.5719 55.9801 48.5719 55.252C48.5719 54.0153 48.581 52.7757 48.5659 51.539C48.5629 51.2592 48.6291 51.1358 48.921 51.181C49.0142 51.196 49.1135 51.193 49.2098 51.181C49.3904 51.1599 49.4716 51.2231 49.4716 51.4157C49.4626 52.9291 49.4776 54.4426 49.4475 55.9561C49.4355 56.6421 49.1527 56.8738 48.4696 56.8647C48.0665 56.8587 47.6241 56.9791 47.2751 56.7233C47.0434 56.5548 46.9261 56.6481 46.7004 56.7143C45.9693 56.9279 45.202 57.0964 44.537 56.5097C44.4257 56.4104 44.4137 56.4826 44.3535 56.5428C44.1098 56.7865 43.8029 56.8677 43.4689 56.8677C40.1621 56.8677 36.8524 56.8647 33.5456 56.8738C33.2929 56.8798 33.0822 56.7775 32.8415 56.6932Z" fill="#29376F"/>
<path d="M2.95747 56.7011C2.91535 57.002 2.89429 57.2878 2.83411 57.5646C2.65358 58.4282 2.0849 58.5666 1.32365 58.5395C1.20029 58.5365 1.15516 58.4733 1.15516 58.356C1.15817 58.1995 1.16117 58.043 1.15215 57.8866C1.14312 57.7301 1.21233 57.688 1.36277 57.6729C1.86224 57.6278 1.98862 57.5105 2.00065 57.008C2.02171 56.2889 2.0157 55.5667 2.0187 54.8446C2.02171 54.4354 2.02472 54.0262 2.0157 53.62C2.01269 53.4665 2.06083 53.4184 2.21729 53.4064C2.91836 53.3552 2.91836 53.3492 2.91836 54.0623C2.91836 54.5196 2.92438 54.977 2.91535 55.4313C2.90933 55.7683 3.0688 55.9459 3.39376 55.985C3.54721 56.003 3.70367 56.012 3.86014 56.012C6.91415 56.0151 9.96815 56.012 13.0252 56.012C13.6871 56.012 13.8436 55.8436 13.8376 55.1756C13.8346 54.9589 13.8346 54.7423 13.8707 54.5287C14.0091 53.7072 14.5717 53.2228 15.3691 53.2048C16.1574 53.1897 16.8525 53.635 16.9879 54.4745C17.036 54.7724 17.033 55.0703 17.033 55.3712C17.036 55.8044 17.1955 56 17.5926 56.006C18.3509 56.0181 19.1091 56.0151 19.8643 55.994C20.3127 55.982 20.4059 55.8616 20.415 55.4223C20.418 55.2779 20.418 55.1335 20.4029 54.989C20.3097 54.1345 19.5394 53.7885 18.8684 54.3361C18.5465 54.5979 18.4502 54.3692 18.2817 54.2067C18.068 53.9991 18.1523 53.8517 18.3509 53.6832C18.8654 53.2499 19.4341 53.0814 20.087 53.28C20.77 53.4876 21.1702 53.948 21.2936 54.655C21.3748 55.1214 21.3929 55.5878 21.2845 56.0482C21.1582 56.5958 20.8573 56.8606 20.3006 56.8696C19.3619 56.8846 18.4261 56.8756 17.4873 56.8726C17.2767 56.8726 17.039 56.8124 16.9247 56.674C16.696 56.4002 16.5636 56.5416 16.365 56.689C15.9739 56.9749 14.7763 57.002 14.3882 56.6048C14.2648 56.4784 14.1806 56.4905 14.0512 56.6138C13.8677 56.7944 13.6269 56.8756 13.3652 56.8756C10.1066 56.8756 6.84795 56.8726 3.58934 56.8786C3.36969 56.8786 3.17712 56.7793 2.95747 56.7011ZM16.1755 55.0522C16.1604 54.9349 16.1574 54.7995 16.1273 54.6731C16.0371 54.294 15.7723 54.0743 15.4232 54.0804C15.0832 54.0864 14.8365 54.291 14.7523 54.6671C14.6861 54.962 14.6861 55.2628 14.7703 55.5547C14.8907 55.982 15.3209 56.1805 15.7302 56.006C16.1604 55.8225 16.1364 55.4343 16.1755 55.0522Z" fill="#29376F"/>
<path d="M104.11 56.5176C103.544 57.0441 102.705 57.0381 102.151 56.5055C101.655 56.996 100.854 57.0411 100.298 56.6018C100.201 56.5266 100.15 56.5176 100.066 56.6048C99.8643 56.8215 99.5995 56.8846 99.3136 56.8726C98.8924 56.8576 98.4712 56.9117 98.0529 56.8425C97.8393 56.8064 97.6708 56.5627 97.5083 56.5747C97.3519 56.5868 97.1834 56.7944 96.9848 56.8425C96.8704 56.8696 96.7471 56.8726 96.6267 56.8726C95.6037 56.8756 94.5837 56.8666 93.5607 56.8786C93.3019 56.8816 93.1996 56.8335 93.2116 56.5507C93.2417 55.8977 93.1515 56.0331 93.7442 56.0091C94.0421 55.997 94.4212 56.1384 94.6138 55.9489C94.8063 55.7593 94.6679 55.3772 94.6739 55.0823C94.683 54.279 94.689 53.4726 94.6709 52.6692C94.6649 52.3954 94.7492 52.2931 95.017 52.3322C95.0982 52.3442 95.1855 52.3442 95.2697 52.3322C95.5044 52.2991 95.5796 52.3924 95.5766 52.6301C95.5646 53.6381 95.5826 54.649 95.5646 55.657C95.5586 55.9399 95.6398 56.0211 95.9226 56.0181C96.735 56.006 96.735 56.0181 96.735 55.1906C96.735 53.9781 96.741 52.7625 96.729 51.5499C96.726 51.2821 96.7802 51.1317 97.0841 51.1858C97.1653 51.2009 97.2526 51.1979 97.3368 51.1858C97.5715 51.1527 97.6437 51.243 97.6407 51.4837C97.6287 52.7565 97.6347 54.0292 97.6347 55.305C97.6347 55.8466 97.737 55.982 98.2696 56C99.5513 56.0482 99.3768 56.0422 99.3919 54.9951C99.3949 54.8386 99.3798 54.6821 99.3949 54.5257C99.4129 54.3542 99.2956 54.0984 99.4761 54.0322C99.6867 53.954 99.9515 53.9901 100.189 54.0142C100.337 54.0262 100.295 54.1797 100.295 54.282C100.298 54.6912 100.289 55.1004 100.298 55.5066C100.307 55.8737 100.433 55.982 100.815 55.994C101.215 56.0061 101.324 55.9248 101.345 55.5457C101.366 55.1275 101.372 54.7062 101.363 54.285C101.36 54.0743 101.414 53.9871 101.646 53.9961C102.395 54.0202 102.247 53.9179 102.262 54.5979C102.268 54.9108 102.262 55.2237 102.265 55.5337C102.268 55.8797 102.488 55.979 102.786 55.994C103.087 56.0091 103.309 55.9218 103.312 55.5668C103.318 54.9529 103.333 54.3421 103.321 53.7283C103.318 53.4906 103.364 53.3943 103.631 53.4004C104.218 53.4154 104.218 53.4004 104.218 53.9841C104.218 54.4535 104.215 54.9198 104.218 55.3892C104.224 55.7924 104.338 55.9188 104.736 55.988C104.772 55.994 104.808 55.997 104.844 56C105.647 56.0843 105.741 56 105.741 55.2027C105.741 53.9781 105.747 52.7504 105.735 51.5258C105.732 51.2641 105.789 51.1377 106.069 51.1828C106.15 51.1949 106.237 51.1949 106.321 51.1828C106.577 51.1467 106.649 51.258 106.646 51.5048C106.637 52.8979 106.646 54.291 106.64 55.6841C106.637 56.6409 106.4 56.8756 105.446 56.8696C105.103 56.8666 104.751 56.9207 104.417 56.7553C104.287 56.6981 104.224 56.5777 104.11 56.5176Z" fill="#2B3871"/>
<path d="M76.4493 56.0132C75.7633 55.1286 75.7211 54.235 76.2988 53.6934C76.8976 53.1337 78.1403 53.1277 78.7541 53.6843C79.3468 54.2199 79.3017 55.1256 78.6066 56.0132C78.727 56.0132 78.8143 56.0132 78.9015 56.0132C82.8221 56.0132 86.7426 56.0132 90.6632 56.0132C91.596 56.0132 91.7073 55.8838 91.596 54.9601C91.4967 54.1507 90.7655 53.8318 90.0945 54.3012C89.8057 54.5028 89.4897 54.3824 89.3604 54.0364C89.3062 53.895 89.3965 53.8288 89.4687 53.7626C89.9531 53.3082 90.5158 53.0826 91.1777 53.2511C91.8427 53.4196 92.303 53.8137 92.4625 54.5088C92.5769 55.0083 92.5919 55.5107 92.4986 56.0102C92.3873 56.5939 92.0443 56.8647 91.4365 56.8738C90.9551 56.8798 90.4736 56.8768 89.9922 56.8768C86.1559 56.8768 82.3196 56.8768 78.4833 56.8768C78.2305 56.8768 77.9808 56.8617 77.7401 56.7624C77.6558 56.7263 77.5445 56.7022 77.4633 56.7263C76.5305 57.0001 75.5737 56.8316 74.6289 56.8738C74.2077 56.8918 73.7864 56.8828 73.3652 56.8768C72.8507 56.8677 72.5588 56.6421 72.5257 56.1306C72.4806 55.4476 72.5016 54.7615 72.4896 54.0785C72.4866 53.9281 72.5528 53.8769 72.7032 53.8649C73.3772 53.8107 73.3772 53.8047 73.3772 54.4847C73.3772 54.8578 73.3832 55.2309 73.3772 55.601C73.3712 55.8748 73.5066 55.9952 73.7654 56.0072C73.8255 56.0102 73.8857 56.0132 73.9459 56.0132C74.7613 56.0132 75.5767 56.0132 76.4493 56.0132ZM77.5024 53.9943C77.37 53.9852 77.2316 54.0153 77.0992 54.1267C76.8103 54.3613 76.7562 54.6652 76.8073 54.9962C76.8675 55.3753 77.1082 55.6281 77.4302 55.8207C77.5505 55.8929 77.6558 55.8327 77.725 55.7725C77.8875 55.6371 78.056 55.4987 78.1553 55.3001C78.4742 54.6893 78.1403 53.9913 77.5024 53.9943Z" fill="#29376F"/>
<path d="M117.945 56.2484C116.967 56.9254 115.757 56.3567 115.631 55.1923C115.598 54.8944 115.616 54.5935 115.694 54.2986C115.871 53.6427 116.401 53.2275 117.084 53.2124C117.265 53.2094 117.445 53.2064 117.626 53.2124C117.806 53.2185 117.969 53.2245 117.927 52.9627C117.902 52.8213 117.993 52.7882 118.119 52.7761C118.877 52.6979 118.874 52.6949 118.874 53.4471C118.874 54.085 118.874 54.7199 118.874 55.3578C118.874 55.9656 118.925 56.0167 119.527 56.0167C122.954 56.0167 126.378 56.0167 129.806 56.0167C130.263 56.0167 130.72 56.0227 131.175 56.0137C131.605 56.0077 131.683 55.9355 131.695 55.5112C131.71 54.9124 131.713 54.3107 131.701 53.7089C131.695 53.4742 131.764 53.402 132.002 53.405C132.598 53.411 132.598 53.399 132.598 53.9827C132.598 54.4641 132.601 54.9425 132.598 55.424C132.595 55.7489 132.739 55.9445 133.07 55.9836C133.106 55.9866 133.142 55.9956 133.176 55.9987C134.066 56.113 134.177 56.0167 134.177 55.1321C134.177 54.6507 134.19 54.1723 134.171 53.6908C134.165 53.4712 134.232 53.405 134.454 53.405C135.08 53.405 135.08 53.393 135.08 54.0278C135.08 54.6296 135.089 55.2284 135.077 55.8302C135.059 56.6275 134.794 56.8742 134 56.8742C133.759 56.8742 133.519 56.8742 133.278 56.8742C133.031 56.8712 132.799 56.8141 132.622 56.6365C132.514 56.5252 132.453 56.5282 132.339 56.6395C132.152 56.8231 131.903 56.8772 131.644 56.8772C127.377 56.8772 123.108 56.8772 118.841 56.8742C118.324 56.8742 118.146 56.7449 117.945 56.2484ZM117.927 54.7349C117.927 54.5544 117.914 54.4822 117.93 54.413C117.984 54.1151 117.845 54.0308 117.571 54.067C117.478 54.079 117.379 54.067 117.286 54.073C116.744 54.1091 116.488 54.3889 116.5 54.9335C116.509 55.3728 116.726 55.6105 117.141 55.6406C117.568 55.6737 117.848 55.454 117.911 55.0238C117.93 54.8944 117.924 54.759 117.927 54.7349Z" fill="#29376F"/>
<path d="M46.0567 47.357C45.7438 46.8755 45.6595 46.4092 45.7438 45.9037C45.9063 44.9468 46.7247 44.4053 47.7357 44.5647C48.1088 44.6249 48.4006 44.8084 48.6865 45.0281C48.9813 45.2568 48.7497 45.4223 48.6173 45.5847C48.4909 45.7382 48.3735 45.9067 48.1298 45.675C47.6935 45.2568 47.1008 45.3651 46.8751 45.6449C46.6013 45.9879 46.5682 46.37 46.7337 46.7612C46.8932 47.1373 47.1369 47.3961 47.6033 47.363C47.9854 47.3359 48.3735 47.366 48.7557 47.354C48.9543 47.3479 49.0445 47.4051 49.0205 47.6127C49.0084 47.706 49.0084 47.8053 49.0205 47.9016C49.0536 48.1363 48.9422 48.1814 48.7316 48.1784C47.5281 48.1663 46.3275 48.1633 45.124 48.1663C44.8381 48.1663 44.6094 48.0791 44.45 47.7812C44.2424 48.1182 43.9385 48.1754 43.5894 48.1724C41.7751 48.1633 39.9577 48.1663 38.1434 48.1633C38.014 48.1633 37.8846 48.1633 37.7492 48.1633C37.9237 48.9607 37.7823 49.412 37.2588 49.6738C36.991 49.8062 36.7021 49.8844 36.3952 49.8814C35.7333 49.8754 35.0713 49.8844 34.4124 49.8784C33.1727 49.8664 32.4536 49.0961 32.5288 47.8625C32.5589 47.363 32.7003 46.8966 32.941 46.4573C33.0193 46.3159 33.1005 46.2076 33.26 46.3731C33.284 46.3971 33.3232 46.4031 33.3563 46.4212C33.7986 46.6469 33.8016 46.6499 33.615 47.1193C33.4796 47.4593 33.3863 47.8023 33.4525 48.1694C33.5338 48.6086 33.8166 48.8915 34.2619 48.9547C35.0141 49.063 35.7694 49.0419 36.5246 48.9667C36.7382 48.9456 36.8947 48.8614 36.9398 48.6417C36.985 48.4221 36.8766 48.2686 36.7021 48.1603C36.3561 47.9497 35.986 47.7782 35.6009 47.6578C35.3782 47.5886 35.3572 47.4984 35.4233 47.2938C35.6129 46.71 35.6069 46.701 36.1786 46.9628C36.7743 47.2366 37.3881 47.369 38.0531 47.36C39.711 47.3359 41.3719 47.3539 43.0298 47.3509C43.5955 47.3509 43.6586 47.2878 43.6616 46.7341C43.6647 45.4493 43.6707 44.1645 43.6556 42.8767C43.6526 42.5849 43.7399 42.4826 44.0197 42.5247C44.0889 42.5337 44.1641 42.5337 44.2363 42.5247C44.4861 42.4886 44.5673 42.5879 44.5643 42.8436C44.5523 44.0442 44.5583 45.2477 44.5583 46.4483C44.5583 47.2396 44.6726 47.3509 45.485 47.354C45.6535 47.357 45.822 47.357 46.0567 47.357Z" fill="#27356E"/>
<path d="M150.344 45.0342C150.344 45.7804 150.365 46.5236 150.338 47.2698C150.314 47.9558 150.094 48.1514 149.408 48.1695C149.059 48.1785 148.71 48.1634 148.361 48.1634C148.226 48.1634 148.081 48.1514 147.994 48.0491C147.735 47.7482 147.531 47.8686 147.251 48.0491C146.727 48.3831 145.813 48.2778 145.328 47.8806C145.259 47.8234 145.199 47.7422 145.127 47.8475C144.862 48.2326 144.462 48.1634 144.083 48.1664C143.577 48.1695 143.577 48.1664 143.532 48.6449C143.457 49.4302 142.978 49.8725 142.181 49.8845C141.88 49.8875 141.579 49.8665 141.278 49.8905C141.014 49.9116 140.953 49.8033 140.962 49.5596C140.984 48.9247 140.908 49.036 141.504 49.024C141.757 49.018 142.01 49.036 142.256 48.9698C142.353 48.9427 142.44 48.9217 142.5 48.8344C142.62 48.6599 142.711 48.4523 142.641 48.2597C142.578 48.0822 142.365 48.1935 142.22 48.1785C142.031 48.1574 141.835 48.1664 141.642 48.1634C141.035 48.1484 140.595 47.8174 140.442 47.2277C140.304 46.6831 140.3 46.1355 140.484 45.5939C140.728 44.8747 141.29 44.5107 142.091 44.5528C142.846 44.5919 143.318 45.0071 143.484 45.7593C143.574 46.1776 143.556 46.5988 143.535 47.0171C143.52 47.321 143.631 47.3992 143.899 47.3601C143.947 47.354 143.995 47.3601 144.044 47.3601C144.633 47.3601 144.844 47.1464 144.826 46.5507C144.817 46.2618 144.823 45.973 144.892 45.6932C145.088 44.9229 145.605 44.5438 146.451 44.5528C147.26 44.5618 147.775 44.965 147.952 45.7232C148.021 46.0181 148.027 46.316 148.021 46.6169C148.015 46.8877 148.03 47.1705 148.325 47.2879C148.644 47.4142 148.987 47.4172 149.303 47.2728C149.502 47.1825 149.463 46.9659 149.463 46.7884C149.466 45.4916 149.484 44.1917 149.453 42.8949C149.444 42.4827 149.655 42.5338 149.917 42.5248C150.194 42.5188 150.389 42.5158 150.368 42.9039C150.332 43.611 150.359 44.3211 150.359 45.0312C150.35 45.0342 150.347 45.0342 150.344 45.0342ZM142.69 46.6861C142.665 46.4484 142.665 46.2047 142.614 45.973C142.554 45.6962 142.425 45.4615 142.094 45.4133C141.715 45.3562 141.474 45.5307 141.321 45.8556C141.197 46.1144 141.203 46.3942 141.23 46.668C141.272 47.0893 141.498 47.3059 141.922 47.348C142.674 47.4263 142.675 47.4263 142.69 46.6861ZM147.164 46.4123C147.146 46.2709 147.14 46.1385 147.11 46.0121C147.007 45.5728 146.785 45.4013 146.36 45.4133C146.023 45.4223 145.786 45.654 145.719 46.0572C145.677 46.319 145.671 46.5838 145.738 46.8425C145.822 47.1735 146.005 47.3871 146.39 47.3751C146.815 47.3631 146.983 47.2608 147.092 46.8666C147.131 46.7132 147.143 46.5567 147.164 46.4123Z" fill="#27356E"/>
<path d="M59.6597 56.8755C59.7138 57.1462 59.777 57.3779 59.7259 57.6217C59.6115 58.1542 59.2264 58.4912 58.5012 58.5213C57.6166 58.5574 56.726 58.5965 55.8384 58.4852C54.8966 58.3679 54.4844 57.6397 54.4302 56.9266C54.3851 56.3489 54.5265 55.8103 54.7612 55.2868C54.8846 55.0069 55.0019 54.9588 55.3028 55.1153C55.6428 55.2928 55.7301 55.4492 55.5375 55.7802C55.384 56.042 55.3299 56.3399 55.3359 56.6468C55.351 57.2666 55.7271 57.6638 56.3469 57.6728C56.9968 57.6848 57.6467 57.6758 58.2936 57.6758C58.5404 57.6758 58.757 57.6066 58.8292 57.3478C58.9105 57.062 58.7209 56.8875 58.5043 56.7762C58.2395 56.6408 57.9566 56.5475 57.6768 56.4422C57.2827 56.2947 57.1803 55.7712 57.4933 55.4823C57.5805 55.4011 57.6738 55.4432 57.7581 55.4914C58.5735 55.9818 59.4671 56.036 60.3908 56.0239C62.2774 55.9999 64.167 56.0149 66.0535 56.0209C66.3003 56.0209 66.4567 56.033 66.3484 55.69C66.228 55.3108 66.2581 54.9046 66.3303 54.5105C66.4718 53.7432 67.0705 53.2317 67.8288 53.2136C68.5689 53.1926 69.2911 53.6108 69.4415 54.4503C69.5047 54.8114 69.5228 55.1694 69.4776 55.5245C69.3693 56.4211 68.8397 56.8785 67.9281 56.8815C65.3073 56.8845 62.6866 56.8815 60.0629 56.8815C59.9365 56.8755 59.8071 56.8755 59.6597 56.8755ZM67.1758 55.022C67.1758 55.0701 67.1758 55.1183 67.1758 55.1664C67.1909 55.7652 67.4105 56.0119 67.913 55.9999C68.3944 55.9908 68.6051 55.7411 68.6201 55.1694C68.6261 54.9528 68.6231 54.7391 68.5449 54.5345C68.3884 54.1253 67.9672 53.9719 67.576 54.1735C67.221 54.354 67.1698 54.676 67.1758 55.022Z" fill="#29376F"/>
<path d="M232.417 32.4406C232.417 32.4165 232.417 32.3924 232.417 32.3683C232.405 31.6913 232.441 31.6703 233.064 31.9682C234.542 32.6722 234.954 33.9901 234.205 35.627C234.102 35.8526 233.871 36.0783 233.892 36.2859C233.904 36.4213 234.268 36.5176 234.466 36.644C234.93 36.9388 235.146 37.3691 235.134 37.9167C235.104 39.1774 234.328 40.0079 233.23 40.375C232.805 40.5164 232.363 40.5525 231.927 40.6187C231.728 40.6488 231.608 40.5886 231.698 40.3599C232.264 38.9367 231.864 37.679 231.021 36.5086C230.856 36.2799 230.895 36.1595 231.051 35.9609C231.87 34.9319 232.396 33.7825 232.417 32.4406Z" fill="#20C1E3"/>
<path d="M219.916 32.3219C219.913 33.6759 220.406 34.8523 221.236 35.8904C221.459 36.1702 221.444 36.3176 221.243 36.6035C220.451 37.7408 220.09 38.9715 220.629 40.3345C220.713 40.5451 220.656 40.6414 220.433 40.6173C219.693 40.5361 218.965 40.4308 218.324 39.9975C217.53 39.4589 217.181 38.6947 217.202 37.7619C217.22 37.0969 217.647 36.6847 218.213 36.444C218.51 36.3177 218.453 36.2274 218.33 36.0138C217.954 35.3608 217.695 34.6658 217.773 33.8925C217.873 32.8996 218.504 32.3249 219.359 31.9337C219.401 31.9127 219.449 31.9036 219.494 31.8856C219.904 31.7081 219.94 31.7351 219.91 32.1774C219.913 32.2256 219.916 32.2737 219.916 32.3219Z" fill="#EE4054"/>
<path d="M94.1112 47.3564C95.2065 47.3564 96.2987 47.3564 97.3939 47.3564C97.9897 47.3564 98.1943 47.1517 98.1732 46.55C98.1642 46.2822 98.1792 46.0204 98.2334 45.7616C98.4169 44.868 99.1541 44.4077 100.096 44.5701C100.764 44.6845 101.173 45.0696 101.308 45.7195C101.456 46.4417 101.477 47.1608 100.971 47.7746C100.583 48.247 100.036 48.265 99.4881 48.2139C99.1932 48.1868 98.8893 48.1326 98.6817 47.8769C98.5764 47.7475 98.5192 47.8077 98.435 47.907C98.2695 48.0965 98.0499 48.1657 97.7941 48.1657C95.2095 48.1627 92.6219 48.1597 90.0372 48.1657C89.7273 48.1657 89.4866 48.0634 89.3843 47.7686C89.3091 47.5429 89.1978 47.6121 89.0684 47.6843C88.6923 47.8889 88.2891 47.8468 87.91 47.7535C87.4827 47.6482 87.1999 47.3383 87.0584 46.905C86.7816 46.0746 87.0404 45.1539 87.7023 44.7296C88.0303 44.519 88.4154 44.5581 88.7855 44.5491C89.0112 44.5431 89.3241 44.6634 89.279 44.2241C89.267 44.1158 89.3903 44.1188 89.4716 44.1188C89.604 44.1158 89.7363 44.1308 89.8687 44.1158C90.0944 44.0887 90.1546 44.185 90.1516 44.4016C90.1395 45.196 90.1455 45.9873 90.1486 46.7817C90.1516 47.2601 90.2448 47.3564 90.7172 47.3564C91.8516 47.3594 92.9829 47.3564 94.1112 47.3564ZM99.0488 46.4206C99.0548 46.5048 99.0608 46.6102 99.0759 46.7185C99.1361 47.1487 99.3316 47.3533 99.6957 47.3684C100.183 47.3864 100.37 47.242 100.472 46.7756C100.538 46.4778 100.538 46.1769 100.433 45.891C100.328 45.6082 100.156 45.4126 99.804 45.4066C99.446 45.3976 99.2474 45.5631 99.127 45.87C99.0639 46.0385 99.0608 46.216 99.0488 46.4206ZM89.273 45.9211C89.273 45.4066 89.273 45.4066 88.7705 45.4096C88.6742 45.4096 88.5779 45.4156 88.4816 45.4126C88.1868 45.4066 88.0032 45.5811 87.919 45.8278C87.8077 46.1528 87.7715 46.5048 88.0363 46.7756C88.2379 46.9833 88.5087 47.0464 88.7976 46.9381C89.288 46.7546 89.273 46.3363 89.273 45.9211Z" fill="#27356E"/>
<path d="M106.959 47.3538C107.528 47.3538 108.018 47.3568 108.509 47.3538C108.87 47.3508 108.93 47.1131 108.93 46.8183C108.927 45.5214 108.927 44.2246 108.933 42.9248C108.933 42.7954 108.846 42.5848 109.032 42.5517C109.273 42.5065 109.535 42.4885 109.775 42.5727C109.86 42.6028 109.83 42.7232 109.83 42.8044C109.83 44.2577 109.833 45.711 109.827 47.1643C109.827 47.3809 109.797 47.5945 109.694 47.7931C109.574 48.0248 109.399 48.1632 109.129 48.1632C108.298 48.1632 107.462 48.2264 106.643 48.1361C106.183 48.085 105.756 48.094 105.298 48.1391C104.561 48.2144 103.809 48.1692 103.066 48.1602C102.647 48.1572 102.428 47.9707 102.338 47.5614C102.301 47.399 102.289 47.2275 102.289 47.062C102.286 45.6689 102.295 44.2758 102.28 42.8826C102.277 42.5938 102.365 42.5126 102.647 42.5246C103.279 42.5517 103.186 42.4584 103.189 43.0572C103.192 44.3058 103.189 45.5545 103.192 46.8062C103.192 47.2696 103.276 47.3568 103.743 47.3538C104.188 47.3508 104.63 47.3358 105.076 47.3207C105.349 47.3117 105.395 47.1703 105.286 46.9416C105.115 46.5775 104.871 46.2827 104.54 46.045C104.089 45.72 104.185 45.0581 104.681 44.8204C105.379 44.4864 106.114 44.4503 106.824 44.6458C107.579 44.8565 107.943 45.5184 107.627 46.4301C107.504 46.7791 107.236 47.0229 106.959 47.3538ZM105.193 45.5966C105.551 45.8735 105.795 46.1894 105.963 46.5655C106.029 46.7099 106.029 46.9747 106.171 46.9777C106.363 46.9807 106.487 46.7581 106.607 46.5956C106.73 46.4271 106.8 46.2405 106.812 46.0299C106.833 45.717 106.658 45.4913 106.39 45.4432C106.011 45.38 105.605 45.3319 105.193 45.5966Z" fill="#2B3871"/>
<path d="M150.356 53.7321C150.356 54.4061 150.362 55.0771 150.353 55.7511C150.341 56.6447 150.104 56.8824 149.21 56.8734C148.807 56.8704 148.392 56.9426 148.006 56.738C147.88 56.6718 147.375 56.6899 147.236 56.738C146.574 56.9757 145.927 56.9998 145.323 56.5755C145.247 56.5214 145.22 56.4431 145.103 56.5545C144.646 56.9787 144.095 56.9576 143.553 56.7771C143.322 56.7019 143.286 56.753 143.279 56.9516C143.276 57.084 143.267 57.2164 143.249 57.3458C143.135 58.2274 142.618 58.6246 141.736 58.5373C141.582 58.5223 141.519 58.4711 141.525 58.3207C141.531 58.1762 141.531 58.0318 141.525 57.8874C141.519 57.7369 141.576 57.6828 141.733 57.6677C142.247 57.6196 142.371 57.4992 142.38 56.9727C142.398 55.9045 142.404 54.8334 142.389 53.7652C142.383 53.4523 142.482 53.3861 142.771 53.3981C143.298 53.4222 143.298 53.4042 143.298 53.9397C143.298 54.4452 143.301 54.9477 143.298 55.4532C143.295 55.7541 143.433 55.9286 143.731 55.9647C143.896 55.9858 144.065 56.0038 144.233 56.0008C144.552 55.9978 144.76 55.8474 144.79 55.5134C144.814 55.2396 144.811 54.9628 144.832 54.6889C144.898 53.8314 145.461 53.2447 146.252 53.1965C147.104 53.1484 147.853 53.5997 147.979 54.5084C148.018 54.7852 148.021 55.059 148.021 55.3328C148.018 55.8113 148.19 55.9858 148.662 56.0008C148.723 56.0038 148.783 56.0008 148.843 56.0008C149.406 55.9978 149.463 55.9437 149.463 55.384C149.466 54.0992 149.472 52.8144 149.457 51.5266C149.454 51.2378 149.535 51.1294 149.818 51.1746C149.875 51.1836 149.938 51.1836 149.998 51.1746C150.32 51.1144 150.371 51.2769 150.365 51.5567C150.344 52.2909 150.356 53.013 150.356 53.7321ZM145.687 55.0711C145.699 55.2035 145.699 55.3359 145.726 55.4622C145.804 55.8624 146.033 56.064 146.406 56.07C146.782 56.076 147.004 55.8925 147.104 55.4833C147.182 55.1493 147.182 54.8153 147.05 54.4964C146.932 54.2105 146.692 54.0781 146.397 54.0872C146.114 54.0962 145.897 54.2316 145.783 54.5054C145.711 54.6859 145.69 54.8755 145.687 55.0711Z" fill="#29376F"/>
<path d="M248.855 17.6158C248.858 18.8524 248.13 19.7822 246.947 20.1222C246.34 20.2967 245.145 19.8363 244.661 19.0329C243.932 17.8204 244.263 16.1023 245.47 15.3832C246.797 14.5918 248.331 15.3802 248.759 16.8666C248.831 17.1133 248.861 17.363 248.855 17.6158Z" fill="#20C1E3"/>
<path d="M204.853 51.6736C204.176 50.8702 203.668 50.0789 203.249 49.2304C202.542 47.7891 202.037 46.2726 201.832 44.6809C201.612 42.9839 202.428 41.7413 203.857 40.965C203.92 40.9289 203.968 40.8747 204.041 40.9499C204.11 41.0222 204.104 41.1004 204.083 41.1846C203.98 41.5547 203.917 41.9338 203.872 42.316C203.719 43.6068 203.938 44.8524 204.345 46.071C204.459 46.4171 204.465 46.6969 204.299 47.0519C203.773 48.1953 203.971 49.2725 204.781 50.2293C204.901 50.3737 204.946 50.4851 204.889 50.6686C204.796 50.9605 204.814 51.2644 204.853 51.6736Z" fill="#EE4054"/>
<path d="M140.8 8.1231C140.295 8.1231 139.792 8.12611 139.287 8.1231C138.874 8.12009 138.799 8.04487 138.799 7.64168C138.796 6.74202 138.796 5.84237 138.799 4.94271C138.799 4.50944 138.889 4.42218 139.335 4.42218C140.319 4.41917 141.306 4.41917 142.289 4.42218C142.723 4.42519 142.813 4.51846 142.813 4.95776C142.816 5.85741 142.804 6.75707 142.819 7.65672C142.825 8.00575 142.675 8.12911 142.35 8.12611C141.832 8.12009 141.318 8.1231 140.8 8.1231Z" fill="#27356E"/>
<path d="M135.802 8.12295C135.285 8.12295 134.77 8.11994 134.253 8.12295C133.949 8.12295 133.792 8.01162 133.799 7.67463C133.814 6.7509 133.814 5.82718 133.799 4.90345C133.792 4.56044 133.943 4.41602 134.265 4.41602C135.297 4.41602 136.329 4.41602 137.364 4.41602C137.671 4.41602 137.818 4.56044 137.815 4.87938C137.806 5.81514 137.806 6.7509 137.815 7.68666C137.818 7.99959 137.674 8.11994 137.382 8.11994C136.859 8.12295 136.329 8.12295 135.802 8.12295Z" fill="#27356E"/>
<path d="M138.282 3.70649C137.764 3.70649 137.25 3.70348 136.732 3.70649C136.404 3.7095 136.251 3.56808 136.257 3.22808C136.266 2.31639 136.257 1.4047 136.263 0.493007C136.266 0.119906 136.38 0.00556907 136.768 0.00256019C137.764 -0.00345756 138.763 -0.00345756 139.759 0.00256019C140.183 0.00556907 140.283 0.113889 140.286 0.544158C140.289 1.43178 140.289 2.31939 140.286 3.20701C140.286 3.60118 140.189 3.70047 139.798 3.70348C139.29 3.7095 138.784 3.70649 138.282 3.70649Z" fill="#27356E"/>
<path d="M136.861 53.5154C136.861 54.1894 136.867 54.8604 136.858 55.5344C136.855 55.8413 136.973 56.0158 137.295 56.0128C138.077 56.0098 138.856 56.0188 139.639 55.9977C140.096 55.9857 140.195 55.8563 140.204 55.399C140.207 55.2907 140.21 55.1823 140.198 55.074C140.153 54.6949 140.066 54.3489 139.663 54.1683C139.254 53.9878 138.892 54.1021 138.601 54.3669C138.294 54.6437 138.221 54.3398 138.077 54.2135C137.906 54.066 137.866 53.9126 138.065 53.7381C138.586 53.2867 139.169 53.0701 139.855 53.2747C140.571 53.4883 140.975 53.9758 141.089 54.7069C141.158 55.1372 141.17 55.5675 141.083 55.9977C140.969 56.5604 140.659 56.8613 140.105 56.8703C139.001 56.8884 137.894 56.8824 136.786 56.8733C136.344 56.8703 136.1 56.6507 136.01 56.2204C135.98 56.07 135.968 55.9105 135.968 55.757C135.965 54.3519 135.974 52.9467 135.959 51.5416C135.956 51.2527 136.04 51.1444 136.32 51.1896C136.389 51.2016 136.464 51.1986 136.537 51.1896C136.78 51.1535 136.871 51.2377 136.864 51.4995C136.849 52.1705 136.861 52.8444 136.861 53.5154Z" fill="#29376F"/>
<path d="M26.4298 53.7385C26.4298 54.4576 26.4358 55.1798 26.4298 55.8989C26.4237 56.612 26.1529 56.8768 25.4459 56.8768C24.4138 56.8768 23.3788 56.8617 22.3467 56.8858C22.0067 56.8948 22.0007 56.7233 22.0248 56.4916C22.0458 56.284 21.8984 55.9741 22.3317 56.0102C22.6175 56.0343 22.9094 56.0012 23.1952 56.0192C23.4299 56.0343 23.5051 55.9561 23.5021 55.7153C23.4901 54.7074 23.5232 53.6964 23.4841 52.6914C23.469 52.2612 23.7127 52.3454 23.9565 52.3334C24.2182 52.3213 24.4018 52.3183 24.3927 52.6914C24.3627 53.6994 24.3897 54.7074 24.3777 55.7153C24.3747 55.953 24.4439 56.0162 24.6786 56.0162C25.5542 56.0192 25.5542 56.0283 25.5542 55.1406C25.5542 53.9401 25.5632 52.7396 25.5482 51.539C25.5451 51.2592 25.6113 51.1358 25.9032 51.181C25.9844 51.193 26.0717 51.193 26.1559 51.181C26.3816 51.1479 26.4418 51.2411 26.4388 51.4608C26.4237 52.225 26.4298 52.9803 26.4298 53.7385Z" fill="#29376F"/>
<path d="M112.586 56.0253C112.586 56.4224 112.598 56.8166 112.583 57.2138C112.55 58.0894 112.101 58.5256 111.229 58.5407C110.928 58.5467 110.627 58.5287 110.329 58.5467C110.104 58.5587 109.986 58.4986 110.016 58.2518C110.028 58.1586 110.025 58.0593 110.016 57.963C109.995 57.7524 110.064 57.6561 110.296 57.6741C110.558 57.6922 110.823 57.6801 111.088 57.6741C111.467 57.6681 111.653 57.4936 111.701 57.1205C111.725 56.943 111.689 56.8647 111.485 56.8678C111.115 56.8678 110.744 56.9039 110.374 56.8076C109.878 56.6782 109.598 56.3502 109.481 55.8808C109.348 55.3603 109.345 54.8338 109.508 54.3192C109.746 53.567 110.344 53.1428 111.145 53.215C111.879 53.2812 112.411 53.6874 112.532 54.4787C112.544 54.5509 112.568 54.6201 112.568 54.6923C112.571 55.1346 112.571 55.58 112.571 56.0223C112.58 56.0253 112.583 56.0253 112.586 56.0253ZM111.713 55.2941C111.701 55.0895 111.731 54.8398 111.659 54.593C111.572 54.2922 111.37 54.1237 111.075 54.0906C110.778 54.0575 110.549 54.2049 110.404 54.4727C110.254 54.7495 110.245 55.0474 110.278 55.3453C110.326 55.7846 110.492 55.944 110.934 56.0042C111.713 56.1035 111.713 56.1035 111.713 55.2941Z" fill="#29376F"/>
<path d="M107.609 54.0324C107.609 53.1929 107.615 52.3534 107.603 51.5139C107.6 51.2762 107.648 51.1739 107.916 51.1799C108.512 51.192 108.512 51.1769 108.512 51.7667C108.512 53.3253 108.497 54.8839 108.524 56.4425C108.53 56.8246 108.41 56.9359 108.064 56.8787C108.052 56.8757 108.04 56.8757 108.028 56.8787C107.666 56.948 107.594 56.7795 107.603 56.4425C107.627 55.6391 107.609 54.8357 107.609 54.0324Z" fill="#303E74"/>
<path d="M28.3433 54.0512C28.3433 54.8786 28.3342 55.7061 28.3493 56.5335C28.3553 56.7923 28.3011 56.8946 28.0153 56.8825C27.3323 56.8524 27.4406 56.9608 27.4376 56.3169C27.4316 54.7342 27.4436 53.1515 27.4286 51.5689C27.4256 51.28 27.4887 51.1356 27.7987 51.1897C27.8348 51.1958 27.8709 51.1958 27.907 51.1897C28.241 51.1326 28.3643 51.2469 28.3493 51.608C28.3222 52.4204 28.3433 53.2358 28.3433 54.0512Z" fill="#303E74"/>
<path d="M29.6401 45.3442C29.6401 46.1717 29.628 47.0021 29.6461 47.8296C29.6521 48.0944 29.5889 48.1816 29.3121 48.1726C28.7344 48.1545 28.7344 48.1696 28.7344 47.5768C28.7344 46.0393 28.7495 44.5048 28.7224 42.9672C28.7164 42.5821 28.8397 42.4708 29.1888 42.5309C29.2008 42.534 29.2128 42.534 29.2249 42.5309C29.5408 42.4798 29.6642 42.5851 29.6521 42.9341C29.619 43.7345 29.6401 44.5409 29.6401 45.3442Z" fill="#303E74"/>
<path d="M110.856 45.3439C110.856 44.5165 110.865 43.686 110.85 42.8586C110.847 42.6149 110.904 42.5216 111.166 42.5276C111.743 42.5366 111.743 42.5216 111.743 43.0933C111.743 44.6669 111.737 46.2406 111.749 47.8142C111.752 48.091 111.689 48.2144 111.397 48.1693C111.304 48.1542 111.205 48.1572 111.109 48.1693C110.901 48.1933 110.844 48.1091 110.847 47.9075C110.862 47.05 110.856 46.1954 110.856 45.3439Z" fill="#27356E"/>
<path d="M152.276 54.0456C152.276 54.8851 152.264 55.7245 152.282 56.564C152.288 56.8258 152.201 56.889 151.957 56.8769C151.286 56.8499 151.394 56.9672 151.391 56.3022C151.385 54.7436 151.403 53.182 151.379 51.6234C151.373 51.2443 151.488 51.1781 151.84 51.1721C152.21 51.1661 152.3 51.2714 152.288 51.6295C152.255 52.4388 152.276 53.2422 152.276 54.0456Z" fill="#26346D"/>
<path d="M51.3853 54.0244C51.3853 54.8639 51.3732 55.7034 51.3913 56.5428C51.3973 56.8136 51.3221 56.9189 51.0513 56.8768C50.946 56.8618 50.8346 56.8678 50.7263 56.8768C50.5548 56.8919 50.4946 56.8227 50.4946 56.6512C50.4976 54.912 50.5006 53.1729 50.4946 51.4338C50.4946 51.2472 50.5548 51.193 50.7444 51.187C51.3853 51.169 51.3853 51.16 51.3853 51.7918C51.3853 52.535 51.3853 53.2782 51.3853 54.0244Z" fill="#26346D"/>
<path d="M151.388 45.3141C151.388 44.4987 151.4 43.6802 151.382 42.8648C151.376 42.588 151.464 42.4947 151.728 42.5309C151.834 42.5459 151.945 42.5399 152.053 42.5309C152.228 42.5158 152.279 42.594 152.279 42.7625C152.276 44.4926 152.273 46.2227 152.279 47.9498C152.279 48.1364 152.207 48.1605 152.047 48.1665C151.388 48.1905 151.388 48.1966 151.388 47.5467C151.388 46.8035 151.388 46.0573 151.388 45.3141Z" fill="#26346D"/>
<path d="M208.494 47.8008C209.466 47.9332 210.368 48.2311 211.13 48.881C211.307 49.0314 211.229 49.1307 211.087 49.2029C210.612 49.4466 210.212 49.7716 209.887 50.1959C209.8 50.3102 209.685 50.3313 209.577 50.235C209.216 49.9221 208.846 49.6151 208.807 49.0796C208.774 48.6312 208.536 48.3003 208.172 48.0505C208.109 48.0084 207.976 48.0084 208.003 47.8971C208.03 47.7767 208.157 47.8128 208.247 47.8038C208.325 47.7948 208.41 47.8008 208.494 47.8008Z" fill="#EE4054"/>
<path d="M141.965 43.9051C141.736 43.9051 141.507 43.9051 141.282 43.9051C141.182 43.9051 141.077 43.9051 141.068 43.7757C141.062 43.6734 141.017 43.5169 141.143 43.4929C141.351 43.4538 141.3 43.3515 141.276 43.2191C141.203 42.8279 141.33 42.4789 141.649 42.3284C141.983 42.169 142.338 42.166 142.672 42.3736C142.798 42.4518 142.9 42.5511 142.795 42.6865C142.72 42.7828 142.645 42.9663 142.434 42.7888C142.268 42.6534 142.022 42.6293 141.844 42.8159C141.712 42.9543 141.739 43.1258 141.823 43.2853C141.898 43.4297 142.028 43.4718 142.184 43.4658C142.365 43.4598 142.545 43.4658 142.723 43.4658C142.876 43.4658 142.891 43.5651 142.891 43.6824C142.891 43.7998 142.876 43.9021 142.726 43.9021C142.47 43.9021 142.217 43.9021 141.965 43.9051C141.965 43.9021 141.965 43.9021 141.965 43.9051Z" fill="#303E74"/>
<path d="M23.9023 51.8416C23.6736 51.8416 23.4479 51.8447 23.2193 51.8416C23.141 51.8416 23.0327 51.8567 23.0327 51.7363C23.0297 51.625 22.9725 51.4445 23.117 51.4264C23.3547 51.3933 23.2915 51.285 23.2584 51.1376C23.1862 50.7976 23.2644 50.4846 23.5532 50.274C23.8601 50.0544 24.1941 50.0273 24.5251 50.2379C24.6304 50.3041 24.7929 50.3613 24.7026 50.5177C24.6304 50.6441 24.5131 50.7705 24.3265 50.617C24.1761 50.4937 23.9925 50.4816 23.8391 50.617C23.6886 50.7524 23.6796 50.936 23.7428 51.1135C23.806 51.297 23.9293 51.4144 24.146 51.3993C24.2904 51.3903 24.4348 51.4054 24.5763 51.3963C24.7598 51.3873 24.7929 51.4866 24.7989 51.6401C24.8049 51.8025 24.7297 51.8477 24.5823 51.8416C24.3596 51.8356 24.1309 51.8416 23.9023 51.8416Z" fill="#303E74"/>
<path d="M68.3434 52.2426C68.4638 52.6337 68.1899 52.6397 67.865 52.6277C67.4197 52.6126 67.4197 52.6247 67.4197 52.1493C67.4197 51.6889 67.4197 51.6859 67.883 51.6889C68.4126 51.6889 68.3344 51.6318 68.3434 52.2426Z" fill="#303E74"/>
<path d="M134.596 52.6063C134.172 52.7387 134.133 52.498 134.148 52.155C134.172 51.6284 134.084 51.6856 134.635 51.6856C135.128 51.6826 135.041 51.6374 135.08 52.2061C135.11 52.6093 134.939 52.6845 134.596 52.6063Z" fill="#303E74"/>
<path d="M47.1097 57.9594C47.1037 58.5371 47.1428 58.4167 46.5922 58.4739C46.1047 58.525 46.216 58.2302 46.1769 57.9564C46.1107 57.505 46.3695 57.5502 46.6764 57.5231C47.1127 57.481 47.1668 57.6856 47.1097 57.9594Z" fill="#303E74"/>
<path d="M139.374 57.5327C139.919 57.5447 139.895 57.4394 139.895 57.9961C139.895 58.5587 139.925 58.4143 139.401 58.4685C138.938 58.5196 138.995 58.2609 138.971 57.96C138.941 57.5778 139.082 57.4635 139.374 57.5327Z" fill="#29376F"/>
<path d="M117.373 51.8217C117.289 51.4606 117.379 51.3282 117.773 51.3132C118.224 51.2981 118.167 51.5328 118.182 51.8157C118.197 52.1226 118.167 52.2911 117.776 52.279C117.403 52.264 117.25 52.1737 117.373 51.8217Z" fill="#303E74"/>
<path d="M77.4784 52.6063C77.021 52.7417 77.0421 52.4439 77.0511 52.1309C77.0631 51.6856 77.0541 51.6826 77.5325 51.6886C78.026 51.6916 77.9267 51.6224 77.9718 52.2152C78.0019 52.6334 77.8063 52.6755 77.4784 52.6063Z" fill="#29376F"/>
<path d="M67.2571 43.474C67.3925 43.9223 67.1037 43.8832 66.7938 43.9133C66.3635 43.9584 66.3755 43.7388 66.3454 43.4198C66.2973 42.9204 66.6162 43.0588 66.878 43.0257C67.2481 42.9775 67.3354 43.146 67.2571 43.474Z" fill="#27356E"/>
<path d="M62.0548 43.0287C62.3196 42.9685 62.4971 43.0197 62.4761 43.4349C62.458 43.7869 62.4038 43.9283 62.0097 43.9163C61.6486 43.9073 61.5042 43.8351 61.5403 43.4469C61.5764 43.0317 61.5493 43.0287 62.0548 43.0287Z" fill="#27356E"/>
<path d="M117.153 51.807C117.228 52.1319 117.147 52.2704 116.747 52.2794C116.314 52.2884 116.347 52.0778 116.329 51.7829C116.305 51.4249 116.404 51.3226 116.777 51.3165C117.189 51.3105 117.195 51.5061 117.153 51.807Z" fill="#2B3871"/>
<path d="M117.238 43.1478C117.358 43.5419 117.126 43.5389 116.822 43.56C116.434 43.5871 116.419 43.4125 116.413 43.1056C116.407 42.7777 116.476 42.6603 116.837 42.6543C117.235 42.6543 117.313 42.8108 117.238 43.1478Z" fill="#303E74"/>
<path d="M116.224 43.1266C116.356 43.5508 116.115 43.5418 115.811 43.5629C115.429 43.59 115.399 43.4275 115.396 43.1115C115.393 42.7806 115.465 42.6572 115.826 42.6602C116.202 42.6632 116.344 42.7745 116.224 43.1266Z" fill="#303E74"/>
<path d="M54.3762 43.1416C54.4935 43.5238 54.2829 43.5448 53.967 43.5629C53.5939 43.5839 53.5457 43.4365 53.5517 43.1176C53.5547 42.8046 53.5908 42.6572 53.967 42.6602C54.3551 42.6572 54.4574 42.7926 54.3762 43.1416Z" fill="#303E74"/>
<path d="M53.3681 43.1202C53.4704 43.4723 53.32 43.5595 52.974 43.5626C52.64 43.5656 52.5196 43.4964 52.5347 43.1353C52.5467 42.8043 52.5798 42.6448 52.977 42.6569C53.3381 42.6689 53.4554 42.7802 53.3681 43.1202Z" fill="#303E74"/>
<path d="M4.0648 49.7364C3.66462 49.8568 3.66763 49.6191 3.64055 49.3001C3.60745 48.8909 3.79099 48.8548 4.11595 48.8699C4.56126 48.8909 4.52816 48.8789 4.57029 49.3543C4.6094 49.7906 4.37772 49.7846 4.0648 49.7364Z" fill="#27356E"/>
<path d="M88.7015 43.0717C88.6293 42.7739 88.7557 42.6656 89.1318 42.6565C89.547 42.6475 89.5019 42.8611 89.529 43.1349C89.5651 43.505 89.4207 43.5802 89.0867 43.5532C88.7045 43.5261 88.7015 43.5471 88.7015 43.0717Z" fill="#2B3871"/>
<path d="M88.4968 43.1195C88.5901 43.4595 88.4607 43.5618 88.1087 43.5618C87.7717 43.5618 87.6573 43.4896 87.6754 43.1345C87.6904 42.8126 87.7085 42.6441 88.1117 42.6591C88.4758 42.6682 88.5751 42.7885 88.4968 43.1195Z" fill="#2B3871"/>
<path d="M131.987 58.0051C132.068 58.3481 131.969 58.4714 131.581 58.4805C131.136 58.4925 131.193 58.2578 131.175 57.975C131.157 57.653 131.217 57.5206 131.59 57.5176C131.996 57.5146 132.062 57.6741 131.987 58.0051Z" fill="#2B3871"/>
<path d="M132.998 58.0174C133.067 58.3273 132.998 58.4657 132.619 58.4807C132.162 58.5018 132.207 58.2701 132.192 57.9662C132.174 57.6352 132.252 57.5269 132.613 57.5179C133.034 57.5089 133.058 57.7044 132.998 58.0174Z" fill="#2B3871"/>
<path d="M22.5181 42.3592C22.4068 41.9891 22.5963 41.953 22.9243 41.9349C23.3094 41.9169 23.3245 42.0824 23.3335 42.3893C23.3425 42.7293 23.2583 42.8316 22.9032 42.8346C22.5121 42.8406 22.4489 42.6811 22.5181 42.3592Z" fill="#27356E"/>
<path d="M22.807 43.4472C22.8702 43.7571 22.813 43.9105 22.4249 43.9196C22.0126 43.9286 22.0096 43.7511 21.9886 43.4351C21.9645 43.059 22.1149 43.0229 22.4339 43.0139C22.7919 43.0079 22.8882 43.1282 22.807 43.4472Z" fill="#29376F"/>
<path d="M23.815 43.4601C23.8992 43.7971 23.7879 43.9024 23.4268 43.9205C22.9875 43.9446 23.0327 43.7159 23.0116 43.427C22.9845 43.087 23.1109 43.0238 23.4268 43.0178C23.7789 43.0118 23.9083 43.1171 23.815 43.4601Z" fill="#29376F"/>
<path d="M57.0119 59.552C57.1142 59.9101 56.9518 59.9763 56.6118 59.9973C56.1695 60.0244 56.2296 59.7777 56.1995 59.4948C56.1604 59.1248 56.3349 59.1157 56.6268 59.0977C57.0029 59.0766 57.0932 59.224 57.0119 59.552Z" fill="#29376F"/>
<path d="M57.2437 59.5219C57.1203 59.1277 57.3399 59.1187 57.6499 59.0946C58.0591 59.0645 58.026 59.2782 58.044 59.561C58.0681 59.913 57.9538 59.9883 57.6107 59.9973C57.2075 60.0093 57.1714 59.8258 57.2437 59.5219Z" fill="#29376F"/>
</g>
<defs>
<clipPath id="clip0_8134_8725">
<rect width="256.067" height="60" fill="white" transform="translate(0.932617)"/>
</clipPath>
</defs>
</svg>
