<svg width="255" height="60" viewBox="0 0 255 60" fill="none" xmlns="http://www.w3.org/2000/svg">
<g id="Group">
<path id="Vector" d="M138.374 25.2827C137.951 26.0258 137.373 26.5855 136.588 26.9165C135.908 27.2023 135.195 27.3257 134.467 27.3798C132.84 27.4942 131.207 27.5784 129.595 27.2956C128.33 27.0729 127.287 26.429 126.619 25.2255C126.209 25.9235 125.696 26.4712 124.983 26.8202C124 27.3016 122.943 27.4099 121.885 27.434C120.246 27.4701 118.604 27.431 116.965 27.428C114.715 27.425 112.462 27.443 110.211 27.422C108.824 27.4069 107.491 27.1241 106.283 26.3959C105.855 26.1372 105.462 25.8273 105.162 25.4181C105.043 25.2556 104.959 25.2074 104.791 25.3789C103.769 26.423 102.505 27.0007 101.102 27.3317C99.2028 27.78 97.2851 27.8252 95.3645 27.5844C94.0611 27.422 92.7936 27.088 91.655 26.3839C91.2205 26.1161 90.7951 25.8303 90.4505 25.4481C90.3306 25.3158 90.2587 25.3127 90.1449 25.4602C89.4137 26.414 88.392 26.8894 87.2654 27.1782C86.3305 27.4159 85.3747 27.4551 84.4159 27.4551C73.2635 27.4551 62.1142 27.4551 50.9618 27.4551C50.003 27.4551 49.0471 27.3678 48.1153 27.1482C47.1355 26.9195 46.3265 26.3899 45.7781 25.5143C45.6972 25.385 45.6613 25.2676 45.5294 25.4873C44.8433 26.6216 43.7466 27.1151 42.5121 27.2956C41.0529 27.5092 39.5787 27.5152 38.1045 27.3889C37.1517 27.3076 36.2168 27.1542 35.3569 26.6848C34.8205 26.3899 34.4011 25.9777 34.0715 25.4752C33.9576 25.3007 33.9156 25.2736 33.7928 25.4722C33.2175 26.411 32.3366 26.9405 31.2999 27.1722C29.2653 27.6266 27.2069 27.5513 25.1604 27.2956C24.3484 27.1933 23.5933 26.8262 22.988 26.2274C22.9401 26.1793 22.8832 26.1402 22.7843 26.0589C22.7633 26.8021 22.7603 27.4912 22.6614 28.1742C22.2479 31.0808 20.8127 33.2652 18.1819 34.6282C16.7976 35.3443 15.3324 35.7265 13.7953 35.916C12.36 36.0905 10.9308 36.0935 9.49553 35.9702C7.9644 35.8378 6.48422 35.4888 5.09392 34.8238C2.35826 33.5179 0.650353 31.3967 0.158954 28.3698C-0.245551 25.8694 0.176932 23.4713 1.12677 21.1485C1.55525 20.1044 2.07062 19.1114 2.71483 18.1817C2.90659 17.9079 3.11634 17.9019 3.392 18.0012C4.48566 18.3953 5.58232 18.7835 6.67598 19.1746C6.88872 19.2499 7.10745 19.313 7.30821 19.4184C7.5629 19.5507 7.51795 19.7644 7.3921 19.969C6.95164 20.6821 6.56811 21.4253 6.21155 22.1835C5.47445 23.7421 5.1898 25.3729 5.39055 27.088C5.63625 29.2032 7.12243 30.8822 9.18391 31.4569C10.718 31.8841 12.2582 31.9563 13.7863 31.5471C16.1594 30.9123 17.3549 29.5613 17.5317 26.9767C17.5437 26.7961 17.5437 26.6156 17.5437 26.4351C17.5437 22.3009 17.5437 18.1667 17.5437 14.0325C17.5437 13.4518 17.6306 13.3645 18.2089 13.3645C19.5153 13.3645 20.8187 13.3615 22.1251 13.3645C22.6794 13.3645 22.7693 13.4578 22.7693 14.0174C22.7723 16.2891 22.7573 18.5608 22.7873 20.8295C22.8022 22.0692 23.3356 22.6409 24.5042 23.02C25.463 23.3299 26.4338 23.3239 27.3777 23.1704C28.3994 23.0049 29.0646 22.701 29.2414 21.2929C29.2923 20.8897 29.3103 20.4775 29.3133 20.0713C29.3193 18.0403 29.3163 16.0093 29.3163 13.9783C29.3163 13.4668 29.4152 13.3645 29.9215 13.3645C31.2519 13.3615 32.5793 13.3615 33.9097 13.3645C34.428 13.3645 34.5239 13.4638 34.5239 13.9663C34.5239 16.1898 34.5209 18.4134 34.5239 20.6369C34.5269 21.8194 35.0243 22.5837 36.0221 22.9658C36.7052 23.2246 37.4214 23.2637 38.1375 23.2517C38.6978 23.2426 39.2611 23.2186 39.7825 22.9628C40.6065 22.5566 40.9121 21.8345 40.972 20.9739C41.011 20.3992 41.0289 19.8215 41.0319 19.2469C41.0379 16.4095 41.0349 13.5751 41.0349 10.7377C41.0349 10.1992 41.0799 10.154 41.6012 10.154C42.9556 10.154 44.3069 10.154 45.6613 10.154C46.2036 10.154 46.2426 10.1931 46.2426 10.7588C46.2426 13.9903 46.2426 17.2249 46.2426 20.4564C46.2426 21.8345 46.9347 22.6439 48.2711 23.02C49.0142 23.2276 49.7573 23.2607 50.5034 23.2637C61.9553 23.2727 73.4043 23.2667 84.8563 23.2727C85.8511 23.2727 86.714 22.9899 87.3493 22.1955C87.8616 21.5607 87.9905 20.7814 88.0294 19.9961C88.0684 19.1927 88.0115 18.3863 88.0474 17.5829C88.1313 15.8408 88.5358 14.1889 89.5516 12.7386C90.4085 11.514 91.5531 10.6655 92.9554 10.145C95.0199 9.37774 97.1383 9.24534 99.3046 9.48004C100.141 9.5703 100.968 9.69968 101.756 9.96447C104.108 10.7498 105.765 12.2753 106.592 14.6583C107.188 16.3734 107.218 18.1426 107.161 19.9269C107.131 20.8325 107.257 21.7021 107.925 22.3941C108.524 23.014 109.276 23.2637 110.115 23.2637C113.324 23.2667 116.537 23.2727 119.746 23.2577C120.228 23.2547 120.728 23.2637 121.172 22.9929C121.403 22.8515 121.588 22.686 121.69 22.4272C121.954 21.7532 121.987 21.0462 121.99 20.3361C121.996 18.2449 121.99 16.1537 121.993 14.0626C121.993 13.4427 122.074 13.3615 122.703 13.3615C123.997 13.3615 125.289 13.3615 126.583 13.3615C127.123 13.3615 127.215 13.4548 127.215 13.9843C127.215 16.1597 127.215 18.3352 127.215 20.5106C127.215 21.1605 127.305 21.7803 127.746 22.2978C128.24 22.8816 128.923 23.0952 129.637 23.1945C130.41 23.3058 131.195 23.2818 131.965 23.1885C133.082 23.0531 133.538 22.6318 133.682 21.6028C133.742 21.1605 133.762 20.7182 133.762 20.2729C133.759 18.1937 133.762 16.1146 133.762 14.0355C133.762 13.4487 133.849 13.3585 134.419 13.3585C135.725 13.3585 137.028 13.3585 138.335 13.3585C138.895 13.3585 138.988 13.4518 138.988 14.0024C138.988 16.1898 138.985 18.3773 138.988 20.5647C138.991 21.9007 139.512 22.5837 140.75 23.026C141.451 23.2757 142.158 23.2577 142.874 23.2246C143.3 23.2065 143.725 23.2065 144.151 23.0771C144.864 22.8605 145.193 22.364 145.328 21.687C145.466 20.989 145.481 20.2789 145.481 19.5688C145.484 16.6472 145.481 13.7286 145.481 10.807C145.481 10.1841 145.52 10.145 146.119 10.145C147.486 10.145 148.849 10.145 150.215 10.145C150.614 10.145 150.704 10.2323 150.704 10.6294C150.707 14.5711 150.713 18.5127 150.698 22.4543C150.695 23.4683 150.542 24.4642 150.051 25.3759C149.625 26.1612 148.963 26.6427 148.145 26.9526C147.063 27.3588 145.931 27.44 144.795 27.443C143.731 27.446 142.668 27.5122 141.607 27.3227C140.294 27.091 139.204 26.5313 138.467 25.3789C138.446 25.3549 138.416 25.3308 138.374 25.2827ZM97.6597 23.5345C98.1151 23.4864 98.6365 23.5044 99.1578 23.366C100.144 23.1072 100.953 22.5957 101.363 21.66C102.196 19.7614 102.187 17.8056 101.504 15.8679C101.123 14.7877 100.308 14.1017 99.2237 13.7707C98.4507 13.533 97.6537 13.53 96.8447 13.6022C95.1128 13.7556 93.9981 14.7606 93.5487 16.2741C93.1232 17.7123 93.1352 19.1686 93.4468 20.6219C93.6775 21.6961 94.2049 22.5626 95.2296 23.0802C95.9817 23.4563 96.7787 23.5195 97.6597 23.5345Z" fill="white"/>
<path id="Vector_2" d="M195.418 57.2094C193.923 57.1943 192.425 57.3267 190.932 57.1642C190.414 57.1071 189.893 57.0198 189.398 56.8272C188.616 56.5203 188.125 55.9246 187.801 55.1754C187.289 53.9929 187.1 52.7321 186.941 51.4684C186.705 49.5849 186.519 47.6983 186.291 45.8147C186.138 44.542 185.707 43.4227 184.682 42.5531C183.472 41.5241 182.8 40.134 182.279 38.6566C181.982 37.8202 181.611 37.0168 181.063 36.3037C180.811 35.9757 180.517 35.6929 180.188 35.4672C178.666 34.4322 177.979 32.9217 177.653 31.1736C177.38 29.7112 177.251 28.2249 176.871 26.7806C176.529 25.4868 175.888 24.4216 174.764 23.6393C173.814 22.9774 173.326 21.9664 172.996 20.8802C172.589 19.5352 172.16 18.2023 171.327 17.0439C170.989 16.5745 170.56 16.1984 170.111 15.8403C169.128 15.055 168.292 14.1463 167.798 12.9668C167.184 11.5015 167.396 10.1174 168.307 8.84468C169.266 7.50272 170.593 6.69033 172.184 6.36236C173.14 6.16678 174.12 6.18183 175.007 6.69033C176.119 7.33122 176.574 8.38131 176.727 9.59991C176.835 10.4424 176.811 11.2879 176.634 12.1093C176.376 13.2978 176.517 14.4532 176.811 15.5996C177.371 17.769 178.228 19.8211 179.352 21.7588C179.507 22.0266 179.699 22.2733 179.891 22.517C179.939 22.5772 180.008 22.7006 180.122 22.6404C180.206 22.5952 180.185 22.4899 180.179 22.4087C180.158 21.9965 180.035 21.6053 179.894 21.2232C179.642 20.5372 179.415 19.8391 179.118 19.1711C178.405 17.5734 178.384 15.9035 178.609 14.2215C178.866 12.2868 179.633 10.5838 181.119 9.27194C182.444 8.1045 183.963 7.58095 185.752 7.7314C188.416 7.95405 189.21 10.8005 188.23 12.672C187.637 13.8063 186.672 14.4743 185.509 14.9046C185.251 15.0008 184.991 15.0821 184.745 15.1994C184.323 15.404 183.999 15.7139 183.873 16.1863C183.388 17.9856 183.256 19.803 183.63 21.6414C183.711 22.0416 183.84 22.4267 184.032 22.7938C184.236 23.182 184.565 23.3445 184.976 23.3204C186.039 23.2602 186.777 22.7547 186.881 21.5843C186.956 20.7598 186.959 19.9264 187.136 19.114C187.187 18.8793 187.232 18.6386 187.325 18.4219C187.78 17.3568 188.41 17.1763 189.407 17.4711C190.956 17.9285 192.014 18.9726 192.479 20.5462C192.757 21.494 192.586 22.4267 192.254 23.3354C191.798 24.5841 191.064 25.6793 190.318 26.7625C189.485 27.9721 188.544 29.1125 187.906 30.4484C187.634 31.0201 187.463 31.6068 187.637 32.2567C187.714 32.5426 187.861 32.6208 188.122 32.5967C188.362 32.5757 188.589 32.5155 188.817 32.4373C189.497 32.2026 189.95 32.4102 190.231 33.0691C190.465 33.6138 190.681 33.6468 191.073 33.2076C191.496 32.7352 191.783 32.1845 192.008 31.6008C192.368 30.6681 192.874 29.8376 193.626 29.1787C195.442 27.593 197.545 28.1827 198.69 30.0783C200.059 32.347 199.685 34.5886 198.262 36.7039C197.267 38.1812 195.894 39.1892 194.252 39.8572C193.518 40.155 192.811 40.5281 192.215 41.0788C191.172 42.0416 190.819 43.2271 191.097 44.6022C191.244 45.3213 191.727 45.5259 192.383 45.2009C192.913 44.9361 193.249 44.4638 193.659 44.0666C194.064 43.6754 194.519 43.3625 195.052 43.1639C195.936 42.8329 196.715 43.4046 197.084 44.0696C197.677 45.1408 197.782 46.3022 197.671 47.4937C197.515 49.1757 196.868 50.638 195.664 51.8355C195.511 51.9859 195.376 52.1544 195.238 52.3199C195.163 52.4102 195.055 52.5155 195.127 52.6389C195.205 52.7713 195.34 52.681 195.454 52.669C195.999 52.6058 196.515 52.3651 197.075 52.4072C197.83 52.4644 198.438 52.7562 198.756 53.4844C199.029 54.1132 199.172 54.7601 198.96 55.4462C198.864 55.7561 198.918 56.0329 199.142 56.2796C199.313 56.4632 199.469 56.6617 199.622 56.8573C199.694 56.9506 199.796 57.0619 199.73 57.1793C199.67 57.2846 199.532 57.2274 199.43 57.2274C198.208 57.2214 196.988 57.2124 195.766 57.2033C195.658 57.2094 195.538 57.2094 195.418 57.2094Z" fill="white"/>
<path id="Vector_3" d="M223.35 42.0266C223.02 41.1541 222.697 40.3988 222.475 39.6045C222.391 39.3036 222.316 38.9997 222.271 38.6928C222.178 38.07 222.457 37.7661 223.086 37.7721C223.167 37.7721 223.248 37.7721 223.371 37.7721C223.05 37.1763 222.727 36.6227 222.496 36.0209C222.298 35.5034 222.131 34.9799 222.08 34.4232C222.008 33.5988 222.355 33.1414 223.167 33.003C223.392 32.9639 223.335 32.8676 223.272 32.7382C222.928 32.0492 222.646 31.3391 222.469 30.5899C222.367 30.1566 222.298 29.7173 222.325 29.269C222.355 28.7816 222.523 28.3814 223.038 28.2279C223.233 28.1708 223.173 28.0594 223.119 27.927C222.784 27.1177 222.457 26.3053 222.328 25.4327C222.19 24.512 222.529 23.8079 223.287 23.4348C222.487 22.7337 221.957 21.9033 222.047 20.787C222.053 20.7238 222.059 20.6576 221.999 20.6275C221.891 20.5764 221.828 20.6576 221.753 20.7208C221.16 21.2383 220.623 21.813 220.126 22.4238C218.082 24.9332 216.608 27.7646 215.419 30.7584C215.239 31.2127 214.975 31.4023 214.598 31.3511C214.208 31.297 213.995 31.0593 213.948 30.5718C213.78 28.923 214.004 27.3132 214.448 25.7276C215.137 23.2543 216.33 21.0277 217.756 18.9125C217.816 18.8222 217.969 18.7289 217.873 18.6116C217.792 18.5153 217.645 18.5785 217.534 18.6206C216.336 19.0719 215.125 19.4962 213.945 19.9926C212.578 20.5643 211.203 21.124 209.884 21.804C209.573 21.9635 209.27 22.0116 208.986 21.7769C208.683 21.5272 208.635 21.1842 208.737 20.8291C208.908 20.2424 209.117 19.6677 209.372 19.111C210.247 17.1914 211.521 15.6238 213.393 14.6128C214.202 14.1765 215.074 13.8906 215.988 13.7522C216.072 13.7402 216.153 13.7221 216.234 13.7011C216.306 13.683 216.372 13.6469 216.369 13.5627C216.369 13.4874 216.297 13.4754 216.243 13.4544C215.724 13.2467 215.212 13.0271 214.691 12.8315C213.558 12.4073 212.422 11.986 211.281 11.5798C210.777 11.3993 210.268 11.2368 209.75 11.1014C209.363 10.9991 209.162 10.7554 209.087 10.3883C209.016 10.0333 209.18 9.70228 209.504 9.50972C210.987 8.6221 212.626 8.31519 214.319 8.2159C215.47 8.14669 216.614 8.26705 217.759 8.36935C217.849 8.37838 217.96 8.42953 218.017 8.31519C218.061 8.22793 217.978 8.15873 217.936 8.08953C217.229 6.95217 216.497 5.83287 215.56 4.87003C215.287 4.5902 215.203 4.25923 215.329 3.8771C215.446 3.51302 215.724 3.38665 216.066 3.35656C218.214 3.15798 220.03 3.79887 221.423 5.5049C221.531 5.63729 221.609 5.89305 221.789 5.85694C221.978 5.81782 221.933 5.55605 221.972 5.38755C222.352 3.84099 222.718 2.28841 223.44 0.850169C223.695 0.341669 224.093 0.0287462 224.638 0.0197196C225.202 0.010693 225.615 0.326625 225.873 0.850169C226.595 2.30045 226.976 3.86205 227.344 5.42667C227.38 5.58313 227.338 5.82685 227.515 5.86597C227.689 5.90508 227.758 5.66738 227.86 5.54402C229.199 3.87108 230.967 3.21515 233.058 3.33249C233.442 3.35355 233.831 3.41674 233.978 3.87108C234.122 4.31038 233.975 4.65038 233.663 4.97233C232.756 5.91411 232.048 7.00633 231.365 8.1136C231.326 8.17979 231.239 8.252 231.308 8.33926C231.368 8.41148 231.461 8.37838 231.545 8.37236C232.63 8.28209 233.714 8.17076 234.805 8.20988C236.321 8.26404 237.786 8.54988 239.18 9.15768C239.428 9.266 239.665 9.40741 239.89 9.56388C240.183 9.76547 240.288 10.0664 240.219 10.4154C240.15 10.7554 239.962 10.9991 239.611 11.0924C238.577 11.3662 237.58 11.7543 236.576 12.1154C235.482 12.5096 234.401 12.9308 233.313 13.34C233.292 13.349 233.262 13.349 233.247 13.3641C233.157 13.4513 232.941 13.4213 232.956 13.5807C232.971 13.7312 233.157 13.7282 233.283 13.7462C234.14 13.8666 234.949 14.1404 235.719 14.5195C237.472 15.38 238.715 16.7551 239.626 18.4581C240.001 19.1592 240.294 19.8903 240.528 20.6486C240.576 20.808 240.627 20.9765 240.627 21.139C240.636 21.7679 240.052 22.1109 239.476 21.825C238.245 21.2142 236.98 20.6757 235.707 20.1521C234.421 19.6225 233.127 19.1291 231.827 18.6417C231.704 18.5965 231.548 18.5093 231.458 18.6116C231.347 18.7379 231.518 18.8432 231.584 18.9425C233.028 21.0909 234.227 23.3566 234.91 25.872C235.323 27.3915 235.509 28.932 235.38 30.5057C235.323 31.1826 234.886 31.5106 234.332 31.291C234.128 31.2097 234.014 31.0593 233.936 30.8607C233.091 28.7184 232.099 26.6483 230.847 24.7136C229.924 23.2874 228.893 21.9484 227.644 20.79C227.56 20.7118 227.47 20.5493 227.314 20.6365C227.2 20.6997 227.272 20.8351 227.275 20.9344C227.311 21.9935 226.784 22.7728 226.032 23.4408C226.733 23.7929 227.086 24.4548 227.009 25.2311C226.913 26.1759 226.565 27.0454 226.203 27.906C226.122 28.0986 226.113 28.1828 226.343 28.261C226.796 28.4115 226.961 28.7906 226.985 29.2389C227.033 30.1867 226.757 31.0653 226.412 31.9289C226.301 32.2057 226.179 32.4795 226.041 32.7443C225.951 32.9188 225.954 32.988 226.173 33.012C226.907 33.0933 227.326 33.659 227.239 34.4232C227.152 35.1814 226.901 35.8915 226.574 36.5776C226.385 36.9747 226.185 37.3629 225.915 37.7781C226.125 37.7781 226.274 37.7721 226.421 37.7781C226.799 37.7992 227.056 38.073 227.051 38.4641C227.039 39.1471 226.79 39.776 226.574 40.4109C226.4 40.9164 226.197 41.4158 225.99 41.9635C226.203 41.8882 226.37 41.816 226.547 41.7739C226.802 41.7137 226.979 41.819 227.006 42.0868C227.128 43.2964 226.475 44.9422 225.543 45.4989C224.824 45.9292 223.841 45.7727 223.305 45.1168C222.646 44.3104 222.304 43.3836 222.298 42.3366C222.295 41.795 222.55 41.6204 223.044 41.8461C223.11 41.8792 223.179 41.9273 223.35 42.0266Z" fill="white"/>
<path id="Vector_4" d="M176.985 57.2375C174.255 57.2375 171.522 57.2375 168.793 57.2375C168.34 57.2375 168.013 57.0178 168.013 56.5785C168.01 55.5314 167.483 54.7371 166.887 53.9578C165.949 52.7332 164.948 51.5597 163.932 50.3983C163.01 49.3482 162.225 48.2048 161.901 46.8117C161.649 45.7315 161.901 44.7988 162.728 44.0315C163.45 43.3605 164.418 43.3876 165.251 44.0887C166.506 45.1418 167.309 46.5259 168.115 47.9129C168.547 48.6531 168.858 49.4715 169.524 50.0643C169.943 50.4374 170.213 50.4073 170.399 49.8747C170.704 48.9991 170.767 48.0845 170.668 47.1698C170.479 45.4216 169.853 43.848 168.649 42.5391C167.822 41.6425 166.851 41.0587 165.571 41.152C165.035 41.1911 164.511 41.152 164.01 40.8812C162.866 40.2614 162.965 38.9676 163.519 38.2214C164.49 36.9155 166.033 36.7891 167.252 37.8753C168.262 38.772 169.026 39.8732 169.883 40.8993C170.273 41.3656 170.644 41.8531 171.202 42.1419C171.843 42.4729 172.532 42.0366 172.511 41.3145C172.496 40.815 172.265 40.3908 172.02 39.9785C171.519 39.1421 170.902 38.3899 170.222 37.7038C169.362 36.8373 168.858 35.8203 168.679 34.6137C168.544 33.705 168.301 32.8264 167.591 32.1645C166.617 31.2588 165.476 30.9639 164.187 31.2317C163.771 31.319 163.348 31.4243 162.953 31.5808C162.027 31.9479 161.317 31.5477 160.684 30.9459C158.89 29.2429 158.383 26.9381 159.27 24.6182C159.42 24.2241 159.618 23.854 159.887 23.529C160.741 22.491 161.649 22.4609 162.737 23.0987C163.525 23.5591 164.334 23.7156 165.191 23.3455C165.802 23.0837 165.949 22.4127 165.551 21.8862C164.999 21.158 164.214 20.8361 163.378 20.6104C162.428 20.3547 161.437 20.3607 160.481 20.1621C157.661 19.5814 156.187 17.5594 157.035 14.5987C157.257 13.8254 157.94 13.4944 158.605 13.1815C159.672 12.679 160.786 12.6248 161.883 12.9799C163.201 13.4072 164.304 14.1594 164.924 15.4712C165.619 16.9396 166.117 18.4831 166.557 20.0387C166.929 21.3446 167.546 22.4398 168.679 23.2131C169.368 23.6825 169.611 24.3655 169.599 25.1689C169.593 25.6382 169.59 26.1046 169.59 26.574C169.59 27.8859 169.952 28.3402 171.235 28.596C171.681 28.6832 171.99 28.9209 172.208 29.3061C173.269 31.1776 173.629 33.2086 173.581 35.3358C173.56 36.2836 173.476 37.2314 173.62 38.1762C173.742 38.9736 174.072 39.6686 174.65 40.2253C175.19 40.7488 175.786 41.1911 176.505 41.4649C176.949 41.6334 177.209 42.0246 177.386 42.4609C177.698 43.2221 177.761 44.0255 177.704 44.8319C177.578 46.6011 178.195 47.7414 179.786 48.5719C180.185 48.7795 180.598 48.963 181.006 49.1586C182.171 49.7153 183.055 50.6209 183.9 51.5657C184.895 52.682 185.626 53.9488 185.893 55.4472C185.95 55.7661 185.977 56.0911 185.983 56.413C185.995 56.9456 185.698 57.2314 185.171 57.2314C182.447 57.2375 179.714 57.2375 176.985 57.2375Z" fill="white"/>
<path id="Vector_5" d="M245.583 53.8187C244.861 53.1809 244.225 52.5881 243.674 51.9141C243.009 51.1077 242.425 50.2502 242.134 49.2242C241.762 47.9153 242.128 46.8291 243.138 45.9596C243.968 45.2435 244.942 44.7741 246.029 44.6688C247.18 44.5574 248.16 45.0178 248.912 45.8873C250.086 47.2444 250.533 48.8451 250.242 50.6053C249.996 52.0856 250.599 53.1327 251.71 53.9903C252.187 54.3573 252.762 54.5288 253.295 54.7876C253.853 55.0584 254.398 55.3503 254.787 55.8618C255.006 56.1476 255.078 56.4485 254.913 56.7674C254.758 57.0713 254.512 57.2368 254.14 57.2368C248.981 57.2308 243.818 57.2699 238.658 57.2067C237.412 57.1917 236.243 56.6682 235.332 55.7444C234.763 55.1637 234.532 54.4295 234.655 53.6262C234.859 52.2782 235.461 51.1288 236.513 50.2472C237.226 49.6484 238.041 49.6394 238.868 49.9644C240.073 50.4338 241.04 51.2702 242.044 52.0525C242.802 52.6423 243.545 53.2681 244.45 53.6292C244.774 53.7586 245.115 53.8699 245.583 53.8187Z" fill="white"/>
<path id="Vector_6" d="M239.012 32.9828C239.021 32.4291 239.08 31.8815 239.176 31.3369C239.401 30.0732 239.212 28.8576 238.76 27.6661C238.406 26.7363 238.011 25.8246 237.507 24.9671C237.382 24.7535 237.319 24.5459 237.474 24.3322C237.63 24.1186 237.867 24.0675 238.113 24.0945C239.836 24.2841 241.519 24.6542 243.102 25.3793C245.4 26.4354 247.213 28.0301 248.348 30.3319C248.759 31.1654 248.831 32.0801 248.956 32.9828C249.187 34.6346 249.421 36.2865 250.023 37.8541C250.095 38.0437 250.188 38.2272 250.284 38.4048C250.377 38.5732 250.437 38.7327 250.314 38.9072C250.182 39.0938 249.987 39.1028 249.795 39.0487C248.983 38.82 248.273 38.4017 247.614 37.8782C246.574 37.0538 246.152 35.8322 245.559 34.7189C245.148 33.9486 244.759 33.1663 244.228 32.4652C244.03 32.2035 243.809 31.9778 243.509 31.8394C243.371 31.7762 243.221 31.7491 243.105 31.8544C242.988 31.9597 243.102 32.0771 243.135 32.1824C243.371 32.9045 243.563 33.6297 243.509 34.3999C243.419 35.6607 242.742 36.0759 241.693 36.1661C240.159 36.3015 239.191 35.4139 239.042 33.7741C239.024 33.5123 239.024 33.2475 239.012 32.9828Z" fill="white"/>
<path id="Vector_7" d="M228.944 53.4543C229.465 53.8394 229.861 54.2877 230.406 54.5495C230.864 54.7691 231.146 54.6819 231.374 54.2336C231.437 54.1072 231.5 53.9748 231.548 53.8394C231.748 53.2767 232.282 53.2497 232.713 53.5536C233.726 54.2607 233.795 55.2596 232.92 56.1262C232.447 56.5955 231.898 56.9385 231.281 57.1672C230.733 57.3688 230.223 57.1853 229.726 56.9626C229.046 56.6587 228.485 56.1773 227.919 55.7079C227.838 55.6417 227.76 55.5725 227.655 55.4853C227.542 56.078 227.308 56.5564 226.739 56.7339C225.897 56.9987 225.132 56.4511 225.022 55.5605C224.944 54.9376 225.237 54.4653 225.612 54.038C225.822 53.8003 225.744 53.698 225.552 53.5144C223.167 51.2427 220.782 48.971 218.319 46.7866C216.719 45.3694 215.089 43.9883 213.297 42.8149C211.652 41.7377 209.899 40.8892 208.056 40.2032C206.822 39.7428 205.581 39.3005 204.332 38.8853C204.143 38.8221 203.93 38.7409 203.957 38.4761C203.984 38.2143 204.197 38.1812 204.395 38.1331C205.836 37.7871 207.259 37.9375 208.686 38.2625C210.253 38.6205 211.694 39.2855 213.075 40.0768C214.406 40.8381 215.601 41.7979 216.788 42.7667C219.427 44.9241 222.001 47.1627 224.563 49.4103C225.411 50.1535 226.217 50.9479 227.032 51.7332C227.212 51.9077 227.281 51.8656 227.404 51.682C227.595 51.3962 227.802 51.1134 228.039 50.8606C228.375 50.5056 228.83 50.4454 229.267 50.5597C229.768 50.6891 230.055 51.0863 230.181 51.5737C230.406 52.4403 229.891 53.2497 228.944 53.4543Z" fill="white"/>
<path id="Vector_8" d="M202.741 13.2656C204.398 13.3198 205.935 13.4853 207.427 13.9607C207.742 14.06 207.886 14.2525 207.904 14.5504C207.925 14.8513 207.787 15.074 207.505 15.2064C206.786 15.5433 206.079 15.9014 205.414 16.3437C204.173 17.1681 203.421 18.3025 203.113 19.7498C203.017 20.1951 202.918 20.6434 202.759 21.0676C202.193 22.5961 200.97 23.3544 199.487 23.7816C198.409 24.0946 197.414 23.8809 196.581 23.1468C195.742 22.4036 195.319 21.4137 195.196 20.3064C195.002 18.5402 195.64 17.0327 196.719 15.6938C197.749 14.412 199.137 13.7501 200.734 13.4492C201.441 13.3168 202.142 13.3348 202.741 13.2656Z" fill="white"/>
<path id="Vector_9" d="M205.896 33.4967C205.896 32.8648 206.049 32.26 206.274 31.6733C206.36 31.4446 206.283 31.4085 206.082 31.4085C205.845 31.4085 205.68 31.5319 205.527 31.6913C204.91 32.3413 204.536 33.1507 204.107 33.9239C203.688 34.6852 203.397 35.5216 202.843 36.2107C202.148 37.0772 201.24 37.6128 200.2 37.9498C200.044 38.001 199.921 37.9679 199.813 37.8445C199.718 37.7362 199.67 37.6068 199.736 37.4804C200.622 35.7293 200.82 33.8096 201.054 31.911C201.225 30.5209 201.794 29.3474 202.684 28.3034C203.712 27.0968 204.949 26.1911 206.405 25.5502C207.73 24.9665 209.126 24.7017 210.531 24.443C210.636 24.4249 210.747 24.4279 210.855 24.4279C211.352 24.4339 211.568 24.792 211.322 25.2193C210.798 26.137 210.379 27.1028 210.043 28.1048C209.719 29.0706 209.65 30.0485 209.83 31.0505C209.98 31.8929 210.04 32.7445 209.863 33.5899C209.564 35.0071 208.674 35.4494 207.367 35.29C206.312 35.1666 205.89 34.6069 205.896 33.4967Z" fill="white"/>
<path id="Vector_10" d="M209.705 53.5746C209.959 54.2877 210.499 54.8173 210.909 55.4281C210.978 55.5304 211.152 55.6147 211.077 55.7531C211.005 55.8855 210.834 55.8102 210.715 55.7982C208.782 55.6357 207.038 54.9948 205.51 53.7732C204.947 53.3219 204.401 52.8675 204.057 52.2176C203.787 51.7121 203.673 51.1826 203.835 50.6229C203.883 50.4514 203.853 50.3461 203.718 50.2167C203.502 50.0091 203.356 49.7473 203.308 49.4344C203.278 49.2539 203.284 49.0463 203.077 48.9349C203.032 48.9109 203.014 48.8116 203.005 48.7424C202.939 48.1226 203.089 47.5509 203.421 47.0303C203.595 46.7565 203.859 46.8227 204.099 46.8979C205.378 47.3102 206.025 48.2489 205.983 49.6059C205.98 49.6872 205.983 49.7654 205.983 49.9008C206.145 49.6781 206.139 49.4705 206.136 49.275C206.133 49.0764 206.103 48.8808 206.079 48.6341C206.367 48.8146 206.511 49.0403 206.517 49.3261C206.532 49.9249 206.834 50.3461 207.317 50.647C207.538 50.7854 207.577 50.9058 207.449 51.1344C207.26 51.4684 207.206 51.8325 207.308 52.2898C207.407 51.9859 207.467 51.7392 207.568 51.5075C208 50.5417 208.785 49.973 209.732 49.5969C211.542 48.8778 213.429 48.8296 215.338 48.9259C215.673 48.944 216.009 48.941 216.342 48.947C216.435 48.95 216.545 48.9319 216.575 49.0553C216.605 49.1817 216.497 49.2057 216.417 49.2569C215.326 49.9369 214.13 50.3491 212.899 50.6831C211.979 50.9328 211.023 50.8787 210.094 51.0321C209.795 51.0803 209.54 51.2006 209.354 51.4744C209.561 51.4052 209.765 51.327 209.974 51.2698C210.637 51.0833 210.825 51.1826 211.137 51.7904C211.494 52.4884 211.748 53.2226 211.955 53.9748C212.096 54.4863 212.282 54.9768 212.668 55.3649C212.767 55.4642 212.824 55.5846 212.755 55.723C212.68 55.8734 212.533 55.8493 212.407 55.8373C211.772 55.7651 211.347 55.3348 210.915 54.9256C210.472 54.5044 210.148 53.9838 209.765 53.5115C209.738 53.5054 209.711 53.5024 209.684 53.4964C209.684 53.5205 209.696 53.5476 209.705 53.5746ZM209.225 51.4684C209.201 51.4985 209.162 51.5286 209.153 51.5677C209.147 51.5978 209.186 51.6279 209.225 51.6038C209.252 51.5888 209.282 51.5647 209.297 51.5346C209.321 51.4835 209.273 51.4865 209.225 51.4684Z" fill="white"/>
<path id="Vector_11" d="M24.2045 47.7808C23.7761 48.3254 22.6794 48.3284 22.2629 47.8109C21.7535 48.3224 20.7228 48.3194 20.2703 47.7868C20.0906 48.1208 19.7939 48.172 19.4523 48.1659C18.6973 48.1539 17.9422 48.1629 17.1901 48.1629C16.9504 48.1629 16.7137 48.1629 16.495 48.0305C16.3901 47.9674 16.2672 47.9523 16.1534 48.0155C15.8088 48.2051 15.4313 48.169 15.0657 48.169C12.2641 48.172 9.45957 48.1629 6.658 48.1629C6.39731 48.1629 6.15162 48.1359 5.9988 47.8921C5.92989 47.7808 5.89393 47.7928 5.82801 47.8921C5.67819 48.1118 5.45647 48.1629 5.20477 48.1629C3.83845 48.1599 2.47511 48.1629 1.10879 48.1599C0.692295 48.1599 0.446596 47.9884 0.371687 47.5762C0.242845 46.8511 0.338728 46.1139 0.314757 45.3827C0.311761 45.2744 0.37768 45.2353 0.473563 45.2323C0.521504 45.2293 0.569445 45.2293 0.617387 45.2293C1.33351 45.2353 1.18969 45.1781 1.19868 45.7889C1.20467 46.162 1.20467 46.5351 1.19868 46.9052C1.19568 47.2031 1.3395 47.3505 1.63314 47.3505C2.6519 47.3505 3.67065 47.3505 4.68641 47.3505C4.98604 47.3505 5.12088 47.1971 5.12387 46.9052C5.12987 46.3034 5.16282 45.7017 5.13586 45.1029C5.11788 44.7388 5.24373 44.6756 5.57632 44.6726C5.93588 44.6696 6.06173 44.7539 6.03476 45.13C5.9988 45.6084 6.02577 46.0898 6.02577 46.5712C6.02577 47.182 6.17559 47.3445 6.78684 47.3445C8.46478 47.3505 10.1397 47.3475 11.8177 47.3475C12.9203 47.3475 14.02 47.3505 15.1226 47.3355C15.7249 47.3265 15.7818 47.2061 15.4672 46.6976C15.3024 46.4298 15.0927 46.2132 14.835 46.0266C14.4005 45.7137 14.4964 45.0518 14.9758 44.8201C15.668 44.4861 16.4021 44.447 17.1092 44.6365C17.8703 44.8411 18.2508 45.5211 17.9122 46.4449C17.7894 46.7789 17.5377 47.0196 17.244 47.3475C17.6935 47.3475 18.08 47.3475 18.4636 47.3475C19.4913 47.3445 19.5033 47.4679 19.4943 46.3034C19.4943 46.147 19.4943 45.9905 19.4943 45.8341C19.4943 45.3316 19.4943 45.3496 19.9947 45.3256C20.3033 45.3105 20.4261 45.3888 20.4022 45.7197C20.3722 46.0898 20.3872 46.4659 20.3992 46.836C20.4112 47.1851 20.573 47.3265 20.9235 47.3355C21.2861 47.3445 21.4209 47.2332 21.4419 46.8571C21.4629 46.4509 21.4689 46.0417 21.4599 45.6325C21.4539 45.4008 21.5198 45.3195 21.7625 45.3256C22.4726 45.3466 22.3378 45.2594 22.3498 45.9213C22.3558 46.2102 22.3438 46.499 22.3528 46.7879C22.3618 47.164 22.5416 47.3325 22.9131 47.3355C23.2457 47.3355 23.3955 47.2031 23.4075 46.818C23.4255 46.2192 23.4285 45.6174 23.4105 45.0157C23.4015 44.7388 23.4944 44.6456 23.7581 44.6817C23.851 44.6937 23.9498 44.6937 24.0457 44.6817C24.2585 44.6576 24.3064 44.7539 24.3034 44.9525C24.2914 45.5302 24.2944 46.1049 24.3004 46.6826C24.3034 47.1158 24.4652 47.2904 24.8967 47.3355C25.0045 47.3475 25.1124 47.3475 25.2203 47.3445C25.6727 47.3385 25.7716 47.2512 25.7746 46.7969C25.7806 45.7167 25.7776 44.6335 25.7776 43.5533C25.7776 43.3487 25.8016 43.1411 25.7716 42.9425C25.7207 42.5845 25.8615 42.4912 26.2061 42.5153C26.6645 42.5454 26.6675 42.5243 26.6675 42.9877C26.6675 44.3086 26.6675 45.6325 26.6675 46.9534C26.6675 47.17 26.6705 47.3866 26.6076 47.5973C26.4907 47.9914 26.29 48.1509 25.8855 48.1539C25.5619 48.1569 25.2383 48.1449 24.9147 48.1569C24.615 48.175 24.3783 48.0817 24.2045 47.7808ZM15.5122 45.5873C15.8478 45.8822 16.1114 46.1981 16.2852 46.5893C16.3481 46.7277 16.3122 46.9865 16.5039 46.9835C16.6628 46.9804 16.7826 46.7849 16.8905 46.6404C17.0313 46.4539 17.1122 46.2463 17.1182 46.0116C17.1272 45.7137 16.9564 45.5001 16.7077 45.4519C16.3302 45.3767 15.9257 45.3346 15.5122 45.5873Z" fill="white"/>
<path id="Vector_12" d="M242.724 37.9297C243.239 37.9538 243.836 37.9718 244.414 38.1433C244.597 38.1975 244.791 38.2577 244.8 38.5044C244.809 38.7631 244.627 38.8143 244.429 38.8504C243.818 38.9617 243.206 39.046 242.604 39.2055C241.627 39.4672 240.666 39.7531 239.737 40.1623C238.844 40.5564 237.984 41.0048 237.163 41.5223C235.47 42.5844 233.906 43.8181 232.387 45.1119C230.694 46.5501 229.034 48.0305 227.422 49.559C227.026 49.9321 226.802 49.9171 226.454 49.4958C226.256 49.2581 226.034 49.0415 225.831 48.8068C225.555 48.4939 225.549 48.2471 225.858 47.9703C226.664 47.2512 227.479 46.5411 228.303 45.84C230.073 44.3296 231.838 42.8131 233.693 41.4079C235.089 40.3488 236.597 39.4853 238.227 38.8384C239.641 38.2727 241.112 37.9507 242.724 37.9297Z" fill="white"/>
<path id="Vector_13" d="M133.936 47.7981C133.496 48.3247 131.779 48.3367 131.299 47.8162C130.871 48.3247 129.786 48.3217 129.355 47.7861C129.133 48.1983 128.75 48.1712 128.366 48.1622C128 48.1532 127.599 48.2374 127.407 47.741C127.209 48.096 126.934 48.1652 126.598 48.1652C123.209 48.1592 119.82 48.1592 116.432 48.1652C116.072 48.1652 115.79 48.0749 115.671 47.7139C115.596 47.4912 115.473 47.6357 115.401 47.6748C115.038 47.8854 114.643 47.8372 114.28 47.765C113.888 47.6868 113.588 47.422 113.426 47.0218C113.091 46.1794 113.33 45.1864 114.008 44.7411C114.355 44.5124 114.763 44.5576 115.155 44.5516C115.368 44.5485 115.644 44.6328 115.587 44.2416C115.575 44.1574 115.656 44.1363 115.733 44.1183C116.318 43.9919 116.459 44.1062 116.459 44.708C116.459 45.394 116.456 46.0771 116.459 46.7631C116.462 47.2686 116.548 47.3558 117.04 47.3558C120.045 47.3558 123.051 47.3588 126.059 47.3558C126.499 47.3558 126.589 47.2776 126.607 46.8383C126.625 46.4411 126.625 46.044 126.61 45.6498C126.601 45.4151 126.67 45.3309 126.91 45.3399C127.623 45.3609 127.485 45.2737 127.5 45.9326C127.506 46.2335 127.491 46.5344 127.503 46.8323C127.518 47.1873 127.692 47.3438 128.054 47.3438C128.417 47.3438 128.543 47.2325 128.561 46.8473C128.579 46.4381 128.582 46.0289 128.57 45.6227C128.564 45.3971 128.642 45.3339 128.86 45.3399C129.586 45.3579 129.445 45.2707 129.457 45.9236C129.463 46.2245 129.448 46.5254 129.46 46.8233C129.475 47.1723 129.66 47.3408 130.011 47.3468C130.356 47.3528 130.502 47.2204 130.511 46.8413C130.526 46.2395 130.529 45.6408 130.514 45.039C130.505 44.7742 130.574 44.6508 130.85 44.696C130.898 44.705 130.946 44.702 130.994 44.696C131.308 44.6448 131.437 44.7471 131.416 45.0962C131.383 45.6227 131.404 46.1523 131.41 46.6818C131.416 47.1392 131.575 47.3348 132.028 47.3468C133.169 47.3799 133.169 47.4702 133.163 46.3087C133.163 46.0921 133.178 45.8755 133.16 45.6618C133.136 45.397 133.247 45.3158 133.49 45.3489C133.562 45.3579 133.634 45.3609 133.706 45.3489C134.005 45.2978 134.071 45.4452 134.056 45.716C134.035 46.062 134.047 46.414 134.053 46.7601C134.062 47.1843 134.239 47.3588 134.643 47.3528C135.006 47.3468 135.111 47.2325 135.12 46.7932C135.129 46.408 135.132 46.0229 135.12 45.6408C135.111 45.4271 135.171 45.3399 135.401 45.3489C136.148 45.37 135.995 45.2647 136.01 45.9537C136.016 46.2425 136.001 46.5314 136.013 46.8172C136.031 47.1873 136.222 47.3588 136.591 47.3528C136.936 47.3498 137.055 47.2264 137.061 46.8202C137.073 46.2185 137.076 45.6197 137.061 45.0179C137.052 44.7592 137.142 44.6689 137.388 44.699C137.472 44.711 137.556 44.711 137.64 44.699C137.891 44.6629 137.969 44.7652 137.963 45.0179C137.948 45.725 137.963 46.4351 137.957 47.1452C137.948 47.9486 137.721 48.1742 136.933 48.1682C136.585 48.1652 136.201 48.2615 135.971 47.8673C135.914 47.7741 135.875 47.8372 135.815 47.8944C135.365 48.3337 134.359 48.2826 133.936 47.7981ZM115.074 45.4091C114.382 45.4121 114.127 45.6769 114.175 46.3298C114.208 46.745 114.436 46.9737 114.835 46.9857C115.212 46.9978 115.506 46.7661 115.554 46.384C115.587 46.1342 115.563 45.8815 115.581 45.6317C115.593 45.4572 115.53 45.391 115.359 45.4091C115.266 45.4181 115.17 45.4091 115.074 45.4091Z" fill="white"/>
<path id="Vector_14" d="M80.1581 47.7705C79.9813 48.0594 79.7656 48.1737 79.478 48.1647C79.1424 48.1526 78.8068 48.1556 78.4742 48.1647C78.1835 48.1707 77.9319 48.1075 77.7461 47.8668C77.6532 47.7464 77.5843 47.7856 77.4854 47.8728C76.9281 48.3452 75.8734 48.3633 75.337 47.8999C75.2202 47.7976 75.1842 47.7856 75.0614 47.9059C74.6449 48.3181 73.5992 48.282 73.1767 47.8517C73.0778 47.7494 73.0269 47.7675 72.9579 47.8608C72.7961 48.0834 72.5684 48.1617 72.3047 48.1617C71.1901 48.1617 70.0785 48.1707 68.9638 48.1617C68.4065 48.1556 68.1668 47.924 68.1309 47.3553C68.1069 46.9732 68.1189 46.588 68.1189 46.2029C68.1189 45.0986 68.1279 43.9914 68.1129 42.8871C68.1099 42.6013 68.1878 42.4869 68.4724 42.5321C68.5414 42.5441 68.6163 42.5411 68.6882 42.5321C68.9399 42.4959 69.0118 42.5952 69.0118 42.848C68.9998 44.0967 69.0058 45.3484 69.0058 46.597C69.0058 47.3312 69.0327 47.3583 69.7818 47.3583C70.3811 47.3583 70.9804 47.3643 71.5796 47.3553C72.2328 47.3463 72.3467 47.2199 72.3317 46.5579C72.3287 46.4135 72.3227 46.2691 72.2928 46.1277C72.1519 45.4868 71.5047 45.1648 70.8815 45.5831C70.6957 45.7064 70.5339 45.9291 70.2882 45.6282C70.0066 45.2792 70.0096 45.2641 70.3451 44.9512C71.1751 44.1749 72.9969 44.4758 73.2006 45.9562C73.2336 46.2059 73.2546 46.4556 73.2606 46.7084C73.2696 47.1086 73.4284 47.2951 73.8329 47.3463C74.4142 47.4215 74.6629 47.2981 74.7767 46.8919C74.8516 46.6181 74.7887 46.3413 74.8187 46.0675C74.8786 45.5199 75.0404 45.0264 75.5588 44.7496C76.3078 44.3464 77.5813 44.4938 77.8899 45.562C77.9918 45.914 78.0038 46.2691 77.9948 46.6332C77.9888 46.8919 78.0128 47.1567 78.2824 47.2801C78.5881 47.4185 78.9177 47.4124 79.2203 47.2801C79.433 47.1868 79.3821 46.9491 79.3821 46.7655C79.3881 45.4928 79.3821 44.217 79.3881 42.9443C79.3881 42.8119 79.3102 42.6013 79.472 42.5591C79.7087 42.4959 79.9754 42.4929 80.2151 42.5682C80.3259 42.6013 80.278 42.7607 80.278 42.863C80.281 44.1238 80.278 45.3875 80.281 46.6482C80.281 47.1687 80.4368 47.3282 80.9641 47.3583C81.048 47.3613 81.1319 47.3613 81.2158 47.3613C81.6982 47.3553 81.7851 47.274 81.7881 46.7926C81.7911 45.4958 81.8061 44.196 81.7792 42.8991C81.7702 42.5321 81.932 42.514 82.2016 42.5321C82.4383 42.5501 82.693 42.4448 82.684 42.8781C82.6571 44.2591 82.6751 45.6402 82.6721 47.0243C82.6721 47.2289 82.6721 47.4335 82.6091 47.6321C82.5013 47.9751 82.2915 48.1797 81.905 48.1677C81.5574 48.1556 81.2098 48.1556 80.8623 48.1677C80.5596 48.1737 80.3259 48.0684 80.1581 47.7705ZM77.1348 46.4045C77.1199 46.2751 77.1199 46.1397 77.0929 46.0133C77.006 45.6131 76.7783 45.4146 76.4187 45.4085C76.0262 45.4055 75.8015 45.5891 75.7146 46.0103C75.6487 46.3293 75.6487 46.6542 75.7655 46.9641C75.8734 47.259 76.0891 47.3703 76.4037 47.3673C76.7154 47.3673 76.9281 47.259 77.0419 46.9641C77.1079 46.7866 77.1318 46.6001 77.1348 46.4045Z" fill="white"/>
<path id="Vector_15" d="M64.1755 47.3463C63.9837 46.7566 63.9597 46.1969 64.1155 45.6403C64.3163 44.9181 64.8736 44.536 65.6796 44.5481C66.4497 44.5631 66.983 44.9422 67.1299 45.6764C67.2857 46.4497 67.3546 47.232 66.6984 47.8578C66.5096 48.0384 66.2819 48.1467 66.0272 48.1497C65.0804 48.1587 64.1365 48.1557 63.1897 48.1557C63.0818 48.1557 62.953 48.1587 62.8871 48.0715C62.6294 47.7435 62.3867 47.7706 62.114 48.0534C61.9911 48.1828 61.8024 48.1557 61.6346 48.1557C60.8675 48.1587 60.1005 48.1587 59.3364 48.1587C57.5266 48.1587 55.7168 48.1527 53.907 48.1647C53.5295 48.1677 53.2119 48.1106 53.0741 47.7104C53.0111 47.5268 52.9093 47.6352 52.8224 47.6653C51.513 48.1467 50.683 47.4095 50.692 46.2661C50.698 45.6373 50.8388 45.0746 51.4291 44.7286C51.7647 44.53 52.1392 44.5571 52.5077 44.5481C52.7325 44.542 53.0411 44.6594 53.0021 44.2231C52.9932 44.1148 53.113 44.1178 53.1939 44.1178C53.3257 44.1148 53.4576 44.1298 53.5894 44.1148C53.8171 44.0877 53.8741 44.184 53.8711 44.4006C53.8591 45.1679 53.8651 45.9382 53.8681 46.7084C53.8681 47.2831 53.943 47.3583 54.5003 47.3583C55.5191 47.3583 56.5348 47.3583 57.5536 47.3583C58.1079 47.3583 58.2068 47.2831 58.2128 46.7175C58.2278 45.4567 58.2188 44.196 58.2248 42.9323C58.2248 42.8029 58.1379 42.5953 58.3176 42.5562C58.5573 42.502 58.821 42.493 59.0607 42.5682C59.1416 42.5953 59.1057 42.7427 59.1057 42.836C59.1087 43.4498 59.1087 44.0606 59.1057 44.6744C59.1027 44.9001 59.0787 45.0505 59.4023 44.8881C59.9986 44.5902 60.6398 44.4668 61.311 44.5962C62.105 44.7497 62.5724 45.2281 62.6773 46.0314C62.7043 46.2451 62.7163 46.4617 62.7163 46.6783C62.7133 47.1116 62.8631 47.3102 63.2886 47.3433C63.5672 47.3644 63.8549 47.3463 64.1755 47.3463ZM60.2233 47.3553C60.2233 47.3523 60.2233 47.3493 60.2233 47.3433C60.499 47.3433 60.7746 47.3463 61.0503 47.3433C61.6226 47.3373 61.7664 47.1989 61.7904 46.6212C61.7964 46.5129 61.7904 46.4045 61.7784 46.2992C61.7125 45.6884 61.4039 45.4357 60.7896 45.4026C60.2533 45.3725 59.7888 45.5681 59.3124 45.7576C59.1416 45.8268 59.0967 45.9111 59.0997 46.0736C59.1027 46.4226 59.1147 46.7716 59.0907 47.1176C59.0757 47.3222 59.1476 47.3644 59.3274 47.3583C59.624 47.3493 59.9237 47.3553 60.2233 47.3553ZM66.3418 46.3113C66.3388 46.2812 66.3418 46.1578 66.3208 46.0435C66.2489 45.6493 66.0092 45.4206 65.6736 45.4116C65.2691 45.4026 65.0174 45.6012 64.9335 46.0194C64.8796 46.2902 64.8796 46.567 64.9575 46.8348C65.0085 47.0063 65.0774 47.1567 65.2601 47.25C65.8594 47.5569 66.3388 47.1838 66.3418 46.3113ZM52.9842 45.9261C52.9842 45.4026 52.9842 45.4026 52.4538 45.4056C52.3699 45.4056 52.286 45.4116 52.2021 45.4086C51.9085 45.3996 51.7167 45.5711 51.6388 45.8208C51.5339 46.1428 51.489 46.4978 51.7527 46.7716C51.9534 46.9792 52.2201 47.0454 52.5077 46.9401C52.9991 46.7596 52.9812 46.3383 52.9842 45.9261Z" fill="white"/>
<path id="Vector_16" d="M221.268 55.4794C220.671 55.9729 220.138 56.4664 219.494 56.8064C219.104 57.011 218.715 57.2216 218.259 57.2396C217.447 57.2697 216.839 56.8184 216.249 56.355C215.961 56.1294 215.709 55.8555 215.542 55.5125C215.146 54.7122 215.7 53.5778 216.575 53.3913C216.938 53.313 217.181 53.4394 217.336 53.7584C217.426 53.9419 217.489 54.1375 217.588 54.312C217.789 54.6731 218.091 54.7603 218.466 54.5768C219.035 54.3 219.497 53.8757 220.024 53.4605C219.419 53.3492 218.984 53.0633 218.796 52.5127C218.61 51.9741 218.655 51.4566 219.035 50.9872C219.491 50.4245 220.303 50.3102 220.785 50.8398C221.867 52.0283 222.954 53.2138 223.958 54.4715C224.336 54.9439 224.219 55.7051 223.551 56.3971C223.098 56.8665 222.394 56.9387 221.885 56.5807C221.513 56.331 221.351 55.9518 221.268 55.4794Z" fill="white"/>
<path id="Vector_17" d="M31.7764 56.6932C31.7345 57.1085 31.7345 57.5147 31.5667 57.8968C31.3659 58.3541 30.5479 58.7182 30.1075 58.5347C29.9397 58.4624 30.0116 58.309 29.9996 58.1886C29.9756 57.8908 29.9457 57.6109 30.4161 57.6621C30.6858 57.6922 30.7906 57.4334 30.8236 57.1987C30.8566 56.937 30.8656 56.6722 30.8656 56.4074C30.8715 55.5168 30.8805 54.6291 30.8596 53.7385C30.8536 53.4587 30.9405 53.3985 31.2041 53.4045C31.7615 53.4226 31.7615 53.4075 31.7615 53.9822C31.7615 54.4757 31.7645 54.9691 31.7615 55.4596C31.7585 55.7605 31.8963 55.935 32.1959 55.9711C32.3487 55.9892 32.5045 56.0102 32.6604 56.0102C35.6657 56.0132 38.674 56.0132 41.6793 56.0102C42.5692 56.0102 42.7071 55.8477 42.5782 54.9631C42.4554 54.1237 41.7213 53.7957 41.0651 54.3313C40.7265 54.6081 40.6216 54.3523 40.4508 54.1838C40.2291 53.9642 40.3759 53.8198 40.5587 53.6663C41.086 53.224 41.6673 53.0766 42.3265 53.2962C43.0426 53.5339 43.4022 54.0514 43.4921 54.7796C43.5191 55.0053 43.5221 55.2339 43.5281 55.4626C43.537 55.7334 43.6449 55.923 43.9356 55.9621C43.9475 55.9651 43.9595 55.9681 43.9715 55.9711C44.8914 56.1727 45.0862 56.0192 45.0862 55.0955C45.0862 54.6261 45.0951 54.1567 45.0802 53.6904C45.0742 53.4737 45.1341 53.4015 45.3588 53.4015C45.9851 53.4015 45.9851 53.3895 45.9851 54.0213C45.9851 54.4907 45.994 54.9601 45.9821 55.4265C45.9761 55.7665 46.1349 55.938 46.4585 55.9801C46.5064 55.9861 46.5544 55.9922 46.6023 55.9982C47.3364 56.0734 47.4413 55.9801 47.4413 55.252C47.4413 54.0153 47.4503 52.7757 47.4353 51.539C47.4323 51.2592 47.4982 51.1358 47.7888 51.181C47.8817 51.196 47.9806 51.193 48.0765 51.181C48.2563 51.1599 48.3372 51.2231 48.3372 51.4157C48.3282 52.9291 48.3432 54.4426 48.3132 55.9561C48.3012 56.6421 48.0196 56.8738 47.3394 56.8647C46.9379 56.8587 46.4974 56.9791 46.1499 56.7233C45.9191 56.5548 45.8023 56.6481 45.5775 56.7143C44.8494 56.9279 44.0854 57.0964 43.4232 56.5097C43.3123 56.4104 43.3003 56.4826 43.2404 56.5428C42.9977 56.7865 42.6921 56.8677 42.3595 56.8677C39.0665 56.8677 35.7705 56.8647 32.4776 56.8738C32.2259 56.8798 32.0161 56.7775 31.7764 56.6932Z" fill="white"/>
<path id="Vector_18" d="M2.01684 56.7011C1.97489 57.002 1.95392 57.2878 1.89399 57.5646C1.71421 58.4282 1.1479 58.5666 0.38983 58.5395C0.26698 58.5365 0.222035 58.4733 0.222035 58.356C0.225032 58.1995 0.228028 58.043 0.219039 57.8866C0.21005 57.7301 0.278966 57.688 0.428782 57.6729C0.926174 57.6278 1.05202 57.5105 1.06401 57.008C1.08498 56.2889 1.07899 55.5667 1.08198 54.8446C1.08498 54.4354 1.08798 54.0262 1.07899 53.62C1.07599 53.4665 1.12393 53.4184 1.27974 53.4064C1.97789 53.3552 1.97789 53.3492 1.97789 54.0623C1.97789 54.5196 1.98388 54.977 1.97489 55.4313C1.9689 55.7683 2.1277 55.9459 2.45131 55.985C2.60412 56.003 2.75993 56.012 2.91574 56.012C5.95702 56.0151 8.9983 56.012 12.0426 56.012C12.7018 56.012 12.8576 55.8436 12.8516 55.1756C12.8486 54.9589 12.8486 54.7423 12.8845 54.5287C13.0224 53.7072 13.5827 53.2228 14.3767 53.2048C15.1618 53.1897 15.8539 53.635 15.9887 54.4745C16.0367 54.7724 16.0337 55.0703 16.0337 55.3712C16.0367 55.8044 16.1955 56 16.591 56.006C17.3461 56.0181 18.1012 56.0151 18.8532 55.994C19.2997 55.982 19.3926 55.8616 19.4016 55.4223C19.4046 55.2779 19.4046 55.1335 19.3896 54.989C19.2967 54.1345 18.5296 53.7885 17.8615 54.3361C17.5408 54.5979 17.445 54.3692 17.2772 54.2067C17.0644 53.9991 17.1483 53.8517 17.3461 53.6832C17.8585 53.2499 18.4248 53.0814 19.075 53.28C19.7551 53.4876 20.1536 53.948 20.2765 54.655C20.3574 55.1214 20.3754 55.5878 20.2675 56.0482C20.1417 56.5958 19.842 56.8606 19.2877 56.8696C18.3529 56.8846 17.421 56.8756 16.4861 56.8726C16.2764 56.8726 16.0397 56.8124 15.9258 56.674C15.6981 56.4002 15.5663 56.5416 15.3685 56.689C14.979 56.9749 13.7864 57.002 13.3999 56.6048C13.2771 56.4784 13.1932 56.4905 13.0643 56.6138C12.8815 56.7944 12.6418 56.8756 12.3812 56.8756C9.13613 56.8756 5.8911 56.8726 2.64607 56.8786C2.42734 56.8786 2.23557 56.7793 2.01684 56.7011ZM15.1797 55.0522C15.1648 54.9349 15.1618 54.7995 15.1318 54.6731C15.0419 54.294 14.7782 54.0743 14.4307 54.0804C14.0921 54.0864 13.8464 54.291 13.7625 54.6671C13.6965 54.962 13.6965 55.2628 13.7804 55.5547C13.9003 55.982 14.3288 56.1805 14.7363 56.006C15.1648 55.8225 15.1408 55.4343 15.1797 55.0522Z" fill="white"/>
<path id="Vector_19" d="M102.747 56.5176C102.184 57.0441 101.348 57.0381 100.797 56.5055C100.302 56.996 99.5052 57.0411 98.9509 56.6018C98.855 56.5266 98.804 56.5176 98.7201 56.6048C98.5194 56.8215 98.2557 56.8846 97.9711 56.8726C97.5516 56.8576 97.1321 56.9117 96.7156 56.8425C96.5029 56.8064 96.3351 56.5627 96.1733 56.5747C96.0174 56.5868 95.8497 56.7944 95.6519 56.8425C95.538 56.8696 95.4152 56.8726 95.2953 56.8726C94.2766 56.8756 93.2608 56.8666 92.2421 56.8786C91.9844 56.8816 91.8825 56.8335 91.8945 56.5507C91.9245 55.8977 91.8346 56.0331 92.4248 56.0091C92.7215 55.997 93.099 56.1384 93.2908 55.9489C93.4826 55.7593 93.3447 55.3772 93.3507 55.0823C93.3597 54.279 93.3657 53.4726 93.3477 52.6692C93.3417 52.3954 93.4256 52.2931 93.6923 52.3322C93.7732 52.3442 93.8601 52.3442 93.944 52.3322C94.1777 52.2991 94.2526 52.3924 94.2496 52.6301C94.2376 53.6381 94.2556 54.649 94.2376 55.657C94.2316 55.9399 94.3125 56.0211 94.5942 56.0181C95.4032 56.006 95.4032 56.0181 95.4032 55.1906C95.4032 53.9781 95.4092 52.7625 95.3972 51.5499C95.3942 51.2821 95.4481 51.1317 95.7508 51.1858C95.8317 51.2009 95.9186 51.1979 96.0025 51.1858C96.2362 51.1527 96.3081 51.243 96.3051 51.4837C96.2931 52.7565 96.2991 54.0292 96.2991 55.305C96.2991 55.8466 96.401 55.982 96.9313 56C98.2078 56.0482 98.034 56.0422 98.049 54.9951C98.052 54.8386 98.037 54.6821 98.052 54.5257C98.0699 54.3542 97.9531 54.0984 98.1329 54.0322C98.3426 53.954 98.6063 53.9901 98.843 54.0142C98.9898 54.0262 98.9479 54.1797 98.9479 54.282C98.9509 54.6912 98.9419 55.1004 98.9509 55.5066C98.9598 55.8737 99.0857 55.982 99.4662 55.994C99.8647 56.0061 99.9726 55.9248 99.9936 55.5457C100.015 55.1275 100.021 54.7062 100.012 54.285C100.009 54.0743 100.062 53.9871 100.293 53.9961C101.039 54.0202 100.892 53.9179 100.907 54.5979C100.913 54.9108 100.907 55.2237 100.91 55.5337C100.913 55.8797 101.132 55.979 101.429 55.994C101.728 56.0091 101.95 55.9218 101.953 55.5668C101.959 54.9529 101.974 54.3421 101.962 53.7283C101.959 53.4906 102.004 53.3943 102.271 53.4004C102.855 53.4154 102.855 53.4004 102.855 53.9841C102.855 54.4535 102.852 54.9198 102.855 55.3892C102.861 55.7924 102.975 55.9188 103.37 55.988C103.406 55.994 103.442 55.997 103.478 56C104.278 56.0843 104.371 56 104.371 55.2027C104.371 53.9781 104.377 52.7504 104.365 51.5258C104.362 51.2641 104.419 51.1377 104.698 51.1828C104.779 51.1949 104.866 51.1949 104.95 51.1828C105.204 51.1467 105.276 51.258 105.273 51.5048C105.264 52.8979 105.273 54.291 105.267 55.6841C105.264 56.6409 105.027 56.8756 104.078 56.8696C103.736 56.8666 103.385 56.9207 103.053 56.7553C102.924 56.6981 102.861 56.5777 102.747 56.5176Z" fill="white"/>
<path id="Vector_20" d="M75.2021 56.0132C74.5189 55.1286 74.4769 54.235 75.0522 53.6934C75.6485 53.1337 76.886 53.1277 77.4973 53.6843C78.0875 54.2199 78.0426 55.1256 77.3504 56.0132C77.4703 56.0132 77.5572 56.0132 77.6441 56.0132C81.5483 56.0132 85.4525 56.0132 89.3567 56.0132C90.2856 56.0132 90.3965 55.8838 90.2856 54.9601C90.1867 54.1507 89.4586 53.8318 88.7904 54.3012C88.5028 54.5028 88.1882 54.3824 88.0593 54.0364C88.0054 53.895 88.0953 53.8288 88.1672 53.7626C88.6496 53.3082 89.2099 53.0826 89.8691 53.2511C90.5313 53.4196 90.9897 53.8137 91.1486 54.5088C91.2624 55.0083 91.2774 55.5107 91.1845 56.0102C91.0736 56.5939 90.7321 56.8647 90.1268 56.8738C89.6474 56.8798 89.168 56.8768 88.6886 56.8768C84.8682 56.8768 81.0479 56.8768 77.2276 56.8768C76.9759 56.8768 76.7272 56.8617 76.4875 56.7624C76.4036 56.7263 76.2927 56.7022 76.2118 56.7263C75.283 57.0001 74.3301 56.8316 73.3893 56.8738C72.9698 56.8918 72.5503 56.8828 72.1308 56.8768C71.6184 56.8677 71.3278 56.6421 71.2948 56.1306C71.2499 55.4476 71.2709 54.7615 71.2589 54.0785C71.2559 53.9281 71.3218 53.8769 71.4716 53.8649C72.1428 53.8107 72.1428 53.8047 72.1428 54.4847C72.1428 54.8578 72.1488 55.2309 72.1428 55.601C72.1368 55.8748 72.2716 55.9952 72.5293 56.0072C72.5893 56.0102 72.6492 56.0132 72.7091 56.0132C73.5211 56.0132 74.3331 56.0132 75.2021 56.0132ZM76.2508 53.9943C76.1189 53.9852 75.9811 54.0153 75.8493 54.1267C75.5616 54.3613 75.5077 54.6652 75.5586 54.9962C75.6185 55.3753 75.8583 55.6281 76.1789 55.8207C76.2987 55.8929 76.4036 55.8327 76.4725 55.7725C76.6343 55.6371 76.8021 55.4987 76.901 55.3001C77.2186 54.6893 76.886 53.9913 76.2508 53.9943Z" fill="white"/>
<path id="Vector_21" d="M116.524 56.2484C115.551 56.9254 114.346 56.3567 114.22 55.1923C114.187 54.8944 114.205 54.5935 114.283 54.2986C114.46 53.6427 114.987 53.2275 115.668 53.2124C115.847 53.2094 116.027 53.2064 116.207 53.2124C116.387 53.2185 116.548 53.2245 116.506 52.9627C116.483 52.8213 116.572 52.7882 116.698 52.7761C117.453 52.6979 117.45 52.6949 117.45 53.4471C117.45 54.085 117.45 54.7199 117.45 55.3578C117.45 55.9656 117.501 56.0167 118.101 56.0167C121.513 56.0167 124.923 56.0167 128.336 56.0167C128.791 56.0167 129.247 56.0227 129.699 56.0137C130.128 56.0077 130.206 55.9355 130.218 55.5112C130.233 54.9124 130.236 54.3107 130.224 53.7089C130.218 53.4742 130.287 53.402 130.523 53.405C131.117 53.411 131.117 53.399 131.117 53.9827C131.117 54.4641 131.12 54.9425 131.117 55.424C131.114 55.7489 131.257 55.9445 131.587 55.9836C131.623 55.9866 131.659 55.9956 131.692 55.9987C132.579 56.113 132.69 56.0167 132.69 55.1321C132.69 54.6507 132.702 54.1723 132.684 53.6908C132.678 53.4712 132.744 53.405 132.965 53.405C133.589 53.405 133.589 53.393 133.589 54.0278C133.589 54.6296 133.598 55.2284 133.586 55.8302C133.568 56.6275 133.304 56.8742 132.513 56.8742C132.273 56.8742 132.033 56.8742 131.794 56.8742C131.548 56.8712 131.317 56.8141 131.141 56.6365C131.033 56.5252 130.973 56.5282 130.859 56.6395C130.673 56.8231 130.424 56.8772 130.167 56.8772C125.918 56.8772 121.666 56.8772 117.417 56.8742C116.902 56.8742 116.725 56.7449 116.524 56.2484ZM116.506 54.7349C116.506 54.5544 116.495 54.4822 116.509 54.413C116.563 54.1151 116.426 54.0308 116.153 54.067C116.06 54.079 115.961 54.067 115.868 54.073C115.329 54.1091 115.074 54.3889 115.086 54.9335C115.095 55.3728 115.311 55.6105 115.724 55.6406C116.15 55.6737 116.429 55.454 116.492 55.0238C116.509 54.8944 116.503 54.759 116.506 54.7349Z" fill="white"/>
<path id="Vector_22" d="M44.9363 47.357C44.6247 46.8755 44.5408 46.4092 44.6247 45.9037C44.7865 44.9468 45.6015 44.4053 46.6083 44.5647C46.9798 44.6249 47.2705 44.8084 47.5551 45.0281C47.8488 45.2568 47.6181 45.4223 47.4862 45.5847C47.3604 45.7382 47.2435 45.9067 47.0008 45.675C46.5663 45.2568 45.9761 45.3651 45.7513 45.6449C45.4787 45.9879 45.4457 46.37 45.6105 46.7612C45.7693 47.1373 46.012 47.3961 46.4765 47.363C46.857 47.3359 47.2435 47.366 47.6241 47.354C47.8218 47.3479 47.9117 47.4051 47.8877 47.6127C47.8757 47.706 47.8757 47.8053 47.8877 47.9016C47.9207 48.1363 47.8098 48.1814 47.6001 48.1784C46.4015 48.1663 45.206 48.1633 44.0075 48.1663C43.7228 48.1663 43.4951 48.0791 43.3363 47.7812C43.1296 48.1182 42.8269 48.1754 42.4793 48.1724C40.6726 48.1633 38.8628 48.1663 37.056 48.1633C36.9271 48.1633 36.7983 48.1633 36.6635 48.1633C36.8372 48.9607 36.6964 49.412 36.1751 49.6738C35.9084 49.8062 35.6207 49.8844 35.3151 49.8814C34.6559 49.8754 33.9967 49.8844 33.3405 49.8784C32.106 49.8664 31.3899 49.0961 31.4648 47.8625C31.4948 47.363 31.6356 46.8966 31.8753 46.4573C31.9532 46.3159 32.0341 46.2076 32.1929 46.3731C32.2169 46.3971 32.2559 46.4031 32.2888 46.4212C32.7293 46.6469 32.7323 46.6499 32.5465 47.1193C32.4117 47.4593 32.3188 47.8023 32.3847 48.1694C32.4656 48.6087 32.7473 48.8915 33.1907 48.9547C33.9398 49.063 34.6919 49.0419 35.444 48.9667C35.6567 48.9456 35.8125 48.8614 35.8574 48.6417C35.9024 48.4221 35.7945 48.2686 35.6207 48.1603C35.2762 47.9497 34.9076 47.7782 34.5241 47.6578C34.3024 47.5886 34.2814 47.4984 34.3473 47.2938C34.5361 46.71 34.5301 46.701 35.0994 46.9628C35.6926 47.2366 36.3039 47.369 36.9661 47.36C38.6171 47.3359 40.271 47.3539 41.922 47.3509C42.4853 47.3509 42.5483 47.2878 42.5513 46.7341C42.5543 45.4493 42.5602 44.1645 42.5453 42.8767C42.5423 42.5849 42.6292 42.4826 42.9078 42.5247C42.9767 42.5337 43.0516 42.5337 43.1236 42.5247C43.3723 42.4886 43.4532 42.5879 43.4502 42.8436C43.4382 44.0442 43.4442 45.2477 43.4442 46.4483C43.4442 47.2396 43.558 47.3509 44.367 47.354C44.5348 47.357 44.7026 47.357 44.9363 47.357Z" fill="white"/>
<path id="Vector_23" d="M148.789 45.0342C148.789 45.7804 148.81 46.5236 148.783 47.2698C148.759 47.9558 148.541 48.1514 147.857 48.1695C147.51 48.1785 147.162 48.1634 146.815 48.1634C146.68 48.1634 146.536 48.1514 146.449 48.0491C146.191 47.7482 145.988 47.8686 145.709 48.0491C145.188 48.3831 144.277 48.2778 143.794 47.8806C143.725 47.8234 143.666 47.7422 143.594 47.8475C143.33 48.2326 142.931 48.1634 142.554 48.1664C142.05 48.1695 142.05 48.1664 142.006 48.6449C141.931 49.4302 141.454 49.8725 140.66 49.8845C140.361 49.8875 140.061 49.8665 139.761 49.8905C139.498 49.9116 139.438 49.8033 139.447 49.5596C139.468 48.9247 139.393 49.036 139.986 49.024C140.238 49.018 140.489 49.036 140.735 48.9698C140.831 48.9427 140.918 48.9217 140.978 48.8344C141.098 48.6599 141.188 48.4523 141.119 48.2597C141.056 48.0822 140.843 48.1935 140.699 48.1785C140.51 48.1574 140.316 48.1664 140.124 48.1634C139.519 48.1484 139.081 47.8174 138.928 47.2277C138.79 46.6831 138.787 46.1355 138.97 45.5939C139.213 44.8747 139.773 44.5107 140.57 44.5528C141.322 44.5919 141.793 45.0071 141.958 45.7593C142.047 46.1776 142.03 46.5988 142.009 47.0171C141.994 47.321 142.104 47.3992 142.371 47.3601C142.419 47.354 142.467 47.3601 142.515 47.3601C143.102 47.3601 143.312 47.1464 143.294 46.5507C143.285 46.2618 143.291 45.973 143.36 45.6932C143.555 44.9229 144.07 44.5438 144.912 44.5528C145.718 44.5618 146.23 44.965 146.407 45.7232C146.476 46.0181 146.482 46.316 146.476 46.6169C146.47 46.8877 146.485 47.1705 146.779 47.2879C147.096 47.4142 147.438 47.4172 147.753 47.2728C147.95 47.1825 147.911 46.9659 147.911 46.7884C147.914 45.4916 147.932 44.1917 147.902 42.8949C147.893 42.4827 148.103 42.5338 148.364 42.5248C148.639 42.5188 148.834 42.5158 148.813 42.9039C148.777 43.611 148.804 44.3211 148.804 45.0312C148.795 45.0342 148.792 45.0342 148.789 45.0342ZM141.167 46.6861C141.143 46.4484 141.143 46.2047 141.092 45.973C141.032 45.6962 140.903 45.4615 140.573 45.4133C140.196 45.3562 139.956 45.5307 139.803 45.8556C139.68 46.1144 139.686 46.3942 139.713 46.668C139.755 47.0893 139.98 47.3059 140.403 47.348C141.152 47.4263 141.152 47.4263 141.167 46.6861ZM145.622 46.4123C145.604 46.2709 145.598 46.1385 145.568 46.0121C145.466 45.5728 145.245 45.4013 144.822 45.4133C144.487 45.4223 144.25 45.654 144.184 46.0572C144.142 46.319 144.136 46.5838 144.202 46.8425C144.286 47.1735 144.469 47.3871 144.852 47.3751C145.275 47.3631 145.442 47.2608 145.55 46.8666C145.589 46.7132 145.601 46.5567 145.622 46.4123Z" fill="white"/>
<path id="Vector_24" d="M58.4826 56.8755C58.5365 57.1462 58.5994 57.3779 58.5485 57.6217C58.4346 58.1542 58.0511 58.4912 57.329 58.5213C56.448 58.5574 55.5611 58.5965 54.6772 58.4852C53.7394 58.3679 53.3289 57.6397 53.2749 56.9266C53.23 56.3489 53.3708 55.8103 53.6045 55.2868C53.7274 55.0069 53.8442 54.9588 54.1439 55.1153C54.4825 55.2928 54.5693 55.4492 54.3776 55.7802C54.2248 56.042 54.1708 56.3399 54.1768 56.6468C54.1918 57.2666 54.5663 57.6638 55.1836 57.6728C55.8308 57.6848 56.478 57.6758 57.1222 57.6758C57.3679 57.6758 57.5837 57.6066 57.6556 57.3478C57.7365 57.062 57.5477 56.8875 57.332 56.7762C57.0683 56.6408 56.7866 56.5475 56.508 56.4422C56.1155 56.2947 56.0136 55.7712 56.3252 55.4823C56.4121 55.4011 56.505 55.4432 56.5889 55.4914C57.4009 55.9818 58.2908 56.036 59.2107 56.0239C61.0894 55.9999 62.9711 56.0149 64.8498 56.0209C65.0955 56.0209 65.2513 56.033 65.1434 55.69C65.0236 55.3108 65.0535 54.9046 65.1254 54.5105C65.2663 53.7432 65.8625 53.2317 66.6176 53.2136C67.3547 53.1926 68.0738 53.6108 68.2236 54.4503C68.2866 54.8114 68.3045 55.1694 68.2596 55.5245C68.1517 56.4211 67.6244 56.8785 66.7165 56.8815C64.1067 56.8845 61.4969 56.8815 58.8841 56.8815C58.7582 56.8755 58.6294 56.8755 58.4826 56.8755ZM65.9674 55.022C65.9674 55.0701 65.9674 55.1183 65.9674 55.1664C65.9824 55.7652 66.2011 56.0119 66.7015 55.9999C67.1809 55.9908 67.3907 55.7411 67.4056 55.1694C67.4116 54.9528 67.4086 54.7391 67.3307 54.5345C67.1749 54.1253 66.7554 53.9719 66.3659 54.1735C66.0123 54.354 65.9614 54.676 65.9674 55.022Z" fill="white"/>
<path id="Vector_25" d="M230.52 32.4406C230.52 32.4165 230.52 32.3924 230.52 32.3683C230.508 31.6913 230.544 31.6703 231.165 31.9682C232.636 32.6722 233.046 33.9901 232.3 35.627C232.198 35.8526 231.968 36.0783 231.989 36.2859C232.001 36.4213 232.363 36.5176 232.561 36.644C233.022 36.9388 233.238 37.3691 233.226 37.9167C233.196 39.1774 232.423 40.0079 231.329 40.375C230.907 40.5164 230.466 40.5525 230.032 40.6187C229.834 40.6488 229.714 40.5886 229.804 40.3599C230.368 38.9367 229.969 37.679 229.13 36.5086C228.965 36.2799 229.004 36.1595 229.16 35.9609C229.975 34.9319 230.499 33.7825 230.52 32.4406Z" fill="white"/>
<path id="Vector_26" d="M218.07 32.3219C218.067 33.6759 218.559 34.8523 219.386 35.8904C219.607 36.1702 219.592 36.3176 219.392 36.6035C218.604 37.7408 218.244 38.9715 218.78 40.3345C218.864 40.5451 218.807 40.6414 218.586 40.6173C217.849 40.5361 217.123 40.4308 216.485 39.9975C215.694 39.4589 215.347 38.6947 215.368 37.7619C215.386 37.0969 215.811 36.6847 216.374 36.444C216.671 36.3177 216.614 36.2274 216.491 36.0138C216.117 35.3608 215.859 34.6658 215.937 33.8925C216.036 32.8996 216.665 32.3249 217.516 31.9337C217.558 31.9127 217.606 31.9036 217.651 31.8856C218.058 31.7081 218.094 31.7351 218.064 32.1774C218.067 32.2256 218.07 32.2737 218.07 32.3219Z" fill="white"/>
<path id="Vector_27" d="M92.7904 47.3564C93.881 47.3564 94.9687 47.3564 96.0594 47.3564C96.6526 47.3564 96.8564 47.1517 96.8354 46.55C96.8264 46.2822 96.8414 46.0204 96.8954 45.7616C97.0781 44.868 97.8122 44.4077 98.7501 44.5701C99.4153 44.6845 99.8228 45.0696 99.9576 45.7195C100.104 46.4417 100.125 47.1608 99.622 47.7746C99.2355 48.247 98.6901 48.265 98.1448 48.2139C97.8512 48.1868 97.5485 48.1326 97.3418 47.8769C97.2369 47.7475 97.18 47.8077 97.0961 47.907C96.9313 48.0965 96.7126 48.1657 96.4579 48.1657C93.884 48.1627 91.3072 48.1597 88.7333 48.1657C88.4247 48.1657 88.185 48.0634 88.0831 47.7686C88.0082 47.5429 87.8974 47.6121 87.7685 47.6843C87.394 47.8889 86.9925 47.8468 86.6149 47.7535C86.1895 47.6482 85.9078 47.3383 85.767 46.905C85.4913 46.0746 85.749 45.1539 86.4082 44.7296C86.7348 44.519 87.1183 44.5581 87.4869 44.5491C87.7116 44.5431 88.0232 44.6634 87.9783 44.2241C87.9663 44.1158 88.0891 44.1188 88.17 44.1188C88.3019 44.1158 88.4337 44.1308 88.5655 44.1158C88.7903 44.0887 88.8502 44.185 88.8472 44.4016C88.8352 45.196 88.8412 45.9873 88.8442 46.7817C88.8472 47.2601 88.9401 47.3564 89.4105 47.3564C90.5401 47.3594 91.6667 47.3564 92.7904 47.3564ZM97.7074 46.4206C97.7133 46.5048 97.7193 46.6102 97.7343 46.7185C97.7942 47.1487 97.989 47.3533 98.3516 47.3684C98.837 47.3864 99.0227 47.242 99.1246 46.7756C99.1905 46.4778 99.1905 46.1769 99.0857 45.891C98.9808 45.6082 98.81 45.4126 98.4594 45.4066C98.1029 45.3976 97.9051 45.5631 97.7853 45.87C97.7223 46.0385 97.7193 46.216 97.7074 46.4206ZM87.9723 45.9211C87.9723 45.4066 87.9723 45.4066 87.4719 45.4096C87.376 45.4096 87.2801 45.4156 87.1842 45.4126C86.8906 45.4066 86.7078 45.5811 86.6239 45.8278C86.5131 46.1528 86.4771 46.5048 86.7408 46.7756C86.9415 46.9833 87.2112 47.0464 87.4988 46.9381C87.9872 46.7546 87.9723 46.3363 87.9723 45.9211Z" fill="white"/>
<path id="Vector_28" d="M105.585 47.3538C106.151 47.3538 106.64 47.3568 107.128 47.3538C107.488 47.3508 107.548 47.1131 107.548 46.8183C107.545 45.5214 107.545 44.2246 107.551 42.9248C107.551 42.7954 107.464 42.5848 107.65 42.5517C107.889 42.5065 108.15 42.4885 108.39 42.5727C108.474 42.6028 108.444 42.7232 108.444 42.8044C108.444 44.2577 108.447 45.711 108.441 47.1643C108.441 47.3809 108.411 47.5945 108.309 47.7931C108.189 48.0248 108.015 48.1632 107.746 48.1632C106.919 48.1632 106.086 48.2264 105.271 48.1361C104.812 48.085 104.387 48.094 103.931 48.1391C103.197 48.2144 102.448 48.1692 101.708 48.1602C101.291 48.1572 101.073 47.9707 100.983 47.5614C100.947 47.399 100.935 47.2275 100.935 47.062C100.932 45.6689 100.941 44.2758 100.926 42.8826C100.923 42.5938 101.01 42.5126 101.291 42.5246C101.921 42.5517 101.828 42.4584 101.831 43.0572C101.834 44.3058 101.831 45.5545 101.834 46.8062C101.834 47.2696 101.918 47.3568 102.382 47.3538C102.826 47.3508 103.266 47.3358 103.709 47.3207C103.982 47.3117 104.027 47.1703 103.919 46.9416C103.748 46.5775 103.506 46.2827 103.176 46.045C102.727 45.72 102.823 45.0581 103.317 44.8204C104.012 44.4864 104.743 44.4503 105.45 44.6458C106.202 44.8565 106.565 45.5184 106.25 46.4301C106.127 46.7791 105.861 47.0229 105.585 47.3538ZM103.826 45.5966C104.183 45.8735 104.426 46.1894 104.593 46.5655C104.659 46.7099 104.659 46.9747 104.8 46.9777C104.992 46.9807 105.115 46.7581 105.235 46.5956C105.357 46.4271 105.426 46.2405 105.438 46.0299C105.459 45.717 105.286 45.4913 105.019 45.4432C104.641 45.38 104.237 45.3319 103.826 45.5966Z" fill="white"/>
<path id="Vector_29" d="M148.801 53.7321C148.801 54.4061 148.807 55.0771 148.798 55.7511C148.786 56.6447 148.549 56.8824 147.659 56.8734C147.258 56.8704 146.844 56.9426 146.461 56.738C146.335 56.6718 145.832 56.6899 145.694 56.738C145.035 56.9757 144.39 56.9998 143.788 56.5755C143.713 56.5214 143.686 56.4431 143.569 56.5545C143.114 56.9787 142.566 56.9576 142.026 56.7771C141.796 56.7019 141.76 56.753 141.754 56.9516C141.751 57.084 141.742 57.2164 141.724 57.3458C141.61 58.2274 141.094 58.6246 140.217 58.5373C140.064 58.5223 140.001 58.4711 140.007 58.3207C140.013 58.1762 140.013 58.0318 140.007 57.8874C140.001 57.7369 140.058 57.6828 140.214 57.6677C140.726 57.6196 140.849 57.4992 140.858 56.9727C140.876 55.9045 140.882 54.8334 140.867 53.7652C140.861 53.4523 140.96 53.3861 141.247 53.3981C141.772 53.4222 141.772 53.4042 141.772 53.9397C141.772 54.4452 141.775 54.9477 141.772 55.4532C141.769 55.7541 141.906 55.9286 142.203 55.9647C142.368 55.9858 142.536 56.0038 142.703 56.0008C143.021 55.9978 143.228 55.8474 143.258 55.5134C143.282 55.2396 143.279 54.9628 143.3 54.6889C143.366 53.8314 143.926 53.2447 144.714 53.1965C145.562 53.1484 146.308 53.5997 146.434 54.5084C146.473 54.7852 146.476 55.059 146.476 55.3328C146.473 55.8113 146.644 55.9858 147.114 56.0008C147.174 56.0038 147.234 56.0008 147.294 56.0008C147.854 55.9978 147.911 55.9437 147.911 55.384C147.914 54.0992 147.92 52.8144 147.905 51.5266C147.902 51.2378 147.983 51.1294 148.265 51.1746C148.322 51.1836 148.385 51.1836 148.444 51.1746C148.765 51.1144 148.816 51.2769 148.81 51.5567C148.789 52.2909 148.801 53.013 148.801 53.7321ZM144.151 55.0711C144.163 55.2035 144.163 55.3359 144.19 55.4622C144.268 55.8624 144.495 56.064 144.867 56.07C145.241 56.076 145.463 55.8925 145.562 55.4833C145.64 55.1493 145.64 54.8153 145.508 54.4964C145.391 54.2105 145.151 54.0781 144.858 54.0872C144.576 54.0962 144.36 54.2316 144.247 54.5054C144.175 54.6859 144.154 54.8755 144.151 55.0711Z" fill="white"/>
<path id="Vector_30" d="M246.889 17.6158C246.892 18.8524 246.167 19.7822 244.989 20.1222C244.384 20.2967 243.195 19.8363 242.712 19.0329C241.987 17.8204 242.317 16.1023 243.518 15.3832C244.84 14.5918 246.368 15.3802 246.793 16.8666C246.865 17.1133 246.895 17.363 246.889 17.6158Z" fill="white"/>
<path id="Vector_31" d="M203.07 51.6736C202.396 50.8702 201.89 50.0789 201.473 49.2304C200.769 47.7891 200.266 46.2726 200.062 44.6809C199.843 42.9839 200.655 41.7413 202.079 40.965C202.142 40.9289 202.19 40.8747 202.262 40.9499C202.33 41.0222 202.324 41.1004 202.303 41.1846C202.202 41.5547 202.139 41.9338 202.094 42.316C201.941 43.6068 202.16 44.8524 202.564 46.071C202.678 46.4171 202.684 46.6969 202.519 47.0519C201.995 48.1953 202.193 49.2725 202.999 50.2293C203.118 50.3737 203.163 50.4851 203.106 50.6686C203.014 50.9605 203.032 51.2644 203.07 51.6736Z" fill="white"/>
<path id="Vector_32" d="M139.285 8.1231C138.781 8.1231 138.281 8.12611 137.778 8.1231C137.367 8.12009 137.292 8.04487 137.292 7.64168C137.289 6.74202 137.289 5.84237 137.292 4.94271C137.292 4.50944 137.382 4.42218 137.826 4.42218C138.805 4.41917 139.788 4.41917 140.768 4.42218C141.199 4.42519 141.289 4.51846 141.289 4.95776C141.292 5.85741 141.28 6.75707 141.295 7.65672C141.301 8.00575 141.152 8.12911 140.828 8.12611C140.313 8.12009 139.8 8.1231 139.285 8.1231Z" fill="white"/>
<path id="Vector_33" d="M134.308 8.12295C133.792 8.12295 133.28 8.11994 132.765 8.12295C132.462 8.12295 132.306 8.01162 132.312 7.67463C132.327 6.7509 132.327 5.82718 132.312 4.90345C132.306 4.56044 132.456 4.41602 132.777 4.41602C133.804 4.41602 134.832 4.41602 135.863 4.41602C136.168 4.41602 136.315 4.56044 136.312 4.87938C136.303 5.81514 136.303 6.7509 136.312 7.68666C136.315 7.99959 136.171 8.11994 135.881 8.11994C135.359 8.12295 134.832 8.12295 134.308 8.12295Z" fill="white"/>
<path id="Vector_34" d="M136.777 3.70649C136.262 3.70649 135.749 3.70348 135.234 3.70649C134.907 3.7095 134.754 3.56808 134.76 3.22808C134.769 2.31639 134.76 1.4047 134.766 0.493007C134.769 0.119906 134.883 0.00556906 135.27 0.00256019C136.262 -0.00345756 137.256 -0.00345756 138.248 0.00256019C138.671 0.00556906 138.77 0.113889 138.773 0.544158C138.776 1.43178 138.776 2.31939 138.773 3.20701C138.773 3.60118 138.677 3.70047 138.287 3.70348C137.781 3.7095 137.277 3.70649 136.777 3.70649Z" fill="white"/>
<path id="Vector_35" d="M135.362 53.5154C135.362 54.1894 135.368 54.8604 135.359 55.5344C135.356 55.8413 135.473 56.0158 135.794 56.0128C136.573 56.0098 137.349 56.0188 138.128 55.9977C138.583 55.9857 138.682 55.8563 138.691 55.399C138.694 55.2907 138.697 55.1823 138.685 55.074C138.64 54.6949 138.553 54.3489 138.152 54.1683C137.744 53.9878 137.385 54.1021 137.094 54.3669C136.789 54.6437 136.717 54.3398 136.573 54.2135C136.402 54.066 136.363 53.9126 136.561 53.7381C137.079 53.2867 137.661 53.0701 138.344 53.2747C139.057 53.4883 139.458 53.9758 139.572 54.7069C139.641 55.1372 139.653 55.5675 139.566 55.9977C139.452 56.5604 139.144 56.8613 138.592 56.8703C137.493 56.8884 136.39 56.8824 135.287 56.8733C134.847 56.8703 134.604 56.6507 134.514 56.2204C134.484 56.07 134.472 55.9105 134.472 55.757C134.469 54.3519 134.478 52.9467 134.463 51.5416C134.46 51.2527 134.544 51.1444 134.823 51.1896C134.892 51.2016 134.967 51.1986 135.039 51.1896C135.281 51.1535 135.371 51.2377 135.365 51.4995C135.35 52.1705 135.362 52.8444 135.362 53.5154Z" fill="white"/>
<path id="Vector_36" d="M25.3911 53.7385C25.3911 54.4576 25.3971 55.1798 25.3911 55.8989C25.3851 56.612 25.1154 56.8768 24.4113 56.8768C23.3835 56.8768 22.3528 56.8617 21.3251 56.8858C20.9865 56.8948 20.9805 56.7233 21.0045 56.4916C21.0254 56.284 20.8786 55.9741 21.3101 56.0102C21.5947 56.0343 21.8854 56.0012 22.17 56.0192C22.4037 56.0343 22.4787 55.9561 22.4757 55.7153C22.4637 54.7074 22.4966 53.6964 22.4577 52.6914C22.4427 52.2612 22.6854 52.3454 22.9281 52.3334C23.1888 52.3213 23.3716 52.3183 23.3626 52.6914C23.3326 53.6994 23.3596 54.7074 23.3476 55.7153C23.3446 55.953 23.4135 56.0162 23.6472 56.0162C24.5192 56.0192 24.5192 56.0283 24.5192 55.1406C24.5192 53.9401 24.5281 52.7396 24.5132 51.539C24.5102 51.2592 24.5761 51.1358 24.8667 51.181C24.9476 51.193 25.0345 51.193 25.1184 51.181C25.3432 51.1479 25.4031 51.2411 25.4001 51.4608C25.3851 52.225 25.3911 52.9803 25.3911 53.7385Z" fill="white"/>
<path id="Vector_37" d="M111.188 56.0253C111.188 56.4224 111.2 56.8166 111.185 57.2138C111.152 58.0894 110.706 58.5256 109.837 58.5407C109.537 58.5467 109.237 58.5287 108.941 58.5467C108.716 58.5587 108.599 58.4986 108.629 58.2518C108.641 58.1586 108.638 58.0593 108.629 57.963C108.608 57.7524 108.677 57.6561 108.908 57.6741C109.169 57.6922 109.432 57.6801 109.696 57.6741C110.073 57.6681 110.259 57.4936 110.307 57.1205C110.331 56.943 110.295 56.8647 110.091 56.8678C109.723 56.8678 109.354 56.9039 108.986 56.8076C108.491 56.6782 108.213 56.3502 108.096 55.8808C107.964 55.3603 107.961 54.8338 108.123 54.3192C108.36 53.567 108.956 53.1428 109.753 53.215C110.484 53.2812 111.014 53.6874 111.134 54.4787C111.146 54.5509 111.17 54.6201 111.17 54.6923C111.173 55.1346 111.173 55.58 111.173 56.0223C111.182 56.0253 111.185 56.0253 111.188 56.0253ZM110.319 55.2941C110.307 55.0895 110.337 54.8398 110.265 54.593C110.178 54.2922 109.978 54.1237 109.684 54.0906C109.387 54.0575 109.16 54.2049 109.016 54.4727C108.866 54.7495 108.857 55.0474 108.89 55.3453C108.938 55.7846 109.103 55.944 109.543 56.0042C110.319 56.1035 110.319 56.1035 110.319 55.2941Z" fill="white"/>
<path id="Vector_38" d="M106.232 54.0324C106.232 53.1929 106.238 52.3534 106.226 51.5139C106.223 51.2762 106.271 51.1739 106.538 51.1799C107.131 51.192 107.131 51.1769 107.131 51.7667C107.131 53.3253 107.116 54.8839 107.143 56.4425C107.149 56.8246 107.029 56.9359 106.685 56.8787C106.673 56.8757 106.661 56.8757 106.649 56.8787C106.289 56.9479 106.217 56.7795 106.226 56.4425C106.25 55.6391 106.232 54.8357 106.232 54.0324Z" fill="white"/>
<path id="Vector_39" d="M27.2967 54.0512C27.2967 54.8786 27.2877 55.7061 27.3027 56.5335C27.3087 56.7923 27.2548 56.8946 26.9701 56.8825C26.29 56.8524 26.3978 56.9608 26.3948 56.3169C26.3888 54.7342 26.4008 53.1515 26.3858 51.5689C26.3828 51.28 26.4458 51.1356 26.7544 51.1897C26.7903 51.1958 26.8263 51.1958 26.8623 51.1897C27.1949 51.1326 27.3177 51.2469 27.3027 51.608C27.2758 52.4204 27.2967 53.2358 27.2967 54.0512Z" fill="white"/>
<path id="Vector_40" d="M28.5884 45.3442C28.5884 46.1717 28.5764 47.0021 28.5944 47.8296C28.6004 48.0944 28.5375 48.1816 28.2618 48.1726C27.6865 48.1545 27.6865 48.1696 27.6865 47.5768C27.6865 46.0393 27.7015 44.5048 27.6745 42.9672C27.6685 42.5821 27.7914 42.4708 28.139 42.5309C28.1509 42.534 28.1629 42.534 28.1749 42.5309C28.4895 42.4798 28.6124 42.5851 28.6004 42.9341C28.5674 43.7345 28.5884 44.5409 28.5884 45.3442Z" fill="white"/>
<path id="Vector_41" d="M109.465 45.3439C109.465 44.5165 109.474 43.686 109.459 42.8586C109.456 42.6149 109.513 42.5216 109.774 42.5276C110.349 42.5366 110.349 42.5216 110.349 43.0933C110.349 44.6669 110.343 46.2406 110.355 47.8142C110.358 48.091 110.295 48.2144 110.004 48.1693C109.912 48.1542 109.813 48.1572 109.717 48.1693C109.51 48.1933 109.453 48.1091 109.456 47.9075C109.471 47.05 109.465 46.1954 109.465 45.3439Z" fill="white"/>
<path id="Vector_42" d="M150.713 54.0456C150.713 54.8851 150.701 55.7245 150.719 56.564C150.725 56.8258 150.638 56.889 150.395 56.8769C149.727 56.8499 149.835 56.9672 149.832 56.3022C149.826 54.7436 149.844 53.182 149.82 51.6234C149.814 51.2443 149.928 51.1781 150.278 51.1721C150.647 51.1661 150.737 51.2714 150.725 51.6295C150.692 52.4388 150.713 53.2422 150.713 54.0456Z" fill="white"/>
<path id="Vector_43" d="M50.2429 54.0244C50.2429 54.8639 50.2309 55.7034 50.2489 56.5428C50.2549 56.8136 50.18 56.9189 49.9103 56.8768C49.8054 56.8618 49.6945 56.8678 49.5867 56.8768C49.4159 56.8919 49.356 56.8227 49.356 56.6512C49.359 54.912 49.3619 53.1729 49.356 51.4338C49.356 51.2472 49.4159 51.193 49.6047 51.187C50.2429 51.169 50.2429 51.16 50.2429 51.7918C50.2429 52.535 50.2429 53.2782 50.2429 54.0244Z" fill="white"/>
<path id="Vector_44" d="M149.829 45.3141C149.829 44.4987 149.841 43.6802 149.823 42.8648C149.817 42.588 149.904 42.4947 150.168 42.5309C150.272 42.5459 150.383 42.5399 150.491 42.5309C150.665 42.5158 150.716 42.594 150.716 42.7625C150.713 44.4926 150.71 46.2227 150.716 47.9498C150.716 48.1364 150.644 48.1605 150.485 48.1665C149.829 48.1905 149.829 48.1966 149.829 47.5467C149.829 46.8035 149.829 46.0573 149.829 45.3141Z" fill="white"/>
<path id="Vector_45" d="M206.696 47.8008C207.664 47.9332 208.563 48.2311 209.321 48.881C209.498 49.0314 209.42 49.1307 209.279 49.2029C208.806 49.4466 208.407 49.7716 208.083 50.1959C207.996 50.3102 207.883 50.3313 207.775 50.235C207.415 49.9221 207.047 49.6151 207.008 49.0796C206.975 48.6312 206.738 48.3003 206.375 48.0505C206.313 48.0084 206.181 48.0084 206.208 47.8971C206.235 47.7767 206.361 47.8128 206.45 47.8038C206.528 47.7948 206.612 47.8008 206.696 47.8008Z" fill="white"/>
<path id="Vector_46" d="M140.444 43.9051C140.216 43.9051 139.989 43.9051 139.764 43.9051C139.665 43.9051 139.56 43.9051 139.551 43.7757C139.545 43.6734 139.5 43.5169 139.626 43.4929C139.833 43.4538 139.782 43.3515 139.758 43.2191C139.686 42.8279 139.812 42.4789 140.13 42.3284C140.462 42.169 140.816 42.166 141.148 42.3736C141.274 42.4518 141.376 42.5511 141.271 42.6865C141.196 42.7828 141.121 42.9663 140.912 42.7888C140.747 42.6534 140.501 42.6293 140.324 42.8159C140.192 42.9543 140.219 43.1258 140.303 43.2853C140.378 43.4297 140.507 43.4718 140.663 43.4658C140.843 43.4598 141.022 43.4658 141.199 43.4658C141.352 43.4658 141.367 43.5651 141.367 43.6824C141.367 43.7998 141.352 43.9021 141.202 43.9021C140.948 43.9021 140.696 43.9021 140.444 43.9051C140.444 43.9021 140.444 43.9021 140.444 43.9051Z" fill="white"/>
<path id="Vector_47" d="M22.8742 51.8416C22.6464 51.8416 22.4217 51.8447 22.194 51.8416C22.1161 51.8416 22.0082 51.8567 22.0082 51.7363C22.0052 51.625 21.9483 51.4445 22.0921 51.4264C22.3288 51.3933 22.2659 51.285 22.233 51.1376C22.161 50.7976 22.2389 50.4846 22.5266 50.274C22.8322 50.0544 23.1648 50.0273 23.4944 50.2379C23.5993 50.3041 23.7611 50.3613 23.6712 50.5177C23.5993 50.6441 23.4824 50.7705 23.2967 50.617C23.1468 50.4937 22.9641 50.4816 22.8112 50.617C22.6614 50.7524 22.6524 50.936 22.7154 51.1135C22.7783 51.297 22.9011 51.4144 23.1169 51.3993C23.2607 51.3903 23.4045 51.4054 23.5454 51.3963C23.7281 51.3873 23.7611 51.4866 23.7671 51.6401C23.7731 51.8025 23.6982 51.8477 23.5513 51.8416C23.3296 51.8356 23.1019 51.8416 22.8742 51.8416Z" fill="white"/>
<path id="Vector_48" d="M67.1298 52.2426C67.2497 52.6337 66.977 52.6397 66.6534 52.6277C66.21 52.6126 66.21 52.6247 66.21 52.1493C66.21 51.6889 66.21 51.6859 66.6714 51.6889C67.1988 51.6889 67.1208 51.6318 67.1298 52.2426Z" fill="white"/>
<path id="Vector_49" d="M133.106 52.6063C132.684 52.7387 132.645 52.498 132.66 52.155C132.684 51.6284 132.597 51.6856 133.145 51.6856C133.637 51.6826 133.55 51.6374 133.589 52.2061C133.619 52.6093 133.448 52.6845 133.106 52.6063Z" fill="white"/>
<path id="Vector_50" d="M45.9847 57.9594C45.9787 58.5371 46.0176 58.4167 45.4693 58.4739C44.9839 58.525 45.0947 58.2302 45.0558 57.9564C44.9899 57.505 45.2476 57.5502 45.5532 57.5231C45.9877 57.481 46.0416 57.6856 45.9847 57.9594Z" fill="white"/>
<path id="Vector_51" d="M137.864 57.5327C138.407 57.5447 138.383 57.4394 138.383 57.9961C138.383 58.5587 138.413 58.4143 137.891 58.4685C137.43 58.5196 137.487 58.2609 137.463 57.96C137.433 57.5778 137.574 57.4635 137.864 57.5327Z" fill="white"/>
<path id="Vector_52" d="M115.955 51.8217C115.871 51.4606 115.961 51.3282 116.354 51.3132C116.803 51.2981 116.746 51.5328 116.761 51.8157C116.776 52.1226 116.746 52.2911 116.357 52.279C115.985 52.264 115.832 52.1737 115.955 51.8217Z" fill="white"/>
<path id="Vector_53" d="M76.2271 52.6063C75.7716 52.7417 75.7926 52.4439 75.8016 52.1309C75.8136 51.6856 75.8046 51.6826 76.281 51.6886C76.7724 51.6916 76.6735 51.6224 76.7185 52.2152C76.7484 52.6334 76.5537 52.6755 76.2271 52.6063Z" fill="white"/>
<path id="Vector_54" d="M66.0485 43.474C66.1833 43.9223 65.8957 43.8832 65.587 43.9133C65.1586 43.9584 65.1705 43.7388 65.1406 43.4198C65.0926 42.9204 65.4103 43.0588 65.6709 43.0257C66.0395 42.9775 66.1264 43.146 66.0485 43.474Z" fill="white"/>
<path id="Vector_55" d="M60.8678 43.0287C61.1315 42.9685 61.3083 43.0197 61.2873 43.4349C61.2693 43.7869 61.2154 43.9283 60.8229 43.9163C60.4633 43.9073 60.3195 43.8351 60.3555 43.4469C60.3914 43.0317 60.3644 43.0287 60.8678 43.0287Z" fill="white"/>
<path id="Vector_56" d="M115.736 51.807C115.811 52.1319 115.73 52.2704 115.332 52.2794C114.901 52.2884 114.933 52.0778 114.915 51.7829C114.892 51.4249 114.99 51.3226 115.362 51.3165C115.772 51.3105 115.778 51.5061 115.736 51.807Z" fill="white"/>
<path id="Vector_57" d="M115.82 43.1478C115.94 43.5419 115.71 43.5389 115.407 43.56C115.02 43.5871 115.005 43.4125 114.999 43.1056C114.993 42.7777 115.062 42.6603 115.422 42.6543C115.817 42.6543 115.895 42.8108 115.82 43.1478Z" fill="white"/>
<path id="Vector_58" d="M114.811 43.1266C114.943 43.5508 114.703 43.5418 114.4 43.5629C114.02 43.59 113.99 43.4275 113.987 43.1115C113.984 42.7806 114.056 42.6572 114.415 42.6602C114.79 42.6632 114.931 42.7745 114.811 43.1266Z" fill="white"/>
<path id="Vector_59" d="M53.2209 43.1416C53.3377 43.5238 53.128 43.5448 52.8134 43.5629C52.4418 43.5839 52.3939 43.4365 52.3999 43.1176C52.4029 42.8046 52.4388 42.6572 52.8134 42.6602C53.1999 42.6572 53.3018 42.7926 53.2209 43.1416Z" fill="white"/>
<path id="Vector_60" d="M52.2175 43.1202C52.3193 43.4723 52.1695 43.5595 51.8249 43.5626C51.4923 43.5656 51.3725 43.4964 51.3875 43.1353C51.3995 42.8043 51.4324 42.6448 51.8279 42.6569C52.1875 42.6689 52.3043 42.7802 52.2175 43.1202Z" fill="white"/>
<path id="Vector_61" d="M3.11916 49.7364C2.72065 49.8568 2.72365 49.6191 2.69668 49.3001C2.66372 48.8909 2.8465 48.8548 3.1701 48.8699C3.61356 48.8909 3.5806 48.8789 3.62255 49.3543C3.6615 49.7906 3.43078 49.7846 3.11916 49.7364Z" fill="white"/>
<path id="Vector_62" d="M87.4031 43.0717C87.3312 42.7739 87.457 42.6656 87.8316 42.6565C88.2451 42.6475 88.2001 42.8611 88.2271 43.1349C88.2631 43.505 88.1192 43.5802 87.7866 43.5532C87.4061 43.5261 87.4031 43.5471 87.4031 43.0717Z" fill="white"/>
<path id="Vector_63" d="M87.1997 43.1195C87.2926 43.4595 87.1637 43.5618 86.8132 43.5618C86.4776 43.5618 86.3637 43.4896 86.3817 43.1345C86.3967 42.8126 86.4146 42.6441 86.8162 42.6591C87.1787 42.6682 87.2776 42.7885 87.1997 43.1195Z" fill="white"/>
<path id="Vector_64" d="M130.509 58.0051C130.59 58.3481 130.491 58.4714 130.104 58.4805C129.661 58.4925 129.718 58.2578 129.7 57.975C129.682 57.653 129.742 57.5206 130.113 57.5176C130.518 57.5146 130.584 57.6741 130.509 58.0051Z" fill="white"/>
<path id="Vector_65" d="M131.515 58.0174C131.584 58.3273 131.515 58.4657 131.138 58.4807C130.682 58.5018 130.727 58.2701 130.712 57.9662C130.694 57.6352 130.772 57.5269 131.132 57.5179C131.551 57.5089 131.575 57.7044 131.515 58.0174Z" fill="white"/>
<path id="Vector_66" d="M21.4957 42.3592C21.3849 41.9891 21.5736 41.953 21.9002 41.9349C22.2838 41.9169 22.2988 42.0824 22.3077 42.3893C22.3167 42.7293 22.2328 42.8316 21.8793 42.8346C21.4897 42.8406 21.4268 42.6811 21.4957 42.3592Z" fill="white"/>
<path id="Vector_67" d="M21.7833 43.4472C21.8462 43.7571 21.7893 43.9105 21.4028 43.9196C20.9923 43.9286 20.9893 43.7511 20.9683 43.4351C20.9443 43.059 21.0941 43.0229 21.4118 43.0139C21.7683 43.0079 21.8642 43.1282 21.7833 43.4472Z" fill="white"/>
<path id="Vector_68" d="M22.7875 43.4601C22.8714 43.7971 22.7605 43.9024 22.4009 43.9205C21.9635 43.9446 22.0084 43.7159 21.9874 43.427C21.9605 43.087 22.0863 43.0238 22.4009 43.0178C22.7515 43.0118 22.8803 43.1171 22.7875 43.4601Z" fill="white"/>
<path id="Vector_69" d="M55.8457 59.552C55.9476 59.9101 55.7858 59.9763 55.4472 59.9973C55.0067 60.0244 55.0666 59.7777 55.0367 59.4948C54.9977 59.1248 55.1715 59.1157 55.4622 59.0977C55.8367 59.0766 55.9266 59.224 55.8457 59.552Z" fill="white"/>
<path id="Vector_70" d="M56.0768 59.5219C55.9539 59.1277 56.1726 59.1187 56.4813 59.0946C56.8888 59.0645 56.8558 59.2782 56.8738 59.561C56.8978 59.913 56.7839 59.9883 56.4423 59.9973C56.0408 60.0093 56.0048 59.8258 56.0768 59.5219Z" fill="white"/>
</g>
</svg>
