<svg width="774" height="450" viewBox="0 0 774 450" fill="none" xmlns="http://www.w3.org/2000/svg">
<mask id="path-1-inside-1_131_367" fill="white">
<path d="M522.527 325.223L522.532 325.234C523.169 326.869 523.822 328.542 524.477 330.274C523.864 329.919 523.418 329.646 523.064 329.431L523.062 329.43C522.641 329.173 522.352 328.996 522.07 328.855C518.175 327.081 516.168 328.453 516.192 332.711C516.239 340.944 518.93 348.23 524.123 354.57C528.349 359.727 536.092 360.957 541.757 357.574C549.099 353.198 554.245 340.258 553.277 330.748C553.065 328.642 551.672 327.814 549.666 328.287C548.678 328.522 547.726 328.876 546.658 329.273L546.654 329.274C546.217 329.437 545.761 329.606 545.275 329.778C545.805 328.374 546.334 327.011 546.852 325.674L546.853 325.671C547.925 322.906 548.955 320.249 549.878 317.571C550.083 316.968 550.292 316.367 550.501 315.765C552.023 311.38 553.548 306.987 553.631 302.265C553.679 299.189 551.648 297.037 548.674 296.871C547.932 296.841 547.18 296.849 546.3 296.859C545.808 296.865 545.277 296.871 544.684 296.871C546.809 293.606 548.391 290.555 549.878 287.432C552.451 282.038 554.434 276.455 555.119 270.494C555.803 264.485 552.498 260.037 546.715 259.399C544.991 259.209 544.968 258.665 545.676 257.293C546.762 255.211 547.73 253.059 548.603 250.882C551.318 244.093 553.49 237.185 553.112 229.733C552.923 226.208 551.625 223.227 548.06 222.044C546.243 221.429 546.313 220.767 546.951 219.253C549.807 212.487 552.545 205.65 553.301 198.222C553.915 192.119 551.129 186.914 545.605 184.146C551.53 178.894 555.685 172.767 555.402 164.44C555.396 164.233 555.351 164.007 555.306 163.776C555.181 163.135 555.049 162.463 555.709 162.098C556.698 161.545 557.351 162.268 557.912 162.892C558.047 163.041 558.177 163.185 558.305 163.305C568.149 172.412 576.27 182.94 583.541 194.153C593.408 209.364 601.222 225.64 607.879 242.484C608.492 244.045 609.389 245.228 610.995 245.867C615.362 247.594 618.808 245.015 619.257 239.692C620.272 227.32 618.808 215.208 615.551 203.261C610.168 183.484 600.726 165.67 589.348 148.779C589.219 148.585 589.039 148.389 588.855 148.187C588.297 147.577 587.7 146.924 588.356 146.177C588.958 145.494 589.935 145.886 590.808 146.237C590.963 146.299 591.114 146.36 591.26 146.414C601.505 150.246 611.703 154.126 621.83 158.289C631.863 162.406 641.825 166.64 651.527 171.443C656.059 173.69 660.662 170.993 660.592 166.049C660.592 164.779 660.195 163.462 659.819 162.215L659.813 162.193C657.971 156.231 655.658 150.483 652.707 144.971C645.531 131.581 635.734 120.77 621.924 114.004C615.858 111.023 609.484 108.87 602.732 107.924C602.595 107.904 602.448 107.888 602.297 107.871C601.361 107.765 600.261 107.642 600.159 106.623C600.086 105.838 600.723 105.637 601.384 105.429C601.78 105.304 602.184 105.176 602.449 104.92C602.523 104.846 602.643 104.818 602.763 104.79C602.835 104.773 602.907 104.757 602.969 104.73C605.638 103.728 608.302 102.717 610.966 101.706C616.855 99.4704 622.743 97.2357 628.676 95.1019C630.152 94.5718 631.628 94.0343 633.103 93.4967C639.529 91.1548 645.966 88.8094 652.589 87.0586C655.351 86.3252 656.838 84.409 657.381 81.7358C657.924 78.9916 657.098 76.626 654.784 75.0409C653.014 73.8108 651.149 72.6989 649.19 71.8473C638.213 67.0686 626.669 64.8212 614.725 64.3954C607.184 64.1255 599.68 64.7665 592.18 65.4072C591.133 65.4966 590.087 65.5859 589.041 65.6728C588.906 65.6825 588.768 65.701 588.63 65.7196C588.092 65.7919 587.552 65.8645 587.176 65.4126C586.745 64.8687 587.086 64.3992 587.399 63.9686L587.4 63.9677C587.481 63.8555 587.561 63.7459 587.624 63.6384C593.007 54.9326 598.578 46.3452 605.731 38.9406C608.186 36.4093 609.342 33.7361 608.209 30.2822C607.052 26.71 603.984 26.2133 600.962 26.0477C584.485 25.125 570.557 30.2822 560.005 43.4354C559.786 43.6999 559.587 44.0311 559.385 44.3669C558.845 45.2627 558.286 46.1904 557.29 45.9667C556.267 45.7408 556.174 44.6468 556.084 43.5944C556.052 43.2144 556.02 42.8391 555.945 42.5128C553.041 30.2113 550.043 17.9334 544.354 6.53078C542.324 2.41449 539.066 -0.0694742 534.628 0.00149629C530.332 0.0724668 527.192 2.53278 525.186 6.53078C519.73 17.3751 516.857 29.0461 513.987 40.7093C513.864 41.208 513.742 41.7067 513.619 42.2053C513.537 42.5585 513.502 42.9638 513.467 43.3741C513.37 44.503 513.269 45.6702 512.179 45.8957C511.149 46.1021 510.543 45.0955 509.963 44.1305C509.745 43.7683 509.531 43.412 509.299 43.1279C498.322 29.7145 484.016 24.6756 467.09 26.2369C464.399 26.4735 462.204 27.4671 461.283 30.3295C460.292 33.334 460.953 35.9362 463.101 38.1363C470.49 45.7065 476.25 54.5068 481.821 63.4491C481.896 63.5728 481.988 63.6964 482.082 63.8217C482.399 64.2476 482.732 64.6935 482.458 65.2234C482.098 65.9449 481.465 65.8282 480.862 65.7174C480.714 65.6901 480.568 65.6632 480.428 65.6492C479.652 65.58 478.876 65.5097 478.1 65.4394L478.082 65.4378C469.846 64.6919 461.607 63.9458 453.328 64.4427C439.991 65.2234 427.078 67.6364 415.393 74.6151C412.843 76.1292 411.545 78.7314 412.111 81.5229C412.702 84.409 414.283 86.3252 417.328 87.1296C421.412 88.1941 425.425 89.4716 429.391 90.891C438.385 94.0847 447.332 97.3966 456.255 100.732C458.954 101.742 461.622 102.834 464.293 103.927C465.687 104.498 467.082 105.069 468.483 105.629L468.519 105.643C468.571 105.662 468.624 105.681 468.679 105.7C469.063 105.834 469.475 105.977 469.475 106.481C469.498 107.143 468.979 107.427 468.412 107.569C467.775 107.735 467.138 107.877 466.477 107.971C459.277 109.059 452.407 111.307 446.034 114.737C431.28 122.686 421.247 135.011 414.354 150.104C412.347 154.481 410.695 158.999 409.349 163.612C408.547 166.404 408.924 169.1 411.309 171.064C413.551 172.909 415.936 172.531 418.391 171.277C427.751 166.459 437.477 162.409 447.186 158.366C448.25 157.923 449.314 157.479 450.377 157.035C457.125 154.203 463.998 151.67 470.868 149.138C473.467 148.18 476.066 147.222 478.658 146.248L478.794 146.196C479.648 145.869 480.721 145.459 481.325 146.177C481.892 146.869 481.356 147.455 480.853 148.004C480.686 148.187 480.522 148.365 480.404 148.543C469.168 165.173 459.773 182.679 454.343 202.125C450.849 214.593 449.079 227.249 450.401 240.213C450.779 244.045 452.455 245.914 455.523 246.34C458.498 246.742 460.575 245.252 461.992 241.68C471.363 218.141 482.978 195.88 499.077 176.15C502.996 171.348 507.221 166.829 511.895 162.76C511.98 162.689 512.062 162.615 512.144 162.542C512.635 162.102 513.103 161.682 513.831 162.027C514.303 162.264 514.256 162.784 514.209 163.281C513.501 172.058 517.679 178.587 523.982 184.099C518.009 187.032 515.342 192.568 516.428 199.807C517.443 206.668 520.016 213.055 522.66 219.419L522.697 219.508L522.736 219.603C523.134 220.562 523.465 221.361 522.022 221.784C517.962 222.991 516.64 226.137 516.404 229.969C516.192 233.494 516.735 236.948 517.537 240.355C518.93 246.245 521.149 251.828 523.864 257.246L523.921 257.362C524.391 258.321 524.74 259.032 523.037 259.328C516.64 260.416 513.902 264.012 514.468 270.494C514.87 274.87 516.192 278.986 517.75 283.055C519.242 286.94 521.227 290.569 523.288 294.335L523.294 294.346L523.303 294.363L523.7 295.089C524.013 295.663 524.328 296.241 524.643 296.824H522.4C517.443 296.776 515.247 299.166 515.979 304.063C516.333 306.476 516.923 308.865 517.584 311.231C518.888 315.893 520.64 320.384 522.524 325.216L522.527 325.223Z"/>
<path d="M292.632 449.785C296.561 449.696 300.491 449.606 304.417 449.646C305.361 449.646 306.306 449.646 307.155 449.599L307.328 449.6C316.902 449.67 326.452 449.741 336.026 449.788C336.232 449.788 336.456 449.817 336.684 449.847C337.345 449.934 338.036 450.025 338.387 449.409C338.862 448.564 338.229 447.759 337.683 447.066C337.634 447.002 337.584 446.94 337.537 446.878C336.333 445.34 335.105 443.779 333.76 442.336C331.989 440.396 331.564 438.22 332.32 435.783C333.996 430.389 332.863 425.303 330.715 420.359C328.212 414.634 323.42 412.339 317.471 411.89C314.762 411.686 312.186 412.321 309.606 412.956C307.984 413.356 306.36 413.756 304.7 413.948C304.468 413.972 304.224 414.038 303.98 414.104C303.283 414.293 302.582 414.482 302.127 413.711C301.614 412.832 302.264 412.07 302.829 411.406L302.836 411.399L302.922 411.298C302.948 411.266 302.975 411.235 303.001 411.204C303.156 411.018 303.311 410.831 303.465 410.645C304.393 409.527 305.321 408.409 306.353 407.395C315.843 397.979 320.942 386.482 322.169 373.258C323.043 363.89 322.216 354.758 317.542 346.337C314.639 341.108 308.501 336.614 301.537 339.216C297.335 340.777 293.747 343.238 290.56 346.313C289.681 347.162 288.845 348.055 288.01 348.947C285.775 351.335 283.546 353.716 280.504 355.231C275.334 357.786 271.534 356.178 270.377 350.524C268.182 339.713 270.967 330.392 279.182 322.822C283.88 318.492 289.451 315.559 295.234 313.217C308.171 307.965 318.982 300.04 326.82 288.425C338.033 271.794 340.983 254.17 330.195 236.332C321.178 221.428 304.606 216.792 290.301 229.259C284.375 234.44 280.386 240.969 277.553 248.303C275.783 252.892 273.517 257.221 270.188 260.935C267.096 264.389 265.396 264.129 263.555 259.847C261.336 254.666 257.771 253.034 252.412 254.879C250.618 255.494 248.824 255.967 246.936 256.133C244.882 256.322 243.725 255.707 243.112 253.46C241.742 248.35 243.088 243.737 245.236 239.242C248.945 231.494 253.952 224.582 258.958 217.672C260.738 215.214 262.518 212.757 264.239 210.262C270.117 201.746 275.901 193.135 279.489 183.317C282.109 176.173 283.455 168.839 281.259 161.387C277.6 149.015 269.267 140.806 257.063 137.21C249.202 134.892 244.245 136.311 240.656 144.686C240.013 146.184 239.661 147.828 239.313 149.458L239.241 149.795C239.217 149.906 239.193 150.016 239.169 150.127C238.184 154.644 237.884 159.245 237.584 163.844L237.584 163.845L237.583 163.851C237.459 165.753 237.335 167.654 237.163 169.549C236.337 178.752 230.529 182.726 222.149 183.199C218.915 183.388 216.318 182.111 214.713 179.059C213.202 176.173 212.187 173.145 211.55 169.999C208.599 155.544 209.638 141.256 213.462 127.109C214.453 123.395 217.003 120.958 220.331 119.349C221.725 118.685 223.18 118.168 224.644 117.648C225.213 117.446 225.783 117.243 226.351 117.031C235.51 113.648 243.112 108.396 247.786 99.4776C255.505 84.763 249.249 62.3837 228.263 60.6331C214.17 59.4502 202.202 63.5665 191.768 72.7454C180.059 83.0598 174.016 96.4495 171.986 111.661C170.215 124.885 170.38 138.015 175.999 150.576C177.724 154.453 179.153 158.458 180.581 162.459L180.584 162.468C181.089 163.885 181.595 165.301 182.113 166.71C183.222 169.715 184.19 172.79 184.355 176.031C184.361 176.104 184.368 176.179 184.375 176.256C184.43 176.852 184.493 177.538 183.907 177.853C183.122 178.267 182.608 177.576 182.239 177.08C182.208 177.038 182.178 176.998 182.149 176.959C182.135 176.942 182.122 176.924 182.109 176.908L182.089 176.883C180.578 174.966 179.068 173.027 177.84 170.921C168.988 155.686 162.236 139.552 157.822 122.496C155.509 113.482 154.399 104.398 156.429 95.0538C157.822 88.5955 158.011 81.9479 157.161 75.324C155.957 65.743 152.369 57.4867 143.611 52.4478C136.623 48.4498 128.904 48.3315 121.374 49.8692C108.839 52.4478 98.3813 58.8352 90.8272 69.3861C83.6509 79.3929 81.9748 90.2751 86.8141 101.796C90.7092 111.069 97.2953 118.214 105.038 124.388C108.579 127.203 111.955 130.16 114.622 133.851C121.185 142.959 124.561 153.439 127.771 164.013C130.368 172.554 134.216 180.502 141.699 185.707C150.551 191.857 155.603 200.232 158.294 210.404C160.202 217.631 161.307 224.991 162.412 232.351L162.412 232.352C163.043 236.558 163.674 240.763 164.455 244.943C167.028 258.688 172.434 270.564 184.426 278.702C187.023 280.476 189.336 282.7 191.319 285.278C195.639 290.885 198.567 297.201 200.904 303.778C205.011 315.393 210.299 326.323 219.836 334.413C227.909 341.25 231.308 350.051 232.512 360.057C233.323 366.75 234.066 373.448 234.81 380.146C235.711 388.269 236.613 396.392 237.635 404.509C238.886 414.445 240.373 424.357 244.41 433.654C246.959 439.544 250.831 444.228 256.992 446.641C260.887 448.155 264.995 448.842 269.078 449.291C276.916 450.143 284.774 449.964 292.632 449.785Z"/>
<path d="M94.656 449.861C91.0915 449.861 88.5183 448.134 88.5183 444.68C88.4947 436.447 84.34 430.202 79.6423 424.075C72.2535 414.446 64.369 405.22 56.3665 396.089C49.0958 387.833 42.911 378.843 40.3615 367.89C38.3786 359.397 40.3615 352.063 46.8769 346.031C52.566 340.755 60.1908 340.968 66.7533 346.48C76.6253 354.744 82.9464 365.6 89.2841 376.485L89.321 376.548C90.1852 378.028 90.9884 379.547 91.7919 381.067C94.1487 385.525 96.5077 389.987 100.416 393.463C103.721 396.396 105.845 396.16 107.309 391.972C109.717 385.088 110.213 377.897 109.434 370.705C107.946 356.96 103.013 344.588 93.5228 334.297C87.0075 327.247 79.3591 322.658 69.2792 323.391C65.0537 323.699 60.9225 323.391 56.9803 321.262C47.9627 316.389 48.7416 306.217 53.1088 300.35C60.7573 290.083 72.9146 289.089 82.5223 297.629C88.3126 302.76 93.0773 308.744 97.8452 314.731C99.628 316.969 101.411 319.209 103.249 321.404C103.53 321.741 103.811 322.079 104.092 322.417C106.867 325.762 109.648 329.112 113.635 331.174C118.687 333.777 124.117 330.346 123.951 324.669C123.833 320.742 122.016 317.406 120.08 314.165C116.138 307.589 111.275 301.674 105.916 296.281C99.1411 289.467 95.1754 281.471 93.759 271.985C92.6967 264.841 90.7846 257.933 85.1899 252.728C77.5178 245.608 68.5238 243.289 58.3731 245.395C55.0918 246.081 51.7634 246.909 48.6473 248.139C41.353 251.025 35.7583 247.879 30.7773 243.147C16.6371 229.758 12.6476 211.637 19.6351 193.397C20.8154 190.298 22.3734 187.388 24.498 184.833C31.2258 176.672 38.3785 176.435 46.9476 181.45C53.1561 185.07 59.5298 186.3 66.2812 183.39C71.0969 181.332 72.2536 176.057 69.114 171.917C64.7704 166.192 58.5856 163.661 51.9994 161.886C47.8023 160.758 43.5012 160.278 39.2045 159.798C35.8404 159.422 32.4789 159.047 29.1721 158.361C6.95855 153.796 -4.65576 137.898 2.02483 114.62C3.7717 108.54 9.15392 105.938 14.3945 103.478C22.7984 99.5269 31.5799 99.101 40.2199 101.893C50.6066 105.252 59.2937 111.166 64.1802 121.48C69.6569 133.025 73.5755 145.161 77.0457 157.391C79.9728 167.659 84.8358 176.27 93.759 182.349C99.1884 186.04 101.101 191.41 101.006 197.726C100.959 201.417 100.935 205.084 100.935 208.774C100.935 219.088 103.792 222.661 113.895 224.671C117.412 225.357 119.844 227.226 121.567 230.254C129.924 244.969 132.757 260.937 132.379 277.663C132.343 279.277 132.284 280.891 132.225 282.504C132.012 288.341 131.798 294.175 132.686 299.995C133.654 306.264 136.25 311.729 140.806 316.105C145.056 320.221 149.753 323.699 155.419 325.852C158.912 327.176 160.966 330.252 162.359 333.682C164.814 339.667 165.31 345.984 164.861 352.324C163.87 366.234 168.733 375.2 181.268 381.729C183.389 382.832 185.564 383.848 187.742 384.866L187.754 384.872C188.796 385.358 189.838 385.845 190.875 386.342C200.058 390.719 207.022 397.839 213.679 405.268C221.516 414.044 227.276 424.004 229.377 435.785C229.826 438.293 230.038 440.848 230.086 443.379C230.18 447.566 227.843 449.813 223.688 449.813C202.244 449.861 180.729 449.861 159.237 449.861H94.656Z"/>
<path d="M684.596 408.009C688.94 413.308 693.944 417.969 699.633 422.984C695.951 423.386 693.26 422.511 690.71 421.494C684.357 418.964 679.016 414.781 673.702 410.619C673.053 410.11 672.404 409.602 671.754 409.098C670.729 408.3 669.708 407.495 668.687 406.69C661.837 401.289 654.99 395.892 646.731 392.68C640.216 390.125 633.795 390.196 628.177 394.903C619.891 401.835 615.146 410.872 613.541 421.47C612.573 427.786 614.391 433.559 618.876 438.124C626.052 445.387 635.259 449.503 645.079 449.622C673.284 449.966 701.5 449.924 729.712 449.881H729.735C742.176 449.863 754.615 449.844 767.053 449.858C769.98 449.858 771.916 448.557 773.143 446.168C774.442 443.66 773.875 441.294 772.152 439.047C769.083 435.025 764.787 432.731 760.396 430.602C759.108 429.978 757.788 429.419 756.47 428.86C753.488 427.596 750.511 426.334 747.908 424.333C739.15 417.59 734.405 409.358 736.341 397.719C738.631 383.879 735.113 371.294 725.86 360.625C719.935 353.788 712.215 350.168 703.151 351.044C694.581 351.872 686.909 355.562 680.37 361.192C672.415 368.029 669.535 376.569 672.462 386.86C674.752 394.927 679.355 401.669 684.596 408.009Z"/>
<path d="M647.867 259.161C647.938 254.808 648.41 250.503 649.166 246.221C650.936 236.285 649.449 226.727 645.885 217.359C643.099 210.049 639.983 202.881 636.017 196.139C635.026 194.46 634.53 192.827 635.757 191.148C636.985 189.468 638.85 189.066 640.786 189.279C654.359 190.769 667.626 193.679 680.09 199.38C698.196 207.684 712.478 220.222 721.425 238.319C724.215 243.973 725.02 250.103 725.825 256.237L725.826 256.243C725.953 257.216 726.081 258.189 726.217 259.161C728.035 272.149 729.876 285.136 734.621 297.461C735.187 298.952 735.919 300.395 736.674 301.791C737.406 303.115 737.878 304.369 736.911 305.741C735.872 307.208 734.337 307.279 732.827 306.853C726.429 305.055 720.835 301.767 715.641 297.651C709.22 292.57 705.787 285.57 702.352 278.566C701.405 276.635 700.458 274.703 699.447 272.811L699.375 272.675C699.29 272.516 699.205 272.357 699.12 272.197C699.031 272.03 698.943 271.863 698.854 271.696L698.196 270.455C695.4 265.172 692.603 259.89 688.966 255.092C687.408 253.034 685.661 251.26 683.301 250.171C682.215 249.675 681.034 249.462 680.114 250.29C679.423 250.911 679.755 251.585 680.074 252.232L680.075 252.234C680.181 252.449 680.285 252.662 680.35 252.868C682.215 258.546 683.725 264.247 683.301 270.303C682.592 280.216 677.257 283.48 668.995 284.19C656.909 285.254 649.284 278.276 648.104 265.383C648.018 264.145 647.984 262.9 647.95 261.65L647.95 261.644C647.928 260.817 647.905 259.989 647.867 259.161Z"/>
<path d="M572.613 423.419C571.319 422.317 569.997 421.19 568.552 420.125C576.012 418.516 580.072 412.153 578.301 405.34C577.31 401.507 575.044 398.384 571.101 397.367C567.655 396.468 564.067 396.941 561.423 399.733C559.558 401.72 557.929 403.944 556.418 406.191C555.45 407.634 554.908 407.965 553.491 406.593C552.451 405.593 551.412 404.59 550.374 403.588C545.004 398.405 539.638 393.227 534.04 388.33C513.856 370.659 493.578 353.058 472.781 336.096C463.433 328.478 454.014 320.932 443.533 314.947C432.65 308.725 421.296 303.497 408.95 300.682C397.713 298.127 386.5 296.944 375.145 299.664C375.048 299.688 374.951 299.711 374.854 299.734L374.846 299.736C373.379 300.084 371.898 300.435 371.699 302.361C371.486 304.443 373.162 305.082 374.65 305.579C384.493 308.843 394.266 312.321 403.992 315.94C418.51 321.334 432.32 328.005 445.28 336.475C459.396 345.701 472.238 356.559 484.844 367.701C504.248 384.876 523.039 402.737 541.83 420.598C543.34 422.041 543.954 422.846 542.302 424.714C539.351 428.074 537.037 431.788 537.651 436.685C538.525 443.687 544.544 447.993 551.178 445.911C555.663 444.515 557.504 440.754 558.401 436.093C558.792 436.418 559.135 436.711 559.456 436.984L559.458 436.986C559.815 437.29 560.143 437.57 560.479 437.844L561.253 438.485C565.454 441.968 569.665 445.458 574.713 447.709C578.632 449.459 582.645 450.903 586.965 449.318C591.828 447.52 596.148 444.823 599.877 441.132C606.771 434.319 606.228 426.465 598.249 420.906C594.849 418.516 590.648 418.729 589.066 423.153C588.688 424.218 588.192 425.259 587.697 426.252C585.903 429.777 583.684 430.463 580.072 428.736C577.287 427.402 574.998 425.451 572.613 423.419Z"/>
<path d="M362.116 104.14C375.171 104.565 387.281 105.867 399.037 109.604C401.515 110.385 402.648 111.899 402.79 114.241C402.955 116.607 401.87 118.357 399.651 119.398C393.985 122.048 388.414 124.863 383.173 128.341C373.4 134.823 367.475 143.741 365.044 155.12C364.288 158.621 363.509 162.146 362.258 165.482C357.796 177.499 348.165 183.461 336.48 186.82C327.982 189.281 320.144 187.601 313.582 181.829C306.972 175.985 303.644 168.202 302.676 159.497C301.141 145.61 306.169 133.758 314.668 123.231C322.788 113.153 333.718 107.948 346.3 105.583C349.74 104.94 353.163 104.748 356.389 104.567C358.387 104.456 360.311 104.348 362.116 104.14Z"/>
<path d="M389.946 248.871C388.175 253.484 386.971 258.239 386.971 263.207C386.924 271.937 390.253 276.337 398.562 277.307C408.854 278.561 415.866 275.083 418.226 263.941C419.619 257.293 419.147 250.598 417.966 243.974C416.55 236.097 417.093 228.408 419.643 220.814C422.286 212.937 425.591 205.343 429.723 198.127C431.658 194.768 429.959 191.953 426.04 191.906C425.934 191.906 425.828 191.905 425.722 191.905H425.721C424.973 191.902 424.214 191.9 423.49 192.024C412.419 194.059 401.418 196.14 390.984 200.73C379.512 205.769 369.762 212.889 361.665 222.376C354.654 230.585 350.169 239.811 348.824 250.74C348.729 251.509 348.635 252.278 348.541 253.047C346.807 267.218 345.064 281.47 338.437 294.529C337.917 295.523 338.295 296.54 339.051 297.392C339.9 298.361 340.868 298.622 342.096 298.219C350.287 295.57 357.44 291.359 362.916 284.546C365.841 280.918 367.834 276.77 369.825 272.628L369.827 272.623C370.808 270.582 371.788 268.542 372.878 266.567C373.492 265.462 374.091 264.348 374.69 263.234L374.699 263.218C377.395 258.205 380.093 253.19 384.068 249.013C385.272 247.76 386.57 246.79 388.435 246.79C390.017 246.79 390.63 247.073 389.946 248.871Z"/>
<path fill-rule="evenodd" clip-rule="evenodd" d="M416.973 421.071C418.357 424.94 420.809 428.121 423.259 431.3L423.26 431.301C424.36 432.728 425.46 434.156 426.463 435.644C426.619 435.876 426.844 436.096 427.072 436.318C427.632 436.866 428.204 437.425 427.784 438.199C427.343 439.011 426.427 438.83 425.598 438.666C425.363 438.62 425.136 438.575 424.928 438.554C409.702 437.276 395.963 432.237 383.924 422.633C379.486 419.084 375.19 415.512 372.475 410.402C370.35 406.428 369.453 402.264 370.728 397.864C371.106 396.516 370.87 395.688 369.807 394.67C368.108 393.038 366.951 390.98 366.573 388.52C366.565 388.473 366.558 388.426 366.551 388.379L366.54 388.31L366.527 388.218C366.511 388.104 366.495 387.989 366.48 387.873C366.314 386.63 366.141 385.337 364.756 384.593C364.401 384.403 364.26 383.623 364.189 383.079C363.67 378.205 364.85 373.71 367.47 369.618C368.84 367.465 370.917 367.985 372.805 368.577C382.885 371.818 387.984 379.199 387.654 389.868C387.639 390.27 387.643 390.662 387.648 391.163C387.65 391.458 387.654 391.791 387.654 392.186C388.908 390.465 388.882 388.857 388.859 387.342L388.858 387.266C388.841 386.173 388.72 385.091 388.585 383.876L388.585 383.874C388.527 383.354 388.466 382.808 388.409 382.227C390.675 383.646 391.808 385.421 391.856 387.668C391.974 392.376 394.358 395.688 398.159 398.053C399.905 399.142 400.212 400.088 399.197 401.886C397.71 404.512 397.285 407.374 398.088 410.97C398.335 410.211 398.552 409.498 398.757 408.819C399.2 407.361 399.594 406.062 400.141 404.819C403.541 397.225 409.726 392.754 417.185 389.797C431.443 384.143 446.315 383.765 461.353 384.522C463.201 384.621 465.05 384.639 466.891 384.657C467.683 384.665 468.473 384.673 469.261 384.687C469.356 384.69 469.453 384.691 469.551 384.691C470.208 384.693 470.897 384.695 471.102 385.539C471.293 386.343 470.773 386.62 470.23 386.91C470.102 386.978 469.973 387.047 469.851 387.124C461.258 392.47 451.839 395.711 442.137 398.337C437.833 399.503 433.429 399.827 429.029 400.15C426.02 400.371 423.013 400.591 420.042 401.081C417.681 401.46 415.674 402.406 414.211 404.559C414.483 404.468 414.756 404.375 415.027 404.281C415.248 404.205 415.468 404.128 415.688 404.051L415.689 404.051C416.818 403.657 417.946 403.263 419.097 402.95C424.314 401.484 425.802 402.264 428.257 407.043C431.066 412.531 433.072 418.304 434.701 424.218C435.811 428.239 437.274 432.095 440.319 435.147C441.098 435.928 441.547 436.874 441.004 437.962C440.447 439.079 439.385 438.973 438.434 438.878L438.428 438.877L438.421 438.877C438.369 438.871 438.317 438.866 438.266 438.861C433.49 438.32 430.219 435.214 426.976 432.136C426.821 431.988 426.665 431.841 426.51 431.693C424.172 429.477 422.256 426.911 420.339 424.342C419.392 423.073 418.444 421.803 417.445 420.575C417.407 420.566 417.369 420.558 417.33 420.551C417.295 420.544 417.26 420.538 417.225 420.532C417.192 420.526 417.159 420.521 417.126 420.515L417.044 420.502L417.005 420.495C416.939 420.483 416.873 420.471 416.807 420.456C416.807 420.605 416.866 420.768 416.925 420.934C416.941 420.979 416.958 421.026 416.973 421.071ZM413.196 404.512C413.143 404.578 413.081 404.644 413.017 404.712C412.853 404.887 412.68 405.071 412.629 405.292C412.582 405.529 412.889 405.765 413.196 405.576C413.408 405.458 413.644 405.269 413.762 405.032C413.909 404.719 413.713 404.664 413.44 404.588L413.439 404.588L413.388 404.573L413.342 404.56C413.329 404.556 413.315 404.552 413.302 404.548C413.267 404.537 413.231 404.525 413.196 404.512Z"/>
<path d="M677.842 298.089L677.777 298.087C677.554 298.076 677.334 298.066 677.115 298.056C664.414 298.222 652.824 300.753 641.682 305.201C628.84 310.287 616.966 317.076 605.965 325.403C592.171 335.833 579.007 347.042 565.84 358.256L565.837 358.258L563.497 360.25C557.006 365.762 550.585 371.345 544.235 376.999C541.803 379.175 541.85 381.115 544.022 383.576C544.735 384.395 545.475 385.186 546.215 385.976L546.217 385.978C547.142 386.967 548.067 387.954 548.932 388.993C551.671 392.305 553.441 392.423 556.557 389.49C569.257 377.472 582.335 365.833 595.673 354.525C607.641 344.353 619.964 334.653 633.301 326.302C639.769 322.233 646.544 318.709 653.579 315.609C660.897 312.392 668.475 310.145 676.17 308.087C679.678 307.16 683.224 306.556 686.78 305.951L686.788 305.95C688.04 305.736 689.293 305.523 690.547 305.295C692.105 305.011 693.545 304.609 693.474 302.575C693.403 300.635 691.869 300.162 690.429 299.736C686.142 298.467 681.73 298.266 677.842 298.089Z"/>
<path d="M508.075 436.044C507.244 436.73 506.429 437.416 505.621 438.095C501.863 441.258 498.277 444.276 494.1 446.476L493.862 446.601C490.872 448.169 487.869 449.745 484.374 449.883C477.976 450.119 473.184 446.571 468.534 442.928C466.268 441.154 464.285 439.001 462.963 436.304C459.847 430.011 464.214 421.093 471.107 419.626C473.963 419.011 475.876 420.004 477.103 422.512C477.398 423.114 477.657 423.732 477.914 424.347C478.274 425.208 478.632 426.065 479.086 426.865C480.668 429.704 483.052 430.39 486.003 428.947C489.545 427.228 492.557 424.786 495.714 422.227L495.715 422.226L495.725 422.218L495.73 422.214C496.565 421.537 497.41 420.852 498.278 420.17C493.509 419.295 490.087 417.047 488.599 412.718C487.136 408.484 487.49 404.415 490.488 400.724C494.076 396.3 500.473 395.401 504.274 399.565L505.684 401.111C513.739 409.939 521.801 418.775 529.273 428.119C532.247 431.833 531.327 437.818 526.063 443.259C522.498 446.949 516.951 447.517 512.938 444.702C510.01 442.739 508.736 439.758 508.075 436.044Z"/>
<path d="M580.967 254.336V254.904C580.802 265.455 576.671 274.492 570.25 282.583C569.022 284.144 568.715 285.09 570.014 286.888C576.624 296.091 579.763 305.979 575.325 317.169C574.617 318.967 575.561 319.44 577.119 319.203C577.882 319.087 578.647 318.983 579.413 318.879C582.082 318.515 584.754 318.151 587.341 317.287C595.957 314.401 602.047 307.872 602.284 297.96C602.378 293.654 600.678 290.271 597.043 287.953C596.504 287.609 595.81 287.294 595.128 286.984C593.84 286.399 592.596 285.834 592.534 285.138C592.427 284.076 593.159 282.954 593.904 281.81C594.305 281.197 594.709 280.577 594.989 279.957C600.867 267.087 597.633 256.726 586.042 251.19C581.156 248.848 580.873 249.014 580.967 254.336Z"/>
<path d="M482.888 253.959C482.864 264.605 486.736 273.855 493.251 282.016C494.998 284.216 494.88 285.375 493.298 287.623C487.09 296.565 484.257 306.241 488.483 316.957C489.143 318.613 488.695 319.37 486.948 319.181C481.141 318.542 475.428 317.714 470.4 314.308C464.168 310.073 461.43 304.064 461.595 296.731C461.737 291.502 465.089 288.262 469.527 286.369C471.833 285.389 471.427 284.685 470.486 283.053L470.447 282.986C467.497 277.852 465.466 272.388 466.08 266.308C466.859 258.501 471.817 253.983 478.521 250.907C478.713 250.811 478.922 250.747 479.132 250.682C479.283 250.635 479.435 250.588 479.583 250.529C482.793 249.133 483.077 249.346 482.841 252.824C482.864 253.202 482.888 253.581 482.888 253.959Z"/>
<path d="M694.965 158.051C704.242 155.378 709.954 148.068 709.931 138.345C709.978 136.358 709.742 134.395 709.176 132.455C705.823 120.768 693.784 114.57 683.374 120.792C673.908 126.446 671.311 139.954 677.024 149.488C680.824 155.804 690.196 159.423 694.965 158.051Z"/>
<path d="M364.712 406.118C359.401 399.801 355.412 393.58 352.13 386.908C346.583 375.577 342.617 363.654 341.012 351.139C339.288 337.797 345.686 328.027 356.899 321.923C356.978 321.878 357.055 321.828 357.13 321.78C357.521 321.529 357.863 321.308 358.339 321.805C358.882 322.373 358.834 322.988 358.669 323.65C357.867 326.56 357.371 329.541 357.017 332.545C355.813 342.694 357.536 352.488 360.723 362.069C361.62 364.789 361.667 366.989 360.369 369.781C356.238 378.77 357.796 387.24 364.146 394.762C365.09 395.898 365.444 396.773 364.996 398.216C364.264 400.511 364.406 402.9 364.712 406.118Z"/>
<path d="M413.955 384.165C407.983 379.055 400.901 376.713 393.276 375.672C393.086 375.672 392.896 375.668 392.707 375.665C392.239 375.655 391.778 375.645 391.34 375.696C391.182 375.712 391.009 375.71 390.835 375.708C390.228 375.702 389.593 375.695 389.428 376.429C389.276 377.056 389.765 377.234 390.237 377.406C390.424 377.474 390.609 377.542 390.75 377.636C393.606 379.599 395.471 382.202 395.731 385.727C396.03 389.827 398.791 392.223 401.552 394.618L401.774 394.811C402.624 395.568 403.521 395.402 404.206 394.503C406.755 391.168 409.895 388.613 413.625 386.696C414.734 386.129 415.348 385.348 413.955 384.165Z"/>
</mask>
<path d="M522.527 325.223L522.532 325.234C523.169 326.869 523.822 328.542 524.477 330.274C523.864 329.919 523.418 329.646 523.064 329.431L523.062 329.43C522.641 329.173 522.352 328.996 522.07 328.855C518.175 327.081 516.168 328.453 516.192 332.711C516.239 340.944 518.93 348.23 524.123 354.57C528.349 359.727 536.092 360.957 541.757 357.574C549.099 353.198 554.245 340.258 553.277 330.748C553.065 328.642 551.672 327.814 549.666 328.287C548.678 328.522 547.726 328.876 546.658 329.273L546.654 329.274C546.217 329.437 545.761 329.606 545.275 329.778C545.805 328.374 546.334 327.011 546.852 325.674L546.853 325.671C547.925 322.906 548.955 320.249 549.878 317.571C550.083 316.968 550.292 316.367 550.501 315.765C552.023 311.38 553.548 306.987 553.631 302.265C553.679 299.189 551.648 297.037 548.674 296.871C547.932 296.841 547.18 296.849 546.3 296.859C545.808 296.865 545.277 296.871 544.684 296.871C546.809 293.606 548.391 290.555 549.878 287.432C552.451 282.038 554.434 276.455 555.119 270.494C555.803 264.485 552.498 260.037 546.715 259.399C544.991 259.209 544.968 258.665 545.676 257.293C546.762 255.211 547.73 253.059 548.603 250.882C551.318 244.093 553.49 237.185 553.112 229.733C552.923 226.208 551.625 223.227 548.06 222.044C546.243 221.429 546.313 220.767 546.951 219.253C549.807 212.487 552.545 205.65 553.301 198.222C553.915 192.119 551.129 186.914 545.605 184.146C551.53 178.894 555.685 172.767 555.402 164.44C555.396 164.233 555.351 164.007 555.306 163.776C555.181 163.135 555.049 162.463 555.709 162.098C556.698 161.545 557.351 162.268 557.912 162.892C558.047 163.041 558.177 163.185 558.305 163.305C568.149 172.412 576.27 182.94 583.541 194.153C593.408 209.364 601.222 225.64 607.879 242.484C608.492 244.045 609.389 245.228 610.995 245.867C615.362 247.594 618.808 245.015 619.257 239.692C620.272 227.32 618.808 215.208 615.551 203.261C610.168 183.484 600.726 165.67 589.348 148.779C589.219 148.585 589.039 148.389 588.855 148.187C588.297 147.577 587.7 146.924 588.356 146.177C588.958 145.494 589.935 145.886 590.808 146.237C590.963 146.299 591.114 146.36 591.26 146.414C601.505 150.246 611.703 154.126 621.83 158.289C631.863 162.406 641.825 166.64 651.527 171.443C656.059 173.69 660.662 170.993 660.592 166.049C660.592 164.779 660.195 163.462 659.819 162.215L659.813 162.193C657.971 156.231 655.658 150.483 652.707 144.971C645.531 131.581 635.734 120.77 621.924 114.004C615.858 111.023 609.484 108.87 602.732 107.924C602.595 107.904 602.448 107.888 602.297 107.871C601.361 107.765 600.261 107.642 600.159 106.623C600.086 105.838 600.723 105.637 601.384 105.429C601.78 105.304 602.184 105.176 602.449 104.92C602.523 104.846 602.643 104.818 602.763 104.79C602.835 104.773 602.907 104.757 602.969 104.73C605.638 103.728 608.302 102.717 610.966 101.706C616.855 99.4704 622.743 97.2357 628.676 95.1019C630.152 94.5718 631.628 94.0343 633.103 93.4967C639.529 91.1548 645.966 88.8094 652.589 87.0586C655.351 86.3252 656.838 84.409 657.381 81.7358C657.924 78.9916 657.098 76.626 654.784 75.0409C653.014 73.8108 651.149 72.6989 649.19 71.8473C638.213 67.0686 626.669 64.8212 614.725 64.3954C607.184 64.1255 599.68 64.7665 592.18 65.4072C591.133 65.4966 590.087 65.5859 589.041 65.6728C588.906 65.6825 588.768 65.701 588.63 65.7196C588.092 65.7919 587.552 65.8645 587.176 65.4126C586.745 64.8687 587.086 64.3992 587.399 63.9686L587.4 63.9677C587.481 63.8555 587.561 63.7459 587.624 63.6384C593.007 54.9326 598.578 46.3452 605.731 38.9406C608.186 36.4093 609.342 33.7361 608.209 30.2822C607.052 26.71 603.984 26.2133 600.962 26.0477C584.485 25.125 570.557 30.2822 560.005 43.4354C559.786 43.6999 559.587 44.0311 559.385 44.3669C558.845 45.2627 558.286 46.1904 557.29 45.9667C556.267 45.7408 556.174 44.6468 556.084 43.5944C556.052 43.2144 556.02 42.8391 555.945 42.5128C553.041 30.2113 550.043 17.9334 544.354 6.53078C542.324 2.41449 539.066 -0.0694742 534.628 0.00149629C530.332 0.0724668 527.192 2.53278 525.186 6.53078C519.73 17.3751 516.857 29.0461 513.987 40.7093C513.864 41.208 513.742 41.7067 513.619 42.2053C513.537 42.5585 513.502 42.9638 513.467 43.3741C513.37 44.503 513.269 45.6702 512.179 45.8957C511.149 46.1021 510.543 45.0955 509.963 44.1305C509.745 43.7683 509.531 43.412 509.299 43.1279C498.322 29.7145 484.016 24.6756 467.09 26.2369C464.399 26.4735 462.204 27.4671 461.283 30.3295C460.292 33.334 460.953 35.9362 463.101 38.1363C470.49 45.7065 476.25 54.5068 481.821 63.4491C481.896 63.5728 481.988 63.6964 482.082 63.8217C482.399 64.2476 482.732 64.6935 482.458 65.2234C482.098 65.9449 481.465 65.8282 480.862 65.7174C480.714 65.6901 480.568 65.6632 480.428 65.6492C479.652 65.58 478.876 65.5097 478.1 65.4394L478.082 65.4378C469.846 64.6919 461.607 63.9458 453.328 64.4427C439.991 65.2234 427.078 67.6364 415.393 74.6151C412.843 76.1292 411.545 78.7314 412.111 81.5229C412.702 84.409 414.283 86.3252 417.328 87.1296C421.412 88.1941 425.425 89.4716 429.391 90.891C438.385 94.0847 447.332 97.3966 456.255 100.732C458.954 101.742 461.622 102.834 464.293 103.927C465.687 104.498 467.082 105.069 468.483 105.629L468.519 105.643C468.571 105.662 468.624 105.681 468.679 105.7C469.063 105.834 469.475 105.977 469.475 106.481C469.498 107.143 468.979 107.427 468.412 107.569C467.775 107.735 467.138 107.877 466.477 107.971C459.277 109.059 452.407 111.307 446.034 114.737C431.28 122.686 421.247 135.011 414.354 150.104C412.347 154.481 410.695 158.999 409.349 163.612C408.547 166.404 408.924 169.1 411.309 171.064C413.551 172.909 415.936 172.531 418.391 171.277C427.751 166.459 437.477 162.409 447.186 158.366C448.25 157.923 449.314 157.479 450.377 157.035C457.125 154.203 463.998 151.67 470.868 149.138C473.467 148.18 476.066 147.222 478.658 146.248L478.794 146.196C479.648 145.869 480.721 145.459 481.325 146.177C481.892 146.869 481.356 147.455 480.853 148.004C480.686 148.187 480.522 148.365 480.404 148.543C469.168 165.173 459.773 182.679 454.343 202.125C450.849 214.593 449.079 227.249 450.401 240.213C450.779 244.045 452.455 245.914 455.523 246.34C458.498 246.742 460.575 245.252 461.992 241.68C471.363 218.141 482.978 195.88 499.077 176.15C502.996 171.348 507.221 166.829 511.895 162.76C511.98 162.689 512.062 162.615 512.144 162.542C512.635 162.102 513.103 161.682 513.831 162.027C514.303 162.264 514.256 162.784 514.209 163.281C513.501 172.058 517.679 178.587 523.982 184.099C518.009 187.032 515.342 192.568 516.428 199.807C517.443 206.668 520.016 213.055 522.66 219.419L522.697 219.508L522.736 219.603C523.134 220.562 523.465 221.361 522.022 221.784C517.962 222.991 516.64 226.137 516.404 229.969C516.192 233.494 516.735 236.948 517.537 240.355C518.93 246.245 521.149 251.828 523.864 257.246L523.921 257.362C524.391 258.321 524.74 259.032 523.037 259.328C516.64 260.416 513.902 264.012 514.468 270.494C514.87 274.87 516.192 278.986 517.75 283.055C519.242 286.94 521.227 290.569 523.288 294.335L523.294 294.346L523.303 294.363L523.7 295.089C524.013 295.663 524.328 296.241 524.643 296.824H522.4C517.443 296.776 515.247 299.166 515.979 304.063C516.333 306.476 516.923 308.865 517.584 311.231C518.888 315.893 520.64 320.384 522.524 325.216L522.527 325.223Z" fill="white"/>
<path d="M292.632 449.785C296.561 449.696 300.491 449.606 304.417 449.646C305.361 449.646 306.306 449.646 307.155 449.599L307.328 449.6C316.902 449.67 326.452 449.741 336.026 449.788C336.232 449.788 336.456 449.817 336.684 449.847C337.345 449.934 338.036 450.025 338.387 449.409C338.862 448.564 338.229 447.759 337.683 447.066C337.634 447.002 337.584 446.94 337.537 446.878C336.333 445.34 335.105 443.779 333.76 442.336C331.989 440.396 331.564 438.22 332.32 435.783C333.996 430.389 332.863 425.303 330.715 420.359C328.212 414.634 323.42 412.339 317.471 411.89C314.762 411.686 312.186 412.321 309.606 412.956C307.984 413.356 306.36 413.756 304.7 413.948C304.468 413.972 304.224 414.038 303.98 414.104C303.283 414.293 302.582 414.482 302.127 413.711C301.614 412.832 302.264 412.07 302.829 411.406L302.836 411.399L302.922 411.298C302.948 411.266 302.975 411.235 303.001 411.204C303.156 411.018 303.311 410.831 303.465 410.645C304.393 409.527 305.321 408.409 306.353 407.395C315.843 397.979 320.942 386.482 322.169 373.258C323.043 363.89 322.216 354.758 317.542 346.337C314.639 341.108 308.501 336.614 301.537 339.216C297.335 340.777 293.747 343.238 290.56 346.313C289.681 347.162 288.845 348.055 288.01 348.947C285.775 351.335 283.546 353.716 280.504 355.231C275.334 357.786 271.534 356.178 270.377 350.524C268.182 339.713 270.967 330.392 279.182 322.822C283.88 318.492 289.451 315.559 295.234 313.217C308.171 307.965 318.982 300.04 326.82 288.425C338.033 271.794 340.983 254.17 330.195 236.332C321.178 221.428 304.606 216.792 290.301 229.259C284.375 234.44 280.386 240.969 277.553 248.303C275.783 252.892 273.517 257.221 270.188 260.935C267.096 264.389 265.396 264.129 263.555 259.847C261.336 254.666 257.771 253.034 252.412 254.879C250.618 255.494 248.824 255.967 246.936 256.133C244.882 256.322 243.725 255.707 243.112 253.46C241.742 248.35 243.088 243.737 245.236 239.242C248.945 231.494 253.952 224.582 258.958 217.672C260.738 215.214 262.518 212.757 264.239 210.262C270.117 201.746 275.901 193.135 279.489 183.317C282.109 176.173 283.455 168.839 281.259 161.387C277.6 149.015 269.267 140.806 257.063 137.21C249.202 134.892 244.245 136.311 240.656 144.686C240.013 146.184 239.661 147.828 239.313 149.458L239.241 149.795C239.217 149.906 239.193 150.016 239.169 150.127C238.184 154.644 237.884 159.245 237.584 163.844L237.584 163.845L237.583 163.851C237.459 165.753 237.335 167.654 237.163 169.549C236.337 178.752 230.529 182.726 222.149 183.199C218.915 183.388 216.318 182.111 214.713 179.059C213.202 176.173 212.187 173.145 211.55 169.999C208.599 155.544 209.638 141.256 213.462 127.109C214.453 123.395 217.003 120.958 220.331 119.349C221.725 118.685 223.18 118.168 224.644 117.648C225.213 117.446 225.783 117.243 226.351 117.031C235.51 113.648 243.112 108.396 247.786 99.4776C255.505 84.763 249.249 62.3837 228.263 60.6331C214.17 59.4502 202.202 63.5665 191.768 72.7454C180.059 83.0598 174.016 96.4495 171.986 111.661C170.215 124.885 170.38 138.015 175.999 150.576C177.724 154.453 179.153 158.458 180.581 162.459L180.584 162.468C181.089 163.885 181.595 165.301 182.113 166.71C183.222 169.715 184.19 172.79 184.355 176.031C184.361 176.104 184.368 176.179 184.375 176.256C184.43 176.852 184.493 177.538 183.907 177.853C183.122 178.267 182.608 177.576 182.239 177.08C182.208 177.038 182.178 176.998 182.149 176.959C182.135 176.942 182.122 176.924 182.109 176.908L182.089 176.883C180.578 174.966 179.068 173.027 177.84 170.921C168.988 155.686 162.236 139.552 157.822 122.496C155.509 113.482 154.399 104.398 156.429 95.0538C157.822 88.5955 158.011 81.9479 157.161 75.324C155.957 65.743 152.369 57.4867 143.611 52.4478C136.623 48.4498 128.904 48.3315 121.374 49.8692C108.839 52.4478 98.3813 58.8352 90.8272 69.3861C83.6509 79.3929 81.9748 90.2751 86.8141 101.796C90.7092 111.069 97.2953 118.214 105.038 124.388C108.579 127.203 111.955 130.16 114.622 133.851C121.185 142.959 124.561 153.439 127.771 164.013C130.368 172.554 134.216 180.502 141.699 185.707C150.551 191.857 155.603 200.232 158.294 210.404C160.202 217.631 161.307 224.991 162.412 232.351L162.412 232.352C163.043 236.558 163.674 240.763 164.455 244.943C167.028 258.688 172.434 270.564 184.426 278.702C187.023 280.476 189.336 282.7 191.319 285.278C195.639 290.885 198.567 297.201 200.904 303.778C205.011 315.393 210.299 326.323 219.836 334.413C227.909 341.25 231.308 350.051 232.512 360.057C233.323 366.75 234.066 373.448 234.81 380.146C235.711 388.269 236.613 396.392 237.635 404.509C238.886 414.445 240.373 424.357 244.41 433.654C246.959 439.544 250.831 444.228 256.992 446.641C260.887 448.155 264.995 448.842 269.078 449.291C276.916 450.143 284.774 449.964 292.632 449.785Z" fill="white"/>
<path d="M94.656 449.861C91.0915 449.861 88.5183 448.134 88.5183 444.68C88.4947 436.447 84.34 430.202 79.6423 424.075C72.2535 414.446 64.369 405.22 56.3665 396.089C49.0958 387.833 42.911 378.843 40.3615 367.89C38.3786 359.397 40.3615 352.063 46.8769 346.031C52.566 340.755 60.1908 340.968 66.7533 346.48C76.6253 354.744 82.9464 365.6 89.2841 376.485L89.321 376.548C90.1852 378.028 90.9884 379.547 91.7919 381.067C94.1487 385.525 96.5077 389.987 100.416 393.463C103.721 396.396 105.845 396.16 107.309 391.972C109.717 385.088 110.213 377.897 109.434 370.705C107.946 356.96 103.013 344.588 93.5228 334.297C87.0075 327.247 79.3591 322.658 69.2792 323.391C65.0537 323.699 60.9225 323.391 56.9803 321.262C47.9627 316.389 48.7416 306.217 53.1088 300.35C60.7573 290.083 72.9146 289.089 82.5223 297.629C88.3126 302.76 93.0773 308.744 97.8452 314.731C99.628 316.969 101.411 319.209 103.249 321.404C103.53 321.741 103.811 322.079 104.092 322.417C106.867 325.762 109.648 329.112 113.635 331.174C118.687 333.777 124.117 330.346 123.951 324.669C123.833 320.742 122.016 317.406 120.08 314.165C116.138 307.589 111.275 301.674 105.916 296.281C99.1411 289.467 95.1754 281.471 93.759 271.985C92.6967 264.841 90.7846 257.933 85.1899 252.728C77.5178 245.608 68.5238 243.289 58.3731 245.395C55.0918 246.081 51.7634 246.909 48.6473 248.139C41.353 251.025 35.7583 247.879 30.7773 243.147C16.6371 229.758 12.6476 211.637 19.6351 193.397C20.8154 190.298 22.3734 187.388 24.498 184.833C31.2258 176.672 38.3785 176.435 46.9476 181.45C53.1561 185.07 59.5298 186.3 66.2812 183.39C71.0969 181.332 72.2536 176.057 69.114 171.917C64.7704 166.192 58.5856 163.661 51.9994 161.886C47.8023 160.758 43.5012 160.278 39.2045 159.798C35.8404 159.422 32.4789 159.047 29.1721 158.361C6.95855 153.796 -4.65576 137.898 2.02483 114.62C3.7717 108.54 9.15392 105.938 14.3945 103.478C22.7984 99.5269 31.5799 99.101 40.2199 101.893C50.6066 105.252 59.2937 111.166 64.1802 121.48C69.6569 133.025 73.5755 145.161 77.0457 157.391C79.9728 167.659 84.8358 176.27 93.759 182.349C99.1884 186.04 101.101 191.41 101.006 197.726C100.959 201.417 100.935 205.084 100.935 208.774C100.935 219.088 103.792 222.661 113.895 224.671C117.412 225.357 119.844 227.226 121.567 230.254C129.924 244.969 132.757 260.937 132.379 277.663C132.343 279.277 132.284 280.891 132.225 282.504C132.012 288.341 131.798 294.175 132.686 299.995C133.654 306.264 136.25 311.729 140.806 316.105C145.056 320.221 149.753 323.699 155.419 325.852C158.912 327.176 160.966 330.252 162.359 333.682C164.814 339.667 165.31 345.984 164.861 352.324C163.87 366.234 168.733 375.2 181.268 381.729C183.389 382.832 185.564 383.848 187.742 384.866L187.754 384.872C188.796 385.358 189.838 385.845 190.875 386.342C200.058 390.719 207.022 397.839 213.679 405.268C221.516 414.044 227.276 424.004 229.377 435.785C229.826 438.293 230.038 440.848 230.086 443.379C230.18 447.566 227.843 449.813 223.688 449.813C202.244 449.861 180.729 449.861 159.237 449.861H94.656Z" fill="white"/>
<path d="M684.596 408.009C688.94 413.308 693.944 417.969 699.633 422.984C695.951 423.386 693.26 422.511 690.71 421.494C684.357 418.964 679.016 414.781 673.702 410.619C673.053 410.11 672.404 409.602 671.754 409.098C670.729 408.3 669.708 407.495 668.687 406.69C661.837 401.289 654.99 395.892 646.731 392.68C640.216 390.125 633.795 390.196 628.177 394.903C619.891 401.835 615.146 410.872 613.541 421.47C612.573 427.786 614.391 433.559 618.876 438.124C626.052 445.387 635.259 449.503 645.079 449.622C673.284 449.966 701.5 449.924 729.712 449.881H729.735C742.176 449.863 754.615 449.844 767.053 449.858C769.98 449.858 771.916 448.557 773.143 446.168C774.442 443.66 773.875 441.294 772.152 439.047C769.083 435.025 764.787 432.731 760.396 430.602C759.108 429.978 757.788 429.419 756.47 428.86C753.488 427.596 750.511 426.334 747.908 424.333C739.15 417.59 734.405 409.358 736.341 397.719C738.631 383.879 735.113 371.294 725.86 360.625C719.935 353.788 712.215 350.168 703.151 351.044C694.581 351.872 686.909 355.562 680.37 361.192C672.415 368.029 669.535 376.569 672.462 386.86C674.752 394.927 679.355 401.669 684.596 408.009Z" fill="white"/>
<path d="M647.867 259.161C647.938 254.808 648.41 250.503 649.166 246.221C650.936 236.285 649.449 226.727 645.885 217.359C643.099 210.049 639.983 202.881 636.017 196.139C635.026 194.46 634.53 192.827 635.757 191.148C636.985 189.468 638.85 189.066 640.786 189.279C654.359 190.769 667.626 193.679 680.09 199.38C698.196 207.684 712.478 220.222 721.425 238.319C724.215 243.973 725.02 250.103 725.825 256.237L725.826 256.243C725.953 257.216 726.081 258.189 726.217 259.161C728.035 272.149 729.876 285.136 734.621 297.461C735.187 298.952 735.919 300.395 736.674 301.791C737.406 303.115 737.878 304.369 736.911 305.741C735.872 307.208 734.337 307.279 732.827 306.853C726.429 305.055 720.835 301.767 715.641 297.651C709.22 292.57 705.787 285.57 702.352 278.566C701.405 276.635 700.458 274.703 699.447 272.811L699.375 272.675C699.29 272.516 699.205 272.357 699.12 272.197C699.031 272.03 698.943 271.863 698.854 271.696L698.196 270.455C695.4 265.172 692.603 259.89 688.966 255.092C687.408 253.034 685.661 251.26 683.301 250.171C682.215 249.675 681.034 249.462 680.114 250.29C679.423 250.911 679.755 251.585 680.074 252.232L680.075 252.234C680.181 252.449 680.285 252.662 680.35 252.868C682.215 258.546 683.725 264.247 683.301 270.303C682.592 280.216 677.257 283.48 668.995 284.19C656.909 285.254 649.284 278.276 648.104 265.383C648.018 264.145 647.984 262.9 647.95 261.65L647.95 261.644C647.928 260.817 647.905 259.989 647.867 259.161Z" fill="white"/>
<path d="M572.613 423.419C571.319 422.317 569.997 421.19 568.552 420.125C576.012 418.516 580.072 412.153 578.301 405.34C577.31 401.507 575.044 398.384 571.101 397.367C567.655 396.468 564.067 396.941 561.423 399.733C559.558 401.72 557.929 403.944 556.418 406.191C555.45 407.634 554.908 407.965 553.491 406.593C552.451 405.593 551.412 404.59 550.374 403.588C545.004 398.405 539.638 393.227 534.04 388.33C513.856 370.659 493.578 353.058 472.781 336.096C463.433 328.478 454.014 320.932 443.533 314.947C432.65 308.725 421.296 303.497 408.95 300.682C397.713 298.127 386.5 296.944 375.145 299.664C375.048 299.688 374.951 299.711 374.854 299.734L374.846 299.736C373.379 300.084 371.898 300.435 371.699 302.361C371.486 304.443 373.162 305.082 374.65 305.579C384.493 308.843 394.266 312.321 403.992 315.94C418.51 321.334 432.32 328.005 445.28 336.475C459.396 345.701 472.238 356.559 484.844 367.701C504.248 384.876 523.039 402.737 541.83 420.598C543.34 422.041 543.954 422.846 542.302 424.714C539.351 428.074 537.037 431.788 537.651 436.685C538.525 443.687 544.544 447.993 551.178 445.911C555.663 444.515 557.504 440.754 558.401 436.093C558.792 436.418 559.135 436.711 559.456 436.984L559.458 436.986C559.815 437.29 560.143 437.57 560.479 437.844L561.253 438.485C565.454 441.968 569.665 445.458 574.713 447.709C578.632 449.459 582.645 450.903 586.965 449.318C591.828 447.52 596.148 444.823 599.877 441.132C606.771 434.319 606.228 426.465 598.249 420.906C594.849 418.516 590.648 418.729 589.066 423.153C588.688 424.218 588.192 425.259 587.697 426.252C585.903 429.777 583.684 430.463 580.072 428.736C577.287 427.402 574.998 425.451 572.613 423.419Z" fill="white"/>
<path d="M362.116 104.14C375.171 104.565 387.281 105.867 399.037 109.604C401.515 110.385 402.648 111.899 402.79 114.241C402.955 116.607 401.87 118.357 399.651 119.398C393.985 122.048 388.414 124.863 383.173 128.341C373.4 134.823 367.475 143.741 365.044 155.12C364.288 158.621 363.509 162.146 362.258 165.482C357.796 177.499 348.165 183.461 336.48 186.82C327.982 189.281 320.144 187.601 313.582 181.829C306.972 175.985 303.644 168.202 302.676 159.497C301.141 145.61 306.169 133.758 314.668 123.231C322.788 113.153 333.718 107.948 346.3 105.583C349.74 104.94 353.163 104.748 356.389 104.567C358.387 104.456 360.311 104.348 362.116 104.14Z" fill="white"/>
<path d="M389.946 248.871C388.175 253.484 386.971 258.239 386.971 263.207C386.924 271.937 390.253 276.337 398.562 277.307C408.854 278.561 415.866 275.083 418.226 263.941C419.619 257.293 419.147 250.598 417.966 243.974C416.55 236.097 417.093 228.408 419.643 220.814C422.286 212.937 425.591 205.343 429.723 198.127C431.658 194.768 429.959 191.953 426.04 191.906C425.934 191.906 425.828 191.905 425.722 191.905H425.721C424.973 191.902 424.214 191.9 423.49 192.024C412.419 194.059 401.418 196.14 390.984 200.73C379.512 205.769 369.762 212.889 361.665 222.376C354.654 230.585 350.169 239.811 348.824 250.74C348.729 251.509 348.635 252.278 348.541 253.047C346.807 267.218 345.064 281.47 338.437 294.529C337.917 295.523 338.295 296.54 339.051 297.392C339.9 298.361 340.868 298.622 342.096 298.219C350.287 295.57 357.44 291.359 362.916 284.546C365.841 280.918 367.834 276.77 369.825 272.628L369.827 272.623C370.808 270.582 371.788 268.542 372.878 266.567C373.492 265.462 374.091 264.348 374.69 263.234L374.699 263.218C377.395 258.205 380.093 253.19 384.068 249.013C385.272 247.76 386.57 246.79 388.435 246.79C390.017 246.79 390.63 247.073 389.946 248.871Z" fill="white"/>
<path fill-rule="evenodd" clip-rule="evenodd" d="M416.973 421.071C418.357 424.94 420.809 428.121 423.259 431.3L423.26 431.301C424.36 432.728 425.46 434.156 426.463 435.644C426.619 435.876 426.844 436.096 427.072 436.318C427.632 436.866 428.204 437.425 427.784 438.199C427.343 439.011 426.427 438.83 425.598 438.666C425.363 438.62 425.136 438.575 424.928 438.554C409.702 437.276 395.963 432.237 383.924 422.633C379.486 419.084 375.19 415.512 372.475 410.402C370.35 406.428 369.453 402.264 370.728 397.864C371.106 396.516 370.87 395.688 369.807 394.67C368.108 393.038 366.951 390.98 366.573 388.52C366.565 388.473 366.558 388.426 366.551 388.379L366.54 388.31L366.527 388.218C366.511 388.104 366.495 387.989 366.48 387.873C366.314 386.63 366.141 385.337 364.756 384.593C364.401 384.403 364.26 383.623 364.189 383.079C363.67 378.205 364.85 373.71 367.47 369.618C368.84 367.465 370.917 367.985 372.805 368.577C382.885 371.818 387.984 379.199 387.654 389.868C387.639 390.27 387.643 390.662 387.648 391.163C387.65 391.458 387.654 391.791 387.654 392.186C388.908 390.465 388.882 388.857 388.859 387.342L388.858 387.266C388.841 386.173 388.72 385.091 388.585 383.876L388.585 383.874C388.527 383.354 388.466 382.808 388.409 382.227C390.675 383.646 391.808 385.421 391.856 387.668C391.974 392.376 394.358 395.688 398.159 398.053C399.905 399.142 400.212 400.088 399.197 401.886C397.71 404.512 397.285 407.374 398.088 410.97C398.335 410.211 398.552 409.498 398.757 408.819C399.2 407.361 399.594 406.062 400.141 404.819C403.541 397.225 409.726 392.754 417.185 389.797C431.443 384.143 446.315 383.765 461.353 384.522C463.201 384.621 465.05 384.639 466.891 384.657C467.683 384.665 468.473 384.673 469.261 384.687C469.356 384.69 469.453 384.691 469.551 384.691C470.208 384.693 470.897 384.695 471.102 385.539C471.293 386.343 470.773 386.62 470.23 386.91C470.102 386.978 469.973 387.047 469.851 387.124C461.258 392.47 451.839 395.711 442.137 398.337C437.833 399.503 433.429 399.827 429.029 400.15C426.02 400.371 423.013 400.591 420.042 401.081C417.681 401.46 415.674 402.406 414.211 404.559C414.483 404.468 414.756 404.375 415.027 404.281C415.248 404.205 415.468 404.128 415.688 404.051L415.689 404.051C416.818 403.657 417.946 403.263 419.097 402.95C424.314 401.484 425.802 402.264 428.257 407.043C431.066 412.531 433.072 418.304 434.701 424.218C435.811 428.239 437.274 432.095 440.319 435.147C441.098 435.928 441.547 436.874 441.004 437.962C440.447 439.079 439.385 438.973 438.434 438.878L438.428 438.877L438.421 438.877C438.369 438.871 438.317 438.866 438.266 438.861C433.49 438.32 430.219 435.214 426.976 432.136C426.821 431.988 426.665 431.841 426.51 431.693C424.172 429.477 422.256 426.911 420.339 424.342C419.392 423.073 418.444 421.803 417.445 420.575C417.407 420.566 417.369 420.558 417.33 420.551C417.295 420.544 417.26 420.538 417.225 420.532C417.192 420.526 417.159 420.521 417.126 420.515L417.044 420.502L417.005 420.495C416.939 420.483 416.873 420.471 416.807 420.456C416.807 420.605 416.866 420.768 416.925 420.934C416.941 420.979 416.958 421.026 416.973 421.071ZM413.196 404.512C413.143 404.578 413.081 404.644 413.017 404.712C412.853 404.887 412.68 405.071 412.629 405.292C412.582 405.529 412.889 405.765 413.196 405.576C413.408 405.458 413.644 405.269 413.762 405.032C413.909 404.719 413.713 404.664 413.44 404.588L413.439 404.588L413.388 404.573L413.342 404.56C413.329 404.556 413.315 404.552 413.302 404.548C413.267 404.537 413.231 404.525 413.196 404.512Z" fill="white"/>
<path d="M677.842 298.089L677.777 298.087C677.554 298.076 677.334 298.066 677.115 298.056C664.414 298.222 652.824 300.753 641.682 305.201C628.84 310.287 616.966 317.076 605.965 325.403C592.171 335.833 579.007 347.042 565.84 358.256L565.837 358.258L563.497 360.25C557.006 365.762 550.585 371.345 544.235 376.999C541.803 379.175 541.85 381.115 544.022 383.576C544.735 384.395 545.475 385.186 546.215 385.976L546.217 385.978C547.142 386.967 548.067 387.954 548.932 388.993C551.671 392.305 553.441 392.423 556.557 389.49C569.257 377.472 582.335 365.833 595.673 354.525C607.641 344.353 619.964 334.653 633.301 326.302C639.769 322.233 646.544 318.709 653.579 315.609C660.897 312.392 668.475 310.145 676.17 308.087C679.678 307.16 683.224 306.556 686.78 305.951L686.788 305.95C688.04 305.736 689.293 305.523 690.547 305.295C692.105 305.011 693.545 304.609 693.474 302.575C693.403 300.635 691.869 300.162 690.429 299.736C686.142 298.467 681.73 298.266 677.842 298.089Z" fill="white"/>
<path d="M508.075 436.044C507.244 436.73 506.429 437.416 505.621 438.095C501.863 441.258 498.277 444.276 494.1 446.476L493.862 446.601C490.872 448.169 487.869 449.745 484.374 449.883C477.976 450.119 473.184 446.571 468.534 442.928C466.268 441.154 464.285 439.001 462.963 436.304C459.847 430.011 464.214 421.093 471.107 419.626C473.963 419.011 475.876 420.004 477.103 422.512C477.398 423.114 477.657 423.732 477.914 424.347C478.274 425.208 478.632 426.065 479.086 426.865C480.668 429.704 483.052 430.39 486.003 428.947C489.545 427.228 492.557 424.786 495.714 422.227L495.715 422.226L495.725 422.218L495.73 422.214C496.565 421.537 497.41 420.852 498.278 420.17C493.509 419.295 490.087 417.047 488.599 412.718C487.136 408.484 487.49 404.415 490.488 400.724C494.076 396.3 500.473 395.401 504.274 399.565L505.684 401.111C513.739 409.939 521.801 418.775 529.273 428.119C532.247 431.833 531.327 437.818 526.063 443.259C522.498 446.949 516.951 447.517 512.938 444.702C510.01 442.739 508.736 439.758 508.075 436.044Z" fill="white"/>
<path d="M580.967 254.336V254.904C580.802 265.455 576.671 274.492 570.25 282.583C569.022 284.144 568.715 285.09 570.014 286.888C576.624 296.091 579.763 305.979 575.325 317.169C574.617 318.967 575.561 319.44 577.119 319.203C577.882 319.087 578.647 318.983 579.413 318.879C582.082 318.515 584.754 318.151 587.341 317.287C595.957 314.401 602.047 307.872 602.284 297.96C602.378 293.654 600.678 290.271 597.043 287.953C596.504 287.609 595.81 287.294 595.128 286.984C593.84 286.399 592.596 285.834 592.534 285.138C592.427 284.076 593.159 282.954 593.904 281.81C594.305 281.197 594.709 280.577 594.989 279.957C600.867 267.087 597.633 256.726 586.042 251.19C581.156 248.848 580.873 249.014 580.967 254.336Z" fill="white"/>
<path d="M482.888 253.959C482.864 264.605 486.736 273.855 493.251 282.016C494.998 284.216 494.88 285.375 493.298 287.623C487.09 296.565 484.257 306.241 488.483 316.957C489.143 318.613 488.695 319.37 486.948 319.181C481.141 318.542 475.428 317.714 470.4 314.308C464.168 310.073 461.43 304.064 461.595 296.731C461.737 291.502 465.089 288.262 469.527 286.369C471.833 285.389 471.427 284.685 470.486 283.053L470.447 282.986C467.497 277.852 465.466 272.388 466.08 266.308C466.859 258.501 471.817 253.983 478.521 250.907C478.713 250.811 478.922 250.747 479.132 250.682C479.283 250.635 479.435 250.588 479.583 250.529C482.793 249.133 483.077 249.346 482.841 252.824C482.864 253.202 482.888 253.581 482.888 253.959Z" fill="white"/>
<path d="M694.965 158.051C704.242 155.378 709.954 148.068 709.931 138.345C709.978 136.358 709.742 134.395 709.176 132.455C705.823 120.768 693.784 114.57 683.374 120.792C673.908 126.446 671.311 139.954 677.024 149.488C680.824 155.804 690.196 159.423 694.965 158.051Z" fill="white"/>
<path d="M364.712 406.118C359.401 399.801 355.412 393.58 352.13 386.908C346.583 375.577 342.617 363.654 341.012 351.139C339.288 337.797 345.686 328.027 356.899 321.923C356.978 321.878 357.055 321.828 357.13 321.78C357.521 321.529 357.863 321.308 358.339 321.805C358.882 322.373 358.834 322.988 358.669 323.65C357.867 326.56 357.371 329.541 357.017 332.545C355.813 342.694 357.536 352.488 360.723 362.069C361.62 364.789 361.667 366.989 360.369 369.781C356.238 378.77 357.796 387.24 364.146 394.762C365.09 395.898 365.444 396.773 364.996 398.216C364.264 400.511 364.406 402.9 364.712 406.118Z" fill="white"/>
<path d="M413.955 384.165C407.983 379.055 400.901 376.713 393.276 375.672C393.086 375.672 392.896 375.668 392.707 375.665C392.239 375.655 391.778 375.645 391.34 375.696C391.182 375.712 391.009 375.71 390.835 375.708C390.228 375.702 389.593 375.695 389.428 376.429C389.276 377.056 389.765 377.234 390.237 377.406C390.424 377.474 390.609 377.542 390.75 377.636C393.606 379.599 395.471 382.202 395.731 385.727C396.03 389.827 398.791 392.223 401.552 394.618L401.774 394.811C402.624 395.568 403.521 395.402 404.206 394.503C406.755 391.168 409.895 388.613 413.625 386.696C414.734 386.129 415.348 385.348 413.955 384.165Z" fill="white"/>
<path d="M522.527 325.223L522.532 325.234C523.169 326.869 523.822 328.542 524.477 330.274C523.864 329.919 523.418 329.646 523.064 329.431L523.062 329.43C522.641 329.173 522.352 328.996 522.07 328.855C518.175 327.081 516.168 328.453 516.192 332.711C516.239 340.944 518.93 348.23 524.123 354.57C528.349 359.727 536.092 360.957 541.757 357.574C549.099 353.198 554.245 340.258 553.277 330.748C553.065 328.642 551.672 327.814 549.666 328.287C548.678 328.522 547.726 328.876 546.658 329.273L546.654 329.274C546.217 329.437 545.761 329.606 545.275 329.778C545.805 328.374 546.334 327.011 546.852 325.674L546.853 325.671C547.925 322.906 548.955 320.249 549.878 317.571C550.083 316.968 550.292 316.367 550.501 315.765C552.023 311.38 553.548 306.987 553.631 302.265C553.679 299.189 551.648 297.037 548.674 296.871C547.932 296.841 547.18 296.849 546.3 296.859C545.808 296.865 545.277 296.871 544.684 296.871C546.809 293.606 548.391 290.555 549.878 287.432C552.451 282.038 554.434 276.455 555.119 270.494C555.803 264.485 552.498 260.037 546.715 259.399C544.991 259.209 544.968 258.665 545.676 257.293C546.762 255.211 547.73 253.059 548.603 250.882C551.318 244.093 553.49 237.185 553.112 229.733C552.923 226.208 551.625 223.227 548.06 222.044C546.243 221.429 546.313 220.767 546.951 219.253C549.807 212.487 552.545 205.65 553.301 198.222C553.915 192.119 551.129 186.914 545.605 184.146C551.53 178.894 555.685 172.767 555.402 164.44C555.396 164.233 555.351 164.007 555.306 163.776C555.181 163.135 555.049 162.463 555.709 162.098C556.698 161.545 557.351 162.268 557.912 162.892C558.047 163.041 558.177 163.185 558.305 163.305C568.149 172.412 576.27 182.94 583.541 194.153C593.408 209.364 601.222 225.64 607.879 242.484C608.492 244.045 609.389 245.228 610.995 245.867C615.362 247.594 618.808 245.015 619.257 239.692C620.272 227.32 618.808 215.208 615.551 203.261C610.168 183.484 600.726 165.67 589.348 148.779C589.219 148.585 589.039 148.389 588.855 148.187C588.297 147.577 587.7 146.924 588.356 146.177C588.958 145.494 589.935 145.886 590.808 146.237C590.963 146.299 591.114 146.36 591.26 146.414C601.505 150.246 611.703 154.126 621.83 158.289C631.863 162.406 641.825 166.64 651.527 171.443C656.059 173.69 660.662 170.993 660.592 166.049C660.592 164.779 660.195 163.462 659.819 162.215L659.813 162.193C657.971 156.231 655.658 150.483 652.707 144.971C645.531 131.581 635.734 120.77 621.924 114.004C615.858 111.023 609.484 108.87 602.732 107.924C602.595 107.904 602.448 107.888 602.297 107.871C601.361 107.765 600.261 107.642 600.159 106.623C600.086 105.838 600.723 105.637 601.384 105.429C601.78 105.304 602.184 105.176 602.449 104.92C602.523 104.846 602.643 104.818 602.763 104.79C602.835 104.773 602.907 104.757 602.969 104.73C605.638 103.728 608.302 102.717 610.966 101.706C616.855 99.4704 622.743 97.2357 628.676 95.1019C630.152 94.5718 631.628 94.0343 633.103 93.4967C639.529 91.1548 645.966 88.8094 652.589 87.0586C655.351 86.3252 656.838 84.409 657.381 81.7358C657.924 78.9916 657.098 76.626 654.784 75.0409C653.014 73.8108 651.149 72.6989 649.19 71.8473C638.213 67.0686 626.669 64.8212 614.725 64.3954C607.184 64.1255 599.68 64.7665 592.18 65.4072C591.133 65.4966 590.087 65.5859 589.041 65.6728C588.906 65.6825 588.768 65.701 588.63 65.7196C588.092 65.7919 587.552 65.8645 587.176 65.4126C586.745 64.8687 587.086 64.3992 587.399 63.9686L587.4 63.9677C587.481 63.8555 587.561 63.7459 587.624 63.6384C593.007 54.9326 598.578 46.3452 605.731 38.9406C608.186 36.4093 609.342 33.7361 608.209 30.2822C607.052 26.71 603.984 26.2133 600.962 26.0477C584.485 25.125 570.557 30.2822 560.005 43.4354C559.786 43.6999 559.587 44.0311 559.385 44.3669C558.845 45.2627 558.286 46.1904 557.29 45.9667C556.267 45.7408 556.174 44.6468 556.084 43.5944C556.052 43.2144 556.02 42.8391 555.945 42.5128C553.041 30.2113 550.043 17.9334 544.354 6.53078C542.324 2.41449 539.066 -0.0694742 534.628 0.00149629C530.332 0.0724668 527.192 2.53278 525.186 6.53078C519.73 17.3751 516.857 29.0461 513.987 40.7093C513.864 41.208 513.742 41.7067 513.619 42.2053C513.537 42.5585 513.502 42.9638 513.467 43.3741C513.37 44.503 513.269 45.6702 512.179 45.8957C511.149 46.1021 510.543 45.0955 509.963 44.1305C509.745 43.7683 509.531 43.412 509.299 43.1279C498.322 29.7145 484.016 24.6756 467.09 26.2369C464.399 26.4735 462.204 27.4671 461.283 30.3295C460.292 33.334 460.953 35.9362 463.101 38.1363C470.49 45.7065 476.25 54.5068 481.821 63.4491C481.896 63.5728 481.988 63.6964 482.082 63.8217C482.399 64.2476 482.732 64.6935 482.458 65.2234C482.098 65.9449 481.465 65.8282 480.862 65.7174C480.714 65.6901 480.568 65.6632 480.428 65.6492C479.652 65.58 478.876 65.5097 478.1 65.4394L478.082 65.4378C469.846 64.6919 461.607 63.9458 453.328 64.4427C439.991 65.2234 427.078 67.6364 415.393 74.6151C412.843 76.1292 411.545 78.7314 412.111 81.5229C412.702 84.409 414.283 86.3252 417.328 87.1296C421.412 88.1941 425.425 89.4716 429.391 90.891C438.385 94.0847 447.332 97.3966 456.255 100.732C458.954 101.742 461.622 102.834 464.293 103.927C465.687 104.498 467.082 105.069 468.483 105.629L468.519 105.643C468.571 105.662 468.624 105.681 468.679 105.7C469.063 105.834 469.475 105.977 469.475 106.481C469.498 107.143 468.979 107.427 468.412 107.569C467.775 107.735 467.138 107.877 466.477 107.971C459.277 109.059 452.407 111.307 446.034 114.737C431.28 122.686 421.247 135.011 414.354 150.104C412.347 154.481 410.695 158.999 409.349 163.612C408.547 166.404 408.924 169.1 411.309 171.064C413.551 172.909 415.936 172.531 418.391 171.277C427.751 166.459 437.477 162.409 447.186 158.366C448.25 157.923 449.314 157.479 450.377 157.035C457.125 154.203 463.998 151.67 470.868 149.138C473.467 148.18 476.066 147.222 478.658 146.248L478.794 146.196C479.648 145.869 480.721 145.459 481.325 146.177C481.892 146.869 481.356 147.455 480.853 148.004C480.686 148.187 480.522 148.365 480.404 148.543C469.168 165.173 459.773 182.679 454.343 202.125C450.849 214.593 449.079 227.249 450.401 240.213C450.779 244.045 452.455 245.914 455.523 246.34C458.498 246.742 460.575 245.252 461.992 241.68C471.363 218.141 482.978 195.88 499.077 176.15C502.996 171.348 507.221 166.829 511.895 162.76C511.98 162.689 512.062 162.615 512.144 162.542C512.635 162.102 513.103 161.682 513.831 162.027C514.303 162.264 514.256 162.784 514.209 163.281C513.501 172.058 517.679 178.587 523.982 184.099C518.009 187.032 515.342 192.568 516.428 199.807C517.443 206.668 520.016 213.055 522.66 219.419L522.697 219.508L522.736 219.603C523.134 220.562 523.465 221.361 522.022 221.784C517.962 222.991 516.64 226.137 516.404 229.969C516.192 233.494 516.735 236.948 517.537 240.355C518.93 246.245 521.149 251.828 523.864 257.246L523.921 257.362C524.391 258.321 524.74 259.032 523.037 259.328C516.64 260.416 513.902 264.012 514.468 270.494C514.87 274.87 516.192 278.986 517.75 283.055C519.242 286.94 521.227 290.569 523.288 294.335L523.294 294.346L523.303 294.363L523.7 295.089C524.013 295.663 524.328 296.241 524.643 296.824H522.4C517.443 296.776 515.247 299.166 515.979 304.063C516.333 306.476 516.923 308.865 517.584 311.231C518.888 315.893 520.64 320.384 522.524 325.216L522.527 325.223Z" stroke="black" stroke-width="2" mask="url(#path-1-inside-1_131_367)"/>
<path d="M292.632 449.785C296.561 449.696 300.491 449.606 304.417 449.646C305.361 449.646 306.306 449.646 307.155 449.599L307.328 449.6C316.902 449.67 326.452 449.741 336.026 449.788C336.232 449.788 336.456 449.817 336.684 449.847C337.345 449.934 338.036 450.025 338.387 449.409C338.862 448.564 338.229 447.759 337.683 447.066C337.634 447.002 337.584 446.94 337.537 446.878C336.333 445.34 335.105 443.779 333.76 442.336C331.989 440.396 331.564 438.22 332.32 435.783C333.996 430.389 332.863 425.303 330.715 420.359C328.212 414.634 323.42 412.339 317.471 411.89C314.762 411.686 312.186 412.321 309.606 412.956C307.984 413.356 306.36 413.756 304.7 413.948C304.468 413.972 304.224 414.038 303.98 414.104C303.283 414.293 302.582 414.482 302.127 413.711C301.614 412.832 302.264 412.07 302.829 411.406L302.836 411.399L302.922 411.298C302.948 411.266 302.975 411.235 303.001 411.204C303.156 411.018 303.311 410.831 303.465 410.645C304.393 409.527 305.321 408.409 306.353 407.395C315.843 397.979 320.942 386.482 322.169 373.258C323.043 363.89 322.216 354.758 317.542 346.337C314.639 341.108 308.501 336.614 301.537 339.216C297.335 340.777 293.747 343.238 290.56 346.313C289.681 347.162 288.845 348.055 288.01 348.947C285.775 351.335 283.546 353.716 280.504 355.231C275.334 357.786 271.534 356.178 270.377 350.524C268.182 339.713 270.967 330.392 279.182 322.822C283.88 318.492 289.451 315.559 295.234 313.217C308.171 307.965 318.982 300.04 326.82 288.425C338.033 271.794 340.983 254.17 330.195 236.332C321.178 221.428 304.606 216.792 290.301 229.259C284.375 234.44 280.386 240.969 277.553 248.303C275.783 252.892 273.517 257.221 270.188 260.935C267.096 264.389 265.396 264.129 263.555 259.847C261.336 254.666 257.771 253.034 252.412 254.879C250.618 255.494 248.824 255.967 246.936 256.133C244.882 256.322 243.725 255.707 243.112 253.46C241.742 248.35 243.088 243.737 245.236 239.242C248.945 231.494 253.952 224.582 258.958 217.672C260.738 215.214 262.518 212.757 264.239 210.262C270.117 201.746 275.901 193.135 279.489 183.317C282.109 176.173 283.455 168.839 281.259 161.387C277.6 149.015 269.267 140.806 257.063 137.21C249.202 134.892 244.245 136.311 240.656 144.686C240.013 146.184 239.661 147.828 239.313 149.458L239.241 149.795C239.217 149.906 239.193 150.016 239.169 150.127C238.184 154.644 237.884 159.245 237.584 163.844L237.584 163.845L237.583 163.851C237.459 165.753 237.335 167.654 237.163 169.549C236.337 178.752 230.529 182.726 222.149 183.199C218.915 183.388 216.318 182.111 214.713 179.059C213.202 176.173 212.187 173.145 211.55 169.999C208.599 155.544 209.638 141.256 213.462 127.109C214.453 123.395 217.003 120.958 220.331 119.349C221.725 118.685 223.18 118.168 224.644 117.648C225.213 117.446 225.783 117.243 226.351 117.031C235.51 113.648 243.112 108.396 247.786 99.4776C255.505 84.763 249.249 62.3837 228.263 60.6331C214.17 59.4502 202.202 63.5665 191.768 72.7454C180.059 83.0598 174.016 96.4495 171.986 111.661C170.215 124.885 170.38 138.015 175.999 150.576C177.724 154.453 179.153 158.458 180.581 162.459L180.584 162.468C181.089 163.885 181.595 165.301 182.113 166.71C183.222 169.715 184.19 172.79 184.355 176.031C184.361 176.104 184.368 176.179 184.375 176.256C184.43 176.852 184.493 177.538 183.907 177.853C183.122 178.267 182.608 177.576 182.239 177.08C182.208 177.038 182.178 176.998 182.149 176.959C182.135 176.942 182.122 176.924 182.109 176.908L182.089 176.883C180.578 174.966 179.068 173.027 177.84 170.921C168.988 155.686 162.236 139.552 157.822 122.496C155.509 113.482 154.399 104.398 156.429 95.0538C157.822 88.5955 158.011 81.9479 157.161 75.324C155.957 65.743 152.369 57.4867 143.611 52.4478C136.623 48.4498 128.904 48.3315 121.374 49.8692C108.839 52.4478 98.3813 58.8352 90.8272 69.3861C83.6509 79.3929 81.9748 90.2751 86.8141 101.796C90.7092 111.069 97.2953 118.214 105.038 124.388C108.579 127.203 111.955 130.16 114.622 133.851C121.185 142.959 124.561 153.439 127.771 164.013C130.368 172.554 134.216 180.502 141.699 185.707C150.551 191.857 155.603 200.232 158.294 210.404C160.202 217.631 161.307 224.991 162.412 232.351L162.412 232.352C163.043 236.558 163.674 240.763 164.455 244.943C167.028 258.688 172.434 270.564 184.426 278.702C187.023 280.476 189.336 282.7 191.319 285.278C195.639 290.885 198.567 297.201 200.904 303.778C205.011 315.393 210.299 326.323 219.836 334.413C227.909 341.25 231.308 350.051 232.512 360.057C233.323 366.75 234.066 373.448 234.81 380.146C235.711 388.269 236.613 396.392 237.635 404.509C238.886 414.445 240.373 424.357 244.41 433.654C246.959 439.544 250.831 444.228 256.992 446.641C260.887 448.155 264.995 448.842 269.078 449.291C276.916 450.143 284.774 449.964 292.632 449.785Z" stroke="black" stroke-width="2" mask="url(#path-1-inside-1_131_367)"/>
<path d="M94.656 449.861C91.0915 449.861 88.5183 448.134 88.5183 444.68C88.4947 436.447 84.34 430.202 79.6423 424.075C72.2535 414.446 64.369 405.22 56.3665 396.089C49.0958 387.833 42.911 378.843 40.3615 367.89C38.3786 359.397 40.3615 352.063 46.8769 346.031C52.566 340.755 60.1908 340.968 66.7533 346.48C76.6253 354.744 82.9464 365.6 89.2841 376.485L89.321 376.548C90.1852 378.028 90.9884 379.547 91.7919 381.067C94.1487 385.525 96.5077 389.987 100.416 393.463C103.721 396.396 105.845 396.16 107.309 391.972C109.717 385.088 110.213 377.897 109.434 370.705C107.946 356.96 103.013 344.588 93.5228 334.297C87.0075 327.247 79.3591 322.658 69.2792 323.391C65.0537 323.699 60.9225 323.391 56.9803 321.262C47.9627 316.389 48.7416 306.217 53.1088 300.35C60.7573 290.083 72.9146 289.089 82.5223 297.629C88.3126 302.76 93.0773 308.744 97.8452 314.731C99.628 316.969 101.411 319.209 103.249 321.404C103.53 321.741 103.811 322.079 104.092 322.417C106.867 325.762 109.648 329.112 113.635 331.174C118.687 333.777 124.117 330.346 123.951 324.669C123.833 320.742 122.016 317.406 120.08 314.165C116.138 307.589 111.275 301.674 105.916 296.281C99.1411 289.467 95.1754 281.471 93.759 271.985C92.6967 264.841 90.7846 257.933 85.1899 252.728C77.5178 245.608 68.5238 243.289 58.3731 245.395C55.0918 246.081 51.7634 246.909 48.6473 248.139C41.353 251.025 35.7583 247.879 30.7773 243.147C16.6371 229.758 12.6476 211.637 19.6351 193.397C20.8154 190.298 22.3734 187.388 24.498 184.833C31.2258 176.672 38.3785 176.435 46.9476 181.45C53.1561 185.07 59.5298 186.3 66.2812 183.39C71.0969 181.332 72.2536 176.057 69.114 171.917C64.7704 166.192 58.5856 163.661 51.9994 161.886C47.8023 160.758 43.5012 160.278 39.2045 159.798C35.8404 159.422 32.4789 159.047 29.1721 158.361C6.95855 153.796 -4.65576 137.898 2.02483 114.62C3.7717 108.54 9.15392 105.938 14.3945 103.478C22.7984 99.5269 31.5799 99.101 40.2199 101.893C50.6066 105.252 59.2937 111.166 64.1802 121.48C69.6569 133.025 73.5755 145.161 77.0457 157.391C79.9728 167.659 84.8358 176.27 93.759 182.349C99.1884 186.04 101.101 191.41 101.006 197.726C100.959 201.417 100.935 205.084 100.935 208.774C100.935 219.088 103.792 222.661 113.895 224.671C117.412 225.357 119.844 227.226 121.567 230.254C129.924 244.969 132.757 260.937 132.379 277.663C132.343 279.277 132.284 280.891 132.225 282.504C132.012 288.341 131.798 294.175 132.686 299.995C133.654 306.264 136.25 311.729 140.806 316.105C145.056 320.221 149.753 323.699 155.419 325.852C158.912 327.176 160.966 330.252 162.359 333.682C164.814 339.667 165.31 345.984 164.861 352.324C163.87 366.234 168.733 375.2 181.268 381.729C183.389 382.832 185.564 383.848 187.742 384.866L187.754 384.872C188.796 385.358 189.838 385.845 190.875 386.342C200.058 390.719 207.022 397.839 213.679 405.268C221.516 414.044 227.276 424.004 229.377 435.785C229.826 438.293 230.038 440.848 230.086 443.379C230.18 447.566 227.843 449.813 223.688 449.813C202.244 449.861 180.729 449.861 159.237 449.861H94.656Z" stroke="black" stroke-width="2" mask="url(#path-1-inside-1_131_367)"/>
<path d="M684.596 408.009C688.94 413.308 693.944 417.969 699.633 422.984C695.951 423.386 693.26 422.511 690.71 421.494C684.357 418.964 679.016 414.781 673.702 410.619C673.053 410.11 672.404 409.602 671.754 409.098C670.729 408.3 669.708 407.495 668.687 406.69C661.837 401.289 654.99 395.892 646.731 392.68C640.216 390.125 633.795 390.196 628.177 394.903C619.891 401.835 615.146 410.872 613.541 421.47C612.573 427.786 614.391 433.559 618.876 438.124C626.052 445.387 635.259 449.503 645.079 449.622C673.284 449.966 701.5 449.924 729.712 449.881H729.735C742.176 449.863 754.615 449.844 767.053 449.858C769.98 449.858 771.916 448.557 773.143 446.168C774.442 443.66 773.875 441.294 772.152 439.047C769.083 435.025 764.787 432.731 760.396 430.602C759.108 429.978 757.788 429.419 756.47 428.86C753.488 427.596 750.511 426.334 747.908 424.333C739.15 417.59 734.405 409.358 736.341 397.719C738.631 383.879 735.113 371.294 725.86 360.625C719.935 353.788 712.215 350.168 703.151 351.044C694.581 351.872 686.909 355.562 680.37 361.192C672.415 368.029 669.535 376.569 672.462 386.86C674.752 394.927 679.355 401.669 684.596 408.009Z" stroke="black" stroke-width="2" mask="url(#path-1-inside-1_131_367)"/>
<path d="M647.867 259.161C647.938 254.808 648.41 250.503 649.166 246.221C650.936 236.285 649.449 226.727 645.885 217.359C643.099 210.049 639.983 202.881 636.017 196.139C635.026 194.46 634.53 192.827 635.757 191.148C636.985 189.468 638.85 189.066 640.786 189.279C654.359 190.769 667.626 193.679 680.09 199.38C698.196 207.684 712.478 220.222 721.425 238.319C724.215 243.973 725.02 250.103 725.825 256.237L725.826 256.243C725.953 257.216 726.081 258.189 726.217 259.161C728.035 272.149 729.876 285.136 734.621 297.461C735.187 298.952 735.919 300.395 736.674 301.791C737.406 303.115 737.878 304.369 736.911 305.741C735.872 307.208 734.337 307.279 732.827 306.853C726.429 305.055 720.835 301.767 715.641 297.651C709.22 292.57 705.787 285.57 702.352 278.566C701.405 276.635 700.458 274.703 699.447 272.811L699.375 272.675C699.29 272.516 699.205 272.357 699.12 272.197C699.031 272.03 698.943 271.863 698.854 271.696L698.196 270.455C695.4 265.172 692.603 259.89 688.966 255.092C687.408 253.034 685.661 251.26 683.301 250.171C682.215 249.675 681.034 249.462 680.114 250.29C679.423 250.911 679.755 251.585 680.074 252.232L680.075 252.234C680.181 252.449 680.285 252.662 680.35 252.868C682.215 258.546 683.725 264.247 683.301 270.303C682.592 280.216 677.257 283.48 668.995 284.19C656.909 285.254 649.284 278.276 648.104 265.383C648.018 264.145 647.984 262.9 647.95 261.65L647.95 261.644C647.928 260.817 647.905 259.989 647.867 259.161Z" stroke="black" stroke-width="2" mask="url(#path-1-inside-1_131_367)"/>
<path d="M572.613 423.419C571.319 422.317 569.997 421.19 568.552 420.125C576.012 418.516 580.072 412.153 578.301 405.34C577.31 401.507 575.044 398.384 571.101 397.367C567.655 396.468 564.067 396.941 561.423 399.733C559.558 401.72 557.929 403.944 556.418 406.191C555.45 407.634 554.908 407.965 553.491 406.593C552.451 405.593 551.412 404.59 550.374 403.588C545.004 398.405 539.638 393.227 534.04 388.33C513.856 370.659 493.578 353.058 472.781 336.096C463.433 328.478 454.014 320.932 443.533 314.947C432.65 308.725 421.296 303.497 408.95 300.682C397.713 298.127 386.5 296.944 375.145 299.664C375.048 299.688 374.951 299.711 374.854 299.734L374.846 299.736C373.379 300.084 371.898 300.435 371.699 302.361C371.486 304.443 373.162 305.082 374.65 305.579C384.493 308.843 394.266 312.321 403.992 315.94C418.51 321.334 432.32 328.005 445.28 336.475C459.396 345.701 472.238 356.559 484.844 367.701C504.248 384.876 523.039 402.737 541.83 420.598C543.34 422.041 543.954 422.846 542.302 424.714C539.351 428.074 537.037 431.788 537.651 436.685C538.525 443.687 544.544 447.993 551.178 445.911C555.663 444.515 557.504 440.754 558.401 436.093C558.792 436.418 559.135 436.711 559.456 436.984L559.458 436.986C559.815 437.29 560.143 437.57 560.479 437.844L561.253 438.485C565.454 441.968 569.665 445.458 574.713 447.709C578.632 449.459 582.645 450.903 586.965 449.318C591.828 447.52 596.148 444.823 599.877 441.132C606.771 434.319 606.228 426.465 598.249 420.906C594.849 418.516 590.648 418.729 589.066 423.153C588.688 424.218 588.192 425.259 587.697 426.252C585.903 429.777 583.684 430.463 580.072 428.736C577.287 427.402 574.998 425.451 572.613 423.419Z" stroke="black" stroke-width="2" mask="url(#path-1-inside-1_131_367)"/>
<path d="M362.116 104.14C375.171 104.565 387.281 105.867 399.037 109.604C401.515 110.385 402.648 111.899 402.79 114.241C402.955 116.607 401.87 118.357 399.651 119.398C393.985 122.048 388.414 124.863 383.173 128.341C373.4 134.823 367.475 143.741 365.044 155.12C364.288 158.621 363.509 162.146 362.258 165.482C357.796 177.499 348.165 183.461 336.48 186.82C327.982 189.281 320.144 187.601 313.582 181.829C306.972 175.985 303.644 168.202 302.676 159.497C301.141 145.61 306.169 133.758 314.668 123.231C322.788 113.153 333.718 107.948 346.3 105.583C349.74 104.94 353.163 104.748 356.389 104.567C358.387 104.456 360.311 104.348 362.116 104.14Z" stroke="black" stroke-width="2" mask="url(#path-1-inside-1_131_367)"/>
<path d="M389.946 248.871C388.175 253.484 386.971 258.239 386.971 263.207C386.924 271.937 390.253 276.337 398.562 277.307C408.854 278.561 415.866 275.083 418.226 263.941C419.619 257.293 419.147 250.598 417.966 243.974C416.55 236.097 417.093 228.408 419.643 220.814C422.286 212.937 425.591 205.343 429.723 198.127C431.658 194.768 429.959 191.953 426.04 191.906C425.934 191.906 425.828 191.905 425.722 191.905H425.721C424.973 191.902 424.214 191.9 423.49 192.024C412.419 194.059 401.418 196.14 390.984 200.73C379.512 205.769 369.762 212.889 361.665 222.376C354.654 230.585 350.169 239.811 348.824 250.74C348.729 251.509 348.635 252.278 348.541 253.047C346.807 267.218 345.064 281.47 338.437 294.529C337.917 295.523 338.295 296.54 339.051 297.392C339.9 298.361 340.868 298.622 342.096 298.219C350.287 295.57 357.44 291.359 362.916 284.546C365.841 280.918 367.834 276.77 369.825 272.628L369.827 272.623C370.808 270.582 371.788 268.542 372.878 266.567C373.492 265.462 374.091 264.348 374.69 263.234L374.699 263.218C377.395 258.205 380.093 253.19 384.068 249.013C385.272 247.76 386.57 246.79 388.435 246.79C390.017 246.79 390.63 247.073 389.946 248.871Z" stroke="black" stroke-width="2" mask="url(#path-1-inside-1_131_367)"/>
<path fill-rule="evenodd" clip-rule="evenodd" d="M416.973 421.071C418.357 424.94 420.809 428.121 423.259 431.3L423.26 431.301C424.36 432.728 425.46 434.156 426.463 435.644C426.619 435.876 426.844 436.096 427.072 436.318C427.632 436.866 428.204 437.425 427.784 438.199C427.343 439.011 426.427 438.83 425.598 438.666C425.363 438.62 425.136 438.575 424.928 438.554C409.702 437.276 395.963 432.237 383.924 422.633C379.486 419.084 375.19 415.512 372.475 410.402C370.35 406.428 369.453 402.264 370.728 397.864C371.106 396.516 370.87 395.688 369.807 394.67C368.108 393.038 366.951 390.98 366.573 388.52C366.565 388.473 366.558 388.426 366.551 388.379L366.54 388.31L366.527 388.218C366.511 388.104 366.495 387.989 366.48 387.873C366.314 386.63 366.141 385.337 364.756 384.593C364.401 384.403 364.26 383.623 364.189 383.079C363.67 378.205 364.85 373.71 367.47 369.618C368.84 367.465 370.917 367.985 372.805 368.577C382.885 371.818 387.984 379.199 387.654 389.868C387.639 390.27 387.643 390.662 387.648 391.163C387.65 391.458 387.654 391.791 387.654 392.186C388.908 390.465 388.882 388.857 388.859 387.342L388.858 387.266C388.841 386.173 388.72 385.091 388.585 383.876L388.585 383.874C388.527 383.354 388.466 382.808 388.409 382.227C390.675 383.646 391.808 385.421 391.856 387.668C391.974 392.376 394.358 395.688 398.159 398.053C399.905 399.142 400.212 400.088 399.197 401.886C397.71 404.512 397.285 407.374 398.088 410.97C398.335 410.211 398.552 409.498 398.757 408.819C399.2 407.361 399.594 406.062 400.141 404.819C403.541 397.225 409.726 392.754 417.185 389.797C431.443 384.143 446.315 383.765 461.353 384.522C463.201 384.621 465.05 384.639 466.891 384.657C467.683 384.665 468.473 384.673 469.261 384.687C469.356 384.69 469.453 384.691 469.551 384.691C470.208 384.693 470.897 384.695 471.102 385.539C471.293 386.343 470.773 386.62 470.23 386.91C470.102 386.978 469.973 387.047 469.851 387.124C461.258 392.47 451.839 395.711 442.137 398.337C437.833 399.503 433.429 399.827 429.029 400.15C426.02 400.371 423.013 400.591 420.042 401.081C417.681 401.46 415.674 402.406 414.211 404.559C414.483 404.468 414.756 404.375 415.027 404.281C415.248 404.205 415.468 404.128 415.688 404.051L415.689 404.051C416.818 403.657 417.946 403.263 419.097 402.95C424.314 401.484 425.802 402.264 428.257 407.043C431.066 412.531 433.072 418.304 434.701 424.218C435.811 428.239 437.274 432.095 440.319 435.147C441.098 435.928 441.547 436.874 441.004 437.962C440.447 439.079 439.385 438.973 438.434 438.878L438.428 438.877L438.421 438.877C438.369 438.871 438.317 438.866 438.266 438.861C433.49 438.32 430.219 435.214 426.976 432.136C426.821 431.988 426.665 431.841 426.51 431.693C424.172 429.477 422.256 426.911 420.339 424.342C419.392 423.073 418.444 421.803 417.445 420.575C417.407 420.566 417.369 420.558 417.33 420.551C417.295 420.544 417.26 420.538 417.225 420.532C417.192 420.526 417.159 420.521 417.126 420.515L417.044 420.502L417.005 420.495C416.939 420.483 416.873 420.471 416.807 420.456C416.807 420.605 416.866 420.768 416.925 420.934C416.941 420.979 416.958 421.026 416.973 421.071ZM413.196 404.512C413.143 404.578 413.081 404.644 413.017 404.712C412.853 404.887 412.68 405.071 412.629 405.292C412.582 405.529 412.889 405.765 413.196 405.576C413.408 405.458 413.644 405.269 413.762 405.032C413.909 404.719 413.713 404.664 413.44 404.588L413.439 404.588L413.388 404.573L413.342 404.56C413.329 404.556 413.315 404.552 413.302 404.548C413.267 404.537 413.231 404.525 413.196 404.512Z" stroke="black" stroke-width="2" mask="url(#path-1-inside-1_131_367)"/>
<path d="M677.842 298.089L677.777 298.087C677.554 298.076 677.334 298.066 677.115 298.056C664.414 298.222 652.824 300.753 641.682 305.201C628.84 310.287 616.966 317.076 605.965 325.403C592.171 335.833 579.007 347.042 565.84 358.256L565.837 358.258L563.497 360.25C557.006 365.762 550.585 371.345 544.235 376.999C541.803 379.175 541.85 381.115 544.022 383.576C544.735 384.395 545.475 385.186 546.215 385.976L546.217 385.978C547.142 386.967 548.067 387.954 548.932 388.993C551.671 392.305 553.441 392.423 556.557 389.49C569.257 377.472 582.335 365.833 595.673 354.525C607.641 344.353 619.964 334.653 633.301 326.302C639.769 322.233 646.544 318.709 653.579 315.609C660.897 312.392 668.475 310.145 676.17 308.087C679.678 307.16 683.224 306.556 686.78 305.951L686.788 305.95C688.04 305.736 689.293 305.523 690.547 305.295C692.105 305.011 693.545 304.609 693.474 302.575C693.403 300.635 691.869 300.162 690.429 299.736C686.142 298.467 681.73 298.266 677.842 298.089Z" stroke="black" stroke-width="2" mask="url(#path-1-inside-1_131_367)"/>
<path d="M508.075 436.044C507.244 436.73 506.429 437.416 505.621 438.095C501.863 441.258 498.277 444.276 494.1 446.476L493.862 446.601C490.872 448.169 487.869 449.745 484.374 449.883C477.976 450.119 473.184 446.571 468.534 442.928C466.268 441.154 464.285 439.001 462.963 436.304C459.847 430.011 464.214 421.093 471.107 419.626C473.963 419.011 475.876 420.004 477.103 422.512C477.398 423.114 477.657 423.732 477.914 424.347C478.274 425.208 478.632 426.065 479.086 426.865C480.668 429.704 483.052 430.39 486.003 428.947C489.545 427.228 492.557 424.786 495.714 422.227L495.715 422.226L495.725 422.218L495.73 422.214C496.565 421.537 497.41 420.852 498.278 420.17C493.509 419.295 490.087 417.047 488.599 412.718C487.136 408.484 487.49 404.415 490.488 400.724C494.076 396.3 500.473 395.401 504.274 399.565L505.684 401.111C513.739 409.939 521.801 418.775 529.273 428.119C532.247 431.833 531.327 437.818 526.063 443.259C522.498 446.949 516.951 447.517 512.938 444.702C510.01 442.739 508.736 439.758 508.075 436.044Z" stroke="black" stroke-width="2" mask="url(#path-1-inside-1_131_367)"/>
<path d="M580.967 254.336V254.904C580.802 265.455 576.671 274.492 570.25 282.583C569.022 284.144 568.715 285.09 570.014 286.888C576.624 296.091 579.763 305.979 575.325 317.169C574.617 318.967 575.561 319.44 577.119 319.203C577.882 319.087 578.647 318.983 579.413 318.879C582.082 318.515 584.754 318.151 587.341 317.287C595.957 314.401 602.047 307.872 602.284 297.96C602.378 293.654 600.678 290.271 597.043 287.953C596.504 287.609 595.81 287.294 595.128 286.984C593.84 286.399 592.596 285.834 592.534 285.138C592.427 284.076 593.159 282.954 593.904 281.81C594.305 281.197 594.709 280.577 594.989 279.957C600.867 267.087 597.633 256.726 586.042 251.19C581.156 248.848 580.873 249.014 580.967 254.336Z" stroke="black" stroke-width="2" mask="url(#path-1-inside-1_131_367)"/>
<path d="M482.888 253.959C482.864 264.605 486.736 273.855 493.251 282.016C494.998 284.216 494.88 285.375 493.298 287.623C487.09 296.565 484.257 306.241 488.483 316.957C489.143 318.613 488.695 319.37 486.948 319.181C481.141 318.542 475.428 317.714 470.4 314.308C464.168 310.073 461.43 304.064 461.595 296.731C461.737 291.502 465.089 288.262 469.527 286.369C471.833 285.389 471.427 284.685 470.486 283.053L470.447 282.986C467.497 277.852 465.466 272.388 466.08 266.308C466.859 258.501 471.817 253.983 478.521 250.907C478.713 250.811 478.922 250.747 479.132 250.682C479.283 250.635 479.435 250.588 479.583 250.529C482.793 249.133 483.077 249.346 482.841 252.824C482.864 253.202 482.888 253.581 482.888 253.959Z" stroke="black" stroke-width="2" mask="url(#path-1-inside-1_131_367)"/>
<path d="M694.965 158.051C704.242 155.378 709.954 148.068 709.931 138.345C709.978 136.358 709.742 134.395 709.176 132.455C705.823 120.768 693.784 114.57 683.374 120.792C673.908 126.446 671.311 139.954 677.024 149.488C680.824 155.804 690.196 159.423 694.965 158.051Z" stroke="black" stroke-width="2" mask="url(#path-1-inside-1_131_367)"/>
<path d="M364.712 406.118C359.401 399.801 355.412 393.58 352.13 386.908C346.583 375.577 342.617 363.654 341.012 351.139C339.288 337.797 345.686 328.027 356.899 321.923C356.978 321.878 357.055 321.828 357.13 321.78C357.521 321.529 357.863 321.308 358.339 321.805C358.882 322.373 358.834 322.988 358.669 323.65C357.867 326.56 357.371 329.541 357.017 332.545C355.813 342.694 357.536 352.488 360.723 362.069C361.62 364.789 361.667 366.989 360.369 369.781C356.238 378.77 357.796 387.24 364.146 394.762C365.09 395.898 365.444 396.773 364.996 398.216C364.264 400.511 364.406 402.9 364.712 406.118Z" stroke="black" stroke-width="2" mask="url(#path-1-inside-1_131_367)"/>
<path d="M413.955 384.165C407.983 379.055 400.901 376.713 393.276 375.672C393.086 375.672 392.896 375.668 392.707 375.665C392.239 375.655 391.778 375.645 391.34 375.696C391.182 375.712 391.009 375.71 390.835 375.708C390.228 375.702 389.593 375.695 389.428 376.429C389.276 377.056 389.765 377.234 390.237 377.406C390.424 377.474 390.609 377.542 390.75 377.636C393.606 379.599 395.471 382.202 395.731 385.727C396.03 389.827 398.791 392.223 401.552 394.618L401.774 394.811C402.624 395.568 403.521 395.402 404.206 394.503C406.755 391.168 409.895 388.613 413.625 386.696C414.734 386.129 415.348 385.348 413.955 384.165Z" stroke="black" stroke-width="2" mask="url(#path-1-inside-1_131_367)"/>
</svg>
