<svg width="968" height="100" viewBox="0 0 968 100" fill="none" xmlns="http://www.w3.org/2000/svg">
<mask id="mask0_8770_8020" style="mask-type:alpha" maskUnits="userSpaceOnUse" x="0" y="0" width="968" height="100">
<path fill-rule="evenodd" clip-rule="evenodd" d="M968 0H0.5V100H968C940.386 100 918 77.6142 918 50C918 22.3858 940.386 0 968 0Z" fill="#D9D9D9"/>
</mask>
<g mask="url(#mask0_8770_8020)">
<path d="M257.216 79.3839C255.585 83.9693 252.697 87.8297 250.104 91.8273C243.502 102.017 238.276 112.854 234.327 124.298C233.659 126.218 233.149 128.119 232.795 130H188.157C187.037 127.12 185.858 124.259 184.621 121.417C179.709 110.189 173.265 100.156 163.225 92.7287C154.679 86.3992 145.366 81.853 134.718 80.2069C126.584 78.9528 119.295 80.5792 112.556 85.4586C104.029 91.6313 96.2883 98.6859 88.5671 105.78C80.6101 113.128 72.7121 120.555 64.146 127.218C62.8886 128.197 61.6116 129.118 60.3345 130H1.23667C-0.177901 127.1 -0.472604 123.886 0.843737 120.32C2.71019 115.323 5.61793 113.304 11.0208 113.54C17.2489 113.814 23.4377 114.343 29.6461 114.774C31.2571 114.892 32.8485 114.931 34.4399 115.146C47.7212 117.008 57.0338 111.031 63.9888 100.332C68.3701 93.5909 67.4663 87.2027 61.4347 81.7942C59.0378 79.6386 56.5034 79.0899 53.5956 80.4224C51.3362 81.461 49.1554 82.6564 46.9157 83.7342C39.5088 87.2223 31.5518 85.1255 28.3494 78.8352C24.8915 72.0746 27.5242 63.374 34.3024 59.4156C39.3713 56.4566 44.8724 55.2024 50.7075 55.8491C55.3246 56.3586 59.8433 57.2404 64.1657 59.0237C68.6059 60.8461 73.0853 62.6097 77.5648 64.3146C83.6357 66.6465 88.6653 64.4909 93.2234 60.4738C95.306 58.6317 95.1684 56.4566 94.0682 54.1835C92.9091 51.7536 91.0426 49.8136 89.2547 47.854C85.4432 43.6408 81.3763 39.6433 78.0364 35.0186C76.052 32.2752 74.1856 29.4534 73.3408 26.122C72.3781 22.3792 73.3211 20.5372 76.8183 18.8127C87.8598 13.4239 102.536 16.618 110.316 26.1024C112.811 29.1398 114.737 32.5299 116.564 35.9788C118.882 40.3879 121.24 44.7578 124.167 48.8142C126.564 52.1259 129.649 54.2227 133.657 55.2025C138.49 56.3782 143.225 57.8871 147.901 59.6311C156.526 62.8841 164.09 67.6851 170.495 74.3281C172.597 76.5033 174.719 78.6784 176.978 80.6576C181.89 84.9295 187.98 82.8523 189.493 76.4445C190.279 73.0348 189.749 69.7427 188.53 66.5093C185.132 57.5736 179.08 50.7346 171.241 45.4437C166.978 42.5631 162.439 40.0744 158.215 37.1546C149.512 31.119 142.812 23.4766 139.924 13.0515C139.06 9.95538 138.529 6.83962 139.728 3.64548C141.908 -2.19412 147.115 -4.64361 152.989 -2.44886C156.722 -1.05755 159.885 1.15679 162.656 3.99821C167.017 8.48568 170.711 13.4631 174.051 18.7148C176.055 21.8697 178.118 24.9855 181.32 27.1018C185.014 29.5513 185.878 29.3554 187.764 25.4558C188.452 24.0253 189.022 22.5164 189.69 21.0663C191.792 16.4612 194.621 12.836 200.397 12.9928C205.859 13.1495 211.144 16.7552 213.187 21.9677C214.582 25.495 214.916 29.1986 214.445 32.961C214.15 35.4105 213.718 37.86 213.207 40.2899C211.458 48.5006 212.284 56.5154 214.641 64.4713C215.938 68.8608 218.256 72.5253 221.989 75.2883C227.176 79.1291 230.378 78.0318 231.871 71.6435C232.481 69.0764 232.697 66.3918 232.795 63.7463C233.05 56.9661 232.343 50.2839 230.712 43.68C229.848 40.2507 229.042 36.7822 228.355 33.2942C227.549 29.277 227.51 25.2206 227.962 21.1251C228.473 16.3829 230.221 12.5029 234.956 10.7C239.75 8.858 243.719 11.0136 247.196 13.9334C250.516 16.716 252.638 20.4588 254.348 24.4172C262.049 42.3867 263.857 60.6501 257.216 79.3839Z" fill="#0D66B0"/>
<path d="M318.534 102.86C314.172 111.384 312.581 120.261 316.058 130H286.254C286.588 114.774 288.67 99.7634 292.855 84.9685C294.781 78.1295 295.881 71.0945 296.529 64.0204C297.512 53.4386 296.411 43.0723 292.639 33.1176C287.295 19.0869 279.888 6.21233 270.379 -5.46687C259.456 -18.8705 245.369 -25.5135 228.119 -25.6311C223.679 -25.6507 219.238 -25.4743 214.779 -25.3764C206.232 -25.1804 197.705 -25.4156 189.375 -27.6691C178.982 -30.4713 172.42 -37.0556 170.259 -47.657C169.414 -51.7721 169.767 -55.8089 172.911 -59.101C176.113 -62.4519 179.886 -63.1378 184.031 -61.0606C186.782 -59.6889 189.061 -57.6705 191.242 -55.5933C196.841 -50.2828 202.853 -49.6754 209.788 -53.0459C224.857 -60.3552 241.007 -61.3154 257.255 -59.4929C274.426 -57.5529 286.568 -48.4408 292.6 -31.941C294.506 -26.7677 296.274 -21.5552 298.121 -16.3818C299.437 -12.6782 301.146 -9.1901 303.72 -6.15273C305.41 -4.17353 307.335 -2.60586 310.145 -3.3701C312.777 -4.09515 314.329 -5.99596 314.997 -8.56303C317.492 -18.1846 316.805 -27.7083 312.777 -36.7028C306.628 -50.4004 296.863 -60.0024 281.224 -62.4323C278.474 -62.8634 275.743 -63.3533 273.051 -64H318.534V102.86Z" fill="#0D66B0"/>
<path d="M633.493 56.5748C637.638 56.6924 641.312 57.8681 644.672 59.7689V130.001H598.423C598.05 129.609 597.677 129.217 597.323 128.805C594.435 125.553 591.901 122.006 589.838 118.165C584.336 107.897 575.849 102.508 564.14 102.037C558.953 101.841 553.825 102.273 548.697 102.704C530.347 104.271 511.997 105.29 493.587 103.507C479.579 102.135 466.298 98.6277 454.51 90.5934C449.932 87.4776 445.885 83.8524 442.584 79.4041C440.502 76.6215 439.264 73.4861 438.714 70.1352C437.948 65.5693 439.146 61.513 442.525 58.2209C446.612 54.2625 451.465 53.851 456.121 57.1431C459.166 59.2986 461.602 62.1009 463.783 65.099C464.451 66.02 465.041 66.9802 465.669 67.9209C472.821 78.875 482.566 84.3619 495.965 82.6374C501.23 81.9516 506.535 81.6184 511.8 80.7562C518.873 79.5805 520.838 69.6845 517.439 64.7071C516.358 63.1198 514.747 62.4536 512.999 62.0421C510.169 61.3562 507.321 60.7879 504.492 60.1413C499.757 59.0439 495.14 57.6134 490.955 55.0659C483.902 50.794 481.564 43.6807 484.766 36.391C487.929 29.1209 495.513 25.3388 503.018 27.3376C507.164 28.435 510.661 30.7277 513.824 33.5691C517.812 37.1552 520.838 41.4859 523.451 46.1693C527.223 52.9299 529.816 60.2588 533.431 67.0978C535.023 70.1352 536.83 72.9178 539.954 74.6227C545.003 77.3857 548.559 75.818 549.365 70.1744C550.544 61.9245 548.324 54.2037 545.023 46.7572C541.192 38.1742 535.651 30.6297 529.974 23.2029C526.437 18.539 523.353 13.6596 521.938 7.91803C520.072 0.373585 521.015 -6.79854 525.16 -13.4416C529.05 -19.6339 534.453 -21.6131 541.369 -19.3595C548.461 -17.0668 552.843 -12.3442 553.825 -4.85854C554.198 -1.99753 554.237 0.922272 554.355 3.82247C554.532 7.83965 554.807 11.8372 555.79 15.776C556.693 19.4404 558.363 22.6738 560.957 25.4564C564.375 29.1013 567.578 32.9029 570.289 37.1356C573.55 42.2306 574.886 47.6782 574.317 53.6746C573.924 57.6918 573.649 61.6893 574.061 65.7261C574.513 70.292 576.419 73.2901 581.173 74.897C590.132 77.8952 596.91 83.5584 600.015 92.8861C601.94 98.6865 605.752 102.41 611.94 103.605C618.64 104.918 624.318 107.857 628.483 113.579C630.625 116.499 632.884 116.597 636.145 114.912C637.619 114.148 638.739 113.031 639.662 111.679C645.104 103.625 642.806 90.0055 635.006 84.1855C631.902 81.8732 628.463 80.0508 625.025 78.2871C613.846 72.5847 606.38 63.7077 602.294 51.911C600.447 46.5613 599.975 41.2312 601.92 35.8227C602.863 33.2164 604.298 30.9237 606.459 29.1013C610.879 25.3388 617.009 26.6714 619.17 32.0602C620.251 34.7253 620.899 37.5863 621.626 40.3689C622.314 43.0144 622.726 45.7382 623.512 48.3641C624.966 53.2827 627.913 56.418 633.493 56.5748Z" fill="#0D66B0"/>
<path d="M406.827 99.0375C410.088 103.76 410.186 110.658 406.434 114.989C401.915 120.182 393.938 120.397 388.064 123.944C385.589 125.433 383.526 127.55 382.052 129.999H330.558C330.852 129.215 331.167 128.431 331.501 127.687C332.935 124.493 335.587 121.299 339.104 121.279C342.857 121.259 345.529 124.747 348.81 126.55C354.193 129.529 361.835 127.217 364.684 121.769C367.022 117.281 366.197 111.775 367.926 107.013C369.36 103.035 372.504 99.8802 375.962 97.4307C380.638 94.0994 386.198 91.8066 391.935 91.8066C397.671 91.8066 403.565 94.3149 406.827 99.0375Z" fill="#0D66B0"/>
<path d="M409.499 71.604C401.856 71.2905 394.823 67.5869 388.182 63.8245C381.522 60.062 374.724 56.084 367.14 55.1238C361.167 54.3988 354.9 56.0057 350.46 60.1208C346.039 64.2556 345.45 70.4087 340.97 74.5238C333.347 81.5392 326.766 89.3972 321.225 98.1566C320.243 99.7047 319.339 101.272 318.534 102.86V-64H346C345.037 -58.7483 340.558 -55.2994 332.896 -54.2216C332.011 -54.104 331.127 -54.0648 330.243 -53.9669C324.605 -53.3202 323.72 -51.9681 325.685 -46.7947C326.903 -43.6006 328.652 -40.72 331.127 -38.3293C335.705 -33.8614 341.01 -32.2741 347.238 -34.3905C356.177 -37.4279 362.641 -43.7378 368.653 -50.616C370.971 -53.281 372.877 -56.3184 375.117 -59.0618C379.812 -64.7642 384.704 -65.1366 390.264 -60.316C392.151 -58.6699 393.703 -56.7103 394.96 -54.5547C400.933 -44.1885 402.328 -33.1168 399.322 -21.6531C396.748 -11.8356 389.773 -7.36768 379.655 -8.7198C375.077 -9.32727 370.46 -10.1111 366.079 -11.4828C353.152 -15.5 344.939 -10.601 337.964 0.62748C333.564 7.72121 327.611 19.6552 331.088 28.1402C333.406 33.7447 337.611 34.5285 342.857 33.7838C351.521 32.5297 359.497 29.4727 368.083 33.3723C374.96 36.4685 379.753 43.2291 386.826 45.855C391.856 47.7362 397.377 47.3051 402.721 46.9719C408.084 46.6388 413.684 46.482 418.497 48.8139C434.234 56.4368 423.134 72.1723 409.499 71.604Z" fill="#0D66B0"/>
<path d="M475.591 130H423.016C419.204 120.065 419.951 109.13 428.792 103.31C449.284 89.8282 462.486 119.497 474.766 129.432C475.021 129.647 475.296 129.843 475.591 130Z" fill="#0D66B0"/>
<path d="M601.586 -0.489058C601.586 6.56549 595.849 12.2875 588.777 12.2875C581.704 12.2875 575.967 6.56549 575.967 -0.489058C575.967 -7.5436 581.704 -13.2656 588.777 -13.2656C595.849 -13.2656 601.586 -7.5436 601.586 -0.489058Z" fill="#0D66B0"/>
<path d="M369.478 85.7713C369.478 89.6709 366.315 92.8258 362.405 92.8258C358.496 92.8258 355.352 89.6709 355.352 85.7713C355.352 81.8717 358.515 78.7363 362.405 78.7363C366.295 78.7363 369.478 81.8717 369.478 85.7713Z" fill="#0D66B0"/>
<path d="M397.671 18.8127C397.671 21.4778 395.51 23.6137 392.858 23.6137C390.206 23.6137 388.044 21.4582 388.044 18.8127C388.044 16.1673 390.206 14.0117 392.858 14.0117C395.51 14.0117 397.671 16.1477 397.671 18.8127Z" fill="#0D66B0"/>
<path d="M562.017 -64C558.304 -59.7281 553.549 -56.0048 548.618 -52.6735C538.127 -45.5798 540.524 -37.0556 543.785 -31.6471C545.082 -29.5307 543.608 -26.7873 541.133 -26.6697C517.871 -25.5331 514.413 1.45051 513.961 6.83939C513.902 7.42728 513.529 7.93677 512.998 8.15232L501.289 13.0317C488.086 18.8321 478.4 30.5309 475.178 44.5616L473.665 51.1263C473.43 52.1452 472.29 52.6547 471.367 52.1256C455.315 43.1311 442.525 47.4618 436.022 51.1067C434.705 51.8513 433.193 50.46 433.841 49.0687L457.26 -0.391518C457.26 -0.391518 472.545 -38.5057 466.219 -64H493.037C492.212 -54.0257 490.345 -45.9913 488.558 -42.1701C480.011 -24.0046 523.156 -9.64081 520.995 -54.3784C520.837 -57.8077 520.798 -61.0018 520.896 -64L562.017 -64Z" fill="#0D66B0"/>
<path d="M419.912 1.25454C404.784 -8.83738 412.819 -22.5741 417.554 -29.6091C424.431 -39.8186 415.786 -54.2412 406.12 -64H434.018C440.777 -58.1604 446.71 -50.4004 450.639 -40.5044C466.75 -0.0387917 431.916 9.26929 419.912 1.25454Z" fill="#0D66B0"/>
<path d="M681.195 116.42C685.203 120.183 687.482 124.768 688.425 130H644.672V59.7683C646.971 61.0616 649.112 62.6881 651.155 64.5693C655.733 68.7432 657.541 68.1357 659.014 62.061C660.664 55.1436 659.309 48.6377 655.812 42.5434C653.808 39.0553 651.116 36.018 649.21 32.4319C643.591 21.9676 645.477 10.6216 654.201 2.56765C656.951 0.0201755 659.996 -2.0374 663.336 -3.68346C668.052 -5.99579 672.433 -5.21195 676.441 -1.99821C680.134 0.960778 680.881 4.91916 679.938 9.32825C679.27 12.4832 678.072 15.4814 676.637 18.362C673.494 24.6523 673.513 31.0406 675.851 37.566C676.971 40.7406 678.484 43.7584 679.368 47.0505C680.665 51.8907 680.763 56.6329 678.799 61.2575C675.596 68.802 673.946 76.9147 670.272 84.322C667.619 89.6717 667.894 95.5701 668.857 101.39C669.407 104.565 671.195 106.995 673.455 109.13C676.009 111.58 678.622 113.99 681.195 116.42Z" fill="#0D66B0"/>
<path d="M967.863 16.0299C966.665 26.8077 961.753 35.665 953.403 42.4453C946.232 48.2653 938.727 47.795 932.047 41.4067C929.041 38.5065 926.074 35.4691 923.599 32.1378C916.29 22.281 907.645 21.4776 896.506 25.965C889.472 28.8065 878.706 34.3717 876.702 42.4453C875.385 47.7949 878.038 50.6168 882.301 52.8703C889.315 56.5739 896.781 58.6119 900.985 66.0388C904.345 71.9764 904.227 79.4816 907.999 85.2036C910.671 89.2404 914.954 91.8858 919.041 94.4921C923.127 97.118 927.332 99.9986 929.591 104.271C937.018 118.262 920.455 123.847 910.75 116.146C905.327 111.854 902.184 105.368 899.335 99.058C896.486 92.7481 893.637 86.203 888.588 81.4608C884.619 77.7376 879.177 75.5624 873.715 76.2091C868.253 76.8754 864.521 81.0493 859.019 81.6763C849.687 82.7345 840.63 84.9685 831.867 88.437C821.789 92.4149 813.949 98.5289 810.865 109.444C810.433 110.953 810.059 112.52 809.45 113.951C809.077 114.872 808.173 115.871 808.35 116.929C808.763 119.555 813.026 120.359 815.109 119.928C818.232 119.281 820.767 117.106 823.537 115.538C826.307 113.971 829.962 113.049 832.555 114.911C835.306 116.91 835.404 120.888 836.818 123.945C839.176 129.02 846.013 131.411 851.003 128.942C855.129 126.904 857.487 122.416 861.298 119.869C864.501 117.733 868.489 117.086 872.34 117.145C877.546 117.204 882.851 118.497 887.056 121.554C889.924 123.651 892.223 126.649 893.323 130H713.279C711 123.651 708.662 117.302 706.52 110.894C702.06 97.5491 702.257 84.361 707.306 71.1925C712.159 58.5531 716.403 45.7178 719.369 32.4905C721.806 21.6343 722.474 10.837 719.134 0.0591888C716.265 -9.15091 711.884 -17.4596 704.988 -24.3378C699.703 -29.6091 693.475 -32.3329 685.93 -32.3525C676.362 -32.3721 666.932 -31.3531 657.462 -30.2754C653.199 -29.7855 648.935 -29.276 644.672 -28.8448V-48.4604C649.819 -51.2626 651.804 -56.0244 650.468 -62.3343C650.35 -62.9418 650.173 -63.4905 649.937 -64H673.769C676.814 -61.1978 680.783 -60.5511 685.184 -60.9626C687.266 -61.1586 688.367 -62.3343 688.897 -64H715.086C714.556 -60.3356 714.143 -56.6711 714.104 -52.9675C714.084 -49.2638 715.224 -46.0697 717.621 -43.2283C720.548 -39.7794 723.2 -36.1345 725.676 -32.3721C730.254 -25.3764 733.22 -17.8123 734.321 -9.54283C734.694 -6.81899 735.087 -4.11475 735.676 -1.4497C736.973 4.31152 742.553 6.03596 747.091 2.15595C749.508 0.098381 750.883 -2.62545 751.728 -5.62363C754.046 -13.9911 753.28 -22.2214 750.392 -30.2949C748.8 -34.6844 746.816 -38.9172 745.303 -43.3263C742.926 -50.1653 741.904 -57.063 743.044 -64H766.502C767.151 -58.8071 767.151 -53.575 766.797 -48.3428C766.581 -44.9723 766.404 -41.6018 767.622 -38.3293C768.997 -34.5669 769.744 -34.2533 773.221 -36.0954C774.498 -36.7616 775.717 -37.5651 776.974 -38.2705C781.002 -40.524 785.01 -41.6606 789.155 -38.4665C793.084 -35.4291 795.01 -29.9618 793.713 -25.0628C792.829 -21.7315 791.08 -18.8509 788.723 -16.3426C787.19 -14.7162 785.56 -13.1485 783.87 -11.6396C778.192 -6.58384 774.479 -0.254345 771.944 6.81979C770.53 10.739 770.255 14.6582 771.512 18.6753C773.241 24.2602 776.188 25.1616 780.707 21.2816C782.534 19.7335 784.145 17.8719 785.638 15.9907C789.45 11.1701 792.515 5.89878 794.853 0.196358C796.09 -2.78223 797.348 -5.74121 798.723 -8.66101C800.295 -12.0315 802.436 -15.0297 804.971 -17.7927C807.898 -20.9869 811.258 -22.8877 815.698 -21.6923C820.178 -20.4578 821.926 -16.7933 822.928 -12.7762C823.851 -8.95495 823.4 -5.09455 822.515 -1.29293C818.508 15.9907 810.02 30.3349 795.088 40.4857C791.434 42.9743 787.269 44.2677 783.202 45.7962C772.907 49.7349 763.261 54.8691 754.223 61.1398C743.948 68.2923 739.154 78.5018 738.054 90.6317C737.11 100.978 739.232 110.796 743.987 120.026C747.445 126.727 753.555 128.628 760.235 125.121C766.188 121.985 770.825 117.243 775.088 112.187C777.681 109.13 780.098 105.877 782.338 102.546C792.299 87.7315 804.087 74.6414 818.193 63.6089C823.282 59.6505 827.859 55.0846 832.142 50.264C838.528 43.0331 843.282 34.8616 845.876 25.5535C849.51 12.4242 850.984 -0.959801 850.296 -14.5986C849.51 -30.2362 842.752 -42.6404 830.197 -51.9289C826.956 -54.3196 823.596 -56.5731 820.295 -58.8659C817.918 -60.5315 815.56 -62.2168 813.301 -64H866.485C867.585 -63.079 868.646 -62.1188 869.707 -61.1586C881.24 -50.5768 885.228 -37.4083 880.788 -22.1038C879.413 -17.3028 877.9 -12.541 876.466 -7.75959C875.444 -4.3499 874.835 -0.881413 875.091 2.70464C875.267 5.07576 875.818 7.23132 878.293 8.19151C880.611 9.05373 882.772 8.50505 884.639 6.97657C891.633 1.25455 896.231 -6.07434 898.117 -14.8141C900.966 -28.1394 898.981 -40.3673 888.843 -50.4984C884.678 -54.6723 880.808 -59.0618 877.684 -64H900.651C901.535 -61.5505 903.461 -60.6295 907.41 -60.1592C910.632 -59.7869 913.834 -59.4929 917.056 -59.2382C933.088 -57.9057 942.754 -40.7592 941.949 -28.884C941.87 -27.7671 941.713 -26.6501 941.458 -25.5527C938.943 -14.9317 931.89 -11.7572 922.263 -16.8913C921.555 -17.2636 920.868 -17.7143 920.18 -18.1063C915.701 -20.6537 914.325 -20.1442 912.989 -15.2844C912.164 -12.3059 911.909 -9.26849 912.42 -6.21152C913.382 -0.489498 916.408 3.52768 922.106 5.29131C930.298 7.83879 938.412 6.68262 946.487 4.8602C949.631 4.15475 952.656 2.9398 955.761 2.13636C962.264 0.451111 966.056 2.80263 967.529 9.30848C968.02 11.5228 968.119 13.7764 967.863 16.0299Z" fill="#0D66B0"/>
</g>
</svg>
