<svg width="200" height="45" viewBox="0 0 200 45" fill="none" xmlns="http://www.w3.org/2000/svg">
<g id="Group 64">
<g id="Group">
<path id="Vector" d="M152.71 9.7128C153.127 9.36315 153.499 9.0059 153.924 8.70945C154.6 8.23818 155.344 7.92654 156.156 7.77452C157.234 7.56929 158.319 7.53128 159.405 7.6833C161.021 7.91134 162.403 8.58784 163.473 9.84962C163.541 9.92563 163.602 10.0016 163.678 10.0853C164.035 9.79641 164.376 9.51517 164.725 9.24913C165.317 8.79307 165.963 8.45102 166.661 8.18498C168.164 7.61489 169.712 7.53888 171.299 7.6681C172.384 7.75932 173.394 8.05576 174.327 8.58784C176.104 9.59878 177.128 11.1494 177.462 13.1561C177.538 13.635 177.576 14.1214 177.576 14.6003C177.584 18.4769 177.584 22.361 177.584 26.2376C177.584 26.7697 177.538 26.8153 177.014 26.8153C175.83 26.8153 174.646 26.8153 173.47 26.8153C172.923 26.8153 172.878 26.7773 172.878 26.23C172.878 22.7031 172.878 19.1838 172.878 15.6569C172.878 14.8968 172.771 14.1518 172.437 13.4601C171.929 12.4036 171.109 11.7879 169.955 11.5751C168.961 11.3926 168.005 11.4611 167.101 11.9171C166.008 12.4644 165.447 13.4297 165.234 14.6079C165.166 15.0032 165.143 15.406 165.143 15.8013C165.135 19.2902 165.135 22.7791 165.135 26.2604C165.135 26.7849 165.105 26.8153 164.581 26.8153C163.382 26.8153 162.183 26.8153 160.976 26.8153C160.482 26.8153 160.429 26.7621 160.429 26.268C160.429 22.6803 160.429 19.085 160.429 15.4972C160.429 14.5775 160.217 13.711 159.693 12.9357C159.177 12.168 158.441 11.7651 157.552 11.5751C156.847 11.423 156.133 11.4306 155.45 11.6131C154.175 11.9399 153.325 12.7608 152.953 14.0226C152.808 14.5167 152.733 15.0488 152.725 15.558C152.71 19.1002 152.717 22.6423 152.717 26.1844C152.717 26.2984 152.717 26.4124 152.702 26.5188C152.672 26.6937 152.581 26.8077 152.383 26.8077C151.032 26.8077 149.681 26.8077 148.33 26.8077C148.133 26.8077 148.034 26.7089 148.011 26.534C147.996 26.4352 147.996 26.3288 147.996 26.23C147.996 20.3619 147.996 14.5015 147.996 8.63344C147.996 8.10136 148.072 8.02535 148.611 8.02535C149.81 8.02535 151.009 8.02535 152.216 8.02535C152.596 8.02535 152.717 8.13937 152.717 8.51943C152.71 8.89948 152.71 9.30234 152.71 9.7128Z" fill="#08266E"/>
<path id="Vector_2" d="M107.569 9.71284C107.964 9.38599 108.321 9.05915 108.708 8.77031C109.406 8.25343 110.195 7.93418 111.061 7.76696C112.138 7.56173 113.232 7.52372 114.309 7.68335C116.769 8.0482 118.932 9.67484 119.691 12.3048C119.904 13.0345 119.995 13.7794 119.987 14.5395C119.987 18.4389 119.987 22.3307 119.987 26.23C119.987 26.7697 119.964 26.8001 119.418 26.8001C118.211 26.8001 116.996 26.8001 115.79 26.8001C115.349 26.8001 115.289 26.7393 115.289 26.2909C115.289 22.7031 115.289 19.1154 115.289 15.5201C115.289 14.6308 115.106 13.7794 114.621 13.0193C114.074 12.1528 113.269 11.7043 112.283 11.5371C111.235 11.3547 110.233 11.4687 109.322 12.0008C108.321 12.5861 107.82 13.5438 107.637 14.6688C107.584 14.9804 107.577 15.2997 107.577 15.6189C107.569 19.123 107.577 22.6271 107.577 26.1388C107.577 26.2528 107.577 26.3669 107.569 26.4733C107.546 26.6861 107.44 26.8077 107.205 26.8077C105.884 26.8001 104.563 26.8001 103.242 26.8077C102.992 26.8077 102.886 26.6861 102.871 26.4581C102.863 26.3745 102.871 26.2909 102.871 26.2072C102.871 17.7776 102.871 9.34799 102.871 0.925964C102.871 0.363482 102.939 0.302673 103.501 0.302673C104.685 0.302673 105.869 0.302673 107.045 0.302673C107.486 0.302673 107.592 0.409089 107.592 0.849953C107.592 3.70037 107.592 6.55838 107.592 9.4088C107.569 9.50001 107.569 9.60643 107.569 9.71284Z" fill="#08266E"/>
<path id="Vector_3" d="M137.568 25.0746C136.945 25.8955 136.095 26.3972 135.162 26.7468C134.258 27.0889 133.302 27.1877 132.345 27.2333C131.032 27.2941 129.734 27.1497 128.512 26.6632C126.425 25.8271 125.081 24.1929 125.028 21.7377C124.998 20.4835 125.203 19.2902 125.947 18.2336C126.47 17.4811 127.176 16.9642 127.996 16.5766C129.636 15.786 131.389 15.6036 133.173 15.5732C134.516 15.5504 135.852 15.5656 137.196 15.5732C137.461 15.5732 137.56 15.482 137.56 15.2236C137.545 14.4559 137.598 13.6805 137.279 12.9432C136.96 12.2059 136.384 11.7803 135.647 11.5902C134.053 11.1722 132.437 11.2026 130.835 11.4914C129.992 11.6434 129.203 12.0083 128.489 12.51C128.087 12.7912 127.966 12.7608 127.723 12.3503C127.252 11.5674 126.782 10.7921 126.311 10.0092C126.106 9.67476 126.129 9.56834 126.455 9.35551C127.283 8.81583 128.186 8.44338 129.127 8.15454C131.063 7.56165 133.044 7.51604 135.032 7.66046C135.928 7.72127 136.839 7.80489 137.704 8.02532C139.761 8.55739 141.287 9.55314 141.833 12.2059C141.955 12.814 142.008 13.4449 142.008 14.0682C142.023 18.1272 142.016 22.1786 142.016 26.2376C142.016 26.7696 141.985 26.8 141.469 26.8C140.353 26.8 139.238 26.8 138.114 26.8C137.719 26.8 137.659 26.7316 137.659 26.344C137.659 25.9259 137.659 25.5155 137.659 25.0974C137.613 25.0898 137.59 25.0822 137.568 25.0746ZM135.116 18.8037C133.826 18.8037 132.528 18.7657 131.268 19.1229C130.706 19.2826 130.19 19.5486 129.871 20.0579C128.953 21.5249 129.772 23.2427 131.48 23.5544C132.854 23.8052 134.198 23.7596 135.526 23.3263C136.589 22.9767 137.332 22.2926 137.469 21.1296C137.545 20.4987 137.522 19.845 137.537 19.2065C137.545 18.8645 137.484 18.8037 137.127 18.8037C136.459 18.8037 135.792 18.8037 135.116 18.8037Z" fill="#08266E"/>
<path id="Vector_4" d="M191.399 27.2562C189.661 27.2182 188.333 27.1346 187.05 26.7621C185.342 26.268 183.771 25.4623 182.382 24.3373C182.101 24.1093 182.093 23.9573 182.351 23.6989C183.118 22.9463 183.884 22.1938 184.659 21.4489C184.94 21.1829 185.031 21.1829 185.327 21.4185C186.169 22.1026 187.11 22.5891 188.128 22.9615C189.608 23.5088 191.126 23.6685 192.674 23.4252C193.448 23.3036 194.17 23.03 194.648 22.3535C195.392 21.3045 194.913 20.0047 193.676 19.6171C192.598 19.2826 191.49 19.199 190.382 19.123C188.97 19.0166 187.573 18.857 186.26 18.2793C184.446 17.4812 183.391 16.1054 183.224 14.0987C183.118 12.8141 183.308 11.5903 184.021 10.4881C184.697 9.43918 185.653 8.73228 186.799 8.28382C188.583 7.58451 190.435 7.4933 192.31 7.65292C193.122 7.72133 193.942 7.81255 194.724 8.01778C196.143 8.39023 197.487 8.95271 198.663 9.86485C198.944 10.0853 198.952 10.2297 198.701 10.5109C198.276 10.9898 197.843 11.4611 197.418 11.9399C197.198 12.1832 196.986 12.4264 196.765 12.6621C196.545 12.8977 196.363 12.9357 196.098 12.7685C195.278 12.2516 194.39 11.8791 193.464 11.6131C192.28 11.271 191.065 11.1114 189.828 11.3091C189.312 11.3927 188.841 11.5371 188.424 11.8563C187.9 12.2592 187.665 12.7913 187.748 13.445C187.832 14.0759 188.234 14.4787 188.796 14.7143C189.471 15.0032 190.185 15.0868 190.906 15.1628C191.725 15.2464 192.553 15.3072 193.373 15.4137C194.071 15.5049 194.777 15.5961 195.452 15.7861C197.692 16.4018 199.422 17.8612 199.521 20.6052C199.604 22.9007 198.671 24.6718 196.735 25.9032C195.794 26.5037 194.754 26.8533 193.653 26.9977C192.781 27.127 191.892 27.203 191.399 27.2562Z" fill="#08266E"/>
<path id="Vector_5" d="M89.9133 7.57703C90.4902 7.64544 91.5604 7.69864 92.5927 7.91908C94.1867 8.26113 95.6821 8.87682 96.9952 9.88016C97.2912 10.1006 97.2912 10.2298 97.0407 10.5187C96.6081 11.0051 96.1754 11.484 95.7352 11.9629C95.5227 12.1985 95.3177 12.4341 95.1052 12.6622C94.8851 12.8978 94.7029 12.9434 94.4372 12.7762C93.6175 12.2593 92.7294 11.8869 91.8033 11.6208C90.6192 11.2788 89.4048 11.1115 88.1675 11.3168C87.6741 11.4004 87.2187 11.5296 86.8088 11.826C86.2623 12.2213 86.0042 12.7458 86.0801 13.4147C86.156 14.0684 86.5508 14.5244 87.158 14.7145C87.8259 14.9197 88.5243 15.0565 89.215 15.1553C90.0424 15.2769 90.8849 15.3074 91.7123 15.4138C92.403 15.505 93.0937 15.6038 93.7617 15.7786C96.1982 16.4247 97.9136 18.0818 97.8681 20.9626C97.8377 23.1137 96.8889 24.7479 95.0824 25.9033C94.1336 26.5114 93.0785 26.8382 91.9703 27.0131C90.8925 27.1803 89.8071 27.2715 88.7216 27.2183C87.4692 27.1575 86.2092 27.0511 85.0175 26.6482C83.4538 26.1161 81.9889 25.3712 80.6985 24.3147C80.4404 24.1018 80.4329 23.9422 80.6682 23.7142C81.4424 22.9541 82.2166 22.194 82.9984 21.4414C83.2793 21.1678 83.3704 21.1678 83.6664 21.411C84.6759 22.2548 85.8448 22.8096 87.0973 23.1669C88.2662 23.5013 89.4579 23.6306 90.68 23.4557C91.3859 23.3493 92.0614 23.1973 92.6231 22.7336C93.2076 22.2548 93.4505 21.6467 93.2835 20.9018C93.1317 20.2025 92.6307 19.83 91.9855 19.6172C90.8925 19.2523 89.7463 19.1991 88.6078 19.1155C87.2263 19.0091 85.8524 18.8419 84.5696 18.2642C82.7403 17.4433 81.6853 16.0447 81.5486 14.0152C81.4652 12.7686 81.6473 11.5828 82.3381 10.5111C83.0136 9.4545 83.9624 8.7476 85.1086 8.28393C86.49 7.72145 87.955 7.61503 89.9133 7.57703Z" fill="#08266E"/>
<path id="Vector_6" d="M110.553 42.2228C110.879 42.8917 111.198 43.5302 111.54 44.2371C111.236 44.2371 110.986 44.2523 110.743 44.2295C110.674 44.2219 110.598 44.1231 110.56 44.0547C110.333 43.5758 110.097 43.0969 109.893 42.6104C109.801 42.3976 109.68 42.3292 109.452 42.3368C108.921 42.352 108.921 42.3444 108.921 42.8689C108.921 43.3173 108.921 43.7582 108.921 44.1839C108.875 44.2143 108.86 44.2295 108.845 44.2295C108.154 44.2827 108.154 44.2827 108.154 43.591C108.154 42.3444 108.154 41.0902 108.154 39.8436C108.154 39.7448 108.154 39.646 108.154 39.4712C108.921 39.5092 109.672 39.4864 110.393 39.5928C110.993 39.684 111.312 40.1477 111.395 40.7482C111.479 41.3411 111.213 41.8579 110.697 42.1544C110.659 42.1772 110.621 42.1924 110.553 42.2228ZM109.589 41.5767C109.718 41.5767 109.847 41.5767 109.976 41.5767C110.348 41.5691 110.576 41.3715 110.636 41.0294C110.69 40.7026 110.5 40.3681 110.166 40.2769C109.991 40.2313 109.801 40.2237 109.619 40.2237C108.921 40.2161 108.921 40.2237 108.921 40.9078C108.921 41.5767 108.921 41.5767 109.589 41.5767Z" fill="#08266E"/>
<path id="Vector_7" d="M178.564 44.2371C178.275 44.2371 178.048 44.2523 177.827 44.2295C177.744 44.2219 177.63 44.1307 177.592 44.0471C177.357 43.5682 177.129 43.0894 176.924 42.6029C176.833 42.3977 176.719 42.314 176.484 42.3216C175.953 42.3369 175.953 42.3293 175.953 42.8537C175.953 43.3022 175.953 43.7431 175.953 44.2067C175.695 44.2067 175.459 44.2067 175.201 44.2067C175.201 42.6409 175.201 41.0903 175.201 39.494C175.482 39.494 175.763 39.4864 176.051 39.494C176.514 39.5092 176.985 39.494 177.433 39.5776C177.994 39.6917 178.321 40.0945 178.404 40.657C178.503 41.3107 178.26 41.8276 177.736 42.1316C177.691 42.1544 177.645 42.1772 177.577 42.2076C177.903 42.8917 178.222 43.5378 178.564 44.2371ZM175.953 41.5691C176.378 41.5691 176.765 41.5691 177.152 41.5691C177.205 41.5691 177.258 41.5463 177.311 41.5159C177.592 41.3715 177.714 41.0979 177.653 40.7634C177.592 40.4594 177.349 40.2465 177 40.2237C176.727 40.2085 176.446 40.2085 176.165 40.2237C176.089 40.2313 175.968 40.3378 175.968 40.4062C175.945 40.7862 175.953 41.1587 175.953 41.5691Z" fill="#08266E"/>
<path id="Vector_8" d="M110.265 34.4012C110.234 34.7129 110.227 35.1157 110.143 35.5034C109.931 36.4763 109.088 36.8488 108.246 36.7195C107.395 36.5903 106.91 36.0582 106.857 35.1917C106.819 34.5684 106.811 33.9451 106.864 33.3219C106.948 32.2729 107.934 31.6344 108.952 31.8928C109.817 32.1133 110.143 32.7898 110.196 33.3827C110.227 33.6943 110.242 33.9984 110.265 34.4012ZM109.468 34.462H109.46C109.46 34.2796 109.468 34.0896 109.46 33.9071C109.452 33.7475 109.445 33.5879 109.422 33.4359C109.361 32.9266 108.982 32.5693 108.526 32.5693C108.063 32.5693 107.669 32.9266 107.646 33.4435C107.616 34.0212 107.616 34.5988 107.646 35.1689C107.676 35.6858 108.071 36.0278 108.542 36.0202C109.02 36.0126 109.377 35.6706 109.43 35.1537C109.445 34.9257 109.452 34.6901 109.468 34.462Z" fill="#08266E"/>
<path id="Vector_9" d="M83.8871 32.9114C83.7884 32.9646 83.7049 33.0026 83.6214 33.0558C83.3786 33.2002 83.204 33.1926 83.0066 32.9266C82.7789 32.6301 82.4297 32.4857 82.035 32.6073C81.6328 32.7365 81.3899 33.0178 81.3747 33.4435C81.3519 34.0135 81.3443 34.576 81.3747 35.1461C81.405 35.7086 81.8605 36.081 82.3614 36.0202C82.9155 35.9442 83.3102 35.4349 83.2116 34.8877C83.204 34.8269 83.0977 34.7508 83.037 34.7432C82.832 34.7204 82.6271 34.7356 82.3994 34.7356C82.3994 34.5228 82.3994 34.3252 82.3994 34.0971C82.9155 34.0971 83.4393 34.0971 84.0389 34.0971C83.9858 34.6216 83.9858 35.1461 83.8567 35.6402C83.6594 36.4155 82.7713 36.8868 81.9591 36.7119C81.1014 36.5295 80.646 36.043 80.5929 35.1613C80.5549 34.5532 80.5473 33.9299 80.6005 33.3218C80.6915 32.2045 81.6935 31.6876 82.6347 31.8776C83.2192 32.0068 83.6594 32.3033 83.8871 32.9114Z" fill="#08266E"/>
<path id="Vector_10" d="M116.161 36.2786C115.691 36.6435 115.19 36.7043 114.719 36.4078C114.499 36.271 114.324 35.9822 114.241 35.7313C114.074 35.2297 114.112 34.7052 114.203 34.1883C114.385 33.1774 115.546 33.0101 116.123 33.5574C116.245 33.3294 116.328 33.3066 116.89 33.375C116.897 33.4586 116.905 33.5498 116.905 33.641C116.905 34.5988 116.905 35.5565 116.905 36.5143C116.905 37.0843 116.753 37.5936 116.207 37.8369C115.599 38.1029 114.977 38.0801 114.415 37.6772C114.294 37.5936 114.172 37.4796 114.332 37.3504C114.476 37.2288 114.544 36.8943 114.848 37.1071C114.939 37.168 115.038 37.2364 115.136 37.2668C115.865 37.472 116.275 37.0843 116.161 36.2786ZM114.856 34.9332C114.894 35.1157 114.916 35.3133 114.969 35.5109C115.053 35.7846 115.265 35.9214 115.539 35.9138C115.797 35.9062 116.04 35.7846 116.078 35.5185C116.131 35.1385 116.146 34.7432 116.1 34.3707C116.07 34.0743 115.835 33.9451 115.508 33.9527C115.212 33.9527 115.023 34.0895 114.947 34.3935C114.909 34.5532 114.886 34.728 114.856 34.9332Z" fill="#08266E"/>
<path id="Vector_11" d="M189.606 43.0892C189.933 43.2488 190.214 43.4161 190.51 43.5377C190.927 43.6973 191.421 43.5833 191.641 43.3097C191.937 42.9448 191.792 42.4659 191.337 42.3443C190.95 42.2455 190.555 42.1771 190.176 42.0631C189.584 41.8882 189.318 41.4246 189.356 40.7177C189.386 40.14 189.811 39.6155 190.343 39.5167C190.935 39.4027 191.512 39.4331 192.043 39.7295C192.157 39.7903 192.331 39.9348 192.316 39.9956C192.256 40.178 192.134 40.3528 192.013 40.5048C191.99 40.5353 191.83 40.4744 191.747 40.4212C191.405 40.2236 191.049 40.1324 190.654 40.2008C190.328 40.2616 190.153 40.4516 190.138 40.7557C190.123 41.0445 190.267 41.2574 190.586 41.341C190.904 41.4322 191.238 41.4854 191.557 41.5614C192.157 41.6982 192.521 42.1239 192.552 42.7092C192.589 43.4313 192.263 44.0014 191.694 44.1762C190.904 44.4194 190.138 44.3586 189.432 43.8873C189.151 43.6973 189.143 43.6593 189.341 43.3933C189.432 43.2945 189.531 43.188 189.606 43.0892Z" fill="#08266E"/>
<path id="Vector_12" d="M138.182 39.5244C138.44 39.5244 138.653 39.5244 138.888 39.5244C138.888 41.0826 138.888 42.6408 138.888 44.2218C138.676 44.2218 138.456 44.2218 138.22 44.2218C138.205 44.1534 138.198 44.0774 138.182 43.9862C138.16 43.9938 138.129 44.0014 138.114 44.0166C137.401 44.6475 136.338 44.3131 136.194 43.3705C136.11 42.8384 136.118 42.2684 136.201 41.7439C136.353 40.8317 137.385 40.5125 138.091 41.1206C138.114 41.1358 138.137 41.1434 138.19 41.1738C138.182 40.6189 138.182 40.0868 138.182 39.5244ZM138.205 42.5724C138.182 42.39 138.175 42.1999 138.137 42.0175C138.069 41.6907 137.833 41.5006 137.514 41.5082C137.203 41.5082 136.953 41.6831 136.915 42.0099C136.877 42.3824 136.869 42.77 136.915 43.1425C136.953 43.4845 137.188 43.6366 137.514 43.6366C137.856 43.6366 138.069 43.4769 138.137 43.1273C138.175 42.9449 138.182 42.7624 138.205 42.5724Z" fill="#08266E"/>
<path id="Vector_13" d="M185.402 39.5167C185.66 39.5167 185.873 39.5167 186.1 39.5167C186.1 41.0902 186.1 42.6484 186.1 44.2218C185.865 44.2218 185.652 44.2218 185.417 44.2218C185.402 44.1382 185.394 44.0622 185.379 43.9634C184.939 44.3814 184.453 44.3966 183.952 44.1838C183.542 44.009 183.39 43.6137 183.36 43.2109C183.33 42.732 183.315 42.2379 183.398 41.7667C183.565 40.8317 184.575 40.5049 185.296 41.1206C185.318 41.1358 185.341 41.1434 185.394 41.1738C185.402 40.6189 185.402 40.0792 185.402 39.5167ZM185.417 42.5648C185.394 42.3747 185.387 42.1847 185.341 41.9947C185.273 41.683 185.03 41.5082 184.719 41.5158C184.423 41.5158 184.165 41.6906 184.127 41.9947C184.081 42.3747 184.081 42.77 184.127 43.1501C184.165 43.4845 184.4 43.6441 184.734 43.6441C185.076 43.6441 185.28 43.4845 185.356 43.1272C185.387 42.9448 185.394 42.7548 185.417 42.5648Z" fill="#08266E"/>
<path id="Vector_14" d="M162.556 32.919C162.343 33.0255 162.138 33.1319 161.918 33.2383C161.834 33.1243 161.774 33.0103 161.69 32.919C161.478 32.6834 161.22 32.5162 160.886 32.5846C160.536 32.6606 160.263 32.8734 160.203 33.2383C160.142 33.6031 160.127 33.9756 160.111 34.348C160.104 34.5989 160.127 34.8497 160.142 35.1006C160.18 35.6022 160.423 35.9063 160.863 36.0051C161.22 36.0887 161.576 35.8911 161.812 35.4882C161.834 35.4502 161.865 35.4122 161.903 35.3514C162.123 35.4578 162.328 35.5642 162.533 35.6706C162.29 36.522 161.364 36.864 160.681 36.712C159.922 36.5448 159.459 36.0887 159.39 35.3134C159.33 34.6293 159.33 33.9376 159.398 33.2535C159.474 32.4706 160.051 31.9537 160.802 31.8549C161.554 31.7561 162.206 32.1437 162.556 32.919Z" fill="#08266E"/>
<path id="Vector_15" d="M91.455 40.8319C91.4095 40.7558 91.3639 40.6874 91.3184 40.619C91.0603 40.2238 90.7719 40.1097 90.2937 40.2086C90.0052 40.2694 89.7168 40.5962 89.7016 40.9687C89.6789 41.5692 89.6561 42.1773 89.7092 42.7777C89.7699 43.477 90.4607 43.8191 91.0148 43.4618C91.1514 43.3782 91.2501 43.2338 91.3412 43.0894C91.4247 42.9602 91.5006 42.9298 91.6296 43.0058C91.7738 43.0894 91.9256 43.1578 92.1002 43.2414C91.9256 43.7507 91.5916 44.1079 91.0755 44.2371C90.4607 44.3892 89.861 44.3512 89.3752 43.8495C89.1172 43.5759 88.9502 43.2414 88.935 42.8765C88.9046 42.2153 88.8895 41.554 88.935 40.9003C88.9805 40.2086 89.5043 39.6005 90.066 39.5017C90.9768 39.3344 91.622 39.5929 92.0091 40.2694C92.1078 40.4442 92.1154 40.5506 91.8953 40.619C91.7435 40.6722 91.6068 40.7558 91.455 40.8319Z" fill="#08266E"/>
<path id="Vector_16" d="M87.2431 35.6858C87.3721 35.8454 87.6302 36.0279 87.5999 36.1343C87.5543 36.3015 87.3342 36.4459 87.1596 36.5371C86.6814 36.788 86.1804 36.8032 85.6795 36.5979C85.3455 36.4611 85.1178 36.2027 85.0115 35.853C84.8293 35.2677 84.8142 34.6749 85.0115 34.0972C85.2241 33.4663 85.9072 33.109 86.5524 33.2535C87.3797 33.4359 87.9111 34.2644 87.7137 35.0929C87.6985 35.1537 87.5695 35.2145 87.4936 35.2221C86.9699 35.2297 86.4537 35.2297 85.93 35.2297C85.6036 35.2297 85.5808 35.2753 85.6871 35.587C85.8692 36.1115 86.5676 36.1495 86.9926 35.8758C87.0609 35.8378 87.1293 35.777 87.2431 35.6858ZM86.2867 34.6825C86.4461 34.6825 86.6055 34.6749 86.7573 34.6825C86.9395 34.6901 86.985 34.5989 86.9623 34.4392C86.9167 34.1428 86.6814 33.9376 86.3398 33.9072C85.9907 33.8767 85.7402 34.0516 85.6491 34.3708C85.5884 34.576 85.6188 34.6977 85.8692 34.6825C86.0059 34.6749 86.1501 34.6825 86.2867 34.6825Z" fill="#08266E"/>
<path id="Vector_17" d="M95.3113 35.2298C94.6661 35.2298 94.0893 35.2298 93.5124 35.2298C93.186 35.2298 93.1632 35.283 93.2619 35.5871C93.4365 36.1116 94.15 36.1496 94.5675 35.8759C94.6434 35.8227 94.7117 35.7695 94.7952 35.7087C94.8407 35.7391 94.8787 35.7695 94.9166 35.7923C95.3113 36.1116 95.3113 36.2332 94.8711 36.4764C94.3549 36.7653 93.8084 36.8185 93.2619 36.5904C92.9052 36.446 92.6774 36.1572 92.5788 35.7923C92.427 35.2602 92.4118 34.7206 92.5636 34.1885C92.7382 33.5576 93.2695 33.1927 93.9526 33.2155C94.6206 33.2384 95.1064 33.6336 95.2354 34.2873C95.281 34.5989 95.281 34.8954 95.3113 35.2298ZM93.8919 34.6826C94.0513 34.6826 94.2107 34.7054 94.3625 34.675C94.4384 34.6598 94.5447 34.5533 94.5447 34.4849C94.5447 34.1657 94.2487 33.9148 93.8843 33.9072C93.52 33.8996 93.2391 34.1353 93.2088 34.4697C93.1936 34.6066 93.2315 34.6826 93.3833 34.6826C93.5579 34.675 93.7249 34.6826 93.8919 34.6826Z" fill="#08266E"/>
<path id="Vector_18" d="M182.343 42.8004C181.614 42.8004 180.939 42.8004 180.271 42.8004C180.218 43.2261 180.43 43.5301 180.802 43.6138C181.121 43.6822 181.425 43.6366 181.66 43.4161C181.804 43.2793 181.888 43.2945 181.994 43.4389C182.04 43.4997 182.1 43.5453 182.161 43.5834C182.29 43.6746 182.282 43.7734 182.161 43.8494C181.941 43.9938 181.721 44.1838 181.478 44.2446C180.559 44.4575 179.687 44.2218 179.542 43.0893C179.489 42.6636 179.504 42.2076 179.595 41.7971C179.755 41.0826 180.256 40.8089 181.136 40.847C181.668 40.8698 182.153 41.3182 182.26 41.9187C182.313 42.1847 182.313 42.466 182.343 42.8004ZM180.909 42.238C181.068 42.238 181.22 42.2304 181.379 42.238C181.561 42.2456 181.599 42.1619 181.569 41.9947C181.508 41.6983 181.227 41.4626 180.916 41.455C180.62 41.4474 180.332 41.6755 180.263 41.9567C180.218 42.1315 180.248 42.2532 180.468 42.238C180.613 42.2304 180.757 42.238 180.909 42.238Z" fill="#08266E"/>
<path id="Vector_19" d="M176.817 35.7162C176.855 35.7466 176.886 35.7695 176.916 35.7923C177.333 36.1267 177.326 36.2711 176.832 36.522C176.339 36.7728 175.815 36.826 175.299 36.6208C174.973 36.4916 174.745 36.2483 174.631 35.9139C174.426 35.3058 174.411 34.6825 174.624 34.0744C174.813 33.5423 175.307 33.2383 175.914 33.2383C176.521 33.2459 177.015 33.5575 177.182 34.0972C177.273 34.3937 177.273 34.7205 177.311 35.0321C177.333 35.1994 177.235 35.2374 177.09 35.2298C176.567 35.2222 176.051 35.2298 175.527 35.2298C175.208 35.2298 175.178 35.283 175.284 35.5946C175.466 36.1191 176.172 36.1495 176.59 35.8759C176.673 35.8303 176.741 35.7695 176.817 35.7162ZM175.884 34.6825C176.043 34.6825 176.202 34.6749 176.354 34.6825C176.552 34.6901 176.597 34.5989 176.567 34.4241C176.514 34.1276 176.271 33.9224 175.937 33.9072C175.61 33.8844 175.36 34.0516 175.269 34.3328C175.178 34.6141 175.231 34.6749 175.527 34.6825C175.641 34.6825 175.762 34.6825 175.884 34.6825Z" fill="#08266E"/>
<path id="Vector_20" d="M115.312 42.7928C114.659 42.7928 114.074 42.7928 113.49 42.7928C113.201 42.7928 113.164 42.846 113.255 43.1196C113.444 43.6669 114.173 43.8341 114.628 43.4161C114.947 43.1272 114.993 43.5149 115.137 43.5985C115.334 43.7201 115.145 43.8189 115.054 43.9177C114.583 44.4422 113.201 44.4802 112.807 43.8265C112.663 43.5833 112.541 43.3096 112.503 43.036C112.45 42.7092 112.465 42.3671 112.503 42.0403C112.579 41.3714 113.08 40.8697 113.657 40.8469C114.583 40.8089 115.069 41.1281 115.236 41.9338C115.289 42.1999 115.281 42.4811 115.312 42.7928ZM113.877 42.2379C114.036 42.2379 114.196 42.2303 114.348 42.2379C114.522 42.2455 114.575 42.1695 114.545 41.9947C114.484 41.6982 114.196 41.4626 113.885 41.455C113.589 41.4474 113.308 41.6678 113.232 41.9566C113.186 42.1315 113.209 42.2531 113.429 42.2379C113.581 42.2303 113.725 42.2379 113.877 42.2379Z" fill="#08266E"/>
<path id="Vector_21" d="M158.32 42.7929C158.274 43.2338 158.479 43.5302 158.859 43.6062C159.178 43.6746 159.481 43.629 159.716 43.4086C159.868 43.2642 159.929 43.3098 160.05 43.4314C160.369 43.7507 160.377 43.7507 160.035 44.0243C159.534 44.412 158.35 44.4652 157.918 43.8723C157.826 43.7431 157.728 43.6138 157.682 43.4694C157.492 42.8613 157.477 42.238 157.69 41.6299C157.849 41.1739 158.32 40.8774 158.798 40.8394C159.861 40.7558 160.354 41.4855 160.362 42.3292C160.362 42.4661 160.362 42.6105 160.362 42.7929C160.013 42.7929 159.671 42.7929 159.329 42.7929C158.995 42.7929 158.654 42.7929 158.32 42.7929ZM158.942 42.238C159.109 42.238 159.276 42.238 159.443 42.238C159.61 42.238 159.656 42.162 159.625 42.01C159.572 41.7212 159.307 41.4931 159.003 41.4627C158.715 41.4399 158.411 41.6375 158.32 41.9188C158.244 42.162 158.289 42.2304 158.555 42.238C158.684 42.238 158.813 42.238 158.942 42.238Z" fill="#08266E"/>
<path id="Vector_22" d="M196.347 42.7928C195.695 42.7928 195.103 42.7928 194.511 42.7928C194.222 42.7928 194.184 42.846 194.283 43.1197C194.473 43.6593 195.201 43.8342 195.664 43.4161C195.983 43.1273 196.029 43.5149 196.173 43.5985C196.347 43.6973 196.203 43.819 196.105 43.9026C195.558 44.3814 194.92 44.4195 194.283 44.1686C193.721 43.9482 193.539 43.4389 193.516 42.884C193.501 42.5648 193.501 42.2303 193.562 41.9111C193.714 41.151 194.169 40.8241 195.004 40.8317C195.657 40.8393 196.135 41.2422 196.264 41.9339C196.317 42.2075 196.317 42.4812 196.347 42.7928ZM194.89 42.2379C195.05 42.2379 195.209 42.2303 195.361 42.2379C195.566 42.2455 195.596 42.1391 195.558 41.9719C195.49 41.6907 195.201 41.4626 194.913 41.455C194.617 41.4474 194.366 41.6374 194.268 41.9263C194.192 42.1315 194.222 42.2531 194.48 42.2379C194.617 42.2303 194.753 42.2379 194.89 42.2379Z" fill="#08266E"/>
<path id="Vector_23" d="M185.175 34.1504C185.121 34.0668 185.083 34.0136 185.053 33.9604C184.848 33.588 184.894 33.4816 185.304 33.3599C185.759 33.2307 186.207 33.1851 186.677 33.3295C187.095 33.4588 187.323 33.6564 187.353 34.1048C187.391 34.6977 187.376 35.2982 187.383 35.8911C187.383 36.1343 187.383 36.37 187.383 36.6056C186.837 36.6892 186.738 36.6664 186.655 36.4232C186.192 36.788 185.691 36.8412 185.175 36.5904C184.787 36.408 184.62 35.9291 184.727 35.4274C184.818 35.017 185.167 34.7129 185.592 34.6901C185.873 34.6749 186.154 34.6749 186.427 34.6825C186.624 34.6901 186.693 34.6217 186.677 34.4241C186.655 34.1276 186.541 33.9984 186.245 33.9376C185.88 33.8692 185.524 33.9224 185.175 34.1504ZM186.252 35.2298C186.252 35.2222 186.252 35.2222 186.252 35.2146C186.085 35.2374 185.926 35.2602 185.759 35.283C185.531 35.321 185.417 35.4654 185.41 35.6859C185.402 35.9063 185.531 36.0583 185.736 36.0659C185.972 36.0811 186.214 36.0659 186.442 35.9975C186.647 35.9367 186.791 35.5567 186.677 35.3514C186.632 35.2602 186.419 35.2602 186.283 35.2222C186.268 35.2298 186.26 35.2298 186.252 35.2298Z" fill="#08266E"/>
<path id="Vector_24" d="M119.138 42.7929C118.5 42.7929 117.908 42.7929 117.316 42.7929C117.028 42.7929 116.99 42.8537 117.081 43.1197C117.263 43.6594 117.999 43.8342 118.462 43.4162C118.781 43.1273 118.819 43.5226 118.971 43.5986C119.153 43.6974 119.001 43.8114 118.91 43.9026C118.447 44.3511 117.87 44.3815 117.293 44.2523C116.701 44.1231 116.42 43.667 116.337 43.0817C116.268 42.6028 116.268 42.1316 116.42 41.6755C116.58 41.2042 117.05 40.8698 117.529 40.8318C118.561 40.7482 119.054 41.3867 119.115 42.1848C119.123 42.3748 119.13 42.5648 119.138 42.7929ZM117.711 42.238C117.862 42.238 118.007 42.2304 118.151 42.238C118.371 42.2532 118.401 42.1392 118.356 41.9567C118.288 41.6755 117.976 41.4399 117.673 41.4551C117.346 41.4703 117.096 41.7059 117.043 42.0175C117.012 42.1848 117.073 42.238 117.232 42.238C117.392 42.238 117.551 42.238 117.711 42.238Z" fill="#08266E"/>
<path id="Vector_25" d="M130.962 44.2674C130.689 44.161 130.363 44.427 130.234 44.0165C129.793 44.3738 129.308 44.3966 128.799 44.1914C128.419 44.0393 128.252 43.6745 128.29 43.1728C128.321 42.732 128.533 42.4431 128.943 42.3519C129.254 42.2835 129.581 42.2759 129.9 42.2303C130.029 42.2151 130.234 42.3215 130.256 42.0859C130.279 41.8654 130.234 41.6526 129.998 41.5462C129.558 41.3562 129.148 41.455 128.746 41.7286C128.693 41.6374 128.64 41.5538 128.594 41.4702C128.427 41.1813 128.45 41.0825 128.753 40.9761C129.27 40.7861 129.801 40.7709 130.332 40.9229C130.689 41.0293 130.902 41.2953 130.917 41.6526C130.947 42.2683 130.939 42.8764 130.947 43.4921C130.962 43.7353 130.962 43.9633 130.962 44.2674ZM129.543 43.7277C130.074 43.6973 130.317 43.4465 130.264 42.9676C130.256 42.9144 130.226 42.8308 130.188 42.808C129.998 42.694 129.254 42.8308 129.095 42.9904C128.928 43.1652 128.951 43.4693 129.163 43.5909C129.27 43.6669 129.414 43.6897 129.543 43.7277Z" fill="#08266E"/>
<path id="Vector_26" d="M199.983 44.2067C199.467 44.298 199.383 44.2752 199.292 44.0091C198.852 44.3664 198.366 44.3968 197.857 44.1915C197.47 44.0319 197.303 43.6671 197.341 43.1502C197.372 42.7321 197.584 42.4357 197.986 42.3521C198.298 42.2837 198.624 42.2761 198.943 42.2305C199.072 42.2153 199.262 42.3217 199.307 42.0936C199.353 41.8732 199.224 41.6224 199.026 41.5464C198.639 41.3867 198.252 41.4399 197.789 41.7364C197.706 41.592 197.614 41.4551 197.554 41.3031C197.531 41.2499 197.569 41.1359 197.614 41.1055C197.751 41.0143 197.903 40.9231 198.055 40.8927C198.54 40.7938 199.041 40.7558 199.504 40.9611C199.823 41.1055 199.983 41.4095 199.983 41.7516C199.998 42.5421 199.99 43.3326 199.99 44.1231C200.013 44.1611 199.99 44.1839 199.983 44.2067ZM198.882 42.7929C198.874 42.7777 198.874 42.7625 198.867 42.7549C198.662 42.8081 198.442 42.8309 198.267 42.9374C198.153 43.0058 198.04 43.211 198.062 43.3326C198.077 43.4618 198.244 43.6519 198.358 43.6671C198.586 43.6975 198.837 43.6595 199.057 43.5911C199.277 43.5226 199.413 43.1578 199.3 42.9222C199.254 42.8385 199.041 42.8309 198.905 42.7929C198.897 42.7929 198.89 42.7929 198.882 42.7929Z" fill="#08266E"/>
<path id="Vector_27" d="M120.64 36.6512C120.382 36.5828 120.093 36.7728 119.949 36.5068C119.63 36.5828 119.304 36.712 118.97 36.7272C118.59 36.7348 118.234 36.5904 118.067 36.1951C117.9 35.7771 117.885 35.3514 118.218 35.0246C118.385 34.8574 118.659 34.7585 118.894 34.7053C119.16 34.6521 119.448 34.6825 119.729 34.6901C119.904 34.6901 119.957 34.6217 119.949 34.4545C119.934 34.1352 119.812 34.006 119.509 33.9452C119.129 33.8692 118.773 33.93 118.431 34.1505C118.385 34.082 118.34 34.0212 118.302 33.9604C118.097 33.5956 118.135 33.4892 118.53 33.3675C118.978 33.2307 119.433 33.1851 119.904 33.3219C120.374 33.4664 120.609 33.6944 120.617 34.1885C120.655 34.9866 120.64 35.7923 120.64 36.6512ZM119.524 35.2146C119.349 35.2374 119.167 35.2526 118.985 35.2906C118.795 35.3362 118.689 35.4654 118.682 35.6707C118.674 35.8759 118.765 36.0279 118.962 36.0507C119.175 36.0735 119.403 36.0735 119.615 36.0279C119.881 35.9747 120.017 35.6935 119.964 35.3894C119.911 35.1082 119.676 35.2906 119.524 35.2146Z" fill="#08266E"/>
<path id="Vector_28" d="M133.598 36.6815C133.347 36.5447 133.021 36.8411 132.892 36.423C132.497 36.7271 132.072 36.8259 131.594 36.6663C131.108 36.4991 130.873 36.119 130.941 35.5489C130.994 35.0853 131.351 34.728 131.829 34.6976C132.118 34.6824 132.406 34.6824 132.695 34.69C132.877 34.6976 132.945 34.6216 132.93 34.4392C132.907 34.1275 132.793 33.9983 132.475 33.9451C132.103 33.8767 131.753 33.9375 131.404 34.1579C131.321 34.0135 131.222 33.8767 131.177 33.7247C131.154 33.6638 131.222 33.5194 131.283 33.489C131.875 33.2002 132.497 33.1546 133.12 33.3978C133.439 33.5194 133.598 33.8007 133.606 34.1275C133.613 34.9484 133.598 35.777 133.598 36.6815ZM132.482 35.2145C132.315 35.2373 132.141 35.2525 131.974 35.2905C131.761 35.3285 131.655 35.4653 131.64 35.6781C131.624 35.8986 131.746 36.0506 131.951 36.0734C132.156 36.0962 132.376 36.0886 132.573 36.043C132.839 35.9822 132.976 35.7009 132.922 35.4045C132.877 35.1081 132.642 35.2905 132.482 35.2145Z" fill="#08266E"/>
<path id="Vector_29" d="M100.411 41.7211C100.388 41.7059 100.373 41.7059 100.373 41.6983C100.024 41.151 100.031 41.0446 100.661 40.9077C101.071 40.8165 101.527 40.8545 101.952 40.923C102.369 40.9914 102.574 41.3334 102.589 41.7363C102.612 42.5572 102.597 43.3705 102.597 44.2142C102.384 44.2142 102.187 44.2142 101.959 44.2142C101.944 44.161 101.921 44.085 101.899 44.0014C101.436 44.3739 100.942 44.4043 100.426 44.1914C100.062 44.0394 99.8871 43.6517 99.925 43.1653C99.9554 42.7472 100.176 42.4508 100.57 42.3596C100.881 42.2911 101.208 42.2835 101.527 42.2379C101.656 42.2151 101.845 42.1923 101.891 42.1011C101.982 41.9111 101.823 41.6375 101.625 41.5538C101.2 41.3714 100.798 41.4702 100.411 41.7211ZM101.2 43.7202C101.709 43.6898 101.952 43.4465 101.906 42.9905C101.899 42.922 101.838 42.808 101.8 42.808C101.466 42.8004 101.117 42.732 100.806 42.9448C100.547 43.1273 100.555 43.4769 100.836 43.6213C100.942 43.6822 101.079 43.6898 101.2 43.7202Z" fill="#08266E"/>
<path id="Vector_30" d="M101.754 36.6664C101.519 36.5448 101.2 36.8184 101.056 36.4308C100.669 36.7272 100.244 36.826 99.7657 36.6588C99.2875 36.4916 99.0446 36.1039 99.1129 35.5719C99.1736 35.0702 99.5152 34.7281 100.001 34.6901C100.282 34.6749 100.563 34.6673 100.836 34.6825C101.056 34.6901 101.117 34.5989 101.094 34.4013C101.064 34.1352 100.95 33.9832 100.669 33.9376C100.289 33.8768 99.9327 33.9224 99.5683 34.1504C99.4848 33.9984 99.3862 33.8616 99.3406 33.7096C99.3254 33.6488 99.3938 33.512 99.4545 33.4815C100.039 33.1927 100.654 33.1547 101.261 33.3827C101.542 33.4892 101.732 33.7172 101.739 34.0212C101.77 34.8802 101.754 35.7467 101.754 36.6664ZM100.768 35.1994C100.502 35.2374 100.312 35.2526 100.138 35.2906C99.9403 35.3286 99.834 35.4654 99.8188 35.6631C99.8036 35.8607 99.8871 36.0279 100.092 36.0507C100.312 36.0735 100.548 36.0735 100.768 36.0279C101.026 35.9747 101.185 35.6631 101.086 35.3818C101.048 35.283 100.844 35.245 100.768 35.1994Z" fill="#08266E"/>
<path id="Vector_31" d="M195.543 35.0017C195.498 35.2754 195.475 35.5566 195.399 35.8226C195.194 36.5752 194.427 36.8184 193.866 36.7196C193.167 36.6056 192.78 36.2331 192.719 35.5262C192.674 35.0701 192.681 34.5913 192.795 34.1504C192.962 33.4739 193.699 33.1091 194.382 33.2763C195.11 33.4587 195.437 33.8464 195.505 34.6369C195.513 34.7585 195.505 34.8801 195.505 35.0017C195.513 35.0017 195.528 35.0017 195.543 35.0017ZM193.41 34.9713C193.425 35.1462 193.425 35.321 193.456 35.4958C193.532 35.8759 193.737 36.0431 194.108 36.0355C194.45 36.0355 194.678 35.8531 194.716 35.4806C194.754 35.1538 194.754 34.8117 194.716 34.4849C194.678 34.1276 194.45 33.9528 194.124 33.9452C193.744 33.9376 193.539 34.0896 193.456 34.4697C193.425 34.6369 193.425 34.8041 193.41 34.9713Z" fill="#08266E"/>
<path id="Vector_32" d="M92.974 42.5725C92.9892 42.048 93.0271 41.5235 93.4674 41.1435C94.1353 40.5734 95.532 40.7406 95.7521 41.896C95.8508 42.4053 95.8508 42.9145 95.7066 43.4162C95.5547 43.9331 95.069 44.2675 94.5528 44.3055C93.4294 44.3815 92.9436 43.6518 92.974 42.5725ZM95.0917 42.5877C95.0614 42.3749 95.0538 42.162 95.0006 41.9568C94.9247 41.6679 94.6894 41.5083 94.401 41.5083C94.1126 41.5083 93.8393 41.6603 93.8014 41.9492C93.7482 42.3597 93.7482 42.7853 93.7938 43.1882C93.8317 43.5074 94.0898 43.6442 94.4086 43.6366C94.7122 43.629 94.9096 43.4846 94.9931 43.173C95.0538 42.9905 95.0614 42.7929 95.0917 42.5877Z" fill="#08266E"/>
<path id="Vector_33" d="M83.356 42.5875C83.318 43.1044 83.2649 43.5909 82.8626 43.9785C82.3237 44.503 80.9271 44.4878 80.6007 43.454C80.4261 42.8992 80.4185 42.3367 80.5855 41.7742C80.7601 41.1661 81.2155 40.8469 81.8759 40.8469C82.5894 40.8469 83.0448 41.1509 83.2194 41.7742C83.2953 42.0326 83.318 42.3139 83.356 42.5875ZM82.6121 42.5419C82.6045 42.5419 82.597 42.5419 82.5894 42.5343C82.5742 42.3671 82.5742 42.1999 82.5362 42.0326C82.4755 41.7286 82.2478 41.531 81.9669 41.5082C81.6861 41.4854 81.4128 41.6222 81.3293 41.8958C81.1851 42.3519 81.1851 42.8155 81.3369 43.264C81.428 43.5301 81.6481 43.6289 81.9062 43.6289C82.1719 43.6289 82.392 43.5301 82.4755 43.2716C82.5438 43.036 82.5666 42.7851 82.6121 42.5419Z" fill="#08266E"/>
<path id="Vector_34" d="M141.787 35.0093C141.765 35.2298 141.757 35.4578 141.711 35.6706C141.537 36.484 140.869 36.7956 140.178 36.7196C139.472 36.6436 139.047 36.2179 138.986 35.5034C138.949 35.0625 138.964 34.6065 139.047 34.1808C139.207 33.3827 140.11 33.1395 140.634 33.2611C141.347 33.4283 141.689 33.816 141.757 34.5533C141.772 34.6977 141.757 34.8497 141.757 35.0017C141.772 35.0093 141.78 35.0093 141.787 35.0093ZM139.67 35.0321C139.692 35.1842 139.7 35.3742 139.738 35.549C139.821 35.8987 140.011 36.0431 140.376 36.0355C140.702 36.0355 140.93 35.8683 140.975 35.5338C141.013 35.1994 141.021 34.8497 140.99 34.5077C140.952 34.12 140.732 33.9452 140.398 33.9376C140.004 33.93 139.806 34.0896 139.73 34.4925C139.692 34.6597 139.692 34.8269 139.67 35.0321Z" fill="#08266E"/>
<path id="Vector_35" d="M153.591 35.0169C153.546 35.2905 153.515 35.5717 153.447 35.8378C153.234 36.6131 152.377 36.8335 151.853 36.7119C151.162 36.5447 150.821 36.2026 150.767 35.4881C150.729 35.0549 150.745 34.5912 150.836 34.1655C151.003 33.3978 151.86 33.1622 152.384 33.2686C153.098 33.413 153.454 33.8083 153.538 34.538C153.553 34.6976 153.538 34.8572 153.538 35.0093C153.561 35.0093 153.576 35.0169 153.591 35.0169ZM151.458 35.0093C151.473 35.1689 151.473 35.3437 151.511 35.5185C151.595 35.8986 151.792 36.043 152.179 36.0354C152.506 36.0278 152.726 35.853 152.764 35.4881C152.802 35.1689 152.802 34.842 152.771 34.5228C152.733 34.1351 152.521 33.9527 152.179 33.9451C151.792 33.9375 151.58 34.0971 151.504 34.4924C151.473 34.652 151.473 34.8268 151.458 35.0093Z" fill="#08266E"/>
<path id="Vector_36" d="M166.213 35.0169C166.183 35.2601 166.167 35.5185 166.107 35.7542C165.902 36.5371 165.196 36.8107 164.566 36.7195C163.852 36.6207 163.458 36.2026 163.397 35.4805C163.359 35.0701 163.374 34.6444 163.45 34.2416C163.579 33.5803 164.08 33.2686 164.778 33.2458C165.454 33.223 165.97 33.6183 166.122 34.2644C166.175 34.5076 166.183 34.7584 166.213 35.0169ZM164.088 35.0169C164.11 35.1841 164.118 35.3817 164.164 35.5641C164.239 35.891 164.437 36.0354 164.786 36.0354C165.112 36.0354 165.355 35.8758 165.393 35.5489C165.439 35.1993 165.439 34.842 165.408 34.5C165.37 34.1199 165.15 33.9451 164.801 33.9451C164.422 33.9451 164.232 34.0971 164.148 34.4848C164.11 34.652 164.11 34.8192 164.088 35.0169Z" fill="#08266E"/>
<path id="Vector_37" d="M145.498 36.6206C145.278 36.6206 145.058 36.6206 144.8 36.6206C144.8 36.195 144.8 35.7769 144.8 35.3664C144.8 35.0928 144.808 34.8268 144.785 34.5531C144.762 34.1655 144.557 33.9526 144.231 33.945C143.844 33.9298 143.608 34.1047 143.57 34.4999C143.533 34.9332 143.548 35.374 143.54 35.8149C143.54 36.0734 143.54 36.3318 143.54 36.613C143.305 36.613 143.085 36.613 142.842 36.613C142.842 35.5337 142.842 34.4543 142.842 33.3522C143.062 33.3522 143.267 33.3522 143.502 33.3522C143.517 33.413 143.54 33.4814 143.57 33.565C143.935 33.2837 144.307 33.1545 144.747 33.2989C145.164 33.4358 145.453 33.717 145.476 34.1275C145.536 34.956 145.498 35.7845 145.498 36.6206Z" fill="#08266E"/>
<path id="Vector_38" d="M143.845 44.199C143.807 44.2142 143.799 44.2218 143.792 44.2218C143.086 44.3054 143.086 44.3054 143.086 43.5985C143.086 42.5799 143.078 41.569 143.093 40.5504C143.093 40.2996 143.033 40.1932 142.76 40.216C142.448 40.2388 142.13 40.2236 141.78 40.2236C141.78 40.0183 141.765 39.8435 141.788 39.6687C141.796 39.6079 141.894 39.5091 141.947 39.5091C142.995 39.5015 144.05 39.5015 145.128 39.5015C145.128 39.7371 145.128 39.9499 145.128 40.216C144.976 40.216 144.817 40.216 144.65 40.216C143.853 40.216 143.853 40.216 143.853 41.0217C143.853 41.9718 143.853 42.922 143.853 43.8721C143.86 43.9937 143.853 44.1077 143.845 44.199Z" fill="#08266E"/>
<path id="Vector_39" d="M134.234 44.2143C134.234 43.6442 134.234 43.0893 134.234 42.5269C134.234 42.3748 134.242 42.2304 134.219 42.0784C134.173 41.7287 133.938 41.5083 133.619 41.5007C133.308 41.5007 133.05 41.7211 133.005 42.0632C132.974 42.2836 132.989 42.5117 132.989 42.7321C132.989 43.2186 132.989 43.6974 132.989 44.2067C132.754 44.2067 132.534 44.2067 132.291 44.2067C132.291 43.1121 132.291 42.0252 132.291 40.9306C132.762 40.809 132.951 40.8546 132.997 41.0522C133.285 40.9762 133.574 40.8774 133.87 40.8394C134.447 40.7558 134.932 41.3107 134.948 41.8124C134.97 42.6029 134.955 43.3934 134.955 44.2067C134.72 44.2143 134.5 44.2143 134.234 44.2143Z" fill="#08266E"/>
<path id="Vector_40" d="M169.196 36.6208C169.196 36.0355 169.196 35.473 169.196 34.9029C169.196 34.7433 169.189 34.5837 169.158 34.4316C169.09 34.0896 168.9 33.9452 168.559 33.9452C168.24 33.9452 168.004 34.1352 167.974 34.462C167.936 34.8953 167.944 35.3362 167.936 35.777C167.929 36.0507 167.936 36.3319 167.936 36.6208C167.686 36.6208 167.466 36.6208 167.223 36.6208C167.223 35.5414 167.223 34.462 167.223 33.3903C167.648 33.2687 167.883 33.3219 167.974 33.5651C168.331 33.2991 168.71 33.1622 169.158 33.3143C169.652 33.4815 169.879 33.8463 169.902 34.3176C169.932 35.0777 169.91 35.8454 169.91 36.6284C169.682 36.6208 169.462 36.6208 169.196 36.6208Z" fill="#08266E"/>
<path id="Vector_41" d="M169.97 41.1814C170.418 40.7785 170.874 40.7329 171.329 40.9534C171.784 41.1662 171.936 41.5767 171.929 42.0555C171.929 42.77 171.929 43.4845 171.929 44.2218C171.686 44.2218 171.466 44.2218 171.208 44.2218C171.208 44.0546 171.208 43.8874 171.208 43.7278C171.208 43.2185 171.215 42.7016 171.2 42.1924C171.185 41.7667 170.942 41.5159 170.585 41.5159C170.228 41.5159 169.978 41.7819 169.963 42.2C169.948 42.77 169.955 43.3325 169.955 43.9026C169.955 44.0014 169.955 44.1002 169.955 44.2295C169.712 44.2295 169.492 44.2295 169.249 44.2295C169.242 44.1154 169.234 44.009 169.234 43.9026C169.234 43.0437 169.234 42.1924 169.234 41.3334C169.234 40.8546 169.181 40.923 169.674 40.9078C169.872 40.885 169.993 40.9154 169.97 41.1814Z" fill="#08266E"/>
<path id="Vector_42" d="M88.7754 33.3598C89.3902 33.299 89.4434 33.3142 89.5344 33.5575C89.8684 33.3066 90.2176 33.1698 90.6426 33.2838C91.1664 33.4206 91.4396 33.7855 91.4624 34.2872C91.5004 35.0549 91.47 35.8302 91.47 36.6207C91.2347 36.6207 91.0146 36.6207 90.7565 36.6207C90.7565 36.4687 90.7565 36.3243 90.7565 36.1798C90.7489 35.6098 90.7565 35.0397 90.7185 34.4772C90.6958 34.1123 90.4757 33.9451 90.1265 33.9451C89.7849 33.9451 89.5572 34.1199 89.5268 34.4696C89.4889 34.8952 89.4965 35.3285 89.4889 35.7542C89.4813 36.0354 89.4889 36.3091 89.4889 36.6131C89.246 36.6131 89.0183 36.6131 88.7754 36.6131C88.7754 35.5261 88.7754 34.4544 88.7754 33.3598Z" fill="#08266E"/>
<path id="Vector_43" d="M147.64 43.9634C147.276 44.3283 146.851 44.3891 146.426 44.2523C145.91 44.085 145.712 43.6518 145.705 43.1425C145.69 42.4736 145.705 41.7971 145.697 41.1282C145.697 40.961 145.75 40.8774 145.917 40.9002C145.955 40.9078 145.993 40.9002 146.031 40.9002C146.426 40.9002 146.426 40.9002 146.426 41.2878C146.426 41.8579 146.426 42.428 146.441 42.9905C146.449 43.2489 146.525 43.4921 146.813 43.5834C147.261 43.7278 147.625 43.4769 147.64 42.9753C147.656 42.3976 147.648 41.8199 147.648 41.2422C147.648 41.1434 147.648 41.0446 147.648 40.9002C147.861 40.9002 148.043 40.885 148.225 40.9078C148.278 40.9154 148.369 41.0218 148.369 41.0826C148.377 42.0707 148.377 43.0589 148.377 44.047C148.377 44.1914 148.324 44.2523 148.179 44.2447C148.096 44.2371 148.012 44.2371 147.929 44.2447C147.731 44.2751 147.618 44.2142 147.64 43.9634Z" fill="#08266E"/>
<path id="Vector_44" d="M199.262 36.6284C199.004 36.6284 198.791 36.6284 198.541 36.6284C198.541 36.294 198.541 35.9595 198.541 35.6251C198.541 35.2906 198.548 34.9562 198.533 34.6217C198.518 34.1657 198.313 33.9452 197.926 33.9452C197.539 33.9452 197.303 34.1809 197.296 34.6293C197.281 35.2222 197.288 35.8227 197.288 36.4156C197.288 36.4764 197.281 36.5448 197.281 36.6208C197.045 36.6208 196.825 36.6208 196.59 36.6208C196.59 35.5339 196.59 34.4545 196.59 33.3599C196.81 33.3599 197.03 33.3599 197.273 33.3599C197.281 33.4132 197.296 33.4816 197.311 33.5576C197.349 33.5424 197.379 33.5424 197.394 33.5196C197.789 33.1927 198.222 33.1471 198.67 33.3599C199.087 33.5576 199.254 33.9376 199.262 34.3861C199.269 35.131 199.262 35.8607 199.262 36.6284Z" fill="#08266E"/>
<path id="Vector_45" d="M122.53 36.6208C122.28 36.6208 122.067 36.6208 121.824 36.6208C121.824 35.5338 121.824 34.4621 121.824 33.3827C122.249 33.2611 122.485 33.3143 122.568 33.5575C122.917 33.2915 123.289 33.1547 123.729 33.2991C124.192 33.4435 124.458 33.778 124.481 34.234C124.519 35.0246 124.488 35.8151 124.488 36.6208C124.253 36.6208 124.041 36.6208 123.775 36.6208C123.775 36.446 123.775 36.2787 123.775 36.1039C123.775 35.6098 123.783 35.1158 123.767 34.6217C123.752 34.1732 123.54 33.9452 123.16 33.9452C122.765 33.9452 122.545 34.1732 122.53 34.6293C122.515 35.1842 122.523 35.7467 122.523 36.3015C122.53 36.408 122.53 36.5068 122.53 36.6208Z" fill="#08266E"/>
<path id="Vector_46" d="M171.329 35.6477C171.769 35.967 172.164 36.1418 172.642 36.043C172.839 35.9974 172.976 35.9062 172.991 35.701C173.006 35.4957 172.87 35.3969 172.688 35.3665C172.369 35.3057 172.042 35.2905 171.731 35.1993C171.314 35.0777 171.116 34.766 171.109 34.3175C171.109 33.8615 171.321 33.489 171.693 33.3598C172.278 33.147 172.839 33.223 173.378 33.5194C173.568 33.6182 173.591 33.7247 173.462 33.8919C173.318 34.0971 173.204 34.2035 172.908 34.0515C172.672 33.9299 172.361 33.9375 172.08 33.9527C171.982 33.9603 171.822 34.1655 171.83 34.2643C171.838 34.3784 171.997 34.5228 172.126 34.5608C172.354 34.6368 172.604 34.6368 172.839 34.6748C173.34 34.7508 173.621 35.0092 173.674 35.4577C173.735 35.9898 173.492 36.4459 173.037 36.6055C172.384 36.8335 171.754 36.7575 171.17 36.3851C170.912 36.2254 170.919 36.157 171.109 35.9366C171.2 35.853 171.261 35.7466 171.329 35.6477Z" fill="#08266E"/>
<path id="Vector_47" d="M122.674 43.7353C122.719 43.6821 122.757 43.6365 122.788 43.5909C122.962 43.3477 123.114 43.2413 123.425 43.4617C123.714 43.6745 124.093 43.7885 124.45 43.5909C124.564 43.5301 124.7 43.3553 124.685 43.2489C124.678 43.1425 124.511 42.998 124.389 42.96C124.116 42.8764 123.828 42.8612 123.547 42.7928C123.106 42.694 122.879 42.4356 122.848 42.0175C122.81 41.5006 123.015 41.0978 123.418 40.9457C124.025 40.7253 124.617 40.7709 125.171 41.1358C125.293 41.2194 125.323 41.303 125.224 41.4322C124.989 41.7515 125.004 41.721 124.647 41.5918C124.389 41.5006 124.093 41.493 123.812 41.5082C123.721 41.5158 123.585 41.7058 123.577 41.8199C123.57 41.9111 123.706 42.0479 123.805 42.1087C123.896 42.1695 124.033 42.1543 124.154 42.1771C124.374 42.2151 124.594 42.2455 124.807 42.3063C125.171 42.4127 125.384 42.656 125.414 43.0512C125.452 43.4921 125.33 43.857 124.943 44.1078C124.404 44.4498 123.122 44.389 122.674 43.7353Z" fill="#08266E"/>
<path id="Vector_48" d="M161.379 43.7278C161.485 43.6062 161.576 43.4618 161.705 43.3706C161.758 43.3326 161.903 43.3554 161.979 43.401C162.35 43.6062 162.722 43.781 163.163 43.5986C163.33 43.5302 163.451 43.401 163.39 43.2413C163.345 43.1197 163.201 42.9981 163.079 42.9601C162.814 42.8765 162.533 42.8613 162.259 42.8005C161.819 42.7017 161.591 42.4584 161.546 42.0632C161.493 41.5615 161.675 41.1434 162.039 40.9686C162.533 40.733 163.55 40.7558 163.998 41.2955C163.914 41.4171 163.838 41.5615 163.724 41.6603C163.671 41.7059 163.535 41.6907 163.444 41.6679C163.208 41.6071 162.973 41.4931 162.738 41.4703C162.457 41.4399 162.259 41.5995 162.252 41.8123C162.237 42.0252 162.411 42.1544 162.715 42.1924C162.973 42.2228 163.231 42.2532 163.481 42.314C163.861 42.4128 164.081 42.6713 164.111 43.0665C164.149 43.4998 164.028 43.8494 163.648 44.1003C163.125 44.4575 161.796 44.3815 161.379 43.7278Z" fill="#08266E"/>
<path id="Vector_49" d="M130.014 33.3599C130.067 33.74 130.021 34.044 129.748 34.3329C129.33 34.7661 128.974 35.2602 128.594 35.7239C128.541 35.7923 128.488 35.8683 128.397 35.9899C128.708 35.9899 128.966 35.9899 129.217 35.9899C129.475 35.9899 129.733 35.9899 130.006 35.9899C130.006 36.2103 130.006 36.4004 130.006 36.6132C129.186 36.6132 128.359 36.6132 127.532 36.6132C127.486 36.2788 127.494 36.0051 127.736 35.7315C128.184 35.2374 128.587 34.7053 129.004 34.1808C129.042 34.1352 129.072 34.082 129.148 33.9832C128.602 33.9832 128.101 33.9832 127.592 33.9832C127.592 33.7552 127.592 33.5652 127.592 33.3599C128.404 33.3599 129.201 33.3599 130.014 33.3599Z" fill="#08266E"/>
<path id="Vector_50" d="M121.802 39.5471C121.802 39.7675 121.802 39.9652 121.802 40.1552C121.59 40.2084 121.377 40.2312 121.21 40.33C121.134 40.3756 121.111 40.596 121.142 40.7177C121.225 41.1281 121.59 40.7557 121.787 40.9989C121.787 41.0901 121.787 41.2573 121.787 41.4626C121.681 41.4702 121.559 41.4854 121.445 41.4778C121.202 41.455 121.119 41.5386 121.126 41.7894C121.142 42.4887 121.134 43.188 121.134 43.8873C121.134 43.9861 121.134 44.085 121.134 44.2142C120.891 44.2142 120.671 44.2142 120.421 44.2142C120.413 44.123 120.405 44.0241 120.405 43.9253C120.405 43.2184 120.405 42.5115 120.405 41.797C120.405 41.5994 120.405 41.417 120.109 41.4854C120.109 41.2801 120.109 41.1129 120.109 40.9229C120.367 40.9457 120.405 40.8013 120.405 40.5808C120.421 39.7599 120.922 39.3951 121.802 39.5471Z" fill="#08266E"/>
<path id="Vector_51" d="M148.618 33.968C148.489 33.9452 148.406 33.93 148.314 33.9072C148.314 33.7323 148.314 33.5575 148.314 33.3827C148.337 33.3979 148.368 33.4131 148.39 33.4283C148.459 33.3219 148.588 33.2231 148.595 33.109C148.656 32.1589 149.013 31.8549 150 31.9689C150 32.1665 150 32.3641 150 32.5922C149.886 32.5998 149.764 32.577 149.673 32.6226C149.552 32.691 149.385 32.7898 149.362 32.9038C149.263 33.2839 149.324 33.3447 149.711 33.3447C149.802 33.3447 149.893 33.3447 150.007 33.3447C150.007 33.5347 150.007 33.7095 150.007 33.9148C149.908 33.9224 149.81 33.93 149.711 33.93C149.339 33.9376 149.339 33.93 149.339 34.31C149.339 34.9713 149.339 35.6326 149.339 36.2939C149.339 36.3927 149.339 36.4991 149.339 36.6132C149.096 36.6132 148.876 36.6132 148.618 36.6132C148.618 35.7466 148.618 34.8649 148.618 33.968Z" fill="#08266E"/>
<path id="Vector_52" d="M184.028 33.3675C183.907 33.7323 183.785 34.082 183.664 34.4316C183.429 35.1081 183.178 35.777 182.95 36.4535C182.882 36.6588 182.753 36.6436 182.609 36.6284C182.442 36.6132 182.244 36.7272 182.153 36.4535C181.804 35.4274 181.432 34.4012 181.053 33.3447C181.288 33.3447 181.501 33.3295 181.706 33.3523C181.774 33.3599 181.865 33.4663 181.888 33.5423C182.093 34.1428 182.29 34.7433 182.487 35.3438C182.503 35.397 182.525 35.4426 182.578 35.549C182.768 34.9637 182.943 34.4468 183.102 33.9148C183.292 33.3143 183.284 33.3143 183.907 33.3447C183.937 33.3523 183.967 33.3599 184.028 33.3675Z" fill="#08266E"/>
<path id="Vector_53" d="M85.9969 41.0219C85.9969 41.1131 85.9969 41.2803 85.9969 41.4932C85.8527 41.4932 85.7161 41.5008 85.587 41.4932C85.3897 41.478 85.329 41.5616 85.329 41.7516C85.3365 42.5041 85.329 43.2566 85.329 44.0167C85.329 44.0775 85.3214 44.1459 85.3138 44.2296C85.0861 44.2296 84.8735 44.2296 84.6079 44.2296C84.6079 44.0927 84.6079 43.9559 84.6079 43.8191C84.6079 43.1654 84.6079 42.5193 84.6079 41.8656C84.6079 41.6452 84.623 41.4323 84.2891 41.4856C84.2891 41.2879 84.2891 41.1283 84.2891 40.9459C84.4561 40.9155 84.6306 40.9003 84.6079 40.6418C84.5395 39.8057 85.1316 39.4029 85.9817 39.5549C85.9817 39.7601 85.9817 39.9729 85.9817 40.163C85.7844 40.2086 85.5719 40.2314 85.4049 40.3302C85.329 40.3758 85.3214 40.5734 85.3365 40.695C85.3973 41.1435 85.7844 40.7482 85.9969 41.0219Z" fill="#08266E"/>
<path id="Vector_54" d="M134.577 33.3523C134.858 33.3979 134.873 33.2382 134.866 33.033C134.858 32.7974 134.866 32.5541 134.866 32.3413C134.919 32.3185 134.927 32.3109 134.934 32.3109C135.594 32.2349 135.594 32.2349 135.594 32.8886C135.594 32.919 135.594 32.9418 135.594 32.9722C135.557 33.2458 135.632 33.4055 135.951 33.3523C135.997 33.3447 136.042 33.3599 136.103 33.3599C136.103 33.5423 136.103 33.7171 136.103 33.9147C135.951 33.9299 135.799 33.9375 135.594 33.9527C135.594 34.1732 135.594 34.3936 135.594 34.614C135.594 34.8953 135.594 35.1765 135.594 35.4502C135.594 35.967 135.594 35.967 136.118 36.0582C136.118 36.1723 136.118 36.2939 136.118 36.4079C136.118 36.4915 136.111 36.5675 136.103 36.7043C135.83 36.6815 135.572 36.6815 135.321 36.6207C135.056 36.5523 134.911 36.3243 134.896 36.0582C134.873 35.5566 134.873 35.0549 134.866 34.5532C134.866 34.3708 134.866 34.1808 134.866 34.0059C134.517 33.8615 134.517 33.8615 134.577 33.3523Z" fill="#08266E"/>
<path id="Vector_55" d="M189.843 36.0582C189.843 36.2558 189.843 36.4535 189.843 36.7119C189.554 36.6815 189.281 36.6967 189.038 36.6131C188.689 36.4991 188.613 36.1722 188.605 35.8378C188.598 35.3133 188.605 34.7964 188.605 34.272C188.605 34.1731 188.605 34.0667 188.605 33.9755C188.234 33.8767 188.234 33.8767 188.309 33.3598C188.575 33.3902 188.643 33.2458 188.605 33.0102C188.598 32.9646 188.605 32.919 188.605 32.8734C188.605 32.2273 188.605 32.2273 189.327 32.3185C189.327 32.5313 189.327 32.7517 189.327 32.9646C189.327 33.337 189.327 33.337 189.683 33.3446C189.729 33.3446 189.774 33.3522 189.843 33.3522C189.843 33.5346 189.843 33.7095 189.843 33.8843C189.82 33.8995 189.805 33.9147 189.79 33.9147C189.327 33.9755 189.327 33.9755 189.327 34.4468C189.327 34.7736 189.327 35.1005 189.327 35.4273C189.319 35.9594 189.327 35.967 189.843 36.0582Z" fill="#08266E"/>
<path id="Vector_56" d="M154.213 44.2903C154.053 44.2903 153.924 44.2979 153.795 44.2903C153.287 44.2675 153.006 43.9938 152.991 43.4845C152.975 42.9449 152.983 42.4052 152.983 41.8655C152.983 41.6451 153.006 41.4246 152.672 41.4854C152.672 41.2878 152.672 41.1282 152.672 40.9382C152.96 40.9458 153.013 40.7709 152.991 40.5277C152.975 40.3377 152.991 40.14 152.991 39.9196C153.234 39.9196 153.461 39.9196 153.712 39.9196C153.712 40.1476 153.727 40.3681 153.712 40.5885C153.697 40.8241 153.757 40.9458 154.015 40.9154C154.076 40.9078 154.144 40.923 154.22 40.9306C154.22 41.113 154.22 41.2878 154.22 41.455C153.712 41.5615 153.712 41.5615 153.712 42.0935C153.712 42.4204 153.712 42.7472 153.712 43.0741C153.712 43.5758 153.712 43.5757 154.213 43.6214C154.213 43.819 154.213 44.0394 154.213 44.2903Z" fill="#08266E"/>
<path id="Vector_57" d="M155.449 39.5244C155.684 39.5244 155.897 39.5244 156.132 39.5244C156.14 39.6308 156.147 39.7296 156.147 39.8284C156.147 40.9154 156.147 42.0099 156.147 43.0969C156.147 43.5453 156.163 43.5605 156.641 43.6214C156.641 43.7962 156.648 43.9786 156.633 44.161C156.626 44.2066 156.55 44.2902 156.497 44.2902C155.821 44.3283 155.434 44.1382 155.419 43.4541C155.396 42.1847 155.411 40.923 155.411 39.6536C155.419 39.6156 155.434 39.5776 155.449 39.5244Z" fill="#08266E"/>
<path id="Vector_58" d="M105.119 43.6137C105.119 43.7885 105.119 43.9406 105.119 44.1002C105.119 44.1534 105.104 44.2066 105.104 44.2522C104.269 44.3966 103.904 44.0926 103.904 43.2717C103.904 42.1163 103.904 40.9609 103.904 39.8056C103.904 39.7144 103.904 39.6231 103.904 39.5167C104.147 39.5167 104.367 39.5167 104.625 39.5167C104.625 39.6307 104.625 39.7448 104.625 39.8512C104.625 40.9229 104.625 41.9947 104.625 43.0664C104.618 43.5377 104.641 43.5605 105.119 43.6137Z" fill="#08266E"/>
<path id="Vector_59" d="M104.184 36.0583C104.191 36.0659 104.199 36.0735 104.199 36.0811C104.161 36.2788 104.351 36.56 104.093 36.674C103.774 36.8108 103.227 36.6056 103.106 36.3396C103.045 36.2028 103 36.0355 103 35.8835C102.992 34.6217 102.992 33.3675 102.992 32.1058C102.992 32.0602 103 32.0145 103.007 31.9537C103.235 31.9537 103.455 31.9537 103.706 31.9537C103.706 32.0602 103.706 32.159 103.706 32.2654C103.706 33.3295 103.706 34.3937 103.706 35.4502C103.706 35.9671 103.706 35.9671 104.184 36.0583Z" fill="#08266E"/>
<path id="Vector_60" d="M179.042 33.3599C179.057 33.4359 179.065 33.512 179.088 33.6032C179.133 33.5728 179.164 33.5652 179.194 33.5424C179.543 33.2231 179.961 33.1623 180.371 33.3599C180.614 33.4815 180.621 33.55 180.477 33.778C180.333 33.9984 180.211 34.12 179.9 33.9756C179.475 33.7856 179.118 34.0668 179.088 34.5609C179.057 35.1006 179.073 35.6403 179.065 36.1799C179.065 36.3168 179.065 36.4536 179.065 36.6132C178.815 36.6132 178.587 36.6132 178.352 36.6132C178.352 35.5262 178.352 34.4545 178.352 33.3523C178.572 33.3599 178.792 33.3599 179.042 33.3599Z" fill="#08266E"/>
<path id="Vector_61" d="M97.0338 36.6208C96.7681 36.6208 96.5556 36.6208 96.3203 36.6208C96.3203 35.5262 96.3203 34.4545 96.3203 33.3599C96.5556 33.3599 96.7681 33.3599 97.0035 33.3599C97.0262 33.4359 97.0414 33.512 97.0718 33.6032C97.4513 33.2611 97.846 33.1243 98.309 33.3523C98.4229 33.4131 98.6278 33.4435 98.5367 33.6564C98.4001 33.9756 98.2027 34.1048 97.9902 34.0136C97.4816 33.8008 97.1021 34.006 97.0642 34.5533C97.0262 35.093 97.0414 35.6327 97.0338 36.1723C97.0338 36.3168 97.0338 36.4536 97.0338 36.6208Z" fill="#08266E"/>
<path id="Vector_62" d="M112.063 36.6284C111.805 36.6284 111.593 36.6284 111.357 36.6284C111.357 35.5414 111.357 34.462 111.357 33.3599C111.585 33.3599 111.805 33.3599 112.033 33.3599C112.056 33.4359 112.071 33.5119 112.101 33.6107C112.481 33.2687 112.876 33.1318 113.339 33.3523C113.452 33.4131 113.657 33.4511 113.566 33.6563C113.422 33.9832 113.232 34.1048 113.02 34.0136C112.519 33.8007 112.139 34.006 112.101 34.5609C112.063 35.1081 112.079 35.663 112.071 36.2103C112.056 36.3395 112.063 36.4687 112.063 36.6284Z" fill="#08266E"/>
<path id="Vector_63" d="M97.0332 44.2144C97.0332 43.1198 97.0332 42.0252 97.0332 40.9155C97.2685 40.9155 97.4886 40.9155 97.7163 40.9155C97.7315 41.0067 97.7391 41.0827 97.7543 41.2119C97.8454 41.1207 97.9137 41.0447 97.9972 40.9839C98.2553 40.7939 98.8397 40.7863 99.1054 40.9687C99.2496 41.0675 99.3027 41.1815 99.1661 41.3335C99.0674 41.44 98.9764 41.5616 98.8929 41.668C98.111 41.3259 97.7467 41.5616 97.7391 42.3977C97.7315 42.9754 97.7391 43.5531 97.7315 44.1307C97.7315 44.1459 97.7239 44.1688 97.7163 44.2144C97.4962 44.2144 97.2761 44.2144 97.0332 44.2144Z" fill="#08266E"/>
<path id="Vector_64" d="M149.773 40.9078C150.024 40.9078 150.229 40.9078 150.457 40.9078C150.472 41.0066 150.479 41.0902 150.502 41.227C150.76 40.9002 151.071 40.7937 151.428 40.847C151.572 40.8698 151.717 40.9078 151.846 40.9762C151.997 41.0598 152.051 41.189 151.914 41.341C151.815 41.4474 151.724 41.5691 151.625 41.6907C151.55 41.6527 151.496 41.6147 151.443 41.5919C150.92 41.3714 150.525 41.6147 150.495 42.2152C150.464 42.7852 150.487 43.3477 150.479 43.9178C150.479 44.0166 150.479 44.1154 150.479 44.2294C150.229 44.2294 150.009 44.2294 149.773 44.2294C149.773 43.1197 149.773 42.0251 149.773 40.9078Z" fill="#08266E"/>
<path id="Vector_65" d="M154.646 33.3524C154.882 33.3524 155.094 33.3524 155.322 33.3524C155.337 33.436 155.345 33.512 155.368 33.6108C155.747 33.284 156.142 33.1243 156.605 33.3524C156.726 33.4132 156.916 33.4512 156.84 33.664C156.726 33.9605 156.499 34.1125 156.294 34.0213C155.808 33.816 155.443 33.9909 155.383 34.5077C155.33 34.9182 155.352 35.3439 155.345 35.7619C155.337 36.0432 155.345 36.3168 155.345 36.6208C155.11 36.6208 154.889 36.6208 154.646 36.6208C154.646 35.5415 154.646 34.4621 154.646 33.3524Z" fill="#08266E"/>
<path id="Vector_66" d="M137.863 36.6284C137.628 36.6284 137.415 36.6284 137.18 36.6284C137.18 35.5414 137.18 34.4621 137.18 33.3599C137.407 33.3599 137.62 33.3599 137.863 33.3599C137.863 34.4469 137.863 35.5262 137.863 36.6284Z" fill="#08266E"/>
<path id="Vector_67" d="M125.719 33.3599C125.954 33.3599 126.167 33.3599 126.409 33.3599C126.409 34.4469 126.409 35.5262 126.409 36.6208C126.174 36.6208 125.962 36.6208 125.719 36.6208C125.719 35.5414 125.719 34.4545 125.719 33.3599Z" fill="#08266E"/>
<path id="Vector_68" d="M167.837 44.2219C167.602 44.2219 167.382 44.2219 167.154 44.2219C167.154 43.1197 167.154 42.0404 167.154 40.9306C167.374 40.9306 167.602 40.9306 167.837 40.9306C167.837 42.0252 167.837 43.1197 167.837 44.2219Z" fill="#08266E"/>
<path id="Vector_69" d="M191.642 33.3676C191.642 34.4621 191.642 35.5339 191.642 36.6284C191.407 36.6284 191.194 36.6284 190.951 36.6284C190.951 35.5415 190.951 34.4697 190.951 33.3676C191.171 33.3676 191.391 33.3676 191.642 33.3676Z" fill="#08266E"/>
<path id="Vector_70" d="M126.456 31.9614C126.425 32.2122 126.471 32.4858 126.357 32.6455C126.289 32.7443 125.871 32.7443 125.803 32.6531C125.681 32.4858 125.712 32.2122 125.674 31.9614C125.947 31.9614 126.167 31.9614 126.456 31.9614Z" fill="#08266E"/>
<path id="Vector_71" d="M137.119 31.9537C137.415 31.9537 137.62 31.9537 137.893 31.9537C137.871 32.197 137.916 32.463 137.81 32.6378C137.749 32.7291 137.324 32.7443 137.256 32.653C137.134 32.4858 137.157 32.2122 137.119 31.9537Z" fill="#08266E"/>
<path id="Vector_72" d="M167.162 39.5244C167.397 39.5244 167.61 39.5244 167.838 39.5244C167.838 39.76 167.838 39.9728 167.838 40.2161C167.618 40.2161 167.397 40.2161 167.162 40.2161C167.162 39.9804 167.162 39.7524 167.162 39.5244Z" fill="#08266E"/>
<path id="Vector_73" d="M190.951 32.6607C190.951 32.425 190.951 32.2046 190.951 31.9614C191.179 31.9614 191.391 31.9614 191.634 31.9614C191.634 32.1818 191.634 32.4098 191.634 32.6607C191.414 32.6607 191.194 32.6607 190.951 32.6607Z" fill="#08266E"/>
</g>
<g id="Group 63">
<path id="Vector_74" d="M29.5729 43.7022C28.428 43.6907 27.2808 43.7919 26.1382 43.6677C25.7413 43.6241 25.3421 43.5574 24.9635 43.4102C24.3647 43.1757 23.9884 42.7204 23.7406 42.1479C23.3483 41.2443 23.2038 40.2809 23.0822 39.3152C22.9009 37.8759 22.7587 36.4343 22.5843 34.9949C22.4673 34.0223 22.1369 33.167 21.3522 32.5025C20.4253 31.7162 19.9114 30.6539 19.5122 29.525C19.285 28.8858 19.0005 28.2719 18.5807 27.727C18.3879 27.4763 18.1631 27.2602 17.9107 27.0878C16.7452 26.2968 16.2198 25.1426 15.9697 23.8067C15.7609 22.6893 15.6622 21.5535 15.3708 20.4498C15.1093 19.4611 14.6183 18.6472 13.7579 18.0494C13.0306 17.5435 12.6566 16.771 12.4042 15.941C12.0922 14.9132 11.7641 13.8946 11.1263 13.0094C10.867 12.6507 10.5389 12.3633 10.1948 12.0897C9.44223 11.4896 8.80211 10.7952 8.42355 9.8939C7.9532 8.77416 8.11611 7.7165 8.81359 6.74391C9.54778 5.71844 10.5642 5.09764 11.7825 4.84702C12.5144 4.69757 13.2646 4.70907 13.9438 5.09764C14.795 5.58739 15.1437 6.38983 15.2607 7.32103C15.3433 7.96482 15.325 8.61091 15.1896 9.23861C14.9923 10.1468 15.1001 11.0297 15.325 11.9058C15.754 13.5635 16.4102 15.1316 17.2706 16.6123C17.3899 16.817 17.5367 17.0055 17.6836 17.1918C17.7203 17.2377 17.773 17.332 17.8602 17.286C17.9245 17.2515 17.9084 17.1711 17.9038 17.109C17.8878 16.794 17.7937 16.4951 17.6858 16.2031C17.4931 15.6788 17.3187 15.1454 17.0916 14.635C16.5455 13.4141 16.5295 12.138 16.7016 10.8527C16.8989 9.37427 17.4862 8.07289 18.6242 7.07041C19.6383 6.1783 20.8016 5.77822 22.1713 5.89319C24.211 6.06333 24.819 8.23843 24.0687 9.66857C23.6145 10.5354 22.8757 11.0458 21.9855 11.3746C21.7881 11.4482 21.5885 11.5103 21.4004 11.6C21.0769 11.7563 20.8291 11.9931 20.7327 12.3541C20.3611 13.7291 20.2601 15.1178 20.5469 16.5227C20.6088 16.8285 20.7075 17.1228 20.8543 17.4033C21.0104 17.6999 21.2627 17.8241 21.5771 17.8057C22.3916 17.7597 22.956 17.3734 23.0363 16.479C23.0936 15.849 23.0959 15.2121 23.2313 14.5913C23.2703 14.4119 23.3047 14.228 23.3758 14.0625C23.7246 13.2485 24.2064 13.1106 24.9704 13.3359C26.1566 13.6854 26.9665 14.4832 27.3221 15.6857C27.5355 16.41 27.4047 17.1228 27.1501 17.8172C26.8013 18.7713 26.2392 19.6083 25.6679 20.436C25.0301 21.3603 24.3096 22.2317 23.8209 23.2526C23.6122 23.6895 23.4814 24.1378 23.6144 24.6345C23.6741 24.8529 23.7865 24.9127 23.9861 24.8943C24.1697 24.8782 24.3441 24.8322 24.5184 24.7724C25.0392 24.5931 25.3857 24.7517 25.6014 25.2553C25.7803 25.6714 25.9455 25.6967 26.2461 25.361C26.5696 25 26.7898 24.5793 26.9619 24.1332C27.2372 23.4205 27.625 22.7859 28.2009 22.2823C29.5912 21.0706 31.2019 21.5213 32.0783 22.9698C33.1268 24.7034 32.84 26.4164 31.7502 28.0328C30.9885 29.1617 29.9377 29.932 28.6804 30.4424C28.1183 30.67 27.5768 30.9551 27.1202 31.3759C26.3218 32.1117 26.0511 33.0176 26.2644 34.0683C26.3769 34.6179 26.7462 34.7742 27.2487 34.5259C27.6548 34.3235 27.9118 33.9626 28.2261 33.6591C28.5358 33.3602 28.8846 33.121 29.293 32.9693C29.9698 32.7164 30.5663 33.1532 30.8485 33.6614C31.3028 34.4799 31.3831 35.3674 31.2982 36.2779C31.1789 37.5632 30.6834 38.6806 29.761 39.5957C29.644 39.7107 29.5408 39.8395 29.4352 39.9659C29.3779 40.0349 29.2953 40.1154 29.3503 40.2097C29.41 40.3108 29.5132 40.2418 29.6004 40.2326C30.018 40.1844 30.4126 40.0004 30.8417 40.0326C31.4198 40.0763 31.8856 40.2993 32.1288 40.8557C32.3376 41.3363 32.4477 41.8306 32.2848 42.3549C32.2114 42.5917 32.2527 42.8032 32.4248 42.9918C32.5555 43.132 32.6748 43.2838 32.7919 43.4332C32.8469 43.5045 32.9249 43.5896 32.8745 43.6792C32.8286 43.7597 32.723 43.716 32.645 43.716C31.7089 43.7114 30.7751 43.7045 29.839 43.6976C29.7564 43.7022 29.6647 43.7022 29.5729 43.7022Z" fill="#EE3E52"/>
<path id="Vector_75" d="M50.961 32.1001C50.7086 31.4333 50.4608 30.8562 50.2911 30.2492C50.2268 30.0193 50.1695 29.7871 50.1351 29.5525C50.0639 29.0766 50.2773 28.8444 50.7591 28.849C50.8211 28.849 50.883 28.849 50.9771 28.849C50.7316 28.3937 50.4838 27.9707 50.3071 27.5108C50.1557 27.1153 50.0272 26.7153 49.9882 26.2899C49.9331 25.6599 50.1993 25.3104 50.8211 25.2046C50.9931 25.1748 50.9496 25.1012 50.9014 25.0023C50.6375 24.4758 50.4218 23.9331 50.2865 23.3606C50.2085 23.0295 50.1557 22.6938 50.1763 22.3513C50.1993 21.9788 50.3278 21.673 50.7224 21.5557C50.8715 21.512 50.8257 21.427 50.7844 21.3258C50.5274 20.7073 50.2773 20.0865 50.1786 19.4197C50.0731 18.7161 50.3324 18.1781 50.9128 17.893C50.3002 17.3573 49.8941 16.7227 49.963 15.8696C49.9676 15.8214 49.9722 15.7708 49.9263 15.7478C49.8437 15.7087 49.7955 15.7708 49.7381 15.8191C49.2839 16.2145 48.8732 16.6537 48.4923 17.1204C46.9276 19.038 45.7987 21.2016 44.8879 23.4894C44.7502 23.8366 44.5483 23.9814 44.2592 23.9423C43.961 23.901 43.7981 23.7193 43.7613 23.3468C43.6329 22.0868 43.8049 20.8567 44.1445 19.645C44.6722 17.755 45.5853 16.0536 46.6775 14.4372C46.7233 14.3682 46.8404 14.2969 46.7669 14.2073C46.705 14.1337 46.5926 14.182 46.5077 14.2142C45.5899 14.5591 44.663 14.8833 43.759 15.2626C42.7128 15.6995 41.6597 16.1272 40.6502 16.6468C40.4116 16.7687 40.1798 16.8054 39.9619 16.6261C39.7302 16.4353 39.6935 16.1731 39.7715 15.9018C39.9022 15.4535 40.0628 15.0143 40.2579 14.589C40.9278 13.122 41.9029 11.9241 43.3369 11.1516C43.9564 10.8182 44.624 10.5997 45.3238 10.494C45.388 10.4848 45.45 10.471 45.5119 10.4549C45.567 10.4411 45.6175 10.4135 45.6152 10.3491C45.6152 10.2916 45.5601 10.2824 45.5188 10.2663C45.1219 10.1077 44.7296 9.93985 44.3303 9.7904C43.4631 9.4662 42.5935 9.1443 41.7194 8.8339C41.3339 8.69595 40.9439 8.57179 40.547 8.46832C40.251 8.39015 40.0973 8.20391 40.0399 7.9234C39.9848 7.65208 40.111 7.39917 40.3588 7.25201C41.4945 6.57373 42.7495 6.33921 44.0458 6.26333C44.9269 6.21045 45.8033 6.30242 46.6798 6.38059C46.7486 6.38749 46.8335 6.42658 46.8771 6.33921C46.9115 6.27253 46.8473 6.21964 46.8151 6.16676C46.2737 5.29764 45.7138 4.44232 44.9957 3.70655C44.7869 3.49272 44.7227 3.2398 44.819 2.9478C44.9085 2.66959 45.1219 2.57302 45.3834 2.55002C47.0285 2.39827 48.4189 2.88802 49.4857 4.1917C49.5683 4.29286 49.628 4.4883 49.7657 4.46071C49.9102 4.43082 49.8758 4.23078 49.9056 4.10203C50.197 2.92021 50.4769 1.73379 51.0299 0.63474C51.2249 0.246165 51.53 0.00704173 51.9476 0.000143945C52.3789 -0.00675384 52.6956 0.234669 52.8929 0.63474C53.4458 1.74298 53.7372 2.9363 54.0194 4.13192C54.0469 4.25148 54.0148 4.43772 54.1502 4.46761C54.2832 4.4975 54.336 4.31586 54.414 4.22159C55.4396 2.9432 56.7933 2.44196 58.3947 2.53163C58.6884 2.54772 58.9867 2.59601 59.0991 2.9432C59.2092 3.27889 59.0968 3.53871 58.8582 3.78473C58.163 4.5044 57.6215 5.33903 57.0984 6.18516C57.0686 6.23574 57.002 6.29092 57.0548 6.3576C57.1007 6.41278 57.1718 6.38749 57.2361 6.38289C58.0666 6.31391 58.8972 6.22884 59.7323 6.25873C60.8933 6.30012 62.0152 6.51855 63.0821 6.983C63.2725 7.06577 63.4538 7.17384 63.6258 7.2934C63.8507 7.44745 63.931 7.67738 63.8782 7.94409C63.8255 8.20391 63.6809 8.39015 63.4125 8.46142C62.6209 8.67066 61.8569 8.96726 61.0883 9.24317C60.2509 9.54438 59.4226 9.86627 58.5897 10.179C58.5737 10.1859 58.5507 10.1859 58.5393 10.1974C58.4704 10.264 58.3052 10.2411 58.3167 10.3629C58.3282 10.4779 58.4704 10.4756 58.5668 10.4894C59.223 10.5813 59.8425 10.7906 60.4321 11.0803C61.7743 11.7379 62.7265 12.7886 63.4239 14.09C63.7107 14.6257 63.9356 15.1845 64.1145 15.7639C64.1513 15.8857 64.1903 16.0145 64.1903 16.1387C64.1971 16.6192 63.7497 16.8813 63.3092 16.6629C62.3662 16.1961 61.398 15.7846 60.4229 15.3845C59.4387 14.9798 58.4475 14.6027 57.4517 14.2303C57.3577 14.1958 57.2384 14.1291 57.1695 14.2073C57.0846 14.3038 57.2154 14.3843 57.2659 14.4602C58.3718 16.1019 59.2895 17.8332 59.8126 19.7554C60.1293 20.9165 60.2715 22.0937 60.1728 23.2963C60.1293 23.8136 59.7943 24.0642 59.3698 23.8964C59.2138 23.8343 59.1266 23.7193 59.067 23.5676C58.42 21.9305 57.6605 20.3486 56.7015 18.8702C55.9948 17.7803 55.2056 16.7572 54.2488 15.8719C54.1846 15.8122 54.1158 15.688 53.9965 15.7547C53.9093 15.803 53.9643 15.9064 53.9666 15.9823C53.9942 16.7916 53.5903 17.3872 53.0145 17.8976C53.5513 18.1666 53.8221 18.6724 53.7624 19.2656C53.689 19.9876 53.4229 20.6521 53.1452 21.3097C53.0833 21.4568 53.0764 21.5212 53.2531 21.581C53.5995 21.696 53.7257 21.9857 53.7441 22.3283C53.7808 23.0525 53.5697 23.7239 53.3058 24.3838C53.221 24.5953 53.1269 24.8046 53.0214 25.0069C52.9525 25.1403 52.9548 25.1931 53.1223 25.2115C53.6844 25.2736 54.0056 25.7059 53.9391 26.2899C53.8726 26.8693 53.6798 27.4119 53.4297 27.9362C53.2852 28.2397 53.1315 28.5363 52.925 28.8536C53.0856 28.8536 53.2003 28.849 53.3127 28.8536C53.6018 28.8697 53.7991 29.0789 53.7945 29.3778C53.7854 29.8997 53.5949 30.3803 53.4297 30.8654C53.2967 31.2517 53.1406 31.6334 52.9823 32.0518C53.1452 31.9944 53.2737 31.9392 53.4091 31.907C53.6041 31.861 53.7395 31.9415 53.7601 32.1461C53.8542 33.0704 53.354 34.3281 52.6405 34.7535C52.0898 35.0823 51.3373 34.9627 50.9266 34.4615C50.4218 33.8453 50.1603 33.1371 50.1557 32.337C50.1534 31.9231 50.3484 31.7897 50.727 31.9622C50.7775 31.9875 50.8302 32.0243 50.961 32.1001Z" fill="#08266E"/>
<path id="Vector_76" d="M15.4585 43.723C13.3683 43.723 11.2759 43.723 9.1857 43.723C8.83925 43.723 8.58916 43.5551 8.58916 43.2194C8.58687 42.4193 8.18306 41.8123 7.72648 41.2168C7.00835 40.281 6.24204 39.3842 5.46425 38.4967C4.75759 37.6943 4.15648 36.8206 3.90869 35.756C3.71596 34.9306 3.90869 34.2178 4.54193 33.6315C5.09487 33.1188 5.83594 33.1395 6.47377 33.6752C7.43511 34.4799 8.04999 35.5376 8.66717 36.5975C8.99756 37.1632 9.23618 37.7886 9.74552 38.2415C10.0667 38.5266 10.2732 38.5036 10.4155 38.0967C10.6495 37.4276 10.6977 36.7286 10.622 36.0296C10.4774 34.6938 9.99789 33.4912 9.07556 32.4911C8.44232 31.8059 7.69896 31.3598 6.71927 31.4311C6.30858 31.461 5.90707 31.4311 5.52391 31.2242C4.64747 30.7505 4.72318 29.7618 5.14763 29.1916C5.891 28.1937 7.0726 28.0972 8.0064 28.9272C8.7796 29.6124 9.36465 30.4539 10.0208 31.238C10.3191 31.5944 10.6036 31.9668 11.0304 32.1876C11.5213 32.4405 12.049 32.1071 12.033 31.5553C12.0215 31.1736 11.8448 30.8494 11.6567 30.5344C11.2736 29.8952 10.8009 29.3204 10.2801 28.7962C9.62162 28.134 9.23617 27.3568 9.09851 26.4348C8.99527 25.7404 8.80942 25.0691 8.26566 24.5632C7.52 23.8711 6.64585 23.6458 5.65928 23.8504C5.34037 23.9171 5.01686 23.9976 4.71401 24.1172C4.00505 24.3977 3.46129 24.0919 2.97718 23.632C1.60286 22.3306 1.21511 20.5694 1.89424 18.7967C2.00896 18.4955 2.16038 18.2127 2.36688 17.9643C3.02077 17.1711 3.71596 17.1481 4.54881 17.6355C5.15222 17.9873 5.7717 18.1069 6.42788 17.8241C6.89593 17.624 7.00836 17.1113 6.70321 16.7089C6.28105 16.1525 5.67993 15.9065 5.0398 15.7341C4.31249 15.5386 3.55307 15.5432 2.82117 15.3915C0.662181 14.9477 -0.46664 13.4026 0.182662 11.1401C0.352444 10.5492 0.875554 10.2963 1.3849 10.0572C2.20169 9.6732 3.05519 9.63182 3.89492 9.90313C4.90444 10.2296 5.74875 10.8044 6.22368 11.8069C6.75597 12.929 7.13684 14.1085 7.47411 15.2972C7.75861 16.2951 8.23125 17.132 9.09851 17.7229C9.62621 18.0816 9.81206 18.6035 9.80288 19.2174C9.79829 19.5761 9.79599 19.9325 9.79599 20.2912C9.79599 21.2937 10.0736 21.6409 11.0556 21.8363C11.3974 21.903 11.6338 22.0846 11.8013 22.3789C12.6135 23.8091 12.8888 25.3611 12.8521 26.9866C12.836 27.7109 12.7718 28.4352 12.8819 29.1571C12.976 29.7664 13.2283 30.2976 13.6712 30.7229C14.0841 31.123 14.5407 31.461 15.0914 31.6702C15.4309 31.799 15.6305 32.0979 15.7659 32.4313C16.0045 33.013 16.0527 33.6269 16.0091 34.2431C15.9127 35.5951 16.3854 36.4665 17.6037 37.1011C17.9088 37.2597 18.2255 37.4 18.5375 37.5494C19.43 37.9748 20.1068 38.6669 20.7538 39.3888C21.5155 40.2419 22.0754 41.2099 22.2796 42.3549C22.3232 42.5986 22.3438 42.8469 22.3484 43.093C22.3576 43.4999 22.1304 43.7184 21.7266 43.7184C19.6411 43.723 17.5486 43.723 15.4585 43.723Z" fill="#FAAC38"/>
<path id="Vector_77" d="M67.9858 41.1109C67.4329 40.6235 66.9465 40.1705 66.5243 39.6555C66.015 39.0393 65.5676 38.384 65.345 37.5999C65.0605 36.5998 65.3404 35.7697 66.1136 35.1052C66.7492 34.558 67.4948 34.1993 68.3277 34.1189C69.2087 34.0338 69.959 34.3856 70.5348 35.0501C71.4342 36.087 71.7761 37.3102 71.5535 38.6553C71.3654 39.7865 71.8266 40.5867 72.6778 41.242C73.0426 41.5225 73.4831 41.6535 73.8915 41.8513C74.3182 42.0582 74.7358 42.2812 75.0341 42.6721C75.2016 42.8905 75.2566 43.1205 75.1304 43.3642C75.0111 43.5964 74.823 43.7229 74.5385 43.7229C70.5876 43.7183 66.6345 43.7482 62.6836 43.6999C61.7291 43.6884 60.8343 43.2883 60.1368 42.5824C59.7009 42.1387 59.5243 41.5777 59.6183 40.9638C59.7743 39.9337 60.2355 39.0554 61.0408 38.3817C61.5869 37.9241 62.2109 37.9172 62.8442 38.1656C63.7665 38.5242 64.5076 39.1634 65.2762 39.7612C65.8567 40.2119 66.4257 40.6902 67.1186 40.9661C67.3664 41.0649 67.6279 41.15 67.9858 41.1109Z" fill="#1FC1E3"/>
<path id="Vector_78" d="M62.9526 25.1885C62.9595 24.7654 63.0054 24.347 63.0788 23.9308C63.2509 22.9651 63.1063 22.0362 62.7599 21.1257C62.4892 20.4152 62.1863 19.7186 61.8008 19.0633C61.7045 18.9 61.6563 18.7414 61.7756 18.5781C61.8949 18.4149 62.0762 18.3758 62.2643 18.3965C63.5836 18.5413 64.873 18.8242 66.0844 19.3783C67.8442 20.1853 69.2323 21.4039 70.1018 23.1629C70.4162 23.7998 70.4712 24.4987 70.5676 25.1885C70.7442 26.4508 70.9232 27.7131 71.3844 28.911C71.4394 29.0559 71.5106 29.1961 71.584 29.3318C71.6551 29.4605 71.701 29.5824 71.6069 29.7158C71.506 29.8583 71.3568 29.8652 71.21 29.8238C70.5882 29.6491 70.0445 29.3295 69.5397 28.9294C68.7436 28.2994 68.4201 27.3659 67.9658 26.5152C67.6515 25.9266 67.3532 25.3288 66.9471 24.793C66.7957 24.593 66.6259 24.4206 66.3964 24.3148C66.2909 24.2665 66.1762 24.2458 66.0867 24.3263C65.9972 24.4068 66.0844 24.4964 66.1096 24.5769C66.2909 25.1287 66.4377 25.6829 66.3964 26.2715C66.3276 27.2349 65.8091 27.5522 65.0061 27.6211C63.8314 27.7246 63.0903 27.0463 62.9756 25.7932C62.9618 25.5932 62.9618 25.3908 62.9526 25.1885Z" fill="#20C1E3"/>
<path id="Vector_79" d="M55.2457 40.8328C55.6449 41.1271 55.9478 41.4697 56.3654 41.6698C56.7164 41.8376 56.9321 41.7709 57.1064 41.4283C57.1546 41.3318 57.2028 41.2306 57.2395 41.1271C57.3932 40.6972 57.8016 40.6765 58.132 40.9087C58.9075 41.449 58.9603 42.2124 58.2903 42.8746C57.9278 43.2333 57.5079 43.4954 57.0353 43.6701C56.6154 43.8242 56.2254 43.6839 55.8445 43.5138C55.3237 43.2816 54.8947 42.9137 54.461 42.555C54.3991 42.5044 54.3395 42.4515 54.2591 42.3848C54.172 42.8378 53.993 43.2034 53.5571 43.339C52.9123 43.5414 52.3273 43.1229 52.2424 42.4423C52.1828 41.9664 52.4076 41.6054 52.6944 41.2789C52.855 41.0973 52.7953 41.0191 52.6485 40.8788C50.8222 39.1429 48.9959 37.4069 47.1099 35.7377C45.8848 34.6547 44.6366 33.5994 43.2646 32.7027C42.005 31.8795 40.6628 31.2311 39.2518 30.7069C38.3065 30.3551 37.3566 30.0171 36.3999 29.6998C36.2554 29.6515 36.0925 29.5895 36.1131 29.3871C36.1338 29.1871 36.2967 29.1618 36.4481 29.125C37.5517 28.8606 38.6415 28.9756 39.7336 29.2239C40.9335 29.4975 42.0371 30.0056 43.0948 30.6103C44.1135 31.192 45.029 31.9255 45.9375 32.6659C47.9589 34.3144 49.9297 36.0251 51.8914 37.7426C52.5407 38.3105 53.1579 38.9176 53.7819 39.5177C53.9196 39.651 53.9723 39.6188 54.0664 39.4786C54.2133 39.2601 54.3716 39.044 54.5528 38.8509C54.8098 38.5796 55.1585 38.5336 55.4935 38.6209C55.8767 38.7198 56.0969 39.0233 56.1933 39.3958C56.3654 40.058 55.9707 40.6765 55.2457 40.8328Z" fill="#08266E"/>
<path id="Vector_80" d="M35.1808 10.1215C36.4496 10.1628 37.6266 10.2893 38.7692 10.6526C39.0101 10.7285 39.1202 10.8756 39.134 11.1032C39.15 11.3332 39.0445 11.5033 38.8288 11.6045C38.2782 11.862 37.7367 12.1356 37.2273 12.4736C36.2775 13.1036 35.7016 13.9704 35.4653 15.0764C35.3919 15.4167 35.3162 15.7592 35.1945 16.0834C34.7609 17.2515 33.8248 17.8309 32.6891 18.1574C31.8632 18.3965 31.1014 18.2333 30.4636 17.6722C29.8212 17.1043 29.4977 16.3479 29.4036 15.5017C29.2545 14.1521 29.7432 13.0001 30.5691 11.977C31.3584 10.9975 32.4207 10.4916 33.6436 10.2617C34.185 10.1605 34.7219 10.1743 35.1808 10.1215Z" fill="#EE3F53"/>
<path id="Vector_81" d="M37.596 25.5817C37.596 25.0989 37.713 24.6367 37.8851 24.1884C37.9516 24.0136 37.892 23.986 37.7382 23.986C37.557 23.986 37.4308 24.0803 37.3138 24.2022C36.8411 24.6988 36.5544 25.3173 36.2263 25.9082C35.9051 26.4899 35.6825 27.1291 35.258 27.6557C34.7257 28.3178 34.0306 28.7271 33.2344 28.9846C33.1151 29.0237 33.021 28.9984 32.9385 28.9042C32.865 28.8214 32.8283 28.7225 32.8788 28.6259C33.5579 27.2878 33.7094 25.8208 33.8883 24.37C34.0191 23.3078 34.455 22.411 35.1364 21.6132C35.9234 20.6912 36.871 19.9991 37.986 19.5094C39.0001 19.0633 40.0693 18.861 41.1454 18.6633C41.2257 18.6495 41.3106 18.6518 41.3932 18.6518C41.774 18.6564 41.9392 18.93 41.7511 19.2565C41.3496 19.9577 41.0283 20.6958 40.7714 21.4615C40.5236 22.1995 40.4708 22.9468 40.6085 23.7124C40.7232 24.3562 40.7691 25.0069 40.6337 25.653C40.4043 26.736 39.7229 27.0739 38.7225 26.9521C37.9149 26.8578 37.5914 26.4302 37.596 25.5817Z" fill="#EE3F53"/>
<path id="Vector_82" d="M40.5129 40.9248C40.7079 41.4697 41.1209 41.8744 41.4353 42.3411C41.488 42.4193 41.6211 42.4837 41.5637 42.5894C41.5087 42.6906 41.3779 42.6331 41.2861 42.6239C39.8063 42.4998 38.4709 42.01 37.3008 41.0765C36.8695 40.7316 36.4519 40.3844 36.1881 39.8878C35.9816 39.5015 35.8944 39.0968 36.0183 38.6692C36.055 38.5381 36.0321 38.4577 35.9288 38.3588C35.7636 38.2001 35.6512 38.0001 35.6145 37.761C35.5915 37.623 35.5961 37.4644 35.4378 37.3793C35.4034 37.3609 35.3896 37.285 35.3828 37.2321C35.3323 36.7585 35.447 36.3216 35.7017 35.9239C35.8347 35.7146 36.0366 35.7652 36.2202 35.8227C37.1999 36.1377 37.6955 36.8551 37.6633 37.892C37.661 37.9541 37.6633 38.0139 37.6633 38.1174C37.7872 37.9472 37.7826 37.7886 37.7804 37.6391C37.7781 37.4874 37.7551 37.3379 37.7368 37.1494C37.957 37.2873 38.0671 37.4598 38.0717 37.6782C38.0832 38.1358 38.3149 38.4577 38.6843 38.6876C38.8541 38.7933 38.8839 38.8853 38.7853 39.0601C38.6407 39.3153 38.5994 39.5935 38.6774 39.943C38.7532 39.7108 38.799 39.5222 38.877 39.3452C39.2074 38.6071 39.8086 38.1725 40.5336 37.8851C41.9194 37.3356 43.3648 37.2988 44.8263 37.3724C45.0833 37.3862 45.3402 37.3839 45.5949 37.3885C45.666 37.3908 45.7509 37.377 45.7739 37.4713C45.7968 37.5678 45.7142 37.5862 45.6523 37.6253C44.8171 38.145 43.9017 38.46 42.9587 38.7152C42.2543 38.906 41.5224 38.8646 40.8112 38.9819C40.5818 39.0187 40.3867 39.1106 40.2445 39.3199C40.4028 39.267 40.5588 39.2072 40.7194 39.1635C41.2265 39.021 41.371 39.0969 41.6096 39.5613C41.8827 40.0947 42.0777 40.6557 42.236 41.2306C42.3438 41.6214 42.4861 41.9962 42.782 42.2928C42.8578 42.3687 42.9013 42.4607 42.8486 42.5664C42.7912 42.6814 42.6788 42.663 42.5824 42.6538C42.096 42.5986 41.7702 42.2698 41.4398 41.9571C41.1003 41.6352 40.8525 41.2375 40.5588 40.8765C40.5382 40.8719 40.5175 40.8696 40.4969 40.865C40.4969 40.8834 40.506 40.9041 40.5129 40.9248ZM40.1458 39.3153C40.1275 39.3383 40.0977 39.3613 40.0908 39.3912C40.0862 39.4141 40.116 39.4371 40.1458 39.4187C40.1665 39.4072 40.1894 39.3889 40.2009 39.3659C40.2192 39.3268 40.1825 39.3291 40.1458 39.3153Z" fill="#EE4054"/>
<path id="Vector_83" d="M65.7962 28.9687C66.1908 28.9871 66.6474 29.0009 67.0902 29.1319C67.2302 29.1733 67.3793 29.2193 67.3862 29.4078C67.3931 29.6056 67.2531 29.6447 67.1017 29.6723C66.6336 29.7573 66.1656 29.8217 65.7044 29.9436C64.9564 30.1436 64.22 30.362 63.5087 30.6747C62.825 30.9759 62.1665 31.3185 61.5379 31.714C60.2416 32.5256 59.0439 33.4683 57.8807 34.457C56.5844 35.5561 55.3133 36.6873 54.0789 37.8553C53.7761 38.1404 53.604 38.1289 53.3379 37.807C53.1864 37.6254 53.0166 37.4599 52.8606 37.2805C52.6495 37.0414 52.645 36.8529 52.8813 36.6413C53.4985 36.0918 54.1225 35.5492 54.7535 35.0134C56.1094 33.8592 57.4608 32.7004 58.881 31.6266C59.9502 30.8173 61.1042 30.1574 62.3524 29.6631C63.4353 29.2308 64.5618 28.9848 65.7962 28.9687Z" fill="#08266E"/>
<path id="Vector_84" d="M49.3668 42.3801C48.9102 42.7571 48.5018 43.1342 48.0085 43.394C47.7103 43.5504 47.412 43.7113 47.0632 43.7251C46.4415 43.7481 45.9757 43.4032 45.5237 43.0491C45.3035 42.8767 45.1108 42.6675 44.9823 42.4054C44.6794 41.7938 45.1039 40.9269 45.7738 40.7844C46.0514 40.7246 46.2373 40.8212 46.3566 41.0649C46.4254 41.2051 46.4736 41.3546 46.5493 41.4879C46.703 41.7639 46.9348 41.8305 47.2216 41.6903C47.6575 41.4788 48.0108 41.1546 48.4146 40.8373C47.9512 40.7522 47.6185 40.5338 47.4739 40.113C47.3317 39.7014 47.3661 39.306 47.6575 38.9473C48.0062 38.5173 48.628 38.4299 48.9974 38.8346C49.8256 39.7428 50.6585 40.6487 51.4271 41.6098C51.7162 41.9708 51.6267 42.5525 51.1151 43.0813C50.7686 43.44 50.2295 43.4952 49.8394 43.2216C49.5549 43.0308 49.431 42.741 49.3668 42.3801Z" fill="#08266E"/>
<path id="Vector_85" d="M56.4509 24.7746C56.4509 24.7562 56.4509 24.7378 56.4509 24.7194C56.4417 24.2021 56.4693 24.186 56.9442 24.4136C58.0707 24.9517 58.3851 25.9588 57.8138 27.2095C57.7358 27.382 57.5591 27.5544 57.5751 27.7131C57.5843 27.8166 57.8619 27.8901 58.0134 27.9867C58.3667 28.212 58.5319 28.5408 58.5227 28.9593C58.4998 29.9227 57.9078 30.5573 57.0704 30.8378C56.7469 30.9458 56.4096 30.9734 56.0769 31.024C55.9255 31.047 55.8337 31.001 55.9026 30.8263C56.3339 29.7387 56.0288 28.7776 55.3863 27.8832C55.2601 27.7085 55.29 27.6165 55.4093 27.4648C56.0333 26.6784 56.4349 25.8001 56.4509 24.7746Z" fill="#20C1E3"/>
<path id="Vector_86" d="M46.9178 24.6827C46.9155 25.7174 47.2918 26.6164 47.9251 27.4097C48.0948 27.6235 48.0834 27.7362 47.9297 27.9546C47.3262 28.8237 47.0509 29.7641 47.4616 30.8057C47.5258 30.9666 47.4823 31.0402 47.3125 31.0218C46.7481 30.9597 46.1928 30.8792 45.7041 30.5482C45.0984 30.1366 44.8323 29.5526 44.8483 28.8398C44.8621 28.3317 45.1879 28.0167 45.6192 27.8327C45.8464 27.7362 45.8028 27.6672 45.7087 27.5039C45.4219 27.005 45.2246 26.4739 45.2843 25.883C45.36 25.1242 45.8418 24.685 46.4934 24.3861C46.5255 24.37 46.5622 24.3631 46.5966 24.3493C46.9087 24.2137 46.9362 24.2344 46.9133 24.5724C46.9156 24.6092 46.9178 24.646 46.9178 24.6827Z" fill="#EE4054"/>
<path id="Vector_87" d="M68.9847 13.4462C68.987 14.3912 68.4318 15.1016 67.5301 15.3615C67.0666 15.4948 66.1558 15.143 65.7864 14.5291C65.2312 13.6025 65.4835 12.2896 66.4036 11.7401C67.4154 11.1354 68.5855 11.7378 68.9113 12.8737C68.9664 13.0622 68.9893 13.253 68.9847 13.4462Z" fill="#20C1E3"/>
<path id="Vector_88" d="M35.4321 39.4716C34.9159 38.8577 34.5282 38.253 34.2093 37.6046C33.6701 36.5033 33.2846 35.3445 33.1286 34.1282C32.9611 32.8314 33.5829 31.8818 34.6727 31.2886C34.7209 31.261 34.7576 31.2196 34.8127 31.2771C34.8654 31.3323 34.8608 31.392 34.8448 31.4564C34.7668 31.7392 34.7186 32.0289 34.6842 32.3209C34.5672 33.3073 34.7347 34.2592 35.0444 35.1904C35.1316 35.4548 35.1362 35.6687 35.01 35.94C34.6085 36.8137 34.7599 37.6368 35.3771 38.368C35.4689 38.4784 35.5033 38.5634 35.4597 38.7037C35.3885 38.9267 35.4023 39.1589 35.4321 39.4716Z" fill="#EE4054"/>
<path id="Vector_89" d="M38.2088 36.5124C38.9498 36.6135 39.6381 36.8412 40.2186 37.3378C40.354 37.4528 40.2943 37.5286 40.1865 37.5838C39.824 37.7701 39.5188 38.0184 39.271 38.3426C39.2045 38.4299 39.1173 38.446 39.0347 38.3725C38.7594 38.1333 38.4772 37.8988 38.4474 37.4895C38.4221 37.147 38.2409 36.894 37.9633 36.7032C37.9151 36.671 37.8141 36.671 37.8348 36.5859C37.8554 36.494 37.9518 36.5216 38.0206 36.5147C38.0803 36.5078 38.1445 36.5124 38.2088 36.5124Z" fill="#EE4054"/>
</g>
</g>
</svg>
