<svg width="200" height="45" viewBox="0 0 200 45" fill="none" xmlns="http://www.w3.org/2000/svg">
<g id="Group 64">
<g id="Group">
<path id="Vector" d="M152.71 9.71304C153.127 9.36339 153.499 9.00614 153.924 8.7097C154.6 8.23843 155.344 7.92678 156.156 7.77476C157.234 7.56953 158.319 7.53153 159.405 7.68355C161.021 7.91158 162.403 8.58808 163.473 9.84986C163.541 9.92587 163.602 10.0019 163.678 10.0855C164.035 9.79666 164.376 9.51541 164.725 9.24938C165.317 8.79331 165.963 8.45126 166.661 8.18522C168.164 7.61514 169.712 7.53913 171.299 7.66835C172.384 7.75956 173.394 8.056 174.327 8.58808C176.104 9.59903 177.128 11.1497 177.462 13.1563C177.538 13.6352 177.576 14.1217 177.576 14.6006C177.584 18.4771 177.584 22.3613 177.584 26.2378C177.584 26.7699 177.538 26.8155 177.014 26.8155C175.83 26.8155 174.646 26.8155 173.47 26.8155C172.923 26.8155 172.878 26.7775 172.878 26.2302C172.878 22.7033 172.878 19.184 172.878 15.6571C172.878 14.897 172.771 14.1521 172.437 13.4604C171.929 12.4038 171.109 11.7881 169.955 11.5753C168.961 11.3929 168.005 11.4613 167.101 11.9174C166.008 12.4646 165.447 13.43 165.234 14.6082C165.166 15.0034 165.143 15.4063 165.143 15.8015C165.135 19.2904 165.135 22.7793 165.135 26.2606C165.135 26.7851 165.105 26.8155 164.581 26.8155C163.382 26.8155 162.183 26.8155 160.976 26.8155C160.482 26.8155 160.429 26.7623 160.429 26.2683C160.429 22.6805 160.429 19.0852 160.429 15.4975C160.429 14.5778 160.217 13.7112 159.693 12.9359C159.177 12.1682 158.441 11.7653 157.552 11.5753C156.847 11.4233 156.133 11.4309 155.45 11.6133C154.175 11.9402 153.325 12.7611 152.953 14.0229C152.808 14.5169 152.733 15.049 152.725 15.5583C152.71 19.1004 152.717 22.6425 152.717 26.1846C152.717 26.2987 152.717 26.4127 152.702 26.5191C152.672 26.6939 152.581 26.8079 152.383 26.8079C151.032 26.8079 149.681 26.8079 148.33 26.8079C148.133 26.8079 148.034 26.7091 148.011 26.5343C147.996 26.4355 147.996 26.3291 147.996 26.2302C147.996 20.3622 147.996 14.5017 147.996 8.63369C147.996 8.10161 148.072 8.0256 148.611 8.0256C149.81 8.0256 151.009 8.0256 152.216 8.0256C152.596 8.0256 152.717 8.13961 152.717 8.51967C152.71 8.89973 152.71 9.30258 152.71 9.71304Z" fill="white"/>
<path id="Vector_2" d="M107.569 9.7129C107.964 9.38606 108.321 9.05921 108.708 8.77037C109.406 8.25349 110.195 7.93425 111.061 7.76702C112.138 7.56179 113.232 7.52379 114.309 7.68341C116.769 8.04826 118.932 9.6749 119.691 12.3049C119.904 13.0346 119.995 13.7795 119.987 14.5396C119.987 18.439 119.987 22.3307 119.987 26.2301C119.987 26.7698 119.964 26.8002 119.418 26.8002C118.211 26.8002 116.996 26.8002 115.79 26.8002C115.349 26.8002 115.289 26.7394 115.289 26.2909C115.289 22.7032 115.289 19.1155 115.289 15.5202C115.289 14.6308 115.106 13.7795 114.621 13.0194C114.074 12.1529 113.269 11.7044 112.283 11.5372C111.235 11.3547 110.233 11.4688 109.322 12.0008C108.321 12.5861 107.82 13.5439 107.637 14.6688C107.584 14.9805 107.577 15.2997 107.577 15.619C107.569 19.1231 107.577 22.6272 107.577 26.1389C107.577 26.2529 107.577 26.3669 107.569 26.4733C107.546 26.6862 107.44 26.8078 107.205 26.8078C105.884 26.8002 104.563 26.8002 103.242 26.8078C102.992 26.8078 102.886 26.6862 102.871 26.4581C102.863 26.3745 102.871 26.2909 102.871 26.2073C102.871 17.7777 102.871 9.34805 102.871 0.926025C102.871 0.363543 102.939 0.302734 103.501 0.302734C104.685 0.302734 105.869 0.302734 107.045 0.302734C107.486 0.302734 107.592 0.40915 107.592 0.850014C107.592 3.70043 107.592 6.55844 107.592 9.40886C107.569 9.50007 107.569 9.60649 107.569 9.7129Z" fill="white"/>
<path id="Vector_3" d="M137.568 25.075C136.945 25.8959 136.095 26.3976 135.162 26.7472C134.258 27.0893 133.302 27.1881 132.345 27.2337C131.032 27.2945 129.734 27.1501 128.512 26.6636C126.425 25.8275 125.081 24.1932 125.028 21.7381C124.998 20.4839 125.203 19.2905 125.947 18.234C126.47 17.4815 127.176 16.9646 127.996 16.5769C129.636 15.7864 131.389 15.604 133.173 15.5736C134.516 15.5508 135.852 15.566 137.196 15.5736C137.461 15.5736 137.56 15.4824 137.56 15.2239C137.545 14.4562 137.598 13.6809 137.279 12.9436C136.96 12.2063 136.384 11.7806 135.647 11.5906C134.053 11.1725 132.437 11.2029 130.835 11.4918C129.992 11.6438 129.203 12.0087 128.489 12.5103C128.087 12.7916 127.966 12.7612 127.723 12.3507C127.252 11.5678 126.782 10.7925 126.311 10.0096C126.106 9.67512 126.129 9.56871 126.455 9.35588C127.283 8.8162 128.186 8.44374 129.127 8.1549C131.063 7.56202 133.044 7.51641 135.032 7.66083C135.928 7.72164 136.839 7.80525 137.704 8.02568C139.761 8.55776 141.287 9.55351 141.833 12.2063C141.955 12.8144 142.008 13.4453 142.008 14.0686C142.023 18.1276 142.016 22.1789 142.016 26.2379C142.016 26.77 141.985 26.8004 141.469 26.8004C140.353 26.8004 139.238 26.8004 138.114 26.8004C137.719 26.8004 137.659 26.732 137.659 26.3443C137.659 25.9263 137.659 25.5158 137.659 25.0978C137.613 25.0902 137.59 25.0826 137.568 25.075ZM135.116 18.8041C133.826 18.8041 132.528 18.766 131.268 19.1233C130.706 19.2829 130.19 19.549 129.871 20.0582C128.953 21.5252 129.772 23.2431 131.48 23.5547C132.854 23.8056 134.198 23.76 135.526 23.3267C136.589 22.9771 137.332 22.293 137.469 21.13C137.545 20.4991 137.522 19.8454 137.537 19.2069C137.545 18.8649 137.484 18.8041 137.127 18.8041C136.459 18.8041 135.792 18.8041 135.116 18.8041Z" fill="white"/>
<path id="Vector_4" d="M191.399 27.2566C189.661 27.2186 188.333 27.135 187.05 26.7625C185.342 26.2685 183.771 25.4627 182.382 24.3378C182.101 24.1097 182.093 23.9577 182.351 23.6993C183.118 22.9468 183.884 22.1943 184.659 21.4494C184.94 21.1833 185.031 21.1833 185.327 21.419C186.169 22.1031 187.11 22.5895 188.128 22.962C189.608 23.5093 191.126 23.6689 192.674 23.4256C193.448 23.304 194.17 23.0304 194.648 22.3539C195.392 21.3049 194.913 20.0051 193.676 19.6175C192.598 19.283 191.49 19.1994 190.382 19.1234C188.97 19.017 187.573 18.8574 186.26 18.2797C184.446 17.4816 183.391 16.1058 183.224 14.0991C183.118 12.8145 183.308 11.5907 184.021 10.4886C184.697 9.43961 185.653 8.73271 186.799 8.28424C188.583 7.58494 190.435 7.49373 192.31 7.65335C193.122 7.72176 193.942 7.81297 194.724 8.0182C196.143 8.39066 197.487 8.95314 198.663 9.86527C198.944 10.0857 198.952 10.2301 198.701 10.5114C198.276 10.9902 197.843 11.4615 197.418 11.9404C197.198 12.1836 196.986 12.4268 196.765 12.6625C196.545 12.8981 196.363 12.9361 196.098 12.7689C195.278 12.252 194.39 11.8796 193.464 11.6135C192.28 11.2715 191.065 11.1119 189.828 11.3095C189.312 11.3931 188.841 11.5375 188.424 11.8568C187.9 12.2596 187.665 12.7917 187.748 13.4454C187.832 14.0763 188.234 14.4791 188.796 14.7148C189.471 15.0036 190.185 15.0872 190.906 15.1632C191.725 15.2469 192.553 15.3077 193.373 15.4141C194.071 15.5053 194.777 15.5965 195.452 15.7865C197.692 16.4022 199.422 17.8616 199.521 20.6056C199.604 22.9012 198.671 24.6722 196.735 25.9036C195.794 26.5041 194.754 26.8537 193.653 26.9982C192.781 27.1274 191.892 27.2034 191.399 27.2566Z" fill="white"/>
<path id="Vector_5" d="M89.9133 7.57715C90.4902 7.64556 91.5604 7.69877 92.5927 7.9192C94.1867 8.26125 95.6821 8.87694 96.9952 9.88028C97.2912 10.1007 97.2912 10.2299 97.0407 10.5188C96.6081 11.0052 96.1754 11.4841 95.7352 11.963C95.5227 12.1986 95.3177 12.4343 95.1052 12.6623C94.8851 12.8979 94.7029 12.9435 94.4372 12.7763C93.6175 12.2594 92.7294 11.887 91.8033 11.6209C90.6192 11.2789 89.4048 11.1117 88.1675 11.3169C87.6741 11.4005 87.2187 11.5297 86.8088 11.8262C86.2623 12.2214 86.0042 12.7459 86.0801 13.4148C86.156 14.0685 86.5508 14.5246 87.158 14.7146C87.8259 14.9198 88.5243 15.0566 89.215 15.1555C90.0424 15.2771 90.8849 15.3075 91.7123 15.4139C92.403 15.5051 93.0937 15.6039 93.7617 15.7787C96.1982 16.4248 97.9136 18.0819 97.8681 20.9627C97.8377 23.1138 96.8889 24.748 95.0824 25.9034C94.1336 26.5115 93.0785 26.8384 91.9703 27.0132C90.8925 27.1804 89.8071 27.2716 88.7216 27.2184C87.4692 27.1576 86.2092 27.0512 85.0175 26.6483C83.4538 26.1162 81.9889 25.3713 80.6985 24.3148C80.4404 24.102 80.4329 23.9423 80.6682 23.7143C81.4424 22.9542 82.2166 22.1941 82.9984 21.4416C83.2793 21.1679 83.3704 21.1679 83.6664 21.4112C84.6759 22.2549 85.8448 22.8098 87.0973 23.167C88.2662 23.5015 89.4579 23.6307 90.68 23.4559C91.3859 23.3494 92.0614 23.1974 92.6231 22.7338C93.2076 22.2549 93.4505 21.6468 93.2835 20.9019C93.1317 20.2026 92.6307 19.8301 91.9855 19.6173C90.8925 19.2524 89.7463 19.1992 88.6078 19.1156C87.2263 19.0092 85.8524 18.842 84.5696 18.2643C82.7403 17.4434 81.6853 16.0448 81.5486 14.0153C81.4652 12.7687 81.6473 11.5829 82.3381 10.5112C83.0136 9.45462 83.9624 8.74772 85.1086 8.28405C86.49 7.72157 87.955 7.61515 89.9133 7.57715Z" fill="white"/>
<path id="Vector_6" d="M110.553 42.2233C110.879 42.8922 111.198 43.5307 111.54 44.2376C111.236 44.2376 110.986 44.2528 110.743 44.23C110.674 44.2224 110.598 44.1236 110.56 44.0551C110.333 43.5763 110.097 43.0974 109.893 42.6109C109.801 42.3981 109.68 42.3297 109.452 42.3373C108.921 42.3525 108.921 42.3449 108.921 42.8694C108.921 43.3178 108.921 43.7587 108.921 44.1844C108.875 44.2148 108.86 44.23 108.845 44.23C108.154 44.2832 108.154 44.2832 108.154 43.5915C108.154 42.3449 108.154 41.0907 108.154 39.8441C108.154 39.7453 108.154 39.6465 108.154 39.4717C108.921 39.5097 109.672 39.4869 110.393 39.5933C110.993 39.6845 111.312 40.1482 111.395 40.7487C111.479 41.3416 111.213 41.8584 110.697 42.1549C110.659 42.1777 110.621 42.1929 110.553 42.2233ZM109.589 41.5772C109.718 41.5772 109.847 41.5772 109.976 41.5772C110.348 41.5696 110.576 41.372 110.636 41.0299C110.69 40.7031 110.5 40.3686 110.166 40.2774C109.991 40.2318 109.801 40.2242 109.619 40.2242C108.921 40.2166 108.921 40.2242 108.921 40.9083C108.921 41.5772 108.921 41.5772 109.589 41.5772Z" fill="white"/>
<path id="Vector_7" d="M178.564 44.2377C178.275 44.2377 178.048 44.2529 177.827 44.2301C177.744 44.2225 177.63 44.1313 177.592 44.0476C177.357 43.5688 177.129 43.0899 176.924 42.6034C176.833 42.3982 176.719 42.3146 176.484 42.3222C175.953 42.3374 175.953 42.3298 175.953 42.8543C175.953 43.3027 175.953 43.7436 175.953 44.2073C175.695 44.2073 175.459 44.2073 175.201 44.2073C175.201 42.6414 175.201 41.0908 175.201 39.4946C175.482 39.4946 175.763 39.487 176.051 39.4946C176.514 39.5098 176.985 39.4946 177.433 39.5782C177.994 39.6922 178.321 40.0951 178.404 40.6576C178.503 41.3113 178.26 41.8281 177.736 42.1322C177.691 42.155 177.645 42.1778 177.577 42.2082C177.903 42.8923 178.222 43.5384 178.564 44.2377ZM175.953 41.5697C176.378 41.5697 176.765 41.5697 177.152 41.5697C177.205 41.5697 177.258 41.5469 177.311 41.5165C177.592 41.3721 177.714 41.0984 177.653 40.764C177.592 40.4599 177.349 40.2471 177 40.2243C176.727 40.2091 176.446 40.2091 176.165 40.2243C176.089 40.2319 175.968 40.3383 175.968 40.4067C175.945 40.7868 175.953 41.1592 175.953 41.5697Z" fill="white"/>
<path id="Vector_8" d="M110.265 34.4017C110.234 34.7133 110.227 35.1162 110.143 35.5039C109.931 36.4768 109.088 36.8493 108.246 36.72C107.395 36.5908 106.91 36.0587 106.857 35.1922C106.819 34.5689 106.811 33.9456 106.864 33.3223C106.948 32.2734 107.934 31.6349 108.952 31.8933C109.817 32.1138 110.143 32.7903 110.196 33.3831C110.227 33.6948 110.242 33.9988 110.265 34.4017ZM109.468 34.4625H109.46C109.46 34.2801 109.468 34.0901 109.46 33.9076C109.452 33.748 109.445 33.5884 109.422 33.4364C109.361 32.9271 108.982 32.5698 108.526 32.5698C108.063 32.5698 107.669 32.9271 107.646 33.444C107.616 34.0216 107.616 34.5993 107.646 35.1694C107.676 35.6863 108.071 36.0283 108.542 36.0207C109.02 36.0131 109.377 35.6711 109.43 35.1542C109.445 34.9262 109.452 34.6905 109.468 34.4625Z" fill="white"/>
<path id="Vector_9" d="M83.8871 32.9112C83.7884 32.9644 83.7049 33.0024 83.6214 33.0556C83.3786 33.2 83.204 33.1924 83.0066 32.9264C82.7789 32.6299 82.4297 32.4855 82.035 32.6071C81.6328 32.7364 81.3899 33.0176 81.3747 33.4433C81.3519 34.0134 81.3443 34.5758 81.3747 35.1459C81.405 35.7084 81.8605 36.0809 82.3614 36.02C82.9155 35.944 83.3102 35.4348 83.2116 34.8875C83.204 34.8267 83.0977 34.7507 83.037 34.7431C82.832 34.7203 82.6271 34.7355 82.3994 34.7355C82.3994 34.5226 82.3994 34.325 82.3994 34.097C82.9155 34.097 83.4393 34.097 84.0389 34.097C83.9858 34.6214 83.9858 35.1459 83.8567 35.64C83.6594 36.4153 82.7713 36.8866 81.9591 36.7117C81.1014 36.5293 80.646 36.0428 80.5929 35.1611C80.5549 34.553 80.5473 33.9297 80.6005 33.3217C80.6915 32.2043 81.6935 31.6874 82.6347 31.8774C83.2192 32.0067 83.6594 32.3031 83.8871 32.9112Z" fill="white"/>
<path id="Vector_10" d="M116.161 36.2787C115.691 36.6435 115.19 36.7043 114.719 36.4079C114.499 36.2711 114.324 35.9822 114.241 35.7314C114.074 35.2297 114.112 34.7053 114.203 34.1884C114.385 33.1774 115.546 33.0102 116.123 33.5575C116.245 33.3295 116.328 33.3067 116.89 33.3751C116.897 33.4587 116.905 33.5499 116.905 33.6411C116.905 34.5988 116.905 35.5566 116.905 36.5143C116.905 37.0844 116.753 37.5937 116.207 37.8369C115.599 38.103 114.977 38.0801 114.415 37.6773C114.294 37.5937 114.172 37.4797 114.332 37.3504C114.476 37.2288 114.544 36.8944 114.848 37.1072C114.939 37.168 115.038 37.2364 115.136 37.2668C115.865 37.4721 116.275 37.0844 116.161 36.2787ZM114.856 34.9333C114.894 35.1157 114.916 35.3133 114.969 35.511C115.053 35.7846 115.265 35.9214 115.539 35.9138C115.797 35.9062 116.04 35.7846 116.078 35.5186C116.131 35.1385 116.146 34.7433 116.1 34.3708C116.07 34.0744 115.835 33.9451 115.508 33.9527C115.212 33.9527 115.023 34.0896 114.947 34.3936C114.909 34.5532 114.886 34.7281 114.856 34.9333Z" fill="white"/>
<path id="Vector_11" d="M189.606 43.089C189.933 43.2487 190.214 43.4159 190.51 43.5375C190.927 43.6971 191.421 43.5831 191.641 43.3095C191.937 42.9446 191.792 42.4658 191.337 42.3441C190.95 42.2453 190.555 42.1769 190.176 42.0629C189.584 41.8881 189.318 41.4244 189.356 40.7175C189.386 40.1398 189.811 39.6153 190.343 39.5165C190.935 39.4025 191.512 39.4329 192.043 39.7294C192.157 39.7902 192.331 39.9346 192.316 39.9954C192.256 40.1778 192.134 40.3526 192.013 40.5047C191.99 40.5351 191.83 40.4743 191.747 40.4211C191.405 40.2234 191.049 40.1322 190.654 40.2006C190.328 40.2614 190.153 40.4515 190.138 40.7555C190.123 41.0443 190.267 41.2572 190.586 41.3408C190.904 41.432 191.238 41.4852 191.557 41.5612C192.157 41.698 192.521 42.1237 192.552 42.709C192.589 43.4311 192.263 44.0012 191.694 44.176C190.904 44.4192 190.138 44.3584 189.432 43.8872C189.151 43.6971 189.143 43.6591 189.341 43.3931C189.432 43.2943 189.531 43.1879 189.606 43.089Z" fill="white"/>
<path id="Vector_12" d="M138.182 39.5244C138.44 39.5244 138.653 39.5244 138.888 39.5244C138.888 41.0826 138.888 42.6409 138.888 44.2219C138.676 44.2219 138.456 44.2219 138.22 44.2219C138.205 44.1535 138.198 44.0775 138.182 43.9863C138.16 43.9939 138.129 44.0015 138.114 44.0167C137.401 44.6476 136.338 44.3131 136.194 43.3706C136.11 42.8385 136.118 42.2684 136.201 41.7439C136.353 40.8318 137.385 40.5126 138.091 41.1206C138.114 41.1359 138.137 41.1435 138.19 41.1739C138.182 40.619 138.182 40.0869 138.182 39.5244ZM138.205 42.5725C138.182 42.39 138.175 42.2 138.137 42.0176C138.069 41.6907 137.833 41.5007 137.514 41.5083C137.203 41.5083 136.953 41.6831 136.915 42.01C136.877 42.3824 136.869 42.7701 136.915 43.1425C136.953 43.4846 137.188 43.6366 137.514 43.6366C137.856 43.6366 138.069 43.477 138.137 43.1273C138.175 42.9449 138.182 42.7625 138.205 42.5725Z" fill="white"/>
<path id="Vector_13" d="M185.402 39.5166C185.66 39.5166 185.873 39.5166 186.1 39.5166C186.1 41.09 186.1 42.6483 186.1 44.2217C185.865 44.2217 185.652 44.2217 185.417 44.2217C185.402 44.1381 185.394 44.0621 185.379 43.9632C184.939 44.3813 184.453 44.3965 183.952 44.1837C183.542 44.0089 183.39 43.6136 183.36 43.2107C183.33 42.7319 183.315 42.2378 183.398 41.7665C183.565 40.8316 184.575 40.5047 185.296 41.1204C185.318 41.1356 185.341 41.1432 185.394 41.1736C185.402 40.6188 185.402 40.0791 185.402 39.5166ZM185.417 42.5646C185.394 42.3746 185.387 42.1846 185.341 41.9946C185.273 41.6829 185.03 41.5081 184.719 41.5157C184.423 41.5157 184.165 41.6905 184.127 41.9946C184.081 42.3746 184.081 42.7699 184.127 43.1499C184.165 43.4844 184.4 43.644 184.734 43.644C185.076 43.644 185.28 43.4844 185.356 43.1271C185.387 42.9447 185.394 42.7547 185.417 42.5646Z" fill="white"/>
<path id="Vector_14" d="M162.556 32.9192C162.343 33.0256 162.138 33.132 161.918 33.2384C161.834 33.1244 161.774 33.0104 161.69 32.9192C161.478 32.6835 161.22 32.5163 160.886 32.5847C160.536 32.6607 160.263 32.8736 160.203 33.2384C160.142 33.6033 160.127 33.9757 160.111 34.3482C160.104 34.599 160.127 34.8498 160.142 35.1007C160.18 35.6023 160.423 35.9064 160.863 36.0052C161.22 36.0888 161.576 35.8912 161.812 35.4883C161.834 35.4503 161.865 35.4123 161.903 35.3515C162.123 35.4579 162.328 35.5643 162.533 35.6708C162.29 36.5221 161.364 36.8641 160.681 36.7121C159.922 36.5449 159.459 36.0888 159.39 35.3135C159.33 34.6294 159.33 33.9377 159.398 33.2536C159.474 32.4707 160.051 31.9538 160.802 31.855C161.554 31.7562 162.206 32.1438 162.556 32.9192Z" fill="white"/>
<path id="Vector_15" d="M91.455 40.8317C91.4095 40.7557 91.3639 40.6873 91.3184 40.6188C91.0603 40.2236 90.7719 40.1096 90.2937 40.2084C90.0052 40.2692 89.7168 40.596 89.7016 40.9685C89.6789 41.569 89.6561 42.1771 89.7092 42.7776C89.7699 43.4769 90.4607 43.8189 91.0148 43.4617C91.1514 43.378 91.2501 43.2336 91.3412 43.0892C91.4247 42.96 91.5006 42.9296 91.6296 43.0056C91.7738 43.0892 91.9256 43.1576 92.1002 43.2412C91.9256 43.7505 91.5916 44.1077 91.0755 44.237C90.4607 44.389 89.861 44.351 89.3752 43.8493C89.1172 43.5757 88.9502 43.2412 88.935 42.8764C88.9046 42.2151 88.8895 41.5538 88.935 40.9001C88.9805 40.2084 89.5043 39.6003 90.066 39.5015C90.9768 39.3343 91.622 39.5927 92.0091 40.2692C92.1078 40.444 92.1154 40.5504 91.8953 40.6188C91.7435 40.672 91.6068 40.7557 91.455 40.8317Z" fill="white"/>
<path id="Vector_16" d="M87.2431 35.6859C87.3721 35.8456 87.6302 36.028 87.5999 36.1344C87.5543 36.3016 87.3342 36.446 87.1596 36.5373C86.6814 36.7881 86.1804 36.8033 85.6795 36.5981C85.3455 36.4612 85.1178 36.2028 85.0115 35.8532C84.8293 35.2679 84.8142 34.675 85.0115 34.0973C85.2241 33.4664 85.9072 33.1092 86.5524 33.2536C87.3797 33.436 87.9111 34.2645 87.7137 35.093C87.6985 35.1539 87.5695 35.2147 87.4936 35.2223C86.9699 35.2299 86.4537 35.2299 85.93 35.2299C85.6036 35.2299 85.5808 35.2755 85.6871 35.5871C85.8692 36.1116 86.5676 36.1496 86.9926 35.876C87.0609 35.838 87.1293 35.7771 87.2431 35.6859ZM86.2867 34.6826C86.4461 34.6826 86.6055 34.675 86.7573 34.6826C86.9395 34.6902 86.985 34.599 86.9623 34.4394C86.9167 34.1429 86.6814 33.9377 86.3398 33.9073C85.9907 33.8769 85.7402 34.0517 85.6491 34.3709C85.5884 34.5762 85.6188 34.6978 85.8692 34.6826C86.0059 34.675 86.1501 34.6826 86.2867 34.6826Z" fill="white"/>
<path id="Vector_17" d="M95.3113 35.2301C94.6661 35.2301 94.0893 35.2301 93.5124 35.2301C93.186 35.2301 93.1632 35.2834 93.2619 35.5874C93.4365 36.1119 94.15 36.1499 94.5675 35.8762C94.6434 35.823 94.7117 35.7698 94.7952 35.709C94.8407 35.7394 94.8787 35.7698 94.9166 35.7926C95.3113 36.1119 95.3113 36.2335 94.8711 36.4767C94.3549 36.7656 93.8084 36.8188 93.2619 36.5907C92.9052 36.4463 92.6774 36.1575 92.5788 35.7926C92.427 35.2605 92.4118 34.7209 92.5636 34.1888C92.7382 33.5579 93.2695 33.193 93.9526 33.2159C94.6206 33.2387 95.1064 33.6339 95.2354 34.2876C95.281 34.5993 95.281 34.8957 95.3113 35.2301ZM93.8919 34.6829C94.0513 34.6829 94.2107 34.7057 94.3625 34.6753C94.4384 34.6601 94.5447 34.5536 94.5447 34.4852C94.5447 34.166 94.2487 33.9152 93.8843 33.9076C93.52 33.9 93.2391 34.1356 93.2088 34.47C93.1936 34.6069 93.2315 34.6829 93.3833 34.6829C93.5579 34.6753 93.7249 34.6829 93.8919 34.6829Z" fill="white"/>
<path id="Vector_18" d="M182.343 42.8007C181.614 42.8007 180.939 42.8007 180.271 42.8007C180.218 43.2263 180.43 43.5304 180.802 43.614C181.121 43.6824 181.425 43.6368 181.66 43.4164C181.804 43.2796 181.888 43.2948 181.994 43.4392C182.04 43.5 182.1 43.5456 182.161 43.5836C182.29 43.6748 182.282 43.7736 182.161 43.8496C181.941 43.9941 181.721 44.1841 181.478 44.2449C180.559 44.4577 179.687 44.2221 179.542 43.0895C179.489 42.6639 179.504 42.2078 179.595 41.7973C179.755 41.0828 180.256 40.8092 181.136 40.8472C181.668 40.87 182.153 41.3185 182.26 41.919C182.313 42.185 182.313 42.4662 182.343 42.8007ZM180.909 42.2382C181.068 42.2382 181.22 42.2306 181.379 42.2382C181.561 42.2458 181.599 42.1622 181.569 41.995C181.508 41.6985 181.227 41.4629 180.916 41.4553C180.62 41.4477 180.332 41.6757 180.263 41.957C180.218 42.1318 180.248 42.2534 180.468 42.2382C180.613 42.2306 180.757 42.2382 180.909 42.2382Z" fill="white"/>
<path id="Vector_19" d="M176.817 35.7162C176.855 35.7466 176.886 35.7695 176.916 35.7923C177.333 36.1267 177.326 36.2711 176.832 36.522C176.339 36.7728 175.815 36.826 175.299 36.6208C174.973 36.4916 174.745 36.2483 174.631 35.9139C174.426 35.3058 174.411 34.6825 174.624 34.0744C174.813 33.5423 175.307 33.2383 175.914 33.2383C176.521 33.2459 177.015 33.5575 177.182 34.0972C177.273 34.3937 177.273 34.7205 177.311 35.0321C177.333 35.1994 177.235 35.2374 177.09 35.2298C176.567 35.2222 176.051 35.2298 175.527 35.2298C175.208 35.2298 175.178 35.283 175.284 35.5946C175.466 36.1191 176.172 36.1495 176.59 35.8759C176.673 35.8303 176.741 35.7695 176.817 35.7162ZM175.884 34.6825C176.043 34.6825 176.202 34.6749 176.354 34.6825C176.552 34.6901 176.597 34.5989 176.567 34.4241C176.514 34.1276 176.271 33.9224 175.937 33.9072C175.61 33.8844 175.36 34.0516 175.269 34.3328C175.178 34.6141 175.231 34.6749 175.527 34.6825C175.641 34.6825 175.762 34.6825 175.884 34.6825Z" fill="white"/>
<path id="Vector_20" d="M115.312 42.7926C114.659 42.7926 114.074 42.7926 113.49 42.7926C113.201 42.7926 113.164 42.8459 113.255 43.1195C113.444 43.6668 114.173 43.834 114.628 43.4159C114.947 43.1271 114.993 43.5147 115.137 43.5984C115.334 43.72 115.145 43.8188 115.054 43.9176C114.583 44.4421 113.201 44.4801 112.807 43.8264C112.663 43.5832 112.541 43.3095 112.503 43.0359C112.45 42.709 112.465 42.367 112.503 42.0401C112.579 41.3712 113.08 40.8696 113.657 40.8468C114.583 40.8088 115.069 41.128 115.236 41.9337C115.289 42.1998 115.281 42.481 115.312 42.7926ZM113.877 42.2378C114.036 42.2378 114.196 42.2302 114.348 42.2378C114.522 42.2454 114.575 42.1694 114.545 41.9945C114.484 41.6981 114.196 41.4625 113.885 41.4549C113.589 41.4472 113.308 41.6677 113.232 41.9565C113.186 42.1313 113.209 42.253 113.429 42.2378C113.581 42.2302 113.725 42.2378 113.877 42.2378Z" fill="white"/>
<path id="Vector_21" d="M158.32 42.793C158.274 43.2339 158.479 43.5303 158.859 43.6064C159.178 43.6748 159.481 43.6292 159.716 43.4087C159.868 43.2643 159.929 43.3099 160.05 43.4315C160.369 43.7508 160.377 43.7508 160.035 44.0244C159.534 44.4121 158.35 44.4653 157.918 43.8724C157.826 43.7432 157.728 43.614 157.682 43.4695C157.492 42.8614 157.477 42.2382 157.69 41.6301C157.849 41.174 158.32 40.8776 158.798 40.8396C159.861 40.7559 160.354 41.4856 160.362 42.3294C160.362 42.4662 160.362 42.6106 160.362 42.793C160.013 42.793 159.671 42.793 159.329 42.793C158.995 42.793 158.654 42.793 158.32 42.793ZM158.942 42.2382C159.109 42.2382 159.276 42.2382 159.443 42.2382C159.61 42.2382 159.656 42.1621 159.625 42.0101C159.572 41.7213 159.307 41.4932 159.003 41.4628C158.715 41.44 158.411 41.6377 158.32 41.9189C158.244 42.1621 158.289 42.2306 158.555 42.2382C158.684 42.2382 158.813 42.2382 158.942 42.2382Z" fill="white"/>
<path id="Vector_22" d="M196.347 42.7932C195.695 42.7932 195.103 42.7932 194.511 42.7932C194.222 42.7932 194.184 42.8465 194.283 43.1201C194.473 43.6598 195.201 43.8346 195.664 43.4165C195.983 43.1277 196.029 43.5153 196.173 43.599C196.347 43.6978 196.203 43.8194 196.105 43.903C195.558 44.3819 194.92 44.4199 194.283 44.169C193.721 43.9486 193.539 43.4393 193.516 42.8845C193.501 42.5652 193.501 42.2308 193.562 41.9115C193.714 41.1514 194.169 40.8246 195.004 40.8322C195.657 40.8398 196.135 41.2426 196.264 41.9343C196.317 42.208 196.317 42.4816 196.347 42.7932ZM194.89 42.2384C195.05 42.2384 195.209 42.2308 195.361 42.2384C195.566 42.246 195.596 42.1396 195.558 41.9723C195.49 41.6911 195.201 41.4631 194.913 41.4555C194.617 41.4478 194.366 41.6379 194.268 41.9267C194.192 42.1319 194.222 42.2536 194.48 42.2384C194.617 42.2308 194.753 42.2384 194.89 42.2384Z" fill="white"/>
<path id="Vector_23" d="M185.175 34.1505C185.121 34.0669 185.083 34.0137 185.053 33.9605C184.848 33.588 184.894 33.4816 185.304 33.36C185.759 33.2308 186.207 33.1852 186.677 33.3296C187.095 33.4588 187.323 33.6564 187.353 34.1049C187.391 34.6978 187.376 35.2983 187.383 35.8912C187.383 36.1344 187.383 36.37 187.383 36.6057C186.837 36.6893 186.738 36.6665 186.655 36.4232C186.192 36.7881 185.691 36.8413 185.175 36.5905C184.787 36.408 184.62 35.9292 184.727 35.4275C184.818 35.017 185.167 34.713 185.592 34.6902C185.873 34.675 186.154 34.675 186.427 34.6826C186.624 34.6902 186.693 34.6218 186.677 34.4242C186.655 34.1277 186.541 33.9985 186.245 33.9377C185.88 33.8693 185.524 33.9225 185.175 34.1505ZM186.252 35.2299C186.252 35.2223 186.252 35.2223 186.252 35.2147C186.085 35.2375 185.926 35.2603 185.759 35.2831C185.531 35.3211 185.417 35.4655 185.41 35.6859C185.402 35.9064 185.531 36.0584 185.736 36.066C185.972 36.0812 186.214 36.066 186.442 35.9976C186.647 35.9368 186.791 35.5567 186.677 35.3515C186.632 35.2603 186.419 35.2603 186.283 35.2223C186.268 35.2299 186.26 35.2299 186.252 35.2299Z" fill="white"/>
<path id="Vector_24" d="M119.138 42.7927C118.5 42.7927 117.908 42.7927 117.316 42.7927C117.028 42.7927 116.99 42.8535 117.081 43.1195C117.263 43.6592 117.999 43.834 118.462 43.416C118.781 43.1271 118.819 43.5224 118.971 43.5984C119.153 43.6972 119.001 43.8112 118.91 43.9024C118.447 44.3509 117.87 44.3813 117.293 44.2521C116.701 44.1229 116.42 43.6668 116.337 43.0815C116.268 42.6027 116.268 42.1314 116.42 41.6753C116.58 41.204 117.05 40.8696 117.529 40.8316C118.561 40.748 119.054 41.3865 119.115 42.1846C119.123 42.3746 119.13 42.5646 119.138 42.7927ZM117.711 42.2378C117.862 42.2378 118.007 42.2302 118.151 42.2378C118.371 42.253 118.401 42.139 118.356 41.9566C118.288 41.6753 117.976 41.4397 117.673 41.4549C117.346 41.4701 117.096 41.7057 117.043 42.0174C117.012 42.1846 117.073 42.2378 117.232 42.2378C117.392 42.2378 117.551 42.2378 117.711 42.2378Z" fill="white"/>
<path id="Vector_25" d="M130.962 44.2677C130.689 44.1613 130.363 44.4274 130.234 44.0169C129.793 44.3742 129.308 44.397 128.799 44.1917C128.419 44.0397 128.252 43.6749 128.29 43.1732C128.321 42.7323 128.533 42.4435 128.943 42.3523C129.254 42.2839 129.581 42.2763 129.9 42.2307C130.029 42.2155 130.234 42.3219 130.256 42.0862C130.279 41.8658 130.234 41.653 129.998 41.5466C129.558 41.3565 129.148 41.4553 128.746 41.729C128.693 41.6378 128.64 41.5542 128.594 41.4705C128.427 41.1817 128.45 41.0829 128.753 40.9765C129.27 40.7864 129.801 40.7712 130.332 40.9233C130.689 41.0297 130.902 41.2957 130.917 41.653C130.947 42.2687 130.939 42.8767 130.947 43.4924C130.962 43.7357 130.962 43.9637 130.962 44.2677ZM129.543 43.7281C130.074 43.6977 130.317 43.4468 130.264 42.968C130.256 42.9148 130.226 42.8311 130.188 42.8083C129.998 42.6943 129.254 42.8311 129.095 42.9908C128.928 43.1656 128.951 43.4696 129.163 43.5913C129.27 43.6673 129.414 43.6901 129.543 43.7281Z" fill="white"/>
<path id="Vector_26" d="M199.983 44.2067C199.467 44.2979 199.383 44.2751 199.292 44.0091C198.852 44.3663 198.366 44.3967 197.857 44.1915C197.47 44.0319 197.303 43.667 197.341 43.1501C197.372 42.7321 197.584 42.4356 197.986 42.352C198.298 42.2836 198.624 42.276 198.943 42.2304C199.072 42.2152 199.262 42.3216 199.307 42.0936C199.353 41.8731 199.224 41.6223 199.026 41.5463C198.639 41.3867 198.252 41.4399 197.789 41.7363C197.706 41.5919 197.614 41.4551 197.554 41.3031C197.531 41.2499 197.569 41.1358 197.614 41.1054C197.751 41.0142 197.903 40.923 198.055 40.8926C198.54 40.7938 199.041 40.7558 199.504 40.961C199.823 41.1054 199.983 41.4095 199.983 41.7515C199.998 42.542 199.99 43.3326 199.99 44.1231C200.013 44.1611 199.99 44.1839 199.983 44.2067ZM198.882 42.7929C198.874 42.7777 198.874 42.7625 198.867 42.7549C198.662 42.8081 198.442 42.8309 198.267 42.9373C198.153 43.0057 198.04 43.2109 198.062 43.3326C198.077 43.4618 198.244 43.6518 198.358 43.667C198.586 43.6974 198.837 43.6594 199.057 43.591C199.277 43.5226 199.413 43.1577 199.3 42.9221C199.254 42.8385 199.041 42.8309 198.905 42.7929C198.897 42.7929 198.89 42.7929 198.882 42.7929Z" fill="white"/>
<path id="Vector_27" d="M120.64 36.6512C120.382 36.5827 120.093 36.7728 119.949 36.5067C119.63 36.5827 119.304 36.712 118.97 36.7272C118.59 36.7348 118.234 36.5903 118.067 36.1951C117.9 35.777 117.885 35.3514 118.218 35.0245C118.385 34.8573 118.659 34.7585 118.894 34.7053C119.16 34.6521 119.448 34.6825 119.729 34.6901C119.904 34.6901 119.957 34.6217 119.949 34.4544C119.934 34.1352 119.812 34.006 119.509 33.9452C119.129 33.8691 118.773 33.93 118.431 34.1504C118.385 34.082 118.34 34.0212 118.302 33.9604C118.097 33.5955 118.135 33.4891 118.53 33.3675C118.978 33.2307 119.433 33.185 119.904 33.3219C120.374 33.4663 120.609 33.6943 120.617 34.1884C120.655 34.9865 120.64 35.7922 120.64 36.6512ZM119.524 35.2145C119.349 35.2373 119.167 35.2525 118.985 35.2906C118.795 35.3362 118.689 35.4654 118.682 35.6706C118.674 35.8758 118.765 36.0279 118.962 36.0507C119.175 36.0735 119.403 36.0735 119.615 36.0279C119.881 35.9747 120.017 35.6934 119.964 35.3894C119.911 35.1081 119.676 35.2906 119.524 35.2145Z" fill="white"/>
<path id="Vector_28" d="M133.598 36.6811C133.347 36.5443 133.021 36.8407 132.892 36.4227C132.497 36.7267 132.072 36.8255 131.594 36.6659C131.108 36.4987 130.873 36.1186 130.941 35.5486C130.994 35.0849 131.351 34.7276 131.829 34.6972C132.118 34.682 132.406 34.682 132.695 34.6896C132.877 34.6972 132.945 34.6212 132.93 34.4388C132.907 34.1271 132.793 33.9979 132.475 33.9447C132.103 33.8763 131.753 33.9371 131.404 34.1576C131.321 34.0131 131.222 33.8763 131.177 33.7243C131.154 33.6635 131.222 33.5191 131.283 33.4887C131.875 33.1998 132.497 33.1542 133.12 33.3974C133.439 33.5191 133.598 33.8003 133.606 34.1271C133.613 34.9481 133.598 35.7766 133.598 36.6811ZM132.482 35.2141C132.315 35.2369 132.141 35.2521 131.974 35.2901C131.761 35.3281 131.655 35.4649 131.64 35.6778C131.624 35.8982 131.746 36.0502 131.951 36.073C132.156 36.0958 132.376 36.0882 132.573 36.0426C132.839 35.9818 132.976 35.7006 132.922 35.4041C132.877 35.1077 132.642 35.2901 132.482 35.2141Z" fill="white"/>
<path id="Vector_29" d="M100.411 41.7207C100.388 41.7055 100.373 41.7055 100.373 41.6979C100.024 41.1506 100.031 41.0442 100.661 40.9074C101.071 40.8162 101.527 40.8542 101.952 40.9226C102.369 40.991 102.574 41.333 102.589 41.7359C102.612 42.5568 102.597 43.3701 102.597 44.2139C102.384 44.2139 102.187 44.2139 101.959 44.2139C101.944 44.1607 101.921 44.0846 101.899 44.001C101.436 44.3735 100.942 44.4039 100.426 44.1911C100.062 44.039 99.8871 43.6514 99.925 43.1649C99.9554 42.7469 100.176 42.4504 100.57 42.3592C100.881 42.2908 101.208 42.2832 101.527 42.2376C101.656 42.2148 101.845 42.192 101.891 42.1008C101.982 41.9107 101.823 41.6371 101.625 41.5535C101.2 41.3711 100.798 41.4699 100.411 41.7207ZM101.2 43.7198C101.709 43.6894 101.952 43.4462 101.906 42.9901C101.899 42.9217 101.838 42.8077 101.8 42.8077C101.466 42.8001 101.117 42.7316 100.806 42.9445C100.547 43.1269 100.555 43.4766 100.836 43.621C100.942 43.6818 101.079 43.6894 101.2 43.7198Z" fill="white"/>
<path id="Vector_30" d="M101.754 36.6668C101.519 36.5452 101.2 36.8189 101.056 36.4312C100.669 36.7276 100.244 36.8265 99.7657 36.6592C99.2875 36.492 99.0446 36.1044 99.1129 35.5723C99.1736 35.0706 99.5152 34.7286 100.001 34.6906C100.282 34.6754 100.563 34.6678 100.836 34.683C101.056 34.6906 101.117 34.5993 101.094 34.4017C101.064 34.1357 100.95 33.9837 100.669 33.938C100.289 33.8772 99.9327 33.9228 99.5683 34.1509C99.4848 33.9989 99.3862 33.862 99.3406 33.71C99.3254 33.6492 99.3938 33.5124 99.4545 33.482C100.039 33.1931 100.654 33.1551 101.261 33.3832C101.542 33.4896 101.732 33.7176 101.739 34.0217C101.77 34.8806 101.754 35.7471 101.754 36.6668ZM100.768 35.1998C100.502 35.2378 100.312 35.253 100.138 35.291C99.9403 35.329 99.834 35.4659 99.8188 35.6635C99.8036 35.8611 99.8871 36.0283 100.092 36.0512C100.312 36.074 100.548 36.074 100.768 36.0283C101.026 35.9751 101.185 35.6635 101.086 35.3823C101.048 35.2834 100.844 35.2454 100.768 35.1998Z" fill="white"/>
<path id="Vector_31" d="M195.543 35.0021C195.498 35.2757 195.475 35.557 195.399 35.823C195.194 36.5755 194.427 36.8188 193.866 36.7199C193.167 36.6059 192.78 36.2335 192.719 35.5266C192.674 35.0705 192.681 34.5916 192.795 34.1508C192.962 33.4743 193.699 33.1094 194.382 33.2766C195.11 33.4591 195.437 33.8467 195.505 34.6372C195.513 34.7589 195.505 34.8805 195.505 35.0021C195.513 35.0021 195.528 35.0021 195.543 35.0021ZM193.41 34.9717C193.425 35.1465 193.425 35.3213 193.456 35.4962C193.532 35.8762 193.737 36.0434 194.108 36.0358C194.45 36.0358 194.678 35.8534 194.716 35.481C194.754 35.1541 194.754 34.8121 194.716 34.4852C194.678 34.128 194.45 33.9531 194.124 33.9455C193.744 33.9379 193.539 34.09 193.456 34.47C193.425 34.6372 193.425 34.8045 193.41 34.9717Z" fill="white"/>
<path id="Vector_32" d="M92.974 42.5725C92.9892 42.0481 93.0271 41.5236 93.4674 41.1435C94.1353 40.5735 95.532 40.7407 95.7521 41.896C95.8508 42.4053 95.8508 42.9146 95.7066 43.4163C95.5547 43.9331 95.069 44.2676 94.5528 44.3056C93.4294 44.3816 92.9436 43.6519 92.974 42.5725ZM95.0917 42.5877C95.0614 42.3749 95.0538 42.1621 95.0006 41.9569C94.9247 41.668 94.6894 41.5084 94.401 41.5084C94.1126 41.5084 93.8393 41.6604 93.8014 41.9493C93.7482 42.3597 93.7482 42.7854 93.7938 43.1882C93.8317 43.5075 94.0898 43.6443 94.4086 43.6367C94.7122 43.6291 94.9096 43.4847 94.9931 43.173C95.0538 42.9906 95.0614 42.793 95.0917 42.5877Z" fill="white"/>
<path id="Vector_33" d="M83.356 42.5873C83.318 43.1042 83.2649 43.5907 82.8626 43.9783C82.3237 44.5028 80.9271 44.4876 80.6007 43.4539C80.4261 42.899 80.4185 42.3365 80.5855 41.774C80.7601 41.1659 81.2155 40.8467 81.8759 40.8467C82.5894 40.8467 83.0448 41.1507 83.2194 41.774C83.2953 42.0325 83.318 42.3137 83.356 42.5873ZM82.6121 42.5417C82.6045 42.5417 82.597 42.5417 82.5894 42.5341C82.5742 42.3669 82.5742 42.1997 82.5362 42.0325C82.4755 41.7284 82.2478 41.5308 81.9669 41.508C81.6861 41.4852 81.4128 41.622 81.3293 41.8956C81.1851 42.3517 81.1851 42.8154 81.3369 43.2638C81.428 43.5299 81.6481 43.6287 81.9062 43.6287C82.1719 43.6287 82.392 43.5299 82.4755 43.2714C82.5438 43.0358 82.5666 42.785 82.6121 42.5417Z" fill="white"/>
<path id="Vector_34" d="M141.787 35.0093C141.765 35.2297 141.757 35.4577 141.711 35.6706C141.537 36.4839 140.869 36.7955 140.178 36.7195C139.472 36.6435 139.047 36.2179 138.986 35.5033C138.949 35.0625 138.964 34.6064 139.047 34.1808C139.207 33.3826 140.11 33.1394 140.634 33.261C141.347 33.4282 141.689 33.8159 141.757 34.5532C141.772 34.6976 141.757 34.8497 141.757 35.0017C141.772 35.0093 141.78 35.0093 141.787 35.0093ZM139.67 35.0321C139.692 35.1841 139.7 35.3741 139.738 35.549C139.821 35.8986 140.011 36.043 140.376 36.0354C140.702 36.0354 140.93 35.8682 140.975 35.5338C141.013 35.1993 141.021 34.8497 140.99 34.5076C140.952 34.1199 140.732 33.9451 140.398 33.9375C140.004 33.9299 139.806 34.0895 139.73 34.4924C139.692 34.6596 139.692 34.8268 139.67 35.0321Z" fill="white"/>
<path id="Vector_35" d="M153.591 35.0166C153.546 35.2902 153.515 35.5714 153.447 35.8375C153.234 36.6128 152.377 36.8332 151.853 36.7116C151.162 36.5444 150.821 36.2023 150.767 35.4878C150.729 35.0546 150.745 34.5909 150.836 34.1652C151.003 33.3975 151.86 33.1619 152.384 33.2683C153.098 33.4127 153.454 33.808 153.538 34.5377C153.553 34.6973 153.538 34.8569 153.538 35.009C153.561 35.009 153.576 35.0166 153.591 35.0166ZM151.458 35.009C151.473 35.1686 151.473 35.3434 151.511 35.5182C151.595 35.8983 151.792 36.0427 152.179 36.0351C152.506 36.0275 152.726 35.8527 152.764 35.4878C152.802 35.1686 152.802 34.8417 152.771 34.5225C152.733 34.1348 152.521 33.9524 152.179 33.9448C151.792 33.9372 151.58 34.0968 151.504 34.4921C151.473 34.6517 151.473 34.8265 151.458 35.009Z" fill="white"/>
<path id="Vector_36" d="M166.213 35.0171C166.183 35.2603 166.167 35.5188 166.107 35.7544C165.902 36.5373 165.196 36.811 164.566 36.7198C163.852 36.6209 163.458 36.2029 163.397 35.4808C163.359 35.0703 163.374 34.6447 163.45 34.2418C163.579 33.5805 164.08 33.2689 164.778 33.2461C165.454 33.2233 165.97 33.6185 166.122 34.2646C166.175 34.5078 166.183 34.7587 166.213 35.0171ZM164.088 35.0171C164.11 35.1843 164.118 35.382 164.164 35.5644C164.239 35.8912 164.437 36.0357 164.786 36.0357C165.112 36.0357 165.355 35.876 165.393 35.5492C165.439 35.1995 165.439 34.8423 165.408 34.5002C165.37 34.1202 165.15 33.9454 164.801 33.9454C164.422 33.9454 164.232 34.0974 164.148 34.485C164.11 34.6523 164.11 34.8195 164.088 35.0171Z" fill="white"/>
<path id="Vector_37" d="M145.498 36.6206C145.278 36.6206 145.058 36.6206 144.8 36.6206C144.8 36.1949 144.8 35.7768 144.8 35.3664C144.8 35.0927 144.808 34.8267 144.785 34.5531C144.762 34.1654 144.557 33.9526 144.231 33.945C143.844 33.9298 143.608 34.1046 143.57 34.4999C143.533 34.9331 143.548 35.374 143.54 35.8149C143.54 36.0733 143.54 36.3317 143.54 36.613C143.305 36.613 143.085 36.613 142.842 36.613C142.842 35.5336 142.842 34.4543 142.842 33.3521C143.062 33.3521 143.267 33.3521 143.502 33.3521C143.517 33.4129 143.54 33.4813 143.57 33.5649C143.935 33.2837 144.307 33.1545 144.747 33.2989C145.164 33.4357 145.453 33.7169 145.476 34.1274C145.536 34.9559 145.498 35.7844 145.498 36.6206Z" fill="white"/>
<path id="Vector_38" d="M143.845 44.1994C143.807 44.2146 143.799 44.2222 143.792 44.2222C143.086 44.3059 143.086 44.3059 143.086 43.599C143.086 42.5804 143.078 41.5695 143.093 40.5509C143.093 40.3001 143.033 40.1937 142.76 40.2165C142.448 40.2393 142.13 40.2241 141.78 40.2241C141.78 40.0188 141.765 39.844 141.788 39.6692C141.796 39.6084 141.894 39.5096 141.947 39.5096C142.995 39.502 144.05 39.502 145.128 39.502C145.128 39.7376 145.128 39.9504 145.128 40.2165C144.976 40.2165 144.817 40.2165 144.65 40.2165C143.853 40.2165 143.853 40.2165 143.853 41.0222C143.853 41.9723 143.853 42.9225 143.853 43.8726C143.86 43.9942 143.853 44.1082 143.845 44.1994Z" fill="white"/>
<path id="Vector_39" d="M134.234 44.2144C134.234 43.6443 134.234 43.0894 134.234 42.5269C134.234 42.3749 134.242 42.2305 134.219 42.0785C134.173 41.7288 133.938 41.5084 133.619 41.5008C133.308 41.5008 133.05 41.7212 133.005 42.0632C132.974 42.2837 132.989 42.5117 132.989 42.7321C132.989 43.2186 132.989 43.6975 132.989 44.2068C132.754 44.2068 132.534 44.2068 132.291 44.2068C132.291 43.1122 132.291 42.0252 132.291 40.9307C132.762 40.8091 132.951 40.8547 132.997 41.0523C133.285 40.9763 133.574 40.8775 133.87 40.8395C134.447 40.7559 134.932 41.3107 134.948 41.8124C134.97 42.6029 134.955 43.3934 134.955 44.2068C134.72 44.2144 134.5 44.2144 134.234 44.2144Z" fill="white"/>
<path id="Vector_40" d="M169.196 36.6208C169.196 36.0355 169.196 35.473 169.196 34.9029C169.196 34.7433 169.189 34.5837 169.158 34.4316C169.09 34.0896 168.9 33.9452 168.559 33.9452C168.24 33.9452 168.004 34.1352 167.974 34.462C167.936 34.8953 167.944 35.3362 167.936 35.777C167.929 36.0507 167.936 36.3319 167.936 36.6208C167.686 36.6208 167.466 36.6208 167.223 36.6208C167.223 35.5414 167.223 34.462 167.223 33.3903C167.648 33.2687 167.883 33.3219 167.974 33.5651C168.331 33.2991 168.71 33.1622 169.158 33.3143C169.652 33.4815 169.879 33.8463 169.902 34.3176C169.932 35.0777 169.91 35.8454 169.91 36.6284C169.682 36.6208 169.462 36.6208 169.196 36.6208Z" fill="white"/>
<path id="Vector_41" d="M169.97 41.1814C170.418 40.7785 170.874 40.7329 171.329 40.9534C171.784 41.1662 171.936 41.5767 171.929 42.0555C171.929 42.77 171.929 43.4845 171.929 44.2218C171.686 44.2218 171.466 44.2218 171.208 44.2218C171.208 44.0546 171.208 43.8874 171.208 43.7278C171.208 43.2185 171.215 42.7016 171.2 42.1924C171.185 41.7667 170.942 41.5159 170.585 41.5159C170.228 41.5159 169.978 41.7819 169.963 42.2C169.948 42.77 169.955 43.3325 169.955 43.9026C169.955 44.0014 169.955 44.1002 169.955 44.2295C169.712 44.2295 169.492 44.2295 169.249 44.2295C169.242 44.1154 169.234 44.009 169.234 43.9026C169.234 43.0437 169.234 42.1924 169.234 41.3334C169.234 40.8546 169.181 40.923 169.674 40.9078C169.872 40.885 169.993 40.9154 169.97 41.1814Z" fill="white"/>
<path id="Vector_42" d="M88.7754 33.3598C89.3902 33.299 89.4434 33.3142 89.5344 33.5575C89.8684 33.3066 90.2176 33.1698 90.6426 33.2838C91.1664 33.4206 91.4396 33.7855 91.4624 34.2872C91.5004 35.0549 91.47 35.8302 91.47 36.6207C91.2347 36.6207 91.0146 36.6207 90.7565 36.6207C90.7565 36.4687 90.7565 36.3243 90.7565 36.1798C90.7489 35.6098 90.7565 35.0397 90.7185 34.4772C90.6958 34.1123 90.4757 33.9451 90.1265 33.9451C89.7849 33.9451 89.5572 34.1199 89.5268 34.4696C89.4889 34.8952 89.4965 35.3285 89.4889 35.7542C89.4813 36.0354 89.4889 36.3091 89.4889 36.6131C89.246 36.6131 89.0183 36.6131 88.7754 36.6131C88.7754 35.5261 88.7754 34.4544 88.7754 33.3598Z" fill="white"/>
<path id="Vector_43" d="M147.64 43.9637C147.276 44.3286 146.851 44.3894 146.426 44.2526C145.91 44.0853 145.712 43.6521 145.705 43.1428C145.69 42.4739 145.705 41.7974 145.697 41.1285C145.697 40.9613 145.75 40.8777 145.917 40.9005C145.955 40.9081 145.993 40.9005 146.031 40.9005C146.426 40.9005 146.426 40.9005 146.426 41.2881C146.426 41.8582 146.426 42.4283 146.441 42.9908C146.449 43.2492 146.525 43.4924 146.813 43.5837C147.261 43.7281 147.625 43.4772 147.64 42.9756C147.656 42.3979 147.648 41.8202 147.648 41.2425C147.648 41.1437 147.648 41.0449 147.648 40.9005C147.861 40.9005 148.043 40.8853 148.225 40.9081C148.278 40.9157 148.369 41.0221 148.369 41.0829C148.377 42.071 148.377 43.0592 148.377 44.0473C148.377 44.1918 148.324 44.2526 148.179 44.245C148.096 44.2374 148.012 44.2374 147.929 44.245C147.731 44.2754 147.618 44.2146 147.64 43.9637Z" fill="white"/>
<path id="Vector_44" d="M199.262 36.6288C199.004 36.6288 198.791 36.6288 198.541 36.6288C198.541 36.2944 198.541 35.96 198.541 35.6255C198.541 35.2911 198.548 34.9566 198.533 34.6222C198.518 34.1661 198.313 33.9457 197.926 33.9457C197.539 33.9457 197.303 34.1813 197.296 34.6298C197.281 35.2226 197.288 35.8231 197.288 36.416C197.288 36.4768 197.281 36.5452 197.281 36.6212C197.045 36.6212 196.825 36.6212 196.59 36.6212C196.59 35.5343 196.59 34.4549 196.59 33.3604C196.81 33.3604 197.03 33.3604 197.273 33.3604C197.281 33.4136 197.296 33.482 197.311 33.558C197.349 33.5428 197.379 33.5428 197.394 33.52C197.789 33.1932 198.222 33.1475 198.67 33.3604C199.087 33.558 199.254 33.9381 199.262 34.3865C199.269 35.1314 199.262 35.8611 199.262 36.6288Z" fill="white"/>
<path id="Vector_45" d="M122.53 36.6204C122.28 36.6204 122.067 36.6204 121.824 36.6204C121.824 35.5335 121.824 34.4617 121.824 33.3824C122.249 33.2607 122.485 33.3139 122.568 33.5572C122.917 33.2911 123.289 33.1543 123.729 33.2987C124.192 33.4432 124.458 33.7776 124.481 34.2337C124.519 35.0242 124.488 35.8147 124.488 36.6204C124.253 36.6204 124.041 36.6204 123.775 36.6204C123.775 36.4456 123.775 36.2784 123.775 36.1036C123.775 35.6095 123.783 35.1154 123.767 34.6213C123.752 34.1729 123.54 33.9448 123.16 33.9448C122.765 33.9448 122.545 34.1729 122.53 34.6289C122.515 35.1838 122.523 35.7463 122.523 36.3012C122.53 36.4076 122.53 36.5064 122.53 36.6204Z" fill="white"/>
<path id="Vector_46" d="M171.329 35.6475C171.769 35.9667 172.164 36.1416 172.642 36.0428C172.839 35.9971 172.976 35.9059 172.991 35.7007C173.006 35.4955 172.87 35.3967 172.688 35.3663C172.369 35.3054 172.042 35.2902 171.731 35.199C171.314 35.0774 171.116 34.7658 171.109 34.3173C171.109 33.8612 171.321 33.4888 171.693 33.3596C172.278 33.1467 172.839 33.2227 173.378 33.5192C173.568 33.618 173.591 33.7244 173.462 33.8916C173.318 34.0969 173.204 34.2033 172.908 34.0513C172.672 33.9296 172.361 33.9373 172.08 33.9525C171.982 33.9601 171.822 34.1653 171.83 34.2641C171.838 34.3781 171.997 34.5225 172.126 34.5605C172.354 34.6366 172.604 34.6366 172.839 34.6746C173.34 34.7506 173.621 35.009 173.674 35.4575C173.735 35.9895 173.492 36.4456 173.037 36.6052C172.384 36.8333 171.754 36.7573 171.17 36.3848C170.912 36.2252 170.919 36.1568 171.109 35.9363C171.2 35.8527 171.261 35.7463 171.329 35.6475Z" fill="white"/>
<path id="Vector_47" d="M122.674 43.7355C122.719 43.6823 122.757 43.6367 122.788 43.5911C122.962 43.3479 123.114 43.2414 123.425 43.4619C123.714 43.6747 124.093 43.7887 124.45 43.5911C124.564 43.5303 124.7 43.3555 124.685 43.2491C124.678 43.1426 124.511 42.9982 124.389 42.9602C124.116 42.8766 123.828 42.8614 123.547 42.793C123.106 42.6942 122.879 42.4357 122.848 42.0177C122.81 41.5008 123.015 41.0979 123.418 40.9459C124.025 40.7255 124.617 40.7711 125.171 41.1359C125.293 41.2196 125.323 41.3032 125.224 41.4324C124.989 41.7516 125.004 41.7212 124.647 41.592C124.389 41.5008 124.093 41.4932 123.812 41.5084C123.721 41.516 123.585 41.706 123.577 41.82C123.57 41.9113 123.706 42.0481 123.805 42.1089C123.896 42.1697 124.033 42.1545 124.154 42.1773C124.374 42.2153 124.594 42.2457 124.807 42.3065C125.171 42.4129 125.384 42.6562 125.414 43.0514C125.452 43.4923 125.33 43.8571 124.943 44.108C124.404 44.45 123.122 44.3892 122.674 43.7355Z" fill="white"/>
<path id="Vector_48" d="M161.379 43.7279C161.485 43.6063 161.576 43.4618 161.705 43.3706C161.758 43.3326 161.903 43.3554 161.979 43.401C162.35 43.6063 162.722 43.7811 163.163 43.5986C163.33 43.5302 163.451 43.401 163.39 43.2414C163.345 43.1198 163.201 42.9982 163.079 42.9602C162.814 42.8765 162.533 42.8613 162.259 42.8005C161.819 42.7017 161.591 42.4585 161.546 42.0632C161.493 41.5616 161.675 41.1435 162.039 40.9687C162.533 40.733 163.55 40.7558 163.998 41.2955C163.914 41.4171 163.838 41.5616 163.724 41.6604C163.671 41.706 163.535 41.6908 163.444 41.668C163.208 41.6072 162.973 41.4931 162.738 41.4703C162.457 41.4399 162.259 41.5996 162.252 41.8124C162.237 42.0252 162.411 42.1544 162.715 42.1924C162.973 42.2228 163.231 42.2533 163.481 42.3141C163.861 42.4129 164.081 42.6713 164.111 43.0666C164.149 43.4998 164.028 43.8495 163.648 44.1003C163.125 44.4576 161.796 44.3816 161.379 43.7279Z" fill="white"/>
<path id="Vector_49" d="M130.014 33.3604C130.067 33.7404 130.021 34.0445 129.748 34.3333C129.33 34.7666 128.974 35.2606 128.594 35.7243C128.541 35.7927 128.488 35.8687 128.397 35.9903C128.708 35.9903 128.966 35.9903 129.217 35.9903C129.475 35.9903 129.733 35.9903 130.006 35.9903C130.006 36.2108 130.006 36.4008 130.006 36.6136C129.186 36.6136 128.359 36.6136 127.532 36.6136C127.486 36.2792 127.494 36.0055 127.736 35.7319C128.184 35.2378 128.587 34.7057 129.004 34.1813C129.042 34.1357 129.072 34.0825 129.148 33.9836C128.602 33.9836 128.101 33.9836 127.592 33.9836C127.592 33.7556 127.592 33.5656 127.592 33.3604C128.404 33.3604 129.201 33.3604 130.014 33.3604Z" fill="white"/>
<path id="Vector_50" d="M121.802 39.5474C121.802 39.7678 121.802 39.9655 121.802 40.1555C121.59 40.2087 121.377 40.2315 121.21 40.3303C121.134 40.3759 121.111 40.5964 121.142 40.718C121.225 41.1284 121.59 40.756 121.787 40.9992C121.787 41.0904 121.787 41.2576 121.787 41.4629C121.681 41.4705 121.559 41.4857 121.445 41.4781C121.202 41.4553 121.119 41.5389 121.126 41.7897C121.142 42.489 121.134 43.1883 121.134 43.8876C121.134 43.9864 121.134 44.0853 121.134 44.2145C120.891 44.2145 120.671 44.2145 120.421 44.2145C120.413 44.1233 120.405 44.0244 120.405 43.9256C120.405 43.2187 120.405 42.5118 120.405 41.7973C120.405 41.5997 120.405 41.4173 120.109 41.4857C120.109 41.2805 120.109 41.1132 120.109 40.9232C120.367 40.946 120.405 40.8016 120.405 40.5811C120.421 39.7602 120.922 39.3954 121.802 39.5474Z" fill="white"/>
<path id="Vector_51" d="M148.618 33.9682C148.489 33.9454 148.406 33.9301 148.314 33.9073C148.314 33.7325 148.314 33.5577 148.314 33.3829C148.337 33.3981 148.368 33.4133 148.39 33.4285C148.459 33.3221 148.588 33.2232 148.595 33.1092C148.656 32.1591 149.013 31.855 150 31.9691C150 32.1667 150 32.3643 150 32.5924C149.886 32.6 149.764 32.5772 149.673 32.6228C149.552 32.6912 149.385 32.79 149.362 32.904C149.263 33.2841 149.324 33.3449 149.711 33.3449C149.802 33.3449 149.893 33.3449 150.007 33.3449C150.007 33.5349 150.007 33.7097 150.007 33.9149C149.908 33.9225 149.81 33.9301 149.711 33.9301C149.339 33.9377 149.339 33.9301 149.339 34.3102C149.339 34.9715 149.339 35.6328 149.339 36.2941C149.339 36.3929 149.339 36.4993 149.339 36.6133C149.096 36.6133 148.876 36.6133 148.618 36.6133C148.618 35.7468 148.618 34.8651 148.618 33.9682Z" fill="white"/>
<path id="Vector_52" d="M184.028 33.3679C183.907 33.7328 183.785 34.0824 183.664 34.4321C183.429 35.1086 183.178 35.7775 182.95 36.454C182.882 36.6592 182.753 36.644 182.609 36.6288C182.442 36.6136 182.244 36.7276 182.153 36.454C181.804 35.4278 181.432 34.4017 181.053 33.3451C181.288 33.3451 181.501 33.3299 181.706 33.3527C181.774 33.3603 181.865 33.4667 181.888 33.5427C182.093 34.1432 182.29 34.7437 182.487 35.3442C182.503 35.3974 182.525 35.443 182.578 35.5494C182.768 34.9641 182.943 34.4473 183.102 33.9152C183.292 33.3147 183.284 33.3147 183.907 33.3451C183.937 33.3527 183.967 33.3603 184.028 33.3679Z" fill="white"/>
<path id="Vector_53" d="M85.9969 41.022C85.9969 41.1132 85.9969 41.2804 85.9969 41.4933C85.8527 41.4933 85.7161 41.5009 85.587 41.4933C85.3897 41.4781 85.329 41.5617 85.329 41.7517C85.3365 42.5042 85.329 43.2567 85.329 44.0168C85.329 44.0777 85.3214 44.1461 85.3138 44.2297C85.0861 44.2297 84.8735 44.2297 84.6079 44.2297C84.6079 44.0929 84.6079 43.956 84.6079 43.8192C84.6079 43.1655 84.6079 42.5194 84.6079 41.8657C84.6079 41.6453 84.623 41.4325 84.2891 41.4857C84.2891 41.288 84.2891 41.1284 84.2891 40.946C84.4561 40.9156 84.6306 40.9004 84.6079 40.642C84.5395 39.8058 85.1316 39.403 85.9817 39.555C85.9817 39.7602 85.9817 39.9731 85.9817 40.1631C85.7844 40.2087 85.5719 40.2315 85.4049 40.3303C85.329 40.3759 85.3214 40.5735 85.3365 40.6952C85.3973 41.1436 85.7844 40.7484 85.9969 41.022Z" fill="white"/>
<path id="Vector_54" d="M134.577 33.3524C134.858 33.398 134.873 33.2384 134.866 33.0332C134.858 32.7976 134.866 32.5543 134.866 32.3415C134.919 32.3187 134.927 32.3111 134.934 32.3111C135.594 32.2351 135.594 32.2351 135.594 32.8888C135.594 32.9192 135.594 32.942 135.594 32.9724C135.557 33.246 135.632 33.4056 135.951 33.3524C135.997 33.3448 136.042 33.36 136.103 33.36C136.103 33.5425 136.103 33.7173 136.103 33.9149C135.951 33.9301 135.799 33.9377 135.594 33.9529C135.594 34.1734 135.594 34.3938 135.594 34.6142C135.594 34.8955 135.594 35.1767 135.594 35.4503C135.594 35.9672 135.594 35.9672 136.118 36.0584C136.118 36.1724 136.118 36.2941 136.118 36.4081C136.118 36.4917 136.111 36.5677 136.103 36.7045C135.83 36.6817 135.572 36.6817 135.321 36.6209C135.056 36.5525 134.911 36.3245 134.896 36.0584C134.873 35.5568 134.873 35.0551 134.866 34.5534C134.866 34.371 134.866 34.181 134.866 34.0061C134.517 33.8617 134.517 33.8617 134.577 33.3524Z" fill="white"/>
<path id="Vector_55" d="M189.843 36.0582C189.843 36.2558 189.843 36.4534 189.843 36.7118C189.554 36.6814 189.281 36.6966 189.038 36.613C188.689 36.499 188.613 36.1722 188.605 35.8377C188.598 35.3132 188.605 34.7964 188.605 34.2719C188.605 34.1731 188.605 34.0667 188.605 33.9755C188.234 33.8766 188.234 33.8766 188.309 33.3598C188.575 33.3902 188.643 33.2457 188.605 33.0101C188.598 32.9645 188.605 32.9189 188.605 32.8733C188.605 32.2272 188.605 32.2272 189.327 32.3184C189.327 32.5312 189.327 32.7517 189.327 32.9645C189.327 33.337 189.327 33.337 189.683 33.3446C189.729 33.3446 189.774 33.3522 189.843 33.3522C189.843 33.5346 189.843 33.7094 189.843 33.8842C189.82 33.8994 189.805 33.9146 189.79 33.9146C189.327 33.9755 189.327 33.9754 189.327 34.4467C189.327 34.7736 189.327 35.1004 189.327 35.4273C189.319 35.9593 189.327 35.9669 189.843 36.0582Z" fill="white"/>
<path id="Vector_56" d="M154.213 44.2906C154.053 44.2906 153.924 44.2982 153.795 44.2906C153.287 44.2678 153.006 43.9941 152.991 43.4848C152.975 42.9452 152.983 42.4055 152.983 41.8658C152.983 41.6454 153.006 41.4249 152.672 41.4858C152.672 41.2881 152.672 41.1285 152.672 40.9385C152.96 40.9461 153.013 40.7712 152.991 40.528C152.975 40.338 152.991 40.1404 152.991 39.9199C153.234 39.9199 153.461 39.9199 153.712 39.9199C153.712 40.148 153.727 40.3684 153.712 40.5888C153.697 40.8245 153.757 40.9461 154.015 40.9157C154.076 40.9081 154.144 40.9233 154.22 40.9309C154.22 41.1133 154.22 41.2881 154.22 41.4553C153.712 41.5618 153.712 41.5618 153.712 42.0938C153.712 42.4207 153.712 42.7475 153.712 43.0744C153.712 43.5761 153.712 43.5761 154.213 43.6217C154.213 43.8193 154.213 44.0397 154.213 44.2906Z" fill="white"/>
<path id="Vector_57" d="M155.449 39.5244C155.684 39.5244 155.897 39.5244 156.132 39.5244C156.14 39.6308 156.147 39.7296 156.147 39.8285C156.147 40.9154 156.147 42.01 156.147 43.0969C156.147 43.5454 156.163 43.5606 156.641 43.6214C156.641 43.7962 156.648 43.9787 156.633 44.1611C156.626 44.2067 156.55 44.2903 156.497 44.2903C155.821 44.3283 155.434 44.1383 155.419 43.4542C155.396 42.1848 155.411 40.923 155.411 39.6536C155.419 39.6156 155.434 39.5776 155.449 39.5244Z" fill="white"/>
<path id="Vector_58" d="M105.119 43.6136C105.119 43.7884 105.119 43.9404 105.119 44.1001C105.119 44.1533 105.104 44.2065 105.104 44.2521C104.269 44.3965 103.904 44.0925 103.904 43.2715C103.904 42.1162 103.904 40.9608 103.904 39.8054C103.904 39.7142 103.904 39.623 103.904 39.5166C104.147 39.5166 104.367 39.5166 104.625 39.5166C104.625 39.6306 104.625 39.7446 104.625 39.851C104.625 40.9228 104.625 41.9946 104.625 43.0663C104.618 43.5376 104.641 43.5604 105.119 43.6136Z" fill="white"/>
<path id="Vector_59" d="M104.184 36.0587C104.191 36.0663 104.199 36.0739 104.199 36.0815C104.161 36.2791 104.351 36.5604 104.093 36.6744C103.774 36.8112 103.227 36.606 103.106 36.3399C103.045 36.2031 103 36.0359 103 35.8839C102.992 34.6221 102.992 33.3679 102.992 32.1061C102.992 32.0605 103 32.0149 103.007 31.9541C103.235 31.9541 103.455 31.9541 103.706 31.9541C103.706 32.0605 103.706 32.1593 103.706 32.2657C103.706 33.3299 103.706 34.3941 103.706 35.4506C103.706 35.9675 103.706 35.9675 104.184 36.0587Z" fill="white"/>
<path id="Vector_60" d="M179.042 33.3604C179.057 33.4364 179.065 33.5124 179.088 33.6037C179.133 33.5732 179.164 33.5656 179.194 33.5428C179.543 33.2236 179.961 33.1628 180.371 33.3604C180.614 33.482 180.621 33.5504 180.477 33.7785C180.333 33.9989 180.211 34.1205 179.9 33.9761C179.475 33.7861 179.118 34.0673 179.088 34.5614C179.057 35.1011 179.073 35.6408 179.065 36.1804C179.065 36.3173 179.065 36.4541 179.065 36.6137C178.815 36.6137 178.587 36.6137 178.352 36.6137C178.352 35.5267 178.352 34.455 178.352 33.3528C178.572 33.3604 178.792 33.3604 179.042 33.3604Z" fill="white"/>
<path id="Vector_61" d="M97.0338 36.6211C96.7681 36.6211 96.5556 36.6211 96.3203 36.6211C96.3203 35.5265 96.3203 34.4547 96.3203 33.3602C96.5556 33.3602 96.7681 33.3602 97.0035 33.3602C97.0262 33.4362 97.0414 33.5122 97.0718 33.6034C97.4513 33.2614 97.846 33.1245 98.309 33.3526C98.4229 33.4134 98.6278 33.4438 98.5367 33.6566C98.4001 33.9759 98.2027 34.1051 97.9902 34.0139C97.4816 33.801 97.1021 34.0063 97.0642 34.5536C97.0262 35.0932 97.0414 35.6329 97.0338 36.1726C97.0338 36.317 97.0338 36.4538 97.0338 36.6211Z" fill="white"/>
<path id="Vector_62" d="M112.063 36.6282C111.805 36.6282 111.593 36.6282 111.357 36.6282C111.357 35.5412 111.357 34.4619 111.357 33.3597C111.585 33.3597 111.805 33.3597 112.033 33.3597C112.056 33.4357 112.071 33.5117 112.101 33.6105C112.481 33.2685 112.876 33.1317 113.339 33.3521C113.452 33.4129 113.657 33.4509 113.566 33.6561C113.422 33.983 113.232 34.1046 113.02 34.0134C112.519 33.8006 112.139 34.0058 112.101 34.5607C112.063 35.108 112.079 35.6628 112.071 36.2101C112.056 36.3393 112.063 36.4686 112.063 36.6282Z" fill="white"/>
<path id="Vector_63" d="M97.0332 44.2148C97.0332 43.1202 97.0332 42.0257 97.0332 40.9159C97.2685 40.9159 97.4886 40.9159 97.7163 40.9159C97.7315 41.0071 97.7391 41.0831 97.7543 41.2123C97.8454 41.1211 97.9137 41.0451 97.9972 40.9843C98.2553 40.7943 98.8397 40.7867 99.1054 40.9691C99.2496 41.0679 99.3027 41.1819 99.1661 41.334C99.0674 41.4404 98.9764 41.562 98.8929 41.6684C98.111 41.3264 97.7467 41.562 97.7391 42.3981C97.7315 42.9758 97.7391 43.5535 97.7315 44.1312C97.7315 44.1464 97.7239 44.1692 97.7163 44.2148C97.4962 44.2148 97.2761 44.2148 97.0332 44.2148Z" fill="white"/>
<path id="Vector_64" d="M149.773 40.9078C150.024 40.9078 150.229 40.9078 150.457 40.9078C150.472 41.0066 150.479 41.0903 150.502 41.2271C150.76 40.9002 151.071 40.7938 151.428 40.847C151.572 40.8698 151.717 40.9078 151.846 40.9762C151.997 41.0598 152.051 41.1891 151.914 41.3411C151.815 41.4475 151.724 41.5691 151.625 41.6907C151.55 41.6527 151.496 41.6147 151.443 41.5919C150.92 41.3715 150.525 41.6147 150.495 42.2152C150.464 42.7853 150.487 43.3478 150.479 43.9179C150.479 44.0167 150.479 44.1155 150.479 44.2295C150.229 44.2295 150.009 44.2295 149.773 44.2295C149.773 43.1197 149.773 42.0252 149.773 40.9078Z" fill="white"/>
<path id="Vector_65" d="M154.646 33.3522C154.882 33.3522 155.094 33.3522 155.322 33.3522C155.337 33.4358 155.345 33.5118 155.368 33.6106C155.747 33.2838 156.142 33.1241 156.605 33.3522C156.726 33.413 156.916 33.451 156.84 33.6638C156.726 33.9603 156.499 34.1123 156.294 34.0211C155.808 33.8158 155.443 33.9907 155.383 34.5075C155.33 34.918 155.352 35.3437 155.345 35.7617C155.337 36.043 155.345 36.3166 155.345 36.6207C155.11 36.6207 154.889 36.6207 154.646 36.6207C154.646 35.5413 154.646 34.4619 154.646 33.3522Z" fill="white"/>
<path id="Vector_66" d="M137.863 36.6288C137.628 36.6288 137.415 36.6288 137.18 36.6288C137.18 35.5419 137.18 34.4625 137.18 33.3604C137.407 33.3604 137.62 33.3604 137.863 33.3604C137.863 34.4473 137.863 35.5267 137.863 36.6288Z" fill="white"/>
<path id="Vector_67" d="M125.719 33.3604C125.954 33.3604 126.167 33.3604 126.409 33.3604C126.409 34.4473 126.409 35.5267 126.409 36.6212C126.174 36.6212 125.962 36.6212 125.719 36.6212C125.719 35.5419 125.719 34.4549 125.719 33.3604Z" fill="white"/>
<path id="Vector_68" d="M167.837 44.2219C167.602 44.2219 167.382 44.2219 167.154 44.2219C167.154 43.1198 167.154 42.0404 167.154 40.9307C167.374 40.9307 167.602 40.9307 167.837 40.9307C167.837 42.0252 167.837 43.1198 167.837 44.2219Z" fill="white"/>
<path id="Vector_69" d="M191.642 33.3672C191.642 34.4617 191.642 35.5335 191.642 36.6281C191.407 36.6281 191.194 36.6281 190.951 36.6281C190.951 35.5411 190.951 34.4693 190.951 33.3672C191.171 33.3672 191.391 33.3672 191.642 33.3672Z" fill="white"/>
<path id="Vector_70" d="M126.456 31.9609C126.425 32.2118 126.471 32.4854 126.357 32.645C126.289 32.7439 125.871 32.7439 125.803 32.6526C125.681 32.4854 125.712 32.2118 125.674 31.9609C125.947 31.9609 126.167 31.9609 126.456 31.9609Z" fill="white"/>
<path id="Vector_71" d="M137.119 31.9541C137.415 31.9541 137.62 31.9541 137.893 31.9541C137.871 32.1973 137.916 32.4634 137.81 32.6382C137.749 32.7294 137.324 32.7446 137.256 32.6534C137.134 32.4862 137.157 32.2125 137.119 31.9541Z" fill="white"/>
<path id="Vector_72" d="M167.162 39.5244C167.397 39.5244 167.61 39.5244 167.838 39.5244C167.838 39.76 167.838 39.9729 167.838 40.2161C167.618 40.2161 167.397 40.2161 167.162 40.2161C167.162 39.9805 167.162 39.7524 167.162 39.5244Z" fill="white"/>
<path id="Vector_73" d="M190.951 32.6602C190.951 32.4246 190.951 32.2042 190.951 31.9609C191.179 31.9609 191.391 31.9609 191.634 31.9609C191.634 32.1814 191.634 32.4094 191.634 32.6602C191.414 32.6602 191.194 32.6602 190.951 32.6602Z" fill="white"/>
</g>
<g id="Group 63">
<path id="Vector_74" d="M29.5729 43.7019C28.428 43.6904 27.2808 43.7915 26.1382 43.6674C25.7413 43.6237 25.3421 43.557 24.9635 43.4099C24.3647 43.1753 23.9884 42.7201 23.7406 42.1476C23.3483 41.244 23.2038 40.2806 23.0822 39.3149C22.9009 37.8755 22.7587 36.4339 22.5843 34.9946C22.4673 34.022 22.1369 33.1666 21.3522 32.5022C20.4253 31.7158 19.9114 30.6536 19.5122 29.5246C19.285 28.8854 19.0005 28.2715 18.5807 27.7266C18.3879 27.476 18.1631 27.2598 17.9107 27.0874C16.7452 26.2965 16.2198 25.1422 15.9697 23.8064C15.7609 22.6889 15.6622 21.5531 15.3708 20.4494C15.1093 19.4608 14.6183 18.6468 13.7579 18.049C13.0306 17.5432 12.6566 16.7706 12.4042 15.9406C12.0922 14.9128 11.7641 13.8942 11.1263 13.009C10.867 12.6503 10.5389 12.3629 10.1948 12.0893C9.44223 11.4892 8.80211 10.7948 8.42355 9.89353C7.9532 8.77379 8.11611 7.71613 8.81359 6.74355C9.54778 5.71808 10.5642 5.09728 11.7825 4.84666C12.5144 4.6972 13.2646 4.7087 13.9438 5.09728C14.795 5.58702 15.1437 6.38946 15.2607 7.32066C15.3433 7.96445 15.325 8.61055 15.1896 9.23825C14.9923 10.1465 15.1001 11.0294 15.325 11.9054C15.754 13.5632 16.4102 15.1312 17.2706 16.612C17.3899 16.8166 17.5367 17.0051 17.6836 17.1914C17.7203 17.2374 17.773 17.3316 17.8602 17.2857C17.9245 17.2512 17.9084 17.1707 17.9038 17.1086C17.8878 16.7936 17.7937 16.4947 17.6858 16.2027C17.4931 15.6785 17.3187 15.145 17.0916 14.6346C16.5455 13.4137 16.5295 12.1376 16.7016 10.8523C16.8989 9.3739 17.4862 8.07252 18.6242 7.07004C19.6383 6.17793 20.8016 5.77786 22.1713 5.89282C24.211 6.06297 24.819 8.23807 24.0687 9.66821C23.6145 10.535 22.8757 11.0455 21.9855 11.3743C21.7881 11.4478 21.5885 11.5099 21.4004 11.5996C21.0769 11.7559 20.8291 11.9928 20.7327 12.3537C20.3611 13.7287 20.2601 15.1175 20.5469 16.5223C20.6088 16.8281 20.7075 17.1224 20.8543 17.4029C21.0104 17.6995 21.2627 17.8237 21.5771 17.8053C22.3916 17.7593 22.956 17.373 23.0363 16.4786C23.0936 15.8486 23.0959 15.2117 23.2313 14.5909C23.2703 14.4116 23.3047 14.2276 23.3758 14.0621C23.7246 13.2482 24.2064 13.1102 24.9704 13.3355C26.1566 13.685 26.9665 14.4829 27.3221 15.6854C27.5355 16.4096 27.4047 17.1224 27.1501 17.8168C26.8013 18.771 26.2392 19.6079 25.6679 20.4356C25.0301 21.3599 24.3096 22.2314 23.8209 23.2522C23.6122 23.6891 23.4814 24.1375 23.6144 24.6341C23.6741 24.8525 23.7865 24.9123 23.9861 24.8939C24.1697 24.8778 24.3441 24.8318 24.5184 24.772C25.0392 24.5927 25.3857 24.7514 25.6014 25.2549C25.7803 25.6711 25.9455 25.6964 26.2461 25.3607C26.5696 24.9997 26.7898 24.5789 26.9619 24.1329C27.2372 23.4201 27.625 22.7855 28.2009 22.282C29.5912 21.0702 31.2019 21.5209 32.0783 22.9694C33.1268 24.7031 32.84 26.416 31.7502 28.0324C30.9885 29.1613 29.9377 29.9316 28.6804 30.442C28.1183 30.6697 27.5768 30.9548 27.1202 31.3755C26.3218 32.1113 26.0511 33.0172 26.2644 34.068C26.3769 34.6175 26.7462 34.7738 27.2487 34.5255C27.6548 34.3232 27.9118 33.9622 28.2261 33.6587C28.5358 33.3598 28.8846 33.1207 29.293 32.9689C29.9698 32.716 30.5663 33.1529 30.8485 33.661C31.3028 34.4795 31.3831 35.367 31.2982 36.2776C31.1789 37.5628 30.6834 38.6803 29.761 39.5954C29.644 39.7103 29.5408 39.8391 29.4352 39.9656C29.3779 40.0345 29.2953 40.115 29.3503 40.2093C29.41 40.3105 29.5132 40.2415 29.6004 40.2323C30.018 40.184 30.4126 40 30.8417 40.0322C31.4198 40.0759 31.8856 40.299 32.1288 40.8554C32.3376 41.3359 32.4477 41.8303 32.2848 42.3545C32.2114 42.5913 32.2527 42.8029 32.4248 42.9914C32.5555 43.1316 32.6748 43.2834 32.7919 43.4328C32.8469 43.5041 32.9249 43.5892 32.8745 43.6789C32.8286 43.7593 32.723 43.7157 32.645 43.7157C31.7089 43.7111 30.7751 43.7042 29.839 43.6973C29.7564 43.7019 29.6647 43.7019 29.5729 43.7019Z" fill="#EE3E52"/>
<path id="Vector_75" d="M50.961 32.1001C50.7086 31.4333 50.4608 30.8562 50.2911 30.2492C50.2268 30.0193 50.1695 29.7871 50.1351 29.5525C50.0639 29.0766 50.2773 28.8444 50.7591 28.849C50.8211 28.849 50.883 28.849 50.9771 28.849C50.7316 28.3937 50.4838 27.9707 50.3071 27.5108C50.1557 27.1153 50.0272 26.7153 49.9882 26.2899C49.9331 25.6599 50.1993 25.3104 50.8211 25.2046C50.9931 25.1748 50.9496 25.1012 50.9014 25.0023C50.6375 24.4758 50.4218 23.9331 50.2865 23.3606C50.2085 23.0295 50.1557 22.6938 50.1763 22.3513C50.1993 21.9788 50.3278 21.673 50.7224 21.5557C50.8715 21.512 50.8257 21.427 50.7844 21.3258C50.5274 20.7073 50.2773 20.0865 50.1786 19.4197C50.0731 18.7161 50.3324 18.1781 50.9128 17.893C50.3002 17.3573 49.8941 16.7227 49.963 15.8696C49.9676 15.8214 49.9722 15.7708 49.9263 15.7478C49.8437 15.7087 49.7955 15.7708 49.7381 15.8191C49.2839 16.2145 48.8732 16.6537 48.4923 17.1204C46.9276 19.038 45.7987 21.2016 44.8879 23.4894C44.7502 23.8366 44.5483 23.9814 44.2592 23.9423C43.961 23.901 43.7981 23.7193 43.7613 23.3468C43.6329 22.0868 43.8049 20.8567 44.1445 19.645C44.6722 17.755 45.5853 16.0536 46.6775 14.4372C46.7233 14.3682 46.8404 14.2969 46.7669 14.2073C46.705 14.1337 46.5926 14.182 46.5077 14.2142C45.5899 14.5591 44.663 14.8833 43.759 15.2626C42.7128 15.6995 41.6597 16.1272 40.6502 16.6468C40.4116 16.7687 40.1798 16.8054 39.9619 16.6261C39.7302 16.4353 39.6935 16.1731 39.7715 15.9018C39.9022 15.4535 40.0628 15.0143 40.2579 14.589C40.9278 13.122 41.9029 11.9241 43.3369 11.1516C43.9564 10.8182 44.624 10.5997 45.3238 10.494C45.388 10.4848 45.45 10.471 45.5119 10.4549C45.567 10.4411 45.6175 10.4135 45.6152 10.3491C45.6152 10.2916 45.5601 10.2824 45.5188 10.2663C45.1219 10.1077 44.7296 9.93985 44.3303 9.7904C43.4631 9.4662 42.5935 9.1443 41.7194 8.8339C41.3339 8.69595 40.9439 8.57179 40.547 8.46832C40.251 8.39015 40.0973 8.20391 40.0399 7.9234C39.9848 7.65208 40.111 7.39917 40.3588 7.25201C41.4945 6.57373 42.7495 6.33921 44.0458 6.26333C44.9269 6.21045 45.8033 6.30242 46.6798 6.38059C46.7486 6.38749 46.8335 6.42658 46.8771 6.33921C46.9115 6.27253 46.8473 6.21964 46.8151 6.16676C46.2737 5.29764 45.7138 4.44232 44.9957 3.70655C44.7869 3.49272 44.7227 3.2398 44.819 2.9478C44.9085 2.66959 45.1219 2.57302 45.3834 2.55002C47.0285 2.39827 48.4189 2.88802 49.4857 4.1917C49.5683 4.29286 49.628 4.4883 49.7657 4.46071C49.9102 4.43082 49.8758 4.23078 49.9056 4.10203C50.197 2.92021 50.4769 1.73379 51.0299 0.63474C51.2249 0.246165 51.53 0.00704173 51.9476 0.000143945C52.3789 -0.00675384 52.6956 0.234669 52.8929 0.63474C53.4458 1.74298 53.7372 2.9363 54.0194 4.13192C54.0469 4.25148 54.0148 4.43772 54.1502 4.46761C54.2832 4.4975 54.336 4.31586 54.414 4.22159C55.4396 2.9432 56.7933 2.44196 58.3947 2.53163C58.6884 2.54772 58.9867 2.59601 59.0991 2.9432C59.2092 3.27889 59.0968 3.53871 58.8582 3.78473C58.163 4.5044 57.6215 5.33903 57.0984 6.18516C57.0686 6.23574 57.002 6.29092 57.0548 6.3576C57.1007 6.41278 57.1718 6.38749 57.2361 6.38289C58.0666 6.31391 58.8972 6.22884 59.7323 6.25873C60.8933 6.30012 62.0152 6.51855 63.0821 6.983C63.2725 7.06577 63.4538 7.17384 63.6258 7.2934C63.8507 7.44745 63.931 7.67738 63.8782 7.94409C63.8255 8.20391 63.6809 8.39015 63.4125 8.46142C62.6209 8.67066 61.8569 8.96726 61.0883 9.24317C60.2509 9.54438 59.4226 9.86627 58.5897 10.179C58.5737 10.1859 58.5507 10.1859 58.5393 10.1974C58.4704 10.264 58.3052 10.2411 58.3167 10.3629C58.3282 10.4779 58.4704 10.4756 58.5668 10.4894C59.223 10.5813 59.8425 10.7906 60.4321 11.0803C61.7743 11.7379 62.7265 12.7886 63.4239 14.09C63.7107 14.6257 63.9356 15.1845 64.1145 15.7639C64.1513 15.8857 64.1903 16.0145 64.1903 16.1387C64.1971 16.6192 63.7497 16.8813 63.3092 16.6629C62.3662 16.1961 61.398 15.7846 60.4229 15.3845C59.4387 14.9798 58.4475 14.6027 57.4517 14.2303C57.3577 14.1958 57.2384 14.1291 57.1695 14.2073C57.0846 14.3038 57.2154 14.3843 57.2659 14.4602C58.3718 16.1019 59.2895 17.8332 59.8126 19.7554C60.1293 20.9165 60.2715 22.0937 60.1728 23.2963C60.1293 23.8136 59.7943 24.0642 59.3698 23.8964C59.2138 23.8343 59.1266 23.7193 59.067 23.5676C58.42 21.9305 57.6605 20.3486 56.7015 18.8702C55.9948 17.7803 55.2056 16.7572 54.2488 15.8719C54.1846 15.8122 54.1158 15.688 53.9965 15.7547C53.9093 15.803 53.9643 15.9064 53.9666 15.9823C53.9942 16.7916 53.5903 17.3872 53.0145 17.8976C53.5513 18.1666 53.8221 18.6724 53.7624 19.2656C53.689 19.9876 53.4229 20.6521 53.1452 21.3097C53.0833 21.4568 53.0764 21.5212 53.2531 21.581C53.5995 21.696 53.7257 21.9857 53.7441 22.3283C53.7808 23.0525 53.5697 23.7239 53.3058 24.3838C53.221 24.5953 53.1269 24.8046 53.0214 25.0069C52.9525 25.1403 52.9548 25.1931 53.1223 25.2115C53.6844 25.2736 54.0056 25.7059 53.9391 26.2899C53.8726 26.8693 53.6798 27.4119 53.4297 27.9362C53.2852 28.2397 53.1315 28.5363 52.925 28.8536C53.0856 28.8536 53.2003 28.849 53.3127 28.8536C53.6018 28.8697 53.7991 29.0789 53.7945 29.3778C53.7854 29.8997 53.5949 30.3803 53.4297 30.8654C53.2967 31.2517 53.1406 31.6334 52.9823 32.0518C53.1452 31.9944 53.2737 31.9392 53.4091 31.907C53.6041 31.861 53.7395 31.9415 53.7601 32.1461C53.8542 33.0704 53.354 34.3281 52.6405 34.7535C52.0898 35.0823 51.3373 34.9627 50.9266 34.4615C50.4218 33.8453 50.1603 33.1371 50.1557 32.337C50.1534 31.9231 50.3484 31.7897 50.727 31.9622C50.7775 31.9875 50.8302 32.0243 50.961 32.1001Z" fill="white"/>
<path id="Vector_76" d="M15.4585 43.7225C13.3683 43.7225 11.2759 43.7225 9.1857 43.7225C8.83925 43.7225 8.58916 43.5547 8.58916 43.219C8.58687 42.4188 8.18306 41.8118 7.72648 41.2163C7.00835 40.2805 6.24204 39.3838 5.46425 38.4963C4.75759 37.6939 4.15648 36.8201 3.90869 35.7556C3.71596 34.9302 3.90869 34.2174 4.54193 33.6311C5.09487 33.1183 5.83594 33.139 6.47377 33.6748C7.43511 34.4795 8.04999 35.5372 8.66717 36.5971C8.99756 37.1627 9.23618 37.7881 9.74552 38.2411C10.0667 38.5262 10.2732 38.5032 10.4155 38.0962C10.6495 37.4272 10.6977 36.7282 10.622 36.0292C10.4774 34.6933 9.99789 33.4908 9.07556 32.4906C8.44232 31.8055 7.69896 31.3594 6.71927 31.4307C6.30858 31.4606 5.90707 31.4307 5.52391 31.2237C4.64747 30.7501 4.72318 29.7614 5.14763 29.1912C5.891 28.1933 7.0726 28.0968 8.0064 28.9268C8.7796 29.612 9.36465 30.4535 10.0208 31.2375C10.3191 31.5939 10.6036 31.9664 11.0304 32.1871C11.5213 32.4401 12.049 32.1067 12.033 31.5548C12.0215 31.1732 11.8448 30.849 11.6567 30.534C11.2736 29.8948 10.8009 29.32 10.2801 28.7957C9.62162 28.1335 9.23617 27.3564 9.09851 26.4344C8.99527 25.74 8.80942 25.0686 8.26566 24.5628C7.52 23.8707 6.64585 23.6454 5.65928 23.85C5.34037 23.9167 5.01686 23.9972 4.71401 24.1167C4.00505 24.3972 3.46129 24.0914 2.97718 23.6316C1.60286 22.3302 1.21511 20.569 1.89424 18.7962C2.00896 18.495 2.16038 18.2122 2.36688 17.9639C3.02077 17.1707 3.71596 17.1477 4.54881 17.6351C5.15222 17.9869 5.7717 18.1065 6.42788 17.8237C6.89593 17.6236 7.00836 17.1109 6.70321 16.7085C6.28105 16.1521 5.67993 15.9061 5.0398 15.7336C4.31249 15.5382 3.55307 15.5428 2.82117 15.391C0.662181 14.9473 -0.46664 13.4022 0.182662 11.1397C0.352444 10.5488 0.875554 10.2959 1.3849 10.0568C2.20169 9.67278 3.05519 9.63139 3.89492 9.9027C4.90444 10.2292 5.74875 10.804 6.22368 11.8065C6.75597 12.9285 7.13684 14.108 7.47411 15.2968C7.75861 16.2946 8.23125 17.1316 9.09851 17.7225C9.62621 18.0812 9.81206 18.6031 9.80288 19.217C9.79829 19.5757 9.79599 19.9321 9.79599 20.2908C9.79599 21.2932 10.0736 21.6404 11.0556 21.8359C11.3974 21.9025 11.6338 22.0842 11.8013 22.3785C12.6135 23.8086 12.8888 25.3606 12.8521 26.9862C12.836 27.7105 12.7718 28.4347 12.8819 29.1567C12.976 29.766 13.2283 30.2971 13.6712 30.7225C14.0841 31.1226 14.5407 31.4606 15.0914 31.6698C15.4309 31.7986 15.6305 32.0975 15.7659 32.4309C16.0045 33.0126 16.0527 33.6265 16.0091 34.2427C15.9127 35.5946 16.3854 36.4661 17.6037 37.1007C17.9088 37.2593 18.2255 37.3996 18.5375 37.549C19.43 37.9744 20.1068 38.6665 20.7538 39.3884C21.5155 40.2414 22.0754 41.2094 22.2796 42.3545C22.3232 42.5982 22.3438 42.8465 22.3484 43.0925C22.3576 43.4995 22.1304 43.7179 21.7266 43.7179C19.6411 43.7225 17.5486 43.7225 15.4585 43.7225Z" fill="#FAAC38"/>
<path id="Vector_77" d="M67.9858 41.111C67.4329 40.6236 66.9465 40.1706 66.5243 39.6556C66.015 39.0394 65.5676 38.3841 65.345 37.6001C65.0605 36.5999 65.3404 35.7699 66.1136 35.1054C66.7492 34.5581 67.4948 34.1995 68.3277 34.119C69.2087 34.0339 69.959 34.3857 70.5348 35.0502C71.4342 36.0872 71.7761 37.3104 71.5535 38.6554C71.3654 39.7867 71.8266 40.5868 72.6778 41.2421C73.0426 41.5226 73.4831 41.6537 73.8915 41.8514C74.3182 42.0583 74.7358 42.2814 75.0341 42.6722C75.2016 42.8907 75.2566 43.1206 75.1304 43.3643C75.0111 43.5965 74.823 43.723 74.5385 43.723C70.5876 43.7184 66.6345 43.7483 62.6836 43.7C61.7291 43.6885 60.8343 43.2884 60.1368 42.5826C59.7009 42.1388 59.5243 41.5778 59.6183 40.9639C59.7743 39.9338 60.2355 39.0555 61.0408 38.3818C61.5869 37.9243 62.2109 37.9174 62.8442 38.1657C63.7665 38.5244 64.5076 39.1636 65.2762 39.7614C65.8567 40.212 66.4257 40.6903 67.1186 40.9662C67.3664 41.0651 67.6279 41.1501 67.9858 41.111Z" fill="#1FC1E3"/>
<path id="Vector_78" d="M62.9526 25.1887C62.9595 24.7656 63.0054 24.3472 63.0788 23.931C63.2509 22.9653 63.1063 22.0364 62.7599 21.1259C62.4892 20.4154 62.1863 19.7188 61.8008 19.0635C61.7045 18.9002 61.6563 18.7416 61.7756 18.5783C61.8949 18.4151 62.0762 18.376 62.2643 18.3967C63.5836 18.5415 64.873 18.8243 66.0844 19.3785C67.8442 20.1855 69.2323 21.4041 70.1018 23.163C70.4162 23.7999 70.4712 24.4989 70.5676 25.1887C70.7442 26.451 70.9232 27.7133 71.3844 28.9112C71.4394 29.0561 71.5106 29.1963 71.584 29.332C71.6551 29.4607 71.701 29.5826 71.6069 29.7159C71.506 29.8585 71.3568 29.8654 71.21 29.824C70.5882 29.6493 70.0445 29.3297 69.5397 28.9296C68.7436 28.2996 68.4201 27.3661 67.9658 26.5154C67.6515 25.9268 67.3532 25.3289 66.9471 24.7932C66.7957 24.5932 66.6259 24.4207 66.3964 24.315C66.2909 24.2667 66.1762 24.246 66.0867 24.3265C65.9972 24.4069 66.0844 24.4966 66.1096 24.5771C66.2909 25.1289 66.4377 25.683 66.3964 26.2716C66.3276 27.235 65.8091 27.5523 65.0061 27.6213C63.8314 27.7248 63.0903 27.0465 62.9756 25.7934C62.9618 25.5934 62.9618 25.391 62.9526 25.1887Z" fill="#20C1E3"/>
<path id="Vector_79" d="M55.2457 40.8324C55.6449 41.1267 55.9478 41.4693 56.3654 41.6693C56.7164 41.8372 56.9321 41.7705 57.1064 41.4279C57.1546 41.3314 57.2028 41.2302 57.2395 41.1267C57.3932 40.6968 57.8016 40.6761 58.132 40.9083C58.9075 41.4486 58.9603 42.212 58.2903 42.8742C57.9278 43.2328 57.5079 43.495 57.0353 43.6697C56.6154 43.8237 56.2254 43.6835 55.8445 43.5134C55.3237 43.2811 54.8947 42.9132 54.461 42.5546C54.3991 42.504 54.3395 42.4511 54.2591 42.3844C54.172 42.8374 53.993 43.2029 53.5571 43.3386C52.9123 43.5409 52.3273 43.1225 52.2424 42.4419C52.1828 41.9659 52.4076 41.605 52.6944 41.2785C52.855 41.0968 52.7953 41.0187 52.6485 40.8784C50.8222 39.1425 48.9959 37.4065 47.1099 35.7372C45.8848 34.6543 44.6366 33.5989 43.2646 32.7022C42.005 31.8791 40.6628 31.2307 39.2518 30.7065C38.3065 30.3547 37.3566 30.0167 36.3999 29.6994C36.2554 29.6511 36.0925 29.589 36.1131 29.3867C36.1338 29.1867 36.2967 29.1614 36.4481 29.1246C37.5517 28.8602 38.6415 28.9751 39.7336 29.2234C40.9335 29.4971 42.0371 30.0052 43.0948 30.6099C44.1135 31.1916 45.029 31.9251 45.9375 32.6654C47.9589 34.314 49.9297 36.0247 51.8914 37.7422C52.5407 38.3101 53.1579 38.9171 53.7819 39.5172C53.9196 39.6506 53.9723 39.6184 54.0664 39.4781C54.2133 39.2597 54.3716 39.0436 54.5528 38.8504C54.8098 38.5791 55.1585 38.5331 55.4935 38.6205C55.8767 38.7194 56.0969 39.0229 56.1933 39.3954C56.3654 40.0576 55.9707 40.6761 55.2457 40.8324Z" fill="white"/>
<path id="Vector_80" d="M35.1808 10.1211C36.4496 10.1625 37.6266 10.2889 38.7692 10.6522C39.0101 10.7281 39.1202 10.8753 39.134 11.1029C39.15 11.3328 39.0445 11.5029 38.8288 11.6041C38.2782 11.8616 37.7367 12.1352 37.2273 12.4732C36.2775 13.1032 35.7016 13.9701 35.4653 15.076C35.3919 15.4163 35.3162 15.7589 35.1945 16.0831C34.7609 17.2511 33.8248 17.8305 32.6891 18.157C31.8632 18.3961 31.1014 18.2329 30.4636 17.6719C29.8212 17.1039 29.4977 16.3475 29.4036 15.5014C29.2545 14.1517 29.7432 12.9998 30.5691 11.9766C31.3584 10.9971 32.4207 10.4913 33.6436 10.2613C34.185 10.1602 34.7219 10.174 35.1808 10.1211Z" fill="#EE3F53"/>
<path id="Vector_81" d="M37.596 25.5815C37.596 25.0986 37.713 24.6365 37.8851 24.1881C37.9516 24.0134 37.892 23.9858 37.7382 23.9858C37.557 23.9858 37.4308 24.0801 37.3138 24.2019C36.8411 24.6986 36.5544 25.3171 36.2263 25.908C35.9051 26.4897 35.6825 27.1289 35.258 27.6554C34.7257 28.3176 34.0306 28.7269 33.2344 28.9844C33.1151 29.0235 33.021 28.9982 32.9385 28.9039C32.865 28.8211 32.8283 28.7223 32.8788 28.6257C33.5579 27.2875 33.7094 25.8206 33.8883 24.3698C34.0191 23.3075 34.455 22.4108 35.1364 21.613C35.9234 20.691 36.871 19.9989 37.986 19.5091C39.0001 19.0631 40.0693 18.8607 41.1454 18.663C41.2257 18.6492 41.3106 18.6515 41.3932 18.6515C41.774 18.6561 41.9392 18.9297 41.7511 19.2562C41.3496 19.9575 41.0283 20.6956 40.7714 21.4612C40.5236 22.1993 40.4708 22.9465 40.6085 23.7122C40.7232 24.356 40.7691 25.0067 40.6337 25.6528C40.4043 26.7357 39.7229 27.0737 38.7225 26.9518C37.9149 26.8576 37.5914 26.4299 37.596 25.5815Z" fill="#EE3F53"/>
<path id="Vector_82" d="M40.5129 40.9249C40.7079 41.4698 41.1209 41.8745 41.4353 42.3412C41.488 42.4194 41.6211 42.4838 41.5637 42.5895C41.5087 42.6907 41.3779 42.6332 41.2861 42.624C39.8063 42.4999 38.4709 42.0101 37.3008 41.0766C36.8695 40.7317 36.4519 40.3846 36.1881 39.8879C35.9816 39.5016 35.8944 39.097 36.0183 38.6693C36.055 38.5383 36.0321 38.4578 35.9288 38.3589C35.7636 38.2003 35.6512 38.0002 35.6145 37.7611C35.5915 37.6231 35.5961 37.4645 35.4378 37.3794C35.4034 37.361 35.3896 37.2852 35.3828 37.2323C35.3323 36.7586 35.447 36.3218 35.7017 35.924C35.8347 35.7148 36.0366 35.7653 36.2202 35.8228C37.1999 36.1378 37.6955 36.8552 37.6633 37.8922C37.661 37.9542 37.6633 38.014 37.6633 38.1175C37.7872 37.9473 37.7826 37.7887 37.7804 37.6392C37.7781 37.4875 37.7551 37.338 37.7368 37.1495C37.957 37.2875 38.0671 37.4599 38.0717 37.6783C38.0832 38.1359 38.3149 38.4578 38.6843 38.6877C38.8541 38.7935 38.8839 38.8854 38.7853 39.0602C38.6407 39.3154 38.5994 39.5936 38.6774 39.9431C38.7532 39.7109 38.799 39.5223 38.877 39.3453C39.2074 38.6072 39.8086 38.1727 40.5336 37.8853C41.9194 37.3357 43.3648 37.2989 44.8263 37.3725C45.0833 37.3863 45.3402 37.384 45.5949 37.3886C45.666 37.3909 45.7509 37.3771 45.7739 37.4714C45.7968 37.568 45.7142 37.5864 45.6523 37.6254C44.8171 38.1451 43.9017 38.4601 42.9587 38.7153C42.2543 38.9061 41.5224 38.8647 40.8112 38.982C40.5818 39.0188 40.3867 39.1108 40.2445 39.32C40.4028 39.2671 40.5588 39.2073 40.7194 39.1636C41.2265 39.0211 41.371 39.097 41.6096 39.5614C41.8827 40.0949 42.0777 40.6559 42.236 41.2307C42.3438 41.6216 42.4861 41.9963 42.782 42.2929C42.8578 42.3688 42.9013 42.4608 42.8486 42.5666C42.7912 42.6815 42.6788 42.6631 42.5824 42.6539C42.096 42.5987 41.7702 42.27 41.4398 41.9573C41.1003 41.6354 40.8525 41.2376 40.5588 40.8766C40.5382 40.872 40.5175 40.8697 40.4969 40.8651C40.4969 40.8835 40.506 40.9042 40.5129 40.9249ZM40.1458 39.3154C40.1275 39.3384 40.0977 39.3614 40.0908 39.3913C40.0862 39.4143 40.116 39.4373 40.1458 39.4189C40.1665 39.4074 40.1894 39.389 40.2009 39.366C40.2192 39.3269 40.1825 39.3292 40.1458 39.3154Z" fill="#EE4054"/>
<path id="Vector_83" d="M65.7962 28.9688C66.1908 28.9871 66.6474 29.0009 67.0902 29.132C67.2302 29.1734 67.3793 29.2194 67.3862 29.4079C67.3931 29.6056 67.2531 29.6447 67.1017 29.6723C66.6336 29.7574 66.1656 29.8218 65.7044 29.9436C64.9564 30.1437 64.22 30.3621 63.5087 30.6748C62.825 30.976 62.1665 31.3186 61.5379 31.7141C60.2416 32.5257 59.0439 33.4684 57.8807 34.4571C56.5844 35.5561 55.3133 36.6874 54.0789 37.8554C53.7761 38.1405 53.604 38.129 53.3379 37.8071C53.1864 37.6255 53.0166 37.4599 52.8606 37.2806C52.6495 37.0415 52.645 36.8529 52.8813 36.6414C53.4985 36.0919 54.1225 35.5492 54.7535 35.0135C56.1094 33.8593 57.4608 32.7004 58.881 31.6267C59.9502 30.8174 61.1042 30.1575 62.3524 29.6631C63.4353 29.2309 64.5618 28.9848 65.7962 28.9688Z" fill="white"/>
<path id="Vector_84" d="M49.3668 42.3798C48.9102 42.7569 48.5018 43.134 48.0085 43.3938C47.7103 43.5501 47.412 43.7111 47.0632 43.7249C46.4415 43.7479 45.9757 43.403 45.5237 43.0489C45.3035 42.8765 45.1108 42.6672 44.9823 42.4051C44.6794 41.7935 45.1039 40.9267 45.7738 40.7841C46.0514 40.7243 46.2373 40.8209 46.3566 41.0646C46.4254 41.2049 46.4736 41.3543 46.5493 41.4877C46.703 41.7636 46.9348 41.8303 47.2216 41.69C47.6575 41.4785 48.0108 41.1543 48.4146 40.837C47.9512 40.7519 47.6185 40.5335 47.4739 40.1127C47.3317 39.7012 47.3661 39.3057 47.6575 38.947C48.0062 38.5171 48.628 38.4297 48.9974 38.8344C49.8256 39.7426 50.6585 40.6485 51.4271 41.6096C51.7162 41.9705 51.6267 42.5523 51.1151 43.0811C50.7686 43.4398 50.2295 43.495 49.8394 43.2213C49.5549 43.0305 49.431 42.7408 49.3668 42.3798Z" fill="white"/>
<path id="Vector_85" d="M56.4509 24.7743C56.4509 24.7559 56.4509 24.7375 56.4509 24.7191C56.4417 24.2017 56.4693 24.1857 56.9442 24.4133C58.0707 24.9513 58.3851 25.9584 57.8138 27.2092C57.7358 27.3816 57.5591 27.5541 57.5751 27.7127C57.5843 27.8162 57.8619 27.8898 58.0134 27.9863C58.3667 28.2117 58.5319 28.5405 58.5227 28.9589C58.4998 29.9223 57.9078 30.5569 57.0704 30.8374C56.7469 30.9455 56.4096 30.9731 56.0769 31.0237C55.9255 31.0466 55.8337 31.0007 55.9026 30.8259C56.3339 29.7384 56.0288 28.7773 55.3863 27.8829C55.2601 27.7081 55.29 27.6162 55.4093 27.4644C56.0333 26.6781 56.4349 25.7997 56.4509 24.7743Z" fill="#20C1E3"/>
<path id="Vector_86" d="M46.9178 24.6831C46.9155 25.7178 47.2918 26.6168 47.9251 27.41C48.0948 27.6239 48.0834 27.7365 47.9297 27.955C47.3262 28.8241 47.0509 29.7645 47.4616 30.806C47.5258 30.967 47.4823 31.0406 47.3125 31.0222C46.7481 30.9601 46.1928 30.8796 45.7041 30.5485C45.0984 30.1369 44.8323 29.5529 44.8483 28.8402C44.8621 28.332 45.1879 28.017 45.6192 27.8331C45.8464 27.7365 45.8028 27.6675 45.7087 27.5043C45.4219 27.0054 45.2246 26.4742 45.2843 25.8833C45.36 25.1246 45.8418 24.6854 46.4934 24.3865C46.5255 24.3704 46.5622 24.3635 46.5966 24.3497C46.9087 24.2141 46.9362 24.2347 46.9133 24.5727C46.9156 24.6095 46.9178 24.6463 46.9178 24.6831Z" fill="#EE4054"/>
<path id="Vector_87" d="M68.9847 13.4461C68.987 14.3911 68.4318 15.1016 67.5301 15.3614C67.0666 15.4947 66.1558 15.143 65.7864 14.5291C65.2312 13.6025 65.4835 12.2896 66.4036 11.7401C67.4154 11.1354 68.5855 11.7378 68.9113 12.8736C68.9664 13.0621 68.9893 13.253 68.9847 13.4461Z" fill="#20C1E3"/>
<path id="Vector_88" d="M35.4321 39.4715C34.9159 38.8576 34.5282 38.2529 34.2093 37.6045C33.6701 36.5032 33.2846 35.3443 33.1286 34.128C32.9611 32.8313 33.5829 31.8817 34.6727 31.2884C34.7209 31.2609 34.7576 31.2195 34.8127 31.277C34.8654 31.3321 34.8608 31.3919 34.8448 31.4563C34.7668 31.7391 34.7186 32.0288 34.6842 32.3208C34.5672 33.3072 34.7347 34.2591 35.0444 35.1903C35.1316 35.4547 35.1362 35.6685 35.01 35.9399C34.6085 36.8136 34.7599 37.6367 35.3771 38.3679C35.4689 38.4782 35.5033 38.5633 35.4597 38.7036C35.3885 38.9266 35.4023 39.1588 35.4321 39.4715Z" fill="#EE4054"/>
<path id="Vector_89" d="M38.2088 36.5122C38.9498 36.6134 39.6381 36.841 40.2186 37.3377C40.354 37.4526 40.2943 37.5285 40.1865 37.5837C39.824 37.7699 39.5188 38.0183 39.271 38.3425C39.2045 38.4298 39.1173 38.4459 39.0347 38.3723C38.7594 38.1332 38.4772 37.8987 38.4474 37.4894C38.4221 37.1468 38.2409 36.8939 37.9633 36.7031C37.9151 36.6709 37.8141 36.6709 37.8348 36.5858C37.8554 36.4939 37.9518 36.5214 38.0206 36.5145C38.0803 36.5076 38.1445 36.5122 38.2088 36.5122Z" fill="#EE4054"/>
</g>
</g>
</svg>
