<svg width="252" height="59" viewBox="0 0 252 59" fill="none" xmlns="http://www.w3.org/2000/svg">
<g id="Group 64">
<g id="Group">
<path id="Vector" d="M192.414 12.9245C192.94 12.4592 193.408 11.9839 193.944 11.5894C194.795 10.9623 195.733 10.5476 196.756 10.3453C198.114 10.0723 199.482 10.0217 200.849 10.224C202.886 10.5274 204.627 11.4276 205.976 13.1066C206.062 13.2077 206.138 13.3088 206.234 13.4201C206.683 13.0358 207.114 12.6615 207.554 12.3075C208.3 11.7007 209.113 11.2455 209.992 10.8915C211.886 10.1329 213.837 10.0318 215.836 10.2037C217.204 10.3251 218.476 10.7196 219.652 11.4276C221.89 12.7728 223.181 14.8361 223.602 17.5063C223.698 18.1435 223.745 18.7908 223.745 19.428C223.755 24.5863 223.755 29.7547 223.755 34.913C223.755 35.621 223.698 35.6817 223.038 35.6817C221.546 35.6817 220.054 35.6817 218.571 35.6817C217.883 35.6817 217.825 35.6312 217.825 34.9029C217.825 30.2099 217.825 25.5269 217.825 20.8339C217.825 19.8225 217.691 18.8313 217.271 17.9109C216.63 16.505 215.597 15.6857 214.143 15.4025C212.89 15.1598 211.685 15.2508 210.547 15.8577C209.17 16.5859 208.462 17.8704 208.194 19.4381C208.108 19.9641 208.08 20.5001 208.08 21.0261C208.07 25.6685 208.07 30.311 208.07 34.9434C208.07 35.6413 208.032 35.6817 207.372 35.6817C205.861 35.6817 204.35 35.6817 202.829 35.6817C202.207 35.6817 202.14 35.6109 202.14 34.9535C202.14 30.1795 202.14 25.3955 202.14 20.6215C202.14 19.3977 201.873 18.2446 201.213 17.213C200.562 16.1914 199.635 15.6554 198.516 15.4025C197.626 15.2002 196.727 15.2103 195.866 15.4531C194.26 15.888 193.189 16.9803 192.72 18.6593C192.538 19.3168 192.443 20.0248 192.433 20.7024C192.414 25.4157 192.423 30.129 192.423 34.8422C192.423 34.994 192.423 35.1457 192.404 35.2873C192.366 35.5199 192.251 35.6716 192.003 35.6716C190.3 35.6716 188.598 35.6716 186.895 35.6716C186.647 35.6716 186.522 35.5401 186.494 35.3075C186.475 35.176 186.475 35.0344 186.475 34.9029C186.475 27.0947 186.475 19.2965 186.475 11.4883C186.475 10.7803 186.57 10.6791 187.249 10.6791C188.76 10.6791 190.271 10.6791 191.792 10.6791C192.27 10.6791 192.423 10.8308 192.423 11.3365C192.414 11.8423 192.414 12.3783 192.414 12.9245Z" fill="white"/>
<path id="Vector_2" d="M135.536 12.9244C136.033 12.4894 136.483 12.0545 136.97 11.6702C137.85 10.9824 138.845 10.5576 139.935 10.3351C141.293 10.062 142.67 10.0114 144.028 10.2238C147.127 10.7093 149.853 12.8738 150.809 16.3734C151.077 17.3443 151.192 18.3355 151.182 19.347C151.182 24.5356 151.182 29.7141 151.182 34.9028C151.182 35.6209 151.154 35.6614 150.465 35.6614C148.944 35.6614 147.414 35.6614 145.893 35.6614C145.339 35.6614 145.262 35.5804 145.262 34.9837C145.262 30.2097 145.262 25.4358 145.262 20.6517C145.262 19.4683 145.033 18.3355 144.421 17.3241C143.732 16.1711 142.718 15.5743 141.475 15.3518C140.155 15.1091 138.893 15.2608 137.745 15.9688C136.483 16.7476 135.851 18.022 135.622 19.5189C135.555 19.9336 135.545 20.3584 135.545 20.7832C135.536 25.4459 135.545 30.1086 135.545 34.7814C135.545 34.9331 135.545 35.0849 135.536 35.2265C135.507 35.5097 135.373 35.6715 135.077 35.6715C133.412 35.6614 131.748 35.6614 130.084 35.6715C129.769 35.6715 129.635 35.5097 129.616 35.2062C129.606 35.095 129.616 34.9837 129.616 34.8724C129.616 23.6557 129.616 12.4389 129.616 1.23221C129.616 0.483747 129.702 0.402832 130.409 0.402832C131.901 0.402832 133.393 0.402832 134.876 0.402832C135.43 0.402832 135.564 0.544433 135.564 1.13106C135.564 4.92393 135.564 8.72692 135.564 12.5198C135.536 12.6412 135.536 12.7828 135.536 12.9244Z" fill="white"/>
<path id="Vector_3" d="M173.333 33.3653C172.548 34.4577 171.477 35.1252 170.301 35.5905C169.163 36.0456 167.958 36.1771 166.753 36.2378C165.098 36.3187 163.463 36.1265 161.923 35.4792C159.293 34.3667 157.6 32.1921 157.533 28.9251C157.495 27.2563 157.753 25.6683 158.69 24.2624C159.35 23.2611 160.24 22.5734 161.272 22.0575C163.338 21.0056 165.548 20.7629 167.795 20.7224C169.488 20.6921 171.171 20.7123 172.864 20.7224C173.199 20.7224 173.323 20.6011 173.323 20.2572C173.304 19.2356 173.371 18.204 172.969 17.2229C172.567 16.2418 171.841 15.6754 170.913 15.4225C168.904 14.8662 166.867 14.9067 164.849 15.291C163.788 15.4933 162.793 15.9788 161.894 16.6464C161.387 17.0206 161.234 16.9801 160.928 16.434C160.335 15.3922 159.742 14.3605 159.149 13.3187C158.891 12.8737 158.92 12.7321 159.331 12.4489C160.373 11.7308 161.512 11.2352 162.697 10.8509C165.136 10.0619 167.632 10.0012 170.138 10.1934C171.267 10.2743 172.414 10.3856 173.505 10.6789C176.097 11.3869 178.019 12.7119 178.708 16.2418C178.861 17.0509 178.927 17.8904 178.927 18.7198C178.947 24.1208 178.937 29.5118 178.937 34.9128C178.937 35.6208 178.899 35.6613 178.248 35.6613C176.843 35.6613 175.437 35.6613 174.021 35.6613C173.524 35.6613 173.447 35.5703 173.447 35.0544C173.447 34.4981 173.447 33.952 173.447 33.3957C173.39 33.3856 173.361 33.3754 173.333 33.3653ZM170.243 25.021C168.618 25.021 166.982 24.9704 165.394 25.4458C164.687 25.6582 164.036 26.0122 163.635 26.6899C162.477 28.6419 163.51 30.9278 165.662 31.3425C167.393 31.6762 169.086 31.6156 170.76 31.039C172.099 30.5738 173.036 29.6635 173.208 28.116C173.304 27.2765 173.275 26.4067 173.294 25.5571C173.304 25.1019 173.227 25.021 172.778 25.021C171.936 25.021 171.095 25.021 170.243 25.021Z" fill="white"/>
<path id="Vector_4" d="M241.161 36.2683C238.971 36.2177 237.298 36.1065 235.681 35.6109C233.529 34.9534 231.55 33.8813 229.799 32.3844C229.446 32.081 229.436 31.8787 229.761 31.5348C230.727 30.5335 231.693 29.5322 232.669 28.5409C233.023 28.1869 233.137 28.1869 233.51 28.5005C234.572 29.4108 235.758 30.0581 237.039 30.5537C238.904 31.2819 240.817 31.4943 242.768 31.1707C243.744 31.0088 244.652 30.6447 245.255 29.7446C246.192 28.3488 245.59 26.6192 244.031 26.1034C242.673 25.6584 241.276 25.5471 239.88 25.446C238.101 25.3044 236.341 25.092 234.687 24.3233C232.401 23.2613 231.071 21.4306 230.861 18.7604C230.727 17.0511 230.966 15.4227 231.865 13.9561C232.716 12.5603 233.922 11.6197 235.366 11.0229C237.613 10.0924 239.947 9.97105 242.309 10.1835C243.332 10.2745 244.365 10.3959 245.35 10.6689C247.139 11.1645 248.832 11.913 250.314 13.1267C250.668 13.42 250.678 13.6122 250.362 13.9864C249.826 14.6236 249.281 15.2507 248.746 15.8879C248.468 16.2116 248.201 16.5352 247.923 16.8488C247.646 17.1623 247.416 17.2129 247.082 16.9904C246.049 16.3026 244.93 15.807 243.763 15.453C242.271 14.9979 240.741 14.7855 239.182 15.0484C238.531 15.1597 237.938 15.3519 237.412 15.7767C236.752 16.3127 236.456 17.0207 236.561 17.8906C236.666 18.7301 237.173 19.2661 237.881 19.5797C238.732 19.964 239.631 20.0753 240.54 20.1764C241.573 20.2877 242.615 20.3686 243.648 20.5102C244.528 20.6315 245.417 20.7529 246.269 21.0058C249.09 21.825 251.271 23.767 251.395 27.4183C251.5 30.4728 250.324 32.8294 247.885 34.4679C246.699 35.267 245.389 35.7322 244.002 35.9244C242.902 36.0963 241.783 36.1975 241.161 36.2683Z" fill="white"/>
<path id="Vector_5" d="M113.291 10.0825C114.018 10.1735 115.366 10.2443 116.667 10.5377C118.675 10.9928 120.56 11.8121 122.214 13.1472C122.587 13.4405 122.587 13.6124 122.272 13.9968C121.726 14.6441 121.181 15.2813 120.627 15.9185C120.359 16.232 120.101 16.5456 119.833 16.849C119.555 17.1625 119.326 17.2232 118.991 17.0007C117.958 16.3129 116.839 15.8173 115.672 15.4633C114.18 15.0082 112.65 14.7857 111.091 15.0588C110.47 15.17 109.896 15.342 109.379 15.7364C108.691 16.2624 108.366 16.9603 108.461 17.8503C108.557 18.7202 109.054 19.327 109.819 19.5799C110.661 19.853 111.541 20.035 112.411 20.1665C113.454 20.3283 114.515 20.3688 115.558 20.5104C116.428 20.6318 117.298 20.7632 118.14 20.9959C121.21 21.8556 123.371 24.0605 123.314 27.8938C123.276 30.7562 122.08 32.9308 119.804 34.4682C118.609 35.2773 117.279 35.7122 115.883 35.9448C114.525 36.1674 113.157 36.2887 111.789 36.2179C110.211 36.137 108.624 35.9954 107.122 35.4594C105.152 34.7514 103.306 33.7601 101.68 32.3543C101.355 32.0711 101.346 31.8587 101.642 31.5552C102.618 30.5438 103.593 29.5324 104.578 28.531C104.932 28.1669 105.047 28.1669 105.42 28.4906C106.692 29.6133 108.165 30.3516 109.743 30.827C111.216 31.272 112.717 31.444 114.257 31.2113C115.146 31.0697 115.998 30.8675 116.705 30.2505C117.442 29.6133 117.748 28.8041 117.537 27.8129C117.346 26.8824 116.715 26.3868 115.902 26.1036C114.525 25.6181 113.081 25.5473 111.646 25.4361C109.905 25.2945 108.174 25.0719 106.558 24.3033C104.253 23.2109 102.924 21.3499 102.751 18.6494C102.646 16.9906 102.876 15.4128 103.746 13.9866C104.597 12.5808 105.793 11.6401 107.237 11.0232C108.978 10.2747 110.823 10.1331 113.291 10.0825Z" fill="white"/>
<path id="Vector_6" d="M139.296 56.1834C139.707 57.0734 140.109 57.923 140.539 58.8637C140.156 58.8637 139.841 58.8839 139.535 58.8535C139.449 58.8434 139.353 58.7119 139.305 58.6209C139.018 57.9837 138.722 57.3465 138.464 56.6992C138.349 56.416 138.196 56.325 137.909 56.3351C137.239 56.3553 137.239 56.3452 137.239 57.0431C137.239 57.6398 137.239 58.2264 137.239 58.7929C137.182 58.8333 137.163 58.8535 137.144 58.8535C136.273 58.9243 136.273 58.9243 136.273 58.0039C136.273 56.3452 136.273 54.6763 136.273 53.0176C136.273 52.8861 136.273 52.7546 136.273 52.522C137.239 52.5725 138.186 52.5422 139.095 52.6838C139.85 52.8052 140.252 53.4221 140.357 54.2212C140.462 55.0101 140.128 55.6979 139.477 56.0923C139.43 56.1227 139.382 56.1429 139.296 56.1834ZM138.081 55.3236C138.244 55.3236 138.406 55.3236 138.569 55.3236C139.037 55.3135 139.324 55.0506 139.401 54.5954C139.468 54.1605 139.229 53.7155 138.808 53.5941C138.588 53.5334 138.349 53.5233 138.119 53.5233C137.239 53.5132 137.239 53.5233 137.239 54.4336C137.239 55.3236 137.239 55.3236 138.081 55.3236Z" fill="white"/>
<path id="Vector_7" d="M224.989 58.8637C224.625 58.8637 224.338 58.8839 224.061 58.8536C223.956 58.8435 223.812 58.7221 223.765 58.6108C223.468 57.9736 223.181 57.3364 222.923 56.6891C222.808 56.416 222.665 56.3048 222.368 56.3149C221.699 56.3351 221.699 56.325 221.699 57.0229C221.699 57.6196 221.699 58.2063 221.699 58.8232C221.374 58.8232 221.077 58.8232 220.752 58.8232C220.752 56.7397 220.752 54.6764 220.752 52.5523C221.106 52.5523 221.46 52.5422 221.823 52.5523C222.407 52.5726 222.999 52.5523 223.564 52.6636C224.271 52.8153 224.683 53.3514 224.788 54.0998C224.912 54.9697 224.606 55.6574 223.946 56.062C223.889 56.0924 223.832 56.1227 223.745 56.1632C224.157 57.0734 224.558 57.9332 224.989 58.8637ZM221.699 55.3136C222.234 55.3136 222.722 55.3136 223.21 55.3136C223.277 55.3136 223.344 55.2832 223.411 55.2428C223.765 55.0506 223.918 54.6865 223.841 54.2414C223.765 53.8369 223.459 53.5537 223.019 53.5233C222.674 53.5031 222.32 53.5031 221.967 53.5233C221.871 53.5334 221.718 53.675 221.718 53.7661C221.689 54.2718 221.699 54.7674 221.699 55.3136Z" fill="white"/>
<path id="Vector_8" d="M138.932 45.7759C138.894 46.1906 138.884 46.7267 138.779 47.2425C138.511 48.5371 137.45 49.0327 136.388 48.8608C135.317 48.6888 134.705 47.9808 134.638 46.8278C134.59 45.9984 134.58 45.1691 134.647 44.3397C134.753 42.9439 135.996 42.0943 137.278 42.4382C138.368 42.7315 138.779 43.6317 138.846 44.4206C138.884 44.8353 138.903 45.2399 138.932 45.7759ZM137.928 45.8568H137.918C137.918 45.6141 137.928 45.3612 137.918 45.1185C137.909 44.9061 137.899 44.6937 137.87 44.4914C137.794 43.8137 137.316 43.3384 136.742 43.3384C136.159 43.3384 135.661 43.8137 135.633 44.5015C135.594 45.2702 135.594 46.0389 135.633 46.7975C135.671 47.4852 136.168 47.9404 136.761 47.9303C137.364 47.9202 137.813 47.465 137.88 46.7772C137.899 46.4738 137.909 46.1603 137.928 45.8568Z" fill="white"/>
<path id="Vector_9" d="M105.697 43.7931C105.572 43.8639 105.467 43.9145 105.362 43.9853C105.056 44.1774 104.836 44.1673 104.587 43.8133C104.3 43.4189 103.861 43.2267 103.363 43.3885C102.856 43.5605 102.55 43.9347 102.531 44.5011C102.502 45.2597 102.493 46.0081 102.531 46.7667C102.569 47.5152 103.143 48.0108 103.774 47.9298C104.473 47.8287 104.97 47.151 104.846 46.4228C104.836 46.3419 104.702 46.2408 104.626 46.2306C104.367 46.2003 104.109 46.2205 103.822 46.2205C103.822 45.9373 103.822 45.6743 103.822 45.3709C104.473 45.3709 105.133 45.3709 105.888 45.3709C105.821 46.0688 105.821 46.7667 105.659 47.4241C105.41 48.4558 104.291 49.0829 103.268 48.8502C102.187 48.6075 101.613 47.9602 101.546 46.7869C101.498 45.9778 101.489 45.1484 101.556 44.3393C101.67 42.8525 102.933 42.1647 104.119 42.4175C104.855 42.5895 105.41 42.9839 105.697 43.7931Z" fill="white"/>
<path id="Vector_10" d="M146.362 48.2737C145.769 48.7592 145.138 48.8401 144.545 48.4457C144.268 48.2636 144.048 47.8793 143.943 47.5455C143.732 46.878 143.78 46.1801 143.895 45.4923C144.124 44.1471 145.588 43.9246 146.315 44.6528C146.468 44.3494 146.573 44.319 147.281 44.4101C147.29 44.5213 147.3 44.6427 147.3 44.7641C147.3 46.0385 147.3 47.3129 147.3 48.5873C147.3 49.3459 147.108 50.0235 146.42 50.3472C145.655 50.7012 144.87 50.6708 144.163 50.1348C144.01 50.0235 143.857 49.8718 144.057 49.6999C144.239 49.538 144.325 49.093 144.708 49.3762C144.823 49.4571 144.947 49.5481 145.071 49.5886C145.989 49.8617 146.506 49.3459 146.362 48.2737ZM144.717 46.4835C144.765 46.7262 144.794 46.9892 144.861 47.2522C144.966 47.6163 145.234 47.7984 145.578 47.7882C145.903 47.7781 146.209 47.6163 146.257 47.2623C146.324 46.7566 146.343 46.2306 146.286 45.735C146.248 45.3406 145.951 45.1686 145.54 45.1788C145.167 45.1788 144.928 45.3608 144.832 45.7654C144.784 45.9778 144.756 46.2104 144.717 46.4835Z" fill="white"/>
<path id="Vector_11" d="M238.904 57.3365C239.315 57.5489 239.669 57.7714 240.042 57.9332C240.568 58.1456 241.19 57.9939 241.467 57.6298C241.84 57.1443 241.659 56.5071 241.085 56.3453C240.597 56.2138 240.1 56.1227 239.621 55.971C238.875 55.7384 238.541 55.1214 238.589 54.1808C238.627 53.4121 239.162 52.7142 239.832 52.5827C240.578 52.431 241.305 52.4715 241.974 52.8659C242.118 52.9469 242.338 53.139 242.318 53.2199C242.242 53.4627 242.089 53.6953 241.936 53.8976C241.907 53.9381 241.706 53.8571 241.601 53.7863C241.171 53.5234 240.721 53.402 240.224 53.493C239.813 53.5739 239.593 53.8268 239.574 54.2314C239.555 54.6157 239.736 54.8989 240.138 55.0102C240.54 55.1315 240.96 55.2023 241.362 55.3035C242.118 55.4855 242.577 56.0519 242.615 56.8308C242.663 57.7916 242.252 58.5502 241.534 58.7828C240.54 59.1065 239.574 59.0256 238.684 58.3985C238.33 58.1456 238.321 58.095 238.569 57.741C238.684 57.6096 238.809 57.468 238.904 57.3365Z" fill="white"/>
<path id="Vector_12" d="M174.107 52.5928C174.433 52.5928 174.7 52.5928 174.997 52.5928C174.997 54.6662 174.997 56.7396 174.997 58.8434C174.729 58.8434 174.452 58.8434 174.155 58.8434C174.136 58.7524 174.127 58.6513 174.107 58.5299C174.079 58.54 174.04 58.5501 174.021 58.5703C173.122 59.4098 171.783 58.9648 171.602 57.7106C171.496 57.0026 171.506 56.244 171.611 55.5462C171.802 54.3324 173.103 53.9076 173.993 54.7168C174.021 54.737 174.05 54.7471 174.117 54.7876C174.107 54.0492 174.107 53.3412 174.107 52.5928ZM174.136 56.6486C174.107 56.4059 174.098 56.153 174.05 55.9103C173.964 55.4754 173.667 55.2225 173.266 55.2326C172.874 55.2326 172.558 55.4652 172.51 55.9002C172.462 56.3958 172.453 56.9116 172.51 57.4072C172.558 57.8623 172.855 58.0646 173.266 58.0646C173.696 58.0646 173.964 57.8522 174.05 57.387C174.098 57.1442 174.107 56.9015 174.136 56.6486Z" fill="white"/>
<path id="Vector_13" d="M233.605 52.5825C233.93 52.5825 234.198 52.5825 234.485 52.5825C234.485 54.6762 234.485 56.7496 234.485 58.8433C234.188 58.8433 233.921 58.8433 233.624 58.8433C233.605 58.732 233.596 58.6309 233.576 58.4994C233.022 59.0557 232.41 59.0759 231.778 58.7927C231.262 58.5601 231.071 58.0341 231.032 57.4981C230.994 56.8609 230.975 56.2034 231.08 55.5764C231.291 54.3323 232.563 53.8974 233.471 54.7166C233.5 54.7369 233.529 54.747 233.596 54.7874C233.605 54.0491 233.605 53.331 233.605 52.5825ZM233.624 56.6384C233.596 56.3855 233.586 56.1326 233.529 55.8798C233.443 55.4651 233.136 55.2325 232.744 55.2426C232.371 55.2426 232.046 55.4752 231.998 55.8798C231.941 56.3855 231.941 56.9114 231.998 57.4172C232.046 57.8622 232.343 58.0746 232.763 58.0746C233.194 58.0746 233.452 57.8622 233.548 57.3868C233.586 57.1441 233.596 56.8912 233.624 56.6384Z" fill="white"/>
<path id="Vector_14" d="M204.818 43.8034C204.55 43.945 204.292 44.0866 204.014 44.2282C203.909 44.0764 203.833 43.9247 203.728 43.8034C203.46 43.4898 203.135 43.2673 202.714 43.3583C202.274 43.4595 201.93 43.7427 201.853 44.2282C201.777 44.7137 201.757 45.2093 201.738 45.7049C201.729 46.0386 201.757 46.3724 201.777 46.7062C201.824 47.3737 202.13 47.7783 202.685 47.9098C203.135 48.021 203.584 47.7581 203.881 47.222C203.909 47.1714 203.948 47.1209 203.995 47.0399C204.273 47.1815 204.531 47.3231 204.789 47.4647C204.483 48.5975 203.316 49.0527 202.456 48.8504C201.499 48.6279 200.916 48.021 200.83 46.9894C200.753 46.0791 200.753 45.1587 200.839 44.2484C200.935 43.2066 201.662 42.5188 202.609 42.3874C203.555 42.2559 204.378 42.7717 204.818 43.8034Z" fill="white"/>
<path id="Vector_15" d="M115.233 54.3327C115.176 54.2316 115.118 54.1405 115.061 54.0495C114.736 53.5236 114.372 53.3719 113.77 53.5033C113.406 53.5843 113.043 54.0192 113.024 54.5148C112.995 55.3138 112.966 56.123 113.033 56.922C113.11 57.8525 113.98 58.3076 114.678 57.8323C114.85 57.721 114.975 57.5288 115.089 57.3367C115.195 57.1647 115.29 57.1243 115.453 57.2254C115.635 57.3367 115.826 57.4277 116.046 57.539C115.826 58.2166 115.405 58.692 114.755 58.8639C113.98 59.0662 113.225 59.0157 112.612 58.3481C112.287 57.984 112.077 57.539 112.058 57.0535C112.019 56.1735 112 55.2936 112.058 54.4237C112.115 53.5033 112.775 52.6942 113.483 52.5627C114.63 52.3402 115.443 52.6841 115.931 53.5843C116.055 53.8169 116.065 53.9585 115.788 54.0495C115.596 54.1203 115.424 54.2316 115.233 54.3327Z" fill="white"/>
<path id="Vector_16" d="M109.925 47.4851C110.087 47.6975 110.413 47.9402 110.374 48.0818C110.317 48.3043 110.04 48.4965 109.82 48.6179C109.217 48.9517 108.586 48.9719 107.955 48.6988C107.534 48.5167 107.247 48.1729 107.113 47.7076C106.883 46.9288 106.864 46.1399 107.113 45.3712C107.381 44.5317 108.242 44.0563 109.054 44.2485C110.097 44.4912 110.766 45.5937 110.518 46.6962C110.499 46.7771 110.336 46.858 110.24 46.8681C109.58 46.8782 108.93 46.8782 108.27 46.8782C107.859 46.8782 107.83 46.9389 107.964 47.3536C108.194 48.0515 109.074 48.1021 109.609 47.7379C109.695 47.6874 109.781 47.6065 109.925 47.4851ZM108.72 46.15C108.921 46.15 109.121 46.1399 109.313 46.15C109.542 46.1601 109.6 46.0387 109.571 45.8263C109.514 45.4319 109.217 45.1588 108.787 45.1183C108.347 45.0779 108.031 45.3105 107.916 45.7353C107.84 46.0084 107.878 46.1702 108.194 46.15C108.366 46.1399 108.548 46.15 108.72 46.15Z" fill="white"/>
<path id="Vector_17" d="M120.091 46.8784C119.278 46.8784 118.551 46.8784 117.824 46.8784C117.413 46.8784 117.384 46.9492 117.508 47.3538C117.728 48.0517 118.627 48.1022 119.153 47.7381C119.249 47.6673 119.335 47.5965 119.44 47.5156C119.498 47.5561 119.545 47.5965 119.593 47.6269C120.091 48.0517 120.091 48.2135 119.536 48.5372C118.885 48.9215 118.197 48.9923 117.508 48.6889C117.059 48.4967 116.772 48.1124 116.648 47.6269C116.456 46.9189 116.437 46.2008 116.628 45.4928C116.848 44.6533 117.518 44.1678 118.379 44.1981C119.22 44.2285 119.832 44.7544 119.995 45.6242C120.052 46.0389 120.052 46.4334 120.091 46.8784ZM118.302 46.1502C118.503 46.1502 118.704 46.1805 118.895 46.1401C118.991 46.1198 119.125 45.9782 119.125 45.8872C119.125 45.4624 118.752 45.1286 118.293 45.1185C117.833 45.1084 117.48 45.422 117.441 45.867C117.422 46.049 117.47 46.1502 117.661 46.1502C117.881 46.1401 118.092 46.1502 118.302 46.1502Z" fill="white"/>
<path id="Vector_18" d="M229.751 56.9521C228.833 56.9521 227.982 56.9521 227.14 56.9521C227.073 57.5185 227.341 57.9231 227.81 58.0343C228.211 58.1254 228.594 58.0647 228.89 57.7714C229.072 57.5893 229.177 57.6095 229.311 57.8017C229.369 57.8826 229.445 57.9433 229.522 57.9939C229.684 58.1153 229.675 58.2467 229.522 58.3479C229.244 58.5401 228.967 58.7929 228.661 58.8738C227.504 59.157 226.404 58.8435 226.222 57.3365C226.155 56.7701 226.174 56.1632 226.289 55.617C226.49 54.6663 227.121 54.3022 228.231 54.3527C228.9 54.3831 229.512 54.9798 229.646 55.7789C229.713 56.1329 229.713 56.5071 229.751 56.9521ZM227.944 56.2037C228.144 56.2037 228.336 56.1935 228.537 56.2037C228.766 56.2138 228.814 56.1025 228.776 55.88C228.699 55.4855 228.345 55.172 227.953 55.1619C227.58 55.1518 227.217 55.4552 227.131 55.8294C227.073 56.0621 227.112 56.2239 227.389 56.2037C227.571 56.1935 227.752 56.2037 227.944 56.2037Z" fill="white"/>
<path id="Vector_19" d="M222.789 47.5253C222.836 47.5658 222.875 47.5961 222.913 47.6264C223.439 48.0715 223.429 48.2636 222.808 48.5974C222.186 48.9312 221.526 49.002 220.876 48.7289C220.465 48.557 220.178 48.2333 220.034 47.7883C219.776 46.9791 219.757 46.1498 220.025 45.3406C220.264 44.6326 220.885 44.228 221.651 44.228C222.416 44.2381 223.037 44.6528 223.248 45.3709C223.362 45.7654 223.362 46.2003 223.41 46.615C223.439 46.8375 223.315 46.8881 223.133 46.878C222.473 46.8679 221.823 46.878 221.163 46.878C220.761 46.878 220.723 46.9488 220.857 47.3635C221.086 48.0614 221.976 48.1018 222.502 47.7377C222.607 47.677 222.693 47.5961 222.789 47.5253ZM221.612 46.1498C221.813 46.1498 222.014 46.1396 222.205 46.1498C222.454 46.1599 222.511 46.0385 222.473 45.8059C222.406 45.4114 222.1 45.1383 221.679 45.1181C221.268 45.0877 220.952 45.3103 220.838 45.6845C220.723 46.0587 220.79 46.1396 221.163 46.1498C221.306 46.1498 221.459 46.1498 221.612 46.1498Z" fill="white"/>
<path id="Vector_20" d="M145.293 56.9419C144.47 56.9419 143.734 56.9419 142.998 56.9419C142.634 56.9419 142.586 57.0127 142.701 57.3768C142.94 58.1051 143.858 58.3276 144.432 57.7713C144.834 57.3869 144.891 57.9028 145.073 58.014C145.322 58.1759 145.083 58.3073 144.968 58.4388C144.375 59.1367 142.634 59.1873 142.137 58.3175C141.955 57.9938 141.802 57.6297 141.754 57.2656C141.687 56.8307 141.706 56.3755 141.754 55.9406C141.85 55.0505 142.481 54.383 143.208 54.3526C144.375 54.3021 144.987 54.7269 145.197 55.799C145.264 56.153 145.255 56.5272 145.293 56.9419ZM143.485 56.2036C143.686 56.2036 143.887 56.1934 144.078 56.2036C144.298 56.2137 144.365 56.1125 144.327 55.8799C144.25 55.4854 143.887 55.1719 143.495 55.1618C143.122 55.1517 142.768 55.445 142.672 55.8293C142.615 56.062 142.644 56.2238 142.921 56.2036C143.112 56.1934 143.294 56.2036 143.485 56.2036Z" fill="white"/>
<path id="Vector_21" d="M199.481 56.9421C199.423 57.5287 199.682 57.9232 200.16 58.0243C200.562 58.1153 200.944 58.0547 201.241 57.7613C201.432 57.5692 201.508 57.6298 201.661 57.7917C202.063 58.2165 202.073 58.2165 201.642 58.5806C201.011 59.0964 199.519 59.1672 198.974 58.3783C198.859 58.2064 198.735 58.0344 198.678 57.8423C198.438 57.0331 198.419 56.2037 198.687 55.3946C198.888 54.7877 199.481 54.3933 200.083 54.3427C201.422 54.2314 202.044 55.2024 202.054 56.3251C202.054 56.5072 202.054 56.6993 202.054 56.9421C201.614 56.9421 201.183 56.9421 200.753 56.9421C200.332 56.9421 199.902 56.9421 199.481 56.9421ZM200.265 56.2037C200.476 56.2037 200.686 56.2037 200.896 56.2037C201.107 56.2037 201.164 56.1026 201.126 55.9003C201.059 55.516 200.724 55.2125 200.342 55.1721C199.978 55.1417 199.596 55.4047 199.481 55.7789C199.385 56.1026 199.443 56.1936 199.777 56.2037C199.94 56.2037 200.103 56.2037 200.265 56.2037Z" fill="white"/>
<path id="Vector_22" d="M247.396 56.9417C246.574 56.9417 245.828 56.9417 245.082 56.9417C244.718 56.9417 244.671 57.0125 244.795 57.3766C245.034 58.0947 245.952 58.3274 246.536 57.7711C246.937 57.3867 246.995 57.9026 247.176 58.0138C247.396 58.1453 247.215 58.3071 247.09 58.4184C246.402 59.0556 245.598 59.1062 244.795 58.7724C244.087 58.4791 243.858 57.8014 243.829 57.0631C243.81 56.6383 243.81 56.1932 243.886 55.7684C244.078 54.757 244.651 54.3221 245.704 54.3322C246.526 54.3423 247.129 54.8784 247.291 55.7988C247.358 56.1629 247.358 56.527 247.396 56.9417ZM245.56 56.2034C245.761 56.2034 245.962 56.1932 246.153 56.2034C246.411 56.2135 246.45 56.0719 246.402 55.8494C246.316 55.4751 245.952 55.1717 245.589 55.1616C245.216 55.1515 244.9 55.4043 244.776 55.7887C244.68 56.0618 244.718 56.2236 245.044 56.2034C245.216 56.1932 245.388 56.2034 245.56 56.2034Z" fill="white"/>
<path id="Vector_23" d="M233.319 45.4422C233.252 45.3309 233.204 45.2601 233.166 45.1893C232.907 44.6937 232.965 44.5521 233.481 44.3903C234.055 44.2184 234.619 44.1577 235.212 44.3499C235.738 44.5218 236.025 44.7848 236.064 45.3815C236.111 46.1704 236.092 46.9695 236.102 47.7584C236.102 48.082 236.102 48.3956 236.102 48.7091C235.413 48.8204 235.289 48.7901 235.184 48.4664C234.6 48.9519 233.969 49.0227 233.319 48.6889C232.831 48.4462 232.621 47.809 232.754 47.1414C232.869 46.5952 233.309 46.1907 233.845 46.1603C234.199 46.1401 234.552 46.1401 234.897 46.1502C235.145 46.1603 235.231 46.0693 235.212 45.8063C235.184 45.4119 235.04 45.2399 234.667 45.159C234.208 45.068 233.759 45.1388 233.319 45.4422ZM234.677 46.8784C234.677 46.8683 234.677 46.8683 234.677 46.8582C234.466 46.8886 234.266 46.9189 234.055 46.9492C233.768 46.9998 233.625 47.192 233.615 47.4853C233.606 47.7786 233.768 47.9809 234.026 47.991C234.323 48.0112 234.629 47.991 234.916 47.9C235.174 47.8191 235.356 47.3134 235.212 47.0403C235.155 46.9189 234.887 46.9189 234.715 46.8683C234.696 46.8784 234.686 46.8784 234.677 46.8784Z" fill="white"/>
<path id="Vector_24" d="M150.112 56.9421C149.308 56.9421 148.562 56.9421 147.816 56.9421C147.453 56.9421 147.405 57.023 147.52 57.377C147.749 58.0951 148.677 58.3277 149.26 57.7714C149.662 57.3871 149.71 57.913 149.901 58.0142C150.131 58.1457 149.94 58.2974 149.825 58.4188C149.241 59.0155 148.515 59.056 147.788 58.884C147.042 58.7121 146.688 58.1052 146.583 57.3264C146.497 56.6892 146.497 56.0621 146.688 55.4553C146.889 54.8282 147.482 54.3831 148.084 54.3326C149.385 54.2213 150.006 55.0709 150.083 56.1329C150.093 56.3858 150.102 56.6386 150.112 56.9421ZM148.314 56.2037C148.505 56.2037 148.687 56.1936 148.868 56.2037C149.146 56.2239 149.184 56.0722 149.127 55.8295C149.041 55.4553 148.648 55.1417 148.266 55.1619C147.855 55.1822 147.539 55.4957 147.472 55.9104C147.434 56.1329 147.51 56.2037 147.711 56.2037C147.912 56.2037 148.113 56.2037 148.314 56.2037Z" fill="white"/>
<path id="Vector_25" d="M165.012 58.9042C164.668 58.7626 164.256 59.1166 164.094 58.5704C163.539 59.0458 162.927 59.0761 162.286 58.803C161.808 58.6008 161.597 58.1153 161.645 57.4477C161.684 56.8611 161.951 56.4767 162.468 56.3554C162.86 56.2643 163.271 56.2542 163.673 56.1935C163.835 56.1733 164.094 56.3149 164.122 56.0014C164.151 55.7081 164.094 55.4249 163.797 55.2833C163.242 55.0304 162.726 55.1619 162.219 55.526C162.152 55.4046 162.085 55.2934 162.028 55.1821C161.817 54.7978 161.846 54.6663 162.229 54.5247C162.879 54.2718 163.549 54.2516 164.218 54.4539C164.668 54.5955 164.935 54.9495 164.954 55.4249C164.993 56.2441 164.983 57.0533 164.993 57.8725C165.012 58.1962 165.012 58.4996 165.012 58.9042ZM163.223 58.1861C163.893 58.1456 164.199 57.8118 164.132 57.1746C164.122 57.1038 164.084 56.9926 164.036 56.9622C163.797 56.8105 162.86 56.9926 162.659 57.205C162.449 57.4376 162.477 57.8422 162.745 58.004C162.879 58.1052 163.061 58.1355 163.223 58.1861Z" fill="white"/>
<path id="Vector_26" d="M251.977 58.8231C251.327 58.9444 251.222 58.9141 251.107 58.5601C250.552 59.0355 249.94 59.0759 249.3 58.8028C248.812 58.5904 248.601 58.105 248.649 57.4172C248.687 56.8609 248.955 56.4664 249.462 56.3552C249.854 56.2641 250.266 56.254 250.667 56.1933C250.83 56.1731 251.069 56.3147 251.126 56.0113C251.184 55.718 251.021 55.3842 250.772 55.2831C250.285 55.0707 249.797 55.1415 249.213 55.5359C249.108 55.3437 248.994 55.1617 248.917 54.9594C248.888 54.8886 248.936 54.7369 248.994 54.6964C249.166 54.5751 249.357 54.4537 249.548 54.4132C250.16 54.2817 250.792 54.2312 251.375 54.5043C251.777 54.6964 251.977 55.101 251.977 55.5561C251.997 56.608 251.987 57.6599 251.987 58.7118C252.016 58.7624 251.987 58.7927 251.977 58.8231ZM250.591 56.9418C250.581 56.9216 250.581 56.9013 250.572 56.8912C250.313 56.962 250.036 56.9924 249.816 57.134C249.673 57.225 249.529 57.4981 249.558 57.6599C249.577 57.8319 249.787 58.0847 249.931 58.105C250.218 58.1454 250.533 58.0948 250.811 58.0038C251.088 57.9128 251.26 57.4273 251.117 57.1138C251.059 57.0025 250.792 56.9924 250.619 56.9418C250.61 56.9418 250.6 56.9418 250.591 56.9418Z" fill="white"/>
<path id="Vector_27" d="M152.005 48.7695C151.68 48.6785 151.316 48.9313 151.135 48.5773C150.733 48.6785 150.322 48.8504 149.901 48.8706C149.423 48.8807 148.973 48.6886 148.763 48.1626C148.552 47.6063 148.533 47.0399 148.954 46.605C149.164 46.3825 149.509 46.251 149.805 46.1802C150.14 46.1094 150.503 46.1499 150.857 46.16C151.077 46.16 151.144 46.069 151.135 45.8465C151.115 45.4217 150.962 45.2497 150.58 45.1688C150.102 45.0676 149.652 45.1486 149.222 45.4419C149.164 45.3508 149.107 45.2699 149.059 45.189C148.801 44.7035 148.849 44.5619 149.346 44.4001C149.91 44.218 150.484 44.1574 151.077 44.3394C151.67 44.5316 151.967 44.835 151.976 45.4924C152.024 46.5545 152.005 47.6266 152.005 48.7695ZM150.599 46.8579C150.379 46.8882 150.15 46.9085 149.92 46.959C149.681 47.0197 149.547 47.1917 149.537 47.4647C149.528 47.7378 149.643 47.9401 149.891 47.9705C150.159 48.0008 150.446 48.0008 150.714 47.9401C151.049 47.8693 151.221 47.4951 151.154 47.0905C151.087 46.7163 150.79 46.959 150.599 46.8579Z" fill="white"/>
<path id="Vector_28" d="M168.331 48.81C168.015 48.628 167.604 49.0224 167.441 48.4661C166.944 48.8707 166.408 49.0022 165.806 48.7898C165.194 48.5673 164.897 48.0616 164.983 47.303C165.05 46.686 165.5 46.2106 166.102 46.1702C166.466 46.15 166.829 46.15 167.193 46.1601C167.422 46.1702 167.508 46.069 167.489 45.8263C167.46 45.4116 167.317 45.2397 166.915 45.1689C166.447 45.0778 166.007 45.1588 165.567 45.4521C165.462 45.2599 165.337 45.0778 165.28 44.8756C165.251 44.7946 165.337 44.6025 165.414 44.562C166.16 44.1777 166.944 44.117 167.728 44.4406C168.13 44.6025 168.331 44.9767 168.34 45.4116C168.35 46.504 168.331 47.6064 168.331 48.81ZM166.925 46.858C166.714 46.8883 166.494 46.9085 166.284 46.9591C166.016 47.0097 165.882 47.1917 165.863 47.4749C165.844 47.7682 165.997 47.9705 166.255 48.0009C166.514 48.0312 166.791 48.0211 167.04 47.9604C167.374 47.8795 167.547 47.5053 167.48 47.1108C167.422 46.7164 167.126 46.9591 166.925 46.858Z" fill="white"/>
<path id="Vector_29" d="M126.517 55.5157C126.488 55.4955 126.469 55.4955 126.469 55.4854C126.029 54.7572 126.039 54.6156 126.833 54.4335C127.349 54.3121 127.923 54.3627 128.458 54.4537C128.984 54.5448 129.243 54.9999 129.262 55.536C129.291 56.6283 129.271 57.7105 129.271 58.8332C129.004 58.8332 128.755 58.8332 128.468 58.8332C128.449 58.7624 128.42 58.6613 128.391 58.55C127.808 59.0456 127.186 59.0861 126.536 58.8029C126.077 58.6006 125.857 58.0848 125.905 57.4374C125.943 56.8812 126.22 56.4867 126.718 56.3653C127.11 56.2743 127.521 56.2642 127.923 56.2035C128.085 56.1732 128.325 56.1428 128.382 56.0214C128.497 55.7686 128.296 55.4045 128.047 55.2932C127.512 55.0505 127.005 55.182 126.517 55.5157ZM127.512 58.1758C128.152 58.1353 128.458 57.8117 128.401 57.2048C128.391 57.1138 128.315 56.9621 128.267 56.9621C127.846 56.952 127.406 56.8609 127.014 57.1441C126.689 57.3869 126.699 57.8521 127.053 58.0443C127.186 58.1252 127.359 58.1353 127.512 58.1758Z" fill="white"/>
<path id="Vector_30" d="M128.21 48.7897C127.913 48.6279 127.512 48.992 127.33 48.4762C126.842 48.8706 126.307 49.0021 125.704 48.7796C125.101 48.5571 124.795 48.0412 124.881 47.3332C124.958 46.6657 125.388 46.2106 126 46.16C126.354 46.1398 126.708 46.1296 127.053 46.1499C127.33 46.16 127.406 46.0386 127.378 45.7756C127.339 45.4216 127.196 45.2193 126.842 45.1587C126.364 45.0777 125.914 45.1384 125.455 45.4419C125.35 45.2396 125.226 45.0575 125.168 44.8552C125.149 44.7743 125.235 44.5923 125.312 44.5518C126.048 44.1675 126.823 44.1169 127.588 44.4203C127.942 44.5619 128.181 44.8653 128.191 45.2699C128.229 46.4128 128.21 47.5659 128.21 48.7897ZM126.966 46.8376C126.632 46.8882 126.393 46.9084 126.173 46.959C125.924 47.0096 125.79 47.1916 125.771 47.4546C125.752 47.7176 125.857 47.9401 126.115 47.9704C126.393 48.0008 126.689 48.0008 126.966 47.9401C127.292 47.8693 127.492 47.4546 127.368 47.0804C127.32 46.9489 127.062 46.8983 126.966 46.8376Z" fill="white"/>
<path id="Vector_31" d="M246.384 46.5747C246.326 46.9388 246.298 47.313 246.202 47.667C245.944 48.6684 244.978 48.992 244.27 48.8605C243.39 48.7088 242.902 48.2132 242.826 47.2726C242.768 46.6657 242.778 46.0285 242.921 45.4419C243.132 44.5417 244.06 44.0562 244.92 44.2787C245.838 44.5215 246.25 45.0373 246.336 46.0892C246.345 46.251 246.336 46.4129 246.336 46.5747C246.345 46.5747 246.364 46.5747 246.384 46.5747ZM243.696 46.5342C243.715 46.7669 243.715 46.9995 243.754 47.2321C243.849 47.7378 244.107 47.9604 244.576 47.9502C245.006 47.9502 245.293 47.7075 245.341 47.2119C245.389 46.777 245.389 46.3218 245.341 45.8869C245.293 45.4115 245.006 45.1789 244.595 45.1688C244.117 45.1587 243.859 45.361 243.754 45.8667C243.715 46.0892 243.715 46.3117 243.696 46.5342Z" fill="white"/>
<path id="Vector_32" d="M117.144 56.6485C117.163 55.9506 117.211 55.2527 117.766 54.747C118.608 53.9884 120.367 54.2109 120.645 55.7483C120.769 56.426 120.769 57.1036 120.587 57.7712C120.396 58.459 119.784 58.904 119.134 58.9546C117.718 59.0557 117.106 58.0847 117.144 56.6485ZM119.813 56.6687C119.774 56.3855 119.765 56.1023 119.698 55.8292C119.602 55.4449 119.306 55.2325 118.942 55.2325C118.579 55.2325 118.235 55.4348 118.187 55.8191C118.12 56.3653 118.12 56.9317 118.177 57.4678C118.225 57.8926 118.55 58.0746 118.952 58.0645C119.334 58.0544 119.583 57.8622 119.688 57.4475C119.765 57.2048 119.774 56.9418 119.813 56.6687Z" fill="white"/>
<path id="Vector_33" d="M105.028 56.6687C104.98 57.3565 104.913 58.0038 104.406 58.5196C103.727 59.2175 101.967 59.1973 101.556 57.8218C101.336 57.0834 101.326 56.3349 101.537 55.5865C101.757 54.7773 102.331 54.3525 103.163 54.3525C104.062 54.3525 104.635 54.7571 104.855 55.5865C104.951 55.9304 104.98 56.3046 105.028 56.6687ZM104.09 56.608C104.081 56.608 104.071 56.608 104.062 56.5979C104.043 56.3754 104.043 56.1529 103.995 55.9304C103.918 55.5258 103.631 55.2628 103.277 55.2325C102.924 55.2021 102.579 55.3842 102.474 55.7483C102.292 56.3552 102.292 56.9721 102.484 57.5689C102.598 57.9229 102.876 58.0544 103.201 58.0544C103.536 58.0544 103.813 57.9229 103.918 57.579C104.004 57.2655 104.033 56.9317 104.09 56.608Z" fill="white"/>
<path id="Vector_34" d="M178.652 46.5849C178.623 46.8782 178.613 47.1816 178.556 47.4648C178.336 48.5471 177.494 48.9618 176.624 48.8606C175.735 48.7595 175.199 48.1931 175.122 47.2423C175.075 46.6557 175.094 46.0488 175.199 45.4824C175.4 44.4204 176.538 44.0968 177.198 44.2586C178.097 44.4811 178.527 44.9969 178.613 45.978C178.632 46.1702 178.613 46.3725 178.613 46.5748C178.632 46.5849 178.642 46.5849 178.652 46.5849ZM175.983 46.6152C176.012 46.8175 176.021 47.0704 176.069 47.303C176.175 47.7683 176.414 47.9604 176.873 47.9503C177.284 47.9503 177.571 47.7278 177.628 47.2828C177.676 46.8377 177.686 46.3725 177.647 45.9173C177.6 45.4015 177.322 45.1689 176.901 45.1588C176.404 45.1487 176.155 45.3611 176.06 45.8971C176.012 46.1196 176.012 46.3421 175.983 46.6152Z" fill="white"/>
<path id="Vector_35" d="M193.524 46.5948C193.466 46.9589 193.428 47.3331 193.342 47.6871C193.074 48.7188 191.993 49.0121 191.333 48.8503C190.463 48.6277 190.033 48.1726 189.966 47.2219C189.918 46.6453 189.937 46.0284 190.052 45.462C190.262 44.4404 191.343 44.1269 192.003 44.2685C192.902 44.4606 193.351 44.9866 193.457 45.9576C193.476 46.17 193.457 46.3824 193.457 46.5847C193.485 46.5847 193.505 46.5948 193.524 46.5948ZM190.836 46.5847C190.855 46.7971 190.855 47.0297 190.903 47.2623C191.008 47.768 191.257 47.9602 191.745 47.9501C192.156 47.94 192.433 47.7073 192.481 47.2219C192.529 46.7971 192.529 46.3621 192.491 45.9373C192.443 45.4215 192.175 45.1788 191.745 45.1686C191.257 45.1585 190.989 45.3709 190.894 45.8969C190.855 46.1093 190.855 46.3419 190.836 46.5847Z" fill="white"/>
<path id="Vector_36" d="M209.429 46.5947C209.391 46.9184 209.372 47.2622 209.295 47.5758C209.037 48.6176 208.147 48.9817 207.354 48.8603C206.455 48.7288 205.957 48.1725 205.881 47.2117C205.833 46.6655 205.852 46.0991 205.948 45.563C206.11 44.6831 206.741 44.2684 207.621 44.2381C208.472 44.2077 209.123 44.7337 209.314 45.5934C209.381 45.917 209.391 46.2508 209.429 46.5947ZM206.751 46.5947C206.78 46.8172 206.789 47.0802 206.847 47.3229C206.942 47.7578 207.191 47.95 207.631 47.95C208.042 47.95 208.348 47.7376 208.396 47.3027C208.453 46.8374 208.453 46.3621 208.415 45.9069C208.367 45.4012 208.09 45.1686 207.65 45.1686C207.172 45.1686 206.933 45.3709 206.827 45.8867C206.78 46.1092 206.78 46.3317 206.751 46.5947Z" fill="white"/>
<path id="Vector_37" d="M183.328 48.7288C183.05 48.7288 182.773 48.7288 182.448 48.7288C182.448 48.1624 182.448 47.6061 182.448 47.0599C182.448 46.6958 182.458 46.3418 182.429 45.9777C182.4 45.4619 182.142 45.1787 181.731 45.1685C181.243 45.1483 180.946 45.3809 180.899 45.9069C180.851 46.4834 180.87 47.07 180.86 47.6567C180.86 48.0006 180.86 48.3444 180.86 48.7187C180.564 48.7187 180.287 48.7187 179.98 48.7187C179.98 47.2824 179.98 45.8462 179.98 44.3796C180.258 44.3796 180.516 44.3796 180.813 44.3796C180.832 44.4605 180.86 44.5516 180.899 44.6628C181.358 44.2886 181.826 44.1167 182.381 44.3088C182.907 44.4909 183.27 44.8651 183.299 45.4113C183.376 46.5138 183.328 47.6162 183.328 48.7288Z" fill="white"/>
<path id="Vector_38" d="M181.242 58.8132C181.195 58.8334 181.185 58.8435 181.175 58.8435C180.286 58.9548 180.286 58.9548 180.286 58.0141C180.286 56.6588 180.276 55.3136 180.296 53.9583C180.296 53.6245 180.219 53.4829 179.875 53.5132C179.483 53.5436 179.081 53.5234 178.641 53.5234C178.641 53.2503 178.622 53.0176 178.651 52.785C178.66 52.7041 178.784 52.5726 178.851 52.5726C180.171 52.5625 181.501 52.5625 182.859 52.5625C182.859 52.876 182.859 53.1592 182.859 53.5132C182.667 53.5132 182.467 53.5132 182.256 53.5132C181.252 53.5132 181.252 53.5132 181.252 54.5854C181.252 55.8497 181.252 57.1139 181.252 58.3782C181.262 58.5401 181.252 58.6918 181.242 58.8132Z" fill="white"/>
<path id="Vector_39" d="M169.134 58.8335C169.134 58.0749 169.134 57.3366 169.134 56.5881C169.134 56.3858 169.143 56.1937 169.115 55.9914C169.057 55.5261 168.761 55.2328 168.359 55.2227C167.967 55.2227 167.642 55.516 167.585 55.9712C167.546 56.2645 167.565 56.5679 167.565 56.8612C167.565 57.5085 167.565 58.1457 167.565 58.8234C167.269 58.8234 166.992 58.8234 166.686 58.8234C166.686 57.3669 166.686 55.9206 166.686 54.4641C167.279 54.3023 167.518 54.363 167.575 54.6259C167.938 54.5248 168.302 54.3933 168.675 54.3427C169.402 54.2315 170.014 54.9698 170.033 55.6374C170.062 56.6893 170.043 57.7412 170.043 58.8234C169.746 58.8335 169.469 58.8335 169.134 58.8335Z" fill="white"/>
<path id="Vector_40" d="M213.186 48.7291C213.186 47.9503 213.186 47.2018 213.186 46.4432C213.186 46.2308 213.176 46.0184 213.138 45.8161C213.052 45.361 212.813 45.1688 212.382 45.1688C211.981 45.1688 211.684 45.4217 211.646 45.8566C211.598 46.4331 211.608 47.0197 211.598 47.6064C211.589 47.9705 211.598 48.3447 211.598 48.7291C211.283 48.7291 211.005 48.7291 210.699 48.7291C210.699 47.2928 210.699 45.8566 210.699 44.4305C211.235 44.2686 211.531 44.3394 211.646 44.6631C212.096 44.3091 212.574 44.127 213.138 44.3293C213.76 44.5518 214.047 45.0373 214.075 45.6644C214.114 46.6759 214.085 47.6974 214.085 48.7392C213.798 48.7291 213.521 48.7291 213.186 48.7291Z" fill="white"/>
<path id="Vector_41" d="M214.162 54.7977C214.727 54.2616 215.3 54.201 215.874 54.4943C216.448 54.7775 216.639 55.3237 216.63 55.9609C216.63 56.9116 216.63 57.8623 216.63 58.8434C216.324 58.8434 216.046 58.8434 215.721 58.8434C215.721 58.6209 215.721 58.3984 215.721 58.186C215.721 57.5083 215.731 56.8206 215.712 56.1429C215.692 55.5765 215.386 55.2427 214.937 55.2427C214.487 55.2427 214.172 55.5967 214.153 56.153C214.134 56.9116 214.143 57.6601 214.143 58.4186C214.143 58.5501 214.143 58.6816 214.143 58.8535C213.837 58.8535 213.56 58.8535 213.254 58.8535C213.244 58.7018 213.235 58.5602 213.235 58.4186C213.235 57.2757 213.235 56.1429 213.235 55C213.235 54.3628 213.168 54.4538 213.789 54.4336C214.038 54.4032 214.191 54.4437 214.162 54.7977Z" fill="white"/>
<path id="Vector_42" d="M111.855 44.3901C112.63 44.3092 112.697 44.3294 112.812 44.6531C113.233 44.3193 113.673 44.1372 114.208 44.2889C114.868 44.471 115.212 44.9565 115.241 45.624C115.289 46.6456 115.251 47.6772 115.251 48.7291C114.954 48.7291 114.677 48.7291 114.352 48.7291C114.352 48.5269 114.352 48.3347 114.352 48.1425C114.342 47.3839 114.352 46.6254 114.304 45.8769C114.275 45.3914 113.998 45.1689 113.558 45.1689C113.127 45.1689 112.841 45.4015 112.802 45.8668C112.754 46.4332 112.764 47.0097 112.754 47.5761C112.745 47.9503 112.754 48.3145 112.754 48.719C112.448 48.719 112.162 48.719 111.855 48.719C111.855 47.2727 111.855 45.8466 111.855 44.3901Z" fill="white"/>
<path id="Vector_43" d="M186.025 58.4997C185.565 58.9852 185.03 59.0661 184.494 58.884C183.844 58.6615 183.595 58.085 183.586 57.4073C183.567 56.5173 183.586 55.6171 183.576 54.727C183.576 54.5045 183.643 54.3933 183.854 54.4236C183.901 54.4337 183.949 54.4236 183.997 54.4236C184.494 54.4236 184.494 54.4236 184.494 54.9394C184.494 55.698 184.494 56.4566 184.513 57.205C184.523 57.5489 184.619 57.8726 184.982 57.994C185.546 58.1861 186.005 57.8524 186.025 57.1848C186.044 56.4161 186.034 55.6474 186.034 54.8787C186.034 54.7473 186.034 54.6158 186.034 54.4236C186.302 54.4236 186.531 54.4034 186.761 54.4337C186.828 54.4438 186.943 54.5854 186.943 54.6663C186.952 55.9812 186.952 57.2961 186.952 58.6109C186.952 58.8031 186.885 58.884 186.704 58.8739C186.598 58.8638 186.493 58.8638 186.388 58.8739C186.139 58.9144 185.996 58.8334 186.025 58.4997Z" fill="white"/>
<path id="Vector_44" d="M251.07 48.7393C250.744 48.7393 250.477 48.7393 250.161 48.7393C250.161 48.2943 250.161 47.8492 250.161 47.4042C250.161 46.9592 250.171 46.5141 250.151 46.0691C250.132 45.4623 249.874 45.1689 249.386 45.1689C248.899 45.1689 248.602 45.4825 248.593 46.0792C248.573 46.8681 248.583 47.6672 248.583 48.4561C248.583 48.537 248.573 48.628 248.573 48.7292C248.277 48.7292 248 48.7292 247.703 48.7292C247.703 47.2828 247.703 45.8466 247.703 44.3901C247.98 44.3901 248.258 44.3901 248.564 44.3901C248.573 44.4609 248.593 44.552 248.612 44.6531C248.66 44.6329 248.698 44.6329 248.717 44.6025C249.214 44.1676 249.759 44.1069 250.324 44.3901C250.85 44.6531 251.06 45.1588 251.07 45.7556C251.079 46.7468 251.07 47.7178 251.07 48.7393Z" fill="white"/>
<path id="Vector_45" d="M154.387 48.7293C154.072 48.7293 153.804 48.7293 153.498 48.7293C153.498 47.2829 153.498 45.8568 153.498 44.4206C154.034 44.2587 154.33 44.3295 154.435 44.6532C154.875 44.2992 155.344 44.1171 155.899 44.3093C156.482 44.5015 156.817 44.9465 156.845 45.5534C156.893 46.6052 156.855 47.6571 156.855 48.7293C156.559 48.7293 156.291 48.7293 155.956 48.7293C155.956 48.4966 155.956 48.2741 155.956 48.0415C155.956 47.3841 155.966 46.7266 155.946 46.0692C155.927 45.4724 155.66 45.169 155.181 45.169C154.684 45.169 154.407 45.4724 154.387 46.0793C154.368 46.8176 154.378 47.5661 154.378 48.3045C154.387 48.4461 154.387 48.5775 154.387 48.7293Z" fill="white"/>
<path id="Vector_46" d="M215.873 47.4343C216.428 47.8591 216.925 48.0917 217.528 47.9603C217.777 47.8996 217.949 47.7782 217.968 47.5051C217.987 47.232 217.815 47.1005 217.585 47.0601C217.184 46.9792 216.772 46.9589 216.38 46.8376C215.854 46.6757 215.606 46.2611 215.596 45.6643C215.596 45.0574 215.864 44.5618 216.332 44.3899C217.069 44.1067 217.777 44.2078 218.456 44.6023C218.695 44.7338 218.723 44.8754 218.561 45.0979C218.379 45.371 218.236 45.5126 217.863 45.3103C217.566 45.1485 217.174 45.1586 216.82 45.1788C216.696 45.1889 216.495 45.462 216.505 45.5935C216.514 45.7452 216.715 45.9374 216.878 45.988C217.164 46.0891 217.48 46.0891 217.777 46.1397C218.408 46.2408 218.762 46.5847 218.829 47.1815C218.905 47.8895 218.599 48.4963 218.025 48.7087C217.203 49.0121 216.409 48.911 215.672 48.4154C215.347 48.203 215.357 48.112 215.596 47.8187C215.711 47.7074 215.787 47.5658 215.873 47.4343Z" fill="white"/>
<path id="Vector_47" d="M154.568 58.1961C154.626 58.1253 154.674 58.0646 154.712 58.004C154.932 57.6803 155.123 57.5387 155.515 57.832C155.879 58.1152 156.357 58.2669 156.806 58.004C156.95 57.923 157.122 57.6904 157.103 57.5488C157.093 57.4072 156.883 57.215 156.73 57.1645C156.386 57.0532 156.022 57.033 155.668 56.9419C155.114 56.8105 154.827 56.4666 154.788 55.9103C154.741 55.2225 154.999 54.6865 155.506 54.4842C156.271 54.1909 157.017 54.2515 157.715 54.737C157.868 54.8483 157.906 54.9595 157.782 55.1315C157.485 55.5563 157.504 55.5158 157.055 55.3439C156.73 55.2225 156.357 55.2124 156.003 55.2326C155.888 55.2427 155.716 55.4956 155.706 55.6473C155.697 55.7687 155.869 55.9507 155.993 56.0317C156.108 56.1126 156.28 56.0923 156.433 56.1227C156.711 56.1733 156.988 56.2137 157.256 56.2946C157.715 56.4362 157.983 56.7599 158.021 57.2858C158.069 57.8725 157.916 58.358 157.428 58.6917C156.749 59.1469 155.133 59.066 154.568 58.1961Z" fill="white"/>
<path id="Vector_48" d="M203.336 58.1858C203.47 58.024 203.585 57.8318 203.747 57.7104C203.814 57.6599 203.996 57.6902 204.091 57.7509C204.56 58.024 205.029 58.2566 205.583 58.0139C205.794 57.9228 205.947 57.7509 205.87 57.5385C205.813 57.3767 205.631 57.2148 205.478 57.1643C205.144 57.053 204.79 57.0328 204.445 56.9519C203.891 56.8204 203.604 56.4967 203.546 55.9708C203.479 55.3032 203.709 54.7469 204.168 54.5143C204.79 54.2008 206.071 54.2311 206.636 54.9492C206.53 55.1111 206.435 55.3032 206.291 55.4347C206.224 55.4954 206.052 55.4752 205.937 55.4448C205.641 55.3639 205.344 55.2122 205.048 55.1819C204.694 55.1414 204.445 55.3538 204.436 55.637C204.417 55.9202 204.637 56.0922 205.019 56.1427C205.344 56.1832 205.67 56.2236 205.985 56.3046C206.463 56.436 206.741 56.7799 206.779 57.3059C206.827 57.8824 206.674 58.3476 206.196 58.6814C205.536 59.1568 203.862 59.0556 203.336 58.1858Z" fill="white"/>
<path id="Vector_49" d="M163.817 44.3901C163.884 44.8959 163.827 45.3004 163.482 45.6848C162.956 46.2613 162.507 46.9187 162.029 47.5357C161.962 47.6267 161.895 47.7279 161.78 47.8897C162.172 47.8897 162.497 47.8897 162.813 47.8897C163.138 47.8897 163.463 47.8897 163.807 47.8897C163.807 48.183 163.807 48.4359 163.807 48.7191C162.775 48.7191 161.732 48.7191 160.69 48.7191C160.632 48.274 160.642 47.9099 160.948 47.5458C161.512 46.8884 162.019 46.1804 162.545 45.4825C162.593 45.4218 162.631 45.351 162.727 45.2195C162.038 45.2195 161.407 45.2195 160.766 45.2195C160.766 44.9161 160.766 44.6632 160.766 44.3901C161.789 44.3901 162.794 44.3901 163.817 44.3901Z" fill="white"/>
<path id="Vector_50" d="M153.469 52.623C153.469 52.9163 153.469 53.1793 153.469 53.4322C153.201 53.503 152.933 53.5333 152.723 53.6648C152.627 53.7255 152.598 54.0188 152.637 54.1806C152.742 54.7268 153.201 54.2312 153.45 54.5548C153.45 54.6762 153.45 54.8987 153.45 55.1718C153.316 55.1819 153.163 55.2022 153.019 55.192C152.713 55.1617 152.608 55.273 152.618 55.6067C152.637 56.5372 152.627 57.4678 152.627 58.3983C152.627 58.5298 152.627 58.6613 152.627 58.8332C152.321 58.8332 152.044 58.8332 151.728 58.8332C151.718 58.7118 151.709 58.5803 151.709 58.4489C151.709 57.5082 151.709 56.5676 151.709 55.6168C151.709 55.3539 151.709 55.1111 151.336 55.2022C151.336 54.9291 151.336 54.7066 151.336 54.4537C151.661 54.484 151.709 54.2919 151.709 53.9986C151.728 52.9062 152.359 52.4207 153.469 52.623Z" fill="white"/>
<path id="Vector_51" d="M187.258 45.1992C187.095 45.1688 186.99 45.1486 186.875 45.1182C186.875 44.8856 186.875 44.653 186.875 44.4204C186.904 44.4406 186.942 44.4608 186.971 44.481C187.057 44.3394 187.219 44.208 187.229 44.0562C187.305 42.792 187.755 42.3874 188.998 42.5391C188.998 42.8021 188.998 43.065 188.998 43.3685C188.855 43.3786 188.702 43.3482 188.587 43.4089C188.434 43.5 188.224 43.6314 188.195 43.7832C188.07 44.2889 188.147 44.3698 188.635 44.3698C188.75 44.3698 188.864 44.3698 189.008 44.3698C189.008 44.6226 189.008 44.8553 189.008 45.1284C188.883 45.1385 188.759 45.1486 188.635 45.1486C188.166 45.1587 188.166 45.1486 188.166 45.6543C188.166 46.5342 188.166 47.4142 188.166 48.2941C188.166 48.4256 188.166 48.5672 188.166 48.7189C187.86 48.7189 187.583 48.7189 187.258 48.7189C187.258 47.5659 187.258 46.3927 187.258 45.1992Z" fill="white"/>
<path id="Vector_52" d="M231.874 44.4003C231.721 44.8858 231.568 45.351 231.415 45.8163C231.119 46.7165 230.803 47.6065 230.516 48.5067C230.43 48.7798 230.267 48.7596 230.086 48.7393C229.875 48.7191 229.627 48.8708 229.512 48.5067C229.072 47.1413 228.603 45.7758 228.125 44.3699C228.421 44.3699 228.689 44.3497 228.948 44.3801C229.034 44.3902 229.148 44.5318 229.177 44.6329C229.435 45.4319 229.684 46.231 229.933 47.03C229.952 47.1008 229.98 47.1615 230.047 47.3031C230.286 46.5243 230.506 45.8365 230.707 45.1285C230.946 44.3295 230.937 44.3295 231.721 44.3699C231.759 44.3801 231.798 44.3902 231.874 44.4003Z" fill="white"/>
<path id="Vector_53" d="M108.357 54.5854C108.357 54.7067 108.357 54.9293 108.357 55.2125C108.175 55.2125 108.003 55.2226 107.841 55.2125C107.592 55.1922 107.515 55.3035 107.515 55.5563C107.525 56.5577 107.515 57.559 107.515 58.5704C107.515 58.6513 107.506 58.7424 107.496 58.8536C107.209 58.8536 106.942 58.8536 106.607 58.8536C106.607 58.6716 106.607 58.4895 106.607 58.3074C106.607 57.4376 106.607 56.5779 106.607 55.7081C106.607 55.4147 106.626 55.1315 106.205 55.2023C106.205 54.9394 106.205 54.727 106.205 54.4842C106.415 54.4438 106.635 54.4235 106.607 54.0796C106.521 52.9671 107.267 52.431 108.338 52.6333C108.338 52.9064 108.338 53.1896 108.338 53.4424C108.089 53.5031 107.821 53.5335 107.611 53.665C107.515 53.7256 107.506 53.9886 107.525 54.1504C107.601 54.7472 108.089 54.2212 108.357 54.5854Z" fill="white"/>
<path id="Vector_54" d="M169.566 44.3798C169.92 44.4405 169.939 44.2281 169.929 43.955C169.92 43.6414 169.929 43.3178 169.929 43.0346C169.996 43.0042 170.006 42.9941 170.015 42.9941C170.847 42.893 170.847 42.893 170.847 43.7628C170.847 43.8033 170.847 43.8336 170.847 43.8741C170.8 44.2382 170.895 44.4506 171.297 44.3798C171.354 44.3697 171.412 44.3899 171.488 44.3899C171.488 44.6326 171.488 44.8653 171.488 45.1282C171.297 45.1485 171.106 45.1586 170.847 45.1788C170.847 45.4721 170.847 45.7654 170.847 46.0588C170.847 46.433 170.847 46.8072 170.847 47.1713C170.847 47.8591 170.847 47.8591 171.507 47.9805C171.507 48.1322 171.507 48.294 171.507 48.4457C171.507 48.557 171.498 48.6581 171.488 48.8402C171.144 48.8099 170.819 48.8099 170.503 48.7289C170.168 48.6379 169.987 48.3345 169.967 47.9805C169.939 47.3129 169.939 46.6454 169.929 45.9778C169.929 45.7351 169.929 45.4822 169.929 45.2496C169.489 45.0574 169.489 45.0574 169.566 44.3798Z" fill="white"/>
<path id="Vector_55" d="M239.201 47.9808C239.201 48.2437 239.201 48.5067 239.201 48.8506C238.837 48.8101 238.493 48.8304 238.187 48.7191C237.747 48.5674 237.652 48.1325 237.642 47.6874C237.632 46.9896 237.642 46.3018 237.642 45.6039C237.642 45.4724 237.642 45.3308 237.642 45.2094C237.173 45.0779 237.173 45.0779 237.269 44.3902C237.604 44.4306 237.69 44.2385 237.642 43.9249C237.632 43.8642 237.642 43.8035 237.642 43.7429C237.642 42.8831 237.642 42.8831 238.551 43.0045C238.551 43.2877 238.551 43.581 238.551 43.8642C238.551 44.3598 238.551 44.3598 239 44.3699C239.057 44.3699 239.115 44.3801 239.201 44.3801C239.201 44.6228 239.201 44.8554 239.201 45.0881C239.172 45.1083 239.153 45.1285 239.134 45.1285C238.551 45.2094 238.551 45.2094 238.551 45.8365C238.551 46.2714 238.551 46.7064 238.551 47.1413C238.541 47.8493 238.551 47.8594 239.201 47.9808Z" fill="white"/>
<path id="Vector_56" d="M194.307 58.9344C194.106 58.9344 193.943 58.9445 193.781 58.9344C193.14 58.904 192.786 58.5399 192.767 57.8623C192.748 57.1442 192.757 56.426 192.757 55.7079C192.757 55.4146 192.786 55.1213 192.365 55.2022C192.365 54.9392 192.365 54.7268 192.365 54.474C192.729 54.4841 192.796 54.2515 192.767 53.9278C192.748 53.6749 192.767 53.412 192.767 53.1187C193.073 53.1187 193.36 53.1187 193.675 53.1187C193.675 53.4221 193.695 53.7154 193.675 54.0087C193.656 54.3223 193.733 54.4841 194.058 54.4436C194.135 54.4335 194.221 54.4537 194.316 54.4639C194.316 54.7066 194.316 54.9392 194.316 55.1617C193.675 55.3033 193.675 55.3033 193.675 56.0113C193.675 56.4463 193.675 56.8812 193.675 57.3161C193.675 57.9836 193.675 57.9836 194.307 58.0443C194.307 58.3073 194.307 58.6006 194.307 58.9344Z" fill="white"/>
<path id="Vector_57" d="M195.867 52.5928C196.163 52.5928 196.431 52.5928 196.727 52.5928C196.737 52.7344 196.746 52.8659 196.746 52.9973C196.746 54.4437 196.746 55.9002 196.746 57.3465C196.746 57.9432 196.766 57.9635 197.368 58.0444C197.368 58.277 197.378 58.5198 197.359 58.7625C197.349 58.8232 197.253 58.9345 197.186 58.9345C196.335 58.985 195.847 58.7322 195.828 57.8219C195.8 56.1328 195.819 54.4538 195.819 52.7647C195.828 52.7141 195.847 52.6636 195.867 52.5928Z" fill="white"/>
<path id="Vector_58" d="M132.448 58.0341C132.448 58.2668 132.448 58.4691 132.448 58.6815C132.448 58.7523 132.429 58.8231 132.429 58.8837C131.377 59.0759 130.918 58.6713 130.918 57.579C130.918 56.0416 130.918 54.5042 130.918 52.9669C130.918 52.8455 130.918 52.7241 130.918 52.5825C131.224 52.5825 131.501 52.5825 131.827 52.5825C131.827 52.7342 131.827 52.8859 131.827 53.0275C131.827 54.4537 131.827 55.8798 131.827 57.3059C131.817 57.933 131.846 57.9633 132.448 58.0341Z" fill="white"/>
<path id="Vector_59" d="M131.271 47.9808C131.281 47.9909 131.29 48.001 131.29 48.0111C131.242 48.2741 131.481 48.6483 131.156 48.8C130.755 48.9821 130.066 48.709 129.913 48.355C129.836 48.173 129.779 47.9504 129.779 47.7482C129.77 46.0692 129.77 44.4003 129.77 42.7213C129.77 42.6606 129.779 42.6 129.789 42.519C130.076 42.519 130.353 42.519 130.669 42.519C130.669 42.6606 130.669 42.7921 130.669 42.9337C130.669 44.3497 130.669 45.7657 130.669 47.1716C130.669 47.8594 130.669 47.8594 131.271 47.9808Z" fill="white"/>
<path id="Vector_60" d="M225.591 44.3901C225.61 44.4912 225.62 44.5924 225.648 44.7137C225.706 44.6733 225.744 44.6632 225.782 44.6328C226.222 44.208 226.748 44.1271 227.265 44.3901C227.571 44.5519 227.58 44.6429 227.399 44.9464C227.217 45.2397 227.064 45.4015 226.672 45.2093C226.136 44.9565 225.687 45.3307 225.648 45.9881C225.61 46.7063 225.629 47.4244 225.62 48.1425C225.62 48.3246 225.62 48.5066 225.62 48.719C225.304 48.719 225.017 48.719 224.721 48.719C224.721 47.2727 224.721 45.8465 224.721 44.38C224.998 44.3901 225.275 44.3901 225.591 44.3901Z" fill="white"/>
<path id="Vector_61" d="M122.262 48.7291C121.928 48.7291 121.66 48.7291 121.363 48.7291C121.363 47.2726 121.363 45.8465 121.363 44.3901C121.66 44.3901 121.928 44.3901 122.224 44.3901C122.253 44.4912 122.272 44.5924 122.31 44.7137C122.788 44.2586 123.286 44.0765 123.869 44.38C124.012 44.4609 124.271 44.5013 124.156 44.7845C123.984 45.2093 123.735 45.3813 123.467 45.2599C122.827 44.9767 122.348 45.2498 122.301 45.978C122.253 46.6961 122.272 47.4142 122.262 48.1324C122.262 48.3245 122.262 48.5066 122.262 48.7291Z" fill="white"/>
<path id="Vector_62" d="M141.198 48.7389C140.873 48.7389 140.605 48.7389 140.309 48.7389C140.309 47.2926 140.309 45.8563 140.309 44.3898C140.596 44.3898 140.873 44.3898 141.16 44.3898C141.188 44.4909 141.208 44.5921 141.246 44.7235C141.724 44.2684 142.221 44.0863 142.805 44.3797C142.948 44.4606 143.206 44.5111 143.092 44.7842C142.91 45.2191 142.671 45.381 142.403 45.2596C141.772 44.9764 141.294 45.2495 141.246 45.9878C141.198 46.7161 141.217 47.4544 141.208 48.1826C141.188 48.3546 141.198 48.5265 141.198 48.7389Z" fill="white"/>
<path id="Vector_63" d="M122.262 58.8336C122.262 57.3771 122.262 55.9207 122.262 54.444C122.558 54.444 122.836 54.444 123.122 54.444C123.142 54.5653 123.151 54.6665 123.17 54.8384C123.285 54.7171 123.371 54.6159 123.476 54.535C123.802 54.2821 124.538 54.272 124.873 54.5148C125.054 54.6463 125.121 54.798 124.949 55.0003C124.825 55.1419 124.71 55.3037 124.605 55.4453C123.62 54.9901 123.161 55.3037 123.151 56.4163C123.142 57.185 123.151 57.9536 123.142 58.7223C123.142 58.7426 123.132 58.7729 123.122 58.8336C122.845 58.8336 122.568 58.8336 122.262 58.8336Z" fill="white"/>
<path id="Vector_64" d="M188.713 54.4337C189.029 54.4337 189.287 54.4337 189.574 54.4337C189.593 54.5652 189.602 54.6764 189.631 54.8585C189.956 54.4236 190.348 54.282 190.798 54.3528C190.98 54.3831 191.161 54.4337 191.324 54.5247C191.515 54.636 191.582 54.8079 191.41 55.0102C191.286 55.1518 191.171 55.3137 191.046 55.4755C190.951 55.4249 190.884 55.3743 190.817 55.344C190.157 55.0507 189.66 55.3743 189.621 56.1734C189.583 56.9319 189.612 57.6804 189.602 58.439C189.602 58.5705 189.602 58.702 189.602 58.8537C189.287 58.8537 189.009 58.8537 188.713 58.8537C188.713 57.377 188.713 55.9205 188.713 54.4337Z" fill="white"/>
<path id="Vector_65" d="M194.852 44.3798C195.148 44.3798 195.416 44.3798 195.703 44.3798C195.722 44.491 195.731 44.5922 195.76 44.7237C196.238 44.2887 196.736 44.0763 197.319 44.3798C197.472 44.4607 197.711 44.5113 197.616 44.7945C197.472 45.1889 197.185 45.3912 196.927 45.2698C196.315 44.9967 195.856 45.2294 195.779 45.9171C195.712 46.4633 195.741 47.0297 195.731 47.586C195.722 47.9602 195.731 48.3244 195.731 48.7289C195.435 48.7289 195.158 48.7289 194.852 48.7289C194.852 47.2927 194.852 45.8565 194.852 44.3798Z" fill="white"/>
<path id="Vector_66" d="M173.706 48.7393C173.41 48.7393 173.142 48.7393 172.846 48.7393C172.846 47.293 172.846 45.8567 172.846 44.3901C173.133 44.3901 173.4 44.3901 173.706 44.3901C173.706 45.8365 173.706 47.2727 173.706 48.7393Z" fill="white"/>
<path id="Vector_67" d="M158.404 44.3901C158.701 44.3901 158.969 44.3901 159.275 44.3901C159.275 45.8365 159.275 47.2727 159.275 48.7292C158.978 48.7292 158.71 48.7292 158.404 48.7292C158.404 47.2929 158.404 45.8466 158.404 44.3901Z" fill="white"/>
<path id="Vector_68" d="M211.474 58.8434C211.178 58.8434 210.9 58.8434 210.613 58.8434C210.613 57.3768 210.613 55.9406 210.613 54.4639C210.891 54.4639 211.178 54.4639 211.474 54.4639C211.474 55.9203 211.474 57.3768 211.474 58.8434Z" fill="white"/>
<path id="Vector_69" d="M241.468 44.4004C241.468 45.8569 241.468 47.283 241.468 48.7394C241.171 48.7394 240.904 48.7394 240.598 48.7394C240.598 47.2931 240.598 45.867 240.598 44.4004C240.875 44.4004 241.152 44.4004 241.468 44.4004Z" fill="white"/>
<path id="Vector_70" d="M159.333 42.5293C159.294 42.8631 159.352 43.2272 159.208 43.4396C159.122 43.5711 158.596 43.5711 158.51 43.4497C158.357 43.2272 158.395 42.8631 158.348 42.5293C158.692 42.5293 158.969 42.5293 159.333 42.5293Z" fill="white"/>
<path id="Vector_71" d="M172.77 42.519C173.143 42.519 173.401 42.519 173.745 42.519C173.716 42.8427 173.774 43.1967 173.64 43.4293C173.563 43.5507 173.028 43.5709 172.942 43.4496C172.789 43.227 172.817 42.8629 172.77 42.519Z" fill="white"/>
<path id="Vector_72" d="M210.623 52.5928C210.92 52.5928 211.187 52.5928 211.474 52.5928C211.474 52.9063 211.474 53.1895 211.474 53.5132C211.197 53.5132 210.92 53.5132 210.623 53.5132C210.623 53.1996 210.623 52.8962 210.623 52.5928Z" fill="white"/>
<path id="Vector_73" d="M240.598 43.4598C240.598 43.1463 240.598 42.853 240.598 42.5293C240.885 42.5293 241.152 42.5293 241.458 42.5293C241.458 42.8226 241.458 43.126 241.458 43.4598C241.181 43.4598 240.904 43.4598 240.598 43.4598Z" fill="white"/>
</g>
<g id="Group 63">
<path id="Vector_74" d="M37.2623 58.152C35.8198 58.1367 34.3743 58.2713 32.9346 58.1061C32.4345 58.048 31.9315 57.9592 31.4545 57.7634C30.7 57.4514 30.2259 56.8456 29.9137 56.0838C29.4193 54.8814 29.2372 53.5995 29.084 52.3145C28.8556 50.3993 28.6764 48.481 28.4567 46.5657C28.3092 45.2716 27.8929 44.1334 26.9043 43.2492C25.7363 42.2029 25.0888 40.7894 24.5858 39.2872C24.2996 38.4367 23.9411 37.6198 23.4121 36.8947C23.1693 36.5612 22.8859 36.2736 22.5679 36.0442C21.0994 34.9917 20.4374 33.4558 20.1223 31.6783C19.8592 30.1914 19.7349 28.68 19.3677 27.2114C19.0382 25.8958 18.4195 24.8128 17.3354 24.0173C16.419 23.3442 15.9478 22.3162 15.6298 21.2118C15.2367 19.8442 14.8233 18.4888 14.0196 17.3109C13.6929 16.8337 13.2795 16.4512 12.8459 16.0871C11.8977 15.2886 11.0911 14.3646 10.6141 13.1653C10.0215 11.6754 10.2268 10.268 11.1056 8.97384C12.0307 7.60931 13.3113 6.78325 14.8464 6.44976C15.7686 6.2509 16.7139 6.26619 17.5696 6.78325C18.6421 7.43492 19.0815 8.50268 19.229 9.74177C19.333 10.5984 19.3099 11.4581 19.1394 12.2934C18.8907 13.5019 19.0266 14.6767 19.3099 15.8424C19.8505 18.0483 20.6773 20.1348 21.7614 22.1051C21.9117 22.3774 22.0967 22.6283 22.2817 22.8761C22.328 22.9373 22.3945 23.0628 22.5043 23.0016C22.5853 22.9557 22.5651 22.8486 22.5593 22.766C22.539 22.3468 22.4205 21.9491 22.2846 21.5606C22.0418 20.863 21.8221 20.1532 21.5359 19.474C20.8479 17.8494 20.8276 16.1514 21.0445 14.4411C21.2931 12.4739 22.0331 10.7422 23.467 9.40828C24.7448 8.2212 26.2105 7.68885 27.9363 7.84183C30.5063 8.06823 31.2724 10.9625 30.3271 12.8655C29.7547 14.0189 28.8238 14.6981 27.7022 15.1356C27.4535 15.2335 27.202 15.3161 26.965 15.4355C26.5574 15.6435 26.2451 15.9586 26.1237 16.439C25.6554 18.2686 25.5282 20.1165 25.8896 21.9858C25.9676 22.3927 26.0919 22.7844 26.2769 23.1576C26.4735 23.5523 26.7915 23.7175 27.1876 23.693C28.2138 23.6318 28.925 23.1178 29.0262 21.9277C29.0985 21.0894 29.1013 20.2419 29.2719 19.4159C29.321 19.1772 29.3644 18.9325 29.454 18.7122C29.8934 17.6291 30.5005 17.4455 31.4632 17.7454C32.9578 18.2104 33.9783 19.2721 34.4263 20.8722C34.6952 21.8359 34.5304 22.7843 34.2095 23.7083C33.7701 24.978 33.0618 26.0917 32.342 27.1931C31.5383 28.423 30.6306 29.5825 30.0149 30.9409C29.7518 31.5222 29.587 32.1188 29.7547 32.7797C29.8298 33.0703 29.9715 33.1499 30.223 33.1254C30.4543 33.104 30.674 33.0428 30.8937 32.9633C31.5499 32.7246 31.9864 32.9357 32.2582 33.6057C32.4837 34.1595 32.6918 34.1932 33.0705 33.7465C33.4781 33.2661 33.7557 32.7063 33.9725 32.1127C34.3194 31.1643 34.808 30.3199 35.5336 29.6498C37.2854 28.0375 39.3148 28.6371 40.4191 30.5646C41.7403 32.8715 41.3789 35.1508 40.0058 37.3016C39.046 38.8038 37.722 39.8287 36.1377 40.5079C35.4295 40.8108 34.7472 41.1902 34.1719 41.7501C33.1659 42.7291 32.8248 43.9346 33.0937 45.3328C33.2353 46.064 33.7007 46.272 34.3338 45.9416C34.8455 45.6724 35.1693 45.192 35.5654 44.7882C35.9556 44.3904 36.395 44.0722 36.9096 43.8703C37.7624 43.5338 38.5141 44.1151 38.8696 44.7912C39.442 45.8804 39.5432 47.0614 39.4363 48.2729C39.2859 49.9832 38.6615 51.4701 37.4994 52.6877C37.3519 52.8407 37.2218 53.0121 37.0889 53.1803C37.0166 53.2721 36.9125 53.3792 36.9819 53.5046C37.057 53.6392 37.1871 53.5475 37.297 53.5352C37.8231 53.471 38.3204 53.2262 38.861 53.2691C39.5895 53.3272 40.1763 53.624 40.4828 54.3643C40.7458 55.0038 40.8846 55.6616 40.6793 56.3591C40.5868 56.6743 40.6389 56.9557 40.8557 57.2066C41.0205 57.3932 41.1708 57.5952 41.3182 57.794C41.3876 57.8889 41.4859 58.0021 41.4223 58.1214C41.3645 58.2285 41.2315 58.1703 41.1332 58.1703C39.9537 58.1642 38.7771 58.155 37.5976 58.1459C37.4936 58.152 37.3779 58.152 37.2623 58.152Z" fill="white"/>
<path id="Vector_75" d="M64.21 42.7137C63.892 41.8264 63.5798 41.0585 63.3659 40.2508C63.2849 39.9448 63.2127 39.6358 63.1693 39.3237C63.0797 38.6904 63.3485 38.3814 63.9556 38.3875C64.0337 38.3875 64.1117 38.3875 64.2303 38.3875C63.9209 37.7818 63.6087 37.2188 63.3861 36.6069C63.1953 36.0807 63.0334 35.5483 62.9843 34.9823C62.9149 34.144 63.2502 33.679 64.0337 33.5383C64.2505 33.4985 64.1956 33.4006 64.1349 33.269C63.8024 32.5684 63.5307 31.8464 63.3601 31.0846C63.2618 30.644 63.1953 30.1973 63.2213 29.7414C63.2502 29.2458 63.4121 28.8389 63.9094 28.6829C64.0973 28.6247 64.0395 28.5115 63.9874 28.3769C63.6637 27.5539 63.3485 26.7278 63.2242 25.8406C63.0913 24.9044 63.4179 24.1885 64.1493 23.8091C63.3775 23.0962 62.8658 22.2518 62.9525 21.1168C62.9583 21.0525 62.9641 20.9852 62.9062 20.9546C62.8022 20.9026 62.7415 20.9852 62.6692 21.0494C62.0968 21.5757 61.5793 22.16 61.0994 22.7811C59.1279 25.3327 57.7055 28.2117 56.5579 31.2559C56.3844 31.7179 56.13 31.9106 55.7658 31.8586C55.3899 31.8035 55.1847 31.5618 55.1384 31.0662C54.9765 29.3896 55.1934 27.7528 55.6212 26.1404C56.2861 23.6255 57.4367 21.3615 58.8127 19.2107C58.8706 19.1189 59.018 19.0241 58.9255 18.9047C58.8474 18.8068 58.7058 18.8711 58.5988 18.9139C57.4425 19.3728 56.2746 19.8042 55.1355 20.309C53.8173 20.8904 52.4904 21.4594 51.2184 22.1509C50.9177 22.313 50.6257 22.362 50.3511 22.1233C50.0591 21.8694 50.0129 21.5206 50.1112 21.1596C50.276 20.563 50.4783 19.9786 50.7241 19.4126C51.5682 17.4607 52.7968 15.8667 54.6036 14.8387C55.3842 14.3951 56.2254 14.1044 57.1071 13.9637C57.1881 13.9514 57.2661 13.9331 57.3442 13.9117C57.4135 13.8933 57.4772 13.8566 57.4743 13.7709C57.4743 13.6944 57.4049 13.6822 57.3528 13.6608C56.8527 13.4497 56.3584 13.2263 55.8554 13.0275C54.7626 12.5961 53.667 12.1678 52.5655 11.7547C52.0799 11.5712 51.5884 11.4059 51.0883 11.2683C50.7154 11.1643 50.5217 10.9164 50.4494 10.5432C50.38 10.1822 50.539 9.84561 50.8512 9.64981C52.2822 8.74726 53.8636 8.43519 55.4969 8.33423C56.607 8.26386 57.7113 8.38624 58.8156 8.49026C58.9024 8.49944 59.0093 8.55145 59.0642 8.43519C59.1076 8.34647 59.0267 8.2761 58.9862 8.20573C58.304 7.04924 57.5986 5.91112 56.6937 4.93208C56.4306 4.64755 56.3497 4.31101 56.4711 3.92245C56.5839 3.55225 56.8527 3.42375 57.1823 3.39316C59.255 3.19123 61.0069 3.8429 62.3512 5.57763C62.4553 5.71225 62.5304 5.9723 62.7039 5.93559C62.886 5.89582 62.8426 5.62964 62.8802 5.45831C63.2474 3.88574 63.6001 2.30704 64.2968 0.844609C64.5425 0.327556 64.927 0.00936999 65.4531 0.000191539C65.9966 -0.00898691 66.3955 0.312259 66.6442 0.844609C67.3409 2.31928 67.708 3.90715 68.0636 5.49809C68.0983 5.65718 68.0578 5.905 68.2284 5.94477C68.396 5.98454 68.4625 5.74284 68.5608 5.6174C69.853 3.91633 71.5587 3.24936 73.5765 3.36868C73.9465 3.3901 74.3223 3.45435 74.464 3.91633C74.6028 4.36302 74.4611 4.70874 74.1605 5.0361C73.2845 5.99372 72.6023 7.10431 71.9431 8.2302C71.9056 8.29751 71.8217 8.37094 71.8882 8.45967C71.946 8.53309 72.0357 8.49944 72.1166 8.49332C73.1631 8.40154 74.2096 8.28833 75.2619 8.32811C76.7247 8.38318 78.1383 8.67383 79.4826 9.29185C79.7225 9.40199 79.9509 9.54578 80.1677 9.70488C80.451 9.90986 80.5522 10.2158 80.4857 10.5707C80.4192 10.9164 80.2371 11.1642 79.8989 11.2591C78.9015 11.5375 77.9388 11.9322 76.9704 12.2993C75.9152 12.7001 74.8716 13.1284 73.8222 13.5445C73.802 13.5537 73.7731 13.5537 73.7586 13.569C73.6719 13.6577 73.4637 13.6271 73.4782 13.7893C73.4926 13.9423 73.6719 13.9392 73.7933 13.9576C74.6201 14.0799 75.4006 14.3584 76.1436 14.7438C77.8348 15.6189 79.0345 17.017 79.9133 18.7487C80.2747 19.4616 80.558 20.205 80.7835 20.976C80.8297 21.1382 80.8789 21.3095 80.8789 21.4747C80.8875 22.1141 80.3238 22.4629 79.7688 22.1723C78.5806 21.5512 77.3607 21.0036 76.132 20.4712C74.8919 19.9327 73.643 19.431 72.3883 18.9353C72.2698 18.8894 72.1195 18.8007 72.0328 18.9047C71.9258 19.0332 72.0906 19.1403 72.1542 19.2413C73.5476 21.4258 74.7039 23.7296 75.3631 26.2873C75.762 27.8323 75.9412 29.3988 75.8169 30.9989C75.762 31.6873 75.3399 32.0208 74.8051 31.7974C74.6085 31.7148 74.4987 31.5618 74.4235 31.3599C73.6083 29.1816 72.6514 27.0766 71.443 25.1094C70.5526 23.6592 69.5582 22.2977 68.3527 21.1198C68.2717 21.0403 68.185 20.8751 68.0347 20.9638C67.9248 21.028 67.9942 21.1657 67.9971 21.2667C68.0318 22.3436 67.523 23.136 66.7974 23.8152C67.4738 24.1732 67.815 24.8463 67.7398 25.6356C67.6473 26.5963 67.3119 27.4805 66.9621 28.3555C66.8841 28.5513 66.8754 28.637 67.098 28.7165C67.5345 28.8695 67.6935 29.255 67.7167 29.7108C67.7629 30.6746 67.497 31.568 67.1645 32.446C67.0575 32.7275 66.939 33.0059 66.806 33.2751C66.7193 33.4526 66.7222 33.523 66.9332 33.5474C67.6415 33.63 68.0462 34.2052 67.9624 34.9823C67.8786 35.7533 67.6357 36.4754 67.3206 37.1729C67.1385 37.5768 66.9448 37.9715 66.6846 38.3937C66.887 38.3937 67.0315 38.3875 67.1732 38.3937C67.5374 38.4151 67.7861 38.6935 67.7803 39.0912C67.7687 39.7857 67.5288 40.4252 67.3206 41.0707C67.1529 41.5847 66.9564 42.0926 66.7569 42.6494C66.9621 42.5729 67.124 42.4995 67.2946 42.4567C67.5403 42.3955 67.7109 42.5026 67.7369 42.7748C67.8554 44.0048 67.2252 45.6783 66.3261 46.2443C65.6323 46.6818 64.6841 46.5227 64.1667 45.8557C63.5307 45.0358 63.2011 44.0935 63.1953 43.0288C63.1924 42.4781 63.4382 42.3006 63.9152 42.5301C63.9788 42.5637 64.0452 42.6127 64.21 42.7137Z" fill="white"/>
<path id="Vector_76" d="M19.4776 58.1795C16.8441 58.1795 14.2076 58.1795 11.574 58.1795C11.1375 58.1795 10.8223 57.9562 10.8223 57.5095C10.8195 56.4448 10.3107 55.6371 9.73537 54.8447C8.83052 53.5995 7.86497 52.4063 6.88496 51.2253C5.99457 50.1576 5.23716 48.995 4.92495 47.5784C4.68211 46.4801 4.92495 45.5316 5.72283 44.7515C6.41954 44.0692 7.35329 44.0967 8.15695 44.8096C9.36824 45.8804 10.143 47.2878 10.9206 48.6982C11.3369 49.4508 11.6376 50.283 12.2794 50.8857C12.6841 51.2651 12.9443 51.2345 13.1235 50.693C13.4184 49.8027 13.4791 48.8726 13.3837 47.9425C13.2016 46.1649 12.5973 44.5648 11.4352 43.234C10.6373 42.3222 9.70069 41.7287 8.46628 41.8235C7.94881 41.8633 7.4429 41.8235 6.96012 41.5482C5.85581 40.9179 5.9512 39.6023 6.48601 38.8436C7.42266 37.5158 8.91147 37.3873 10.0881 38.4918C11.0623 39.4035 11.7995 40.5232 12.6263 41.5665C13.0021 42.0408 13.3605 42.5364 13.8982 42.8301C14.5169 43.1666 15.1818 42.723 15.1616 41.9887C15.1471 41.4809 14.9245 41.0495 14.6875 40.6303C14.2047 39.7798 13.6092 39.0149 12.9529 38.3174C12.1232 37.4362 11.6376 36.4021 11.4641 35.1753C11.334 34.2513 11.0999 33.3579 10.4147 32.6849C9.4752 31.7639 8.37377 31.4641 7.13069 31.7364C6.72886 31.8251 6.32125 31.9322 5.93965 32.0913C5.04637 32.4646 4.36123 32.0577 3.75125 31.4458C2.01961 29.7141 1.53104 27.3705 2.38674 25.0117C2.53129 24.6109 2.72208 24.2346 2.98226 23.9041C3.80617 22.8486 4.68211 22.818 5.7315 23.4666C6.4918 23.9347 7.27234 24.0938 8.09913 23.7175C8.68887 23.4513 8.83053 22.7691 8.44604 22.2337C7.91412 21.4933 7.15671 21.1659 6.35015 20.9364C5.43374 20.6764 4.47686 20.6825 3.55467 20.4806C0.834349 19.8901 -0.587967 17.8341 0.230154 14.8236C0.444079 14.0373 1.1032 13.7008 1.74497 13.3826C2.77413 12.8716 3.84954 12.8166 4.9076 13.1776C6.17959 13.612 7.24343 14.3769 7.84184 15.7108C8.51253 17.2039 8.99242 18.7734 9.41738 20.3551C9.77585 21.6829 10.3714 22.7966 11.4641 23.5829C12.129 24.0602 12.3632 24.7547 12.3516 25.5716C12.3458 26.0488 12.3429 26.5231 12.3429 27.0003C12.3429 28.3343 12.6927 28.7962 13.93 29.0563C14.3608 29.145 14.6585 29.3867 14.8696 29.7783C15.893 31.6813 16.2399 33.7465 16.1936 35.9095C16.1734 36.8733 16.0924 37.837 16.2312 38.7977C16.3497 39.6085 16.6677 40.3152 17.2257 40.8812C17.746 41.4136 18.3213 41.8633 19.0151 42.1417C19.443 42.313 19.6945 42.7108 19.865 43.1544C20.1657 43.9285 20.2264 44.7453 20.1715 45.5653C20.0501 47.3643 20.6456 48.5238 22.1806 49.3682C22.5651 49.5793 22.9641 49.766 23.3572 49.9648C24.4818 50.5308 25.3346 51.4517 26.1498 52.4124C27.1096 53.5475 27.815 54.8355 28.0723 56.3591C28.1272 56.6834 28.1532 57.0139 28.159 57.3412C28.1705 57.8828 27.8843 58.1734 27.3755 58.1734C24.7477 58.1795 22.1112 58.1795 19.4776 58.1795Z" fill="white"/>
<path id="Vector_77" d="M85.6619 54.7039C84.9652 54.0553 84.3523 53.4525 83.8204 52.7672C83.1786 51.9473 82.6149 51.0753 82.3345 50.032C81.976 48.7012 82.3287 47.5967 83.3029 46.7125C84.1037 45.9843 85.0432 45.5071 86.0926 45.4C87.2027 45.2868 88.1481 45.7549 88.8737 46.6391C90.0069 48.0189 90.4376 49.6466 90.1572 51.4363C89.9202 52.9416 90.5012 54.0063 91.5738 54.8783C92.0334 55.2515 92.5885 55.4259 93.103 55.689C93.6407 55.9644 94.1669 56.2612 94.5427 56.7813C94.7537 57.0719 94.8231 57.3779 94.6641 57.7022C94.5138 58.0112 94.2767 58.1795 93.9183 58.1795C88.9402 58.1733 83.9592 58.2131 78.9811 58.1489C77.7785 58.1336 76.651 57.6012 75.7722 56.6619C75.2229 56.0715 75.0003 55.325 75.1189 54.5081C75.3154 53.1374 75.8965 51.9687 76.9112 51.0723C77.5992 50.4634 78.3856 50.4543 79.1834 50.7847C80.3456 51.262 81.2793 52.1125 82.2478 52.908C82.9792 53.5076 83.6961 54.144 84.5692 54.5111C84.8814 54.6427 85.2109 54.7559 85.6619 54.7039Z" fill="white"/>
<path id="Vector_78" d="M79.3219 33.5166C79.3306 32.9537 79.3884 32.3969 79.4809 31.8431C79.6977 30.5581 79.5156 29.3221 79.0791 28.1105C78.7379 27.1652 78.3563 26.2381 77.8707 25.3662C77.7492 25.149 77.6885 24.9378 77.8389 24.7206C77.9892 24.5034 78.2176 24.4514 78.4546 24.4789C80.1169 24.6717 81.7416 25.048 83.268 25.7853C85.4853 26.8592 87.2343 28.4807 88.3299 30.8212C88.726 31.6687 88.7953 32.5988 88.9167 33.5166C89.1393 35.1963 89.3648 36.876 89.9459 38.4699C90.0153 38.6627 90.1049 38.8493 90.1974 39.0298C90.287 39.2012 90.3448 39.3633 90.2263 39.5408C90.0991 39.7305 89.9112 39.7396 89.7262 39.6846C88.9428 39.452 88.2576 39.0268 87.6216 38.4944C86.6185 37.6561 86.2109 36.414 85.6385 35.282C85.2424 34.4987 84.8666 33.7033 84.3549 32.9904C84.1641 32.7242 83.9502 32.4948 83.6611 32.354C83.5281 32.2898 83.3836 32.2623 83.2709 32.3693C83.1581 32.4764 83.268 32.5957 83.2998 32.7028C83.5281 33.4371 83.7132 34.1744 83.6611 34.9577C83.5744 36.2396 82.9211 36.6618 81.9092 36.7536C80.4291 36.8913 79.4954 35.9887 79.3508 34.3213C79.3335 34.0551 79.3335 33.7859 79.3219 33.5166Z" fill="white"/>
<path id="Vector_79" d="M69.6093 54.3339C70.1123 54.7256 70.4939 55.1814 71.0201 55.4476C71.4624 55.6709 71.7341 55.5822 71.9538 55.1263C72.0145 54.9978 72.0753 54.8632 72.1215 54.7256C72.3152 54.1534 72.8298 54.1259 73.2461 54.4349C74.2232 55.1539 74.2897 56.1696 73.4455 57.0508C72.9888 57.528 72.4597 57.8768 71.8642 58.1093C71.3352 58.3143 70.8437 58.1277 70.3638 57.9013C69.7076 57.5923 69.167 57.1028 68.6206 56.6255C68.5426 56.5582 68.4674 56.4878 68.3663 56.3991C68.2564 57.0018 68.0309 57.4883 67.4816 57.6688C66.6693 57.938 65.9321 57.3812 65.8252 56.4756C65.75 55.8423 66.0333 55.3619 66.3947 54.9275C66.597 54.6858 66.5219 54.5818 66.3368 54.3951C64.0357 52.0852 61.7346 49.7753 59.3582 47.5541C57.8145 46.1131 56.2419 44.7088 54.5131 43.5156C52.926 42.4203 51.2349 41.5575 49.457 40.86C48.2659 40.3919 47.0691 39.9421 45.8636 39.5199C45.6815 39.4557 45.4762 39.3731 45.5022 39.1038C45.5283 38.8377 45.7335 38.804 45.9243 38.755C47.3148 38.4032 48.688 38.5562 50.064 38.8866C51.576 39.2507 52.9665 39.9268 54.2992 40.7315C55.5828 41.5055 56.7362 42.4815 57.881 43.4667C60.4279 45.6603 62.9112 47.9366 65.3829 50.222C66.201 50.9777 66.9786 51.7854 67.7649 52.5839C67.9384 52.7614 68.0049 52.7185 68.1234 52.5319C68.3084 52.2413 68.5079 51.9537 68.7363 51.6967C69.0601 51.3356 69.4995 51.2745 69.9215 51.3907C70.4043 51.5223 70.6819 51.9261 70.8033 52.4218C71.0201 53.3029 70.5229 54.1259 69.6093 54.3339Z" fill="white"/>
<path id="Vector_80" d="M44.3265 13.4678C45.9252 13.5228 47.4082 13.6911 48.8478 14.1745C49.1514 14.2755 49.2901 14.4713 49.3075 14.7742C49.3277 15.0801 49.1948 15.3065 48.923 15.4411C48.2292 15.7838 47.5469 16.1479 46.9052 16.5976C45.7083 17.4359 44.9827 18.5894 44.685 20.061C44.5925 20.5138 44.4971 20.9696 44.3438 21.401C43.7975 22.9552 42.618 23.7262 41.187 24.1607C40.1463 24.4789 39.1865 24.2616 38.3828 23.5151C37.5734 22.7594 37.1658 21.7529 37.0473 20.627C36.8593 18.831 37.4751 17.2982 38.5158 15.9368C39.5103 14.6334 40.8488 13.9604 42.3896 13.6544C43.0719 13.5198 43.7483 13.5381 44.3265 13.4678Z" fill="white"/>
<path id="Vector_81" d="M47.3715 34.0398C47.3715 33.3973 47.5189 32.7824 47.7357 32.1858C47.8196 31.9533 47.7444 31.9166 47.5507 31.9166C47.3224 31.9166 47.1634 32.042 47.0159 32.2041C46.4204 32.865 46.059 33.688 45.6456 34.4743C45.2409 35.2483 44.9605 36.0989 44.4257 36.7995C43.755 37.6806 42.8791 38.2252 41.8759 38.5679C41.7256 38.6199 41.6071 38.5862 41.503 38.4608C41.4105 38.3506 41.3642 38.2191 41.4278 38.0906C42.2835 36.31 42.4743 34.358 42.6998 32.4275C42.8646 31.014 43.4139 29.8208 44.2725 28.7592C45.264 27.5323 46.458 26.6114 47.8629 25.9597C49.1407 25.3662 50.4879 25.097 51.8437 24.8338C51.9449 24.8155 52.0518 24.8186 52.1559 24.8186C52.6358 24.8247 52.8439 25.1887 52.6069 25.6232C52.101 26.5563 51.6963 27.5384 51.3725 28.5572C51.0603 29.5393 50.9938 30.5337 51.1672 31.5525C51.3118 32.4091 51.3696 33.275 51.199 34.1347C50.9099 35.5757 50.0513 36.0254 48.7909 35.8633C47.7733 35.7379 47.3657 35.1688 47.3715 34.0398Z" fill="white"/>
<path id="Vector_82" d="M51.0451 54.4561C51.2908 55.1812 51.8112 55.7197 52.2073 56.3408C52.2737 56.4448 52.4414 56.5304 52.3691 56.6712C52.2998 56.8058 52.135 56.7293 52.0193 56.7171C50.1547 56.5519 48.4722 55.9002 46.9979 54.658C46.4544 54.1991 45.9283 53.7371 45.5958 53.0763C45.3356 52.5623 45.2258 52.0238 45.3819 51.4548C45.4281 51.2804 45.3992 51.1733 45.2691 51.0417C45.061 50.8306 44.9193 50.5644 44.8731 50.2463C44.8442 50.0627 44.8499 49.8516 44.6505 49.7384C44.6071 49.7139 44.5898 49.6129 44.5811 49.5426C44.5175 48.9123 44.662 48.331 44.9829 47.8017C45.1506 47.5233 45.405 47.5906 45.6363 47.6671C46.8707 48.0863 47.4951 49.0408 47.4546 50.4206C47.4517 50.5033 47.4546 50.5828 47.4546 50.7205C47.6107 50.4941 47.605 50.283 47.6021 50.0841C47.5992 49.8822 47.5703 49.6833 47.5471 49.4324C47.8247 49.616 47.9634 49.8455 47.9692 50.1361C47.9837 50.745 48.2757 51.1733 48.7411 51.4792C48.955 51.62 48.9926 51.7423 48.8683 51.9749C48.6862 52.3145 48.6341 52.6847 48.7324 53.1497C48.8278 52.8407 48.8856 52.5898 48.9839 52.3542C49.4002 51.3721 50.1576 50.7939 51.0711 50.4115C52.8172 49.6803 54.6385 49.6313 56.48 49.7292C56.8038 49.7476 57.1275 49.7445 57.4484 49.7506C57.538 49.7537 57.645 49.7353 57.6739 49.8608C57.7028 49.9893 57.5988 50.0137 57.5207 50.0658C56.4684 50.7572 55.315 51.1763 54.1268 51.5159C53.2393 51.7699 52.3171 51.7148 51.4209 51.8708C51.1318 51.9198 50.8861 52.0422 50.7069 52.3206C50.9064 52.2502 51.1029 52.1707 51.3053 52.1125C51.9442 51.9229 52.1263 52.0238 52.427 52.6418C52.771 53.3516 53.0167 54.0981 53.2162 54.863C53.352 55.3831 53.5313 55.8818 53.9042 56.2765C53.9996 56.3775 54.0545 56.4998 53.988 56.6406C53.9158 56.7936 53.7741 56.7691 53.6527 56.7568C53.0398 56.6834 52.6293 56.2459 52.213 55.8298C51.7852 55.4015 51.473 54.8722 51.1029 54.3919C51.0769 54.3857 51.0509 54.3827 51.0249 54.3766C51.0249 54.401 51.0364 54.4286 51.0451 54.4561ZM50.5826 52.3145C50.5594 52.3451 50.5219 52.3757 50.5132 52.4154C50.5074 52.446 50.545 52.4766 50.5826 52.4521C50.6086 52.4368 50.6375 52.4124 50.652 52.3818C50.6751 52.3298 50.6288 52.3328 50.5826 52.3145Z" fill="white"/>
<path id="Vector_83" d="M82.9035 38.5469C83.4007 38.5714 83.976 38.5897 84.534 38.7641C84.7103 38.8192 84.8982 38.8804 84.9069 39.1312C84.9156 39.3944 84.7392 39.4464 84.5484 39.4831C83.9587 39.5963 83.3689 39.6819 82.7879 39.8441C81.8454 40.1103 80.9175 40.4009 80.0213 40.817C79.1598 41.2178 78.3301 41.6737 77.538 42.1999C75.9047 43.2799 74.3956 44.5343 72.93 45.8499C71.2966 47.3123 69.6951 48.8176 68.1398 50.3718C67.7582 50.7512 67.5414 50.7359 67.206 50.3075C67.0152 50.0658 66.8013 49.8456 66.6047 49.6069C66.3387 49.2887 66.333 49.0378 66.6307 48.7564C67.4084 48.0252 68.1947 47.3031 68.9897 46.5903C70.6982 45.0544 72.4009 43.5124 74.1904 42.0836C75.5375 41.0067 76.9916 40.1286 78.5643 39.4708C79.9288 38.8957 81.3482 38.5683 82.9035 38.5469Z" fill="white"/>
<path id="Vector_84" d="M62.2025 56.3923C61.6273 56.8941 61.1127 57.3958 60.4911 57.7416C60.1153 57.9496 59.7395 58.1638 59.3001 58.1821C58.5167 58.2127 57.9298 57.7538 57.3603 57.2826C57.0828 57.0532 56.8399 56.7748 56.678 56.426C56.2965 55.6122 56.8313 54.4587 57.6754 54.269C58.0252 54.1895 58.2594 54.318 58.4097 54.6423C58.4964 54.8289 58.5571 55.0278 58.6525 55.2052C58.8462 55.5724 59.1382 55.6611 59.4996 55.4745C60.0488 55.193 60.494 54.7616 61.0028 54.3394C60.4189 54.2262 59.9997 53.9356 59.8176 53.3757C59.6383 52.828 59.6817 52.3018 60.0488 51.8245C60.4882 51.2524 61.2717 51.1361 61.7371 51.6746C62.7807 52.8831 63.8301 54.0885 64.7986 55.3674C65.1628 55.8477 65.0501 56.6218 64.4054 57.3255C63.9689 57.8027 63.2895 57.8762 62.7981 57.5121C62.4396 57.2582 62.2835 56.8727 62.2025 56.3923Z" fill="white"/>
<path id="Vector_85" d="M71.1278 32.9662C71.1278 32.9417 71.1278 32.9173 71.1278 32.8928C71.1163 32.2044 71.151 32.183 71.7494 32.4859C73.1688 33.2018 73.5649 34.5419 72.845 36.2062C72.7467 36.4357 72.5241 36.6651 72.5444 36.8762C72.5559 37.0139 72.9057 37.1118 73.0965 37.2403C73.5417 37.5402 73.7499 37.9777 73.7383 38.5345C73.7094 39.8164 72.9635 40.6608 71.9084 41.0341C71.5007 41.1779 71.0758 41.2146 70.6566 41.2819C70.4658 41.3125 70.3502 41.2513 70.4369 41.0188C70.9804 39.5717 70.5959 38.2928 69.7865 37.1026C69.6275 36.8701 69.665 36.7477 69.8154 36.5458C70.6017 35.4995 71.1076 34.3308 71.1278 32.9662Z" fill="white"/>
<path id="Vector_86" d="M59.1182 32.8436C59.1153 34.2204 59.5894 35.4166 60.3873 36.4722C60.6012 36.7567 60.5868 36.9066 60.3931 37.1973C59.6328 38.3537 59.2859 39.6051 59.8033 40.991C59.8843 41.2052 59.8294 41.3031 59.6154 41.2786C58.9043 41.196 58.2047 41.0889 57.5889 40.6484C56.8257 40.1007 56.4904 39.3236 56.5106 38.3752C56.528 37.699 56.9385 37.2799 57.482 37.0351C57.7682 36.9066 57.7132 36.8148 57.5947 36.5976C57.2333 35.9337 56.9847 35.227 57.0599 34.4407C57.1553 33.431 57.7624 32.8467 58.5834 32.4489C58.6239 32.4275 58.6701 32.4183 58.7135 32.4C59.1066 32.2195 59.1413 32.247 59.1124 32.6968C59.1153 32.7457 59.1182 32.7947 59.1182 32.8436Z" fill="white"/>
<path id="Vector_87" d="M86.9216 17.892C86.9244 19.1494 86.2249 20.0948 85.0887 20.4405C84.5048 20.618 83.3571 20.1499 82.8917 19.333C82.1921 18.1 82.5101 16.3531 83.6693 15.6218C84.9442 14.8172 86.4186 15.6188 86.8291 17.1302C86.8984 17.381 86.9273 17.635 86.9216 17.892Z" fill="white"/>
<path id="Vector_88" d="M44.6455 52.5225C43.9951 51.7057 43.5065 50.901 43.1047 50.0382C42.4253 48.5727 41.9397 47.0308 41.7431 45.4123C41.532 43.6868 42.3155 42.4232 43.6886 41.6338C43.7493 41.5971 43.7956 41.5421 43.865 41.6185C43.9315 41.692 43.9257 41.7715 43.9054 41.8572C43.8072 42.2335 43.7464 42.619 43.7031 43.0075C43.5556 44.3201 43.7667 45.5867 44.157 46.8258C44.2668 47.1776 44.2726 47.4622 44.1136 47.8232C43.6077 48.9858 43.7985 50.0811 44.5761 51.054C44.6918 51.2008 44.7351 51.314 44.6802 51.5007C44.5906 51.7974 44.6079 52.1065 44.6455 52.5225Z" fill="white"/>
<path id="Vector_89" d="M48.1446 48.5845C49.0784 48.7191 49.9456 49.022 50.677 49.6829C50.8476 49.8358 50.7724 49.9368 50.6365 50.0102C50.1798 50.2581 49.7953 50.5885 49.4831 51.0199C49.3992 51.1361 49.2894 51.1575 49.1853 51.0596C48.8384 50.7415 48.4828 50.4294 48.4452 49.8848C48.4134 49.4289 48.1851 49.0924 47.8353 48.8385C47.7746 48.7956 47.6474 48.7956 47.6734 48.6824C47.6994 48.56 47.8208 48.5968 47.9075 48.5876C47.9827 48.5784 48.0637 48.5845 48.1446 48.5845Z" fill="white"/>
</g>
</g>
</svg>
