<svg width="88" height="59" viewBox="0 0 88 59" fill="none" xmlns="http://www.w3.org/2000/svg">
<g id="Frame" clip-path="url(#clip0_1442_10267)">
<g id="Group">
<path id="Vector" d="M75.959 17.3199C79.3827 17.3731 82.3897 18.4646 84.791 20.9812C86.9348 23.2282 87.9238 25.9487 87.9101 29.0415C87.8987 31.5928 87.1374 33.9115 85.5988 35.9409C84.0488 37.9853 82.0243 39.3864 79.5508 40.0733C75.6955 41.1444 72.0417 40.6949 68.7117 38.3989C66.2036 36.6702 64.6775 34.2409 64.1267 31.2514C63.5156 27.935 64.141 24.8488 66.15 22.1014C67.7155 19.9609 69.8157 18.5788 72.3422 17.8274C73.5214 17.4759 74.7274 17.3151 75.959 17.3199ZM82.7188 29.0188C82.7265 27.7701 82.466 26.5793 81.8711 25.4842C80.789 23.4913 79.1145 22.2832 76.8753 21.9664C74.6529 21.6519 72.6701 22.2443 71.0742 23.872C69.737 25.2355 69.1236 26.9218 69.1051 28.8209C69.086 30.8061 69.6852 32.5821 71.0885 34.0077C72.809 35.7556 74.9277 36.3295 77.3153 35.902C79.0966 35.5834 80.482 34.6216 81.5032 33.1362C82.3528 31.8994 82.6991 30.5054 82.7188 29.0188Z" fill="white"/>
<path id="Vector_2" d="M57.6164 20.1531C56.7752 20.6947 55.9383 21.2428 55.0887 21.7719C54.9314 21.8699 54.7257 21.9374 54.5415 21.9386C52.1473 21.9494 49.7532 21.9458 47.3585 21.9458C47.2524 21.9458 47.1456 21.9458 47.0234 21.9458C47.0234 20.5243 47.0234 19.1345 47.0234 17.7256C52.0949 17.7256 57.1562 17.7256 62.2634 17.7256C62.2634 17.8278 62.2634 17.9324 62.2634 18.037C62.2634 19.0831 62.2586 20.1292 62.2676 21.1753C62.2694 21.372 62.208 21.5041 62.0661 21.6374C60.3235 23.2842 58.5875 24.937 56.8492 26.588C56.7705 26.6628 56.684 26.7297 56.5356 26.8558C56.7621 26.9073 56.9076 26.9419 57.0542 26.973C58.2203 27.2223 59.3309 27.6156 60.3086 28.3144C61.5713 29.217 62.3165 30.4586 62.5275 31.99C62.8196 34.1061 62.4411 36.074 61.0997 37.7955C60.2401 38.899 59.1223 39.6522 57.8072 40.0593C54.5152 41.0785 51.3527 40.7061 48.354 39.012C47.3704 38.4567 46.3927 37.5732 45.7012 36.7046C46.8285 35.637 47.9588 34.5664 49.1123 33.4743C49.4223 33.7857 49.7174 34.1043 50.0352 34.3978C51.2936 35.5593 52.7787 36.1642 54.4932 36.1762C55.1144 36.1804 55.7207 36.0853 56.2834 35.8014C57.2784 35.2987 57.7649 34.4803 57.7565 33.3703C57.7482 32.262 57.1705 31.5238 56.2131 31.048C55.4124 30.6499 54.5445 30.5417 53.6681 30.51C52.9635 30.4849 52.2576 30.495 51.5524 30.5106C51.327 30.5154 51.2483 30.4371 51.1989 30.2249C51.0033 29.382 50.7965 28.5415 50.5753 27.7047C50.5097 27.456 50.5508 27.2964 50.7398 27.1087C52.97 24.8934 55.1895 22.6667 57.4137 20.4448C57.4966 20.3617 57.5979 20.2972 57.6903 20.2236C57.6653 20.1997 57.6409 20.1764 57.6164 20.1531Z" fill="white"/>
<path id="Vector_3" d="M3.77502 24.8369C2.61909 23.9158 1.47746 23.006 0.304237 22.0711C0.53912 21.7656 0.760291 21.4649 0.994578 21.175C1.99313 19.9388 3.12939 18.8646 4.59711 18.2047C6.19598 17.4862 7.88368 17.3164 9.61132 17.4461C10.967 17.5478 12.2529 17.8951 13.4177 18.6166C15.1287 19.6758 16.1231 21.2163 16.4033 23.2092C16.7794 25.8842 16.0301 28.1856 14.1069 30.0978C12.762 31.435 11.2573 32.578 9.75857 33.7281C8.15731 34.9571 6.54592 36.1723 4.9393 37.3942C4.88803 37.433 4.84272 37.4802 4.81709 37.5633C4.90234 37.5245 4.98878 37.4886 5.07343 37.4474C6.01714 36.9853 6.95905 36.5196 7.90514 36.0623C8.02557 36.0038 8.16685 35.9571 8.2986 35.9571C11.0314 35.9512 13.7635 35.9524 16.4963 35.953C16.5547 35.953 16.6125 35.9595 16.6912 35.9643C16.6912 37.3846 16.6912 38.7917 16.6912 40.2144C11.1375 40.2144 5.59685 40.2144 0.0252389 40.2144C0.0186812 40.117 0.00735437 40.0225 0.00735437 39.9275C0.00616207 38.8013 0.0115274 37.6757 0.00198903 36.5495C0.000200576 36.3582 0.0651809 36.2411 0.208853 36.1239C2.92968 33.905 5.6511 31.6879 8.3612 29.4558C9.30669 28.677 10.2045 27.8437 10.8609 26.7898C11.4272 25.88 11.5601 24.8919 11.3241 23.859C11.0564 22.6868 9.91655 21.863 8.61754 21.823C7.08305 21.7758 5.91102 22.4781 4.91188 23.5595C4.53451 23.9666 4.17206 24.3898 3.77502 24.8369Z" fill="white"/>
<path id="Vector_4" d="M55.2895 11.6565C55.2895 11.8573 55.2895 12.0432 55.2895 12.2429C54.5181 12.2429 53.767 12.2608 53.0164 12.2387C51.7263 12.2005 50.6449 11.669 49.8037 10.7048C48.6359 9.36705 48.3968 7.79971 48.9304 6.14749C49.4699 4.47554 50.6753 3.46053 52.3881 3.13116C53.0617 3.00145 53.7711 3.05166 54.465 3.03313C54.9408 3.02058 55.4171 3.03074 55.9381 3.03074C55.9381 3.16583 55.9381 3.2812 55.9381 3.39657C55.9381 5.49831 55.9357 7.60005 55.9405 9.7018C55.9411 9.99948 55.9632 10.299 56.0007 10.5943C56.0585 11.0492 56.2803 11.2602 56.7322 11.3182C56.8598 11.3349 56.9891 11.3397 57.1179 11.3397C62.7199 11.3409 68.3225 11.3403 73.9246 11.3403C74.042 11.3403 74.1594 11.3403 74.3138 11.3403C74.3138 8.56784 74.3138 5.82529 74.3138 3.05644C74.6596 3.05644 74.969 3.05644 75.2945 3.05644C75.2945 6.13015 75.2945 9.19489 75.2945 12.3092C75.1717 12.3092 75.0471 12.3092 74.9231 12.3092C68.9831 12.3092 63.043 12.3122 57.103 12.3027C56.7334 12.3021 56.3501 12.2471 55.9995 12.1347C55.7509 12.0552 55.5471 11.8364 55.2895 11.6565ZM55.4123 3.95668C55.3688 3.9513 55.3247 3.94054 55.2812 3.94054C54.536 3.94173 53.7908 3.93217 53.0462 3.9507C52.4709 3.96445 51.929 4.13601 51.4408 4.43967C50.2807 5.16177 49.759 6.2234 49.7215 7.58571C49.6714 9.38677 50.8428 10.9535 52.614 11.2363C53.3812 11.3588 54.1771 11.2978 54.9604 11.3182C55.0332 11.3199 55.1065 11.3032 55.1077 11.3032C55.0624 10.6642 54.9885 10.0533 54.9813 9.44117C54.9634 7.92703 54.9771 6.41289 54.9742 4.89875C54.9736 4.51977 54.8823 4.10432 55.4123 3.95668Z" fill="white"/>
<path id="Vector_5" d="M68.7039 50.5826C69.3262 50.5826 69.898 50.5826 70.5042 50.5826C70.5042 49.0882 70.5042 47.6094 70.5042 46.1132C70.7111 46.1132 70.884 46.1132 71.0855 46.1132C71.0855 47.6058 71.0855 49.0864 71.0855 50.594C71.69 50.594 72.2671 50.594 72.8614 50.594C72.5627 49.5784 72.7273 48.6925 73.6138 48.0678C74.3679 47.5364 75.187 47.5669 75.9304 48.0786C76.8157 48.6877 76.9707 49.573 76.6684 50.594C77.2521 50.594 77.8178 50.594 78.4008 50.594C78.1016 49.5688 78.2756 48.6811 79.1758 48.0517C79.8745 47.5633 80.8224 47.5831 81.4966 48.0876C82.3444 48.7218 82.5167 49.5796 82.209 50.5922C82.8523 50.5922 83.4788 50.5922 84.1507 50.5922C84.1507 49.1008 84.1507 47.6117 84.1507 46.1096C84.3623 46.1096 84.5287 46.1096 84.7212 46.1096C84.7212 47.7767 84.7212 49.4421 84.7212 51.1493C84.54 51.1493 84.3647 51.1493 84.1894 51.1493C83.7125 51.1493 83.2356 51.1559 82.7587 51.1475C82.2639 51.1392 81.821 51.1673 81.3762 51.505C80.7276 51.9976 79.6915 51.8529 79.0381 51.3328C78.9117 51.2318 78.7251 51.1619 78.5642 51.1571C77.909 51.1374 77.2527 51.141 76.5975 51.1553C76.4634 51.1583 76.3054 51.2121 76.201 51.2958C75.3694 51.9659 74.2952 51.9587 73.4611 51.2808C73.3526 51.193 73.1744 51.1541 73.0289 51.1535C69.4425 51.1469 65.8561 51.1523 62.2696 51.1421C61.8666 51.141 61.4541 51.0967 61.063 51.0017C60.2594 50.8068 59.7348 50.1774 59.6901 49.4307C59.637 48.5484 60.0502 47.8778 60.8538 47.5412C61.311 47.3499 62.2643 47.265 62.9123 47.3673C62.9123 47.8957 62.9123 48.4307 62.9123 48.9657C62.9123 49.4929 62.9123 50.0195 62.9123 50.5719C64.6608 50.5719 66.3926 50.5719 68.2019 50.5719C68.1703 50.1295 68.1936 49.6681 68.091 49.2365C67.9873 48.7983 67.5789 48.6853 67.1688 48.6811C66.3044 48.6728 65.4399 48.6788 64.5761 48.6782C64.1445 48.6776 63.9299 48.3189 64.135 47.9339C64.3919 47.4509 64.6536 46.9709 64.913 46.4891C65.1395 46.0677 65.1395 46.0677 65.6963 46.1161C65.3517 46.7767 65.0155 47.4211 64.6602 48.1025C64.7758 48.1127 64.8575 48.1264 64.9392 48.1264C65.6742 48.1282 66.4093 48.1222 67.1443 48.1288C68.1238 48.1372 68.6508 48.6423 68.7021 49.6256C68.717 49.9323 68.7039 50.2407 68.7039 50.5826ZM81.7548 49.7332C81.756 48.8856 81.1229 48.2388 80.296 48.2418C79.4262 48.2448 78.7871 48.8796 78.7842 49.744C78.7812 50.5964 79.4411 51.242 80.3109 51.2366C81.1264 51.2318 81.7536 50.5791 81.7548 49.7332ZM74.7303 51.2462C75.6323 51.2474 76.2648 50.6281 76.2613 49.747C76.2583 48.9226 75.6007 48.2514 74.7989 48.2525C73.9249 48.2543 73.2823 48.9035 73.2871 49.7804C73.2906 50.5958 73.9303 51.245 74.7303 51.2462ZM62.3269 47.925C61.4571 47.7851 60.7149 48.0583 60.3822 48.6369C60.1223 49.0882 60.1664 49.64 60.4961 50.062C60.8556 50.5223 61.6914 50.756 62.3269 50.5605C62.3269 49.6866 62.3269 48.8049 62.3269 47.925Z" fill="white"/>
<path id="Vector_6" d="M36.5257 4.12924C36.546 4.18424 36.5585 4.24342 36.5877 4.29303C36.9991 4.98644 37.0587 5.73902 37.045 6.53046C37.0134 8.33332 37.0349 10.1368 37.0349 11.9402C37.0349 12.049 37.0349 12.1572 37.0349 12.2875C36.6837 12.2875 36.3511 12.2875 35.9922 12.2875C35.9922 9.21264 35.9922 6.13116 35.9922 3.01023C36.2825 3.01023 36.5776 2.99588 36.8703 3.01919C36.9562 3.02637 37.0486 3.12858 37.1118 3.20809C38.9974 5.59855 40.8794 7.992 42.7621 10.3843C42.8843 10.5397 43.0077 10.6933 43.1853 10.8272C43.1585 10.7429 43.1418 10.6538 43.1037 10.5749C42.8724 10.0979 42.8223 9.5964 42.827 9.06917C42.8443 7.17605 42.8336 5.28293 42.8336 3.39041C42.8336 3.27384 42.8336 3.15668 42.8336 3.02457C43.1776 3.02457 43.4912 3.02457 43.8316 3.02457C43.8316 6.11203 43.8316 9.19231 43.8316 12.3085C43.5895 12.3085 43.3511 12.3282 43.1192 12.2989C43.0232 12.2863 42.9224 12.1829 42.8539 12.0963C40.821 9.5175 38.7917 6.93635 36.7618 4.3552C36.6945 4.26972 36.6253 4.18543 36.5573 4.10055C36.5466 4.10952 36.5365 4.11968 36.5257 4.12924Z" fill="white"/>
<path id="Vector_7" d="M18.4586 50.5989C18.5981 50.5989 18.6958 50.5989 18.7936 50.5989C19.6562 50.5989 20.5189 50.5989 21.4179 50.5989C21.4179 49.6263 21.4179 48.6759 21.4179 47.7087C21.6283 47.7087 21.8018 47.7087 22.0015 47.7087C22.0015 48.6627 22.0015 49.6054 22.0015 50.572C22.4868 50.572 22.9523 50.615 23.4066 50.5589C23.7995 50.5104 24.0367 50.1368 24.0427 49.6969C24.0505 49.1392 24.0451 48.5809 24.0457 48.0231C24.0457 47.9257 24.0457 47.8289 24.0457 47.7117C24.2496 47.7117 24.4236 47.7117 24.6359 47.7117C24.6359 48.3113 24.6347 48.906 24.6359 49.5008C24.6377 50.2701 25.1253 50.7274 25.886 50.6742C26.4643 50.6342 26.8315 50.2522 26.841 49.6598C26.8506 49.0818 26.8428 48.5043 26.8446 47.9263C26.8446 47.8588 26.8553 47.7912 26.8619 47.7105C27.0384 47.7105 27.2011 47.7105 27.3901 47.7105C27.3901 48.383 27.4002 49.0375 27.3865 49.6915C27.3776 50.1195 27.4902 50.3747 27.9081 50.4602C28.4065 50.5624 28.9234 50.5738 29.4879 50.63C29.4879 49.0812 29.4879 47.6047 29.4879 46.1133C29.7109 46.1133 29.8832 46.1133 30.0728 46.1133C30.0728 47.7822 30.0728 49.4327 30.0728 51.162C29.3484 51.1261 28.6265 51.1261 27.9153 51.0365C27.6607 51.0042 27.4336 50.7567 27.1665 50.5911C26.8804 51.0556 26.3725 51.217 25.8043 51.2266C25.2249 51.2367 24.736 51.0299 24.3736 50.5188C23.9652 51.0628 23.4012 51.1548 22.7824 51.153C20.0801 51.1429 17.3772 51.1489 14.6748 51.1489C14.5484 51.1489 14.4226 51.1489 14.3028 51.1489C14.0757 52.6086 13.0175 53.1143 11.6243 52.4436C11.6726 52.29 11.7215 52.1322 11.7614 52.0049C12.1543 52.0545 12.5221 52.1346 12.8905 52.1393C13.4533 52.1465 13.7502 51.7777 13.6941 51.1907C13.3084 51.1477 12.9132 51.1327 12.5305 51.0556C11.2499 50.798 10.6097 49.4655 11.2481 48.3722C11.6034 47.7637 12.1889 47.4577 12.8685 47.3823C13.3168 47.3321 13.7758 47.3728 14.2599 47.3728C14.2599 48.4248 14.2599 49.4865 14.2599 50.5738C14.9186 50.5738 15.5482 50.5738 16.2206 50.5738C16.1372 50.3706 16.0585 50.1739 15.9756 49.979C15.7586 49.4661 15.5345 48.9563 15.327 48.4398C15.2948 48.3591 15.296 48.2031 15.3479 48.1588C15.981 47.6149 16.6779 47.206 17.5548 47.2921C18.2559 47.3608 18.8228 47.7296 19.3415 48.1744C19.3892 48.215 19.376 48.3722 19.3427 48.4553C19.0762 49.1093 18.7978 49.7579 18.5241 50.4082C18.5057 50.4525 18.4925 50.4991 18.4586 50.5989ZM15.9321 48.4195C16.1264 48.8959 16.3249 49.3807 16.5223 49.8655C16.8198 50.5977 16.8198 50.5923 17.6144 50.5834C17.7813 50.5816 17.8582 50.526 17.9179 50.3747C18.1504 49.7836 18.3906 49.196 18.6392 48.6119C18.7048 48.4583 18.6929 48.3686 18.5522 48.264C17.7831 47.6932 16.6636 47.7482 15.9321 48.4195ZM13.6792 47.8534C12.9317 47.8085 12.2115 47.8307 11.7441 48.5408C11.4425 48.9987 11.4437 49.4954 11.7459 49.9461C12.2109 50.6402 12.9406 50.5714 13.6798 50.5774C13.6792 49.661 13.6792 48.7787 13.6792 47.8534Z" fill="white"/>
<path id="Vector_8" d="M33.0504 23.7926C34.1152 23.7819 34.7101 24.116 34.818 24.7801C34.477 24.4723 34.1265 24.2308 33.5613 24.2953C34.427 24.7449 34.8455 25.3731 34.706 26.3307C34.5575 26.0032 34.4425 25.6953 34.2839 25.4126C34.1134 25.1089 33.835 24.9242 33.4052 24.8028C34.0716 25.5638 34.3453 26.3445 33.9822 27.2895C33.9196 26.9452 33.9029 26.6201 33.7962 26.3277C33.6871 26.0289 33.4904 25.7617 33.2841 25.4963C33.5232 26.3331 33.5244 27.1162 32.9467 27.8724C33.1083 26.8436 32.9676 26.1048 32.4865 25.9159C32.3124 27.5526 32.3392 29.1707 32.5854 30.8696C33.432 30.2431 34.2576 29.7159 35.2699 29.564C36.2762 29.4128 37.2432 29.4618 38.1779 29.9454C35.9901 29.4026 34.2386 30.276 32.5783 31.6275C32.7828 31.817 32.9557 31.9892 33.1411 32.147C33.6168 32.5529 34.0931 32.9593 34.5831 33.3479C34.6559 33.4053 34.8216 33.4017 34.917 33.3616C35.2252 33.2325 35.5108 33.312 35.6157 33.5876C35.723 33.8691 35.5847 34.1638 35.2598 34.2147C35.0523 34.2469 34.7727 34.2284 34.6177 34.11C33.9089 33.5691 33.2323 32.9856 32.5461 32.416C32.4096 32.303 32.2796 32.1823 32.1258 32.0472C31.7985 32.3484 31.4909 32.6431 31.1714 32.9235C30.7606 33.2839 30.3558 33.6539 29.9171 33.9773C29.7209 34.122 29.4545 34.2075 29.2095 34.2398C28.9752 34.2708 28.7325 34.1393 28.6902 33.8859C28.664 33.7287 28.7355 33.5123 28.8398 33.3862C28.993 33.2014 29.2095 33.2672 29.4115 33.3712C29.4789 33.4059 29.6124 33.4011 29.6679 33.3557C30.3368 32.8099 30.9967 32.2528 31.7037 31.661C30.0733 30.3453 28.4017 29.3829 26.252 29.851C28.2568 28.9908 29.9976 29.6238 31.6704 30.8684C31.91 29.2 31.9148 27.5723 31.7574 25.9243C31.3067 26.1592 31.2215 26.4748 31.2381 27.7367C30.8441 27.4492 30.7612 26.8 30.8977 25.5279C30.7398 25.7754 30.5472 26.0085 30.4328 26.2751C30.3153 26.5483 30.2748 26.8544 30.1758 27.1407C29.9099 26.2859 30.0739 25.522 30.6837 24.8447C30.0178 25.0916 29.6876 25.5913 29.5576 26.2512C29.2279 25.6493 29.6184 24.9666 30.6909 24.272C30.3505 24.2105 30.2748 24.2374 29.3728 24.7407C29.4598 24.1268 30.0524 23.8034 31.1475 23.7914C30.8453 23.483 30.4983 23.4023 30.1001 23.4519C30.4256 22.9593 31.0814 22.9994 31.7467 23.5762C31.8647 23.2821 31.975 23.0066 32.0942 22.7095C32.2057 23.0024 32.3106 23.2773 32.3893 23.4842C32.7553 23.3431 33.0689 23.1632 33.4016 23.1154C33.6126 23.0849 33.8517 23.251 34.0728 23.3766C33.7122 23.4645 33.3306 23.4423 33.0504 23.7926Z" fill="white"/>
<path id="Vector_9" d="M34.2567 7.61731C34.2579 10.2839 32.1195 12.4467 29.5018 12.4263C26.8603 12.4054 24.7773 10.3043 24.7445 7.68307C24.71 4.87716 26.961 2.92366 29.3152 2.87524C32.3085 2.81308 34.2859 5.1342 34.2567 7.61731ZM33.1556 7.71475C33.1556 7.0315 33.0561 6.55329 32.8003 6.00753C31.6527 3.55849 28.3965 3.12929 26.66 5.20175C25.9839 6.00813 25.7777 6.9514 25.8194 7.98733C25.8993 9.96235 27.6126 11.593 29.5859 11.5357C31.425 11.4813 33.2099 9.99223 33.1556 7.71475Z" fill="white"/>
<path id="Vector_10" d="M81.5866 9.13344C81.5353 9.16453 81.5228 9.16752 81.5216 9.17349C81.4048 9.68697 81.0387 9.72523 80.6006 9.69415C79.6295 9.62421 78.703 9.40662 77.9471 8.76761C76.4931 7.53861 76.5694 5.25156 78.0795 3.97294C78.6995 3.4481 79.4357 3.16058 80.2232 3.09064C80.9905 3.02189 81.7684 3.07569 82.5834 3.07569C82.5834 3.15938 82.5834 3.26519 82.5834 3.37159C82.584 5.56299 82.5852 7.7538 82.584 9.94521C82.5834 11.3063 81.7142 12.2747 80.3627 12.3931C79.5388 12.4654 78.7477 12.2932 77.9543 11.983C78.052 11.6728 78.1462 11.3739 78.219 11.1419C78.8348 11.24 79.4125 11.3733 79.9967 11.4085C80.3067 11.4271 80.6399 11.3099 80.9404 11.1945C81.3338 11.0433 81.5449 10.705 81.5801 10.2931C81.6117 9.91771 81.5866 9.53933 81.5866 9.13344ZM82.0188 4.0363C81.4561 4.0363 80.8927 4.01359 80.3311 4.04288C79.7874 4.07097 79.2896 4.26046 78.8443 4.59043C77.432 5.63771 77.5709 7.57746 79.1233 8.3964C79.8983 8.80527 80.7311 8.73593 81.589 8.7168C81.589 8.58051 81.589 8.47291 81.589 8.36532C81.589 7.20027 81.5979 6.03523 81.5836 4.87078C81.5795 4.50316 81.5586 4.16243 82.0188 4.0363Z" fill="white"/>
<path id="Vector_11" d="M13.1387 10.9075C13.342 10.6725 13.5482 10.4346 13.77 10.1776C14.3012 10.6851 14.889 11.0647 15.5739 11.2787C16.4187 11.5423 17.2694 11.632 18.1076 11.2757C18.8796 10.9475 19.2295 10.1609 18.9696 9.41365C18.8271 9.00358 18.513 8.75192 18.1338 8.61623C17.5466 8.40641 16.9445 8.23545 16.3418 8.07406C15.6777 7.89592 15.0338 7.6873 14.4466 7.31011C13.2931 6.56888 13.1947 4.81325 14.1336 3.85981C14.6207 3.36486 15.2133 3.09467 15.8857 2.9793C17.2455 2.74558 18.7455 3.15325 19.8167 4.06186C19.6295 4.32069 19.44 4.58191 19.2426 4.85449C18.6656 4.40079 18.0432 4.05947 17.3236 3.93334C16.709 3.82514 16.0974 3.81797 15.509 4.06963C14.9402 4.31292 14.5915 4.72956 14.5611 5.36319C14.5331 5.94243 14.8443 6.42422 15.4798 6.65317C16.1492 6.89407 16.8461 7.06084 17.5353 7.24555C18.2119 7.42668 18.8647 7.65442 19.4126 8.11112C20.3956 8.93125 20.2656 10.5291 19.5658 11.3576C19.0537 11.9643 18.3812 12.2668 17.6295 12.3672C15.9734 12.589 14.5056 12.1293 13.2382 11.0354C13.2156 11.0163 13.1941 10.9953 13.1744 10.9726C13.1625 10.9577 13.156 10.9379 13.1387 10.9075Z" fill="white"/>
<path id="Vector_12" d="M5.01153 12.3609C4.97815 12.368 4.95907 12.3752 4.9394 12.3764C4.08452 12.4147 4.08452 12.4147 3.74769 11.6268C2.57089 8.8765 1.3935 6.12678 0.217295 3.37647C0.171391 3.26887 0.132045 3.15828 0.0742188 3.00944C0.449197 3.00944 0.793175 2.99509 1.13417 3.0202C1.21108 3.02618 1.30467 3.15888 1.34402 3.25333C2.17326 5.22476 2.99654 7.19858 3.81983 9.1724C4.10717 9.86102 4.39034 10.5514 4.67709 11.2401C4.71345 11.3273 4.75876 11.411 4.80765 11.512C4.82672 11.4774 4.83626 11.4678 4.83447 11.4618C4.64907 10.7864 4.93165 10.2035 5.17905 9.60458C6.04704 7.50224 6.90371 5.39452 7.75501 3.28561C7.83728 3.08177 7.93087 2.98374 8.16158 3.00346C8.41733 3.02558 8.67666 3.00824 8.99679 3.00824C7.65724 6.1501 6.3326 9.25907 5.01153 12.3609Z" fill="white"/>
<path id="Vector_13" d="M45.2559 52.6479C45.3006 52.4812 45.3417 52.3287 45.384 52.1727C45.4174 52.1644 45.4448 52.15 45.4711 52.1524C46.0237 52.2068 46.2127 52.034 46.2127 51.4698C46.2121 50.215 46.2103 48.9597 46.2091 47.705C46.2091 47.5968 46.2091 47.4886 46.2091 47.3637C46.2961 47.3512 46.3611 47.3356 46.4267 47.3338C46.7963 47.3225 46.7963 47.3237 46.7963 47.7068C46.7963 48.5634 46.7963 49.42 46.7963 50.2766C46.7963 50.3842 46.7963 50.4918 46.7963 50.6191C47.5129 50.6191 48.2002 50.6191 48.9329 50.6191C48.5967 49.8151 48.273 49.041 47.9528 48.2735C49.3347 46.9668 50.7321 47.0068 52.1068 48.2914C51.7885 49.0524 51.4683 49.8181 51.1339 50.6173C51.9548 50.6173 52.731 50.6173 53.5304 50.6173C53.5304 49.1152 53.5304 47.6184 53.5304 46.1084C53.7194 46.1084 53.8857 46.1084 54.0771 46.1084C54.0771 47.7768 54.0771 49.4421 54.0771 51.138C51.6603 51.138 49.2513 51.138 46.8035 51.138C46.7844 51.358 46.7731 51.5522 46.7504 51.7453C46.6568 52.5332 46.0505 52.9116 45.2559 52.6479ZM48.6265 48.4755C48.828 48.9681 49.0259 49.4547 49.2262 49.9401C49.5213 50.6556 49.5219 50.649 50.2981 50.6436C50.4787 50.6424 50.561 50.5779 50.6242 50.4177C50.8543 49.8367 51.0892 49.2568 51.3396 48.6848C51.4218 48.4971 51.3735 48.408 51.2162 48.301C50.4173 47.76 49.4003 47.8138 48.6265 48.4755Z" fill="white"/>
<path id="Vector_14" d="M38.9308 47.3363C38.9308 48.4302 38.9308 49.4918 38.9308 50.5762C39.6957 50.5762 40.4331 50.5762 41.1992 50.5762C41.1992 49.5074 41.1992 48.4457 41.1992 47.3584C41.406 47.3584 41.5855 47.3584 41.7935 47.3584C41.7935 48.4362 41.7935 49.4978 41.7935 50.5786C42.5125 50.5786 43.2028 50.5786 43.9337 50.5786C43.9337 49.5074 43.9337 48.4386 43.9337 47.3512C44.1471 47.3512 44.3194 47.3512 44.5096 47.3512C44.5096 48.6113 44.5096 49.8523 44.5096 51.11C44.4601 51.1225 44.4142 51.1446 44.3689 51.1446C42.1935 51.1417 40.0176 51.1405 37.8423 51.1267C37.5978 51.1249 37.348 51.0747 37.1102 51.0125C36.2869 50.7961 35.7629 50.1912 35.7158 49.4273C35.6603 48.536 36.0818 47.8659 36.9099 47.5288C37.5579 47.2663 38.2327 47.3447 38.9308 47.3363ZM38.4545 47.8085C38.0157 47.8719 37.6163 47.8838 37.2455 47.9938C36.6786 48.1624 36.3292 48.6532 36.3149 49.181C36.2982 49.8062 36.5558 50.251 37.1752 50.462C37.5543 50.5911 37.9782 50.5881 38.4539 50.6545C38.4539 49.7746 38.4539 48.9897 38.4539 48.2054C38.4545 48.1068 38.4545 48.0082 38.4545 47.8085Z" fill="white"/>
<path id="Vector_15" d="M85.9893 3.04834C86.3267 3.04834 86.6296 3.04834 86.9402 3.04834C86.9509 3.12306 86.967 3.18104 86.967 3.23903C86.9604 5.60976 86.9593 7.9799 86.9372 10.3506C86.9342 10.6824 86.8663 11.0279 86.756 11.3417C86.5217 12.01 86.0132 12.3615 85.3133 12.3986C84.983 12.4159 84.6486 12.3675 84.2754 12.3466C84.3761 11.9843 84.4584 11.6902 84.5401 11.3961C84.738 11.4057 84.9151 11.4236 85.0915 11.4218C85.5756 11.4176 85.8552 11.1851 85.9243 10.7021C85.9679 10.3979 85.9863 10.0876 85.9869 9.77977C85.9923 7.6583 85.9893 5.53624 85.9893 3.41477C85.9893 3.29761 85.9893 3.18104 85.9893 3.04834Z" fill="white"/>
<path id="Vector_16" d="M10.4648 3.02393C10.8082 3.02393 11.1331 3.02393 11.4825 3.02393C11.4825 6.10002 11.4825 9.17911 11.4825 12.2839C11.1576 12.2839 10.819 12.2839 10.4648 12.2839C10.4648 9.20362 10.4648 6.13171 10.4648 3.02393Z" fill="white"/>
<path id="Vector_17" d="M21.8652 3.06445C22.2134 3.06445 22.5365 3.06445 22.8775 3.06445C22.8775 6.14294 22.8775 9.2047 22.8775 12.288C22.5442 12.288 22.2134 12.288 21.8652 12.288C21.8652 9.21964 21.8652 6.15789 21.8652 3.06445Z" fill="white"/>
<path id="Vector_18" d="M5.49545 47.3542C5.70708 47.3542 5.88056 47.3542 6.06894 47.3542C6.06894 48.6167 6.06894 49.8576 6.06894 51.1147C6.01648 51.1267 5.97058 51.1464 5.92467 51.1458C4.61374 51.1398 3.30221 51.1506 1.99128 51.1159C1.43924 51.1016 0.912844 50.9276 0.509251 50.5098C-0.390935 49.5767 -0.0535145 48.0775 1.17336 47.5485C1.82615 47.2669 2.51172 47.3422 3.2265 47.3369C3.2265 47.9029 3.2265 48.4385 3.2265 48.9735C3.2265 49.5002 3.2265 50.0268 3.2265 50.5761C3.98361 50.5761 4.72105 50.5761 5.49485 50.5761C5.49485 50.034 5.49485 49.499 5.49485 48.964C5.49545 48.4373 5.49545 47.9107 5.49545 47.3542ZM2.67864 47.8145C2.27981 47.8725 1.88099 47.8832 1.51197 47.9944C0.934305 48.1689 0.602846 48.6549 0.592712 49.215C0.581385 49.8194 0.841902 50.2575 1.45057 50.462C1.82972 50.5893 2.25239 50.5881 2.71143 50.6521C2.71143 49.7267 2.71202 48.8946 2.71023 48.0625C2.70964 48.0058 2.69593 47.949 2.67864 47.8145Z" fill="white"/>
<path id="Vector_19" d="M28.8983 58.8862C28.7069 58.8862 28.5394 58.8862 28.3361 58.8862C28.3361 57.9113 28.3361 56.9429 28.3361 55.9745C28.3099 55.9644 28.2843 55.9542 28.258 55.944C27.8365 56.5687 27.4151 57.1934 26.968 57.8557C26.5334 57.2119 26.1184 56.598 25.7035 55.9835C25.685 55.9859 25.6666 55.9883 25.6481 55.9907C25.6481 56.9447 25.6481 57.8987 25.6481 58.8731C25.4329 58.8731 25.26 58.8731 25.0645 58.8731C25.0645 57.5771 25.0645 56.28 25.0645 54.9852C25.4782 54.8776 25.7727 54.9547 25.9944 55.3684C26.2746 55.8908 26.6305 56.372 26.9799 56.9118C27.3137 56.3941 27.6237 55.9135 27.9331 55.4329C28.2628 54.9218 28.2622 54.9218 28.8977 54.9673C28.8983 56.2632 28.8983 57.561 28.8983 58.8862Z" fill="white"/>
<path id="Vector_20" d="M79.8622 56.8758C79.8515 56.8686 79.8819 56.8955 79.9176 56.9093C80.4655 57.1251 80.6777 57.4431 80.6235 57.9709C80.5782 58.4121 80.2217 58.794 79.6905 58.8257C78.9304 58.8705 78.1662 58.8371 77.3828 58.8371C77.3828 57.574 77.3828 56.275 77.3828 54.96C78.0743 54.96 78.751 54.9247 79.4216 54.9695C80.1597 55.0191 80.6193 55.6737 80.3552 56.2685C80.2533 56.4986 80.0309 56.6743 79.8622 56.8758ZM77.9676 58.3421C78.4964 58.3421 79.0014 58.3702 79.5009 58.3325C79.855 58.3062 80.0249 58.0893 80.0297 57.7987C80.0351 57.4885 79.8652 57.2482 79.5129 57.2201C79.0067 57.1801 78.4946 57.2099 77.9676 57.2099C77.9676 57.5788 77.9676 57.9512 77.9676 58.3421ZM77.9658 55.4932C77.9658 55.8895 77.9658 56.2529 77.9658 56.6343C78.413 56.6343 78.8464 56.6594 79.2756 56.6265C79.6279 56.5996 79.8103 56.3671 79.8032 56.0598C79.796 55.7478 79.6124 55.5254 79.2619 55.5003C78.841 55.4699 78.4153 55.4932 77.9658 55.4932Z" fill="white"/>
<path id="Vector_21" d="M9.7661 58.8658C9.42153 58.9542 9.2093 58.8502 9.01019 58.58C8.42596 57.7874 7.80894 57.0193 7.20445 56.2416C7.13828 56.1561 7.06793 56.0736 6.94572 55.9242C6.94572 56.9535 6.94572 57.9075 6.94572 58.8771C6.73111 58.8771 6.55703 58.8771 6.36328 58.8771C6.36328 57.5806 6.36328 56.2906 6.36328 54.9994C6.80622 54.8781 6.88968 54.9056 7.16153 55.2553C7.81431 56.0945 8.46769 56.9332 9.17174 57.8376C9.17174 56.8405 9.17174 55.917 9.17174 54.9731C9.38993 54.9731 9.57057 54.9731 9.7661 54.9731C9.7661 56.2762 9.7661 57.5668 9.7661 58.8658Z" fill="white"/>
<path id="Vector_22" d="M15.5742 58.8939C15.5742 57.5663 15.5742 56.2834 15.5742 54.9528C16.1096 54.9528 16.6437 54.9182 17.1707 54.9648C17.5153 54.9953 17.8807 55.0855 18.1824 55.2499C18.9675 55.6791 19.3133 56.5937 19.0754 57.4515C18.8435 58.2866 18.0727 58.8837 17.2053 58.8921C16.6711 58.8981 16.1376 58.8939 15.5742 58.8939ZM16.1775 58.3595C16.5179 58.3595 16.8261 58.3738 17.132 58.3565C17.7037 58.3236 18.205 57.9148 18.3827 57.3588C18.5609 56.8005 18.3767 56.1992 17.9356 55.8208C17.4062 55.3677 16.788 55.5004 16.1781 55.4956C16.1775 56.4604 16.1775 57.3923 16.1775 58.3595Z" fill="white"/>
<path id="Vector_23" d="M55.4746 55.0006C56.15 55.0006 56.8124 54.9277 57.4514 55.0174C58.4446 55.1572 59.1153 56.1029 59.0271 57.0868C58.9365 58.1012 58.0899 58.8855 57.0729 58.8933C56.5483 58.8975 56.0237 58.8939 55.4746 58.8939C55.4746 57.5812 55.4746 56.2858 55.4746 55.0006ZM56.0576 58.3595C56.3992 58.3595 56.7074 58.3732 57.0133 58.3565C57.5838 58.3248 58.0863 57.9159 58.2658 57.3594C58.4452 56.8047 58.2592 56.1985 57.8181 55.8202C57.2881 55.3659 56.6693 55.5004 56.057 55.4944C56.0576 56.4592 56.0576 57.3923 56.0576 58.3595Z" fill="white"/>
<path id="Vector_24" d="M33.9328 54.8853C35.1263 54.8769 36.0372 55.758 36.0426 56.9249C36.0473 58.0648 35.1191 58.9997 33.9823 58.9991C32.8377 58.9985 31.919 58.0618 31.916 56.8914C31.9124 55.7939 32.8186 54.8925 33.9328 54.8853ZM32.5569 56.8926C32.5599 57.7492 33.1793 58.405 33.9882 58.4067C34.7901 58.4085 35.4226 57.754 35.4208 56.9237C35.419 56.0689 34.7972 55.4191 33.9805 55.4185C33.1632 55.4179 32.5545 56.0486 32.5569 56.8926Z" fill="white"/>
<path id="Vector_25" d="M69.0702 57.5261C69.0702 57.9607 69.0702 58.4132 69.0702 58.8783C68.8622 58.8783 68.6887 58.8783 68.5039 58.8783C68.5039 57.5745 68.5039 56.2858 68.5039 54.997C69.2229 54.997 69.9287 54.942 70.6214 55.0125C71.3094 55.0825 71.6552 55.4824 71.7189 56.0747C71.7798 56.6384 71.4829 57.0826 70.8653 57.354C70.8301 57.3695 70.7991 57.394 70.7472 57.4257C71.0632 57.8884 71.3738 58.3427 71.6897 58.8059C71.1669 58.9428 71.0548 58.9034 70.774 58.5047C70.6769 58.3666 70.5564 58.2393 70.4861 58.0886C70.2029 57.4855 69.7344 57.3312 69.0702 57.5261ZM69.1311 55.5027C69.1311 55.9976 69.1311 56.4603 69.1311 56.9337C69.5913 56.9337 70.0378 56.9672 70.4772 56.9242C70.8909 56.8835 71.1156 56.5745 71.1019 56.1871C71.0882 55.7992 70.873 55.5433 70.4503 55.5105C70.0193 55.4764 69.5835 55.5027 69.1311 55.5027Z" fill="white"/>
<path id="Vector_26" d="M19.9142 56.9046C19.9011 55.7928 20.7846 54.898 21.9077 54.8854C23.0917 54.8722 24.0294 55.7641 24.0384 56.9118C24.0467 58.0518 23.131 58.9837 21.9864 58.9998C20.8508 59.016 19.9285 58.0828 19.9142 56.9046ZM23.4017 56.9304C23.3981 56.054 22.7817 55.4132 21.9489 55.4192C21.1417 55.4252 20.5247 56.0714 20.5324 56.9041C20.5402 57.7505 21.1757 58.411 21.9781 58.408C22.7972 58.4044 23.4053 57.7732 23.4017 56.9304Z" fill="white"/>
<path id="Vector_27" d="M14.2845 55.3887C14.1569 55.5382 14.0437 55.6715 13.9364 55.797C13.708 55.6888 13.5113 55.5657 13.2973 55.4993C12.6922 55.3104 12.0978 55.5077 11.7306 55.9925C11.3664 56.4731 11.3294 57.2526 11.6472 57.7678C11.9536 58.2658 12.5831 58.5198 13.2061 58.3961C13.869 58.264 13.996 58.0542 13.8613 57.2693C13.7021 57.2693 13.5364 57.2693 13.3706 57.2693C13.2049 57.2693 13.0386 57.2693 12.8585 57.2693C12.8585 57.0882 12.8585 56.9429 12.8585 56.7726C13.3867 56.7726 13.906 56.7726 14.4532 56.7726C14.4532 57.2741 14.4556 57.7696 14.4497 58.2646C14.4491 58.316 14.4157 58.3829 14.3757 58.4152C13.4589 59.1535 11.6305 59.2898 10.9419 57.7936C10.3303 56.4641 11.2674 54.9482 12.7274 54.886C13.3027 54.8621 13.8225 54.993 14.2845 55.3887Z" fill="white"/>
<path id="Vector_28" d="M1.99374 56.6416C2.56009 57.384 3.11391 58.1097 3.67131 58.8396C3.17889 58.983 3.0221 58.9334 2.73595 58.5568C2.35799 58.0589 1.97884 57.561 1.5675 57.02C1.33083 57.3003 1.02321 57.5299 0.914713 57.8311C0.804426 58.1378 0.890271 58.5156 0.890271 58.8772C0.682215 58.8772 0.506947 58.8772 0.306641 58.8772C0.306641 57.5801 0.306641 56.2823 0.306641 54.9684C0.486082 54.9684 0.660753 54.9684 0.872983 54.9684C0.872983 55.6367 0.872983 56.3074 0.872983 57.0487C0.98327 56.9524 1.04229 56.9094 1.09177 56.8574C1.57167 56.3529 2.04919 55.846 2.52909 55.3409C2.92016 54.929 2.92076 54.9296 3.59739 54.9661C3.04654 55.5423 2.52432 56.0881 1.99374 56.6416Z" fill="white"/>
<path id="Vector_29" d="M50.9358 54.9756C51.1456 54.9756 51.312 54.9756 51.5188 54.9756C51.5188 55.2524 51.5188 55.5172 51.5188 55.7826C51.5188 56.271 51.5141 56.7587 51.5212 57.2471C51.5325 57.9961 51.9087 58.402 52.5871 58.4086C53.2721 58.4158 53.6632 57.9991 53.6721 57.2352C53.6799 56.5776 53.6739 55.9201 53.6751 55.2625C53.6751 55.1657 53.6835 55.0689 53.6882 54.9595C53.8832 54.9595 54.0584 54.9595 54.2564 54.9595C54.2665 55.039 54.2838 55.1137 54.285 55.1884C54.2933 55.9255 54.3046 56.6625 54.3034 57.399C54.3023 58.3147 53.575 58.9723 52.642 58.9723C52.0291 58.9723 51.5242 58.8007 51.1826 58.2801C51.0658 58.1025 50.9519 57.8825 50.9459 57.6787C50.9215 56.7868 50.9358 55.892 50.9358 54.9756Z" fill="white"/>
<path id="Vector_30" d="M50.314 58.8757C49.7154 58.9242 49.7154 58.9242 49.4972 58.3987C49.2922 57.905 49.2922 57.905 48.758 57.905C48.361 57.905 47.9633 57.9187 47.5669 57.8996C47.3487 57.8888 47.236 57.9671 47.1776 58.1686C47.1478 58.2732 47.0953 58.3706 47.053 58.4717C46.8599 58.9307 46.8599 58.9307 46.3066 58.8704C46.3746 58.7102 46.4378 58.5559 46.504 58.4041C46.9731 57.3299 47.4495 56.2587 47.9079 55.1798C47.9991 54.9658 48.1237 54.9161 48.3371 54.9185C48.5428 54.9209 48.6507 54.9783 48.7348 55.1786C49.2188 56.3329 49.7202 57.4794 50.2156 58.6289C50.2466 58.7012 50.274 58.7747 50.314 58.8757ZM48.3186 55.6012C48.0426 56.2318 47.797 56.7943 47.5442 57.3712C48.0867 57.3712 48.5738 57.3712 49.0924 57.3712C48.8373 56.7872 48.5959 56.2348 48.3186 55.6012Z" fill="white"/>
<path id="Vector_31" d="M67.6407 58.8656C67.6121 58.8775 67.6032 58.8841 67.5942 58.8847C67.0505 58.9254 67.0577 58.9224 66.8437 58.4292C66.5641 57.7836 66.7584 57.9205 66.0663 57.9068C65.6693 57.899 65.2716 57.9163 64.8752 57.9008C64.6826 57.8936 64.589 57.9683 64.5252 58.1399C64.4322 58.3909 64.3196 58.6348 64.2141 58.8853C64.0263 58.8853 63.8486 58.8853 63.6328 58.8853C63.817 58.4609 63.9923 58.0538 64.1699 57.6485C64.5324 56.8206 64.9062 55.9969 65.2525 55.1618C65.3485 54.9317 65.4976 54.9293 65.6943 54.9197C65.8976 54.9102 65.9924 54.9879 66.0693 55.1702C66.5569 56.3227 67.0565 57.471 67.5513 58.6205C67.5865 58.7012 67.6115 58.7849 67.6407 58.8656ZM66.4377 57.3867C66.176 56.7895 65.9322 56.2336 65.6555 55.6042C65.3783 56.2378 65.1327 56.7991 64.8758 57.3867C65.4129 57.3867 65.897 57.3867 66.4377 57.3867Z" fill="white"/>
<path id="Vector_32" d="M83.1152 58.8702C83.1468 58.7836 83.1725 58.7005 83.207 58.6216C83.712 57.4655 84.2259 56.3136 84.7165 55.1516C84.8101 54.9298 84.9466 54.925 85.1326 54.922C85.315 54.9196 85.4343 54.9477 85.5195 55.1498C86.0119 56.322 86.524 57.4852 87.0284 58.6527C87.0588 58.7232 87.0796 58.7985 87.1059 58.875C86.5145 58.9294 86.5181 58.9276 86.2957 58.4046C86.0364 57.7937 86.2057 57.918 85.563 57.9061C85.1463 57.8983 84.729 57.9114 84.3123 57.9013C84.1478 57.8971 84.0542 57.9509 84.0053 58.1099C83.9671 58.2324 83.9045 58.3472 83.8545 58.4662C83.6571 58.93 83.6571 58.93 83.1152 58.8702ZM85.8963 57.3794C85.6346 56.7864 85.3866 56.2251 85.1117 55.6017C84.8375 56.2305 84.5919 56.793 84.3361 57.3794C84.8834 57.3794 85.3645 57.3794 85.8963 57.3794Z" fill="white"/>
<path id="Vector_33" d="M76.5331 58.8659C76.4973 58.8791 76.4884 58.8851 76.4788 58.8857C75.9358 58.9209 75.9423 58.9179 75.7301 58.4266C75.4517 57.7828 75.6466 57.9203 74.9521 57.9059C74.5849 57.8982 74.2171 57.9173 73.8504 57.8999C73.6114 57.8886 73.4486 57.9406 73.3932 58.1982C73.3747 58.2837 73.3234 58.362 73.2889 58.4445C73.0856 58.9239 73.0856 58.9239 72.5371 58.8743C72.5699 58.7876 72.5967 58.7045 72.6313 58.625C73.1327 57.4785 73.6406 56.3344 74.1324 55.1837C74.2224 54.9727 74.3417 54.9129 74.5587 54.9183C74.7607 54.9231 74.8746 54.9709 74.9605 55.1747C75.4475 56.338 75.953 57.4941 76.4514 58.6525C76.4777 58.7153 76.5003 58.7805 76.5331 58.8659ZM75.3217 57.3787C75.0606 56.7887 74.812 56.2286 74.5354 55.6039C74.2564 56.2435 74.0126 56.8025 73.7616 57.3787C74.2969 57.3787 74.7882 57.3787 75.3217 57.3787Z" fill="white"/>
<path id="Vector_34" d="M42.7422 58.3942C42.8698 58.2406 42.9705 58.1186 43.0367 58.0385C43.4325 58.1802 43.7926 58.3332 44.167 58.433C44.3381 58.4791 44.5438 58.4492 44.7214 58.4038C44.9706 58.341 45.1345 58.1688 45.1453 57.8921C45.156 57.6255 45.0064 57.4617 44.7757 57.3726C44.6099 57.3086 44.4335 57.2734 44.2636 57.2196C44.0179 57.1425 43.7694 57.0719 43.5309 56.9769C43.0975 56.8041 42.8638 56.4754 42.8888 56.0049C42.9139 55.5429 43.1398 55.1926 43.5726 55.0037C44.1419 54.755 45.0105 54.9086 45.5876 55.3647C45.4922 55.5058 45.3951 55.6493 45.342 55.7276C44.9372 55.6152 44.5849 55.4944 44.2224 55.4287C44.0716 55.4012 43.885 55.4628 43.7407 55.5357C43.414 55.7019 43.386 56.134 43.6853 56.3462C43.8194 56.4413 43.9816 56.5059 44.1396 56.5585C44.4215 56.6523 44.7148 56.7133 44.9944 56.8125C45.4898 56.9882 45.736 57.317 45.7444 57.7767C45.7533 58.2651 45.5047 58.6632 45.0284 58.8383C44.1962 59.1456 43.4558 58.9208 42.7422 58.3942Z" fill="white"/>
<path id="Vector_35" d="M37.6703 56.6989C38.3505 56.6989 39.0116 56.6989 39.6901 56.6989C39.6901 56.8836 39.6901 57.0372 39.6901 57.2231C39.0188 57.2231 38.3577 57.2231 37.6632 57.2231C37.6632 57.7868 37.6632 58.3206 37.6632 58.8736C37.4473 58.8736 37.2649 58.8736 37.0664 58.8736C37.0664 57.574 37.0664 56.284 37.0664 54.9731C38.022 54.9731 38.9705 54.9731 39.9398 54.9731C39.9398 55.1322 39.9398 55.2935 39.9398 55.4872C39.1833 55.4872 38.4334 55.4872 37.6703 55.4872C37.6703 55.9015 37.6703 56.2846 37.6703 56.6989Z" fill="white"/>
<path id="Vector_36" d="M8.13333 47.9026C8.13333 47.6975 8.13333 47.5403 8.13333 47.3855C9.28449 47.1512 10.013 47.7956 10.0726 48.6498C10.1316 49.4908 10.0857 50.3397 10.0857 51.2082C9.02517 51.2082 7.96879 51.2082 6.89453 51.2082C6.89453 51.0277 6.89453 50.8537 6.89453 50.6499C7.75954 50.6499 8.61919 50.6499 9.55813 50.6499C9.52534 49.9182 9.52832 49.2147 9.44784 48.5207C9.40432 48.1435 9.02219 47.9217 8.59952 47.9044C8.45287 47.8978 8.30562 47.9026 8.13333 47.9026Z" fill="white"/>
<path id="Vector_37" d="M32.132 41.3867C32.5785 41.844 33.0274 42.3037 33.4537 42.7401C33.0137 43.1878 32.5577 43.6517 32.11 44.1071C31.6789 43.669 31.2235 43.2057 30.7871 42.7616C31.2187 42.3204 31.6676 41.8613 32.132 41.3867Z" fill="white"/>
<path id="Vector_38" d="M44.1016 32.6809C44.6929 32.3808 45.2664 32.0897 45.8757 31.7812C46.1762 32.3659 46.4689 32.9361 46.783 33.5476C46.194 33.8471 45.6158 34.1412 45.0083 34.4503C44.7037 33.8543 44.4062 33.2751 44.1016 32.6809Z" fill="white"/>
<path id="Vector_39" d="M17.4629 33.5529C17.7717 32.9503 18.0644 32.3794 18.3696 31.7847C18.9664 32.0877 19.5387 32.3777 20.142 32.6837C19.8391 33.2773 19.5435 33.8565 19.2394 34.4531C18.6457 34.1524 18.0722 33.8619 17.4629 33.5529Z" fill="white"/>
<path id="Vector_40" d="M41.1835 41.2367C40.517 41.1315 39.8833 41.0316 39.2168 40.927C39.3205 40.2689 39.4201 39.6353 39.525 38.9688C40.1861 39.0722 40.8192 39.1714 41.4893 39.276C41.3874 39.9294 41.2884 40.5618 41.1835 41.2367Z" fill="white"/>
<path id="Vector_41" d="M39.2168 16.6849C39.8928 16.5779 40.5188 16.4786 41.1805 16.374C41.2854 17.028 41.3874 17.661 41.4953 18.3323C40.8431 18.4357 40.204 18.5373 39.5286 18.6449C39.4243 17.988 39.3235 17.355 39.2168 16.6849Z" fill="white"/>
<path id="Vector_42" d="M22.7539 18.34C22.8576 17.6836 22.9572 17.0494 23.0627 16.3799C23.7221 16.4839 24.3611 16.5849 25.0282 16.6901C24.9239 17.3524 24.8243 17.9855 24.7194 18.649C24.0571 18.545 23.4168 18.4446 22.7539 18.34Z" fill="white"/>
<path id="Vector_43" d="M30.7578 14.8502C31.2139 14.3858 31.6646 13.9261 32.1063 13.4766C32.5582 13.9368 33.0142 14.4013 33.453 14.8484C33.0214 15.2896 32.5665 15.7546 32.1069 16.2251C31.6592 15.7696 31.2079 15.3093 30.7578 14.8502Z" fill="white"/>
<path id="Vector_44" d="M22.7578 39.2638C23.441 39.158 24.0717 39.06 24.7239 38.959C24.8288 39.6201 24.9278 40.2436 25.0345 40.9131C24.3799 41.0171 23.7427 41.1187 23.069 41.2257C22.9647 40.564 22.8645 39.9333 22.7578 39.2638Z" fill="white"/>
<path id="Vector_45" d="M20.1432 24.9208C19.5446 25.2251 18.9723 25.5168 18.369 25.8234C18.0662 25.2334 17.7735 24.6626 17.4629 24.057C18.0525 23.757 18.6319 23.4617 19.2364 23.1538C19.5375 23.7396 19.8302 24.3111 20.1432 24.9208Z" fill="white"/>
<path id="Vector_46" d="M45.0035 23.1543C45.6056 23.4598 46.1779 23.7503 46.7783 24.0551C46.4778 24.6445 46.1869 25.2154 45.8769 25.8227C45.2849 25.5232 44.7067 25.2303 44.1016 24.9243C44.4032 24.3319 44.6941 23.7604 45.0035 23.1543Z" fill="white"/>
<path id="Vector_47" d="M80.4278 2.01558C80.4278 1.64556 80.4021 1.29527 80.4337 0.95096C80.4856 0.382485 80.8749 0.0286087 81.4377 0.00529582C81.703 -0.00546395 81.9694 0.00350253 82.2532 0.00350253C82.2532 0.243804 82.2532 0.457206 82.2532 0.710658C82.0648 0.710658 81.8895 0.710061 81.7143 0.710658C81.2439 0.711854 81.161 0.812876 81.2487 1.31739C81.6743 1.31739 82.1059 1.31739 82.5572 1.31739C82.5572 1.56486 82.5572 1.77946 82.5572 2.01558C81.8591 2.01558 81.1605 2.01558 80.4278 2.01558Z" fill="white"/>
<path id="Vector_48" d="M86.9279 51.1792C86.7401 51.1792 86.5737 51.1792 86.3848 51.1792C86.3848 49.4917 86.3848 47.8155 86.3848 46.1167C86.56 46.1167 86.7329 46.1167 86.9279 46.1167C86.9279 47.7934 86.9279 49.4702 86.9279 51.1792Z" fill="white"/>
<path id="Vector_49" d="M56.3208 51.155C56.1407 51.155 55.975 51.155 55.7812 51.155C55.7812 49.4842 55.7812 47.8099 55.7812 46.1152C55.9506 46.1152 56.1246 46.1152 56.3208 46.1152C56.3208 47.7824 56.3208 49.4496 56.3208 51.155Z" fill="white"/>
<path id="Vector_50" d="M31.7148 46.1045C31.9205 46.1045 32.0773 46.1045 32.2579 46.1045C32.2579 47.786 32.2579 49.4591 32.2579 51.1514C32.0791 51.1514 31.9074 51.1514 31.7148 51.1514C31.7148 49.4657 31.7148 47.7926 31.7148 46.1045Z" fill="white"/>
<path id="Vector_51" d="M22.6992 38.1849C22.6992 37.654 22.6992 37.1304 22.6992 36.5811C23.234 36.5811 23.7711 36.5811 24.3243 36.5811C24.3243 37.1137 24.3243 37.6373 24.3243 38.1849C23.7902 38.1849 23.253 38.1849 22.6992 38.1849Z" fill="white"/>
<path id="Vector_52" d="M41.5554 19.416C41.5554 19.9606 41.5554 20.4848 41.5554 21.0294C41.0153 21.0294 40.4841 21.0294 39.9297 21.0294C39.9297 20.501 39.9297 19.9689 39.9297 19.416C40.4585 19.416 40.9896 19.416 41.5554 19.416Z" fill="white"/>
<path id="Vector_53" d="M39.9199 38.191C39.9199 37.6422 39.9199 37.118 39.9199 36.5752C40.463 36.5752 40.9942 36.5752 41.5456 36.5752C41.5456 37.112 41.5456 37.6428 41.5456 38.191C41.0109 38.191 40.4797 38.191 39.9199 38.191Z" fill="white"/>
<path id="Vector_54" d="M24.3142 21.0378C23.7789 21.0378 23.2555 21.0378 22.707 21.0378C22.707 20.504 22.707 19.9732 22.707 19.4185C23.2287 19.4185 23.7586 19.4185 24.3142 19.4185C24.3142 19.9439 24.3142 20.4747 24.3142 21.0378Z" fill="white"/>
<path id="Vector_55" d="M31.4914 16.6571C31.1635 17.1061 30.8481 17.5376 30.5173 17.9901C30.069 17.6656 29.632 17.3481 29.1777 17.0194C29.5044 16.5723 29.824 16.1353 30.153 15.6846C30.6049 16.0127 31.0431 16.3314 31.4914 16.6571Z" fill="white"/>
<path id="Vector_56" d="M22.3161 23.8268C21.7814 23.9995 21.2842 24.1609 20.7459 24.3349C20.5754 23.813 20.4085 23.3025 20.2344 22.7693C20.7703 22.596 21.2764 22.4322 21.804 22.2612C21.9751 22.7837 22.1403 23.2894 22.3161 23.8268Z" fill="white"/>
<path id="Vector_57" d="M25.5547 18.5174C25.727 17.9907 25.8921 17.4862 26.0662 16.9536C26.6003 17.1264 27.1035 17.289 27.6352 17.4605C27.463 17.9901 27.299 18.4947 27.1267 19.0255C26.5968 18.8539 26.0847 18.6883 25.5547 18.5174Z" fill="white"/>
<path id="Vector_58" d="M35.339 40.6921C35.0118 41.1392 34.6964 41.5702 34.3632 42.0251C33.9107 41.6975 33.4791 41.3843 33.0254 41.0549C33.3485 40.6126 33.6621 40.1828 33.9995 39.7207C34.4514 40.0489 34.8884 40.3657 35.339 40.6921Z" fill="white"/>
<path id="Vector_59" d="M42.4468 22.2583C42.9714 22.4275 43.4763 22.5895 44.0176 22.764C43.8471 23.2906 43.6808 23.8035 43.5097 24.3319C42.9821 24.161 42.476 23.9972 41.9395 23.8238C42.1094 23.2996 42.2727 22.7945 42.4468 22.2583Z" fill="white"/>
<path id="Vector_60" d="M38.19 40.6597C37.6594 40.4882 37.1533 40.325 36.6191 40.1522C36.7879 39.6316 36.9518 39.1259 37.1259 38.5879C37.6433 38.7541 38.1477 38.9155 38.6961 39.0912C38.5268 39.6155 38.3623 40.1265 38.19 40.6597Z" fill="white"/>
<path id="Vector_61" d="M21.2505 27.085C20.8016 27.4102 20.3705 27.7228 19.9151 28.0527C19.5908 27.6092 19.2772 27.1806 18.9434 26.7233C19.3857 26.4011 19.8149 26.0885 20.2769 25.752C20.5995 26.1943 20.9172 26.6295 21.2505 27.085Z" fill="white"/>
<path id="Vector_62" d="M43.9684 25.7534C44.4209 26.0816 44.8519 26.3936 45.3038 26.7212C44.9747 27.1737 44.6611 27.6053 44.3345 28.0536C43.8891 27.7314 43.4569 27.4188 42.9961 27.0858C43.3246 26.6363 43.6423 26.2005 43.9684 25.7534Z" fill="white"/>
<path id="Vector_63" d="M30.4063 39.6426C30.7365 40.0963 31.0507 40.5273 31.3774 40.9762C30.9267 41.3026 30.4957 41.6152 30.042 41.944C29.7177 41.4998 29.4042 41.07 29.0703 40.6133C29.5133 40.2918 29.9443 39.9785 30.4063 39.6426Z" fill="white"/>
<path id="Vector_64" d="M18.9473 30.89C19.2728 30.4429 19.5822 30.0185 19.9178 29.5576C20.3637 29.8792 20.8013 30.1948 21.2562 30.523C20.933 30.9665 20.6195 31.3969 20.285 31.856C19.8379 31.5338 19.4075 31.2224 18.9473 30.89Z" fill="white"/>
<path id="Vector_65" d="M35.1801 16.9977C34.7175 17.3324 34.2925 17.6403 33.8448 17.9649C33.5228 17.5237 33.2087 17.0933 32.873 16.6336C33.3214 16.3085 33.7595 15.9904 34.2102 15.6641C34.5321 16.107 34.8463 16.5392 35.1801 16.9977Z" fill="white"/>
<path id="Vector_66" d="M45.3114 30.8862C44.8566 31.2156 44.4309 31.5235 43.9743 31.8534C43.65 31.4093 43.331 30.9729 43.002 30.5216C43.4509 30.197 43.8902 29.8784 44.3397 29.5532C44.6676 30.0033 44.983 30.4355 45.3114 30.8862Z" fill="white"/>
<path id="Vector_67" d="M25.5664 39.0047C26.0982 38.832 26.6031 38.6676 27.1367 38.4937C27.309 39.0197 27.4741 39.5236 27.6482 40.0562C27.1152 40.2302 26.6115 40.3945 26.0821 40.5667C25.9098 40.0454 25.7458 39.5481 25.5664 39.0047Z" fill="white"/>
<path id="Vector_68" d="M37.124 19.0287C36.9523 18.5045 36.7866 17.9988 36.6113 17.4644C37.1347 17.294 37.6391 17.1302 38.1798 16.9551C38.3533 17.4817 38.5196 17.9868 38.6949 18.5182C38.1726 18.688 37.6594 18.8548 37.124 19.0287Z" fill="white"/>
<path id="Vector_69" d="M21.806 35.3536C21.273 35.1808 20.7663 35.0165 20.2363 34.8449C20.4056 34.3254 20.5702 33.8203 20.746 33.2817C21.2701 33.4503 21.7756 33.6123 22.3169 33.7863C22.1452 34.3129 21.9783 34.8246 21.806 35.3536Z" fill="white"/>
<path id="Vector_70" d="M42.4496 35.3547C42.2773 34.8287 42.1128 34.3248 41.9375 33.7898C42.4597 33.6194 42.9647 33.455 43.5054 33.2793C43.6765 33.7988 43.8428 34.3021 44.0204 34.8413C43.5 35.0116 42.9891 35.1784 42.4496 35.3547Z" fill="white"/>
<path id="Vector_71" d="M4.5625 54.9609C4.75327 54.9609 4.92079 54.9609 5.11215 54.9609C5.11215 56.2617 5.11215 57.5588 5.11215 58.8733C4.93688 58.8733 4.76281 58.8733 4.5625 58.8733C4.5625 57.5815 4.5625 56.285 4.5625 54.9609Z" fill="white"/>
<path id="Vector_72" d="M81.6992 54.9702C81.8816 54.9702 82.0563 54.9702 82.2536 54.9702C82.2536 56.2662 82.2536 57.5621 82.2536 58.8742C82.0718 58.8742 81.8977 58.8742 81.6992 58.8742C81.6992 57.5759 81.6992 56.2811 81.6992 54.9702Z" fill="white"/>
<path id="Vector_73" d="M60.041 58.8742C60.041 57.5627 60.041 56.2745 60.041 54.9702C60.2324 54.9702 60.4076 54.9702 60.6056 54.9702C60.6056 56.2662 60.6056 57.5621 60.6056 58.8742C60.4231 58.8742 60.2491 58.8742 60.041 58.8742Z" fill="white"/>
<path id="Vector_74" d="M28.5555 39.7585C28.3427 39.3425 28.1454 38.9557 27.9355 38.5451C28.3439 38.337 28.7362 38.1374 29.1529 37.9258C29.3621 38.3364 29.5636 38.7304 29.7717 39.1386C29.3651 39.3455 28.9788 39.5427 28.5555 39.7585Z" fill="white"/>
<path id="Vector_75" d="M41.2773 31.7641C41.6929 31.5531 42.0804 31.3564 42.4947 31.146C42.7004 31.5483 42.9013 31.9398 43.1153 32.3577C42.7021 32.5681 42.3093 32.7683 41.8991 32.9775C41.6911 32.5717 41.4926 32.1843 41.2773 31.7641Z" fill="white"/>
<path id="Vector_76" d="M24.1303 21.8267C24.2037 22.2941 24.271 22.7227 24.3414 23.171C23.8859 23.2434 23.4573 23.3115 22.9965 23.385C22.9237 22.9331 22.854 22.4979 22.7812 22.0413C23.2391 21.9683 23.6677 21.9002 24.1303 21.8267Z" fill="white"/>
<path id="Vector_77" d="M38.92 19.4839C38.9945 19.9549 39.0607 20.3746 39.1322 20.8271C38.6756 20.9 38.2404 20.9693 37.7855 21.0417C37.7128 20.5886 37.6436 20.1594 37.5703 19.7003C38.0216 19.6279 38.4574 19.558 38.92 19.4839Z" fill="white"/>
<path id="Vector_78" d="M37.5703 37.9078C37.643 37.4499 37.7116 37.0225 37.7843 36.5664C38.2392 36.6381 38.6744 36.7063 39.1328 36.7786C39.0601 37.2377 38.9921 37.6651 38.9194 38.12C38.4639 38.0477 38.0282 37.9795 37.5703 37.9078Z" fill="white"/>
<path id="Vector_79" d="M40.1292 21.8179C40.5912 21.8908 41.0097 21.9566 41.4747 22.0295C41.4043 22.4784 41.3358 22.9207 41.2642 23.3762C40.8022 23.3027 40.3754 23.234 39.9199 23.1616C39.9903 22.7103 40.0564 22.2823 40.1292 21.8179Z" fill="white"/>
<path id="Vector_80" d="M27.9355 19.0645C28.1519 18.6442 28.3505 18.2599 28.5597 17.854C28.9693 18.0614 29.355 18.2569 29.7729 18.4691C29.5678 18.8738 29.3687 19.2659 29.1559 19.685C28.7487 19.4781 28.357 19.2791 27.9355 19.0645Z" fill="white"/>
<path id="Vector_81" d="M25.1191 20.8276C25.1949 20.3578 25.2622 19.9381 25.3349 19.4868C25.7815 19.5562 26.2083 19.6225 26.6793 19.696C26.6095 20.1462 26.5422 20.5807 26.4706 21.041C26.0163 20.9693 25.5818 20.9005 25.1191 20.8276Z" fill="white"/>
<path id="Vector_82" d="M35.6992 39.7643C35.286 39.5539 34.8896 39.3524 34.4824 39.145C34.6881 38.7415 34.8866 38.353 35.1012 37.9321C35.5042 38.1366 35.8971 38.3356 36.318 38.549C36.1087 38.9597 35.9078 39.3548 35.6992 39.7643Z" fill="white"/>
<path id="Vector_83" d="M24.3387 34.4446C24.2629 34.9127 24.1944 35.3311 24.1211 35.7836C23.6728 35.7149 23.2459 35.6491 22.7773 35.5774C22.8471 35.1279 22.9145 34.6939 22.986 34.2324C23.4426 34.3036 23.8772 34.3723 24.3387 34.4446Z" fill="white"/>
<path id="Vector_84" d="M26.6807 37.9134C26.2133 37.9858 25.7942 38.0509 25.3352 38.1215C25.2613 37.6707 25.1909 37.2445 25.1152 36.7843C25.5623 36.7125 25.9987 36.6426 26.4643 36.5679C26.5371 37.0222 26.6062 37.449 26.6807 37.9134Z" fill="white"/>
<path id="Vector_85" d="M35.6986 17.8423C35.9078 18.2518 36.1099 18.6475 36.3192 19.0563C35.9084 19.265 35.5126 19.4658 35.1018 19.6738C34.8926 19.2644 34.6947 18.877 34.4824 18.461C34.8938 18.2518 35.2878 18.0515 35.6986 17.8423Z" fill="white"/>
<path id="Vector_86" d="M40.1311 35.7862C40.0577 35.3325 39.9898 34.914 39.9141 34.4484C40.3552 34.3767 40.7892 34.3055 41.259 34.229C41.3317 34.6731 41.4015 35.1005 41.4784 35.5704C41.0265 35.6427 40.5943 35.7121 40.1311 35.7862Z" fill="white"/>
<path id="Vector_87" d="M22.9739 25.8348C22.5619 26.0452 22.1768 26.2413 21.7595 26.4541C21.5521 26.0506 21.3512 25.6609 21.1348 25.2406C21.5473 25.0314 21.9402 24.8324 22.3533 24.6226C22.5608 25.0278 22.7587 25.4146 22.9739 25.8348Z" fill="white"/>
<path id="Vector_88" d="M41.9006 24.6318C42.3156 24.8422 42.7102 25.0431 43.118 25.2493C42.9093 25.6582 42.712 26.0455 42.4986 26.4634C42.0956 26.259 41.7039 26.0593 41.2812 25.8447C41.4899 25.437 41.6908 25.0437 41.9006 24.6318Z" fill="white"/>
<path id="Vector_89" d="M32.1104 40.2866C31.7968 39.9752 31.4946 39.6751 31.2168 39.3995C31.5286 39.0809 31.838 38.7641 32.1349 38.4604C32.4162 38.7432 32.7286 39.057 33.0255 39.3541C32.7298 39.6554 32.4198 39.9716 32.1104 40.2866Z" fill="white"/>
<path id="Vector_90" d="M22.9752 31.7651C22.7576 32.1877 22.5597 32.5732 22.3523 32.9767C21.9445 32.7699 21.5588 32.5744 21.1367 32.3604C21.3442 31.954 21.5439 31.5618 21.7555 31.147C22.1669 31.3556 22.5609 31.5552 22.9752 31.7651Z" fill="white"/>
<path id="Vector_91" d="M42.6849 29.7034C42.3964 29.4081 42.0924 29.0972 41.8086 28.8073C42.1007 28.509 42.4101 28.1934 42.7088 27.8892C43.0063 28.1916 43.3103 28.5013 43.6012 28.7972C43.3192 29.0757 43.0063 29.3854 42.6849 29.7034Z" fill="white"/>
<path id="Vector_92" d="M31.2051 18.2444C31.5085 17.9414 31.8161 17.6341 32.1202 17.3311C32.4087 17.6323 32.7139 17.9503 33.0025 18.251C32.7193 18.535 32.4069 18.8482 32.1005 19.1554C31.8233 18.8739 31.5181 18.5636 31.2051 18.2444Z" fill="white"/>
<path id="Vector_93" d="M22.427 28.8354C22.1695 29.0961 21.8625 29.4051 21.5829 29.6879C21.2818 29.38 20.973 29.0644 20.666 28.7512C20.9152 28.5085 21.2312 28.2018 21.5334 27.9077C21.8184 28.203 22.1254 28.5222 22.427 28.8354Z" fill="white"/>
<path id="Vector_94" d="M26.1676 22.8597C25.8009 22.8597 25.448 22.8597 25.0742 22.8597C25.0742 22.4999 25.0742 22.149 25.0742 21.7754C25.4343 21.7754 25.7932 21.7754 26.1676 21.7754C26.1676 22.1394 26.1676 22.4915 26.1676 22.8597Z" fill="white"/>
<path id="Vector_95" d="M38.084 22.8498C38.084 22.4953 38.084 22.1516 38.084 21.7798C38.4399 21.7798 38.791 21.7798 39.1702 21.7798C39.1702 22.1187 39.1702 22.4708 39.1702 22.8498C38.8178 22.8498 38.4596 22.8498 38.084 22.8498Z" fill="white"/>
<path id="Vector_96" d="M26.17 34.751C26.17 35.1204 26.17 35.4665 26.17 35.8353C25.8058 35.8353 25.4457 35.8353 25.0684 35.8353C25.0684 35.4737 25.0684 35.121 25.0684 34.751C25.4332 34.751 25.7855 34.751 26.17 34.751Z" fill="white"/>
<path id="Vector_97" d="M38.084 34.7441C38.4631 34.7441 38.8071 34.7441 39.1737 34.7441C39.1737 35.1058 39.1737 35.4573 39.1737 35.8339C38.8167 35.8339 38.459 35.8339 38.084 35.8339C38.084 35.4752 38.084 35.1237 38.084 34.7441Z" fill="white"/>
<path id="Vector_98" d="M40.6982 32.2617C40.8198 32.6359 40.9295 32.9713 41.0464 33.3305C40.6827 33.4483 40.3399 33.5595 39.9763 33.6778C39.8589 33.3204 39.7486 32.9844 39.627 32.6132C39.9793 32.4972 40.3203 32.3855 40.6982 32.2617Z" fill="white"/>
<path id="Vector_99" d="M41.0437 24.2711C40.9233 24.6393 40.8136 24.9758 40.6949 25.3375C40.3384 25.2239 40.0004 25.1163 39.623 24.9962C39.7405 24.6345 39.8526 24.2902 39.9706 23.9268C40.3289 24.0415 40.6657 24.1497 41.0437 24.2711Z" fill="white"/>
<path id="Vector_100" d="M35.9472 21.3323C35.8267 20.9629 35.7171 20.6263 35.5996 20.2659C35.9585 20.1487 36.2953 20.0393 36.6673 19.918C36.783 20.2671 36.8968 20.6108 37.0208 20.9856C36.6536 21.1039 36.3096 21.2151 35.9472 21.3323Z" fill="white"/>
<path id="Vector_101" d="M30.5625 38.6626C30.3318 38.3463 30.1226 38.0588 29.8984 37.7516C30.2025 37.531 30.497 37.3176 30.8111 37.0898C31.0317 37.3923 31.2463 37.6858 31.4747 37.9996C31.1718 38.2202 30.8785 38.433 30.5625 38.6626Z" fill="white"/>
<path id="Vector_102" d="M27.2383 20.9911C27.3611 20.6145 27.4678 20.2863 27.5858 19.9253C27.9376 20.0383 28.2792 20.1477 28.6583 20.269C28.5403 20.633 28.4288 20.9768 28.3114 21.3384C27.9525 21.2224 27.6097 21.1119 27.2383 20.9911Z" fill="white"/>
<path id="Vector_103" d="M24.283 33.6826C23.908 33.5607 23.5801 33.4543 23.2129 33.3353C23.3262 32.9862 23.4364 32.6449 23.5587 32.2671C23.9217 32.3843 24.2645 32.4948 24.6311 32.6126C24.5143 32.9719 24.4028 33.3138 24.283 33.6826Z" fill="white"/>
<path id="Vector_104" d="M23.1555 31.0204C22.8371 30.7908 22.5498 30.5828 22.2422 30.361C22.4646 30.0574 22.6774 29.7656 22.9063 29.4536C23.2193 29.6796 23.5126 29.8918 23.8184 30.1123C23.5966 30.4154 23.3874 30.7029 23.1555 31.0204Z" fill="white"/>
<path id="Vector_105" d="M33.6929 38.6554C33.3716 38.4223 33.0843 38.2136 32.7832 37.9943C33.0032 37.6918 33.2118 37.4043 33.4443 37.0845C33.7472 37.3033 34.0405 37.5149 34.3588 37.745C34.1365 38.0493 33.9236 38.3404 33.6929 38.6554Z" fill="white"/>
<path id="Vector_106" d="M42.0085 27.2428C41.7813 27.5537 41.5721 27.8406 41.3443 28.1526C41.0373 27.9303 40.7428 27.7175 40.4316 27.4921C40.6564 27.1843 40.8698 26.8925 41.0957 26.5835C41.4063 26.8077 41.6937 27.0151 42.0085 27.2428Z" fill="white"/>
<path id="Vector_107" d="M32.7793 19.6148C33.0911 19.3877 33.3772 19.179 33.6908 18.9507C33.9096 19.2496 34.123 19.5419 34.3549 19.8599C34.0455 20.0846 33.7534 20.2968 33.4434 20.5228C33.2204 20.2185 33.0118 19.9328 32.7793 19.6148Z" fill="white"/>
<path id="Vector_108" d="M23.819 27.4894C23.5001 27.7189 23.2127 27.9252 22.9039 28.1475C22.6798 27.8409 22.4705 27.5551 22.2422 27.2437C22.5409 27.0255 22.8318 26.8133 23.1519 26.5796C23.3761 26.885 23.5901 27.1774 23.819 27.4894Z" fill="white"/>
<path id="Vector_109" d="M23.5583 25.347C23.4373 24.9764 23.3294 24.6471 23.209 24.2794C23.5607 24.1653 23.9047 24.0535 24.2785 23.9321C24.3959 24.2866 24.5074 24.6231 24.632 24.9979C24.2779 25.1133 23.9345 25.2251 23.5583 25.347Z" fill="white"/>
<path id="Vector_110" d="M42.0079 30.3631C41.6955 30.5896 41.4093 30.7977 41.0952 31.0254C40.8722 30.7199 40.6582 30.4276 40.4316 30.1168C40.7404 29.892 41.0332 29.6792 41.342 29.4551C41.5667 29.7623 41.7766 30.0481 42.0079 30.3631Z" fill="white"/>
<path id="Vector_111" d="M28.6524 37.3381C28.2888 37.4565 27.9466 37.5683 27.5818 37.6872C27.4649 37.3309 27.3546 36.995 27.2324 36.6238C27.5865 36.5066 27.9269 36.3942 28.3013 36.2705C28.4194 36.6298 28.5314 36.9717 28.6524 37.3381Z" fill="white"/>
<path id="Vector_112" d="M30.8117 20.5234C30.5041 20.3004 30.2162 20.0918 29.8984 19.8611C30.122 19.5532 30.336 19.2597 30.5608 18.9507C30.8654 19.1725 31.1581 19.3853 31.4717 19.6136C31.2481 19.9226 31.0395 20.2096 30.8117 20.5234Z" fill="white"/>
<path id="Vector_113" d="M35.5938 37.3471C35.7172 36.9717 35.8274 36.6369 35.9449 36.2812C36.3056 36.3972 36.6418 36.5048 37.0126 36.6244C36.8999 36.977 36.7902 37.3196 36.6698 37.695C36.3061 37.5766 35.964 37.4666 35.5938 37.3471Z" fill="white"/>
<path id="Vector_114" d="M72.3613 14.2662C72.3613 13.9368 72.3613 13.6343 72.3613 13.3115C72.6803 13.3115 72.9909 13.3115 73.3211 13.3115C73.3211 13.6295 73.3211 13.9398 73.3211 14.2662C73.0052 14.2662 72.7029 14.2662 72.3613 14.2662Z" fill="white"/>
<path id="Vector_115" d="M74.332 14.2635C74.332 13.9353 74.332 13.6317 74.332 13.3101C74.6522 13.3101 74.955 13.3101 75.2817 13.3101C75.2817 13.6239 75.2817 13.9341 75.2817 14.2635C74.9711 14.2635 74.6677 14.2635 74.332 14.2635Z" fill="white"/>
<path id="Vector_116" d="M55.908 1.08545C55.908 1.40406 55.908 1.69816 55.908 2.01438C55.5908 2.01438 55.2814 2.01438 54.9512 2.01438C54.9512 1.71609 54.9512 1.41482 54.9512 1.08545C55.2594 1.08545 55.5676 1.08545 55.908 1.08545Z" fill="white"/>
<path id="Vector_117" d="M53 1.07422C53.3243 1.07422 53.6277 1.07422 53.9485 1.07422C53.9485 1.38386 53.9485 1.67916 53.9485 2.00016C53.6415 2.00016 53.3321 2.00016 53 2.00016C53 1.6947 53 1.39283 53 1.07422Z" fill="white"/>
<path id="Vector_118" d="M24.1113 29.4462C23.8919 29.2256 23.6898 29.0236 23.4883 28.8209C23.7071 28.6027 23.9205 28.3905 24.1345 28.1777C24.3372 28.3798 24.5464 28.5878 24.7623 28.803C24.5464 29.0158 24.3366 29.2232 24.1113 29.4462Z" fill="white"/>
<path id="Vector_119" d="M25.1152 33.877C25.1671 33.556 25.2118 33.2751 25.2619 32.9648C25.5707 33.0133 25.8652 33.0587 26.18 33.1083C26.1287 33.4263 26.0828 33.7144 26.0333 34.0229C25.7221 33.9727 25.4336 33.9272 25.1152 33.877Z" fill="white"/>
<path id="Vector_120" d="M30.2749 21.0166C30.1307 21.2976 29.9959 21.5588 29.8499 21.8428C29.5762 21.7041 29.3151 21.5726 29.0254 21.4255C29.1631 21.1499 29.2931 20.8893 29.4397 20.5952C29.7229 20.7387 29.9906 20.8732 30.2749 21.0166Z" fill="white"/>
<path id="Vector_121" d="M26.181 24.4968C25.8626 24.5464 25.5723 24.5918 25.2629 24.6396C25.2128 24.3342 25.1669 24.0526 25.1133 23.7268C25.4233 23.6784 25.719 23.6324 26.0331 23.584C26.0832 23.893 26.1291 24.1758 26.181 24.4968Z" fill="white"/>
<path id="Vector_122" d="M40.3689 26.134C40.2205 26.4245 40.087 26.6857 39.9457 26.9619C39.6613 26.8172 39.3996 26.6845 39.1152 26.5405C39.2571 26.2643 39.3901 26.0043 39.5385 25.7144C39.8193 25.856 40.0858 25.9905 40.3689 26.134Z" fill="white"/>
<path id="Vector_123" d="M39.1397 33.8777C38.816 33.9291 38.5364 33.9739 38.2228 34.0235C38.1739 33.7181 38.1274 33.4306 38.0762 33.1114C38.3874 33.0605 38.6747 33.0133 38.9889 32.9619C39.039 33.2644 39.0866 33.5537 39.1397 33.8777Z" fill="white"/>
<path id="Vector_124" d="M34.3903 35.7695C34.6854 35.9202 34.9483 36.0541 35.2237 36.1939C35.08 36.4743 34.9489 36.7301 34.8016 37.0177C34.5316 36.8826 34.2711 36.7517 33.9766 36.604C34.1125 36.3284 34.2424 36.0666 34.3903 35.7695Z" fill="white"/>
<path id="Vector_125" d="M34.394 21.8342C34.2461 21.5449 34.1156 21.2896 33.9707 21.0063C34.2467 20.8658 34.5096 20.7325 34.7982 20.5854C34.9389 20.858 35.0724 21.1175 35.2244 21.411C34.9448 21.5532 34.6837 21.6859 34.394 21.8342Z" fill="white"/>
<path id="Vector_126" d="M38.2125 23.5845C38.535 23.6335 38.8158 23.6765 39.1306 23.7244C39.0829 24.0322 39.0388 24.3209 38.9899 24.6395C38.6823 24.5923 38.3938 24.5481 38.0742 24.4991C38.1195 24.2002 38.163 23.9126 38.2125 23.5845Z" fill="white"/>
<path id="Vector_127" d="M25.1404 26.5394C24.8447 26.6888 24.5824 26.8215 24.3076 26.9602C24.1675 26.6864 24.0369 26.4306 23.8867 26.1371C24.1568 25.9978 24.4173 25.8645 24.7094 25.7139C24.8513 25.9853 24.9866 26.2447 25.1404 26.5394Z" fill="white"/>
<path id="Vector_128" d="M39.1133 31.0698C39.3947 30.9263 39.6498 30.7966 39.9443 30.646C40.0856 30.924 40.2221 31.1918 40.3652 31.4739C40.085 31.6168 39.8304 31.7465 39.5383 31.8953C39.3994 31.6251 39.2653 31.3651 39.1133 31.0698Z" fill="white"/>
<path id="Vector_129" d="M26.8867 22.741C26.9398 22.414 26.9851 22.1342 27.0352 21.8252C27.3404 21.8724 27.6283 21.9173 27.9479 21.9669C27.902 22.2681 27.8584 22.5557 27.8096 22.8779C27.4996 22.8318 27.2122 22.7894 26.8867 22.741Z" fill="white"/>
<path id="Vector_130" d="M29.0254 36.1873C29.3169 36.0391 29.5727 35.9094 29.8528 35.7671C29.9923 36.0361 30.1265 36.2961 30.2797 36.592C30.0037 36.7325 29.7426 36.8658 29.4498 37.0152C29.308 36.7391 29.1738 36.4778 29.0254 36.1873Z" fill="white"/>
<path id="Vector_131" d="M37.36 34.8777C37.3117 35.1879 37.267 35.4754 37.2187 35.7881C36.9058 35.7409 36.6256 35.6984 36.3066 35.65C36.3519 35.3427 36.3943 35.0546 36.442 34.7324C36.7544 34.782 37.0411 34.8269 37.36 34.8777Z" fill="white"/>
<path id="Vector_132" d="M37.3624 22.7287C37.0524 22.7789 36.7734 22.8243 36.455 22.8763C36.4038 22.5762 36.3543 22.2893 36.2988 21.9683C36.6052 21.9169 36.892 21.8685 37.2175 21.8135C37.2664 22.1225 37.3117 22.4094 37.3624 22.7287Z" fill="white"/>
<path id="Vector_133" d="M32.715 36.8333C32.5415 37.0001 32.3292 37.2045 32.1152 37.4108C31.9233 37.2123 31.7194 37.0013 31.5 36.7748C31.7021 36.5954 31.9221 36.4 32.148 36.1997C32.3096 36.3796 32.5093 36.6032 32.715 36.8333Z" fill="white"/>
<path id="Vector_134" d="M24.7109 31.8935C24.4277 31.7489 24.1684 31.6162 23.8828 31.4697C24.0265 31.1882 24.16 30.9275 24.3043 30.646C24.5803 30.7853 24.842 30.9174 25.1335 31.0644C24.9922 31.3412 24.8563 31.6078 24.7109 31.8935Z" fill="white"/>
<path id="Vector_135" d="M27.0341 35.7868C26.9823 35.4592 26.9376 35.1789 26.8887 34.8722C27.2034 34.8226 27.4908 34.7772 27.8056 34.7275C27.8544 35.039 27.8985 35.3193 27.9486 35.6361C27.6434 35.6869 27.3561 35.7342 27.0341 35.7868Z" fill="white"/>
<path id="Vector_136" d="M32.7218 20.82C32.5155 21.0466 32.323 21.2582 32.1376 21.462C31.92 21.2367 31.7149 21.0251 31.5176 20.8206C31.7185 20.6228 31.9289 20.4153 32.1209 20.2271C32.3134 20.4171 32.5286 20.6293 32.7218 20.82Z" fill="white"/>
<path id="Vector_137" d="M40.1542 28.1724C40.3498 28.3816 40.5441 28.5902 40.7504 28.8114C40.5536 29.0003 40.339 29.2065 40.1155 29.4217C39.9241 29.2202 39.7226 29.008 39.5312 28.8066C39.7196 28.6147 39.9247 28.4061 40.1542 28.1724Z" fill="white"/>
<path id="Vector_138" d="M3.21854 46.6749C3.02778 46.6749 2.86205 46.6749 2.67188 46.6749C2.67188 46.4956 2.67188 46.3228 2.67188 46.1226C2.83999 46.1226 3.02003 46.1226 3.21854 46.1226C3.21854 46.2947 3.21854 46.4687 3.21854 46.6749Z" fill="white"/>
<path id="Vector_139" d="M41.8848 52.4013C41.8848 52.2095 41.8848 52.0421 41.8848 51.855C42.0696 51.855 42.2442 51.855 42.441 51.855C42.441 52.0313 42.441 52.213 42.441 52.4013C42.249 52.4013 42.0684 52.4013 41.8848 52.4013Z" fill="white"/>
<path id="Vector_140" d="M5.50586 52.4066C5.50586 52.2165 5.50586 52.0491 5.50586 51.8584C5.69067 51.8584 5.8707 51.8584 6.06803 51.8584C6.06803 52.0401 6.06803 52.2135 6.06803 52.4066C5.88441 52.4066 5.71153 52.4066 5.50586 52.4066Z" fill="white"/>
<path id="Vector_141" d="M37.9702 46.1143C37.9702 46.3002 37.9702 46.4729 37.9702 46.666C37.7901 46.666 37.6178 46.666 37.4199 46.666C37.4199 46.4926 37.4199 46.3139 37.4199 46.1143C37.5964 46.1143 37.7758 46.1143 37.9702 46.1143Z" fill="white"/>
<path id="Vector_142" d="M61.3203 46.1099C61.517 46.1099 61.6899 46.1099 61.8789 46.1099C61.8789 46.297 61.8789 46.4703 61.8789 46.6652C61.6959 46.6652 61.5164 46.6652 61.3203 46.6652C61.3203 46.4829 61.3203 46.3101 61.3203 46.1099Z" fill="white"/>
<path id="Vector_143" d="M44.519 52.4298C44.3282 52.4298 44.1553 52.4298 43.9688 52.4298C43.9688 52.2409 43.9688 52.0676 43.9688 51.8745C44.1482 51.8745 44.3205 51.8745 44.519 51.8745C44.519 52.0479 44.519 52.2266 44.519 52.4298Z" fill="white"/>
<path id="Vector_144" d="M62.3262 46.1084C62.5187 46.1084 62.6839 46.1084 62.8681 46.1084C62.8681 46.2937 62.8681 46.4659 62.8681 46.6625C62.6922 46.6625 62.5223 46.6625 62.3262 46.6625C62.3262 46.4874 62.3262 46.3086 62.3262 46.1084Z" fill="white"/>
<path id="Vector_145" d="M41.4539 51.8594C41.4539 52.0501 41.4539 52.2156 41.4539 52.4033C41.2715 52.4033 41.1004 52.4033 40.9043 52.4033C40.9043 52.2264 40.9043 52.0465 40.9043 51.8594C41.0939 51.8594 41.2727 51.8594 41.4539 51.8594Z" fill="white"/>
<path id="Vector_146" d="M4.52539 52.4084C4.52539 52.2255 4.52539 52.0534 4.52539 51.8579C4.69947 51.8579 4.87056 51.8579 5.06729 51.8579C5.06729 52.0307 5.06729 52.2106 5.06729 52.4084C4.88904 52.4084 4.71735 52.4084 4.52539 52.4084Z" fill="white"/>
<path id="Vector_147" d="M38.418 46.1079C38.6105 46.1079 38.7751 46.1079 38.9593 46.1079C38.9593 46.2926 38.9593 46.4648 38.9593 46.662C38.784 46.662 38.6147 46.662 38.418 46.662C38.418 46.4875 38.418 46.3088 38.418 46.1079Z" fill="white"/>
<path id="Vector_148" d="M2.22718 46.1128C2.22718 46.3035 2.22718 46.4762 2.22718 46.6681C2.04535 46.6681 1.88201 46.6681 1.68945 46.6681C1.68945 46.4882 1.68945 46.3089 1.68945 46.1128C1.86711 46.1128 2.03939 46.1128 2.22718 46.1128Z" fill="white"/>
</g>
</g>
<defs>
<clipPath id="clip0_1442_10267">
<rect width="87.91" height="59" fill="white"/>
</clipPath>
</defs>
</svg>
